# This file was created with Minddesk Qubicle 3.0
# Get Qubicle at www.getqubicle.com

mtllib 101_Piece5_8_0.mtl

vn 0.0 0.0 1.0
vn 0.0 0.0 -1.0
vn -1.0 0.0 0.0
vn 1.0 0.0 0.0
vn 0.0 1.0 0.0
vn 0.0 -1.0 0.0

v -24.00000 65.00000 0.00000
v -24.00000 64.00000 0.00000
v -24.00000 64.00000 1.00000
v -24.00000 65.00000 1.00000
v -23.00000 64.00000 0.00000
v -23.00000 64.00000 1.00000
v -23.00000 65.00000 0.00000
v -23.00000 65.00000 1.00000
v -24.00000 66.00000 0.00000
v -24.00000 66.00000 1.00000
v -23.00000 66.00000 0.00000
v -23.00000 66.00000 1.00000
v -24.00000 67.00000 0.00000
v -24.00000 67.00000 1.00000
v -23.00000 67.00000 0.00000
v -23.00000 67.00000 1.00000
v -24.00000 68.00000 0.00000
v -24.00000 68.00000 1.00000
v -23.00000 68.00000 0.00000
v -23.00000 68.00000 1.00000
v -24.00000 69.00000 0.00000
v -24.00000 69.00000 1.00000
v -23.00000 69.00000 0.00000
v -23.00000 69.00000 1.00000
v -24.00000 70.00000 0.00000
v -24.00000 70.00000 1.00000
v -23.00000 70.00000 0.00000
v -23.00000 70.00000 1.00000
v -24.00000 71.00000 0.00000
v -24.00000 71.00000 1.00000
v -23.00000 71.00000 0.00000
v -23.00000 71.00000 1.00000
v -24.00000 72.00000 0.00000
v -24.00000 72.00000 1.00000
v -23.00000 72.00000 1.00000
v -23.00000 72.00000 0.00000
v -22.00000 64.00000 0.00000
v -22.00000 64.00000 1.00000
v -22.00000 65.00000 0.00000
v -22.00000 65.00000 1.00000
v -22.00000 66.00000 0.00000
v -22.00000 66.00000 1.00000
v -22.00000 67.00000 0.00000
v -22.00000 67.00000 1.00000
v -22.00000 68.00000 0.00000
v -22.00000 68.00000 1.00000
v -22.00000 69.00000 0.00000
v -22.00000 69.00000 1.00000
v -22.00000 70.00000 0.00000
v -22.00000 70.00000 1.00000
v -22.00000 71.00000 0.00000
v -22.00000 71.00000 1.00000
v -22.00000 72.00000 1.00000
v -22.00000 72.00000 0.00000
v -21.00000 64.00000 0.00000
v -21.00000 64.00000 1.00000
v -21.00000 65.00000 0.00000
v -21.00000 65.00000 1.00000
v -21.00000 66.00000 0.00000
v -21.00000 66.00000 1.00000
v -21.00000 67.00000 0.00000
v -21.00000 67.00000 1.00000
v -21.00000 68.00000 0.00000
v -21.00000 68.00000 1.00000
v -21.00000 69.00000 0.00000
v -21.00000 69.00000 1.00000
v -21.00000 70.00000 0.00000
v -21.00000 70.00000 1.00000
v -21.00000 71.00000 0.00000
v -21.00000 71.00000 1.00000
v -21.00000 72.00000 1.00000
v -21.00000 72.00000 0.00000
v -20.00000 64.00000 0.00000
v -20.00000 64.00000 1.00000
v -20.00000 65.00000 0.00000
v -20.00000 65.00000 1.00000
v -20.00000 66.00000 0.00000
v -20.00000 66.00000 1.00000
v -20.00000 67.00000 0.00000
v -20.00000 67.00000 1.00000
v -20.00000 68.00000 0.00000
v -20.00000 68.00000 1.00000
v -20.00000 69.00000 0.00000
v -20.00000 69.00000 1.00000
v -20.00000 70.00000 0.00000
v -20.00000 70.00000 1.00000
v -20.00000 71.00000 0.00000
v -20.00000 71.00000 1.00000
v -20.00000 72.00000 1.00000
v -20.00000 72.00000 0.00000
v -19.00000 64.00000 0.00000
v -19.00000 64.00000 1.00000
v -19.00000 65.00000 0.00000
v -19.00000 65.00000 1.00000
v -19.00000 66.00000 0.00000
v -19.00000 66.00000 1.00000
v -19.00000 67.00000 0.00000
v -19.00000 67.00000 1.00000
v -19.00000 68.00000 0.00000
v -19.00000 68.00000 1.00000
v -19.00000 69.00000 0.00000
v -19.00000 69.00000 1.00000
v -19.00000 70.00000 0.00000
v -19.00000 70.00000 1.00000
v -19.00000 71.00000 0.00000
v -19.00000 71.00000 1.00000
v -19.00000 72.00000 1.00000
v -19.00000 72.00000 0.00000
v -18.00000 64.00000 0.00000
v -18.00000 64.00000 1.00000
v -18.00000 65.00000 0.00000
v -18.00000 65.00000 1.00000
v -18.00000 66.00000 0.00000
v -18.00000 66.00000 1.00000
v -18.00000 67.00000 0.00000
v -18.00000 67.00000 1.00000
v -18.00000 68.00000 0.00000
v -18.00000 68.00000 1.00000
v -18.00000 69.00000 0.00000
v -18.00000 69.00000 1.00000
v -18.00000 70.00000 0.00000
v -18.00000 70.00000 1.00000
v -18.00000 71.00000 0.00000
v -18.00000 71.00000 1.00000
v -18.00000 72.00000 1.00000
v -18.00000 72.00000 0.00000
v -17.00000 64.00000 0.00000
v -17.00000 64.00000 1.00000
v -17.00000 65.00000 0.00000
v -17.00000 65.00000 1.00000
v -17.00000 66.00000 0.00000
v -17.00000 66.00000 1.00000
v -17.00000 67.00000 0.00000
v -17.00000 67.00000 1.00000
v -17.00000 68.00000 0.00000
v -17.00000 68.00000 1.00000
v -17.00000 69.00000 0.00000
v -17.00000 69.00000 1.00000
v -17.00000 70.00000 0.00000
v -17.00000 70.00000 1.00000
v -17.00000 71.00000 0.00000
v -17.00000 71.00000 1.00000
v -17.00000 72.00000 1.00000
v -17.00000 72.00000 0.00000
v -16.00000 65.00000 1.00000
v -16.00000 64.00000 1.00000
v -16.00000 64.00000 0.00000
v -16.00000 65.00000 0.00000
v -16.00000 66.00000 1.00000
v -16.00000 66.00000 0.00000
v -16.00000 67.00000 1.00000
v -16.00000 67.00000 0.00000
v -16.00000 68.00000 1.00000
v -16.00000 68.00000 0.00000
v -16.00000 69.00000 1.00000
v -16.00000 69.00000 0.00000
v -16.00000 70.00000 1.00000
v -16.00000 70.00000 0.00000
v -16.00000 71.00000 1.00000
v -16.00000 71.00000 0.00000
v -16.00000 72.00000 1.00000
v -16.00000 72.00000 0.00000

vt 0.23828 0.25000
vt 0.23828 0.24219
vt 0.24219 0.24219
vt 0.24219 0.25000
vt 0.25000 0.25000
vt 0.25000 0.24219
vt 0.25391 0.24219
vt 0.25391 0.25000
vt 0.26172 0.25000
vt 0.26172 0.24219
vt 0.26563 0.24219
vt 0.26563 0.25000
vt 0.27344 0.25000
vt 0.27344 0.24219
vt 0.27734 0.24219
vt 0.27734 0.25000
vt 0.28516 0.25000
vt 0.28516 0.24219
vt 0.28906 0.24219
vt 0.28906 0.25000
vt 0.29688 0.25000
vt 0.29688 0.24219
vt 0.30078 0.24219
vt 0.30078 0.25000

g 101_Piece5_8_0
usemtl 101_Material
f 1/1/3 2/2/3 3/3/3 4/4/3
f 3/1/6 2/2/6 5/3/6 6/4/6
f 7/1/2 5/2/2 2/3/2 1/4/2
f 4/1/1 3/2/1 6/3/1 8/4/1
f 9/1/3 1/2/3 4/3/3 10/4/3
f 11/1/2 7/2/2 1/3/2 9/4/2
f 10/1/1 4/2/1 8/3/1 12/4/1
f 13/1/3 9/2/3 10/3/3 14/4/3
f 15/1/2 11/2/2 9/3/2 13/4/2
f 14/1/1 10/2/1 12/3/1 16/4/1
f 17/5/3 13/6/3 14/7/3 18/8/3
f 19/5/2 15/6/2 13/7/2 17/8/2
f 18/5/1 14/6/1 16/7/1 20/8/1
f 21/5/3 17/6/3 18/7/3 22/8/3
f 23/5/2 19/6/2 17/7/2 21/8/2
f 22/5/1 18/6/1 20/7/1 24/8/1
f 25/9/3 21/10/3 22/11/3 26/12/3
f 27/9/2 23/10/2 21/11/2 25/12/2
f 26/9/1 22/10/1 24/11/1 28/12/1
f 29/9/3 25/10/3 26/11/3 30/12/3
f 31/9/2 27/10/2 25/11/2 29/12/2
f 30/9/1 26/10/1 28/11/1 32/12/1
f 33/9/3 29/10/3 30/11/3 34/12/3
f 33/9/5 34/10/5 35/11/5 36/12/5
f 36/9/2 31/10/2 29/11/2 33/12/2
f 34/9/1 30/10/1 32/11/1 35/12/1
f 6/1/6 5/2/6 37/3/6 38/4/6
f 39/1/2 37/2/2 5/3/2 7/4/2
f 8/1/1 6/2/1 38/3/1 40/4/1
f 41/13/2 39/14/2 7/15/2 11/16/2
f 12/13/1 8/14/1 40/15/1 42/16/1
f 43/13/2 41/14/2 11/15/2 15/16/2
f 16/13/1 12/14/1 42/15/1 44/16/1
f 45/13/2 43/14/2 15/15/2 19/16/2
f 20/13/1 16/14/1 44/15/1 46/16/1
f 47/13/2 45/14/2 19/15/2 23/16/2
f 24/13/1 20/14/1 46/15/1 48/16/1
f 49/17/2 47/18/2 23/19/2 27/20/2
f 28/17/1 24/18/1 48/19/1 50/20/1
f 51/17/2 49/18/2 27/19/2 31/20/2
f 32/17/1 28/18/1 50/19/1 52/20/1
f 36/9/5 35/10/5 53/11/5 54/12/5
f 54/9/2 51/10/2 31/11/2 36/12/2
f 35/9/1 32/10/1 52/11/1 53/12/1
f 38/5/6 37/6/6 55/7/6 56/8/6
f 57/5/2 55/6/2 37/7/2 39/8/2
f 40/5/1 38/6/1 56/7/1 58/8/1
f 59/13/2 57/14/2 39/15/2 41/16/2
f 42/13/1 40/14/1 58/15/1 60/16/1
f 61/13/2 59/14/2 41/15/2 43/16/2
f 44/13/1 42/14/1 60/15/1 62/16/1
f 63/21/2 61/22/2 43/23/2 45/24/2
f 46/21/1 44/22/1 62/23/1 64/24/1
f 65/21/2 63/22/2 45/23/2 47/24/2
f 48/21/1 46/22/1 64/23/1 66/24/1
f 67/21/2 65/22/2 47/23/2 49/24/2
f 50/21/1 48/22/1 66/23/1 68/24/1
f 69/17/2 67/18/2 49/19/2 51/20/2
f 52/17/1 50/18/1 68/19/1 70/20/1
f 54/9/5 53/10/5 71/11/5 72/12/5
f 72/9/2 69/10/2 51/11/2 54/12/2
f 53/9/1 52/10/1 70/11/1 71/12/1
f 56/5/6 55/6/6 73/7/6 74/8/6
f 75/5/2 73/6/2 55/7/2 57/8/2
f 58/5/1 56/6/1 74/7/1 76/8/1
f 77/13/2 75/14/2 57/15/2 59/16/2
f 60/13/1 58/14/1 76/15/1 78/16/1
f 79/21/2 77/22/2 59/23/2 61/24/2
f 62/21/1 60/22/1 78/23/1 80/24/1
f 81/13/2 79/14/2 61/15/2 63/16/2
f 64/13/1 62/14/1 80/15/1 82/16/1
f 83/21/2 81/22/2 63/23/2 65/24/2
f 66/21/1 64/22/1 82/23/1 84/24/1
f 85/21/2 83/22/2 65/23/2 67/24/2
f 68/21/1 66/22/1 84/23/1 86/24/1
f 87/17/2 85/18/2 67/19/2 69/20/2
f 70/17/1 68/18/1 86/19/1 88/20/1
f 72/9/5 71/10/5 89/11/5 90/12/5
f 90/9/2 87/10/2 69/11/2 72/12/2
f 71/9/1 70/10/1 88/11/1 89/12/1
f 74/5/6 73/6/6 91/7/6 92/8/6
f 93/5/2 91/6/2 73/7/2 75/8/2
f 76/5/1 74/6/1 92/7/1 94/8/1
f 95/17/2 93/18/2 75/19/2 77/20/2
f 78/17/1 76/18/1 94/19/1 96/20/1
f 97/13/2 95/14/2 77/15/2 79/16/2
f 80/13/1 78/14/1 96/15/1 98/16/1
f 99/13/2 97/14/2 79/15/2 81/16/2
f 82/13/1 80/14/1 98/15/1 100/16/1
f 101/13/2 99/14/2 81/15/2 83/16/2
f 84/13/1 82/14/1 100/15/1 102/16/1
f 103/21/2 101/22/2 83/23/2 85/24/2
f 86/21/1 84/22/1 102/23/1 104/24/1
f 105/17/2 103/18/2 85/19/2 87/20/2
f 88/17/1 86/18/1 104/19/1 106/20/1
f 90/9/5 89/10/5 107/11/5 108/12/5
f 108/9/2 105/10/2 87/11/2 90/12/2
f 89/9/1 88/10/1 106/11/1 107/12/1
f 92/5/6 91/6/6 109/7/6 110/8/6
f 111/5/2 109/6/2 91/7/2 93/8/2
f 94/5/1 92/6/1 110/7/1 112/8/1
f 113/17/2 111/18/2 93/19/2 95/20/2
f 96/17/1 94/18/1 112/19/1 114/20/1
f 115/13/2 113/14/2 95/15/2 97/16/2
f 98/13/1 96/14/1 114/15/1 116/16/1
f 117/13/2 115/14/2 97/15/2 99/16/2
f 100/13/1 98/14/1 116/15/1 118/16/1
f 119/21/2 117/22/2 99/23/2 101/24/2
f 102/21/1 100/22/1 118/23/1 120/24/1
f 121/13/2 119/14/2 101/15/2 103/16/2
f 104/13/1 102/14/1 120/15/1 122/16/1
f 123/17/2 121/18/2 103/19/2 105/20/2
f 106/17/1 104/18/1 122/19/1 124/20/1
f 108/9/5 107/10/5 125/11/5 126/12/5
f 126/9/2 123/10/2 105/11/2 108/12/2
f 107/9/1 106/10/1 124/11/1 125/12/1
f 110/5/6 109/6/6 127/7/6 128/8/6
f 129/5/2 127/6/2 109/7/2 111/8/2
f 112/5/1 110/6/1 128/7/1 130/8/1
f 131/17/2 129/18/2 111/19/2 113/20/2
f 114/17/1 112/18/1 130/19/1 132/20/1
f 133/17/2 131/18/2 113/19/2 115/20/2
f 116/17/1 114/18/1 132/19/1 134/20/1
f 135/21/2 133/22/2 115/23/2 117/24/2
f 118/21/1 116/22/1 134/23/1 136/24/1
f 137/13/2 135/14/2 117/15/2 119/16/2
f 120/13/1 118/14/1 136/15/1 138/16/1
f 139/21/2 137/22/2 119/23/2 121/24/2
f 122/21/1 120/22/1 138/23/1 140/24/1
f 141/17/2 139/18/2 121/19/2 123/20/2
f 124/17/1 122/18/1 140/19/1 142/20/1
f 126/1/5 125/2/5 143/3/5 144/4/5
f 144/1/2 141/2/2 123/3/2 126/4/2
f 125/1/1 124/2/1 142/3/1 143/4/1
f 145/5/4 146/6/4 147/7/4 148/8/4
f 128/5/6 127/6/6 147/7/6 146/8/6
f 148/5/2 147/6/2 127/7/2 129/8/2
f 130/5/1 128/6/1 146/7/1 145/8/1
f 149/5/4 145/6/4 148/7/4 150/8/4
f 150/5/2 148/6/2 129/7/2 131/8/2
f 132/5/1 130/6/1 145/7/1 149/8/1
f 151/5/4 149/6/4 150/7/4 152/8/4
f 152/5/2 150/6/2 131/7/2 133/8/2
f 134/5/1 132/6/1 149/7/1 151/8/1
f 153/5/4 151/6/4 152/7/4 154/8/4
f 154/5/2 152/6/2 133/7/2 135/8/2
f 136/5/1 134/6/1 151/7/1 153/8/1
f 155/5/4 153/6/4 154/7/4 156/8/4
f 156/5/2 154/6/2 135/7/2 137/8/2
f 138/5/1 136/6/1 153/7/1 155/8/1
f 157/1/4 155/2/4 156/3/4 158/4/4
f 158/1/2 156/2/2 137/3/2 139/4/2
f 140/1/1 138/2/1 155/3/1 157/4/1
f 159/1/4 157/2/4 158/3/4 160/4/4
f 160/1/2 158/2/2 139/3/2 141/4/2
f 142/1/1 140/2/1 157/3/1 159/4/1
f 161/1/4 159/2/4 160/3/4 162/4/4
f 144/1/5 143/2/5 161/3/5 162/4/5
f 162/1/2 160/2/2 141/3/2 144/4/2
f 143/1/1 142/2/1 159/3/1 161/4/1
