# This file was created with Minddesk Qubicle 3.0
# Get Qubicle at www.getqubicle.com

mtllib 101_Piece5_16_0.mtl

vn 0.0 0.0 1.0
vn 0.0 0.0 -1.0
vn -1.0 0.0 0.0
vn 1.0 0.0 0.0
vn 0.0 1.0 0.0
vn 0.0 -1.0 0.0

v -24.00000 129.00000 0.00000
v -24.00000 128.00000 0.00000
v -24.00000 128.00000 1.00000
v -24.00000 129.00000 1.00000
v -23.00000 128.00000 0.00000
v -23.00000 128.00000 1.00000
v -23.00000 129.00000 0.00000
v -23.00000 129.00000 1.00000
v -24.00000 130.00000 0.00000
v -24.00000 130.00000 1.00000
v -23.00000 130.00000 0.00000
v -23.00000 130.00000 1.00000
v -24.00000 131.00000 0.00000
v -24.00000 131.00000 1.00000
v -23.00000 131.00000 0.00000
v -23.00000 131.00000 1.00000
v -24.00000 132.00000 0.00000
v -24.00000 132.00000 1.00000
v -23.00000 132.00000 0.00000
v -23.00000 132.00000 1.00000
v -24.00000 133.00000 0.00000
v -24.00000 133.00000 1.00000
v -23.00000 133.00000 0.00000
v -23.00000 133.00000 1.00000
v -24.00000 134.00000 0.00000
v -24.00000 134.00000 1.00000
v -23.00000 134.00000 0.00000
v -23.00000 134.00000 1.00000
v -24.00000 135.00000 0.00000
v -24.00000 135.00000 1.00000
v -23.00000 135.00000 0.00000
v -23.00000 135.00000 1.00000
v -24.00000 136.00000 0.00000
v -24.00000 136.00000 1.00000
v -23.00000 136.00000 1.00000
v -23.00000 136.00000 0.00000
v -22.00000 128.00000 0.00000
v -22.00000 128.00000 1.00000
v -22.00000 129.00000 0.00000
v -22.00000 129.00000 1.00000
v -22.00000 130.00000 0.00000
v -22.00000 130.00000 1.00000
v -22.00000 131.00000 0.00000
v -22.00000 131.00000 1.00000
v -22.00000 132.00000 0.00000
v -22.00000 132.00000 1.00000
v -22.00000 133.00000 0.00000
v -22.00000 133.00000 1.00000
v -22.00000 134.00000 0.00000
v -22.00000 134.00000 1.00000
v -22.00000 135.00000 0.00000
v -22.00000 135.00000 1.00000
v -22.00000 136.00000 1.00000
v -22.00000 136.00000 0.00000
v -21.00000 128.00000 0.00000
v -21.00000 128.00000 1.00000
v -21.00000 129.00000 0.00000
v -21.00000 129.00000 1.00000
v -21.00000 130.00000 0.00000
v -21.00000 130.00000 1.00000
v -21.00000 131.00000 0.00000
v -21.00000 131.00000 1.00000
v -21.00000 132.00000 0.00000
v -21.00000 132.00000 1.00000
v -21.00000 133.00000 0.00000
v -21.00000 133.00000 1.00000
v -21.00000 134.00000 0.00000
v -21.00000 134.00000 1.00000
v -21.00000 135.00000 0.00000
v -21.00000 135.00000 1.00000
v -21.00000 136.00000 1.00000
v -21.00000 136.00000 0.00000
v -20.00000 128.00000 0.00000
v -20.00000 128.00000 1.00000
v -20.00000 129.00000 0.00000
v -20.00000 129.00000 1.00000
v -20.00000 130.00000 0.00000
v -20.00000 130.00000 1.00000
v -20.00000 131.00000 0.00000
v -20.00000 131.00000 1.00000
v -20.00000 132.00000 0.00000
v -20.00000 132.00000 1.00000
v -20.00000 133.00000 0.00000
v -20.00000 133.00000 1.00000
v -20.00000 134.00000 0.00000
v -20.00000 134.00000 1.00000
v -20.00000 135.00000 0.00000
v -20.00000 135.00000 1.00000
v -20.00000 136.00000 1.00000
v -20.00000 136.00000 0.00000
v -19.00000 128.00000 0.00000
v -19.00000 128.00000 1.00000
v -19.00000 129.00000 0.00000
v -19.00000 129.00000 1.00000
v -19.00000 130.00000 0.00000
v -19.00000 130.00000 1.00000
v -19.00000 131.00000 0.00000
v -19.00000 131.00000 1.00000
v -19.00000 132.00000 0.00000
v -19.00000 132.00000 1.00000
v -19.00000 133.00000 0.00000
v -19.00000 133.00000 1.00000
v -19.00000 134.00000 0.00000
v -19.00000 134.00000 1.00000
v -19.00000 135.00000 0.00000
v -19.00000 135.00000 1.00000
v -19.00000 136.00000 1.00000
v -19.00000 136.00000 0.00000
v -18.00000 128.00000 0.00000
v -18.00000 128.00000 1.00000
v -18.00000 129.00000 0.00000
v -18.00000 129.00000 1.00000
v -18.00000 130.00000 0.00000
v -18.00000 130.00000 1.00000
v -18.00000 131.00000 0.00000
v -18.00000 131.00000 1.00000
v -18.00000 132.00000 0.00000
v -18.00000 132.00000 1.00000
v -18.00000 133.00000 0.00000
v -18.00000 133.00000 1.00000
v -18.00000 134.00000 0.00000
v -18.00000 134.00000 1.00000
v -18.00000 135.00000 0.00000
v -18.00000 135.00000 1.00000
v -18.00000 136.00000 1.00000
v -18.00000 136.00000 0.00000
v -17.00000 128.00000 0.00000
v -17.00000 128.00000 1.00000
v -17.00000 129.00000 0.00000
v -17.00000 129.00000 1.00000
v -17.00000 130.00000 0.00000
v -17.00000 130.00000 1.00000
v -17.00000 131.00000 0.00000
v -17.00000 131.00000 1.00000
v -17.00000 132.00000 0.00000
v -17.00000 132.00000 1.00000
v -17.00000 133.00000 0.00000
v -17.00000 133.00000 1.00000
v -17.00000 134.00000 0.00000
v -17.00000 134.00000 1.00000
v -17.00000 135.00000 0.00000
v -17.00000 135.00000 1.00000
v -17.00000 136.00000 1.00000
v -17.00000 136.00000 0.00000
v -16.00000 129.00000 1.00000
v -16.00000 128.00000 1.00000
v -16.00000 128.00000 0.00000
v -16.00000 129.00000 0.00000
v -16.00000 130.00000 1.00000
v -16.00000 130.00000 0.00000
v -16.00000 131.00000 1.00000
v -16.00000 131.00000 0.00000
v -16.00000 132.00000 1.00000
v -16.00000 132.00000 0.00000
v -16.00000 133.00000 1.00000
v -16.00000 133.00000 0.00000
v -16.00000 134.00000 1.00000
v -16.00000 134.00000 0.00000
v -16.00000 135.00000 1.00000
v -16.00000 135.00000 0.00000
v -16.00000 136.00000 1.00000
v -16.00000 136.00000 0.00000

vt 0.49609 0.22656
vt 0.49609 0.21875
vt 0.50000 0.21875
vt 0.50000 0.22656
vt 0.09766 0.27344
vt 0.09766 0.26563
vt 0.10156 0.26563
vt 0.10156 0.27344
vt 0.00391 0.01563
vt 0.00391 0.00781
vt 0.00781 0.00781
vt 0.00781 0.01563
vt 0.10938 0.27344
vt 0.10938 0.26563
vt 0.11328 0.26563
vt 0.11328 0.27344
vt 0.47266 0.06250
vt 0.47266 0.05469
vt 0.47656 0.05469
vt 0.47656 0.06250
vt 0.12109 0.27344
vt 0.12109 0.26563
vt 0.12500 0.26563
vt 0.12500 0.27344

g 101_Piece5_16_0
usemtl 101_Material
f 1/1/3 2/2/3 3/3/3 4/4/3
f 3/1/6 2/2/6 5/3/6 6/4/6
f 7/1/2 5/2/2 2/3/2 1/4/2
f 4/1/1 3/2/1 6/3/1 8/4/1
f 9/1/3 1/2/3 4/3/3 10/4/3
f 11/1/2 7/2/2 1/3/2 9/4/2
f 10/1/1 4/2/1 8/3/1 12/4/1
f 13/5/3 9/6/3 10/7/3 14/8/3
f 15/5/2 11/6/2 9/7/2 13/8/2
f 14/5/1 10/6/1 12/7/1 16/8/1
f 17/5/3 13/6/3 14/7/3 18/8/3
f 19/5/2 15/6/2 13/7/2 17/8/2
f 18/5/1 14/6/1 16/7/1 20/8/1
f 21/5/3 17/6/3 18/7/3 22/8/3
f 23/5/2 19/6/2 17/7/2 21/8/2
f 22/5/1 18/6/1 20/7/1 24/8/1
f 25/5/3 21/6/3 22/7/3 26/8/3
f 27/5/2 23/6/2 21/7/2 25/8/2
f 26/5/1 22/6/1 24/7/1 28/8/1
f 29/9/3 25/10/3 26/11/3 30/12/3
f 31/9/2 27/10/2 25/11/2 29/12/2
f 30/9/1 26/10/1 28/11/1 32/12/1
f 33/9/3 29/10/3 30/11/3 34/12/3
f 33/9/5 34/10/5 35/11/5 36/12/5
f 36/9/2 31/10/2 29/11/2 33/12/2
f 34/9/1 30/10/1 32/11/1 35/12/1
f 6/13/6 5/14/6 37/15/6 38/16/6
f 39/13/2 37/14/2 5/15/2 7/16/2
f 8/13/1 6/14/1 38/15/1 40/16/1
f 41/13/2 39/14/2 7/15/2 11/16/2
f 12/13/1 8/14/1 40/15/1 42/16/1
f 43/5/2 41/6/2 11/7/2 15/8/2
f 16/5/1 12/6/1 42/7/1 44/8/1
f 45/13/2 43/14/2 15/15/2 19/16/2
f 20/13/1 16/14/1 44/15/1 46/16/1
f 47/17/2 45/18/2 19/19/2 23/20/2
f 24/17/1 20/18/1 46/19/1 48/20/1
f 49/17/2 47/18/2 23/19/2 27/20/2
f 28/17/1 24/18/1 48/19/1 50/20/1
f 51/17/2 49/18/2 27/19/2 31/20/2
f 32/17/1 28/18/1 50/19/1 52/20/1
f 36/9/5 35/10/5 53/11/5 54/12/5
f 54/9/2 51/10/2 31/11/2 36/12/2
f 35/9/1 32/10/1 52/11/1 53/12/1
f 38/13/6 37/14/6 55/15/6 56/16/6
f 57/13/2 55/14/2 37/15/2 39/16/2
f 40/13/1 38/14/1 56/15/1 58/16/1
f 59/13/2 57/14/2 39/15/2 41/16/2
f 42/13/1 40/14/1 58/15/1 60/16/1
f 61/5/2 59/6/2 41/7/2 43/8/2
f 44/5/1 42/6/1 60/7/1 62/8/1
f 63/13/2 61/14/2 43/15/2 45/16/2
f 46/13/1 44/14/1 62/15/1 64/16/1
f 65/17/2 63/18/2 45/19/2 47/20/2
f 48/17/1 46/18/1 64/19/1 66/20/1
f 67/17/2 65/18/2 47/19/2 49/20/2
f 50/17/1 48/18/1 66/19/1 68/20/1
f 69/17/2 67/18/2 49/19/2 51/20/2
f 52/17/1 50/18/1 68/19/1 70/20/1
f 54/9/5 53/10/5 71/11/5 72/12/5
f 72/9/2 69/10/2 51/11/2 54/12/2
f 53/9/1 52/10/1 70/11/1 71/12/1
f 56/13/6 55/14/6 73/15/6 74/16/6
f 75/13/2 73/14/2 55/15/2 57/16/2
f 58/13/1 56/14/1 74/15/1 76/16/1
f 77/13/2 75/14/2 57/15/2 59/16/2
f 60/13/1 58/14/1 76/15/1 78/16/1
f 79/5/2 77/6/2 59/7/2 61/8/2
f 62/5/1 60/6/1 78/7/1 80/8/1
f 81/1/2 79/2/2 61/3/2 63/4/2
f 64/1/1 62/2/1 80/3/1 82/4/1
f 83/21/2 81/22/2 63/23/2 65/24/2
f 66/21/1 64/22/1 82/23/1 84/24/1
f 85/21/2 83/22/2 65/23/2 67/24/2
f 68/21/1 66/22/1 84/23/1 86/24/1
f 87/21/2 85/22/2 67/23/2 69/24/2
f 70/21/1 68/22/1 86/23/1 88/24/1
f 72/9/5 71/10/5 89/11/5 90/12/5
f 90/9/2 87/10/2 69/11/2 72/12/2
f 71/9/1 70/10/1 88/11/1 89/12/1
f 74/13/6 73/14/6 91/15/6 92/16/6
f 93/13/2 91/14/2 73/15/2 75/16/2
f 76/13/1 74/14/1 92/15/1 94/16/1
f 95/13/2 93/14/2 75/15/2 77/16/2
f 78/13/1 76/14/1 94/15/1 96/16/1
f 97/5/2 95/6/2 77/7/2 79/8/2
f 80/5/1 78/6/1 96/7/1 98/8/1
f 99/13/2 97/14/2 79/15/2 81/16/2
f 82/13/1 80/14/1 98/15/1 100/16/1
f 101/17/2 99/18/2 81/19/2 83/20/2
f 84/17/1 82/18/1 100/19/1 102/20/1
f 103/17/2 101/18/2 83/19/2 85/20/2
f 86/17/1 84/18/1 102/19/1 104/20/1
f 105/17/2 103/18/2 85/19/2 87/20/2
f 88/17/1 86/18/1 104/19/1 106/20/1
f 90/9/5 89/10/5 107/11/5 108/12/5
f 108/9/2 105/10/2 87/11/2 90/12/2
f 89/9/1 88/10/1 106/11/1 107/12/1
f 92/13/6 91/14/6 109/15/6 110/16/6
f 111/13/2 109/14/2 91/15/2 93/16/2
f 94/13/1 92/14/1 110/15/1 112/16/1
f 113/13/2 111/14/2 93/15/2 95/16/2
f 96/13/1 94/14/1 112/15/1 114/16/1
f 115/5/2 113/6/2 95/7/2 97/8/2
f 98/5/1 96/6/1 114/7/1 116/8/1
f 117/13/2 115/14/2 97/15/2 99/16/2
f 100/13/1 98/14/1 116/15/1 118/16/1
f 119/17/2 117/18/2 99/19/2 101/20/2
f 102/17/1 100/18/1 118/19/1 120/20/1
f 121/17/2 119/18/2 101/19/2 103/20/2
f 104/17/1 102/18/1 120/19/1 122/20/1
f 123/17/2 121/18/2 103/19/2 105/20/2
f 106/17/1 104/18/1 122/19/1 124/20/1
f 108/9/5 107/10/5 125/11/5 126/12/5
f 126/9/2 123/10/2 105/11/2 108/12/2
f 107/9/1 106/10/1 124/11/1 125/12/1
f 110/1/6 109/2/6 127/3/6 128/4/6
f 129/1/2 127/2/2 109/3/2 111/4/2
f 112/1/1 110/2/1 128/3/1 130/4/1
f 131/1/2 129/2/2 111/3/2 113/4/2
f 114/1/1 112/2/1 130/3/1 132/4/1
f 133/5/2 131/6/2 113/7/2 115/8/2
f 116/5/1 114/6/1 132/7/1 134/8/1
f 135/5/2 133/6/2 115/7/2 117/8/2
f 118/5/1 116/6/1 134/7/1 136/8/1
f 137/5/2 135/6/2 117/7/2 119/8/2
f 120/5/1 118/6/1 136/7/1 138/8/1
f 139/5/2 137/6/2 119/7/2 121/8/2
f 122/5/1 120/6/1 138/7/1 140/8/1
f 141/9/2 139/10/2 121/11/2 123/12/2
f 124/9/1 122/10/1 140/11/1 142/12/1
f 126/9/5 125/10/5 143/11/5 144/12/5
f 144/9/2 141/10/2 123/11/2 126/12/2
f 125/9/1 124/10/1 142/11/1 143/12/1
f 145/9/4 146/10/4 147/11/4 148/12/4
f 128/9/6 127/10/6 147/11/6 146/12/6
f 148/9/2 147/10/2 127/11/2 129/12/2
f 130/9/1 128/10/1 146/11/1 145/12/1
f 149/9/4 145/10/4 148/11/4 150/12/4
f 150/9/2 148/10/2 129/11/2 131/12/2
f 132/9/1 130/10/1 145/11/1 149/12/1
f 151/9/4 149/10/4 150/11/4 152/12/4
f 152/9/2 150/10/2 131/11/2 133/12/2
f 134/9/1 132/10/1 149/11/1 151/12/1
f 153/9/4 151/10/4 152/11/4 154/12/4
f 154/9/2 152/10/2 133/11/2 135/12/2
f 136/9/1 134/10/1 151/11/1 153/12/1
f 155/9/4 153/10/4 154/11/4 156/12/4
f 156/9/2 154/10/2 135/11/2 137/12/2
f 138/9/1 136/10/1 153/11/1 155/12/1
f 157/9/4 155/10/4 156/11/4 158/12/4
f 158/9/2 156/10/2 137/11/2 139/12/2
f 140/9/1 138/10/1 155/11/1 157/12/1
f 159/9/4 157/10/4 158/11/4 160/12/4
f 160/9/2 158/10/2 139/11/2 141/12/2
f 142/9/1 140/10/1 157/11/1 159/12/1
f 161/9/4 159/10/4 160/11/4 162/12/4
f 144/9/5 143/10/5 161/11/5 162/12/5
f 162/9/2 160/10/2 141/11/2 144/12/2
f 143/9/1 142/10/1 159/11/1 161/12/1
