# This file was created with Minddesk Qubicle 3.0
# Get Qubicle at www.getqubicle.com

mtllib 101_Piece12_20_0.mtl

vn 0.0 0.0 1.0
vn 0.0 0.0 -1.0
vn -1.0 0.0 0.0
vn 1.0 0.0 0.0
vn 0.0 1.0 0.0
vn 0.0 -1.0 0.0

v 32.00000 161.00000 0.00000
v 32.00000 160.00000 0.00000
v 32.00000 160.00000 1.00000
v 32.00000 161.00000 1.00000
v 33.00000 160.00000 0.00000
v 33.00000 160.00000 1.00000
v 33.00000 161.00000 0.00000
v 33.00000 161.00000 1.00000
v 32.00000 162.00000 0.00000
v 32.00000 162.00000 1.00000
v 33.00000 162.00000 0.00000
v 33.00000 162.00000 1.00000
v 32.00000 163.00000 0.00000
v 32.00000 163.00000 1.00000
v 33.00000 163.00000 0.00000
v 33.00000 163.00000 1.00000
v 32.00000 164.00000 0.00000
v 32.00000 164.00000 1.00000
v 33.00000 164.00000 0.00000
v 33.00000 164.00000 1.00000
v 32.00000 165.00000 0.00000
v 32.00000 165.00000 1.00000
v 33.00000 165.00000 0.00000
v 33.00000 165.00000 1.00000
v 32.00000 166.00000 0.00000
v 32.00000 166.00000 1.00000
v 33.00000 166.00000 0.00000
v 33.00000 166.00000 1.00000
v 32.00000 167.00000 0.00000
v 32.00000 167.00000 1.00000
v 33.00000 167.00000 0.00000
v 33.00000 167.00000 1.00000
v 32.00000 168.00000 0.00000
v 32.00000 168.00000 1.00000
v 33.00000 168.00000 1.00000
v 33.00000 168.00000 0.00000
v 34.00000 160.00000 0.00000
v 34.00000 160.00000 1.00000
v 34.00000 161.00000 0.00000
v 34.00000 161.00000 1.00000
v 34.00000 162.00000 0.00000
v 34.00000 162.00000 1.00000
v 34.00000 163.00000 0.00000
v 34.00000 163.00000 1.00000
v 34.00000 164.00000 0.00000
v 34.00000 164.00000 1.00000
v 34.00000 165.00000 0.00000
v 34.00000 165.00000 1.00000
v 34.00000 166.00000 0.00000
v 34.00000 166.00000 1.00000
v 34.00000 167.00000 0.00000
v 34.00000 167.00000 1.00000
v 34.00000 168.00000 1.00000
v 34.00000 168.00000 0.00000
v 35.00000 160.00000 0.00000
v 35.00000 160.00000 1.00000
v 35.00000 161.00000 0.00000
v 35.00000 161.00000 1.00000
v 35.00000 162.00000 0.00000
v 35.00000 162.00000 1.00000
v 35.00000 163.00000 0.00000
v 35.00000 163.00000 1.00000
v 35.00000 164.00000 0.00000
v 35.00000 164.00000 1.00000
v 35.00000 165.00000 0.00000
v 35.00000 165.00000 1.00000
v 35.00000 166.00000 0.00000
v 35.00000 166.00000 1.00000
v 35.00000 167.00000 0.00000
v 35.00000 167.00000 1.00000
v 35.00000 168.00000 1.00000
v 35.00000 168.00000 0.00000
v 36.00000 160.00000 0.00000
v 36.00000 160.00000 1.00000
v 36.00000 161.00000 0.00000
v 36.00000 161.00000 1.00000
v 36.00000 162.00000 0.00000
v 36.00000 162.00000 1.00000
v 36.00000 163.00000 0.00000
v 36.00000 163.00000 1.00000
v 36.00000 164.00000 0.00000
v 36.00000 164.00000 1.00000
v 36.00000 165.00000 0.00000
v 36.00000 165.00000 1.00000
v 36.00000 166.00000 0.00000
v 36.00000 166.00000 1.00000
v 36.00000 167.00000 0.00000
v 36.00000 167.00000 1.00000
v 36.00000 168.00000 1.00000
v 36.00000 168.00000 0.00000
v 37.00000 160.00000 0.00000
v 37.00000 160.00000 1.00000
v 37.00000 161.00000 0.00000
v 37.00000 161.00000 1.00000
v 37.00000 162.00000 0.00000
v 37.00000 162.00000 1.00000
v 37.00000 163.00000 0.00000
v 37.00000 163.00000 1.00000
v 37.00000 164.00000 0.00000
v 37.00000 164.00000 1.00000
v 37.00000 165.00000 0.00000
v 37.00000 165.00000 1.00000
v 37.00000 166.00000 0.00000
v 37.00000 166.00000 1.00000
v 37.00000 167.00000 0.00000
v 37.00000 167.00000 1.00000
v 37.00000 168.00000 1.00000
v 37.00000 168.00000 0.00000
v 38.00000 160.00000 0.00000
v 38.00000 160.00000 1.00000
v 38.00000 161.00000 0.00000
v 38.00000 161.00000 1.00000
v 38.00000 162.00000 0.00000
v 38.00000 162.00000 1.00000
v 38.00000 163.00000 0.00000
v 38.00000 163.00000 1.00000
v 38.00000 164.00000 0.00000
v 38.00000 164.00000 1.00000
v 38.00000 165.00000 0.00000
v 38.00000 165.00000 1.00000
v 38.00000 166.00000 0.00000
v 38.00000 166.00000 1.00000
v 38.00000 167.00000 0.00000
v 38.00000 167.00000 1.00000
v 38.00000 168.00000 1.00000
v 38.00000 168.00000 0.00000
v 39.00000 160.00000 0.00000
v 39.00000 160.00000 1.00000
v 39.00000 161.00000 0.00000
v 39.00000 161.00000 1.00000
v 39.00000 162.00000 0.00000
v 39.00000 162.00000 1.00000
v 39.00000 163.00000 0.00000
v 39.00000 163.00000 1.00000
v 39.00000 164.00000 0.00000
v 39.00000 164.00000 1.00000
v 39.00000 165.00000 0.00000
v 39.00000 165.00000 1.00000
v 39.00000 166.00000 0.00000
v 39.00000 166.00000 1.00000
v 39.00000 167.00000 0.00000
v 39.00000 167.00000 1.00000
v 39.00000 168.00000 1.00000
v 39.00000 168.00000 0.00000
v 40.00000 161.00000 1.00000
v 40.00000 160.00000 1.00000
v 40.00000 160.00000 0.00000
v 40.00000 161.00000 0.00000
v 40.00000 162.00000 1.00000
v 40.00000 162.00000 0.00000
v 40.00000 163.00000 1.00000
v 40.00000 163.00000 0.00000
v 40.00000 164.00000 1.00000
v 40.00000 164.00000 0.00000
v 40.00000 165.00000 1.00000
v 40.00000 165.00000 0.00000
v 40.00000 166.00000 1.00000
v 40.00000 166.00000 0.00000
v 40.00000 167.00000 1.00000
v 40.00000 167.00000 0.00000
v 40.00000 168.00000 1.00000
v 40.00000 168.00000 0.00000

vt 0.28516 0.41406
vt 0.28516 0.40625
vt 0.28906 0.40625
vt 0.28906 0.41406
vt 0.12109 0.41406
vt 0.12109 0.40625
vt 0.12500 0.40625
vt 0.12500 0.41406
vt 0.08594 0.39063
vt 0.08594 0.38281
vt 0.08984 0.38281
vt 0.08984 0.39063
vt 0.09766 0.39063
vt 0.09766 0.38281
vt 0.10156 0.38281
vt 0.10156 0.39063
vt 0.21484 0.39063
vt 0.21484 0.38281
vt 0.21875 0.38281
vt 0.21875 0.39063
vt 0.10938 0.41406
vt 0.10938 0.40625
vt 0.11328 0.40625
vt 0.11328 0.41406
vt 0.27344 0.41406
vt 0.27344 0.40625
vt 0.27734 0.40625
vt 0.27734 0.41406
vt 0.29688 0.41406
vt 0.29688 0.40625
vt 0.30078 0.40625
vt 0.30078 0.41406
vt 0.13281 0.29688
vt 0.13281 0.28906
vt 0.13672 0.28906
vt 0.13672 0.29688

g 101_Piece12_20_0
usemtl 101_Material
f 1/1/3 2/2/3 3/3/3 4/4/3
f 3/1/6 2/2/6 5/3/6 6/4/6
f 7/1/2 5/2/2 2/3/2 1/4/2
f 4/1/1 3/2/1 6/3/1 8/4/1
f 9/1/3 1/2/3 4/3/3 10/4/3
f 11/1/2 7/2/2 1/3/2 9/4/2
f 10/1/1 4/2/1 8/3/1 12/4/1
f 13/1/3 9/2/3 10/3/3 14/4/3
f 15/1/2 11/2/2 9/3/2 13/4/2
f 14/1/1 10/2/1 12/3/1 16/4/1
f 17/1/3 13/2/3 14/3/3 18/4/3
f 19/1/2 15/2/2 13/3/2 17/4/2
f 18/1/1 14/2/1 16/3/1 20/4/1
f 21/1/3 17/2/3 18/3/3 22/4/3
f 23/1/2 19/2/2 17/3/2 21/4/2
f 22/1/1 18/2/1 20/3/1 24/4/1
f 25/5/3 21/6/3 22/7/3 26/8/3
f 27/5/2 23/6/2 21/7/2 25/8/2
f 26/5/1 22/6/1 24/7/1 28/8/1
f 29/9/3 25/10/3 26/11/3 30/12/3
f 31/9/2 27/10/2 25/11/2 29/12/2
f 30/9/1 26/10/1 28/11/1 32/12/1
f 33/13/3 29/14/3 30/15/3 34/16/3
f 33/13/5 34/14/5 35/15/5 36/16/5
f 36/13/2 31/14/2 29/15/2 33/16/2
f 34/13/1 30/14/1 32/15/1 35/16/1
f 6/1/6 5/2/6 37/3/6 38/4/6
f 39/1/2 37/2/2 5/3/2 7/4/2
f 8/1/1 6/2/1 38/3/1 40/4/1
f 41/1/2 39/2/2 7/3/2 11/4/2
f 12/1/1 8/2/1 40/3/1 42/4/1
f 43/17/2 41/18/2 11/19/2 15/20/2
f 16/17/1 12/18/1 42/19/1 44/20/1
f 45/1/2 43/2/2 15/3/2 19/4/2
f 20/1/1 16/2/1 44/3/1 46/4/1
f 47/1/2 45/2/2 19/3/2 23/4/2
f 24/1/1 20/2/1 46/3/1 48/4/1
f 49/5/2 47/6/2 23/7/2 27/8/2
f 28/5/1 24/6/1 48/7/1 50/8/1
f 51/9/2 49/10/2 27/11/2 31/12/2
f 32/9/1 28/10/1 50/11/1 52/12/1
f 36/13/5 35/14/5 53/15/5 54/16/5
f 54/13/2 51/14/2 31/15/2 36/16/2
f 35/13/1 32/14/1 52/15/1 53/16/1
f 38/1/6 37/2/6 55/3/6 56/4/6
f 57/1/2 55/2/2 37/3/2 39/4/2
f 40/1/1 38/2/1 56/3/1 58/4/1
f 59/1/2 57/2/2 39/3/2 41/4/2
f 42/1/1 40/2/1 58/3/1 60/4/1
f 61/1/2 59/2/2 41/3/2 43/4/2
f 44/1/1 42/2/1 60/3/1 62/4/1
f 63/1/2 61/2/2 43/3/2 45/4/2
f 46/1/1 44/2/1 62/3/1 64/4/1
f 65/5/2 63/6/2 45/7/2 47/8/2
f 48/5/1 46/6/1 64/7/1 66/8/1
f 67/5/2 65/6/2 47/7/2 49/8/2
f 50/5/1 48/6/1 66/7/1 68/8/1
f 69/9/2 67/10/2 49/11/2 51/12/2
f 52/9/1 50/10/1 68/11/1 70/12/1
f 54/13/5 53/14/5 71/15/5 72/16/5
f 72/13/2 69/14/2 51/15/2 54/16/2
f 53/13/1 52/14/1 70/15/1 71/16/1
f 56/1/6 55/2/6 73/3/6 74/4/6
f 75/1/2 73/2/2 55/3/2 57/4/2
f 58/1/1 56/2/1 74/3/1 76/4/1
f 77/1/2 75/2/2 57/3/2 59/4/2
f 60/1/1 58/2/1 76/3/1 78/4/1
f 79/1/2 77/2/2 59/3/2 61/4/2
f 62/1/1 60/2/1 78/3/1 80/4/1
f 81/1/2 79/2/2 61/3/2 63/4/2
f 64/1/1 62/2/1 80/3/1 82/4/1
f 83/5/2 81/6/2 63/7/2 65/8/2
f 66/5/1 64/6/1 82/7/1 84/8/1
f 85/5/2 83/6/2 65/7/2 67/8/2
f 68/5/1 66/6/1 84/7/1 86/8/1
f 87/9/2 85/10/2 67/11/2 69/12/2
f 70/9/1 68/10/1 86/11/1 88/12/1
f 72/13/5 71/14/5 89/15/5 90/16/5
f 90/13/2 87/14/2 69/15/2 72/16/2
f 71/13/1 70/14/1 88/15/1 89/16/1
f 74/1/6 73/2/6 91/3/6 92/4/6
f 93/1/2 91/2/2 73/3/2 75/4/2
f 76/1/1 74/2/1 92/3/1 94/4/1
f 95/1/2 93/2/2 75/3/2 77/4/2
f 78/1/1 76/2/1 94/3/1 96/4/1
f 97/5/2 95/6/2 77/7/2 79/8/2
f 80/5/1 78/6/1 96/7/1 98/8/1
f 99/5/2 97/6/2 79/7/2 81/8/2
f 82/5/1 80/6/1 98/7/1 100/8/1
f 101/5/2 99/6/2 81/7/2 83/8/2
f 84/5/1 82/6/1 100/7/1 102/8/1
f 103/21/2 101/22/2 83/23/2 85/24/2
f 86/21/1 84/22/1 102/23/1 104/24/1
f 105/9/2 103/10/2 85/11/2 87/12/2
f 88/9/1 86/10/1 104/11/1 106/12/1
f 90/13/5 89/14/5 107/15/5 108/16/5
f 108/13/2 105/14/2 87/15/2 90/16/2
f 89/13/1 88/14/1 106/15/1 107/16/1
f 92/25/6 91/26/6 109/27/6 110/28/6
f 111/25/2 109/26/2 91/27/2 93/28/2
f 94/25/1 92/26/1 110/27/1 112/28/1
f 113/5/2 111/6/2 93/7/2 95/8/2
f 96/5/1 94/6/1 112/7/1 114/8/1
f 115/5/2 113/6/2 95/7/2 97/8/2
f 98/5/1 96/6/1 114/7/1 116/8/1
f 117/5/2 115/6/2 97/7/2 99/8/2
f 100/5/1 98/6/1 116/7/1 118/8/1
f 119/21/2 117/22/2 99/23/2 101/24/2
f 102/21/1 100/22/1 118/23/1 120/24/1
f 121/9/2 119/10/2 101/11/2 103/12/2
f 104/9/1 102/10/1 120/11/1 122/12/1
f 123/29/2 121/30/2 103/31/2 105/32/2
f 106/29/1 104/30/1 122/31/1 124/32/1
f 108/13/5 107/14/5 125/15/5 126/16/5
f 126/13/2 123/14/2 105/15/2 108/16/2
f 107/13/1 106/14/1 124/15/1 125/16/1
f 110/9/6 109/10/6 127/11/6 128/12/6
f 129/9/2 127/10/2 109/11/2 111/12/2
f 112/9/1 110/10/1 128/11/1 130/12/1
f 131/9/2 129/10/2 111/11/2 113/12/2
f 114/9/1 112/10/1 130/11/1 132/12/1
f 133/9/2 131/10/2 113/11/2 115/12/2
f 116/9/1 114/10/1 132/11/1 134/12/1
f 135/9/2 133/10/2 115/11/2 117/12/2
f 118/9/1 116/10/1 134/11/1 136/12/1
f 137/9/2 135/10/2 117/11/2 119/12/2
f 120/9/1 118/10/1 136/11/1 138/12/1
f 139/9/2 137/10/2 119/11/2 121/12/2
f 122/9/1 120/10/1 138/11/1 140/12/1
f 141/13/2 139/14/2 121/15/2 123/16/2
f 124/13/1 122/14/1 140/15/1 142/16/1
f 126/33/5 125/34/5 143/35/5 144/36/5
f 144/33/2 141/34/2 123/35/2 126/36/2
f 125/33/1 124/34/1 142/35/1 143/36/1
f 145/13/4 146/14/4 147/15/4 148/16/4
f 128/13/6 127/14/6 147/15/6 146/16/6
f 148/13/2 147/14/2 127/15/2 129/16/2
f 130/13/1 128/14/1 146/15/1 145/16/1
f 149/13/4 145/14/4 148/15/4 150/16/4
f 150/13/2 148/14/2 129/15/2 131/16/2
f 132/13/1 130/14/1 145/15/1 149/16/1
f 151/13/4 149/14/4 150/15/4 152/16/4
f 152/13/2 150/14/2 131/15/2 133/16/2
f 134/13/1 132/14/1 149/15/1 151/16/1
f 153/13/4 151/14/4 152/15/4 154/16/4
f 154/13/2 152/14/2 133/15/2 135/16/2
f 136/13/1 134/14/1 151/15/1 153/16/1
f 155/13/4 153/14/4 154/15/4 156/16/4
f 156/13/2 154/14/2 135/15/2 137/16/2
f 138/13/1 136/14/1 153/15/1 155/16/1
f 157/13/4 155/14/4 156/15/4 158/16/4
f 158/13/2 156/14/2 137/15/2 139/16/2
f 140/13/1 138/14/1 155/15/1 157/16/1
f 159/33/4 157/34/4 158/35/4 160/36/4
f 160/33/2 158/34/2 139/35/2 141/36/2
f 142/33/1 140/34/1 157/35/1 159/36/1
f 161/33/4 159/34/4 160/35/4 162/36/4
f 144/33/5 143/34/5 161/35/5 162/36/5
f 162/33/2 160/34/2 141/35/2 144/36/2
f 143/33/1 142/34/1 159/35/1 161/36/1
