# This file was created with Minddesk Qubicle 3.0
# Get Qubicle at www.getqubicle.com

mtllib 101_Piece11_16_0.mtl

vn 0.0 0.0 1.0
vn 0.0 0.0 -1.0
vn -1.0 0.0 0.0
vn 1.0 0.0 0.0
vn 0.0 1.0 0.0
vn 0.0 -1.0 0.0

v 24.00000 129.00000 0.00000
v 24.00000 128.00000 0.00000
v 24.00000 128.00000 1.00000
v 24.00000 129.00000 1.00000
v 25.00000 128.00000 0.00000
v 25.00000 128.00000 1.00000
v 25.00000 129.00000 0.00000
v 25.00000 129.00000 1.00000
v 24.00000 130.00000 0.00000
v 24.00000 130.00000 1.00000
v 25.00000 130.00000 0.00000
v 25.00000 130.00000 1.00000
v 24.00000 131.00000 0.00000
v 24.00000 131.00000 1.00000
v 25.00000 131.00000 0.00000
v 25.00000 131.00000 1.00000
v 24.00000 132.00000 0.00000
v 24.00000 132.00000 1.00000
v 25.00000 132.00000 0.00000
v 25.00000 132.00000 1.00000
v 24.00000 133.00000 0.00000
v 24.00000 133.00000 1.00000
v 25.00000 133.00000 0.00000
v 25.00000 133.00000 1.00000
v 24.00000 134.00000 0.00000
v 24.00000 134.00000 1.00000
v 25.00000 134.00000 0.00000
v 25.00000 134.00000 1.00000
v 24.00000 135.00000 0.00000
v 24.00000 135.00000 1.00000
v 25.00000 135.00000 0.00000
v 25.00000 135.00000 1.00000
v 24.00000 136.00000 0.00000
v 24.00000 136.00000 1.00000
v 25.00000 136.00000 1.00000
v 25.00000 136.00000 0.00000
v 26.00000 128.00000 0.00000
v 26.00000 128.00000 1.00000
v 26.00000 129.00000 0.00000
v 26.00000 129.00000 1.00000
v 26.00000 130.00000 0.00000
v 26.00000 130.00000 1.00000
v 26.00000 131.00000 0.00000
v 26.00000 131.00000 1.00000
v 26.00000 132.00000 0.00000
v 26.00000 132.00000 1.00000
v 26.00000 133.00000 0.00000
v 26.00000 133.00000 1.00000
v 26.00000 134.00000 0.00000
v 26.00000 134.00000 1.00000
v 26.00000 135.00000 0.00000
v 26.00000 135.00000 1.00000
v 26.00000 136.00000 1.00000
v 26.00000 136.00000 0.00000
v 27.00000 128.00000 0.00000
v 27.00000 128.00000 1.00000
v 27.00000 129.00000 0.00000
v 27.00000 129.00000 1.00000
v 27.00000 130.00000 0.00000
v 27.00000 130.00000 1.00000
v 27.00000 131.00000 0.00000
v 27.00000 131.00000 1.00000
v 27.00000 132.00000 0.00000
v 27.00000 132.00000 1.00000
v 27.00000 133.00000 0.00000
v 27.00000 133.00000 1.00000
v 27.00000 134.00000 0.00000
v 27.00000 134.00000 1.00000
v 27.00000 135.00000 0.00000
v 27.00000 135.00000 1.00000
v 27.00000 136.00000 1.00000
v 27.00000 136.00000 0.00000
v 28.00000 128.00000 0.00000
v 28.00000 128.00000 1.00000
v 28.00000 129.00000 0.00000
v 28.00000 129.00000 1.00000
v 28.00000 130.00000 0.00000
v 28.00000 130.00000 1.00000
v 28.00000 131.00000 0.00000
v 28.00000 131.00000 1.00000
v 28.00000 132.00000 0.00000
v 28.00000 132.00000 1.00000
v 28.00000 133.00000 0.00000
v 28.00000 133.00000 1.00000
v 28.00000 134.00000 0.00000
v 28.00000 134.00000 1.00000
v 28.00000 135.00000 0.00000
v 28.00000 135.00000 1.00000
v 28.00000 136.00000 1.00000
v 28.00000 136.00000 0.00000
v 29.00000 128.00000 0.00000
v 29.00000 128.00000 1.00000
v 29.00000 129.00000 0.00000
v 29.00000 129.00000 1.00000
v 29.00000 130.00000 0.00000
v 29.00000 130.00000 1.00000
v 29.00000 131.00000 0.00000
v 29.00000 131.00000 1.00000
v 29.00000 132.00000 0.00000
v 29.00000 132.00000 1.00000
v 29.00000 133.00000 0.00000
v 29.00000 133.00000 1.00000
v 29.00000 134.00000 0.00000
v 29.00000 134.00000 1.00000
v 29.00000 135.00000 0.00000
v 29.00000 135.00000 1.00000
v 29.00000 136.00000 1.00000
v 29.00000 136.00000 0.00000
v 30.00000 128.00000 0.00000
v 30.00000 128.00000 1.00000
v 30.00000 129.00000 0.00000
v 30.00000 129.00000 1.00000
v 30.00000 130.00000 0.00000
v 30.00000 130.00000 1.00000
v 30.00000 131.00000 0.00000
v 30.00000 131.00000 1.00000
v 30.00000 132.00000 0.00000
v 30.00000 132.00000 1.00000
v 30.00000 133.00000 0.00000
v 30.00000 133.00000 1.00000
v 30.00000 134.00000 0.00000
v 30.00000 134.00000 1.00000
v 30.00000 135.00000 0.00000
v 30.00000 135.00000 1.00000
v 30.00000 136.00000 1.00000
v 30.00000 136.00000 0.00000
v 31.00000 128.00000 0.00000
v 31.00000 128.00000 1.00000
v 31.00000 129.00000 0.00000
v 31.00000 129.00000 1.00000
v 31.00000 130.00000 0.00000
v 31.00000 130.00000 1.00000
v 31.00000 131.00000 0.00000
v 31.00000 131.00000 1.00000
v 31.00000 132.00000 0.00000
v 31.00000 132.00000 1.00000
v 31.00000 133.00000 0.00000
v 31.00000 133.00000 1.00000
v 31.00000 134.00000 0.00000
v 31.00000 134.00000 1.00000
v 31.00000 135.00000 0.00000
v 31.00000 135.00000 1.00000
v 31.00000 136.00000 1.00000
v 31.00000 136.00000 0.00000
v 32.00000 129.00000 1.00000
v 32.00000 128.00000 1.00000
v 32.00000 128.00000 0.00000
v 32.00000 129.00000 0.00000
v 32.00000 130.00000 1.00000
v 32.00000 130.00000 0.00000
v 32.00000 131.00000 1.00000
v 32.00000 131.00000 0.00000
v 32.00000 132.00000 1.00000
v 32.00000 132.00000 0.00000
v 32.00000 133.00000 1.00000
v 32.00000 133.00000 0.00000
v 32.00000 134.00000 1.00000
v 32.00000 134.00000 0.00000
v 32.00000 135.00000 1.00000
v 32.00000 135.00000 0.00000
v 32.00000 136.00000 1.00000
v 32.00000 136.00000 0.00000

vt 0.13281 0.41406
vt 0.13281 0.40625
vt 0.13672 0.40625
vt 0.13672 0.41406
vt 0.14453 0.41406
vt 0.14453 0.40625
vt 0.14844 0.40625
vt 0.14844 0.41406
vt 0.15625 0.41406
vt 0.15625 0.40625
vt 0.16016 0.40625
vt 0.16016 0.41406
vt 0.16797 0.41406
vt 0.16797 0.40625
vt 0.17188 0.40625
vt 0.17188 0.41406
vt 0.17969 0.41406
vt 0.17969 0.40625
vt 0.18359 0.40625
vt 0.18359 0.41406
vt 0.19141 0.41406
vt 0.19141 0.40625
vt 0.19531 0.40625
vt 0.19531 0.41406
vt 0.20313 0.41406
vt 0.20313 0.40625
vt 0.20703 0.40625
vt 0.20703 0.41406

g 101_Piece11_16_0
usemtl 101_Material
f 1/1/3 2/2/3 3/3/3 4/4/3
f 3/1/6 2/2/6 5/3/6 6/4/6
f 7/1/2 5/2/2 2/3/2 1/4/2
f 4/1/1 3/2/1 6/3/1 8/4/1
f 9/5/3 1/6/3 4/7/3 10/8/3
f 11/5/2 7/6/2 1/7/2 9/8/2
f 10/5/1 4/6/1 8/7/1 12/8/1
f 13/5/3 9/6/3 10/7/3 14/8/3
f 15/5/2 11/6/2 9/7/2 13/8/2
f 14/5/1 10/6/1 12/7/1 16/8/1
f 17/9/3 13/10/3 14/11/3 18/12/3
f 19/9/2 15/10/2 13/11/2 17/12/2
f 18/9/1 14/10/1 16/11/1 20/12/1
f 21/13/3 17/14/3 18/15/3 22/16/3
f 23/13/2 19/14/2 17/15/2 21/16/2
f 22/13/1 18/14/1 20/15/1 24/16/1
f 25/13/3 21/14/3 22/15/3 26/16/3
f 27/13/2 23/14/2 21/15/2 25/16/2
f 26/13/1 22/14/1 24/15/1 28/16/1
f 29/17/3 25/18/3 26/19/3 30/20/3
f 31/17/2 27/18/2 25/19/2 29/20/2
f 30/17/1 26/18/1 28/19/1 32/20/1
f 33/21/3 29/22/3 30/23/3 34/24/3
f 33/21/5 34/22/5 35/23/5 36/24/5
f 36/21/2 31/22/2 29/23/2 33/24/2
f 34/21/1 30/22/1 32/23/1 35/24/1
f 6/1/6 5/2/6 37/3/6 38/4/6
f 39/1/2 37/2/2 5/3/2 7/4/2
f 8/1/1 6/2/1 38/3/1 40/4/1
f 41/5/2 39/6/2 7/7/2 11/8/2
f 12/5/1 8/6/1 40/7/1 42/8/1
f 43/5/2 41/6/2 11/7/2 15/8/2
f 16/5/1 12/6/1 42/7/1 44/8/1
f 45/9/2 43/10/2 15/11/2 19/12/2
f 20/9/1 16/10/1 44/11/1 46/12/1
f 47/1/2 45/2/2 19/3/2 23/4/2
f 24/1/1 20/2/1 46/3/1 48/4/1
f 49/5/2 47/6/2 23/7/2 27/8/2
f 28/5/1 24/6/1 48/7/1 50/8/1
f 51/21/2 49/22/2 27/23/2 31/24/2
f 32/21/1 28/22/1 50/23/1 52/24/1
f 36/9/5 35/10/5 53/11/5 54/12/5
f 54/9/2 51/10/2 31/11/2 36/12/2
f 35/9/1 32/10/1 52/11/1 53/12/1
f 38/25/6 37/26/6 55/27/6 56/28/6
f 57/25/2 55/26/2 37/27/2 39/28/2
f 40/25/1 38/26/1 56/27/1 58/28/1
f 59/5/2 57/6/2 39/7/2 41/8/2
f 42/5/1 40/6/1 58/7/1 60/8/1
f 61/21/2 59/22/2 41/23/2 43/24/2
f 44/21/1 42/22/1 60/23/1 62/24/1
f 63/9/2 61/10/2 43/11/2 45/12/2
f 46/9/1 44/10/1 62/11/1 64/12/1
f 65/25/2 63/26/2 45/27/2 47/28/2
f 48/25/1 46/26/1 64/27/1 66/28/1
f 67/5/2 65/6/2 47/7/2 49/8/2
f 50/5/1 48/6/1 66/7/1 68/8/1
f 69/5/2 67/6/2 49/7/2 51/8/2
f 52/5/1 50/6/1 68/7/1 70/8/1
f 54/9/5 53/10/5 71/11/5 72/12/5
f 72/9/2 69/10/2 51/11/2 54/12/2
f 53/9/1 52/10/1 70/11/1 71/12/1
f 56/25/6 55/26/6 73/27/6 74/28/6
f 75/25/2 73/26/2 55/27/2 57/28/2
f 58/25/1 56/26/1 74/27/1 76/28/1
f 77/5/2 75/6/2 57/7/2 59/8/2
f 60/5/1 58/6/1 76/7/1 78/8/1
f 79/5/2 77/6/2 59/7/2 61/8/2
f 62/5/1 60/6/1 78/7/1 80/8/1
f 81/9/2 79/10/2 61/11/2 63/12/2
f 64/9/1 62/10/1 80/11/1 82/12/1
f 83/25/2 81/26/2 63/27/2 65/28/2
f 66/25/1 64/26/1 82/27/1 84/28/1
f 85/5/2 83/6/2 65/7/2 67/8/2
f 68/5/1 66/6/1 84/7/1 86/8/1
f 87/5/2 85/6/2 67/7/2 69/8/2
f 70/5/1 68/6/1 86/7/1 88/8/1
f 72/9/5 71/10/5 89/11/5 90/12/5
f 90/9/2 87/10/2 69/11/2 72/12/2
f 71/9/1 70/10/1 88/11/1 89/12/1
f 74/25/6 73/26/6 91/27/6 92/28/6
f 93/25/2 91/26/2 73/27/2 75/28/2
f 76/25/1 74/26/1 92/27/1 94/28/1
f 95/5/2 93/6/2 75/7/2 77/8/2
f 78/5/1 76/6/1 94/7/1 96/8/1
f 97/5/2 95/6/2 77/7/2 79/8/2
f 80/5/1 78/6/1 96/7/1 98/8/1
f 99/9/2 97/10/2 79/11/2 81/12/2
f 82/9/1 80/10/1 98/11/1 100/12/1
f 101/25/2 99/26/2 81/27/2 83/28/2
f 84/25/1 82/26/1 100/27/1 102/28/1
f 103/5/2 101/6/2 83/7/2 85/8/2
f 86/5/1 84/6/1 102/7/1 104/8/1
f 105/21/2 103/22/2 85/23/2 87/24/2
f 88/21/1 86/22/1 104/23/1 106/24/1
f 90/9/5 89/10/5 107/11/5 108/12/5
f 108/9/2 105/10/2 87/11/2 90/12/2
f 89/9/1 88/10/1 106/11/1 107/12/1
f 92/1/6 91/2/6 109/3/6 110/4/6
f 111/1/2 109/2/2 91/3/2 93/4/2
f 94/1/1 92/2/1 110/3/1 112/4/1
f 113/21/2 111/22/2 93/23/2 95/24/2
f 96/21/1 94/22/1 112/23/1 114/24/1
f 115/5/2 113/6/2 95/7/2 97/8/2
f 98/5/1 96/6/1 114/7/1 116/8/1
f 117/9/2 115/10/2 97/11/2 99/12/2
f 100/9/1 98/10/1 116/11/1 118/12/1
f 119/1/2 117/2/2 99/3/2 101/4/2
f 102/1/1 100/2/1 118/3/1 120/4/1
f 121/21/2 119/22/2 101/23/2 103/24/2
f 104/21/1 102/22/1 120/23/1 122/24/1
f 123/5/2 121/6/2 103/7/2 105/8/2
f 106/5/1 104/6/1 122/7/1 124/8/1
f 108/9/5 107/10/5 125/11/5 126/12/5
f 126/9/2 123/10/2 105/11/2 108/12/2
f 107/9/1 106/10/1 124/11/1 125/12/1
f 110/25/6 109/26/6 127/27/6 128/28/6
f 129/25/2 127/26/2 109/27/2 111/28/2
f 112/25/1 110/26/1 128/27/1 130/28/1
f 131/5/2 129/6/2 111/7/2 113/8/2
f 114/5/1 112/6/1 130/7/1 132/8/1
f 133/21/2 131/22/2 113/23/2 115/24/2
f 116/21/1 114/22/1 132/23/1 134/24/1
f 135/9/2 133/10/2 115/11/2 117/12/2
f 118/9/1 116/10/1 134/11/1 136/12/1
f 137/25/2 135/26/2 117/27/2 119/28/2
f 120/25/1 118/26/1 136/27/1 138/28/1
f 139/21/2 137/22/2 119/23/2 121/24/2
f 122/21/1 120/22/1 138/23/1 140/24/1
f 141/5/2 139/6/2 121/7/2 123/8/2
f 124/5/1 122/6/1 140/7/1 142/8/1
f 126/9/5 125/10/5 143/11/5 144/12/5
f 144/9/2 141/10/2 123/11/2 126/12/2
f 125/9/1 124/10/1 142/11/1 143/12/1
f 145/13/4 146/14/4 147/15/4 148/16/4
f 128/13/6 127/14/6 147/15/6 146/16/6
f 148/13/2 147/14/2 127/15/2 129/16/2
f 130/13/1 128/14/1 146/15/1 145/16/1
f 149/17/4 145/18/4 148/19/4 150/20/4
f 150/17/2 148/18/2 129/19/2 131/20/2
f 132/17/1 130/18/1 145/19/1 149/20/1
f 151/17/4 149/18/4 150/19/4 152/20/4
f 152/17/2 150/18/2 131/19/2 133/20/2
f 134/17/1 132/18/1 149/19/1 151/20/1
f 153/21/4 151/22/4 152/23/4 154/24/4
f 154/21/2 152/22/2 133/23/2 135/24/2
f 136/21/1 134/22/1 151/23/1 153/24/1
f 155/25/4 153/26/4 154/27/4 156/28/4
f 156/25/2 154/26/2 135/27/2 137/28/2
f 138/25/1 136/26/1 153/27/1 155/28/1
f 157/5/4 155/6/4 156/7/4 158/8/4
f 158/5/2 156/6/2 137/7/2 139/8/2
f 140/5/1 138/6/1 155/7/1 157/8/1
f 159/5/4 157/6/4 158/7/4 160/8/4
f 160/5/2 158/6/2 139/7/2 141/8/2
f 142/5/1 140/6/1 157/7/1 159/8/1
f 161/9/4 159/10/4 160/11/4 162/12/4
f 144/9/5 143/10/5 161/11/5 162/12/5
f 162/9/2 160/10/2 141/11/2 144/12/2
f 143/9/1 142/10/1 159/11/1 161/12/1
