# This file was created with Minddesk Qubicle 3.0
# Get Qubicle at www.getqubicle.com

mtllib 101_Piece1_20_0.mtl

vn 0.0 0.0 1.0
vn 0.0 0.0 -1.0
vn -1.0 0.0 0.0
vn 1.0 0.0 0.0
vn 0.0 1.0 0.0
vn 0.0 -1.0 0.0

v -56.00000 161.00000 0.00000
v -56.00000 160.00000 0.00000
v -56.00000 160.00000 1.00000
v -56.00000 161.00000 1.00000
v -55.00000 160.00000 0.00000
v -55.00000 160.00000 1.00000
v -55.00000 161.00000 0.00000
v -55.00000 161.00000 1.00000
v -56.00000 162.00000 0.00000
v -56.00000 162.00000 1.00000
v -55.00000 162.00000 0.00000
v -55.00000 162.00000 1.00000
v -56.00000 163.00000 0.00000
v -56.00000 163.00000 1.00000
v -55.00000 163.00000 0.00000
v -55.00000 163.00000 1.00000
v -56.00000 164.00000 0.00000
v -56.00000 164.00000 1.00000
v -55.00000 164.00000 0.00000
v -55.00000 164.00000 1.00000
v -56.00000 165.00000 0.00000
v -56.00000 165.00000 1.00000
v -55.00000 165.00000 0.00000
v -55.00000 165.00000 1.00000
v -56.00000 166.00000 0.00000
v -56.00000 166.00000 1.00000
v -55.00000 166.00000 0.00000
v -55.00000 166.00000 1.00000
v -56.00000 167.00000 0.00000
v -56.00000 167.00000 1.00000
v -55.00000 167.00000 0.00000
v -55.00000 167.00000 1.00000
v -56.00000 168.00000 0.00000
v -56.00000 168.00000 1.00000
v -55.00000 168.00000 1.00000
v -55.00000 168.00000 0.00000
v -54.00000 160.00000 0.00000
v -54.00000 160.00000 1.00000
v -54.00000 161.00000 0.00000
v -54.00000 161.00000 1.00000
v -54.00000 162.00000 0.00000
v -54.00000 162.00000 1.00000
v -54.00000 163.00000 0.00000
v -54.00000 163.00000 1.00000
v -54.00000 164.00000 0.00000
v -54.00000 164.00000 1.00000
v -54.00000 165.00000 0.00000
v -54.00000 165.00000 1.00000
v -54.00000 166.00000 0.00000
v -54.00000 166.00000 1.00000
v -54.00000 167.00000 0.00000
v -54.00000 167.00000 1.00000
v -54.00000 168.00000 1.00000
v -54.00000 168.00000 0.00000
v -53.00000 160.00000 0.00000
v -53.00000 160.00000 1.00000
v -53.00000 161.00000 0.00000
v -53.00000 161.00000 1.00000
v -53.00000 162.00000 0.00000
v -53.00000 162.00000 1.00000
v -53.00000 163.00000 0.00000
v -53.00000 163.00000 1.00000
v -53.00000 164.00000 0.00000
v -53.00000 164.00000 1.00000
v -53.00000 165.00000 0.00000
v -53.00000 165.00000 1.00000
v -53.00000 166.00000 0.00000
v -53.00000 166.00000 1.00000
v -53.00000 167.00000 0.00000
v -53.00000 167.00000 1.00000
v -53.00000 168.00000 1.00000
v -53.00000 168.00000 0.00000
v -52.00000 160.00000 0.00000
v -52.00000 160.00000 1.00000
v -52.00000 161.00000 0.00000
v -52.00000 161.00000 1.00000
v -52.00000 162.00000 0.00000
v -52.00000 162.00000 1.00000
v -52.00000 163.00000 0.00000
v -52.00000 163.00000 1.00000
v -52.00000 164.00000 0.00000
v -52.00000 164.00000 1.00000
v -52.00000 165.00000 0.00000
v -52.00000 165.00000 1.00000
v -52.00000 166.00000 0.00000
v -52.00000 166.00000 1.00000
v -52.00000 167.00000 0.00000
v -52.00000 167.00000 1.00000
v -52.00000 168.00000 1.00000
v -52.00000 168.00000 0.00000
v -51.00000 160.00000 0.00000
v -51.00000 160.00000 1.00000
v -51.00000 161.00000 0.00000
v -51.00000 161.00000 1.00000
v -51.00000 162.00000 0.00000
v -51.00000 162.00000 1.00000
v -51.00000 163.00000 0.00000
v -51.00000 163.00000 1.00000
v -51.00000 164.00000 0.00000
v -51.00000 164.00000 1.00000
v -51.00000 165.00000 0.00000
v -51.00000 165.00000 1.00000
v -51.00000 166.00000 0.00000
v -51.00000 166.00000 1.00000
v -51.00000 167.00000 0.00000
v -51.00000 167.00000 1.00000
v -51.00000 168.00000 1.00000
v -51.00000 168.00000 0.00000
v -50.00000 160.00000 0.00000
v -50.00000 160.00000 1.00000
v -50.00000 161.00000 0.00000
v -50.00000 161.00000 1.00000
v -50.00000 162.00000 0.00000
v -50.00000 162.00000 1.00000
v -50.00000 163.00000 0.00000
v -50.00000 163.00000 1.00000
v -50.00000 164.00000 0.00000
v -50.00000 164.00000 1.00000
v -50.00000 165.00000 0.00000
v -50.00000 165.00000 1.00000
v -50.00000 166.00000 0.00000
v -50.00000 166.00000 1.00000
v -50.00000 167.00000 0.00000
v -50.00000 167.00000 1.00000
v -50.00000 168.00000 1.00000
v -50.00000 168.00000 0.00000
v -49.00000 160.00000 0.00000
v -49.00000 160.00000 1.00000
v -49.00000 161.00000 0.00000
v -49.00000 161.00000 1.00000
v -49.00000 162.00000 0.00000
v -49.00000 162.00000 1.00000
v -49.00000 163.00000 0.00000
v -49.00000 163.00000 1.00000
v -49.00000 164.00000 0.00000
v -49.00000 164.00000 1.00000
v -49.00000 165.00000 0.00000
v -49.00000 165.00000 1.00000
v -49.00000 166.00000 0.00000
v -49.00000 166.00000 1.00000
v -49.00000 167.00000 0.00000
v -49.00000 167.00000 1.00000
v -49.00000 168.00000 1.00000
v -49.00000 168.00000 0.00000
v -48.00000 161.00000 1.00000
v -48.00000 160.00000 1.00000
v -48.00000 160.00000 0.00000
v -48.00000 161.00000 0.00000
v -48.00000 162.00000 1.00000
v -48.00000 162.00000 0.00000
v -48.00000 163.00000 1.00000
v -48.00000 163.00000 0.00000
v -48.00000 164.00000 1.00000
v -48.00000 164.00000 0.00000
v -48.00000 165.00000 1.00000
v -48.00000 165.00000 0.00000
v -48.00000 166.00000 1.00000
v -48.00000 166.00000 0.00000
v -48.00000 167.00000 1.00000
v -48.00000 167.00000 0.00000
v -48.00000 168.00000 1.00000
v -48.00000 168.00000 0.00000

vt 0.06250 0.08594
vt 0.06250 0.07813
vt 0.06641 0.07813
vt 0.06641 0.08594
vt 0.19141 0.13281
vt 0.19141 0.12500
vt 0.19531 0.12500
vt 0.19531 0.13281

g 101_Piece1_20_0
usemtl 101_Material
f 1/1/3 2/2/3 3/3/3 4/4/3
f 3/1/6 2/2/6 5/3/6 6/4/6
f 7/1/2 5/2/2 2/3/2 1/4/2
f 4/1/1 3/2/1 6/3/1 8/4/1
f 9/1/3 1/2/3 4/3/3 10/4/3
f 11/1/2 7/2/2 1/3/2 9/4/2
f 10/1/1 4/2/1 8/3/1 12/4/1
f 13/1/3 9/2/3 10/3/3 14/4/3
f 15/1/2 11/2/2 9/3/2 13/4/2
f 14/1/1 10/2/1 12/3/1 16/4/1
f 17/1/3 13/2/3 14/3/3 18/4/3
f 19/1/2 15/2/2 13/3/2 17/4/2
f 18/1/1 14/2/1 16/3/1 20/4/1
f 21/5/3 17/6/3 18/7/3 22/8/3
f 23/5/2 19/6/2 17/7/2 21/8/2
f 22/5/1 18/6/1 20/7/1 24/8/1
f 25/5/3 21/6/3 22/7/3 26/8/3
f 27/5/2 23/6/2 21/7/2 25/8/2
f 26/5/1 22/6/1 24/7/1 28/8/1
f 29/5/3 25/6/3 26/7/3 30/8/3
f 31/5/2 27/6/2 25/7/2 29/8/2
f 30/5/1 26/6/1 28/7/1 32/8/1
f 33/5/3 29/6/3 30/7/3 34/8/3
f 33/5/5 34/6/5 35/7/5 36/8/5
f 36/5/2 31/6/2 29/7/2 33/8/2
f 34/5/1 30/6/1 32/7/1 35/8/1
f 6/1/6 5/2/6 37/3/6 38/4/6
f 39/1/2 37/2/2 5/3/2 7/4/2
f 8/1/1 6/2/1 38/3/1 40/4/1
f 41/1/2 39/2/2 7/3/2 11/4/2
f 12/1/1 8/2/1 40/3/1 42/4/1
f 43/1/2 41/2/2 11/3/2 15/4/2
f 16/1/1 12/2/1 42/3/1 44/4/1
f 45/1/2 43/2/2 15/3/2 19/4/2
f 20/1/1 16/2/1 44/3/1 46/4/1
f 47/5/2 45/6/2 19/7/2 23/8/2
f 24/5/1 20/6/1 46/7/1 48/8/1
f 49/5/2 47/6/2 23/7/2 27/8/2
f 28/5/1 24/6/1 48/7/1 50/8/1
f 51/5/2 49/6/2 27/7/2 31/8/2
f 32/5/1 28/6/1 50/7/1 52/8/1
f 36/5/5 35/6/5 53/7/5 54/8/5
f 54/5/2 51/6/2 31/7/2 36/8/2
f 35/5/1 32/6/1 52/7/1 53/8/1
f 38/1/6 37/2/6 55/3/6 56/4/6
f 57/1/2 55/2/2 37/3/2 39/4/2
f 40/1/1 38/2/1 56/3/1 58/4/1
f 59/1/2 57/2/2 39/3/2 41/4/2
f 42/1/1 40/2/1 58/3/1 60/4/1
f 61/1/2 59/2/2 41/3/2 43/4/2
f 44/1/1 42/2/1 60/3/1 62/4/1
f 63/1/2 61/2/2 43/3/2 45/4/2
f 46/1/1 44/2/1 62/3/1 64/4/1
f 65/5/2 63/6/2 45/7/2 47/8/2
f 48/5/1 46/6/1 64/7/1 66/8/1
f 67/5/2 65/6/2 47/7/2 49/8/2
f 50/5/1 48/6/1 66/7/1 68/8/1
f 69/5/2 67/6/2 49/7/2 51/8/2
f 52/5/1 50/6/1 68/7/1 70/8/1
f 54/5/5 53/6/5 71/7/5 72/8/5
f 72/5/2 69/6/2 51/7/2 54/8/2
f 53/5/1 52/6/1 70/7/1 71/8/1
f 56/1/6 55/2/6 73/3/6 74/4/6
f 75/1/2 73/2/2 55/3/2 57/4/2
f 58/1/1 56/2/1 74/3/1 76/4/1
f 77/1/2 75/2/2 57/3/2 59/4/2
f 60/1/1 58/2/1 76/3/1 78/4/1
f 79/1/2 77/2/2 59/3/2 61/4/2
f 62/1/1 60/2/1 78/3/1 80/4/1
f 81/1/2 79/2/2 61/3/2 63/4/2
f 64/1/1 62/2/1 80/3/1 82/4/1
f 83/5/2 81/6/2 63/7/2 65/8/2
f 66/5/1 64/6/1 82/7/1 84/8/1
f 85/5/2 83/6/2 65/7/2 67/8/2
f 68/5/1 66/6/1 84/7/1 86/8/1
f 87/5/2 85/6/2 67/7/2 69/8/2
f 70/5/1 68/6/1 86/7/1 88/8/1
f 72/5/5 71/6/5 89/7/5 90/8/5
f 90/5/2 87/6/2 69/7/2 72/8/2
f 71/5/1 70/6/1 88/7/1 89/8/1
f 74/5/6 73/6/6 91/7/6 92/8/6
f 93/5/2 91/6/2 73/7/2 75/8/2
f 76/5/1 74/6/1 92/7/1 94/8/1
f 95/5/2 93/6/2 75/7/2 77/8/2
f 78/5/1 76/6/1 94/7/1 96/8/1
f 97/5/2 95/6/2 77/7/2 79/8/2
f 80/5/1 78/6/1 96/7/1 98/8/1
f 99/5/2 97/6/2 79/7/2 81/8/2
f 82/5/1 80/6/1 98/7/1 100/8/1
f 101/1/2 99/2/2 81/3/2 83/4/2
f 84/1/1 82/2/1 100/3/1 102/4/1
f 103/1/2 101/2/2 83/3/2 85/4/2
f 86/1/1 84/2/1 102/3/1 104/4/1
f 105/1/2 103/2/2 85/3/2 87/4/2
f 88/1/1 86/2/1 104/3/1 106/4/1
f 90/1/5 89/2/5 107/3/5 108/4/5
f 108/1/2 105/2/2 87/3/2 90/4/2
f 89/1/1 88/2/1 106/3/1 107/4/1
f 92/5/6 91/6/6 109/7/6 110/8/6
f 111/5/2 109/6/2 91/7/2 93/8/2
f 94/5/1 92/6/1 110/7/1 112/8/1
f 113/5/2 111/6/2 93/7/2 95/8/2
f 96/5/1 94/6/1 112/7/1 114/8/1
f 115/5/2 113/6/2 95/7/2 97/8/2
f 98/5/1 96/6/1 114/7/1 116/8/1
f 117/5/2 115/6/2 97/7/2 99/8/2
f 100/5/1 98/6/1 116/7/1 118/8/1
f 119/1/2 117/2/2 99/3/2 101/4/2
f 102/1/1 100/2/1 118/3/1 120/4/1
f 121/1/2 119/2/2 101/3/2 103/4/2
f 104/1/1 102/2/1 120/3/1 122/4/1
f 123/1/2 121/2/2 103/3/2 105/4/2
f 106/1/1 104/2/1 122/3/1 124/4/1
f 108/1/5 107/2/5 125/3/5 126/4/5
f 126/1/2 123/2/2 105/3/2 108/4/2
f 107/1/1 106/2/1 124/3/1 125/4/1
f 110/5/6 109/6/6 127/7/6 128/8/6
f 129/5/2 127/6/2 109/7/2 111/8/2
f 112/5/1 110/6/1 128/7/1 130/8/1
f 131/5/2 129/6/2 111/7/2 113/8/2
f 114/5/1 112/6/1 130/7/1 132/8/1
f 133/5/2 131/6/2 113/7/2 115/8/2
f 116/5/1 114/6/1 132/7/1 134/8/1
f 135/5/2 133/6/2 115/7/2 117/8/2
f 118/5/1 116/6/1 134/7/1 136/8/1
f 137/1/2 135/2/2 117/3/2 119/4/2
f 120/1/1 118/2/1 136/3/1 138/4/1
f 139/1/2 137/2/2 119/3/2 121/4/2
f 122/1/1 120/2/1 138/3/1 140/4/1
f 141/1/2 139/2/2 121/3/2 123/4/2
f 124/1/1 122/2/1 140/3/1 142/4/1
f 126/1/5 125/2/5 143/3/5 144/4/5
f 144/1/2 141/2/2 123/3/2 126/4/2
f 125/1/1 124/2/1 142/3/1 143/4/1
f 145/5/4 146/6/4 147/7/4 148/8/4
f 128/5/6 127/6/6 147/7/6 146/8/6
f 148/5/2 147/6/2 127/7/2 129/8/2
f 130/5/1 128/6/1 146/7/1 145/8/1
f 149/5/4 145/6/4 148/7/4 150/8/4
f 150/5/2 148/6/2 129/7/2 131/8/2
f 132/5/1 130/6/1 145/7/1 149/8/1
f 151/5/4 149/6/4 150/7/4 152/8/4
f 152/5/2 150/6/2 131/7/2 133/8/2
f 134/5/1 132/6/1 149/7/1 151/8/1
f 153/5/4 151/6/4 152/7/4 154/8/4
f 154/5/2 152/6/2 133/7/2 135/8/2
f 136/5/1 134/6/1 151/7/1 153/8/1
f 155/1/4 153/2/4 154/3/4 156/4/4
f 156/1/2 154/2/2 135/3/2 137/4/2
f 138/1/1 136/2/1 153/3/1 155/4/1
f 157/1/4 155/2/4 156/3/4 158/4/4
f 158/1/2 156/2/2 137/3/2 139/4/2
f 140/1/1 138/2/1 155/3/1 157/4/1
f 159/1/4 157/2/4 158/3/4 160/4/4
f 160/1/2 158/2/2 139/3/2 141/4/2
f 142/1/1 140/2/1 157/3/1 159/4/1
f 161/1/4 159/2/4 160/3/4 162/4/4
f 144/1/5 143/2/5 161/3/5 162/4/5
f 162/1/2 160/2/2 141/3/2 144/4/2
f 143/1/1 142/2/1 159/3/1 161/4/1
