# This file was created with Minddesk Qubicle 3.0
# Get Qubicle at www.getqubicle.com

mtllib 101_Piece3_7_0.mtl

vn 0.0 0.0 1.0
vn 0.0 0.0 -1.0
vn -1.0 0.0 0.0
vn 1.0 0.0 0.0
vn 0.0 1.0 0.0
vn 0.0 -1.0 0.0

v -40.00000 57.00000 0.00000
v -40.00000 56.00000 0.00000
v -40.00000 56.00000 1.00000
v -40.00000 57.00000 1.00000
v -39.00000 56.00000 0.00000
v -39.00000 56.00000 1.00000
v -39.00000 57.00000 0.00000
v -39.00000 57.00000 1.00000
v -40.00000 58.00000 0.00000
v -40.00000 58.00000 1.00000
v -39.00000 58.00000 0.00000
v -39.00000 58.00000 1.00000
v -40.00000 59.00000 0.00000
v -40.00000 59.00000 1.00000
v -39.00000 59.00000 0.00000
v -39.00000 59.00000 1.00000
v -40.00000 60.00000 0.00000
v -40.00000 60.00000 1.00000
v -39.00000 60.00000 0.00000
v -39.00000 60.00000 1.00000
v -40.00000 61.00000 0.00000
v -40.00000 61.00000 1.00000
v -39.00000 61.00000 0.00000
v -39.00000 61.00000 1.00000
v -40.00000 62.00000 0.00000
v -40.00000 62.00000 1.00000
v -39.00000 62.00000 0.00000
v -39.00000 62.00000 1.00000
v -40.00000 63.00000 0.00000
v -40.00000 63.00000 1.00000
v -39.00000 63.00000 0.00000
v -39.00000 63.00000 1.00000
v -40.00000 64.00000 0.00000
v -40.00000 64.00000 1.00000
v -39.00000 64.00000 1.00000
v -39.00000 64.00000 0.00000
v -38.00000 56.00000 0.00000
v -38.00000 56.00000 1.00000
v -38.00000 57.00000 0.00000
v -38.00000 57.00000 1.00000
v -38.00000 58.00000 0.00000
v -38.00000 58.00000 1.00000
v -38.00000 59.00000 0.00000
v -38.00000 59.00000 1.00000
v -38.00000 60.00000 0.00000
v -38.00000 60.00000 1.00000
v -38.00000 61.00000 0.00000
v -38.00000 61.00000 1.00000
v -38.00000 62.00000 0.00000
v -38.00000 62.00000 1.00000
v -38.00000 63.00000 0.00000
v -38.00000 63.00000 1.00000
v -38.00000 64.00000 1.00000
v -38.00000 64.00000 0.00000
v -37.00000 56.00000 0.00000
v -37.00000 56.00000 1.00000
v -37.00000 57.00000 0.00000
v -37.00000 57.00000 1.00000
v -37.00000 58.00000 0.00000
v -37.00000 58.00000 1.00000
v -37.00000 59.00000 0.00000
v -37.00000 59.00000 1.00000
v -37.00000 60.00000 0.00000
v -37.00000 60.00000 1.00000
v -37.00000 61.00000 0.00000
v -37.00000 61.00000 1.00000
v -37.00000 62.00000 0.00000
v -37.00000 62.00000 1.00000
v -37.00000 63.00000 0.00000
v -37.00000 63.00000 1.00000
v -37.00000 64.00000 1.00000
v -37.00000 64.00000 0.00000
v -36.00000 56.00000 0.00000
v -36.00000 56.00000 1.00000
v -36.00000 57.00000 0.00000
v -36.00000 57.00000 1.00000
v -36.00000 58.00000 0.00000
v -36.00000 58.00000 1.00000
v -36.00000 59.00000 0.00000
v -36.00000 59.00000 1.00000
v -36.00000 60.00000 0.00000
v -36.00000 60.00000 1.00000
v -36.00000 61.00000 0.00000
v -36.00000 61.00000 1.00000
v -36.00000 62.00000 0.00000
v -36.00000 62.00000 1.00000
v -36.00000 63.00000 0.00000
v -36.00000 63.00000 1.00000
v -36.00000 64.00000 1.00000
v -36.00000 64.00000 0.00000
v -35.00000 56.00000 0.00000
v -35.00000 56.00000 1.00000
v -35.00000 57.00000 0.00000
v -35.00000 57.00000 1.00000
v -35.00000 58.00000 0.00000
v -35.00000 58.00000 1.00000
v -35.00000 59.00000 0.00000
v -35.00000 59.00000 1.00000
v -35.00000 60.00000 0.00000
v -35.00000 60.00000 1.00000
v -35.00000 61.00000 0.00000
v -35.00000 61.00000 1.00000
v -35.00000 62.00000 0.00000
v -35.00000 62.00000 1.00000
v -35.00000 63.00000 0.00000
v -35.00000 63.00000 1.00000
v -35.00000 64.00000 1.00000
v -35.00000 64.00000 0.00000
v -34.00000 56.00000 0.00000
v -34.00000 56.00000 1.00000
v -34.00000 57.00000 0.00000
v -34.00000 57.00000 1.00000
v -34.00000 58.00000 0.00000
v -34.00000 58.00000 1.00000
v -34.00000 59.00000 0.00000
v -34.00000 59.00000 1.00000
v -34.00000 60.00000 0.00000
v -34.00000 60.00000 1.00000
v -34.00000 61.00000 0.00000
v -34.00000 61.00000 1.00000
v -34.00000 62.00000 0.00000
v -34.00000 62.00000 1.00000
v -34.00000 63.00000 0.00000
v -34.00000 63.00000 1.00000
v -34.00000 64.00000 1.00000
v -34.00000 64.00000 0.00000
v -33.00000 56.00000 0.00000
v -33.00000 56.00000 1.00000
v -33.00000 57.00000 0.00000
v -33.00000 57.00000 1.00000
v -33.00000 58.00000 0.00000
v -33.00000 58.00000 1.00000
v -33.00000 59.00000 0.00000
v -33.00000 59.00000 1.00000
v -33.00000 60.00000 0.00000
v -33.00000 60.00000 1.00000
v -33.00000 61.00000 0.00000
v -33.00000 61.00000 1.00000
v -33.00000 62.00000 0.00000
v -33.00000 62.00000 1.00000
v -33.00000 63.00000 0.00000
v -33.00000 63.00000 1.00000
v -33.00000 64.00000 1.00000
v -33.00000 64.00000 0.00000
v -32.00000 57.00000 1.00000
v -32.00000 56.00000 1.00000
v -32.00000 56.00000 0.00000
v -32.00000 57.00000 0.00000
v -32.00000 58.00000 1.00000
v -32.00000 58.00000 0.00000
v -32.00000 59.00000 1.00000
v -32.00000 59.00000 0.00000
v -32.00000 60.00000 1.00000
v -32.00000 60.00000 0.00000
v -32.00000 61.00000 1.00000
v -32.00000 61.00000 0.00000
v -32.00000 62.00000 1.00000
v -32.00000 62.00000 0.00000
v -32.00000 63.00000 1.00000
v -32.00000 63.00000 0.00000
v -32.00000 64.00000 1.00000
v -32.00000 64.00000 0.00000

vt 0.32031 0.13281
vt 0.32031 0.12500
vt 0.32422 0.12500
vt 0.32422 0.13281
vt 0.33203 0.13281
vt 0.33203 0.12500
vt 0.33594 0.12500
vt 0.33594 0.13281
vt 0.09766 0.17969
vt 0.09766 0.17188
vt 0.10156 0.17188
vt 0.10156 0.17969
vt 0.10938 0.17969
vt 0.10938 0.17188
vt 0.11328 0.17188
vt 0.11328 0.17969
vt 0.36719 0.13281
vt 0.36719 0.12500
vt 0.37109 0.12500
vt 0.37109 0.13281
vt 0.34375 0.13281
vt 0.34375 0.12500
vt 0.34766 0.12500
vt 0.34766 0.13281
vt 0.12109 0.17969
vt 0.12109 0.17188
vt 0.12500 0.17188
vt 0.12500 0.17969
vt 0.37891 0.13281
vt 0.37891 0.12500
vt 0.38281 0.12500
vt 0.38281 0.13281
vt 0.13281 0.17969
vt 0.13281 0.17188
vt 0.13672 0.17188
vt 0.13672 0.17969
vt 0.14453 0.17969
vt 0.14453 0.17188
vt 0.14844 0.17188
vt 0.14844 0.17969
vt 0.15625 0.17969
vt 0.15625 0.17188
vt 0.16016 0.17188
vt 0.16016 0.17969
vt 0.16797 0.17969
vt 0.16797 0.17188
vt 0.17188 0.17188
vt 0.17188 0.17969
vt 0.39063 0.13281
vt 0.39063 0.12500
vt 0.39453 0.12500
vt 0.39453 0.13281
vt 0.17969 0.17969
vt 0.17969 0.17188
vt 0.18359 0.17188
vt 0.18359 0.17969
vt 0.19141 0.17969
vt 0.19141 0.17188
vt 0.19531 0.17188
vt 0.19531 0.17969
vt 0.41406 0.13281
vt 0.41406 0.12500
vt 0.41797 0.12500
vt 0.41797 0.13281

g 101_Piece3_7_0
usemtl 101_Material
f 1/1/3 2/2/3 3/3/3 4/4/3
f 3/1/6 2/2/6 5/3/6 6/4/6
f 7/1/2 5/2/2 2/3/2 1/4/2
f 4/1/1 3/2/1 6/3/1 8/4/1
f 9/5/3 1/6/3 4/7/3 10/8/3
f 11/5/2 7/6/2 1/7/2 9/8/2
f 10/5/1 4/6/1 8/7/1 12/8/1
f 13/5/3 9/6/3 10/7/3 14/8/3
f 15/5/2 11/6/2 9/7/2 13/8/2
f 14/5/1 10/6/1 12/7/1 16/8/1
f 17/1/3 13/2/3 14/3/3 18/4/3
f 19/1/2 15/2/2 13/3/2 17/4/2
f 18/1/1 14/2/1 16/3/1 20/4/1
f 21/1/3 17/2/3 18/3/3 22/4/3
f 23/1/2 19/2/2 17/3/2 21/4/2
f 22/1/1 18/2/1 20/3/1 24/4/1
f 25/9/3 21/10/3 22/11/3 26/12/3
f 27/9/2 23/10/2 21/11/2 25/12/2
f 26/9/1 22/10/1 24/11/1 28/12/1
f 29/13/3 25/14/3 26/15/3 30/16/3
f 31/13/2 27/14/2 25/15/2 29/16/2
f 30/13/1 26/14/1 28/15/1 32/16/1
f 33/17/3 29/18/3 30/19/3 34/20/3
f 33/17/5 34/18/5 35/19/5 36/20/5
f 36/17/2 31/18/2 29/19/2 33/20/2
f 34/17/1 30/18/1 32/19/1 35/20/1
f 6/21/6 5/22/6 37/23/6 38/24/6
f 39/21/2 37/22/2 5/23/2 7/24/2
f 8/21/1 6/22/1 38/23/1 40/24/1
f 41/1/2 39/2/2 7/3/2 11/4/2
f 12/1/1 8/2/1 40/3/1 42/4/1
f 43/5/2 41/6/2 11/7/2 15/8/2
f 16/5/1 12/6/1 42/7/1 44/8/1
f 45/5/2 43/6/2 15/7/2 19/8/2
f 20/5/1 16/6/1 44/7/1 46/8/1
f 47/25/2 45/26/2 19/27/2 23/28/2
f 24/25/1 20/26/1 46/27/1 48/28/1
f 49/21/2 47/22/2 23/23/2 27/24/2
f 28/21/1 24/22/1 48/23/1 50/24/1
f 51/29/2 49/30/2 27/31/2 31/32/2
f 32/29/1 28/30/1 50/31/1 52/32/1
f 36/17/5 35/18/5 53/19/5 54/20/5
f 54/17/2 51/18/2 31/19/2 36/20/2
f 35/17/1 32/18/1 52/19/1 53/20/1
f 38/21/6 37/22/6 55/23/6 56/24/6
f 57/21/2 55/22/2 37/23/2 39/24/2
f 40/21/1 38/22/1 56/23/1 58/24/1
f 59/1/2 57/2/2 39/3/2 41/4/2
f 42/1/1 40/2/1 58/3/1 60/4/1
f 61/5/2 59/6/2 41/7/2 43/8/2
f 44/5/1 42/6/1 60/7/1 62/8/1
f 63/1/2 61/2/2 43/3/2 45/4/2
f 46/1/1 44/2/1 62/3/1 64/4/1
f 65/1/2 63/2/2 45/3/2 47/4/2
f 48/1/1 46/2/1 64/3/1 66/4/1
f 67/33/2 65/34/2 47/35/2 49/36/2
f 50/33/1 48/34/1 66/35/1 68/36/1
f 69/33/2 67/34/2 49/35/2 51/36/2
f 52/33/1 50/34/1 68/35/1 70/36/1
f 54/37/5 53/38/5 71/39/5 72/40/5
f 72/37/2 69/38/2 51/39/2 54/40/2
f 53/37/1 52/38/1 70/39/1 71/40/1
f 56/41/6 55/42/6 73/43/6 74/44/6
f 75/41/2 73/42/2 55/43/2 57/44/2
f 58/41/1 56/42/1 74/43/1 76/44/1
f 77/45/2 75/46/2 57/47/2 59/48/2
f 60/45/1 58/46/1 76/47/1 78/48/1
f 79/29/2 77/30/2 59/31/2 61/32/2
f 62/29/1 60/30/1 78/31/1 80/32/1
f 81/49/2 79/50/2 61/51/2 63/52/2
f 64/49/1 62/50/1 80/51/1 82/52/1
f 83/49/2 81/50/2 63/51/2 65/52/2
f 66/49/1 64/50/1 82/51/1 84/52/1
f 85/1/2 83/2/2 65/3/2 67/4/2
f 68/1/1 66/2/1 84/3/1 86/4/1
f 87/49/2 85/50/2 67/51/2 69/52/2
f 70/49/1 68/50/1 86/51/1 88/52/1
f 72/17/5 71/18/5 89/19/5 90/20/5
f 90/17/2 87/18/2 69/19/2 72/20/2
f 71/17/1 70/18/1 88/19/1 89/20/1
f 74/5/6 73/6/6 91/7/6 92/8/6
f 93/5/2 91/6/2 73/7/2 75/8/2
f 76/5/1 74/6/1 92/7/1 94/8/1
f 95/29/2 93/30/2 75/31/2 77/32/2
f 78/29/1 76/30/1 94/31/1 96/32/1
f 97/45/2 95/46/2 77/47/2 79/48/2
f 80/45/1 78/46/1 96/47/1 98/48/1
f 99/49/2 97/50/2 79/51/2 81/52/2
f 82/49/1 80/50/1 98/51/1 100/52/1
f 101/53/2 99/54/2 81/55/2 83/56/2
f 84/53/1 82/54/1 100/55/1 102/56/1
f 103/57/2 101/58/2 83/59/2 85/60/2
f 86/57/1 84/58/1 102/59/1 104/60/1
f 105/49/2 103/50/2 85/51/2 87/52/2
f 88/49/1 86/50/1 104/51/1 106/52/1
f 90/61/5 89/62/5 107/63/5 108/64/5
f 108/61/2 105/62/2 87/63/2 90/64/2
f 89/61/1 88/62/1 106/63/1 107/64/1
f 92/21/6 91/22/6 109/23/6 110/24/6
f 111/21/2 109/22/2 91/23/2 93/24/2
f 94/21/1 92/22/1 110/23/1 112/24/1
f 113/1/2 111/2/2 93/3/2 95/4/2
f 96/1/1 94/2/1 112/3/1 114/4/1
f 115/1/2 113/2/2 95/3/2 97/4/2
f 98/1/1 96/2/1 114/3/1 116/4/1
f 117/21/2 115/22/2 97/23/2 99/24/2
f 100/21/1 98/22/1 116/23/1 118/24/1
f 119/21/2 117/22/2 99/23/2 101/24/2
f 102/21/1 100/22/1 118/23/1 120/24/1
f 121/21/2 119/22/2 101/23/2 103/24/2
f 104/21/1 102/22/1 120/23/1 122/24/1
f 123/49/2 121/50/2 103/51/2 105/52/2
f 106/49/1 104/50/1 122/51/1 124/52/1
f 108/61/5 107/62/5 125/63/5 126/64/5
f 126/61/2 123/62/2 105/63/2 108/64/2
f 107/61/1 106/62/1 124/63/1 125/64/1
f 110/1/6 109/2/6 127/3/6 128/4/6
f 129/1/2 127/2/2 109/3/2 111/4/2
f 112/1/1 110/2/1 128/3/1 130/4/1
f 131/5/2 129/6/2 111/7/2 113/8/2
f 114/5/1 112/6/1 130/7/1 132/8/1
f 133/5/2 131/6/2 113/7/2 115/8/2
f 116/5/1 114/6/1 132/7/1 134/8/1
f 135/1/2 133/2/2 115/3/2 117/4/2
f 118/1/1 116/2/1 134/3/1 136/4/1
f 137/21/2 135/22/2 117/23/2 119/24/2
f 120/21/1 118/22/1 136/23/1 138/24/1
f 139/21/2 137/22/2 119/23/2 121/24/2
f 122/21/1 120/22/1 138/23/1 140/24/1
f 141/29/2 139/30/2 121/31/2 123/32/2
f 124/29/1 122/30/1 140/31/1 142/32/1
f 126/37/5 125/38/5 143/39/5 144/40/5
f 144/37/2 141/38/2 123/39/2 126/40/2
f 125/37/1 124/38/1 142/39/1 143/40/1
f 145/5/4 146/6/4 147/7/4 148/8/4
f 128/5/6 127/6/6 147/7/6 146/8/6
f 148/5/2 147/6/2 127/7/2 129/8/2
f 130/5/1 128/6/1 146/7/1 145/8/1
f 149/29/4 145/30/4 148/31/4 150/32/4
f 150/29/2 148/30/2 129/31/2 131/32/2
f 132/29/1 130/30/1 145/31/1 149/32/1
f 151/5/4 149/6/4 150/7/4 152/8/4
f 152/5/2 150/6/2 131/7/2 133/8/2
f 134/5/1 132/6/1 149/7/1 151/8/1
f 153/5/4 151/6/4 152/7/4 154/8/4
f 154/5/2 152/6/2 133/7/2 135/8/2
f 136/5/1 134/6/1 151/7/1 153/8/1
f 155/1/4 153/2/4 154/3/4 156/4/4
f 156/1/2 154/2/2 135/3/2 137/4/2
f 138/1/1 136/2/1 153/3/1 155/4/1
f 157/21/4 155/22/4 156/23/4 158/24/4
f 158/21/2 156/22/2 137/23/2 139/24/2
f 140/21/1 138/22/1 155/23/1 157/24/1
f 159/13/4 157/14/4 158/15/4 160/16/4
f 160/13/2 158/14/2 139/15/2 141/16/2
f 142/13/1 140/14/1 157/15/1 159/16/1
f 161/17/4 159/18/4 160/19/4 162/20/4
f 144/17/5 143/18/5 161/19/5 162/20/5
f 162/17/2 160/18/2 141/19/2 144/20/2
f 143/17/1 142/18/1 159/19/1 161/20/1
