# This file was created with Minddesk Qubicle 3.0
# Get Qubicle at www.getqubicle.com

mtllib 101_Piece0_18_0.mtl

vn 0.0 0.0 1.0
vn 0.0 0.0 -1.0
vn -1.0 0.0 0.0
vn 1.0 0.0 0.0
vn 0.0 1.0 0.0
vn 0.0 -1.0 0.0

v -64.00000 145.00000 0.00000
v -64.00000 144.00000 0.00000
v -64.00000 144.00000 1.00000
v -64.00000 145.00000 1.00000
v -63.00000 144.00000 0.00000
v -63.00000 144.00000 1.00000
v -63.00000 145.00000 0.00000
v -63.00000 145.00000 1.00000
v -64.00000 146.00000 0.00000
v -64.00000 146.00000 1.00000
v -63.00000 146.00000 0.00000
v -63.00000 146.00000 1.00000
v -64.00000 147.00000 0.00000
v -64.00000 147.00000 1.00000
v -63.00000 147.00000 0.00000
v -63.00000 147.00000 1.00000
v -64.00000 148.00000 0.00000
v -64.00000 148.00000 1.00000
v -63.00000 148.00000 0.00000
v -63.00000 148.00000 1.00000
v -64.00000 149.00000 0.00000
v -64.00000 149.00000 1.00000
v -63.00000 149.00000 0.00000
v -63.00000 149.00000 1.00000
v -64.00000 150.00000 0.00000
v -64.00000 150.00000 1.00000
v -63.00000 150.00000 0.00000
v -63.00000 150.00000 1.00000
v -64.00000 151.00000 0.00000
v -64.00000 151.00000 1.00000
v -63.00000 151.00000 0.00000
v -63.00000 151.00000 1.00000
v -64.00000 152.00000 0.00000
v -64.00000 152.00000 1.00000
v -63.00000 152.00000 1.00000
v -63.00000 152.00000 0.00000
v -62.00000 144.00000 0.00000
v -62.00000 144.00000 1.00000
v -62.00000 145.00000 0.00000
v -62.00000 145.00000 1.00000
v -62.00000 146.00000 0.00000
v -62.00000 146.00000 1.00000
v -62.00000 147.00000 0.00000
v -62.00000 147.00000 1.00000
v -62.00000 148.00000 0.00000
v -62.00000 148.00000 1.00000
v -62.00000 149.00000 0.00000
v -62.00000 149.00000 1.00000
v -62.00000 150.00000 0.00000
v -62.00000 150.00000 1.00000
v -62.00000 151.00000 0.00000
v -62.00000 151.00000 1.00000
v -62.00000 152.00000 1.00000
v -62.00000 152.00000 0.00000
v -61.00000 144.00000 0.00000
v -61.00000 144.00000 1.00000
v -61.00000 145.00000 0.00000
v -61.00000 145.00000 1.00000
v -61.00000 146.00000 0.00000
v -61.00000 146.00000 1.00000
v -61.00000 147.00000 0.00000
v -61.00000 147.00000 1.00000
v -61.00000 148.00000 0.00000
v -61.00000 148.00000 1.00000
v -61.00000 149.00000 0.00000
v -61.00000 149.00000 1.00000
v -61.00000 150.00000 0.00000
v -61.00000 150.00000 1.00000
v -61.00000 151.00000 0.00000
v -61.00000 151.00000 1.00000
v -61.00000 152.00000 1.00000
v -61.00000 152.00000 0.00000
v -60.00000 144.00000 0.00000
v -60.00000 144.00000 1.00000
v -60.00000 145.00000 0.00000
v -60.00000 145.00000 1.00000
v -60.00000 146.00000 0.00000
v -60.00000 146.00000 1.00000
v -60.00000 147.00000 0.00000
v -60.00000 147.00000 1.00000
v -60.00000 148.00000 0.00000
v -60.00000 148.00000 1.00000
v -60.00000 149.00000 0.00000
v -60.00000 149.00000 1.00000
v -60.00000 150.00000 0.00000
v -60.00000 150.00000 1.00000
v -60.00000 151.00000 0.00000
v -60.00000 151.00000 1.00000
v -60.00000 152.00000 1.00000
v -60.00000 152.00000 0.00000
v -59.00000 144.00000 0.00000
v -59.00000 144.00000 1.00000
v -59.00000 145.00000 0.00000
v -59.00000 145.00000 1.00000
v -59.00000 146.00000 0.00000
v -59.00000 146.00000 1.00000
v -59.00000 147.00000 0.00000
v -59.00000 147.00000 1.00000
v -59.00000 148.00000 0.00000
v -59.00000 148.00000 1.00000
v -59.00000 149.00000 0.00000
v -59.00000 149.00000 1.00000
v -59.00000 150.00000 0.00000
v -59.00000 150.00000 1.00000
v -59.00000 151.00000 0.00000
v -59.00000 151.00000 1.00000
v -59.00000 152.00000 1.00000
v -59.00000 152.00000 0.00000
v -58.00000 144.00000 0.00000
v -58.00000 144.00000 1.00000
v -58.00000 145.00000 0.00000
v -58.00000 145.00000 1.00000
v -58.00000 146.00000 0.00000
v -58.00000 146.00000 1.00000
v -58.00000 147.00000 0.00000
v -58.00000 147.00000 1.00000
v -58.00000 148.00000 0.00000
v -58.00000 148.00000 1.00000
v -58.00000 149.00000 0.00000
v -58.00000 149.00000 1.00000
v -58.00000 150.00000 0.00000
v -58.00000 150.00000 1.00000
v -58.00000 151.00000 0.00000
v -58.00000 151.00000 1.00000
v -58.00000 152.00000 1.00000
v -58.00000 152.00000 0.00000
v -57.00000 144.00000 0.00000
v -57.00000 144.00000 1.00000
v -57.00000 145.00000 0.00000
v -57.00000 145.00000 1.00000
v -57.00000 146.00000 0.00000
v -57.00000 146.00000 1.00000
v -57.00000 147.00000 0.00000
v -57.00000 147.00000 1.00000
v -57.00000 148.00000 0.00000
v -57.00000 148.00000 1.00000
v -57.00000 149.00000 0.00000
v -57.00000 149.00000 1.00000
v -57.00000 150.00000 0.00000
v -57.00000 150.00000 1.00000
v -57.00000 151.00000 0.00000
v -57.00000 151.00000 1.00000
v -57.00000 152.00000 1.00000
v -57.00000 152.00000 0.00000
v -56.00000 145.00000 1.00000
v -56.00000 144.00000 1.00000
v -56.00000 144.00000 0.00000
v -56.00000 145.00000 0.00000
v -56.00000 146.00000 1.00000
v -56.00000 146.00000 0.00000
v -56.00000 147.00000 1.00000
v -56.00000 147.00000 0.00000
v -56.00000 148.00000 1.00000
v -56.00000 148.00000 0.00000
v -56.00000 149.00000 1.00000
v -56.00000 149.00000 0.00000
v -56.00000 150.00000 1.00000
v -56.00000 150.00000 0.00000
v -56.00000 151.00000 1.00000
v -56.00000 151.00000 0.00000
v -56.00000 152.00000 1.00000
v -56.00000 152.00000 0.00000

vt 0.00391 0.01563
vt 0.00391 0.00781
vt 0.00781 0.00781
vt 0.00781 0.01563
vt 0.47266 0.06250
vt 0.47266 0.05469
vt 0.47656 0.05469
vt 0.47656 0.06250
vt 0.02734 0.08594
vt 0.02734 0.07813
vt 0.03125 0.07813
vt 0.03125 0.08594
vt 0.03906 0.08594
vt 0.03906 0.07813
vt 0.04297 0.07813
vt 0.04297 0.08594

g 101_Piece0_18_0
usemtl 101_Material
f 1/1/3 2/2/3 3/3/3 4/4/3
f 3/1/6 2/2/6 5/3/6 6/4/6
f 7/1/2 5/2/2 2/3/2 1/4/2
f 4/1/1 3/2/1 6/3/1 8/4/1
f 9/1/3 1/2/3 4/3/3 10/4/3
f 11/1/2 7/2/2 1/3/2 9/4/2
f 10/1/1 4/2/1 8/3/1 12/4/1
f 13/1/3 9/2/3 10/3/3 14/4/3
f 15/1/2 11/2/2 9/3/2 13/4/2
f 14/1/1 10/2/1 12/3/1 16/4/1
f 17/1/3 13/2/3 14/3/3 18/4/3
f 19/1/2 15/2/2 13/3/2 17/4/2
f 18/1/1 14/2/1 16/3/1 20/4/1
f 21/1/3 17/2/3 18/3/3 22/4/3
f 23/1/2 19/2/2 17/3/2 21/4/2
f 22/1/1 18/2/1 20/3/1 24/4/1
f 25/1/3 21/2/3 22/3/3 26/4/3
f 27/1/2 23/2/2 21/3/2 25/4/2
f 26/1/1 22/2/1 24/3/1 28/4/1
f 29/1/3 25/2/3 26/3/3 30/4/3
f 31/1/2 27/2/2 25/3/2 29/4/2
f 30/1/1 26/2/1 28/3/1 32/4/1
f 33/1/3 29/2/3 30/3/3 34/4/3
f 33/1/5 34/2/5 35/3/5 36/4/5
f 36/1/2 31/2/2 29/3/2 33/4/2
f 34/1/1 30/2/1 32/3/1 35/4/1
f 6/5/6 5/6/6 37/7/6 38/8/6
f 39/5/2 37/6/2 5/7/2 7/8/2
f 8/5/1 6/6/1 38/7/1 40/8/1
f 41/5/2 39/6/2 7/7/2 11/8/2
f 12/5/1 8/6/1 40/7/1 42/8/1
f 43/5/2 41/6/2 11/7/2 15/8/2
f 16/5/1 12/6/1 42/7/1 44/8/1
f 45/5/2 43/6/2 15/7/2 19/8/2
f 20/5/1 16/6/1 44/7/1 46/8/1
f 47/5/2 45/6/2 19/7/2 23/8/2
f 24/5/1 20/6/1 46/7/1 48/8/1
f 49/5/2 47/6/2 23/7/2 27/8/2
f 28/5/1 24/6/1 48/7/1 50/8/1
f 51/5/2 49/6/2 27/7/2 31/8/2
f 32/5/1 28/6/1 50/7/1 52/8/1
f 36/1/5 35/2/5 53/3/5 54/4/5
f 54/1/2 51/2/2 31/3/2 36/4/2
f 35/1/1 32/2/1 52/3/1 53/4/1
f 38/9/6 37/10/6 55/11/6 56/12/6
f 57/9/2 55/10/2 37/11/2 39/12/2
f 40/9/1 38/10/1 56/11/1 58/12/1
f 59/13/2 57/14/2 39/15/2 41/16/2
f 42/13/1 40/14/1 58/15/1 60/16/1
f 61/13/2 59/14/2 41/15/2 43/16/2
f 44/13/1 42/14/1 60/15/1 62/16/1
f 63/13/2 61/14/2 43/15/2 45/16/2
f 46/13/1 44/14/1 62/15/1 64/16/1
f 65/13/2 63/14/2 45/15/2 47/16/2
f 48/13/1 46/14/1 64/15/1 66/16/1
f 67/13/2 65/14/2 47/15/2 49/16/2
f 50/13/1 48/14/1 66/15/1 68/16/1
f 69/5/2 67/6/2 49/7/2 51/8/2
f 52/5/1 50/6/1 68/7/1 70/8/1
f 54/1/5 53/2/5 71/3/5 72/4/5
f 72/1/2 69/2/2 51/3/2 54/4/2
f 53/1/1 52/2/1 70/3/1 71/4/1
f 56/9/6 55/10/6 73/11/6 74/12/6
f 75/9/2 73/10/2 55/11/2 57/12/2
f 58/9/1 56/10/1 74/11/1 76/12/1
f 77/13/2 75/14/2 57/15/2 59/16/2
f 60/13/1 58/14/1 76/15/1 78/16/1
f 79/13/2 77/14/2 59/15/2 61/16/2
f 62/13/1 60/14/1 78/15/1 80/16/1
f 81/13/2 79/14/2 61/15/2 63/16/2
f 64/13/1 62/14/1 80/15/1 82/16/1
f 83/13/2 81/14/2 63/15/2 65/16/2
f 66/13/1 64/14/1 82/15/1 84/16/1
f 85/13/2 83/14/2 65/15/2 67/16/2
f 68/13/1 66/14/1 84/15/1 86/16/1
f 87/5/2 85/6/2 67/7/2 69/8/2
f 70/5/1 68/6/1 86/7/1 88/8/1
f 72/1/5 71/2/5 89/3/5 90/4/5
f 90/1/2 87/2/2 69/3/2 72/4/2
f 71/1/1 70/2/1 88/3/1 89/4/1
f 74/9/6 73/10/6 91/11/6 92/12/6
f 93/9/2 91/10/2 73/11/2 75/12/2
f 76/9/1 74/10/1 92/11/1 94/12/1
f 95/13/2 93/14/2 75/15/2 77/16/2
f 78/13/1 76/14/1 94/15/1 96/16/1
f 97/13/2 95/14/2 77/15/2 79/16/2
f 80/13/1 78/14/1 96/15/1 98/16/1
f 99/13/2 97/14/2 79/15/2 81/16/2
f 82/13/1 80/14/1 98/15/1 100/16/1
f 101/13/2 99/14/2 81/15/2 83/16/2
f 84/13/1 82/14/1 100/15/1 102/16/1
f 103/13/2 101/14/2 83/15/2 85/16/2
f 86/13/1 84/14/1 102/15/1 104/16/1
f 105/5/2 103/6/2 85/7/2 87/8/2
f 88/5/1 86/6/1 104/7/1 106/8/1
f 90/1/5 89/2/5 107/3/5 108/4/5
f 108/1/2 105/2/2 87/3/2 90/4/2
f 89/1/1 88/2/1 106/3/1 107/4/1
f 92/9/6 91/10/6 109/11/6 110/12/6
f 111/9/2 109/10/2 91/11/2 93/12/2
f 94/9/1 92/10/1 110/11/1 112/12/1
f 113/13/2 111/14/2 93/15/2 95/16/2
f 96/13/1 94/14/1 112/15/1 114/16/1
f 115/13/2 113/14/2 95/15/2 97/16/2
f 98/13/1 96/14/1 114/15/1 116/16/1
f 117/13/2 115/14/2 97/15/2 99/16/2
f 100/13/1 98/14/1 116/15/1 118/16/1
f 119/13/2 117/14/2 99/15/2 101/16/2
f 102/13/1 100/14/1 118/15/1 120/16/1
f 121/13/2 119/14/2 101/15/2 103/16/2
f 104/13/1 102/14/1 120/15/1 122/16/1
f 123/5/2 121/6/2 103/7/2 105/8/2
f 106/5/1 104/6/1 122/7/1 124/8/1
f 108/1/5 107/2/5 125/3/5 126/4/5
f 126/1/2 123/2/2 105/3/2 108/4/2
f 107/1/1 106/2/1 124/3/1 125/4/1
f 110/9/6 109/10/6 127/11/6 128/12/6
f 129/9/2 127/10/2 109/11/2 111/12/2
f 112/9/1 110/10/1 128/11/1 130/12/1
f 131/13/2 129/14/2 111/15/2 113/16/2
f 114/13/1 112/14/1 130/15/1 132/16/1
f 133/13/2 131/14/2 113/15/2 115/16/2
f 116/13/1 114/14/1 132/15/1 134/16/1
f 135/13/2 133/14/2 115/15/2 117/16/2
f 118/13/1 116/14/1 134/15/1 136/16/1
f 137/13/2 135/14/2 117/15/2 119/16/2
f 120/13/1 118/14/1 136/15/1 138/16/1
f 139/13/2 137/14/2 119/15/2 121/16/2
f 122/13/1 120/14/1 138/15/1 140/16/1
f 141/5/2 139/6/2 121/7/2 123/8/2
f 124/5/1 122/6/1 140/7/1 142/8/1
f 126/1/5 125/2/5 143/3/5 144/4/5
f 144/1/2 141/2/2 123/3/2 126/4/2
f 125/1/1 124/2/1 142/3/1 143/4/1
f 145/9/4 146/10/4 147/11/4 148/12/4
f 128/9/6 127/10/6 147/11/6 146/12/6
f 148/9/2 147/10/2 127/11/2 129/12/2
f 130/9/1 128/10/1 146/11/1 145/12/1
f 149/9/4 145/10/4 148/11/4 150/12/4
f 150/9/2 148/10/2 129/11/2 131/12/2
f 132/9/1 130/10/1 145/11/1 149/12/1
f 151/9/4 149/10/4 150/11/4 152/12/4
f 152/9/2 150/10/2 131/11/2 133/12/2
f 134/9/1 132/10/1 149/11/1 151/12/1
f 153/9/4 151/10/4 152/11/4 154/12/4
f 154/9/2 152/10/2 133/11/2 135/12/2
f 136/9/1 134/10/1 151/11/1 153/12/1
f 155/9/4 153/10/4 154/11/4 156/12/4
f 156/9/2 154/10/2 135/11/2 137/12/2
f 138/9/1 136/10/1 153/11/1 155/12/1
f 157/9/4 155/10/4 156/11/4 158/12/4
f 158/9/2 156/10/2 137/11/2 139/12/2
f 140/9/1 138/10/1 155/11/1 157/12/1
f 159/5/4 157/6/4 158/7/4 160/8/4
f 160/5/2 158/6/2 139/7/2 141/8/2
f 142/5/1 140/6/1 157/7/1 159/8/1
f 161/1/4 159/2/4 160/3/4 162/4/4
f 144/1/5 143/2/5 161/3/5 162/4/5
f 162/1/2 160/2/2 141/3/2 144/4/2
f 143/1/1 142/2/1 159/3/1 161/4/1
