# This file was created with Minddesk Qubicle 3.0
# Get Qubicle at www.getqubicle.com

mtllib 101_Piece10_2_0.mtl

vn 0.0 0.0 1.0
vn 0.0 0.0 -1.0
vn -1.0 0.0 0.0
vn 1.0 0.0 0.0
vn 0.0 1.0 0.0
vn 0.0 -1.0 0.0

v 16.00000 17.00000 0.00000
v 16.00000 16.00000 0.00000
v 16.00000 16.00000 1.00000
v 16.00000 17.00000 1.00000
v 17.00000 16.00000 0.00000
v 17.00000 16.00000 1.00000
v 17.00000 17.00000 0.00000
v 17.00000 17.00000 1.00000
v 16.00000 18.00000 0.00000
v 16.00000 18.00000 1.00000
v 17.00000 18.00000 0.00000
v 17.00000 18.00000 1.00000
v 16.00000 19.00000 0.00000
v 16.00000 19.00000 1.00000
v 17.00000 19.00000 0.00000
v 17.00000 19.00000 1.00000
v 16.00000 20.00000 0.00000
v 16.00000 20.00000 1.00000
v 17.00000 20.00000 0.00000
v 17.00000 20.00000 1.00000
v 16.00000 21.00000 0.00000
v 16.00000 21.00000 1.00000
v 17.00000 21.00000 0.00000
v 17.00000 21.00000 1.00000
v 16.00000 22.00000 0.00000
v 16.00000 22.00000 1.00000
v 17.00000 22.00000 0.00000
v 17.00000 22.00000 1.00000
v 16.00000 23.00000 0.00000
v 16.00000 23.00000 1.00000
v 17.00000 23.00000 0.00000
v 17.00000 23.00000 1.00000
v 16.00000 24.00000 0.00000
v 16.00000 24.00000 1.00000
v 17.00000 24.00000 1.00000
v 17.00000 24.00000 0.00000
v 18.00000 16.00000 0.00000
v 18.00000 16.00000 1.00000
v 18.00000 17.00000 0.00000
v 18.00000 17.00000 1.00000
v 18.00000 18.00000 0.00000
v 18.00000 18.00000 1.00000
v 18.00000 19.00000 0.00000
v 18.00000 19.00000 1.00000
v 18.00000 20.00000 0.00000
v 18.00000 20.00000 1.00000
v 18.00000 21.00000 0.00000
v 18.00000 21.00000 1.00000
v 18.00000 22.00000 0.00000
v 18.00000 22.00000 1.00000
v 18.00000 23.00000 0.00000
v 18.00000 23.00000 1.00000
v 18.00000 24.00000 1.00000
v 18.00000 24.00000 0.00000
v 19.00000 16.00000 0.00000
v 19.00000 16.00000 1.00000
v 19.00000 17.00000 0.00000
v 19.00000 17.00000 1.00000
v 19.00000 18.00000 0.00000
v 19.00000 18.00000 1.00000
v 19.00000 19.00000 0.00000
v 19.00000 19.00000 1.00000
v 19.00000 20.00000 0.00000
v 19.00000 20.00000 1.00000
v 19.00000 21.00000 0.00000
v 19.00000 21.00000 1.00000
v 19.00000 22.00000 0.00000
v 19.00000 22.00000 1.00000
v 19.00000 23.00000 0.00000
v 19.00000 23.00000 1.00000
v 19.00000 24.00000 1.00000
v 19.00000 24.00000 0.00000
v 20.00000 16.00000 0.00000
v 20.00000 16.00000 1.00000
v 20.00000 17.00000 0.00000
v 20.00000 17.00000 1.00000
v 20.00000 18.00000 0.00000
v 20.00000 18.00000 1.00000
v 20.00000 19.00000 0.00000
v 20.00000 19.00000 1.00000
v 20.00000 20.00000 0.00000
v 20.00000 20.00000 1.00000
v 20.00000 21.00000 0.00000
v 20.00000 21.00000 1.00000
v 20.00000 22.00000 0.00000
v 20.00000 22.00000 1.00000
v 20.00000 23.00000 0.00000
v 20.00000 23.00000 1.00000
v 20.00000 24.00000 1.00000
v 20.00000 24.00000 0.00000
v 21.00000 16.00000 0.00000
v 21.00000 16.00000 1.00000
v 21.00000 17.00000 0.00000
v 21.00000 17.00000 1.00000
v 21.00000 18.00000 0.00000
v 21.00000 18.00000 1.00000
v 21.00000 19.00000 0.00000
v 21.00000 19.00000 1.00000
v 21.00000 20.00000 0.00000
v 21.00000 20.00000 1.00000
v 21.00000 21.00000 0.00000
v 21.00000 21.00000 1.00000
v 21.00000 22.00000 0.00000
v 21.00000 22.00000 1.00000
v 21.00000 23.00000 0.00000
v 21.00000 23.00000 1.00000
v 21.00000 24.00000 1.00000
v 21.00000 24.00000 0.00000
v 22.00000 16.00000 0.00000
v 22.00000 16.00000 1.00000
v 22.00000 17.00000 0.00000
v 22.00000 17.00000 1.00000
v 22.00000 18.00000 0.00000
v 22.00000 18.00000 1.00000
v 22.00000 19.00000 0.00000
v 22.00000 19.00000 1.00000
v 22.00000 20.00000 0.00000
v 22.00000 20.00000 1.00000
v 22.00000 21.00000 0.00000
v 22.00000 21.00000 1.00000
v 22.00000 22.00000 0.00000
v 22.00000 22.00000 1.00000
v 22.00000 23.00000 0.00000
v 22.00000 23.00000 1.00000
v 22.00000 24.00000 1.00000
v 22.00000 24.00000 0.00000
v 23.00000 16.00000 0.00000
v 23.00000 16.00000 1.00000
v 23.00000 17.00000 0.00000
v 23.00000 17.00000 1.00000
v 23.00000 18.00000 0.00000
v 23.00000 18.00000 1.00000
v 23.00000 19.00000 0.00000
v 23.00000 19.00000 1.00000
v 23.00000 20.00000 0.00000
v 23.00000 20.00000 1.00000
v 23.00000 21.00000 0.00000
v 23.00000 21.00000 1.00000
v 23.00000 22.00000 0.00000
v 23.00000 22.00000 1.00000
v 23.00000 23.00000 0.00000
v 23.00000 23.00000 1.00000
v 23.00000 24.00000 1.00000
v 23.00000 24.00000 0.00000
v 24.00000 17.00000 1.00000
v 24.00000 16.00000 1.00000
v 24.00000 16.00000 0.00000
v 24.00000 17.00000 0.00000
v 24.00000 18.00000 1.00000
v 24.00000 18.00000 0.00000
v 24.00000 19.00000 1.00000
v 24.00000 19.00000 0.00000
v 24.00000 20.00000 1.00000
v 24.00000 20.00000 0.00000
v 24.00000 21.00000 1.00000
v 24.00000 21.00000 0.00000
v 24.00000 22.00000 1.00000
v 24.00000 22.00000 0.00000
v 24.00000 23.00000 1.00000
v 24.00000 23.00000 0.00000
v 24.00000 24.00000 1.00000
v 24.00000 24.00000 0.00000

vt 0.06250 0.01563
vt 0.06250 0.00781
vt 0.06641 0.00781
vt 0.06641 0.01563
vt 0.05078 0.01563
vt 0.05078 0.00781
vt 0.05469 0.00781
vt 0.05469 0.01563
vt 0.03906 0.01563
vt 0.03906 0.00781
vt 0.04297 0.00781
vt 0.04297 0.01563
vt 0.02734 0.01563
vt 0.02734 0.00781
vt 0.03125 0.00781
vt 0.03125 0.01563
vt 0.01563 0.01563
vt 0.01563 0.00781
vt 0.01953 0.00781
vt 0.01953 0.01563
vt 0.47266 0.36719
vt 0.47266 0.35938
vt 0.47656 0.35938
vt 0.47656 0.36719
vt 0.14453 0.08594
vt 0.14453 0.07813
vt 0.14844 0.07813
vt 0.14844 0.08594
vt 0.48438 0.36719
vt 0.48438 0.35938
vt 0.48828 0.35938
vt 0.48828 0.36719
vt 0.33203 0.29688
vt 0.33203 0.28906
vt 0.33594 0.28906
vt 0.33594 0.29688
vt 0.28516 0.29688
vt 0.28516 0.28906
vt 0.28906 0.28906
vt 0.28906 0.29688
vt 0.43750 0.20313
vt 0.43750 0.19531
vt 0.44141 0.19531
vt 0.44141 0.20313

g 101_Piece10_2_0
usemtl 101_Material
f 1/1/3 2/2/3 3/3/3 4/4/3
f 3/1/6 2/2/6 5/3/6 6/4/6
f 7/1/2 5/2/2 2/3/2 1/4/2
f 4/1/1 3/2/1 6/3/1 8/4/1
f 9/5/3 1/6/3 4/7/3 10/8/3
f 11/5/2 7/6/2 1/7/2 9/8/2
f 10/5/1 4/6/1 8/7/1 12/8/1
f 13/5/3 9/6/3 10/7/3 14/8/3
f 15/5/2 11/6/2 9/7/2 13/8/2
f 14/5/1 10/6/1 12/7/1 16/8/1
f 17/9/3 13/10/3 14/11/3 18/12/3
f 19/9/2 15/10/2 13/11/2 17/12/2
f 18/9/1 14/10/1 16/11/1 20/12/1
f 21/13/3 17/14/3 18/15/3 22/16/3
f 23/13/2 19/14/2 17/15/2 21/16/2
f 22/13/1 18/14/1 20/15/1 24/16/1
f 25/17/3 21/18/3 22/19/3 26/20/3
f 27/17/2 23/18/2 21/19/2 25/20/2
f 26/17/1 22/18/1 24/19/1 28/20/1
f 29/21/3 25/22/3 26/23/3 30/24/3
f 31/21/2 27/22/2 25/23/2 29/24/2
f 30/21/1 26/22/1 28/23/1 32/24/1
f 33/25/3 29/26/3 30/27/3 34/28/3
f 33/25/5 34/26/5 35/27/5 36/28/5
f 36/25/2 31/26/2 29/27/2 33/28/2
f 34/25/1 30/26/1 32/27/1 35/28/1
f 6/1/6 5/2/6 37/3/6 38/4/6
f 39/1/2 37/2/2 5/3/2 7/4/2
f 8/1/1 6/2/1 38/3/1 40/4/1
f 41/5/2 39/6/2 7/7/2 11/8/2
f 12/5/1 8/6/1 40/7/1 42/8/1
f 43/9/2 41/10/2 11/11/2 15/12/2
f 16/9/1 12/10/1 42/11/1 44/12/1
f 45/13/2 43/14/2 15/15/2 19/16/2
f 20/13/1 16/14/1 44/15/1 46/16/1
f 47/9/2 45/10/2 19/11/2 23/12/2
f 24/9/1 20/10/1 46/11/1 48/12/1
f 49/29/2 47/30/2 23/31/2 27/32/2
f 28/29/1 24/30/1 48/31/1 50/32/1
f 51/33/2 49/34/2 27/35/2 31/36/2
f 32/33/1 28/34/1 50/35/1 52/36/1
f 36/17/5 35/18/5 53/19/5 54/20/5
f 54/17/2 51/18/2 31/19/2 36/20/2
f 35/17/1 32/18/1 52/19/1 53/20/1
f 38/1/6 37/2/6 55/3/6 56/4/6
f 57/1/2 55/2/2 37/3/2 39/4/2
f 40/1/1 38/2/1 56/3/1 58/4/1
f 59/1/2 57/2/2 39/3/2 41/4/2
f 42/1/1 40/2/1 58/3/1 60/4/1
f 61/5/2 59/6/2 41/7/2 43/8/2
f 44/5/1 42/6/1 60/7/1 62/8/1
f 63/5/2 61/6/2 43/7/2 45/8/2
f 46/5/1 44/6/1 62/7/1 64/8/1
f 65/13/2 63/14/2 45/15/2 47/16/2
f 48/13/1 46/14/1 64/15/1 66/16/1
f 67/37/2 65/38/2 47/39/2 49/40/2
f 50/37/1 48/38/1 66/39/1 68/40/1
f 69/17/2 67/18/2 49/19/2 51/20/2
f 52/17/1 50/18/1 68/19/1 70/20/1
f 54/41/5 53/42/5 71/43/5 72/44/5
f 72/41/2 69/42/2 51/43/2 54/44/2
f 53/41/1 52/42/1 70/43/1 71/44/1
f 56/1/6 55/2/6 73/3/6 74/4/6
f 75/1/2 73/2/2 55/3/2 57/4/2
f 58/1/1 56/2/1 74/3/1 76/4/1
f 77/5/2 75/6/2 57/7/2 59/8/2
f 60/5/1 58/6/1 76/7/1 78/8/1
f 79/5/2 77/6/2 59/7/2 61/8/2
f 62/5/1 60/6/1 78/7/1 80/8/1
f 81/9/2 79/10/2 61/11/2 63/12/2
f 64/9/1 62/10/1 80/11/1 82/12/1
f 83/17/2 81/18/2 63/19/2 65/20/2
f 66/17/1 64/18/1 82/19/1 84/20/1
f 85/9/2 83/10/2 65/11/2 67/12/2
f 68/9/1 66/10/1 84/11/1 86/12/1
f 87/17/2 85/18/2 67/19/2 69/20/2
f 70/17/1 68/18/1 86/19/1 88/20/1
f 72/13/5 71/14/5 89/15/5 90/16/5
f 90/13/2 87/14/2 69/15/2 72/16/2
f 71/13/1 70/14/1 88/15/1 89/16/1
f 74/1/6 73/2/6 91/3/6 92/4/6
f 93/1/2 91/2/2 73/3/2 75/4/2
f 76/1/1 74/2/1 92/3/1 94/4/1
f 95/1/2 93/2/2 75/3/2 77/4/2
f 78/1/1 76/2/1 94/3/1 96/4/1
f 97/1/2 95/2/2 77/3/2 79/4/2
f 80/1/1 78/2/1 96/3/1 98/4/1
f 99/5/2 97/6/2 79/7/2 81/8/2
f 82/5/1 80/6/1 98/7/1 100/8/1
f 101/9/2 99/10/2 81/11/2 83/12/2
f 84/9/1 82/10/1 100/11/1 102/12/1
f 103/5/2 101/6/2 83/7/2 85/8/2
f 86/5/1 84/6/1 102/7/1 104/8/1
f 105/9/2 103/10/2 85/11/2 87/12/2
f 88/9/1 86/10/1 104/11/1 106/12/1
f 90/5/5 89/6/5 107/7/5 108/8/5
f 108/5/2 105/6/2 87/7/2 90/8/2
f 89/5/1 88/6/1 106/7/1 107/8/1
f 92/1/6 91/2/6 109/3/6 110/4/6
f 111/1/2 109/2/2 91/3/2 93/4/2
f 94/1/1 92/2/1 110/3/1 112/4/1
f 113/1/2 111/2/2 93/3/2 95/4/2
f 96/1/1 94/2/1 112/3/1 114/4/1
f 115/5/2 113/6/2 95/7/2 97/8/2
f 98/5/1 96/6/1 114/7/1 116/8/1
f 117/1/2 115/2/2 97/3/2 99/4/2
f 100/1/1 98/2/1 116/3/1 118/4/1
f 119/5/2 117/6/2 99/7/2 101/8/2
f 102/5/1 100/6/1 118/7/1 120/8/1
f 121/1/2 119/2/2 101/3/2 103/4/2
f 104/1/1 102/2/1 120/3/1 122/4/1
f 123/5/2 121/6/2 103/7/2 105/8/2
f 106/5/1 104/6/1 122/7/1 124/8/1
f 108/9/5 107/10/5 125/11/5 126/12/5
f 126/9/2 123/10/2 105/11/2 108/12/2
f 107/9/1 106/10/1 124/11/1 125/12/1
f 110/1/6 109/2/6 127/3/6 128/4/6
f 129/1/2 127/2/2 109/3/2 111/4/2
f 112/1/1 110/2/1 128/3/1 130/4/1
f 131/5/2 129/6/2 111/7/2 113/8/2
f 114/5/1 112/6/1 130/7/1 132/8/1
f 133/1/2 131/2/2 113/3/2 115/4/2
f 116/1/1 114/2/1 132/3/1 134/4/1
f 135/1/2 133/2/2 115/3/2 117/4/2
f 118/1/1 116/2/1 134/3/1 136/4/1
f 137/9/2 135/10/2 117/11/2 119/12/2
f 120/9/1 118/10/1 136/11/1 138/12/1
f 139/5/2 137/6/2 119/7/2 121/8/2
f 122/5/1 120/6/1 138/7/1 140/8/1
f 141/1/2 139/2/2 121/3/2 123/4/2
f 124/1/1 122/2/1 140/3/1 142/4/1
f 126/1/5 125/2/5 143/3/5 144/4/5
f 144/1/2 141/2/2 123/3/2 126/4/2
f 125/1/1 124/2/1 142/3/1 143/4/1
f 145/1/4 146/2/4 147/3/4 148/4/4
f 128/1/6 127/2/6 147/3/6 146/4/6
f 148/1/2 147/2/2 127/3/2 129/4/2
f 130/1/1 128/2/1 146/3/1 145/4/1
f 149/1/4 145/2/4 148/3/4 150/4/4
f 150/1/2 148/2/2 129/3/2 131/4/2
f 132/1/1 130/2/1 145/3/1 149/4/1
f 151/1/4 149/2/4 150/3/4 152/4/4
f 152/1/2 150/2/2 131/3/2 133/4/2
f 134/1/1 132/2/1 149/3/1 151/4/1
f 153/1/4 151/2/4 152/3/4 154/4/4
f 154/1/2 152/2/2 133/3/2 135/4/2
f 136/1/1 134/2/1 151/3/1 153/4/1
f 155/1/4 153/2/4 154/3/4 156/4/4
f 156/1/2 154/2/2 135/3/2 137/4/2
f 138/1/1 136/2/1 153/3/1 155/4/1
f 157/1/4 155/2/4 156/3/4 158/4/4
f 158/1/2 156/2/2 137/3/2 139/4/2
f 140/1/1 138/2/1 155/3/1 157/4/1
f 159/1/4 157/2/4 158/3/4 160/4/4
f 160/1/2 158/2/2 139/3/2 141/4/2
f 142/1/1 140/2/1 157/3/1 159/4/1
f 161/1/4 159/2/4 160/3/4 162/4/4
f 144/1/5 143/2/5 161/3/5 162/4/5
f 162/1/2 160/2/2 141/3/2 144/4/2
f 143/1/1 142/2/1 159/3/1 161/4/1
