# This file was created with Minddesk Qubicle 3.0
# Get Qubicle at www.getqubicle.com

mtllib 101_Piece11_11_0.mtl

vn 0.0 0.0 1.0
vn 0.0 0.0 -1.0
vn -1.0 0.0 0.0
vn 1.0 0.0 0.0
vn 0.0 1.0 0.0
vn 0.0 -1.0 0.0

v 24.00000 89.00000 0.00000
v 24.00000 88.00000 0.00000
v 24.00000 88.00000 1.00000
v 24.00000 89.00000 1.00000
v 25.00000 88.00000 0.00000
v 25.00000 88.00000 1.00000
v 25.00000 89.00000 0.00000
v 25.00000 89.00000 1.00000
v 24.00000 90.00000 0.00000
v 24.00000 90.00000 1.00000
v 25.00000 90.00000 0.00000
v 25.00000 90.00000 1.00000
v 24.00000 91.00000 0.00000
v 24.00000 91.00000 1.00000
v 25.00000 91.00000 0.00000
v 25.00000 91.00000 1.00000
v 24.00000 92.00000 0.00000
v 24.00000 92.00000 1.00000
v 25.00000 92.00000 0.00000
v 25.00000 92.00000 1.00000
v 24.00000 93.00000 0.00000
v 24.00000 93.00000 1.00000
v 25.00000 93.00000 0.00000
v 25.00000 93.00000 1.00000
v 24.00000 94.00000 0.00000
v 24.00000 94.00000 1.00000
v 25.00000 94.00000 0.00000
v 25.00000 94.00000 1.00000
v 24.00000 95.00000 0.00000
v 24.00000 95.00000 1.00000
v 25.00000 95.00000 0.00000
v 25.00000 95.00000 1.00000
v 24.00000 96.00000 0.00000
v 24.00000 96.00000 1.00000
v 25.00000 96.00000 1.00000
v 25.00000 96.00000 0.00000
v 26.00000 88.00000 0.00000
v 26.00000 88.00000 1.00000
v 26.00000 89.00000 0.00000
v 26.00000 89.00000 1.00000
v 26.00000 90.00000 0.00000
v 26.00000 90.00000 1.00000
v 26.00000 91.00000 0.00000
v 26.00000 91.00000 1.00000
v 26.00000 92.00000 0.00000
v 26.00000 92.00000 1.00000
v 26.00000 93.00000 0.00000
v 26.00000 93.00000 1.00000
v 26.00000 94.00000 0.00000
v 26.00000 94.00000 1.00000
v 26.00000 95.00000 0.00000
v 26.00000 95.00000 1.00000
v 26.00000 96.00000 1.00000
v 26.00000 96.00000 0.00000
v 27.00000 88.00000 0.00000
v 27.00000 88.00000 1.00000
v 27.00000 89.00000 0.00000
v 27.00000 89.00000 1.00000
v 27.00000 90.00000 0.00000
v 27.00000 90.00000 1.00000
v 27.00000 91.00000 0.00000
v 27.00000 91.00000 1.00000
v 27.00000 92.00000 0.00000
v 27.00000 92.00000 1.00000
v 27.00000 93.00000 0.00000
v 27.00000 93.00000 1.00000
v 27.00000 94.00000 0.00000
v 27.00000 94.00000 1.00000
v 27.00000 95.00000 0.00000
v 27.00000 95.00000 1.00000
v 27.00000 96.00000 1.00000
v 27.00000 96.00000 0.00000
v 28.00000 88.00000 0.00000
v 28.00000 88.00000 1.00000
v 28.00000 89.00000 0.00000
v 28.00000 89.00000 1.00000
v 28.00000 90.00000 0.00000
v 28.00000 90.00000 1.00000
v 28.00000 91.00000 0.00000
v 28.00000 91.00000 1.00000
v 28.00000 92.00000 0.00000
v 28.00000 92.00000 1.00000
v 28.00000 93.00000 0.00000
v 28.00000 93.00000 1.00000
v 28.00000 94.00000 0.00000
v 28.00000 94.00000 1.00000
v 28.00000 95.00000 0.00000
v 28.00000 95.00000 1.00000
v 28.00000 96.00000 1.00000
v 28.00000 96.00000 0.00000
v 29.00000 88.00000 0.00000
v 29.00000 88.00000 1.00000
v 29.00000 89.00000 0.00000
v 29.00000 89.00000 1.00000
v 29.00000 90.00000 0.00000
v 29.00000 90.00000 1.00000
v 29.00000 91.00000 0.00000
v 29.00000 91.00000 1.00000
v 29.00000 92.00000 0.00000
v 29.00000 92.00000 1.00000
v 29.00000 93.00000 0.00000
v 29.00000 93.00000 1.00000
v 29.00000 94.00000 0.00000
v 29.00000 94.00000 1.00000
v 29.00000 95.00000 0.00000
v 29.00000 95.00000 1.00000
v 29.00000 96.00000 1.00000
v 29.00000 96.00000 0.00000
v 30.00000 88.00000 0.00000
v 30.00000 88.00000 1.00000
v 30.00000 89.00000 0.00000
v 30.00000 89.00000 1.00000
v 30.00000 90.00000 0.00000
v 30.00000 90.00000 1.00000
v 30.00000 91.00000 0.00000
v 30.00000 91.00000 1.00000
v 30.00000 92.00000 0.00000
v 30.00000 92.00000 1.00000
v 30.00000 93.00000 0.00000
v 30.00000 93.00000 1.00000
v 30.00000 94.00000 0.00000
v 30.00000 94.00000 1.00000
v 30.00000 95.00000 0.00000
v 30.00000 95.00000 1.00000
v 30.00000 96.00000 1.00000
v 30.00000 96.00000 0.00000
v 31.00000 88.00000 0.00000
v 31.00000 88.00000 1.00000
v 31.00000 89.00000 0.00000
v 31.00000 89.00000 1.00000
v 31.00000 90.00000 0.00000
v 31.00000 90.00000 1.00000
v 31.00000 91.00000 0.00000
v 31.00000 91.00000 1.00000
v 31.00000 92.00000 0.00000
v 31.00000 92.00000 1.00000
v 31.00000 93.00000 0.00000
v 31.00000 93.00000 1.00000
v 31.00000 94.00000 0.00000
v 31.00000 94.00000 1.00000
v 31.00000 95.00000 0.00000
v 31.00000 95.00000 1.00000
v 31.00000 96.00000 1.00000
v 31.00000 96.00000 0.00000
v 32.00000 89.00000 1.00000
v 32.00000 88.00000 1.00000
v 32.00000 88.00000 0.00000
v 32.00000 89.00000 0.00000
v 32.00000 90.00000 1.00000
v 32.00000 90.00000 0.00000
v 32.00000 91.00000 1.00000
v 32.00000 91.00000 0.00000
v 32.00000 92.00000 1.00000
v 32.00000 92.00000 0.00000
v 32.00000 93.00000 1.00000
v 32.00000 93.00000 0.00000
v 32.00000 94.00000 1.00000
v 32.00000 94.00000 0.00000
v 32.00000 95.00000 1.00000
v 32.00000 95.00000 0.00000
v 32.00000 96.00000 1.00000
v 32.00000 96.00000 0.00000

vt 0.47266 0.01563
vt 0.47266 0.00781
vt 0.47656 0.00781
vt 0.47656 0.01563
vt 0.48438 0.01563
vt 0.48438 0.00781
vt 0.48828 0.00781
vt 0.48828 0.01563
vt 0.49609 0.01563
vt 0.49609 0.00781
vt 0.50000 0.00781
vt 0.50000 0.01563
vt 0.33203 0.27344
vt 0.33203 0.26563
vt 0.33594 0.26563
vt 0.33594 0.27344
vt 0.01563 0.41406
vt 0.01563 0.40625
vt 0.01953 0.40625
vt 0.01953 0.41406
vt 0.02734 0.41406
vt 0.02734 0.40625
vt 0.03125 0.40625
vt 0.03125 0.41406

g 101_Piece11_11_0
usemtl 101_Material
f 1/1/3 2/2/3 3/3/3 4/4/3
f 3/1/6 2/2/6 5/3/6 6/4/6
f 7/1/2 5/2/2 2/3/2 1/4/2
f 4/1/1 3/2/1 6/3/1 8/4/1
f 9/1/3 1/2/3 4/3/3 10/4/3
f 11/1/2 7/2/2 1/3/2 9/4/2
f 10/1/1 4/2/1 8/3/1 12/4/1
f 13/5/3 9/6/3 10/7/3 14/8/3
f 15/5/2 11/6/2 9/7/2 13/8/2
f 14/5/1 10/6/1 12/7/1 16/8/1
f 17/5/3 13/6/3 14/7/3 18/8/3
f 19/5/2 15/6/2 13/7/2 17/8/2
f 18/5/1 14/6/1 16/7/1 20/8/1
f 21/5/3 17/6/3 18/7/3 22/8/3
f 23/5/2 19/6/2 17/7/2 21/8/2
f 22/5/1 18/6/1 20/7/1 24/8/1
f 25/5/3 21/6/3 22/7/3 26/8/3
f 27/5/2 23/6/2 21/7/2 25/8/2
f 26/5/1 22/6/1 24/7/1 28/8/1
f 29/5/3 25/6/3 26/7/3 30/8/3
f 31/5/2 27/6/2 25/7/2 29/8/2
f 30/5/1 26/6/1 28/7/1 32/8/1
f 33/9/3 29/10/3 30/11/3 34/12/3
f 33/9/5 34/10/5 35/11/5 36/12/5
f 36/9/2 31/10/2 29/11/2 33/12/2
f 34/9/1 30/10/1 32/11/1 35/12/1
f 6/9/6 5/10/6 37/11/6 38/12/6
f 39/9/2 37/10/2 5/11/2 7/12/2
f 8/9/1 6/10/1 38/11/1 40/12/1
f 41/9/2 39/10/2 7/11/2 11/12/2
f 12/9/1 8/10/1 40/11/1 42/12/1
f 43/5/2 41/6/2 11/7/2 15/8/2
f 16/5/1 12/6/1 42/7/1 44/8/1
f 45/5/2 43/6/2 15/7/2 19/8/2
f 20/5/1 16/6/1 44/7/1 46/8/1
f 47/13/2 45/14/2 19/15/2 23/16/2
f 24/13/1 20/14/1 46/15/1 48/16/1
f 49/13/2 47/14/2 23/15/2 27/16/2
f 28/13/1 24/14/1 48/15/1 50/16/1
f 51/5/2 49/6/2 27/7/2 31/8/2
f 32/5/1 28/6/1 50/7/1 52/8/1
f 36/5/5 35/6/5 53/7/5 54/8/5
f 54/5/2 51/6/2 31/7/2 36/8/2
f 35/5/1 32/6/1 52/7/1 53/8/1
f 38/1/6 37/2/6 55/3/6 56/4/6
f 57/1/2 55/2/2 37/3/2 39/4/2
f 40/1/1 38/2/1 56/3/1 58/4/1
f 59/1/2 57/2/2 39/3/2 41/4/2
f 42/1/1 40/2/1 58/3/1 60/4/1
f 61/5/2 59/6/2 41/7/2 43/8/2
f 44/5/1 42/6/1 60/7/1 62/8/1
f 63/13/2 61/14/2 43/15/2 45/16/2
f 46/13/1 44/14/1 62/15/1 64/16/1
f 65/13/2 63/14/2 45/15/2 47/16/2
f 48/13/1 46/14/1 64/15/1 66/16/1
f 67/17/2 65/18/2 47/19/2 49/20/2
f 50/17/1 48/18/1 66/19/1 68/20/1
f 69/17/2 67/18/2 49/19/2 51/20/2
f 52/17/1 50/18/1 68/19/1 70/20/1
f 54/5/5 53/6/5 71/7/5 72/8/5
f 72/5/2 69/6/2 51/7/2 54/8/2
f 53/5/1 52/6/1 70/7/1 71/8/1
f 56/9/6 55/10/6 73/11/6 74/12/6
f 75/9/2 73/10/2 55/11/2 57/12/2
f 58/9/1 56/10/1 74/11/1 76/12/1
f 77/1/2 75/2/2 57/3/2 59/4/2
f 60/1/1 58/2/1 76/3/1 78/4/1
f 79/5/2 77/6/2 59/7/2 61/8/2
f 62/5/1 60/6/1 78/7/1 80/8/1
f 81/13/2 79/14/2 61/15/2 63/16/2
f 64/13/1 62/14/1 80/15/1 82/16/1
f 83/17/2 81/18/2 63/19/2 65/20/2
f 66/17/1 64/18/1 82/19/1 84/20/1
f 85/13/2 83/14/2 65/15/2 67/16/2
f 68/13/1 66/14/1 84/15/1 86/16/1
f 87/13/2 85/14/2 67/15/2 69/16/2
f 70/13/1 68/14/1 86/15/1 88/16/1
f 72/5/5 71/6/5 89/7/5 90/8/5
f 90/5/2 87/6/2 69/7/2 72/8/2
f 71/5/1 70/6/1 88/7/1 89/8/1
f 74/9/6 73/10/6 91/11/6 92/12/6
f 93/9/2 91/10/2 73/11/2 75/12/2
f 76/9/1 74/10/1 92/11/1 94/12/1
f 95/9/2 93/10/2 75/11/2 77/12/2
f 78/9/1 76/10/1 94/11/1 96/12/1
f 97/9/2 95/10/2 77/11/2 79/12/2
f 80/9/1 78/10/1 96/11/1 98/12/1
f 99/21/2 97/22/2 79/23/2 81/24/2
f 82/21/1 80/22/1 98/23/1 100/24/1
f 101/13/2 99/14/2 81/15/2 83/16/2
f 84/13/1 82/14/1 100/15/1 102/16/1
f 103/21/2 101/22/2 83/23/2 85/24/2
f 86/21/1 84/22/1 102/23/1 104/24/1
f 105/13/2 103/14/2 85/15/2 87/16/2
f 88/13/1 86/14/1 104/15/1 106/16/1
f 90/5/5 89/6/5 107/7/5 108/8/5
f 108/5/2 105/6/2 87/7/2 90/8/2
f 89/5/1 88/6/1 106/7/1 107/8/1
f 92/9/6 91/10/6 109/11/6 110/12/6
f 111/9/2 109/10/2 91/11/2 93/12/2
f 94/9/1 92/10/1 110/11/1 112/12/1
f 113/9/2 111/10/2 93/11/2 95/12/2
f 96/9/1 94/10/1 112/11/1 114/12/1
f 115/5/2 113/6/2 95/7/2 97/8/2
f 98/5/1 96/6/1 114/7/1 116/8/1
f 117/13/2 115/14/2 97/15/2 99/16/2
f 100/13/1 98/14/1 116/15/1 118/16/1
f 119/13/2 117/14/2 99/15/2 101/16/2
f 102/13/1 100/14/1 118/15/1 120/16/1
f 121/13/2 119/14/2 101/15/2 103/16/2
f 104/13/1 102/14/1 120/15/1 122/16/1
f 123/13/2 121/14/2 103/15/2 105/16/2
f 106/13/1 104/14/1 122/15/1 124/16/1
f 108/5/5 107/6/5 125/7/5 126/8/5
f 126/5/2 123/6/2 105/7/2 108/8/2
f 107/5/1 106/6/1 124/7/1 125/8/1
f 110/9/6 109/10/6 127/11/6 128/12/6
f 129/9/2 127/10/2 109/11/2 111/12/2
f 112/9/1 110/10/1 128/11/1 130/12/1
f 131/9/2 129/10/2 111/11/2 113/12/2
f 114/9/1 112/10/1 130/11/1 132/12/1
f 133/5/2 131/6/2 113/7/2 115/8/2
f 116/5/1 114/6/1 132/7/1 134/8/1
f 135/5/2 133/6/2 115/7/2 117/8/2
f 118/5/1 116/6/1 134/7/1 136/8/1
f 137/13/2 135/14/2 117/15/2 119/16/2
f 120/13/1 118/14/1 136/15/1 138/16/1
f 139/13/2 137/14/2 119/15/2 121/16/2
f 122/13/1 120/14/1 138/15/1 140/16/1
f 141/5/2 139/6/2 121/7/2 123/8/2
f 124/5/1 122/6/1 140/7/1 142/8/1
f 126/5/5 125/6/5 143/7/5 144/8/5
f 144/5/2 141/6/2 123/7/2 126/8/2
f 125/5/1 124/6/1 142/7/1 143/8/1
f 145/1/4 146/2/4 147/3/4 148/4/4
f 128/1/6 127/2/6 147/3/6 146/4/6
f 148/1/2 147/2/2 127/3/2 129/4/2
f 130/1/1 128/2/1 146/3/1 145/4/1
f 149/1/4 145/2/4 148/3/4 150/4/4
f 150/1/2 148/2/2 129/3/2 131/4/2
f 132/1/1 130/2/1 145/3/1 149/4/1
f 151/9/4 149/10/4 150/11/4 152/12/4
f 152/9/2 150/10/2 131/11/2 133/12/2
f 134/9/1 132/10/1 149/11/1 151/12/1
f 153/5/4 151/6/4 152/7/4 154/8/4
f 154/5/2 152/6/2 133/7/2 135/8/2
f 136/5/1 134/6/1 151/7/1 153/8/1
f 155/5/4 153/6/4 154/7/4 156/8/4
f 156/5/2 154/6/2 135/7/2 137/8/2
f 138/5/1 136/6/1 153/7/1 155/8/1
f 157/5/4 155/6/4 156/7/4 158/8/4
f 158/5/2 156/6/2 137/7/2 139/8/2
f 140/5/1 138/6/1 155/7/1 157/8/1
f 159/5/4 157/6/4 158/7/4 160/8/4
f 160/5/2 158/6/2 139/7/2 141/8/2
f 142/5/1 140/6/1 157/7/1 159/8/1
f 161/9/4 159/10/4 160/11/4 162/12/4
f 144/9/5 143/10/5 161/11/5 162/12/5
f 162/9/2 160/10/2 141/11/2 144/12/2
f 143/9/1 142/10/1 159/11/1 161/12/1
