# This file was created with Minddesk Qubicle 3.0
# Get Qubicle at www.getqubicle.com

mtllib 101_Piece10_19_0.mtl

vn 0.0 0.0 1.0
vn 0.0 0.0 -1.0
vn -1.0 0.0 0.0
vn 1.0 0.0 0.0
vn 0.0 1.0 0.0
vn 0.0 -1.0 0.0

v 16.00000 153.00000 0.00000
v 16.00000 152.00000 0.00000
v 16.00000 152.00000 1.00000
v 16.00000 153.00000 1.00000
v 17.00000 152.00000 0.00000
v 17.00000 152.00000 1.00000
v 17.00000 153.00000 0.00000
v 17.00000 153.00000 1.00000
v 16.00000 154.00000 0.00000
v 16.00000 154.00000 1.00000
v 17.00000 154.00000 0.00000
v 17.00000 154.00000 1.00000
v 16.00000 155.00000 0.00000
v 16.00000 155.00000 1.00000
v 17.00000 155.00000 0.00000
v 17.00000 155.00000 1.00000
v 16.00000 156.00000 0.00000
v 16.00000 156.00000 1.00000
v 17.00000 156.00000 0.00000
v 17.00000 156.00000 1.00000
v 16.00000 157.00000 0.00000
v 16.00000 157.00000 1.00000
v 17.00000 157.00000 0.00000
v 17.00000 157.00000 1.00000
v 16.00000 158.00000 0.00000
v 16.00000 158.00000 1.00000
v 17.00000 158.00000 0.00000
v 17.00000 158.00000 1.00000
v 16.00000 159.00000 0.00000
v 16.00000 159.00000 1.00000
v 17.00000 159.00000 0.00000
v 17.00000 159.00000 1.00000
v 16.00000 160.00000 0.00000
v 16.00000 160.00000 1.00000
v 17.00000 160.00000 1.00000
v 17.00000 160.00000 0.00000
v 18.00000 152.00000 0.00000
v 18.00000 152.00000 1.00000
v 18.00000 153.00000 0.00000
v 18.00000 153.00000 1.00000
v 18.00000 154.00000 0.00000
v 18.00000 154.00000 1.00000
v 18.00000 155.00000 0.00000
v 18.00000 155.00000 1.00000
v 18.00000 156.00000 0.00000
v 18.00000 156.00000 1.00000
v 18.00000 157.00000 0.00000
v 18.00000 157.00000 1.00000
v 18.00000 158.00000 0.00000
v 18.00000 158.00000 1.00000
v 18.00000 159.00000 0.00000
v 18.00000 159.00000 1.00000
v 18.00000 160.00000 1.00000
v 18.00000 160.00000 0.00000
v 19.00000 152.00000 0.00000
v 19.00000 152.00000 1.00000
v 19.00000 153.00000 0.00000
v 19.00000 153.00000 1.00000
v 19.00000 154.00000 0.00000
v 19.00000 154.00000 1.00000
v 19.00000 155.00000 0.00000
v 19.00000 155.00000 1.00000
v 19.00000 156.00000 0.00000
v 19.00000 156.00000 1.00000
v 19.00000 157.00000 0.00000
v 19.00000 157.00000 1.00000
v 19.00000 158.00000 0.00000
v 19.00000 158.00000 1.00000
v 19.00000 159.00000 0.00000
v 19.00000 159.00000 1.00000
v 19.00000 160.00000 1.00000
v 19.00000 160.00000 0.00000
v 20.00000 152.00000 0.00000
v 20.00000 152.00000 1.00000
v 20.00000 153.00000 0.00000
v 20.00000 153.00000 1.00000
v 20.00000 154.00000 0.00000
v 20.00000 154.00000 1.00000
v 20.00000 155.00000 0.00000
v 20.00000 155.00000 1.00000
v 20.00000 156.00000 0.00000
v 20.00000 156.00000 1.00000
v 20.00000 157.00000 0.00000
v 20.00000 157.00000 1.00000
v 20.00000 158.00000 0.00000
v 20.00000 158.00000 1.00000
v 20.00000 159.00000 0.00000
v 20.00000 159.00000 1.00000
v 20.00000 160.00000 1.00000
v 20.00000 160.00000 0.00000
v 21.00000 152.00000 0.00000
v 21.00000 152.00000 1.00000
v 21.00000 153.00000 0.00000
v 21.00000 153.00000 1.00000
v 21.00000 154.00000 0.00000
v 21.00000 154.00000 1.00000
v 21.00000 155.00000 0.00000
v 21.00000 155.00000 1.00000
v 21.00000 156.00000 0.00000
v 21.00000 156.00000 1.00000
v 21.00000 157.00000 0.00000
v 21.00000 157.00000 1.00000
v 21.00000 158.00000 0.00000
v 21.00000 158.00000 1.00000
v 21.00000 159.00000 0.00000
v 21.00000 159.00000 1.00000
v 21.00000 160.00000 1.00000
v 21.00000 160.00000 0.00000
v 22.00000 152.00000 0.00000
v 22.00000 152.00000 1.00000
v 22.00000 153.00000 0.00000
v 22.00000 153.00000 1.00000
v 22.00000 154.00000 0.00000
v 22.00000 154.00000 1.00000
v 22.00000 155.00000 0.00000
v 22.00000 155.00000 1.00000
v 22.00000 156.00000 0.00000
v 22.00000 156.00000 1.00000
v 22.00000 157.00000 0.00000
v 22.00000 157.00000 1.00000
v 22.00000 158.00000 0.00000
v 22.00000 158.00000 1.00000
v 22.00000 159.00000 0.00000
v 22.00000 159.00000 1.00000
v 22.00000 160.00000 1.00000
v 22.00000 160.00000 0.00000
v 23.00000 152.00000 0.00000
v 23.00000 152.00000 1.00000
v 23.00000 153.00000 0.00000
v 23.00000 153.00000 1.00000
v 23.00000 154.00000 0.00000
v 23.00000 154.00000 1.00000
v 23.00000 155.00000 0.00000
v 23.00000 155.00000 1.00000
v 23.00000 156.00000 0.00000
v 23.00000 156.00000 1.00000
v 23.00000 157.00000 0.00000
v 23.00000 157.00000 1.00000
v 23.00000 158.00000 0.00000
v 23.00000 158.00000 1.00000
v 23.00000 159.00000 0.00000
v 23.00000 159.00000 1.00000
v 23.00000 160.00000 1.00000
v 23.00000 160.00000 0.00000
v 24.00000 153.00000 1.00000
v 24.00000 152.00000 1.00000
v 24.00000 152.00000 0.00000
v 24.00000 153.00000 0.00000
v 24.00000 154.00000 1.00000
v 24.00000 154.00000 0.00000
v 24.00000 155.00000 1.00000
v 24.00000 155.00000 0.00000
v 24.00000 156.00000 1.00000
v 24.00000 156.00000 0.00000
v 24.00000 157.00000 1.00000
v 24.00000 157.00000 0.00000
v 24.00000 158.00000 1.00000
v 24.00000 158.00000 0.00000
v 24.00000 159.00000 1.00000
v 24.00000 159.00000 0.00000
v 24.00000 160.00000 1.00000
v 24.00000 160.00000 0.00000

vt 0.14453 0.39063
vt 0.14453 0.38281
vt 0.14844 0.38281
vt 0.14844 0.39063
vt 0.15625 0.39063
vt 0.15625 0.38281
vt 0.16016 0.38281
vt 0.16016 0.39063
vt 0.16797 0.39063
vt 0.16797 0.38281
vt 0.17188 0.38281
vt 0.17188 0.39063
vt 0.17969 0.39063
vt 0.17969 0.38281
vt 0.18359 0.38281
vt 0.18359 0.39063
vt 0.19141 0.39063
vt 0.19141 0.38281
vt 0.19531 0.38281
vt 0.19531 0.39063
vt 0.20313 0.39063
vt 0.20313 0.38281
vt 0.20703 0.38281
vt 0.20703 0.39063

g 101_Piece10_19_0
usemtl 101_Material
f 1/1/3 2/2/3 3/3/3 4/4/3
f 3/1/6 2/2/6 5/3/6 6/4/6
f 7/1/2 5/2/2 2/3/2 1/4/2
f 4/1/1 3/2/1 6/3/1 8/4/1
f 9/1/3 1/2/3 4/3/3 10/4/3
f 11/1/2 7/2/2 1/3/2 9/4/2
f 10/1/1 4/2/1 8/3/1 12/4/1
f 13/5/3 9/6/3 10/7/3 14/8/3
f 15/5/2 11/6/2 9/7/2 13/8/2
f 14/5/1 10/6/1 12/7/1 16/8/1
f 17/5/3 13/6/3 14/7/3 18/8/3
f 19/5/2 15/6/2 13/7/2 17/8/2
f 18/5/1 14/6/1 16/7/1 20/8/1
f 21/9/3 17/10/3 18/11/3 22/12/3
f 23/9/2 19/10/2 17/11/2 21/12/2
f 22/9/1 18/10/1 20/11/1 24/12/1
f 25/13/3 21/14/3 22/15/3 26/16/3
f 27/13/2 23/14/2 21/15/2 25/16/2
f 26/13/1 22/14/1 24/15/1 28/16/1
f 29/9/3 25/10/3 26/11/3 30/12/3
f 31/9/2 27/10/2 25/11/2 29/12/2
f 30/9/1 26/10/1 28/11/1 32/12/1
f 33/13/3 29/14/3 30/15/3 34/16/3
f 33/13/5 34/14/5 35/15/5 36/16/5
f 36/13/2 31/14/2 29/15/2 33/16/2
f 34/13/1 30/14/1 32/15/1 35/16/1
f 6/17/6 5/18/6 37/19/6 38/20/6
f 39/17/2 37/18/2 5/19/2 7/20/2
f 8/17/1 6/18/1 38/19/1 40/20/1
f 41/13/2 39/14/2 7/15/2 11/16/2
f 12/13/1 8/14/1 40/15/1 42/16/1
f 43/9/2 41/10/2 11/11/2 15/12/2
f 16/9/1 12/10/1 42/11/1 44/12/1
f 45/9/2 43/10/2 15/11/2 19/12/2
f 20/9/1 16/10/1 44/11/1 46/12/1
f 47/9/2 45/10/2 19/11/2 23/12/2
f 24/9/1 20/10/1 46/11/1 48/12/1
f 49/5/2 47/6/2 23/7/2 27/8/2
f 28/5/1 24/6/1 48/7/1 50/8/1
f 51/5/2 49/6/2 27/7/2 31/8/2
f 32/5/1 28/6/1 50/7/1 52/8/1
f 36/1/5 35/2/5 53/3/5 54/4/5
f 54/1/2 51/2/2 31/3/2 36/4/2
f 35/1/1 32/2/1 52/3/1 53/4/1
f 38/5/6 37/6/6 55/7/6 56/8/6
f 57/5/2 55/6/2 37/7/2 39/8/2
f 40/5/1 38/6/1 56/7/1 58/8/1
f 59/9/2 57/10/2 39/11/2 41/12/2
f 42/9/1 40/10/1 58/11/1 60/12/1
f 61/13/2 59/14/2 41/15/2 43/16/2
f 44/13/1 42/14/1 60/15/1 62/16/1
f 63/9/2 61/10/2 43/11/2 45/12/2
f 46/9/1 44/10/1 62/11/1 64/12/1
f 65/13/2 63/14/2 45/15/2 47/16/2
f 48/13/1 46/14/1 64/15/1 66/16/1
f 67/9/2 65/10/2 47/11/2 49/12/2
f 50/9/1 48/10/1 66/11/1 68/12/1
f 69/5/2 67/6/2 49/7/2 51/8/2
f 52/5/1 50/6/1 68/7/1 70/8/1
f 54/9/5 53/10/5 71/11/5 72/12/5
f 72/9/2 69/10/2 51/11/2 54/12/2
f 53/9/1 52/10/1 70/11/1 71/12/1
f 56/1/6 55/2/6 73/3/6 74/4/6
f 75/1/2 73/2/2 55/3/2 57/4/2
f 58/1/1 56/2/1 74/3/1 76/4/1
f 77/17/2 75/18/2 57/19/2 59/20/2
f 60/17/1 58/18/1 76/19/1 78/20/1
f 79/9/2 77/10/2 59/11/2 61/12/2
f 62/9/1 60/10/1 78/11/1 80/12/1
f 81/13/2 79/14/2 61/15/2 63/16/2
f 64/13/1 62/14/1 80/15/1 82/16/1
f 83/17/2 81/18/2 63/19/2 65/20/2
f 66/17/1 64/18/1 82/19/1 84/20/1
f 85/9/2 83/10/2 65/11/2 67/12/2
f 68/9/1 66/10/1 84/11/1 86/12/1
f 87/9/2 85/10/2 67/11/2 69/12/2
f 70/9/1 68/10/1 86/11/1 88/12/1
f 72/13/5 71/14/5 89/15/5 90/16/5
f 90/13/2 87/14/2 69/15/2 72/16/2
f 71/13/1 70/14/1 88/15/1 89/16/1
f 74/9/6 73/10/6 91/11/6 92/12/6
f 93/9/2 91/10/2 73/11/2 75/12/2
f 76/9/1 74/10/1 92/11/1 94/12/1
f 95/13/2 93/14/2 75/15/2 77/16/2
f 78/13/1 76/14/1 94/15/1 96/16/1
f 97/13/2 95/14/2 77/15/2 79/16/2
f 80/13/1 78/14/1 96/15/1 98/16/1
f 99/17/2 97/18/2 79/19/2 81/20/2
f 82/17/1 80/18/1 98/19/1 100/20/1
f 101/13/2 99/14/2 81/15/2 83/16/2
f 84/13/1 82/14/1 100/15/1 102/16/1
f 103/17/2 101/18/2 83/19/2 85/20/2
f 86/17/1 84/18/1 102/19/1 104/20/1
f 105/5/2 103/6/2 85/7/2 87/8/2
f 88/5/1 86/6/1 104/7/1 106/8/1
f 90/9/5 89/10/5 107/11/5 108/12/5
f 108/9/2 105/10/2 87/11/2 90/12/2
f 89/9/1 88/10/1 106/11/1 107/12/1
f 92/5/6 91/6/6 109/7/6 110/8/6
f 111/5/2 109/6/2 91/7/2 93/8/2
f 94/5/1 92/6/1 110/7/1 112/8/1
f 113/1/2 111/2/2 93/3/2 95/4/2
f 96/1/1 94/2/1 112/3/1 114/4/1
f 115/5/2 113/6/2 95/7/2 97/8/2
f 98/5/1 96/6/1 114/7/1 116/8/1
f 117/1/2 115/2/2 97/3/2 99/4/2
f 100/1/1 98/2/1 116/3/1 118/4/1
f 119/13/2 117/14/2 99/15/2 101/16/2
f 102/13/1 100/14/1 118/15/1 120/16/1
f 121/9/2 119/10/2 101/11/2 103/12/2
f 104/9/1 102/10/1 120/11/1 122/12/1
f 123/13/2 121/14/2 103/15/2 105/16/2
f 106/13/1 104/14/1 122/15/1 124/16/1
f 108/9/5 107/10/5 125/11/5 126/12/5
f 126/9/2 123/10/2 105/11/2 108/12/2
f 107/9/1 106/10/1 124/11/1 125/12/1
f 110/17/6 109/18/6 127/19/6 128/20/6
f 129/17/2 127/18/2 109/19/2 111/20/2
f 112/17/1 110/18/1 128/19/1 130/20/1
f 131/17/2 129/18/2 111/19/2 113/20/2
f 114/17/1 112/18/1 130/19/1 132/20/1
f 133/5/2 131/6/2 113/7/2 115/8/2
f 116/5/1 114/6/1 132/7/1 134/8/1
f 135/9/2 133/10/2 115/11/2 117/12/2
f 118/9/1 116/10/1 134/11/1 136/12/1
f 137/1/2 135/2/2 117/3/2 119/4/2
f 120/1/1 118/2/1 136/3/1 138/4/1
f 139/21/2 137/22/2 119/23/2 121/24/2
f 122/21/1 120/22/1 138/23/1 140/24/1
f 141/5/2 139/6/2 121/7/2 123/8/2
f 124/5/1 122/6/1 140/7/1 142/8/1
f 126/21/5 125/22/5 143/23/5 144/24/5
f 144/21/2 141/22/2 123/23/2 126/24/2
f 125/21/1 124/22/1 142/23/1 143/24/1
f 145/17/4 146/18/4 147/19/4 148/20/4
f 128/17/6 127/18/6 147/19/6 146/20/6
f 148/17/2 147/18/2 127/19/2 129/20/2
f 130/17/1 128/18/1 146/19/1 145/20/1
f 149/5/4 145/6/4 148/7/4 150/8/4
f 150/5/2 148/6/2 129/7/2 131/8/2
f 132/5/1 130/6/1 145/7/1 149/8/1
f 151/17/4 149/18/4 150/19/4 152/20/4
f 152/17/2 150/18/2 131/19/2 133/20/2
f 134/17/1 132/18/1 149/19/1 151/20/1
f 153/13/4 151/14/4 152/15/4 154/16/4
f 154/13/2 152/14/2 133/15/2 135/16/2
f 136/13/1 134/14/1 151/15/1 153/16/1
f 155/17/4 153/18/4 154/19/4 156/20/4
f 156/17/2 154/18/2 135/19/2 137/20/2
f 138/17/1 136/18/1 153/19/1 155/20/1
f 157/13/4 155/14/4 156/15/4 158/16/4
f 158/13/2 156/14/2 137/15/2 139/16/2
f 140/13/1 138/14/1 155/15/1 157/16/1
f 159/9/4 157/10/4 158/11/4 160/12/4
f 160/9/2 158/10/2 139/11/2 141/12/2
f 142/9/1 140/10/1 157/11/1 159/12/1
f 161/13/4 159/14/4 160/15/4 162/16/4
f 144/13/5 143/14/5 161/15/5 162/16/5
f 162/13/2 160/14/2 141/15/2 144/16/2
f 143/13/1 142/14/1 159/15/1 161/16/1
