# This file was created with Minddesk Qubicle 3.0
# Get Qubicle at www.getqubicle.com

mtllib 101_Piece15_14_0.mtl

vn 0.0 0.0 1.0
vn 0.0 0.0 -1.0
vn -1.0 0.0 0.0
vn 1.0 0.0 0.0
vn 0.0 1.0 0.0
vn 0.0 -1.0 0.0

v 56.00000 113.00000 0.00000
v 56.00000 112.00000 0.00000
v 56.00000 112.00000 1.00000
v 56.00000 113.00000 1.00000
v 57.00000 112.00000 0.00000
v 57.00000 112.00000 1.00000
v 57.00000 113.00000 0.00000
v 57.00000 113.00000 1.00000
v 56.00000 114.00000 0.00000
v 56.00000 114.00000 1.00000
v 57.00000 114.00000 0.00000
v 57.00000 114.00000 1.00000
v 56.00000 115.00000 0.00000
v 56.00000 115.00000 1.00000
v 57.00000 115.00000 0.00000
v 57.00000 115.00000 1.00000
v 56.00000 116.00000 0.00000
v 56.00000 116.00000 1.00000
v 57.00000 116.00000 0.00000
v 57.00000 116.00000 1.00000
v 56.00000 117.00000 0.00000
v 56.00000 117.00000 1.00000
v 57.00000 117.00000 0.00000
v 57.00000 117.00000 1.00000
v 56.00000 118.00000 0.00000
v 56.00000 118.00000 1.00000
v 57.00000 118.00000 0.00000
v 57.00000 118.00000 1.00000
v 56.00000 119.00000 0.00000
v 56.00000 119.00000 1.00000
v 57.00000 119.00000 0.00000
v 57.00000 119.00000 1.00000
v 56.00000 120.00000 0.00000
v 56.00000 120.00000 1.00000
v 57.00000 120.00000 1.00000
v 57.00000 120.00000 0.00000
v 58.00000 112.00000 0.00000
v 58.00000 112.00000 1.00000
v 58.00000 113.00000 0.00000
v 58.00000 113.00000 1.00000
v 58.00000 114.00000 0.00000
v 58.00000 114.00000 1.00000
v 58.00000 115.00000 0.00000
v 58.00000 115.00000 1.00000
v 58.00000 116.00000 0.00000
v 58.00000 116.00000 1.00000
v 58.00000 117.00000 0.00000
v 58.00000 117.00000 1.00000
v 58.00000 118.00000 0.00000
v 58.00000 118.00000 1.00000
v 58.00000 119.00000 0.00000
v 58.00000 119.00000 1.00000
v 58.00000 120.00000 1.00000
v 58.00000 120.00000 0.00000
v 59.00000 112.00000 0.00000
v 59.00000 112.00000 1.00000
v 59.00000 113.00000 0.00000
v 59.00000 113.00000 1.00000
v 59.00000 114.00000 0.00000
v 59.00000 114.00000 1.00000
v 59.00000 115.00000 0.00000
v 59.00000 115.00000 1.00000
v 59.00000 116.00000 0.00000
v 59.00000 116.00000 1.00000
v 59.00000 117.00000 0.00000
v 59.00000 117.00000 1.00000
v 59.00000 118.00000 0.00000
v 59.00000 118.00000 1.00000
v 59.00000 119.00000 0.00000
v 59.00000 119.00000 1.00000
v 59.00000 120.00000 1.00000
v 59.00000 120.00000 0.00000
v 60.00000 112.00000 0.00000
v 60.00000 112.00000 1.00000
v 60.00000 113.00000 0.00000
v 60.00000 113.00000 1.00000
v 60.00000 114.00000 0.00000
v 60.00000 114.00000 1.00000
v 60.00000 115.00000 0.00000
v 60.00000 115.00000 1.00000
v 60.00000 116.00000 0.00000
v 60.00000 116.00000 1.00000
v 60.00000 117.00000 0.00000
v 60.00000 117.00000 1.00000
v 60.00000 118.00000 0.00000
v 60.00000 118.00000 1.00000
v 60.00000 119.00000 0.00000
v 60.00000 119.00000 1.00000
v 60.00000 120.00000 1.00000
v 60.00000 120.00000 0.00000
v 61.00000 112.00000 0.00000
v 61.00000 112.00000 1.00000
v 61.00000 113.00000 0.00000
v 61.00000 113.00000 1.00000
v 61.00000 114.00000 0.00000
v 61.00000 114.00000 1.00000
v 61.00000 115.00000 0.00000
v 61.00000 115.00000 1.00000
v 61.00000 116.00000 0.00000
v 61.00000 116.00000 1.00000
v 61.00000 117.00000 0.00000
v 61.00000 117.00000 1.00000
v 61.00000 118.00000 0.00000
v 61.00000 118.00000 1.00000
v 61.00000 119.00000 0.00000
v 61.00000 119.00000 1.00000
v 61.00000 120.00000 1.00000
v 61.00000 120.00000 0.00000
v 62.00000 112.00000 0.00000
v 62.00000 112.00000 1.00000
v 62.00000 113.00000 0.00000
v 62.00000 113.00000 1.00000
v 62.00000 114.00000 0.00000
v 62.00000 114.00000 1.00000
v 62.00000 115.00000 0.00000
v 62.00000 115.00000 1.00000
v 62.00000 116.00000 0.00000
v 62.00000 116.00000 1.00000
v 62.00000 117.00000 0.00000
v 62.00000 117.00000 1.00000
v 62.00000 118.00000 0.00000
v 62.00000 118.00000 1.00000
v 62.00000 119.00000 0.00000
v 62.00000 119.00000 1.00000
v 62.00000 120.00000 1.00000
v 62.00000 120.00000 0.00000
v 63.00000 112.00000 0.00000
v 63.00000 112.00000 1.00000
v 63.00000 113.00000 0.00000
v 63.00000 113.00000 1.00000
v 63.00000 114.00000 0.00000
v 63.00000 114.00000 1.00000
v 63.00000 115.00000 0.00000
v 63.00000 115.00000 1.00000
v 63.00000 116.00000 0.00000
v 63.00000 116.00000 1.00000
v 63.00000 117.00000 0.00000
v 63.00000 117.00000 1.00000
v 63.00000 118.00000 0.00000
v 63.00000 118.00000 1.00000
v 63.00000 119.00000 0.00000
v 63.00000 119.00000 1.00000
v 63.00000 120.00000 1.00000
v 63.00000 120.00000 0.00000
v 64.00000 113.00000 1.00000
v 64.00000 112.00000 1.00000
v 64.00000 112.00000 0.00000
v 64.00000 113.00000 0.00000
v 64.00000 114.00000 1.00000
v 64.00000 114.00000 0.00000
v 64.00000 115.00000 1.00000
v 64.00000 115.00000 0.00000
v 64.00000 116.00000 1.00000
v 64.00000 116.00000 0.00000
v 64.00000 117.00000 1.00000
v 64.00000 117.00000 0.00000
v 64.00000 118.00000 1.00000
v 64.00000 118.00000 0.00000
v 64.00000 119.00000 1.00000
v 64.00000 119.00000 0.00000
v 64.00000 120.00000 1.00000
v 64.00000 120.00000 0.00000

vt 0.40234 0.10938
vt 0.40234 0.10156
vt 0.40625 0.10156
vt 0.40625 0.10938
vt 0.37891 0.10938
vt 0.37891 0.10156
vt 0.38281 0.10156
vt 0.38281 0.10938
vt 0.39063 0.10938
vt 0.39063 0.10156
vt 0.39453 0.10156
vt 0.39453 0.10938

g 101_Piece15_14_0
usemtl 101_Material
f 1/1/3 2/2/3 3/3/3 4/4/3
f 3/1/6 2/2/6 5/3/6 6/4/6
f 7/1/2 5/2/2 2/3/2 1/4/2
f 4/1/1 3/2/1 6/3/1 8/4/1
f 9/5/3 1/6/3 4/7/3 10/8/3
f 11/5/2 7/6/2 1/7/2 9/8/2
f 10/5/1 4/6/1 8/7/1 12/8/1
f 13/5/3 9/6/3 10/7/3 14/8/3
f 15/5/2 11/6/2 9/7/2 13/8/2
f 14/5/1 10/6/1 12/7/1 16/8/1
f 17/5/3 13/6/3 14/7/3 18/8/3
f 19/5/2 15/6/2 13/7/2 17/8/2
f 18/5/1 14/6/1 16/7/1 20/8/1
f 21/5/3 17/6/3 18/7/3 22/8/3
f 23/5/2 19/6/2 17/7/2 21/8/2
f 22/5/1 18/6/1 20/7/1 24/8/1
f 25/5/3 21/6/3 22/7/3 26/8/3
f 27/5/2 23/6/2 21/7/2 25/8/2
f 26/5/1 22/6/1 24/7/1 28/8/1
f 29/5/3 25/6/3 26/7/3 30/8/3
f 31/5/2 27/6/2 25/7/2 29/8/2
f 30/5/1 26/6/1 28/7/1 32/8/1
f 33/5/3 29/6/3 30/7/3 34/8/3
f 33/5/5 34/6/5 35/7/5 36/8/5
f 36/5/2 31/6/2 29/7/2 33/8/2
f 34/5/1 30/6/1 32/7/1 35/8/1
f 6/1/6 5/2/6 37/3/6 38/4/6
f 39/1/2 37/2/2 5/3/2 7/4/2
f 8/1/1 6/2/1 38/3/1 40/4/1
f 41/5/2 39/6/2 7/7/2 11/8/2
f 12/5/1 8/6/1 40/7/1 42/8/1
f 43/9/2 41/10/2 11/11/2 15/12/2
f 16/9/1 12/10/1 42/11/1 44/12/1
f 45/5/2 43/6/2 15/7/2 19/8/2
f 20/5/1 16/6/1 44/7/1 46/8/1
f 47/9/2 45/10/2 19/11/2 23/12/2
f 24/9/1 20/10/1 46/11/1 48/12/1
f 49/5/2 47/6/2 23/7/2 27/8/2
f 28/5/1 24/6/1 48/7/1 50/8/1
f 51/9/2 49/10/2 27/11/2 31/12/2
f 32/9/1 28/10/1 50/11/1 52/12/1
f 36/5/5 35/6/5 53/7/5 54/8/5
f 54/5/2 51/6/2 31/7/2 36/8/2
f 35/5/1 32/6/1 52/7/1 53/8/1
f 38/1/6 37/2/6 55/3/6 56/4/6
f 57/1/2 55/2/2 37/3/2 39/4/2
f 40/1/1 38/2/1 56/3/1 58/4/1
f 59/5/2 57/6/2 39/7/2 41/8/2
f 42/5/1 40/6/1 58/7/1 60/8/1
f 61/9/2 59/10/2 41/11/2 43/12/2
f 44/9/1 42/10/1 60/11/1 62/12/1
f 63/5/2 61/6/2 43/7/2 45/8/2
f 46/5/1 44/6/1 62/7/1 64/8/1
f 65/9/2 63/10/2 45/11/2 47/12/2
f 48/9/1 46/10/1 64/11/1 66/12/1
f 67/5/2 65/6/2 47/7/2 49/8/2
f 50/5/1 48/6/1 66/7/1 68/8/1
f 69/9/2 67/10/2 49/11/2 51/12/2
f 52/9/1 50/10/1 68/11/1 70/12/1
f 54/5/5 53/6/5 71/7/5 72/8/5
f 72/5/2 69/6/2 51/7/2 54/8/2
f 53/5/1 52/6/1 70/7/1 71/8/1
f 56/1/6 55/2/6 73/3/6 74/4/6
f 75/1/2 73/2/2 55/3/2 57/4/2
f 58/1/1 56/2/1 74/3/1 76/4/1
f 77/5/2 75/6/2 57/7/2 59/8/2
f 60/5/1 58/6/1 76/7/1 78/8/1
f 79/9/2 77/10/2 59/11/2 61/12/2
f 62/9/1 60/10/1 78/11/1 80/12/1
f 81/5/2 79/6/2 61/7/2 63/8/2
f 64/5/1 62/6/1 80/7/1 82/8/1
f 83/9/2 81/10/2 63/11/2 65/12/2
f 66/9/1 64/10/1 82/11/1 84/12/1
f 85/5/2 83/6/2 65/7/2 67/8/2
f 68/5/1 66/6/1 84/7/1 86/8/1
f 87/9/2 85/10/2 67/11/2 69/12/2
f 70/9/1 68/10/1 86/11/1 88/12/1
f 72/5/5 71/6/5 89/7/5 90/8/5
f 90/5/2 87/6/2 69/7/2 72/8/2
f 71/5/1 70/6/1 88/7/1 89/8/1
f 74/1/6 73/2/6 91/3/6 92/4/6
f 93/1/2 91/2/2 73/3/2 75/4/2
f 76/1/1 74/2/1 92/3/1 94/4/1
f 95/5/2 93/6/2 75/7/2 77/8/2
f 78/5/1 76/6/1 94/7/1 96/8/1
f 97/9/2 95/10/2 77/11/2 79/12/2
f 80/9/1 78/10/1 96/11/1 98/12/1
f 99/5/2 97/6/2 79/7/2 81/8/2
f 82/5/1 80/6/1 98/7/1 100/8/1
f 101/9/2 99/10/2 81/11/2 83/12/2
f 84/9/1 82/10/1 100/11/1 102/12/1
f 103/5/2 101/6/2 83/7/2 85/8/2
f 86/5/1 84/6/1 102/7/1 104/8/1
f 105/9/2 103/10/2 85/11/2 87/12/2
f 88/9/1 86/10/1 104/11/1 106/12/1
f 90/5/5 89/6/5 107/7/5 108/8/5
f 108/5/2 105/6/2 87/7/2 90/8/2
f 89/5/1 88/6/1 106/7/1 107/8/1
f 92/1/6 91/2/6 109/3/6 110/4/6
f 111/1/2 109/2/2 91/3/2 93/4/2
f 94/1/1 92/2/1 110/3/1 112/4/1
f 113/5/2 111/6/2 93/7/2 95/8/2
f 96/5/1 94/6/1 112/7/1 114/8/1
f 115/9/2 113/10/2 95/11/2 97/12/2
f 98/9/1 96/10/1 114/11/1 116/12/1
f 117/5/2 115/6/2 97/7/2 99/8/2
f 100/5/1 98/6/1 116/7/1 118/8/1
f 119/9/2 117/10/2 99/11/2 101/12/2
f 102/9/1 100/10/1 118/11/1 120/12/1
f 121/5/2 119/6/2 101/7/2 103/8/2
f 104/5/1 102/6/1 120/7/1 122/8/1
f 123/9/2 121/10/2 103/11/2 105/12/2
f 106/9/1 104/10/1 122/11/1 124/12/1
f 108/5/5 107/6/5 125/7/5 126/8/5
f 126/5/2 123/6/2 105/7/2 108/8/2
f 107/5/1 106/6/1 124/7/1 125/8/1
f 110/1/6 109/2/6 127/3/6 128/4/6
f 129/1/2 127/2/2 109/3/2 111/4/2
f 112/1/1 110/2/1 128/3/1 130/4/1
f 131/5/2 129/6/2 111/7/2 113/8/2
f 114/5/1 112/6/1 130/7/1 132/8/1
f 133/9/2 131/10/2 113/11/2 115/12/2
f 116/9/1 114/10/1 132/11/1 134/12/1
f 135/5/2 133/6/2 115/7/2 117/8/2
f 118/5/1 116/6/1 134/7/1 136/8/1
f 137/9/2 135/10/2 117/11/2 119/12/2
f 120/9/1 118/10/1 136/11/1 138/12/1
f 139/5/2 137/6/2 119/7/2 121/8/2
f 122/5/1 120/6/1 138/7/1 140/8/1
f 141/9/2 139/10/2 121/11/2 123/12/2
f 124/9/1 122/10/1 140/11/1 142/12/1
f 126/5/5 125/6/5 143/7/5 144/8/5
f 144/5/2 141/6/2 123/7/2 126/8/2
f 125/5/1 124/6/1 142/7/1 143/8/1
f 145/1/4 146/2/4 147/3/4 148/4/4
f 128/1/6 127/2/6 147/3/6 146/4/6
f 148/1/2 147/2/2 127/3/2 129/4/2
f 130/1/1 128/2/1 146/3/1 145/4/1
f 149/5/4 145/6/4 148/7/4 150/8/4
f 150/5/2 148/6/2 129/7/2 131/8/2
f 132/5/1 130/6/1 145/7/1 149/8/1
f 151/5/4 149/6/4 150/7/4 152/8/4
f 152/5/2 150/6/2 131/7/2 133/8/2
f 134/5/1 132/6/1 149/7/1 151/8/1
f 153/5/4 151/6/4 152/7/4 154/8/4
f 154/5/2 152/6/2 133/7/2 135/8/2
f 136/5/1 134/6/1 151/7/1 153/8/1
f 155/5/4 153/6/4 154/7/4 156/8/4
f 156/5/2 154/6/2 135/7/2 137/8/2
f 138/5/1 136/6/1 153/7/1 155/8/1
f 157/5/4 155/6/4 156/7/4 158/8/4
f 158/5/2 156/6/2 137/7/2 139/8/2
f 140/5/1 138/6/1 155/7/1 157/8/1
f 159/5/4 157/6/4 158/7/4 160/8/4
f 160/5/2 158/6/2 139/7/2 141/8/2
f 142/5/1 140/6/1 157/7/1 159/8/1
f 161/5/4 159/6/4 160/7/4 162/8/4
f 144/5/5 143/6/5 161/7/5 162/8/5
f 162/5/2 160/6/2 141/7/2 144/8/2
f 143/5/1 142/6/1 159/7/1 161/8/1
