# This file was created with Minddesk Qubicle 3.0
# Get Qubicle at www.getqubicle.com

mtllib 101_Piece9_11_0.mtl

vn 0.0 0.0 1.0
vn 0.0 0.0 -1.0
vn -1.0 0.0 0.0
vn 1.0 0.0 0.0
vn 0.0 1.0 0.0
vn 0.0 -1.0 0.0

v 8.00000 89.00000 0.00000
v 8.00000 88.00000 0.00000
v 8.00000 88.00000 1.00000
v 8.00000 89.00000 1.00000
v 9.00000 88.00000 0.00000
v 9.00000 88.00000 1.00000
v 9.00000 89.00000 0.00000
v 9.00000 89.00000 1.00000
v 8.00000 90.00000 0.00000
v 8.00000 90.00000 1.00000
v 9.00000 90.00000 0.00000
v 9.00000 90.00000 1.00000
v 8.00000 91.00000 0.00000
v 8.00000 91.00000 1.00000
v 9.00000 91.00000 0.00000
v 9.00000 91.00000 1.00000
v 8.00000 92.00000 0.00000
v 8.00000 92.00000 1.00000
v 9.00000 92.00000 0.00000
v 9.00000 92.00000 1.00000
v 8.00000 93.00000 0.00000
v 8.00000 93.00000 1.00000
v 9.00000 93.00000 0.00000
v 9.00000 93.00000 1.00000
v 8.00000 94.00000 0.00000
v 8.00000 94.00000 1.00000
v 9.00000 94.00000 0.00000
v 9.00000 94.00000 1.00000
v 8.00000 95.00000 0.00000
v 8.00000 95.00000 1.00000
v 9.00000 95.00000 0.00000
v 9.00000 95.00000 1.00000
v 8.00000 96.00000 0.00000
v 8.00000 96.00000 1.00000
v 9.00000 96.00000 1.00000
v 9.00000 96.00000 0.00000
v 10.00000 88.00000 0.00000
v 10.00000 88.00000 1.00000
v 10.00000 89.00000 0.00000
v 10.00000 89.00000 1.00000
v 10.00000 90.00000 0.00000
v 10.00000 90.00000 1.00000
v 10.00000 91.00000 0.00000
v 10.00000 91.00000 1.00000
v 10.00000 92.00000 0.00000
v 10.00000 92.00000 1.00000
v 10.00000 93.00000 0.00000
v 10.00000 93.00000 1.00000
v 10.00000 94.00000 0.00000
v 10.00000 94.00000 1.00000
v 10.00000 95.00000 0.00000
v 10.00000 95.00000 1.00000
v 10.00000 96.00000 1.00000
v 10.00000 96.00000 0.00000
v 11.00000 88.00000 0.00000
v 11.00000 88.00000 1.00000
v 11.00000 89.00000 0.00000
v 11.00000 89.00000 1.00000
v 11.00000 90.00000 0.00000
v 11.00000 90.00000 1.00000
v 11.00000 91.00000 0.00000
v 11.00000 91.00000 1.00000
v 11.00000 92.00000 0.00000
v 11.00000 92.00000 1.00000
v 11.00000 93.00000 0.00000
v 11.00000 93.00000 1.00000
v 11.00000 94.00000 0.00000
v 11.00000 94.00000 1.00000
v 11.00000 95.00000 0.00000
v 11.00000 95.00000 1.00000
v 11.00000 96.00000 1.00000
v 11.00000 96.00000 0.00000
v 12.00000 88.00000 0.00000
v 12.00000 88.00000 1.00000
v 12.00000 89.00000 0.00000
v 12.00000 89.00000 1.00000
v 12.00000 90.00000 0.00000
v 12.00000 90.00000 1.00000
v 12.00000 91.00000 0.00000
v 12.00000 91.00000 1.00000
v 12.00000 92.00000 0.00000
v 12.00000 92.00000 1.00000
v 12.00000 93.00000 0.00000
v 12.00000 93.00000 1.00000
v 12.00000 94.00000 0.00000
v 12.00000 94.00000 1.00000
v 12.00000 95.00000 0.00000
v 12.00000 95.00000 1.00000
v 12.00000 96.00000 1.00000
v 12.00000 96.00000 0.00000
v 13.00000 88.00000 0.00000
v 13.00000 88.00000 1.00000
v 13.00000 89.00000 0.00000
v 13.00000 89.00000 1.00000
v 13.00000 90.00000 0.00000
v 13.00000 90.00000 1.00000
v 13.00000 91.00000 0.00000
v 13.00000 91.00000 1.00000
v 13.00000 92.00000 0.00000
v 13.00000 92.00000 1.00000
v 13.00000 93.00000 0.00000
v 13.00000 93.00000 1.00000
v 13.00000 94.00000 0.00000
v 13.00000 94.00000 1.00000
v 13.00000 95.00000 0.00000
v 13.00000 95.00000 1.00000
v 13.00000 96.00000 1.00000
v 13.00000 96.00000 0.00000
v 14.00000 88.00000 0.00000
v 14.00000 88.00000 1.00000
v 14.00000 89.00000 0.00000
v 14.00000 89.00000 1.00000
v 14.00000 90.00000 0.00000
v 14.00000 90.00000 1.00000
v 14.00000 91.00000 0.00000
v 14.00000 91.00000 1.00000
v 14.00000 92.00000 0.00000
v 14.00000 92.00000 1.00000
v 14.00000 93.00000 0.00000
v 14.00000 93.00000 1.00000
v 14.00000 94.00000 0.00000
v 14.00000 94.00000 1.00000
v 14.00000 95.00000 0.00000
v 14.00000 95.00000 1.00000
v 14.00000 96.00000 1.00000
v 14.00000 96.00000 0.00000
v 15.00000 88.00000 0.00000
v 15.00000 88.00000 1.00000
v 15.00000 89.00000 0.00000
v 15.00000 89.00000 1.00000
v 15.00000 90.00000 0.00000
v 15.00000 90.00000 1.00000
v 15.00000 91.00000 0.00000
v 15.00000 91.00000 1.00000
v 15.00000 92.00000 0.00000
v 15.00000 92.00000 1.00000
v 15.00000 93.00000 0.00000
v 15.00000 93.00000 1.00000
v 15.00000 94.00000 0.00000
v 15.00000 94.00000 1.00000
v 15.00000 95.00000 0.00000
v 15.00000 95.00000 1.00000
v 15.00000 96.00000 1.00000
v 15.00000 96.00000 0.00000
v 16.00000 89.00000 1.00000
v 16.00000 88.00000 1.00000
v 16.00000 88.00000 0.00000
v 16.00000 89.00000 0.00000
v 16.00000 90.00000 1.00000
v 16.00000 90.00000 0.00000
v 16.00000 91.00000 1.00000
v 16.00000 91.00000 0.00000
v 16.00000 92.00000 1.00000
v 16.00000 92.00000 0.00000
v 16.00000 93.00000 1.00000
v 16.00000 93.00000 0.00000
v 16.00000 94.00000 1.00000
v 16.00000 94.00000 0.00000
v 16.00000 95.00000 1.00000
v 16.00000 95.00000 0.00000
v 16.00000 96.00000 1.00000
v 16.00000 96.00000 0.00000

vt 0.01563 0.36719
vt 0.01563 0.35938
vt 0.01953 0.35938
vt 0.01953 0.36719
vt 0.02734 0.36719
vt 0.02734 0.35938
vt 0.03125 0.35938
vt 0.03125 0.36719
vt 0.03906 0.36719
vt 0.03906 0.35938
vt 0.04297 0.35938
vt 0.04297 0.36719
vt 0.05078 0.36719
vt 0.05078 0.35938
vt 0.05469 0.35938
vt 0.05469 0.36719
vt 0.06250 0.36719
vt 0.06250 0.35938
vt 0.06641 0.35938
vt 0.06641 0.36719
vt 0.07422 0.36719
vt 0.07422 0.35938
vt 0.07813 0.35938
vt 0.07813 0.36719
vt 0.08594 0.36719
vt 0.08594 0.35938
vt 0.08984 0.35938
vt 0.08984 0.36719
vt 0.09766 0.36719
vt 0.09766 0.35938
vt 0.10156 0.35938
vt 0.10156 0.36719
vt 0.10938 0.36719
vt 0.10938 0.35938
vt 0.11328 0.35938
vt 0.11328 0.36719
vt 0.12109 0.36719
vt 0.12109 0.35938
vt 0.12500 0.35938
vt 0.12500 0.36719
vt 0.13281 0.36719
vt 0.13281 0.35938
vt 0.13672 0.35938
vt 0.13672 0.36719

g 101_Piece9_11_0
usemtl 101_Material
f 1/1/3 2/2/3 3/3/3 4/4/3
f 3/1/6 2/2/6 5/3/6 6/4/6
f 7/1/2 5/2/2 2/3/2 1/4/2
f 4/1/1 3/2/1 6/3/1 8/4/1
f 9/5/3 1/6/3 4/7/3 10/8/3
f 11/5/2 7/6/2 1/7/2 9/8/2
f 10/5/1 4/6/1 8/7/1 12/8/1
f 13/9/3 9/10/3 10/11/3 14/12/3
f 15/9/2 11/10/2 9/11/2 13/12/2
f 14/9/1 10/10/1 12/11/1 16/12/1
f 17/1/3 13/2/3 14/3/3 18/4/3
f 19/1/2 15/2/2 13/3/2 17/4/2
f 18/1/1 14/2/1 16/3/1 20/4/1
f 21/13/3 17/14/3 18/15/3 22/16/3
f 23/13/2 19/14/2 17/15/2 21/16/2
f 22/13/1 18/14/1 20/15/1 24/16/1
f 25/17/3 21/18/3 22/19/3 26/20/3
f 27/17/2 23/18/2 21/19/2 25/20/2
f 26/17/1 22/18/1 24/19/1 28/20/1
f 29/21/3 25/22/3 26/23/3 30/24/3
f 31/21/2 27/22/2 25/23/2 29/24/2
f 30/21/1 26/22/1 28/23/1 32/24/1
f 33/13/3 29/14/3 30/15/3 34/16/3
f 33/13/5 34/14/5 35/15/5 36/16/5
f 36/13/2 31/14/2 29/15/2 33/16/2
f 34/13/1 30/14/1 32/15/1 35/16/1
f 6/25/6 5/26/6 37/27/6 38/28/6
f 39/25/2 37/26/2 5/27/2 7/28/2
f 8/25/1 6/26/1 38/27/1 40/28/1
f 41/29/2 39/30/2 7/31/2 11/32/2
f 12/29/1 8/30/1 40/31/1 42/32/1
f 43/1/2 41/2/2 11/3/2 15/4/2
f 16/1/1 12/2/1 42/3/1 44/4/1
f 45/33/2 43/34/2 15/35/2 19/36/2
f 20/33/1 16/34/1 44/35/1 46/36/1
f 47/1/2 45/2/2 19/3/2 23/4/2
f 24/1/1 20/2/1 46/3/1 48/4/1
f 49/9/2 47/10/2 23/11/2 27/12/2
f 28/9/1 24/10/1 48/11/1 50/12/1
f 51/37/2 49/38/2 27/39/2 31/40/2
f 32/37/1 28/38/1 50/39/1 52/40/1
f 36/17/5 35/18/5 53/19/5 54/20/5
f 54/17/2 51/18/2 31/19/2 36/20/2
f 35/17/1 32/18/1 52/19/1 53/20/1
f 38/1/6 37/2/6 55/3/6 56/4/6
f 57/1/2 55/2/2 37/3/2 39/4/2
f 40/1/1 38/2/1 56/3/1 58/4/1
f 59/25/2 57/26/2 39/27/2 41/28/2
f 42/25/1 40/26/1 58/27/1 60/28/1
f 61/25/2 59/26/2 41/27/2 43/28/2
f 44/25/1 42/26/1 60/27/1 62/28/1
f 63/17/2 61/18/2 43/19/2 45/20/2
f 46/17/1 44/18/1 62/19/1 64/20/1
f 65/41/2 63/42/2 45/43/2 47/44/2
f 48/41/1 46/42/1 64/43/1 66/44/1
f 67/5/2 65/6/2 47/7/2 49/8/2
f 50/5/1 48/6/1 66/7/1 68/8/1
f 69/13/2 67/14/2 49/15/2 51/16/2
f 52/13/1 50/14/1 68/15/1 70/16/1
f 54/21/5 53/22/5 71/23/5 72/24/5
f 72/21/2 69/22/2 51/23/2 54/24/2
f 53/21/1 52/22/1 70/23/1 71/24/1
f 56/25/6 55/26/6 73/27/6 74/28/6
f 75/25/2 73/26/2 55/27/2 57/28/2
f 58/25/1 56/26/1 74/27/1 76/28/1
f 77/9/2 75/10/2 57/11/2 59/12/2
f 60/9/1 58/10/1 76/11/1 78/12/1
f 79/33/2 77/34/2 59/35/2 61/36/2
f 62/33/1 60/34/1 78/35/1 80/36/1
f 81/29/2 79/30/2 61/31/2 63/32/2
f 64/29/1 62/30/1 80/31/1 82/32/1
f 83/9/2 81/10/2 63/11/2 65/12/2
f 66/9/1 64/10/1 82/11/1 84/12/1
f 85/41/2 83/42/2 65/43/2 67/44/2
f 68/41/1 66/42/1 84/43/1 86/44/1
f 87/13/2 85/14/2 67/15/2 69/16/2
f 70/13/1 68/14/1 86/15/1 88/16/1
f 72/13/5 71/14/5 89/15/5 90/16/5
f 90/13/2 87/14/2 69/15/2 72/16/2
f 71/13/1 70/14/1 88/15/1 89/16/1
f 74/1/6 73/2/6 91/3/6 92/4/6
f 93/1/2 91/2/2 73/3/2 75/4/2
f 76/1/1 74/2/1 92/3/1 94/4/1
f 95/25/2 93/26/2 75/27/2 77/28/2
f 78/25/1 76/26/1 94/27/1 96/28/1
f 97/29/2 95/30/2 77/31/2 79/32/2
f 80/29/1 78/30/1 96/31/1 98/32/1
f 99/5/2 97/6/2 79/7/2 81/8/2
f 82/5/1 80/6/1 98/7/1 100/8/1
f 101/41/2 99/42/2 81/43/2 83/44/2
f 84/41/1 82/42/1 100/43/1 102/44/1
f 103/13/2 101/14/2 83/15/2 85/16/2
f 86/13/1 84/14/1 102/15/1 104/16/1
f 105/21/2 103/22/2 85/23/2 87/24/2
f 88/21/1 86/22/1 104/23/1 106/24/1
f 90/13/5 89/14/5 107/15/5 108/16/5
f 108/13/2 105/14/2 87/15/2 90/16/2
f 89/13/1 88/14/1 106/15/1 107/16/1
f 92/1/6 91/2/6 109/3/6 110/4/6
f 111/1/2 109/2/2 91/3/2 93/4/2
f 94/1/1 92/2/1 110/3/1 112/4/1
f 113/1/2 111/2/2 93/3/2 95/4/2
f 96/1/1 94/2/1 112/3/1 114/4/1
f 115/1/2 113/2/2 95/3/2 97/4/2
f 98/1/1 96/2/1 114/3/1 116/4/1
f 117/9/2 115/10/2 97/11/2 99/12/2
f 100/9/1 98/10/1 116/11/1 118/12/1
f 119/25/2 117/26/2 99/27/2 101/28/2
f 102/25/1 100/26/1 118/27/1 120/28/1
f 121/9/2 119/10/2 101/11/2 103/12/2
f 104/9/1 102/10/1 120/11/1 122/12/1
f 123/41/2 121/42/2 103/43/2 105/44/2
f 106/41/1 104/42/1 122/43/1 124/44/1
f 108/21/5 107/22/5 125/23/5 126/24/5
f 126/21/2 123/22/2 105/23/2 108/24/2
f 107/21/1 106/22/1 124/23/1 125/24/1
f 110/25/6 109/26/6 127/27/6 128/28/6
f 129/25/2 127/26/2 109/27/2 111/28/2
f 112/25/1 110/26/1 128/27/1 130/28/1
f 131/29/2 129/30/2 111/31/2 113/32/2
f 114/29/1 112/30/1 130/31/1 132/32/1
f 133/5/2 131/6/2 113/7/2 115/8/2
f 116/5/1 114/6/1 132/7/1 134/8/1
f 135/1/2 133/2/2 115/3/2 117/4/2
f 118/1/1 116/2/1 134/3/1 136/4/1
f 137/9/2 135/10/2 117/11/2 119/12/2
f 120/9/1 118/10/1 136/11/1 138/12/1
f 139/5/2 137/6/2 119/7/2 121/8/2
f 122/5/1 120/6/1 138/7/1 140/8/1
f 141/13/2 139/14/2 121/15/2 123/16/2
f 124/13/1 122/14/1 140/15/1 142/16/1
f 126/13/5 125/14/5 143/15/5 144/16/5
f 144/13/2 141/14/2 123/15/2 126/16/2
f 125/13/1 124/14/1 142/15/1 143/16/1
f 145/29/4 146/30/4 147/31/4 148/32/4
f 128/29/6 127/30/6 147/31/6 146/32/6
f 148/29/2 147/30/2 127/31/2 129/32/2
f 130/29/1 128/30/1 146/31/1 145/32/1
f 149/25/4 145/26/4 148/27/4 150/28/4
f 150/25/2 148/26/2 129/27/2 131/28/2
f 132/25/1 130/26/1 145/27/1 149/28/1
f 151/25/4 149/26/4 150/27/4 152/28/4
f 152/25/2 150/26/2 131/27/2 133/28/2
f 134/25/1 132/26/1 149/27/1 151/28/1
f 153/17/4 151/18/4 152/19/4 154/20/4
f 154/17/2 152/18/2 133/19/2 135/20/2
f 136/17/1 134/18/1 151/19/1 153/20/1
f 155/41/4 153/42/4 154/43/4 156/44/4
f 156/41/2 154/42/2 135/43/2 137/44/2
f 138/41/1 136/42/1 153/43/1 155/44/1
f 157/41/4 155/42/4 156/43/4 158/44/4
f 158/41/2 156/42/2 137/43/2 139/44/2
f 140/41/1 138/42/1 155/43/1 157/44/1
f 159/21/4 157/22/4 158/23/4 160/24/4
f 160/21/2 158/22/2 139/23/2 141/24/2
f 142/21/1 140/22/1 157/23/1 159/24/1
f 161/13/4 159/14/4 160/15/4 162/16/4
f 144/13/5 143/14/5 161/15/5 162/16/5
f 162/13/2 160/14/2 141/15/2 144/16/2
f 143/13/1 142/14/1 159/15/1 161/16/1
