# This file was created with Minddesk Qubicle 3.0
# Get Qubicle at www.getqubicle.com

mtllib 101_Piece2_3_0.mtl

vn 0.0 0.0 1.0
vn 0.0 0.0 -1.0
vn -1.0 0.0 0.0
vn 1.0 0.0 0.0
vn 0.0 1.0 0.0
vn 0.0 -1.0 0.0

v -48.00000 25.00000 0.00000
v -48.00000 24.00000 0.00000
v -48.00000 24.00000 1.00000
v -48.00000 25.00000 1.00000
v -47.00000 24.00000 0.00000
v -47.00000 24.00000 1.00000
v -47.00000 25.00000 0.00000
v -47.00000 25.00000 1.00000
v -48.00000 26.00000 0.00000
v -48.00000 26.00000 1.00000
v -47.00000 26.00000 0.00000
v -47.00000 26.00000 1.00000
v -48.00000 27.00000 0.00000
v -48.00000 27.00000 1.00000
v -47.00000 27.00000 0.00000
v -47.00000 27.00000 1.00000
v -48.00000 28.00000 0.00000
v -48.00000 28.00000 1.00000
v -47.00000 28.00000 0.00000
v -47.00000 28.00000 1.00000
v -48.00000 29.00000 0.00000
v -48.00000 29.00000 1.00000
v -47.00000 29.00000 0.00000
v -47.00000 29.00000 1.00000
v -48.00000 30.00000 0.00000
v -48.00000 30.00000 1.00000
v -47.00000 30.00000 0.00000
v -47.00000 30.00000 1.00000
v -48.00000 31.00000 0.00000
v -48.00000 31.00000 1.00000
v -47.00000 31.00000 0.00000
v -47.00000 31.00000 1.00000
v -48.00000 32.00000 0.00000
v -48.00000 32.00000 1.00000
v -47.00000 32.00000 1.00000
v -47.00000 32.00000 0.00000
v -46.00000 24.00000 0.00000
v -46.00000 24.00000 1.00000
v -46.00000 25.00000 0.00000
v -46.00000 25.00000 1.00000
v -46.00000 26.00000 0.00000
v -46.00000 26.00000 1.00000
v -46.00000 27.00000 0.00000
v -46.00000 27.00000 1.00000
v -46.00000 28.00000 0.00000
v -46.00000 28.00000 1.00000
v -46.00000 29.00000 0.00000
v -46.00000 29.00000 1.00000
v -46.00000 30.00000 0.00000
v -46.00000 30.00000 1.00000
v -46.00000 31.00000 0.00000
v -46.00000 31.00000 1.00000
v -46.00000 32.00000 1.00000
v -46.00000 32.00000 0.00000
v -45.00000 24.00000 0.00000
v -45.00000 24.00000 1.00000
v -45.00000 25.00000 0.00000
v -45.00000 25.00000 1.00000
v -45.00000 26.00000 0.00000
v -45.00000 26.00000 1.00000
v -45.00000 27.00000 0.00000
v -45.00000 27.00000 1.00000
v -45.00000 28.00000 0.00000
v -45.00000 28.00000 1.00000
v -45.00000 29.00000 0.00000
v -45.00000 29.00000 1.00000
v -45.00000 30.00000 0.00000
v -45.00000 30.00000 1.00000
v -45.00000 31.00000 0.00000
v -45.00000 31.00000 1.00000
v -45.00000 32.00000 1.00000
v -45.00000 32.00000 0.00000
v -44.00000 24.00000 0.00000
v -44.00000 24.00000 1.00000
v -44.00000 25.00000 0.00000
v -44.00000 25.00000 1.00000
v -44.00000 26.00000 0.00000
v -44.00000 26.00000 1.00000
v -44.00000 27.00000 0.00000
v -44.00000 27.00000 1.00000
v -44.00000 28.00000 0.00000
v -44.00000 28.00000 1.00000
v -44.00000 29.00000 0.00000
v -44.00000 29.00000 1.00000
v -44.00000 30.00000 0.00000
v -44.00000 30.00000 1.00000
v -44.00000 31.00000 0.00000
v -44.00000 31.00000 1.00000
v -44.00000 32.00000 1.00000
v -44.00000 32.00000 0.00000
v -43.00000 24.00000 0.00000
v -43.00000 24.00000 1.00000
v -43.00000 25.00000 0.00000
v -43.00000 25.00000 1.00000
v -43.00000 26.00000 0.00000
v -43.00000 26.00000 1.00000
v -43.00000 27.00000 0.00000
v -43.00000 27.00000 1.00000
v -43.00000 28.00000 0.00000
v -43.00000 28.00000 1.00000
v -43.00000 29.00000 0.00000
v -43.00000 29.00000 1.00000
v -43.00000 30.00000 0.00000
v -43.00000 30.00000 1.00000
v -43.00000 31.00000 0.00000
v -43.00000 31.00000 1.00000
v -43.00000 32.00000 1.00000
v -43.00000 32.00000 0.00000
v -42.00000 24.00000 0.00000
v -42.00000 24.00000 1.00000
v -42.00000 25.00000 0.00000
v -42.00000 25.00000 1.00000
v -42.00000 26.00000 0.00000
v -42.00000 26.00000 1.00000
v -42.00000 27.00000 0.00000
v -42.00000 27.00000 1.00000
v -42.00000 28.00000 0.00000
v -42.00000 28.00000 1.00000
v -42.00000 29.00000 0.00000
v -42.00000 29.00000 1.00000
v -42.00000 30.00000 0.00000
v -42.00000 30.00000 1.00000
v -42.00000 31.00000 0.00000
v -42.00000 31.00000 1.00000
v -42.00000 32.00000 1.00000
v -42.00000 32.00000 0.00000
v -41.00000 24.00000 0.00000
v -41.00000 24.00000 1.00000
v -41.00000 25.00000 0.00000
v -41.00000 25.00000 1.00000
v -41.00000 26.00000 0.00000
v -41.00000 26.00000 1.00000
v -41.00000 27.00000 0.00000
v -41.00000 27.00000 1.00000
v -41.00000 28.00000 0.00000
v -41.00000 28.00000 1.00000
v -41.00000 29.00000 0.00000
v -41.00000 29.00000 1.00000
v -41.00000 30.00000 0.00000
v -41.00000 30.00000 1.00000
v -41.00000 31.00000 0.00000
v -41.00000 31.00000 1.00000
v -41.00000 32.00000 1.00000
v -41.00000 32.00000 0.00000
v -40.00000 25.00000 1.00000
v -40.00000 24.00000 1.00000
v -40.00000 24.00000 0.00000
v -40.00000 25.00000 0.00000
v -40.00000 26.00000 1.00000
v -40.00000 26.00000 0.00000
v -40.00000 27.00000 1.00000
v -40.00000 27.00000 0.00000
v -40.00000 28.00000 1.00000
v -40.00000 28.00000 0.00000
v -40.00000 29.00000 1.00000
v -40.00000 29.00000 0.00000
v -40.00000 30.00000 1.00000
v -40.00000 30.00000 0.00000
v -40.00000 31.00000 1.00000
v -40.00000 31.00000 0.00000
v -40.00000 32.00000 1.00000
v -40.00000 32.00000 0.00000

vt 0.00391 0.01563
vt 0.00391 0.00781
vt 0.00781 0.00781
vt 0.00781 0.01563
vt 0.05078 0.01563
vt 0.05078 0.00781
vt 0.05469 0.00781
vt 0.05469 0.01563
vt 0.03906 0.01563
vt 0.03906 0.00781
vt 0.04297 0.00781
vt 0.04297 0.01563
vt 0.02734 0.01563
vt 0.02734 0.00781
vt 0.03125 0.00781
vt 0.03125 0.01563

g 101_Piece2_3_0
usemtl 101_Material
f 1/1/3 2/2/3 3/3/3 4/4/3
f 3/1/6 2/2/6 5/3/6 6/4/6
f 7/1/2 5/2/2 2/3/2 1/4/2
f 4/1/1 3/2/1 6/3/1 8/4/1
f 9/1/3 1/2/3 4/3/3 10/4/3
f 11/1/2 7/2/2 1/3/2 9/4/2
f 10/1/1 4/2/1 8/3/1 12/4/1
f 13/1/3 9/2/3 10/3/3 14/4/3
f 15/1/2 11/2/2 9/3/2 13/4/2
f 14/1/1 10/2/1 12/3/1 16/4/1
f 17/1/3 13/2/3 14/3/3 18/4/3
f 19/1/2 15/2/2 13/3/2 17/4/2
f 18/1/1 14/2/1 16/3/1 20/4/1
f 21/1/3 17/2/3 18/3/3 22/4/3
f 23/1/2 19/2/2 17/3/2 21/4/2
f 22/1/1 18/2/1 20/3/1 24/4/1
f 25/1/3 21/2/3 22/3/3 26/4/3
f 27/1/2 23/2/2 21/3/2 25/4/2
f 26/1/1 22/2/1 24/3/1 28/4/1
f 29/1/3 25/2/3 26/3/3 30/4/3
f 31/1/2 27/2/2 25/3/2 29/4/2
f 30/1/1 26/2/1 28/3/1 32/4/1
f 33/1/3 29/2/3 30/3/3 34/4/3
f 33/1/5 34/2/5 35/3/5 36/4/5
f 36/1/2 31/2/2 29/3/2 33/4/2
f 34/1/1 30/2/1 32/3/1 35/4/1
f 6/1/6 5/2/6 37/3/6 38/4/6
f 39/1/2 37/2/2 5/3/2 7/4/2
f 8/1/1 6/2/1 38/3/1 40/4/1
f 41/1/2 39/2/2 7/3/2 11/4/2
f 12/1/1 8/2/1 40/3/1 42/4/1
f 43/1/2 41/2/2 11/3/2 15/4/2
f 16/1/1 12/2/1 42/3/1 44/4/1
f 45/1/2 43/2/2 15/3/2 19/4/2
f 20/1/1 16/2/1 44/3/1 46/4/1
f 47/1/2 45/2/2 19/3/2 23/4/2
f 24/1/1 20/2/1 46/3/1 48/4/1
f 49/1/2 47/2/2 23/3/2 27/4/2
f 28/1/1 24/2/1 48/3/1 50/4/1
f 51/1/2 49/2/2 27/3/2 31/4/2
f 32/1/1 28/2/1 50/3/1 52/4/1
f 36/1/5 35/2/5 53/3/5 54/4/5
f 54/1/2 51/2/2 31/3/2 36/4/2
f 35/1/1 32/2/1 52/3/1 53/4/1
f 38/1/6 37/2/6 55/3/6 56/4/6
f 57/1/2 55/2/2 37/3/2 39/4/2
f 40/1/1 38/2/1 56/3/1 58/4/1
f 59/1/2 57/2/2 39/3/2 41/4/2
f 42/1/1 40/2/1 58/3/1 60/4/1
f 61/1/2 59/2/2 41/3/2 43/4/2
f 44/1/1 42/2/1 60/3/1 62/4/1
f 63/5/2 61/6/2 43/7/2 45/8/2
f 46/5/1 44/6/1 62/7/1 64/8/1
f 65/1/2 63/2/2 45/3/2 47/4/2
f 48/1/1 46/2/1 64/3/1 66/4/1
f 67/1/2 65/2/2 47/3/2 49/4/2
f 50/1/1 48/2/1 66/3/1 68/4/1
f 69/9/2 67/10/2 49/11/2 51/12/2
f 52/9/1 50/10/1 68/11/1 70/12/1
f 54/1/5 53/2/5 71/3/5 72/4/5
f 72/1/2 69/2/2 51/3/2 54/4/2
f 53/1/1 52/2/1 70/3/1 71/4/1
f 56/1/6 55/2/6 73/3/6 74/4/6
f 75/1/2 73/2/2 55/3/2 57/4/2
f 58/1/1 56/2/1 74/3/1 76/4/1
f 77/1/2 75/2/2 57/3/2 59/4/2
f 60/1/1 58/2/1 76/3/1 78/4/1
f 79/5/2 77/6/2 59/7/2 61/8/2
f 62/5/1 60/6/1 78/7/1 80/8/1
f 81/1/2 79/2/2 61/3/2 63/4/2
f 64/1/1 62/2/1 80/3/1 82/4/1
f 83/5/2 81/6/2 63/7/2 65/8/2
f 66/5/1 64/6/1 82/7/1 84/8/1
f 85/9/2 83/10/2 65/11/2 67/12/2
f 68/9/1 66/10/1 84/11/1 86/12/1
f 87/5/2 85/6/2 67/7/2 69/8/2
f 70/5/1 68/6/1 86/7/1 88/8/1
f 72/1/5 71/2/5 89/3/5 90/4/5
f 90/1/2 87/2/2 69/3/2 72/4/2
f 71/1/1 70/2/1 88/3/1 89/4/1
f 74/1/6 73/2/6 91/3/6 92/4/6
f 93/1/2 91/2/2 73/3/2 75/4/2
f 76/1/1 74/2/1 92/3/1 94/4/1
f 95/1/2 93/2/2 75/3/2 77/4/2
f 78/1/1 76/2/1 94/3/1 96/4/1
f 97/1/2 95/2/2 77/3/2 79/4/2
f 80/1/1 78/2/1 96/3/1 98/4/1
f 99/1/2 97/2/2 79/3/2 81/4/2
f 82/1/1 80/2/1 98/3/1 100/4/1
f 101/5/2 99/6/2 81/7/2 83/8/2
f 84/5/1 82/6/1 100/7/1 102/8/1
f 103/13/2 101/14/2 83/15/2 85/16/2
f 86/13/1 84/14/1 102/15/1 104/16/1
f 105/1/2 103/2/2 85/3/2 87/4/2
f 88/1/1 86/2/1 104/3/1 106/4/1
f 90/1/5 89/2/5 107/3/5 108/4/5
f 108/1/2 105/2/2 87/3/2 90/4/2
f 89/1/1 88/2/1 106/3/1 107/4/1
f 92/1/6 91/2/6 109/3/6 110/4/6
f 111/1/2 109/2/2 91/3/2 93/4/2
f 94/1/1 92/2/1 110/3/1 112/4/1
f 113/1/2 111/2/2 93/3/2 95/4/2
f 96/1/1 94/2/1 112/3/1 114/4/1
f 115/1/2 113/2/2 95/3/2 97/4/2
f 98/1/1 96/2/1 114/3/1 116/4/1
f 117/5/2 115/6/2 97/7/2 99/8/2
f 100/5/1 98/6/1 116/7/1 118/8/1
f 119/9/2 117/10/2 99/11/2 101/12/2
f 102/9/1 100/10/1 118/11/1 120/12/1
f 121/1/2 119/2/2 101/3/2 103/4/2
f 104/1/1 102/2/1 120/3/1 122/4/1
f 123/1/2 121/2/2 103/3/2 105/4/2
f 106/1/1 104/2/1 122/3/1 124/4/1
f 108/1/5 107/2/5 125/3/5 126/4/5
f 126/1/2 123/2/2 105/3/2 108/4/2
f 107/1/1 106/2/1 124/3/1 125/4/1
f 110/1/6 109/2/6 127/3/6 128/4/6
f 129/1/2 127/2/2 109/3/2 111/4/2
f 112/1/1 110/2/1 128/3/1 130/4/1
f 131/1/2 129/2/2 111/3/2 113/4/2
f 114/1/1 112/2/1 130/3/1 132/4/1
f 133/1/2 131/2/2 113/3/2 115/4/2
f 116/1/1 114/2/1 132/3/1 134/4/1
f 135/1/2 133/2/2 115/3/2 117/4/2
f 118/1/1 116/2/1 134/3/1 136/4/1
f 137/1/2 135/2/2 117/3/2 119/4/2
f 120/1/1 118/2/1 136/3/1 138/4/1
f 139/1/2 137/2/2 119/3/2 121/4/2
f 122/1/1 120/2/1 138/3/1 140/4/1
f 141/1/2 139/2/2 121/3/2 123/4/2
f 124/1/1 122/2/1 140/3/1 142/4/1
f 126/1/5 125/2/5 143/3/5 144/4/5
f 144/1/2 141/2/2 123/3/2 126/4/2
f 125/1/1 124/2/1 142/3/1 143/4/1
f 145/1/4 146/2/4 147/3/4 148/4/4
f 128/1/6 127/2/6 147/3/6 146/4/6
f 148/1/2 147/2/2 127/3/2 129/4/2
f 130/1/1 128/2/1 146/3/1 145/4/1
f 149/1/4 145/2/4 148/3/4 150/4/4
f 150/1/2 148/2/2 129/3/2 131/4/2
f 132/1/1 130/2/1 145/3/1 149/4/1
f 151/1/4 149/2/4 150/3/4 152/4/4
f 152/1/2 150/2/2 131/3/2 133/4/2
f 134/1/1 132/2/1 149/3/1 151/4/1
f 153/1/4 151/2/4 152/3/4 154/4/4
f 154/1/2 152/2/2 133/3/2 135/4/2
f 136/1/1 134/2/1 151/3/1 153/4/1
f 155/1/4 153/2/4 154/3/4 156/4/4
f 156/1/2 154/2/2 135/3/2 137/4/2
f 138/1/1 136/2/1 153/3/1 155/4/1
f 157/1/4 155/2/4 156/3/4 158/4/4
f 158/1/2 156/2/2 137/3/2 139/4/2
f 140/1/1 138/2/1 155/3/1 157/4/1
f 159/1/4 157/2/4 158/3/4 160/4/4
f 160/1/2 158/2/2 139/3/2 141/4/2
f 142/1/1 140/2/1 157/3/1 159/4/1
f 161/1/4 159/2/4 160/3/4 162/4/4
f 144/1/5 143/2/5 161/3/5 162/4/5
f 162/1/2 160/2/2 141/3/2 144/4/2
f 143/1/1 142/2/1 159/3/1 161/4/1
