# This file was created with Minddesk Qubicle 3.0
# Get Qubicle at www.getqubicle.com

mtllib 101_Piece9_17_0.mtl

vn 0.0 0.0 1.0
vn 0.0 0.0 -1.0
vn -1.0 0.0 0.0
vn 1.0 0.0 0.0
vn 0.0 1.0 0.0
vn 0.0 -1.0 0.0

v 8.00000 137.00000 0.00000
v 8.00000 136.00000 0.00000
v 8.00000 136.00000 1.00000
v 8.00000 137.00000 1.00000
v 9.00000 136.00000 0.00000
v 9.00000 136.00000 1.00000
v 9.00000 137.00000 0.00000
v 9.00000 137.00000 1.00000
v 8.00000 138.00000 0.00000
v 8.00000 138.00000 1.00000
v 9.00000 138.00000 0.00000
v 9.00000 138.00000 1.00000
v 8.00000 139.00000 0.00000
v 8.00000 139.00000 1.00000
v 9.00000 139.00000 0.00000
v 9.00000 139.00000 1.00000
v 8.00000 140.00000 0.00000
v 8.00000 140.00000 1.00000
v 9.00000 140.00000 0.00000
v 9.00000 140.00000 1.00000
v 8.00000 141.00000 0.00000
v 8.00000 141.00000 1.00000
v 9.00000 141.00000 0.00000
v 9.00000 141.00000 1.00000
v 8.00000 142.00000 0.00000
v 8.00000 142.00000 1.00000
v 9.00000 142.00000 0.00000
v 9.00000 142.00000 1.00000
v 8.00000 143.00000 0.00000
v 8.00000 143.00000 1.00000
v 9.00000 143.00000 0.00000
v 9.00000 143.00000 1.00000
v 8.00000 144.00000 0.00000
v 8.00000 144.00000 1.00000
v 9.00000 144.00000 1.00000
v 9.00000 144.00000 0.00000
v 10.00000 136.00000 0.00000
v 10.00000 136.00000 1.00000
v 10.00000 137.00000 0.00000
v 10.00000 137.00000 1.00000
v 10.00000 138.00000 0.00000
v 10.00000 138.00000 1.00000
v 10.00000 139.00000 0.00000
v 10.00000 139.00000 1.00000
v 10.00000 140.00000 0.00000
v 10.00000 140.00000 1.00000
v 10.00000 141.00000 0.00000
v 10.00000 141.00000 1.00000
v 10.00000 142.00000 0.00000
v 10.00000 142.00000 1.00000
v 10.00000 143.00000 0.00000
v 10.00000 143.00000 1.00000
v 10.00000 144.00000 1.00000
v 10.00000 144.00000 0.00000
v 11.00000 136.00000 0.00000
v 11.00000 136.00000 1.00000
v 11.00000 137.00000 0.00000
v 11.00000 137.00000 1.00000
v 11.00000 138.00000 0.00000
v 11.00000 138.00000 1.00000
v 11.00000 139.00000 0.00000
v 11.00000 139.00000 1.00000
v 11.00000 140.00000 0.00000
v 11.00000 140.00000 1.00000
v 11.00000 141.00000 0.00000
v 11.00000 141.00000 1.00000
v 11.00000 142.00000 0.00000
v 11.00000 142.00000 1.00000
v 11.00000 143.00000 0.00000
v 11.00000 143.00000 1.00000
v 11.00000 144.00000 1.00000
v 11.00000 144.00000 0.00000
v 12.00000 136.00000 0.00000
v 12.00000 136.00000 1.00000
v 12.00000 137.00000 0.00000
v 12.00000 137.00000 1.00000
v 12.00000 138.00000 0.00000
v 12.00000 138.00000 1.00000
v 12.00000 139.00000 0.00000
v 12.00000 139.00000 1.00000
v 12.00000 140.00000 0.00000
v 12.00000 140.00000 1.00000
v 12.00000 141.00000 0.00000
v 12.00000 141.00000 1.00000
v 12.00000 142.00000 0.00000
v 12.00000 142.00000 1.00000
v 12.00000 143.00000 0.00000
v 12.00000 143.00000 1.00000
v 12.00000 144.00000 1.00000
v 12.00000 144.00000 0.00000
v 13.00000 136.00000 0.00000
v 13.00000 136.00000 1.00000
v 13.00000 137.00000 0.00000
v 13.00000 137.00000 1.00000
v 13.00000 138.00000 0.00000
v 13.00000 138.00000 1.00000
v 13.00000 139.00000 0.00000
v 13.00000 139.00000 1.00000
v 13.00000 140.00000 0.00000
v 13.00000 140.00000 1.00000
v 13.00000 141.00000 0.00000
v 13.00000 141.00000 1.00000
v 13.00000 142.00000 0.00000
v 13.00000 142.00000 1.00000
v 13.00000 143.00000 0.00000
v 13.00000 143.00000 1.00000
v 13.00000 144.00000 1.00000
v 13.00000 144.00000 0.00000
v 14.00000 136.00000 0.00000
v 14.00000 136.00000 1.00000
v 14.00000 137.00000 0.00000
v 14.00000 137.00000 1.00000
v 14.00000 138.00000 0.00000
v 14.00000 138.00000 1.00000
v 14.00000 139.00000 0.00000
v 14.00000 139.00000 1.00000
v 14.00000 140.00000 0.00000
v 14.00000 140.00000 1.00000
v 14.00000 141.00000 0.00000
v 14.00000 141.00000 1.00000
v 14.00000 142.00000 0.00000
v 14.00000 142.00000 1.00000
v 14.00000 143.00000 0.00000
v 14.00000 143.00000 1.00000
v 14.00000 144.00000 1.00000
v 14.00000 144.00000 0.00000
v 15.00000 136.00000 0.00000
v 15.00000 136.00000 1.00000
v 15.00000 137.00000 0.00000
v 15.00000 137.00000 1.00000
v 15.00000 138.00000 0.00000
v 15.00000 138.00000 1.00000
v 15.00000 139.00000 0.00000
v 15.00000 139.00000 1.00000
v 15.00000 140.00000 0.00000
v 15.00000 140.00000 1.00000
v 15.00000 141.00000 0.00000
v 15.00000 141.00000 1.00000
v 15.00000 142.00000 0.00000
v 15.00000 142.00000 1.00000
v 15.00000 143.00000 0.00000
v 15.00000 143.00000 1.00000
v 15.00000 144.00000 1.00000
v 15.00000 144.00000 0.00000
v 16.00000 137.00000 1.00000
v 16.00000 136.00000 1.00000
v 16.00000 136.00000 0.00000
v 16.00000 137.00000 0.00000
v 16.00000 138.00000 1.00000
v 16.00000 138.00000 0.00000
v 16.00000 139.00000 1.00000
v 16.00000 139.00000 0.00000
v 16.00000 140.00000 1.00000
v 16.00000 140.00000 0.00000
v 16.00000 141.00000 1.00000
v 16.00000 141.00000 0.00000
v 16.00000 142.00000 1.00000
v 16.00000 142.00000 0.00000
v 16.00000 143.00000 1.00000
v 16.00000 143.00000 0.00000
v 16.00000 144.00000 1.00000
v 16.00000 144.00000 0.00000

vt 0.15625 0.34375
vt 0.15625 0.33594
vt 0.16016 0.33594
vt 0.16016 0.34375
vt 0.30859 0.36719
vt 0.30859 0.35938
vt 0.31250 0.35938
vt 0.31250 0.36719
vt 0.32031 0.36719
vt 0.32031 0.35938
vt 0.32422 0.35938
vt 0.32422 0.36719
vt 0.33203 0.36719
vt 0.33203 0.35938
vt 0.33594 0.35938
vt 0.33594 0.36719
vt 0.34375 0.36719
vt 0.34375 0.35938
vt 0.34766 0.35938
vt 0.34766 0.36719
vt 0.35547 0.36719
vt 0.35547 0.35938
vt 0.35938 0.35938
vt 0.35938 0.36719

g 101_Piece9_17_0
usemtl 101_Material
f 1/1/3 2/2/3 3/3/3 4/4/3
f 3/1/6 2/2/6 5/3/6 6/4/6
f 7/1/2 5/2/2 2/3/2 1/4/2
f 4/1/1 3/2/1 6/3/1 8/4/1
f 9/5/3 1/6/3 4/7/3 10/8/3
f 11/5/2 7/6/2 1/7/2 9/8/2
f 10/5/1 4/6/1 8/7/1 12/8/1
f 13/1/3 9/2/3 10/3/3 14/4/3
f 15/1/2 11/2/2 9/3/2 13/4/2
f 14/1/1 10/2/1 12/3/1 16/4/1
f 17/5/3 13/6/3 14/7/3 18/8/3
f 19/5/2 15/6/2 13/7/2 17/8/2
f 18/5/1 14/6/1 16/7/1 20/8/1
f 21/5/3 17/6/3 18/7/3 22/8/3
f 23/5/2 19/6/2 17/7/2 21/8/2
f 22/5/1 18/6/1 20/7/1 24/8/1
f 25/1/3 21/2/3 22/3/3 26/4/3
f 27/1/2 23/2/2 21/3/2 25/4/2
f 26/1/1 22/2/1 24/3/1 28/4/1
f 29/5/3 25/6/3 26/7/3 30/8/3
f 31/5/2 27/6/2 25/7/2 29/8/2
f 30/5/1 26/6/1 28/7/1 32/8/1
f 33/1/3 29/2/3 30/3/3 34/4/3
f 33/1/5 34/2/5 35/3/5 36/4/5
f 36/1/2 31/2/2 29/3/2 33/4/2
f 34/1/1 30/2/1 32/3/1 35/4/1
f 6/5/6 5/6/6 37/7/6 38/8/6
f 39/5/2 37/6/2 5/7/2 7/8/2
f 8/5/1 6/6/1 38/7/1 40/8/1
f 41/9/2 39/10/2 7/11/2 11/12/2
f 12/9/1 8/10/1 40/11/1 42/12/1
f 43/13/2 41/14/2 11/15/2 15/16/2
f 16/13/1 12/14/1 42/15/1 44/16/1
f 45/1/2 43/2/2 15/3/2 19/4/2
f 20/1/1 16/2/1 44/3/1 46/4/1
f 47/1/2 45/2/2 19/3/2 23/4/2
f 24/1/1 20/2/1 46/3/1 48/4/1
f 49/13/2 47/14/2 23/15/2 27/16/2
f 28/13/1 24/14/1 48/15/1 50/16/1
f 51/9/2 49/10/2 27/11/2 31/12/2
f 32/9/1 28/10/1 50/11/1 52/12/1
f 36/5/5 35/6/5 53/7/5 54/8/5
f 54/5/2 51/6/2 31/7/2 36/8/2
f 35/5/1 32/6/1 52/7/1 53/8/1
f 38/9/6 37/10/6 55/11/6 56/12/6
f 57/9/2 55/10/2 37/11/2 39/12/2
f 40/9/1 38/10/1 56/11/1 58/12/1
f 59/1/2 57/2/2 39/3/2 41/4/2
f 42/1/1 40/2/1 58/3/1 60/4/1
f 61/9/2 59/10/2 41/11/2 43/12/2
f 44/9/1 42/10/1 60/11/1 62/12/1
f 63/17/2 61/18/2 43/19/2 45/20/2
f 46/17/1 44/18/1 62/19/1 64/20/1
f 65/17/2 63/18/2 45/19/2 47/20/2
f 48/17/1 46/18/1 64/19/1 66/20/1
f 67/9/2 65/10/2 47/11/2 49/12/2
f 50/9/1 48/10/1 66/11/1 68/12/1
f 69/1/2 67/2/2 49/3/2 51/4/2
f 52/1/1 50/2/1 68/3/1 70/4/1
f 54/9/5 53/10/5 71/11/5 72/12/5
f 72/9/2 69/10/2 51/11/2 54/12/2
f 53/9/1 52/10/1 70/11/1 71/12/1
f 56/1/6 55/2/6 73/3/6 74/4/6
f 75/1/2 73/2/2 55/3/2 57/4/2
f 58/1/1 56/2/1 74/3/1 76/4/1
f 77/21/2 75/22/2 57/23/2 59/24/2
f 60/21/1 58/22/1 76/23/1 78/24/1
f 79/1/2 77/2/2 59/3/2 61/4/2
f 62/1/1 60/2/1 78/3/1 80/4/1
f 81/9/2 79/10/2 61/11/2 63/12/2
f 64/9/1 62/10/1 80/11/1 82/12/1
f 83/9/2 81/10/2 63/11/2 65/12/2
f 66/9/1 64/10/1 82/11/1 84/12/1
f 85/1/2 83/2/2 65/3/2 67/4/2
f 68/1/1 66/2/1 84/3/1 86/4/1
f 87/21/2 85/22/2 67/23/2 69/24/2
f 70/21/1 68/22/1 86/23/1 88/24/1
f 72/1/5 71/2/5 89/3/5 90/4/5
f 90/1/2 87/2/2 69/3/2 72/4/2
f 71/1/1 70/2/1 88/3/1 89/4/1
f 74/21/6 73/22/6 91/23/6 92/24/6
f 93/21/2 91/22/2 73/23/2 75/24/2
f 76/21/1 74/22/1 92/23/1 94/24/1
f 95/1/2 93/2/2 75/3/2 77/4/2
f 78/1/1 76/2/1 94/3/1 96/4/1
f 97/1/2 95/2/2 77/3/2 79/4/2
f 80/1/1 78/2/1 96/3/1 98/4/1
f 99/1/2 97/2/2 79/3/2 81/4/2
f 82/1/1 80/2/1 98/3/1 100/4/1
f 101/1/2 99/2/2 81/3/2 83/4/2
f 84/1/1 82/2/1 100/3/1 102/4/1
f 103/1/2 101/2/2 83/3/2 85/4/2
f 86/1/1 84/2/1 102/3/1 104/4/1
f 105/1/2 103/2/2 85/3/2 87/4/2
f 88/1/1 86/2/1 104/3/1 106/4/1
f 90/21/5 89/22/5 107/23/5 108/24/5
f 108/21/2 105/22/2 87/23/2 90/24/2
f 89/21/1 88/22/1 106/23/1 107/24/1
f 92/1/6 91/2/6 109/3/6 110/4/6
f 111/1/2 109/2/2 91/3/2 93/4/2
f 94/1/1 92/2/1 110/3/1 112/4/1
f 113/1/2 111/2/2 93/3/2 95/4/2
f 96/1/1 94/2/1 112/3/1 114/4/1
f 115/1/2 113/2/2 95/3/2 97/4/2
f 98/1/1 96/2/1 114/3/1 116/4/1
f 117/21/2 115/22/2 97/23/2 99/24/2
f 100/21/1 98/22/1 116/23/1 118/24/1
f 119/21/2 117/22/2 99/23/2 101/24/2
f 102/21/1 100/22/1 118/23/1 120/24/1
f 121/1/2 119/2/2 101/3/2 103/4/2
f 104/1/1 102/2/1 120/3/1 122/4/1
f 123/1/2 121/2/2 103/3/2 105/4/2
f 106/1/1 104/2/1 122/3/1 124/4/1
f 108/1/5 107/2/5 125/3/5 126/4/5
f 126/1/2 123/2/2 105/3/2 108/4/2
f 107/1/1 106/2/1 124/3/1 125/4/1
f 110/1/6 109/2/6 127/3/6 128/4/6
f 129/1/2 127/2/2 109/3/2 111/4/2
f 112/1/1 110/2/1 128/3/1 130/4/1
f 131/21/2 129/22/2 111/23/2 113/24/2
f 114/21/1 112/22/1 130/23/1 132/24/1
f 133/1/2 131/2/2 113/3/2 115/4/2
f 116/1/1 114/2/1 132/3/1 134/4/1
f 135/1/2 133/2/2 115/3/2 117/4/2
f 118/1/1 116/2/1 134/3/1 136/4/1
f 137/1/2 135/2/2 117/3/2 119/4/2
f 120/1/1 118/2/1 136/3/1 138/4/1
f 139/1/2 137/2/2 119/3/2 121/4/2
f 122/1/1 120/2/1 138/3/1 140/4/1
f 141/21/2 139/22/2 121/23/2 123/24/2
f 124/21/1 122/22/1 140/23/1 142/24/1
f 126/1/5 125/2/5 143/3/5 144/4/5
f 144/1/2 141/2/2 123/3/2 126/4/2
f 125/1/1 124/2/1 142/3/1 143/4/1
f 145/21/4 146/22/4 147/23/4 148/24/4
f 128/21/6 127/22/6 147/23/6 146/24/6
f 148/21/2 147/22/2 127/23/2 129/24/2
f 130/21/1 128/22/1 146/23/1 145/24/1
f 149/1/4 145/2/4 148/3/4 150/4/4
f 150/1/2 148/2/2 129/3/2 131/4/2
f 132/1/1 130/2/1 145/3/1 149/4/1
f 151/1/4 149/2/4 150/3/4 152/4/4
f 152/1/2 150/2/2 131/3/2 133/4/2
f 134/1/1 132/2/1 149/3/1 151/4/1
f 153/1/4 151/2/4 152/3/4 154/4/4
f 154/1/2 152/2/2 133/3/2 135/4/2
f 136/1/1 134/2/1 151/3/1 153/4/1
f 155/1/4 153/2/4 154/3/4 156/4/4
f 156/1/2 154/2/2 135/3/2 137/4/2
f 138/1/1 136/2/1 153/3/1 155/4/1
f 157/1/4 155/2/4 156/3/4 158/4/4
f 158/1/2 156/2/2 137/3/2 139/4/2
f 140/1/1 138/2/1 155/3/1 157/4/1
f 159/1/4 157/2/4 158/3/4 160/4/4
f 160/1/2 158/2/2 139/3/2 141/4/2
f 142/1/1 140/2/1 157/3/1 159/4/1
f 161/21/4 159/22/4 160/23/4 162/24/4
f 144/21/5 143/22/5 161/23/5 162/24/5
f 162/21/2 160/22/2 141/23/2 144/24/2
f 143/21/1 142/22/1 159/23/1 161/24/1
