# This file was created with Minddesk Qubicle 3.0
# Get Qubicle at www.getqubicle.com

mtllib 101_Piece4_21_0.mtl

vn 0.0 0.0 1.0
vn 0.0 0.0 -1.0
vn -1.0 0.0 0.0
vn 1.0 0.0 0.0
vn 0.0 1.0 0.0
vn 0.0 -1.0 0.0

v -32.00000 169.00000 0.00000
v -32.00000 168.00000 0.00000
v -32.00000 168.00000 1.00000
v -32.00000 169.00000 1.00000
v -31.00000 168.00000 0.00000
v -31.00000 168.00000 1.00000
v -31.00000 169.00000 0.00000
v -31.00000 169.00000 1.00000
v -32.00000 170.00000 0.00000
v -32.00000 170.00000 1.00000
v -31.00000 170.00000 0.00000
v -31.00000 170.00000 1.00000
v -32.00000 171.00000 0.00000
v -32.00000 171.00000 1.00000
v -31.00000 171.00000 0.00000
v -31.00000 171.00000 1.00000
v -32.00000 172.00000 0.00000
v -32.00000 172.00000 1.00000
v -31.00000 172.00000 0.00000
v -31.00000 172.00000 1.00000
v -32.00000 173.00000 0.00000
v -32.00000 173.00000 1.00000
v -31.00000 173.00000 0.00000
v -31.00000 173.00000 1.00000
v -32.00000 174.00000 0.00000
v -32.00000 174.00000 1.00000
v -31.00000 174.00000 0.00000
v -31.00000 174.00000 1.00000
v -32.00000 175.00000 0.00000
v -32.00000 175.00000 1.00000
v -31.00000 175.00000 0.00000
v -31.00000 175.00000 1.00000
v -32.00000 176.00000 0.00000
v -32.00000 176.00000 1.00000
v -31.00000 176.00000 1.00000
v -31.00000 176.00000 0.00000
v -30.00000 168.00000 0.00000
v -30.00000 168.00000 1.00000
v -30.00000 169.00000 0.00000
v -30.00000 169.00000 1.00000
v -30.00000 170.00000 0.00000
v -30.00000 170.00000 1.00000
v -30.00000 171.00000 0.00000
v -30.00000 171.00000 1.00000
v -30.00000 172.00000 0.00000
v -30.00000 172.00000 1.00000
v -30.00000 173.00000 0.00000
v -30.00000 173.00000 1.00000
v -30.00000 174.00000 0.00000
v -30.00000 174.00000 1.00000
v -30.00000 175.00000 0.00000
v -30.00000 175.00000 1.00000
v -30.00000 176.00000 1.00000
v -30.00000 176.00000 0.00000
v -29.00000 168.00000 0.00000
v -29.00000 168.00000 1.00000
v -29.00000 169.00000 0.00000
v -29.00000 169.00000 1.00000
v -29.00000 170.00000 0.00000
v -29.00000 170.00000 1.00000
v -29.00000 171.00000 0.00000
v -29.00000 171.00000 1.00000
v -29.00000 172.00000 0.00000
v -29.00000 172.00000 1.00000
v -29.00000 173.00000 0.00000
v -29.00000 173.00000 1.00000
v -29.00000 174.00000 0.00000
v -29.00000 174.00000 1.00000
v -29.00000 175.00000 0.00000
v -29.00000 175.00000 1.00000
v -29.00000 176.00000 1.00000
v -29.00000 176.00000 0.00000
v -28.00000 168.00000 0.00000
v -28.00000 168.00000 1.00000
v -28.00000 169.00000 0.00000
v -28.00000 169.00000 1.00000
v -28.00000 170.00000 0.00000
v -28.00000 170.00000 1.00000
v -28.00000 171.00000 0.00000
v -28.00000 171.00000 1.00000
v -28.00000 172.00000 0.00000
v -28.00000 172.00000 1.00000
v -28.00000 173.00000 0.00000
v -28.00000 173.00000 1.00000
v -28.00000 174.00000 0.00000
v -28.00000 174.00000 1.00000
v -28.00000 175.00000 0.00000
v -28.00000 175.00000 1.00000
v -28.00000 176.00000 1.00000
v -28.00000 176.00000 0.00000
v -27.00000 168.00000 0.00000
v -27.00000 168.00000 1.00000
v -27.00000 169.00000 0.00000
v -27.00000 169.00000 1.00000
v -27.00000 170.00000 0.00000
v -27.00000 170.00000 1.00000
v -27.00000 171.00000 0.00000
v -27.00000 171.00000 1.00000
v -27.00000 172.00000 0.00000
v -27.00000 172.00000 1.00000
v -27.00000 173.00000 0.00000
v -27.00000 173.00000 1.00000
v -27.00000 174.00000 0.00000
v -27.00000 174.00000 1.00000
v -27.00000 175.00000 0.00000
v -27.00000 175.00000 1.00000
v -27.00000 176.00000 1.00000
v -27.00000 176.00000 0.00000
v -26.00000 168.00000 0.00000
v -26.00000 168.00000 1.00000
v -26.00000 169.00000 0.00000
v -26.00000 169.00000 1.00000
v -26.00000 170.00000 0.00000
v -26.00000 170.00000 1.00000
v -26.00000 171.00000 0.00000
v -26.00000 171.00000 1.00000
v -26.00000 172.00000 0.00000
v -26.00000 172.00000 1.00000
v -26.00000 173.00000 0.00000
v -26.00000 173.00000 1.00000
v -26.00000 174.00000 0.00000
v -26.00000 174.00000 1.00000
v -26.00000 175.00000 0.00000
v -26.00000 175.00000 1.00000
v -26.00000 176.00000 1.00000
v -26.00000 176.00000 0.00000
v -25.00000 168.00000 0.00000
v -25.00000 168.00000 1.00000
v -25.00000 169.00000 0.00000
v -25.00000 169.00000 1.00000
v -25.00000 170.00000 0.00000
v -25.00000 170.00000 1.00000
v -25.00000 171.00000 0.00000
v -25.00000 171.00000 1.00000
v -25.00000 172.00000 0.00000
v -25.00000 172.00000 1.00000
v -25.00000 173.00000 0.00000
v -25.00000 173.00000 1.00000
v -25.00000 174.00000 0.00000
v -25.00000 174.00000 1.00000
v -25.00000 175.00000 0.00000
v -25.00000 175.00000 1.00000
v -25.00000 176.00000 1.00000
v -25.00000 176.00000 0.00000
v -24.00000 169.00000 1.00000
v -24.00000 168.00000 1.00000
v -24.00000 168.00000 0.00000
v -24.00000 169.00000 0.00000
v -24.00000 170.00000 1.00000
v -24.00000 170.00000 0.00000
v -24.00000 171.00000 1.00000
v -24.00000 171.00000 0.00000
v -24.00000 172.00000 1.00000
v -24.00000 172.00000 0.00000
v -24.00000 173.00000 1.00000
v -24.00000 173.00000 0.00000
v -24.00000 174.00000 1.00000
v -24.00000 174.00000 0.00000
v -24.00000 175.00000 1.00000
v -24.00000 175.00000 0.00000
v -24.00000 176.00000 1.00000
v -24.00000 176.00000 0.00000

vt 0.39063 0.20313
vt 0.39063 0.19531
vt 0.39453 0.19531
vt 0.39453 0.20313
vt 0.08594 0.25000
vt 0.08594 0.24219
vt 0.08984 0.24219
vt 0.08984 0.25000

g 101_Piece4_21_0
usemtl 101_Material
f 1/1/3 2/2/3 3/3/3 4/4/3
f 3/1/6 2/2/6 5/3/6 6/4/6
f 7/1/2 5/2/2 2/3/2 1/4/2
f 4/1/1 3/2/1 6/3/1 8/4/1
f 9/1/3 1/2/3 4/3/3 10/4/3
f 11/1/2 7/2/2 1/3/2 9/4/2
f 10/1/1 4/2/1 8/3/1 12/4/1
f 13/5/3 9/6/3 10/7/3 14/8/3
f 15/5/2 11/6/2 9/7/2 13/8/2
f 14/5/1 10/6/1 12/7/1 16/8/1
f 17/1/3 13/2/3 14/3/3 18/4/3
f 19/1/2 15/2/2 13/3/2 17/4/2
f 18/1/1 14/2/1 16/3/1 20/4/1
f 21/1/3 17/2/3 18/3/3 22/4/3
f 23/1/2 19/2/2 17/3/2 21/4/2
f 22/1/1 18/2/1 20/3/1 24/4/1
f 25/5/3 21/6/3 22/7/3 26/8/3
f 27/5/2 23/6/2 21/7/2 25/8/2
f 26/5/1 22/6/1 24/7/1 28/8/1
f 29/1/3 25/2/3 26/3/3 30/4/3
f 31/1/2 27/2/2 25/3/2 29/4/2
f 30/1/1 26/2/1 28/3/1 32/4/1
f 33/1/3 29/2/3 30/3/3 34/4/3
f 33/1/5 34/2/5 35/3/5 36/4/5
f 36/1/2 31/2/2 29/3/2 33/4/2
f 34/1/1 30/2/1 32/3/1 35/4/1
f 6/5/6 5/6/6 37/7/6 38/8/6
f 39/5/2 37/6/2 5/7/2 7/8/2
f 8/5/1 6/6/1 38/7/1 40/8/1
f 41/1/2 39/2/2 7/3/2 11/4/2
f 12/1/1 8/2/1 40/3/1 42/4/1
f 43/1/2 41/2/2 11/3/2 15/4/2
f 16/1/1 12/2/1 42/3/1 44/4/1
f 45/1/2 43/2/2 15/3/2 19/4/2
f 20/1/1 16/2/1 44/3/1 46/4/1
f 47/5/2 45/6/2 19/7/2 23/8/2
f 24/5/1 20/6/1 46/7/1 48/8/1
f 49/1/2 47/2/2 23/3/2 27/4/2
f 28/1/1 24/2/1 48/3/1 50/4/1
f 51/1/2 49/2/2 27/3/2 31/4/2
f 32/1/1 28/2/1 50/3/1 52/4/1
f 36/5/5 35/6/5 53/7/5 54/8/5
f 54/5/2 51/6/2 31/7/2 36/8/2
f 35/5/1 32/6/1 52/7/1 53/8/1
f 38/5/6 37/6/6 55/7/6 56/8/6
f 57/5/2 55/6/2 37/7/2 39/8/2
f 40/5/1 38/6/1 56/7/1 58/8/1
f 59/1/2 57/2/2 39/3/2 41/4/2
f 42/1/1 40/2/1 58/3/1 60/4/1
f 61/1/2 59/2/2 41/3/2 43/4/2
f 44/1/1 42/2/1 60/3/1 62/4/1
f 63/5/2 61/6/2 43/7/2 45/8/2
f 46/5/1 44/6/1 62/7/1 64/8/1
f 65/1/2 63/2/2 45/3/2 47/4/2
f 48/1/1 46/2/1 64/3/1 66/4/1
f 67/1/2 65/2/2 47/3/2 49/4/2
f 50/1/1 48/2/1 66/3/1 68/4/1
f 69/5/2 67/6/2 49/7/2 51/8/2
f 52/5/1 50/6/1 68/7/1 70/8/1
f 54/1/5 53/2/5 71/3/5 72/4/5
f 72/1/2 69/2/2 51/3/2 54/4/2
f 53/1/1 52/2/1 70/3/1 71/4/1
f 56/1/6 55/2/6 73/3/6 74/4/6
f 75/1/2 73/2/2 55/3/2 57/4/2
f 58/1/1 56/2/1 74/3/1 76/4/1
f 77/5/2 75/6/2 57/7/2 59/8/2
f 60/5/1 58/6/1 76/7/1 78/8/1
f 79/1/2 77/2/2 59/3/2 61/4/2
f 62/1/1 60/2/1 78/3/1 80/4/1
f 81/5/2 79/6/2 61/7/2 63/8/2
f 64/5/1 62/6/1 80/7/1 82/8/1
f 83/1/2 81/2/2 63/3/2 65/4/2
f 66/1/1 64/2/1 82/3/1 84/4/1
f 85/1/2 83/2/2 65/3/2 67/4/2
f 68/1/1 66/2/1 84/3/1 86/4/1
f 87/5/2 85/6/2 67/7/2 69/8/2
f 70/5/1 68/6/1 86/7/1 88/8/1
f 72/1/5 71/2/5 89/3/5 90/4/5
f 90/1/2 87/2/2 69/3/2 72/4/2
f 71/1/1 70/2/1 88/3/1 89/4/1
f 74/1/6 73/2/6 91/3/6 92/4/6
f 93/1/2 91/2/2 73/3/2 75/4/2
f 76/1/1 74/2/1 92/3/1 94/4/1
f 95/5/2 93/6/2 75/7/2 77/8/2
f 78/5/1 76/6/1 94/7/1 96/8/1
f 97/1/2 95/2/2 77/3/2 79/4/2
f 80/1/1 78/2/1 96/3/1 98/4/1
f 99/5/2 97/6/2 79/7/2 81/8/2
f 82/5/1 80/6/1 98/7/1 100/8/1
f 101/1/2 99/2/2 81/3/2 83/4/2
f 84/1/1 82/2/1 100/3/1 102/4/1
f 103/5/2 101/6/2 83/7/2 85/8/2
f 86/5/1 84/6/1 102/7/1 104/8/1
f 105/1/2 103/2/2 85/3/2 87/4/2
f 88/1/1 86/2/1 104/3/1 106/4/1
f 90/1/5 89/2/5 107/3/5 108/4/5
f 108/1/2 105/2/2 87/3/2 90/4/2
f 89/1/1 88/2/1 106/3/1 107/4/1
f 92/1/6 91/2/6 109/3/6 110/4/6
f 111/1/2 109/2/2 91/3/2 93/4/2
f 94/1/1 92/2/1 110/3/1 112/4/1
f 113/5/2 111/6/2 93/7/2 95/8/2
f 96/5/1 94/6/1 112/7/1 114/8/1
f 115/5/2 113/6/2 95/7/2 97/8/2
f 98/5/1 96/6/1 114/7/1 116/8/1
f 117/1/2 115/2/2 97/3/2 99/4/2
f 100/1/1 98/2/1 116/3/1 118/4/1
f 119/1/2 117/2/2 99/3/2 101/4/2
f 102/1/1 100/2/1 118/3/1 120/4/1
f 121/1/2 119/2/2 101/3/2 103/4/2
f 104/1/1 102/2/1 120/3/1 122/4/1
f 123/1/2 121/2/2 103/3/2 105/4/2
f 106/1/1 104/2/1 122/3/1 124/4/1
f 108/5/5 107/6/5 125/7/5 126/8/5
f 126/5/2 123/6/2 105/7/2 108/8/2
f 107/5/1 106/6/1 124/7/1 125/8/1
f 110/1/6 109/2/6 127/3/6 128/4/6
f 129/1/2 127/2/2 109/3/2 111/4/2
f 112/1/1 110/2/1 128/3/1 130/4/1
f 131/1/2 129/2/2 111/3/2 113/4/2
f 114/1/1 112/2/1 130/3/1 132/4/1
f 133/5/2 131/6/2 113/7/2 115/8/2
f 116/5/1 114/6/1 132/7/1 134/8/1
f 135/1/2 133/2/2 115/3/2 117/4/2
f 118/1/1 116/2/1 134/3/1 136/4/1
f 137/1/2 135/2/2 117/3/2 119/4/2
f 120/1/1 118/2/1 136/3/1 138/4/1
f 139/1/2 137/2/2 119/3/2 121/4/2
f 122/1/1 120/2/1 138/3/1 140/4/1
f 141/5/2 139/6/2 121/7/2 123/8/2
f 124/5/1 122/6/1 140/7/1 142/8/1
f 126/1/5 125/2/5 143/3/5 144/4/5
f 144/1/2 141/2/2 123/3/2 126/4/2
f 125/1/1 124/2/1 142/3/1 143/4/1
f 145/5/4 146/6/4 147/7/4 148/8/4
f 128/5/6 127/6/6 147/7/6 146/8/6
f 148/5/2 147/6/2 127/7/2 129/8/2
f 130/5/1 128/6/1 146/7/1 145/8/1
f 149/1/4 145/2/4 148/3/4 150/4/4
f 150/1/2 148/2/2 129/3/2 131/4/2
f 132/1/1 130/2/1 145/3/1 149/4/1
f 151/5/4 149/6/4 150/7/4 152/8/4
f 152/5/2 150/6/2 131/7/2 133/8/2
f 134/5/1 132/6/1 149/7/1 151/8/1
f 153/5/4 151/6/4 152/7/4 154/8/4
f 154/5/2 152/6/2 133/7/2 135/8/2
f 136/5/1 134/6/1 151/7/1 153/8/1
f 155/5/4 153/6/4 154/7/4 156/8/4
f 156/5/2 154/6/2 135/7/2 137/8/2
f 138/5/1 136/6/1 153/7/1 155/8/1
f 157/1/4 155/2/4 156/3/4 158/4/4
f 158/1/2 156/2/2 137/3/2 139/4/2
f 140/1/1 138/2/1 155/3/1 157/4/1
f 159/5/4 157/6/4 158/7/4 160/8/4
f 160/5/2 158/6/2 139/7/2 141/8/2
f 142/5/1 140/6/1 157/7/1 159/8/1
f 161/1/4 159/2/4 160/3/4 162/4/4
f 144/1/5 143/2/5 161/3/5 162/4/5
f 162/1/2 160/2/2 141/3/2 144/4/2
f 143/1/1 142/2/1 159/3/1 161/4/1
