# This file was created with Minddesk Qubicle 3.0
# Get Qubicle at www.getqubicle.com

mtllib 101_Piece7_13_0.mtl

vn 0.0 0.0 1.0
vn 0.0 0.0 -1.0
vn -1.0 0.0 0.0
vn 1.0 0.0 0.0
vn 0.0 1.0 0.0
vn 0.0 -1.0 0.0

v -8.00000 105.00000 0.00000
v -8.00000 104.00000 0.00000
v -8.00000 104.00000 1.00000
v -8.00000 105.00000 1.00000
v -7.00000 104.00000 0.00000
v -7.00000 104.00000 1.00000
v -7.00000 105.00000 0.00000
v -7.00000 105.00000 1.00000
v -8.00000 106.00000 0.00000
v -8.00000 106.00000 1.00000
v -7.00000 106.00000 0.00000
v -7.00000 106.00000 1.00000
v -8.00000 107.00000 0.00000
v -8.00000 107.00000 1.00000
v -7.00000 107.00000 0.00000
v -7.00000 107.00000 1.00000
v -8.00000 108.00000 0.00000
v -8.00000 108.00000 1.00000
v -7.00000 108.00000 0.00000
v -7.00000 108.00000 1.00000
v -8.00000 109.00000 0.00000
v -8.00000 109.00000 1.00000
v -7.00000 109.00000 0.00000
v -7.00000 109.00000 1.00000
v -8.00000 110.00000 0.00000
v -8.00000 110.00000 1.00000
v -7.00000 110.00000 0.00000
v -7.00000 110.00000 1.00000
v -8.00000 111.00000 0.00000
v -8.00000 111.00000 1.00000
v -7.00000 111.00000 0.00000
v -7.00000 111.00000 1.00000
v -8.00000 112.00000 0.00000
v -8.00000 112.00000 1.00000
v -7.00000 112.00000 1.00000
v -7.00000 112.00000 0.00000
v -6.00000 104.00000 0.00000
v -6.00000 104.00000 1.00000
v -6.00000 105.00000 0.00000
v -6.00000 105.00000 1.00000
v -6.00000 106.00000 0.00000
v -6.00000 106.00000 1.00000
v -6.00000 107.00000 0.00000
v -6.00000 107.00000 1.00000
v -6.00000 108.00000 0.00000
v -6.00000 108.00000 1.00000
v -6.00000 109.00000 0.00000
v -6.00000 109.00000 1.00000
v -6.00000 110.00000 0.00000
v -6.00000 110.00000 1.00000
v -6.00000 111.00000 0.00000
v -6.00000 111.00000 1.00000
v -6.00000 112.00000 1.00000
v -6.00000 112.00000 0.00000
v -5.00000 104.00000 0.00000
v -5.00000 104.00000 1.00000
v -5.00000 105.00000 0.00000
v -5.00000 105.00000 1.00000
v -5.00000 106.00000 0.00000
v -5.00000 106.00000 1.00000
v -5.00000 107.00000 0.00000
v -5.00000 107.00000 1.00000
v -5.00000 108.00000 0.00000
v -5.00000 108.00000 1.00000
v -5.00000 109.00000 0.00000
v -5.00000 109.00000 1.00000
v -5.00000 110.00000 0.00000
v -5.00000 110.00000 1.00000
v -5.00000 111.00000 0.00000
v -5.00000 111.00000 1.00000
v -5.00000 112.00000 1.00000
v -5.00000 112.00000 0.00000
v -4.00000 104.00000 0.00000
v -4.00000 104.00000 1.00000
v -4.00000 105.00000 0.00000
v -4.00000 105.00000 1.00000
v -4.00000 106.00000 0.00000
v -4.00000 106.00000 1.00000
v -4.00000 107.00000 0.00000
v -4.00000 107.00000 1.00000
v -4.00000 108.00000 0.00000
v -4.00000 108.00000 1.00000
v -4.00000 109.00000 0.00000
v -4.00000 109.00000 1.00000
v -4.00000 110.00000 0.00000
v -4.00000 110.00000 1.00000
v -4.00000 111.00000 0.00000
v -4.00000 111.00000 1.00000
v -4.00000 112.00000 1.00000
v -4.00000 112.00000 0.00000
v -3.00000 104.00000 0.00000
v -3.00000 104.00000 1.00000
v -3.00000 105.00000 0.00000
v -3.00000 105.00000 1.00000
v -3.00000 106.00000 0.00000
v -3.00000 106.00000 1.00000
v -3.00000 107.00000 0.00000
v -3.00000 107.00000 1.00000
v -3.00000 108.00000 0.00000
v -3.00000 108.00000 1.00000
v -3.00000 109.00000 0.00000
v -3.00000 109.00000 1.00000
v -3.00000 110.00000 0.00000
v -3.00000 110.00000 1.00000
v -3.00000 111.00000 0.00000
v -3.00000 111.00000 1.00000
v -3.00000 112.00000 1.00000
v -3.00000 112.00000 0.00000
v -2.00000 104.00000 0.00000
v -2.00000 104.00000 1.00000
v -2.00000 105.00000 0.00000
v -2.00000 105.00000 1.00000
v -2.00000 106.00000 0.00000
v -2.00000 106.00000 1.00000
v -2.00000 107.00000 0.00000
v -2.00000 107.00000 1.00000
v -2.00000 108.00000 0.00000
v -2.00000 108.00000 1.00000
v -2.00000 109.00000 0.00000
v -2.00000 109.00000 1.00000
v -2.00000 110.00000 0.00000
v -2.00000 110.00000 1.00000
v -2.00000 111.00000 0.00000
v -2.00000 111.00000 1.00000
v -2.00000 112.00000 1.00000
v -2.00000 112.00000 0.00000
v -1.00000 104.00000 0.00000
v -1.00000 104.00000 1.00000
v -1.00000 105.00000 0.00000
v -1.00000 105.00000 1.00000
v -1.00000 106.00000 0.00000
v -1.00000 106.00000 1.00000
v -1.00000 107.00000 0.00000
v -1.00000 107.00000 1.00000
v -1.00000 108.00000 0.00000
v -1.00000 108.00000 1.00000
v -1.00000 109.00000 0.00000
v -1.00000 109.00000 1.00000
v -1.00000 110.00000 0.00000
v -1.00000 110.00000 1.00000
v -1.00000 111.00000 0.00000
v -1.00000 111.00000 1.00000
v -1.00000 112.00000 1.00000
v -1.00000 112.00000 0.00000
v 0.00000 105.00000 1.00000
v 0.00000 104.00000 1.00000
v 0.00000 104.00000 0.00000
v 0.00000 105.00000 0.00000
v 0.00000 106.00000 1.00000
v 0.00000 106.00000 0.00000
v 0.00000 107.00000 1.00000
v 0.00000 107.00000 0.00000
v 0.00000 108.00000 1.00000
v 0.00000 108.00000 0.00000
v 0.00000 109.00000 1.00000
v 0.00000 109.00000 0.00000
v 0.00000 110.00000 1.00000
v 0.00000 110.00000 0.00000
v 0.00000 111.00000 1.00000
v 0.00000 111.00000 0.00000
v 0.00000 112.00000 1.00000
v 0.00000 112.00000 0.00000

vt 0.47266 0.25000
vt 0.47266 0.24219
vt 0.47656 0.24219
vt 0.47656 0.25000
vt 0.39063 0.10938
vt 0.39063 0.10156
vt 0.39453 0.10156
vt 0.39453 0.10938
vt 0.48438 0.25000
vt 0.48438 0.24219
vt 0.48828 0.24219
vt 0.48828 0.25000
vt 0.49609 0.25000
vt 0.49609 0.24219
vt 0.50000 0.24219
vt 0.50000 0.25000
vt 0.00391 0.27344
vt 0.00391 0.26563
vt 0.00781 0.26563
vt 0.00781 0.27344

g 101_Piece7_13_0
usemtl 101_Material
f 1/1/3 2/2/3 3/3/3 4/4/3
f 3/1/6 2/2/6 5/3/6 6/4/6
f 7/1/2 5/2/2 2/3/2 1/4/2
f 4/1/1 3/2/1 6/3/1 8/4/1
f 9/5/3 1/6/3 4/7/3 10/8/3
f 11/5/2 7/6/2 1/7/2 9/8/2
f 10/5/1 4/6/1 8/7/1 12/8/1
f 13/1/3 9/2/3 10/3/3 14/4/3
f 15/1/2 11/2/2 9/3/2 13/4/2
f 14/1/1 10/2/1 12/3/1 16/4/1
f 17/5/3 13/6/3 14/7/3 18/8/3
f 19/5/2 15/6/2 13/7/2 17/8/2
f 18/5/1 14/6/1 16/7/1 20/8/1
f 21/1/3 17/2/3 18/3/3 22/4/3
f 23/1/2 19/2/2 17/3/2 21/4/2
f 22/1/1 18/2/1 20/3/1 24/4/1
f 25/5/3 21/6/3 22/7/3 26/8/3
f 27/5/2 23/6/2 21/7/2 25/8/2
f 26/5/1 22/6/1 24/7/1 28/8/1
f 29/1/3 25/2/3 26/3/3 30/4/3
f 31/1/2 27/2/2 25/3/2 29/4/2
f 30/1/1 26/2/1 28/3/1 32/4/1
f 33/9/3 29/10/3 30/11/3 34/12/3
f 33/9/5 34/10/5 35/11/5 36/12/5
f 36/9/2 31/10/2 29/11/2 33/12/2
f 34/9/1 30/10/1 32/11/1 35/12/1
f 6/1/6 5/2/6 37/3/6 38/4/6
f 39/1/2 37/2/2 5/3/2 7/4/2
f 8/1/1 6/2/1 38/3/1 40/4/1
f 41/5/2 39/6/2 7/7/2 11/8/2
f 12/5/1 8/6/1 40/7/1 42/8/1
f 43/1/2 41/2/2 11/3/2 15/4/2
f 16/1/1 12/2/1 42/3/1 44/4/1
f 45/1/2 43/2/2 15/3/2 19/4/2
f 20/1/1 16/2/1 44/3/1 46/4/1
f 47/5/2 45/6/2 19/7/2 23/8/2
f 24/5/1 20/6/1 46/7/1 48/8/1
f 49/5/2 47/6/2 23/7/2 27/8/2
f 28/5/1 24/6/1 48/7/1 50/8/1
f 51/5/2 49/6/2 27/7/2 31/8/2
f 32/5/1 28/6/1 50/7/1 52/8/1
f 36/9/5 35/10/5 53/11/5 54/12/5
f 54/9/2 51/10/2 31/11/2 36/12/2
f 35/9/1 32/10/1 52/11/1 53/12/1
f 38/1/6 37/2/6 55/3/6 56/4/6
f 57/1/2 55/2/2 37/3/2 39/4/2
f 40/1/1 38/2/1 56/3/1 58/4/1
f 59/1/2 57/2/2 39/3/2 41/4/2
f 42/1/1 40/2/1 58/3/1 60/4/1
f 61/5/2 59/6/2 41/7/2 43/8/2
f 44/5/1 42/6/1 60/7/1 62/8/1
f 63/5/2 61/6/2 43/7/2 45/8/2
f 46/5/1 44/6/1 62/7/1 64/8/1
f 65/5/2 63/6/2 45/7/2 47/8/2
f 48/5/1 46/6/1 64/7/1 66/8/1
f 67/5/2 65/6/2 47/7/2 49/8/2
f 50/5/1 48/6/1 66/7/1 68/8/1
f 69/1/2 67/2/2 49/3/2 51/4/2
f 52/1/1 50/2/1 68/3/1 70/4/1
f 54/13/5 53/14/5 71/15/5 72/16/5
f 72/13/2 69/14/2 51/15/2 54/16/2
f 53/13/1 52/14/1 70/15/1 71/16/1
f 56/1/6 55/2/6 73/3/6 74/4/6
f 75/1/2 73/2/2 55/3/2 57/4/2
f 58/1/1 56/2/1 74/3/1 76/4/1
f 77/5/2 75/6/2 57/7/2 59/8/2
f 60/5/1 58/6/1 76/7/1 78/8/1
f 79/5/2 77/6/2 59/7/2 61/8/2
f 62/5/1 60/6/1 78/7/1 80/8/1
f 81/9/2 79/10/2 61/11/2 63/12/2
f 64/9/1 62/10/1 80/11/1 82/12/1
f 83/13/2 81/14/2 63/15/2 65/16/2
f 66/13/1 64/14/1 82/15/1 84/16/1
f 85/13/2 83/14/2 65/15/2 67/16/2
f 68/13/1 66/14/1 84/15/1 86/16/1
f 87/13/2 85/14/2 67/15/2 69/16/2
f 70/13/1 68/14/1 86/15/1 88/16/1
f 72/9/5 71/10/5 89/11/5 90/12/5
f 90/9/2 87/10/2 69/11/2 72/12/2
f 71/9/1 70/10/1 88/11/1 89/12/1
f 74/1/6 73/2/6 91/3/6 92/4/6
f 93/1/2 91/2/2 73/3/2 75/4/2
f 76/1/1 74/2/1 92/3/1 94/4/1
f 95/5/2 93/6/2 75/7/2 77/8/2
f 78/5/1 76/6/1 94/7/1 96/8/1
f 97/9/2 95/10/2 77/11/2 79/12/2
f 80/9/1 78/10/1 96/11/1 98/12/1
f 99/17/2 97/18/2 79/19/2 81/20/2
f 82/17/1 80/18/1 98/19/1 100/20/1
f 101/5/2 99/6/2 81/7/2 83/8/2
f 84/5/1 82/6/1 100/7/1 102/8/1
f 103/1/2 101/2/2 83/3/2 85/4/2
f 86/1/1 84/2/1 102/3/1 104/4/1
f 105/5/2 103/6/2 85/7/2 87/8/2
f 88/5/1 86/6/1 104/7/1 106/8/1
f 90/13/5 89/14/5 107/15/5 108/16/5
f 108/13/2 105/14/2 87/15/2 90/16/2
f 89/13/1 88/14/1 106/15/1 107/16/1
f 92/1/6 91/2/6 109/3/6 110/4/6
f 111/1/2 109/2/2 91/3/2 93/4/2
f 94/1/1 92/2/1 110/3/1 112/4/1
f 113/5/2 111/6/2 93/7/2 95/8/2
f 96/5/1 94/6/1 112/7/1 114/8/1
f 115/13/2 113/14/2 95/15/2 97/16/2
f 98/13/1 96/14/1 114/15/1 116/16/1
f 117/5/2 115/6/2 97/7/2 99/8/2
f 100/5/1 98/6/1 116/7/1 118/8/1
f 119/1/2 117/2/2 99/3/2 101/4/2
f 102/1/1 100/2/1 118/3/1 120/4/1
f 121/5/2 119/6/2 101/7/2 103/8/2
f 104/5/1 102/6/1 120/7/1 122/8/1
f 123/5/2 121/6/2 103/7/2 105/8/2
f 106/5/1 104/6/1 122/7/1 124/8/1
f 108/13/5 107/14/5 125/15/5 126/16/5
f 126/13/2 123/14/2 105/15/2 108/16/2
f 107/13/1 106/14/1 124/15/1 125/16/1
f 110/1/6 109/2/6 127/3/6 128/4/6
f 129/1/2 127/2/2 109/3/2 111/4/2
f 112/1/1 110/2/1 128/3/1 130/4/1
f 131/5/2 129/6/2 111/7/2 113/8/2
f 114/5/1 112/6/1 130/7/1 132/8/1
f 133/9/2 131/10/2 113/11/2 115/12/2
f 116/9/1 114/10/1 132/11/1 134/12/1
f 135/5/2 133/6/2 115/7/2 117/8/2
f 118/5/1 116/6/1 134/7/1 136/8/1
f 137/1/2 135/2/2 117/3/2 119/4/2
f 120/1/1 118/2/1 136/3/1 138/4/1
f 139/5/2 137/6/2 119/7/2 121/8/2
f 122/5/1 120/6/1 138/7/1 140/8/1
f 141/1/2 139/2/2 121/3/2 123/4/2
f 124/1/1 122/2/1 140/3/1 142/4/1
f 126/9/5 125/10/5 143/11/5 144/12/5
f 144/9/2 141/10/2 123/11/2 126/12/2
f 125/9/1 124/10/1 142/11/1 143/12/1
f 145/17/4 146/18/4 147/19/4 148/20/4
f 128/17/6 127/18/6 147/19/6 146/20/6
f 148/17/2 147/18/2 127/19/2 129/20/2
f 130/17/1 128/18/1 146/19/1 145/20/1
f 149/9/4 145/10/4 148/11/4 150/12/4
f 150/9/2 148/10/2 129/11/2 131/12/2
f 132/9/1 130/10/1 145/11/1 149/12/1
f 151/17/4 149/18/4 150/19/4 152/20/4
f 152/17/2 150/18/2 131/19/2 133/20/2
f 134/17/1 132/18/1 149/19/1 151/20/1
f 153/9/4 151/10/4 152/11/4 154/12/4
f 154/9/2 152/10/2 133/11/2 135/12/2
f 136/9/1 134/10/1 151/11/1 153/12/1
f 155/13/4 153/14/4 154/15/4 156/16/4
f 156/13/2 154/14/2 135/15/2 137/16/2
f 138/13/1 136/14/1 153/15/1 155/16/1
f 157/13/4 155/14/4 156/15/4 158/16/4
f 158/13/2 156/14/2 137/15/2 139/16/2
f 140/13/1 138/14/1 155/15/1 157/16/1
f 159/9/4 157/10/4 158/11/4 160/12/4
f 160/9/2 158/10/2 139/11/2 141/12/2
f 142/9/1 140/10/1 157/11/1 159/12/1
f 161/17/4 159/18/4 160/19/4 162/20/4
f 144/17/5 143/18/5 161/19/5 162/20/5
f 162/17/2 160/18/2 141/19/2 144/20/2
f 143/17/1 142/18/1 159/19/1 161/20/1
