# This file was created with Minddesk Qubicle 3.0
# Get Qubicle at www.getqubicle.com

mtllib 101_Piece0_13_0.mtl

vn 0.0 0.0 1.0
vn 0.0 0.0 -1.0
vn -1.0 0.0 0.0
vn 1.0 0.0 0.0
vn 0.0 1.0 0.0
vn 0.0 -1.0 0.0

v -64.00000 105.00000 0.00000
v -64.00000 104.00000 0.00000
v -64.00000 104.00000 1.00000
v -64.00000 105.00000 1.00000
v -63.00000 104.00000 0.00000
v -63.00000 104.00000 1.00000
v -63.00000 105.00000 0.00000
v -63.00000 105.00000 1.00000
v -64.00000 106.00000 0.00000
v -64.00000 106.00000 1.00000
v -63.00000 106.00000 0.00000
v -63.00000 106.00000 1.00000
v -64.00000 107.00000 0.00000
v -64.00000 107.00000 1.00000
v -63.00000 107.00000 0.00000
v -63.00000 107.00000 1.00000
v -64.00000 108.00000 0.00000
v -64.00000 108.00000 1.00000
v -63.00000 108.00000 0.00000
v -63.00000 108.00000 1.00000
v -64.00000 109.00000 0.00000
v -64.00000 109.00000 1.00000
v -63.00000 109.00000 0.00000
v -63.00000 109.00000 1.00000
v -64.00000 110.00000 0.00000
v -64.00000 110.00000 1.00000
v -63.00000 110.00000 0.00000
v -63.00000 110.00000 1.00000
v -64.00000 111.00000 0.00000
v -64.00000 111.00000 1.00000
v -63.00000 111.00000 0.00000
v -63.00000 111.00000 1.00000
v -64.00000 112.00000 0.00000
v -64.00000 112.00000 1.00000
v -63.00000 112.00000 1.00000
v -63.00000 112.00000 0.00000
v -62.00000 104.00000 0.00000
v -62.00000 104.00000 1.00000
v -62.00000 105.00000 0.00000
v -62.00000 105.00000 1.00000
v -62.00000 106.00000 0.00000
v -62.00000 106.00000 1.00000
v -62.00000 107.00000 0.00000
v -62.00000 107.00000 1.00000
v -62.00000 108.00000 0.00000
v -62.00000 108.00000 1.00000
v -62.00000 109.00000 0.00000
v -62.00000 109.00000 1.00000
v -62.00000 110.00000 0.00000
v -62.00000 110.00000 1.00000
v -62.00000 111.00000 0.00000
v -62.00000 111.00000 1.00000
v -62.00000 112.00000 1.00000
v -62.00000 112.00000 0.00000
v -61.00000 104.00000 0.00000
v -61.00000 104.00000 1.00000
v -61.00000 105.00000 0.00000
v -61.00000 105.00000 1.00000
v -61.00000 106.00000 0.00000
v -61.00000 106.00000 1.00000
v -61.00000 107.00000 0.00000
v -61.00000 107.00000 1.00000
v -61.00000 108.00000 0.00000
v -61.00000 108.00000 1.00000
v -61.00000 109.00000 0.00000
v -61.00000 109.00000 1.00000
v -61.00000 110.00000 0.00000
v -61.00000 110.00000 1.00000
v -61.00000 111.00000 0.00000
v -61.00000 111.00000 1.00000
v -61.00000 112.00000 1.00000
v -61.00000 112.00000 0.00000
v -60.00000 104.00000 0.00000
v -60.00000 104.00000 1.00000
v -60.00000 105.00000 0.00000
v -60.00000 105.00000 1.00000
v -60.00000 106.00000 0.00000
v -60.00000 106.00000 1.00000
v -60.00000 107.00000 0.00000
v -60.00000 107.00000 1.00000
v -60.00000 108.00000 0.00000
v -60.00000 108.00000 1.00000
v -60.00000 109.00000 0.00000
v -60.00000 109.00000 1.00000
v -60.00000 110.00000 0.00000
v -60.00000 110.00000 1.00000
v -60.00000 111.00000 0.00000
v -60.00000 111.00000 1.00000
v -60.00000 112.00000 1.00000
v -60.00000 112.00000 0.00000
v -59.00000 104.00000 0.00000
v -59.00000 104.00000 1.00000
v -59.00000 105.00000 0.00000
v -59.00000 105.00000 1.00000
v -59.00000 106.00000 0.00000
v -59.00000 106.00000 1.00000
v -59.00000 107.00000 0.00000
v -59.00000 107.00000 1.00000
v -59.00000 108.00000 0.00000
v -59.00000 108.00000 1.00000
v -59.00000 109.00000 0.00000
v -59.00000 109.00000 1.00000
v -59.00000 110.00000 0.00000
v -59.00000 110.00000 1.00000
v -59.00000 111.00000 0.00000
v -59.00000 111.00000 1.00000
v -59.00000 112.00000 1.00000
v -59.00000 112.00000 0.00000
v -58.00000 104.00000 0.00000
v -58.00000 104.00000 1.00000
v -58.00000 105.00000 0.00000
v -58.00000 105.00000 1.00000
v -58.00000 106.00000 0.00000
v -58.00000 106.00000 1.00000
v -58.00000 107.00000 0.00000
v -58.00000 107.00000 1.00000
v -58.00000 108.00000 0.00000
v -58.00000 108.00000 1.00000
v -58.00000 109.00000 0.00000
v -58.00000 109.00000 1.00000
v -58.00000 110.00000 0.00000
v -58.00000 110.00000 1.00000
v -58.00000 111.00000 0.00000
v -58.00000 111.00000 1.00000
v -58.00000 112.00000 1.00000
v -58.00000 112.00000 0.00000
v -57.00000 104.00000 0.00000
v -57.00000 104.00000 1.00000
v -57.00000 105.00000 0.00000
v -57.00000 105.00000 1.00000
v -57.00000 106.00000 0.00000
v -57.00000 106.00000 1.00000
v -57.00000 107.00000 0.00000
v -57.00000 107.00000 1.00000
v -57.00000 108.00000 0.00000
v -57.00000 108.00000 1.00000
v -57.00000 109.00000 0.00000
v -57.00000 109.00000 1.00000
v -57.00000 110.00000 0.00000
v -57.00000 110.00000 1.00000
v -57.00000 111.00000 0.00000
v -57.00000 111.00000 1.00000
v -57.00000 112.00000 1.00000
v -57.00000 112.00000 0.00000
v -56.00000 105.00000 1.00000
v -56.00000 104.00000 1.00000
v -56.00000 104.00000 0.00000
v -56.00000 105.00000 0.00000
v -56.00000 106.00000 1.00000
v -56.00000 106.00000 0.00000
v -56.00000 107.00000 1.00000
v -56.00000 107.00000 0.00000
v -56.00000 108.00000 1.00000
v -56.00000 108.00000 0.00000
v -56.00000 109.00000 1.00000
v -56.00000 109.00000 0.00000
v -56.00000 110.00000 1.00000
v -56.00000 110.00000 0.00000
v -56.00000 111.00000 1.00000
v -56.00000 111.00000 0.00000
v -56.00000 112.00000 1.00000
v -56.00000 112.00000 0.00000

vt 0.00391 0.01563
vt 0.00391 0.00781
vt 0.00781 0.00781
vt 0.00781 0.01563
vt 0.06250 0.06250
vt 0.06250 0.05469
vt 0.06641 0.05469
vt 0.06641 0.06250
vt 0.07422 0.06250
vt 0.07422 0.05469
vt 0.07813 0.05469
vt 0.07813 0.06250
vt 0.08594 0.06250
vt 0.08594 0.05469
vt 0.08984 0.05469
vt 0.08984 0.06250
vt 0.09766 0.06250
vt 0.09766 0.05469
vt 0.10156 0.05469
vt 0.10156 0.06250
vt 0.10938 0.06250
vt 0.10938 0.05469
vt 0.11328 0.05469
vt 0.11328 0.06250
vt 0.12109 0.06250
vt 0.12109 0.05469
vt 0.12500 0.05469
vt 0.12500 0.06250
vt 0.13281 0.06250
vt 0.13281 0.05469
vt 0.13672 0.05469
vt 0.13672 0.06250
vt 0.14453 0.06250
vt 0.14453 0.05469
vt 0.14844 0.05469
vt 0.14844 0.06250
vt 0.15625 0.06250
vt 0.15625 0.05469
vt 0.16016 0.05469
vt 0.16016 0.06250
vt 0.16797 0.06250
vt 0.16797 0.05469
vt 0.17188 0.05469
vt 0.17188 0.06250
vt 0.17969 0.06250
vt 0.17969 0.05469
vt 0.18359 0.05469
vt 0.18359 0.06250
vt 0.19141 0.06250
vt 0.19141 0.05469
vt 0.19531 0.05469
vt 0.19531 0.06250
vt 0.20313 0.06250
vt 0.20313 0.05469
vt 0.20703 0.05469
vt 0.20703 0.06250
vt 0.21484 0.06250
vt 0.21484 0.05469
vt 0.21875 0.05469
vt 0.21875 0.06250
vt 0.22656 0.06250
vt 0.22656 0.05469
vt 0.23047 0.05469
vt 0.23047 0.06250
vt 0.23828 0.06250
vt 0.23828 0.05469
vt 0.24219 0.05469
vt 0.24219 0.06250
vt 0.25000 0.06250
vt 0.25000 0.05469
vt 0.25391 0.05469
vt 0.25391 0.06250

g 101_Piece0_13_0
usemtl 101_Material
f 1/1/3 2/2/3 3/3/3 4/4/3
f 3/1/6 2/2/6 5/3/6 6/4/6
f 7/1/2 5/2/2 2/3/2 1/4/2
f 4/1/1 3/2/1 6/3/1 8/4/1
f 9/5/3 1/6/3 4/7/3 10/8/3
f 11/5/2 7/6/2 1/7/2 9/8/2
f 10/5/1 4/6/1 8/7/1 12/8/1
f 13/1/3 9/2/3 10/3/3 14/4/3
f 15/1/2 11/2/2 9/3/2 13/4/2
f 14/1/1 10/2/1 12/3/1 16/4/1
f 17/1/3 13/2/3 14/3/3 18/4/3
f 19/1/2 15/2/2 13/3/2 17/4/2
f 18/1/1 14/2/1 16/3/1 20/4/1
f 21/1/3 17/2/3 18/3/3 22/4/3
f 23/1/2 19/2/2 17/3/2 21/4/2
f 22/1/1 18/2/1 20/3/1 24/4/1
f 25/1/3 21/2/3 22/3/3 26/4/3
f 27/1/2 23/2/2 21/3/2 25/4/2
f 26/1/1 22/2/1 24/3/1 28/4/1
f 29/1/3 25/2/3 26/3/3 30/4/3
f 31/1/2 27/2/2 25/3/2 29/4/2
f 30/1/1 26/2/1 28/3/1 32/4/1
f 33/1/3 29/2/3 30/3/3 34/4/3
f 33/1/5 34/2/5 35/3/5 36/4/5
f 36/1/2 31/2/2 29/3/2 33/4/2
f 34/1/1 30/2/1 32/3/1 35/4/1
f 6/9/6 5/10/6 37/11/6 38/12/6
f 39/9/2 37/10/2 5/11/2 7/12/2
f 8/9/1 6/10/1 38/11/1 40/12/1
f 41/13/2 39/14/2 7/15/2 11/16/2
f 12/13/1 8/14/1 40/15/1 42/16/1
f 43/17/2 41/18/2 11/19/2 15/20/2
f 16/17/1 12/18/1 42/19/1 44/20/1
f 45/17/2 43/18/2 15/19/2 19/20/2
f 20/17/1 16/18/1 44/19/1 46/20/1
f 47/21/2 45/22/2 19/23/2 23/24/2
f 24/21/1 20/22/1 46/23/1 48/24/1
f 49/1/2 47/2/2 23/3/2 27/4/2
f 28/1/1 24/2/1 48/3/1 50/4/1
f 51/1/2 49/2/2 27/3/2 31/4/2
f 32/1/1 28/2/1 50/3/1 52/4/1
f 36/1/5 35/2/5 53/3/5 54/4/5
f 54/1/2 51/2/2 31/3/2 36/4/2
f 35/1/1 32/2/1 52/3/1 53/4/1
f 38/17/6 37/18/6 55/19/6 56/20/6
f 57/17/2 55/18/2 37/19/2 39/20/2
f 40/17/1 38/18/1 56/19/1 58/20/1
f 59/21/2 57/22/2 39/23/2 41/24/2
f 42/21/1 40/22/1 58/23/1 60/24/1
f 61/21/2 59/22/2 41/23/2 43/24/2
f 44/21/1 42/22/1 60/23/1 62/24/1
f 63/21/2 61/22/2 43/23/2 45/24/2
f 46/21/1 44/22/1 62/23/1 64/24/1
f 65/25/2 63/26/2 45/27/2 47/28/2
f 48/25/1 46/26/1 64/27/1 66/28/1
f 67/29/2 65/30/2 47/31/2 49/32/2
f 50/29/1 48/30/1 66/31/1 68/32/1
f 69/33/2 67/34/2 49/35/2 51/36/2
f 52/33/1 50/34/1 68/35/1 70/36/1
f 54/1/5 53/2/5 71/3/5 72/4/5
f 72/1/2 69/2/2 51/3/2 54/4/2
f 53/1/1 52/2/1 70/3/1 71/4/1
f 56/21/6 55/22/6 73/23/6 74/24/6
f 75/21/2 73/22/2 55/23/2 57/24/2
f 58/21/1 56/22/1 74/23/1 76/24/1
f 77/21/2 75/22/2 57/23/2 59/24/2
f 60/21/1 58/22/1 76/23/1 78/24/1
f 79/37/2 77/38/2 59/39/2 61/40/2
f 62/37/1 60/38/1 78/39/1 80/40/1
f 81/21/2 79/22/2 61/23/2 63/24/2
f 64/21/1 62/22/1 80/23/1 82/24/1
f 83/41/2 81/42/2 63/43/2 65/44/2
f 66/41/1 64/42/1 82/43/1 84/44/1
f 85/29/2 83/30/2 65/31/2 67/32/2
f 68/29/1 66/30/1 84/31/1 86/32/1
f 87/33/2 85/34/2 67/35/2 69/36/2
f 70/33/1 68/34/1 86/35/1 88/36/1
f 72/33/5 71/34/5 89/35/5 90/36/5
f 90/33/2 87/34/2 69/35/2 72/36/2
f 71/33/1 70/34/1 88/35/1 89/36/1
f 74/5/6 73/6/6 91/7/6 92/8/6
f 93/5/2 91/6/2 73/7/2 75/8/2
f 76/5/1 74/6/1 92/7/1 94/8/1
f 95/21/2 93/22/2 75/23/2 77/24/2
f 78/21/1 76/22/1 94/23/1 96/24/1
f 97/45/2 95/46/2 77/47/2 79/48/2
f 80/45/1 78/46/1 96/47/1 98/48/1
f 99/21/2 97/22/2 79/23/2 81/24/2
f 82/21/1 80/22/1 98/23/1 100/24/1
f 101/49/2 99/50/2 81/51/2 83/52/2
f 84/49/1 82/50/1 100/51/1 102/52/1
f 103/29/2 101/30/2 83/31/2 85/32/2
f 86/29/1 84/30/1 102/31/1 104/32/1
f 105/33/2 103/34/2 85/35/2 87/36/2
f 88/33/1 86/34/1 104/35/1 106/36/1
f 90/33/5 89/34/5 107/35/5 108/36/5
f 108/33/2 105/34/2 87/35/2 90/36/2
f 89/33/1 88/34/1 106/35/1 107/36/1
f 92/53/6 91/54/6 109/55/6 110/56/6
f 111/53/2 109/54/2 91/55/2 93/56/2
f 94/53/1 92/54/1 110/55/1 112/56/1
f 113/57/2 111/58/2 93/59/2 95/60/2
f 96/57/1 94/58/1 112/59/1 114/60/1
f 115/57/2 113/58/2 95/59/2 97/60/2
f 98/57/1 96/58/1 114/59/1 116/60/1
f 117/57/2 115/58/2 97/59/2 99/60/2
f 100/57/1 98/58/1 116/59/1 118/60/1
f 119/61/2 117/62/2 99/63/2 101/64/2
f 102/61/1 100/62/1 118/63/1 120/64/1
f 121/65/2 119/66/2 101/67/2 103/68/2
f 104/65/1 102/66/1 120/67/1 122/68/1
f 123/69/2 121/70/2 103/71/2 105/72/2
f 106/69/1 104/70/1 122/71/1 124/72/1
f 108/1/5 107/2/5 125/3/5 126/4/5
f 126/1/2 123/2/2 105/3/2 108/4/2
f 107/1/1 106/2/1 124/3/1 125/4/1
f 110/5/6 109/6/6 127/7/6 128/8/6
f 129/5/2 127/6/2 109/7/2 111/8/2
f 112/5/1 110/6/1 128/7/1 130/8/1
f 131/53/2 129/54/2 111/55/2 113/56/2
f 114/53/1 112/54/1 130/55/1 132/56/1
f 133/53/2 131/54/2 113/55/2 115/56/2
f 116/53/1 114/54/1 132/55/1 134/56/1
f 135/53/2 133/54/2 115/55/2 117/56/2
f 118/53/1 116/54/1 134/55/1 136/56/1
f 137/53/2 135/54/2 117/55/2 119/56/2
f 120/53/1 118/54/1 136/55/1 138/56/1
f 139/1/2 137/2/2 119/3/2 121/4/2
f 122/1/1 120/2/1 138/3/1 140/4/1
f 141/1/2 139/2/2 121/3/2 123/4/2
f 124/1/1 122/2/1 140/3/1 142/4/1
f 126/1/5 125/2/5 143/3/5 144/4/5
f 144/1/2 141/2/2 123/3/2 126/4/2
f 125/1/1 124/2/1 142/3/1 143/4/1
f 145/1/4 146/2/4 147/3/4 148/4/4
f 128/1/6 127/2/6 147/3/6 146/4/6
f 148/1/2 147/2/2 127/3/2 129/4/2
f 130/1/1 128/2/1 146/3/1 145/4/1
f 149/5/4 145/6/4 148/7/4 150/8/4
f 150/5/2 148/6/2 129/7/2 131/8/2
f 132/5/1 130/6/1 145/7/1 149/8/1
f 151/1/4 149/2/4 150/3/4 152/4/4
f 152/1/2 150/2/2 131/3/2 133/4/2
f 134/1/1 132/2/1 149/3/1 151/4/1
f 153/1/4 151/2/4 152/3/4 154/4/4
f 154/1/2 152/2/2 133/3/2 135/4/2
f 136/1/1 134/2/1 151/3/1 153/4/1
f 155/1/4 153/2/4 154/3/4 156/4/4
f 156/1/2 154/2/2 135/3/2 137/4/2
f 138/1/1 136/2/1 153/3/1 155/4/1
f 157/1/4 155/2/4 156/3/4 158/4/4
f 158/1/2 156/2/2 137/3/2 139/4/2
f 140/1/1 138/2/1 155/3/1 157/4/1
f 159/1/4 157/2/4 158/3/4 160/4/4
f 160/1/2 158/2/2 139/3/2 141/4/2
f 142/1/1 140/2/1 157/3/1 159/4/1
f 161/1/4 159/2/4 160/3/4 162/4/4
f 144/1/5 143/2/5 161/3/5 162/4/5
f 162/1/2 160/2/2 141/3/2 144/4/2
f 143/1/1 142/2/1 159/3/1 161/4/1
