# This file was created with Minddesk Qubicle 3.0
# Get Qubicle at www.getqubicle.com

mtllib 101_Piece3_16_0.mtl

vn 0.0 0.0 1.0
vn 0.0 0.0 -1.0
vn -1.0 0.0 0.0
vn 1.0 0.0 0.0
vn 0.0 1.0 0.0
vn 0.0 -1.0 0.0

v -40.00000 129.00000 0.00000
v -40.00000 128.00000 0.00000
v -40.00000 128.00000 1.00000
v -40.00000 129.00000 1.00000
v -39.00000 128.00000 0.00000
v -39.00000 128.00000 1.00000
v -39.00000 129.00000 0.00000
v -39.00000 129.00000 1.00000
v -40.00000 130.00000 0.00000
v -40.00000 130.00000 1.00000
v -39.00000 130.00000 0.00000
v -39.00000 130.00000 1.00000
v -40.00000 131.00000 0.00000
v -40.00000 131.00000 1.00000
v -39.00000 131.00000 0.00000
v -39.00000 131.00000 1.00000
v -40.00000 132.00000 0.00000
v -40.00000 132.00000 1.00000
v -39.00000 132.00000 0.00000
v -39.00000 132.00000 1.00000
v -40.00000 133.00000 0.00000
v -40.00000 133.00000 1.00000
v -39.00000 133.00000 0.00000
v -39.00000 133.00000 1.00000
v -40.00000 134.00000 0.00000
v -40.00000 134.00000 1.00000
v -39.00000 134.00000 0.00000
v -39.00000 134.00000 1.00000
v -40.00000 135.00000 0.00000
v -40.00000 135.00000 1.00000
v -39.00000 135.00000 0.00000
v -39.00000 135.00000 1.00000
v -40.00000 136.00000 0.00000
v -40.00000 136.00000 1.00000
v -39.00000 136.00000 1.00000
v -39.00000 136.00000 0.00000
v -38.00000 128.00000 0.00000
v -38.00000 128.00000 1.00000
v -38.00000 129.00000 0.00000
v -38.00000 129.00000 1.00000
v -38.00000 130.00000 0.00000
v -38.00000 130.00000 1.00000
v -38.00000 131.00000 0.00000
v -38.00000 131.00000 1.00000
v -38.00000 132.00000 0.00000
v -38.00000 132.00000 1.00000
v -38.00000 133.00000 0.00000
v -38.00000 133.00000 1.00000
v -38.00000 134.00000 0.00000
v -38.00000 134.00000 1.00000
v -38.00000 135.00000 0.00000
v -38.00000 135.00000 1.00000
v -38.00000 136.00000 1.00000
v -38.00000 136.00000 0.00000
v -37.00000 128.00000 0.00000
v -37.00000 128.00000 1.00000
v -37.00000 129.00000 0.00000
v -37.00000 129.00000 1.00000
v -37.00000 130.00000 0.00000
v -37.00000 130.00000 1.00000
v -37.00000 131.00000 0.00000
v -37.00000 131.00000 1.00000
v -37.00000 132.00000 0.00000
v -37.00000 132.00000 1.00000
v -37.00000 133.00000 0.00000
v -37.00000 133.00000 1.00000
v -37.00000 134.00000 0.00000
v -37.00000 134.00000 1.00000
v -37.00000 135.00000 0.00000
v -37.00000 135.00000 1.00000
v -37.00000 136.00000 1.00000
v -37.00000 136.00000 0.00000
v -36.00000 128.00000 0.00000
v -36.00000 128.00000 1.00000
v -36.00000 129.00000 0.00000
v -36.00000 129.00000 1.00000
v -36.00000 130.00000 0.00000
v -36.00000 130.00000 1.00000
v -36.00000 131.00000 0.00000
v -36.00000 131.00000 1.00000
v -36.00000 132.00000 0.00000
v -36.00000 132.00000 1.00000
v -36.00000 133.00000 0.00000
v -36.00000 133.00000 1.00000
v -36.00000 134.00000 0.00000
v -36.00000 134.00000 1.00000
v -36.00000 135.00000 0.00000
v -36.00000 135.00000 1.00000
v -36.00000 136.00000 1.00000
v -36.00000 136.00000 0.00000
v -35.00000 128.00000 0.00000
v -35.00000 128.00000 1.00000
v -35.00000 129.00000 0.00000
v -35.00000 129.00000 1.00000
v -35.00000 130.00000 0.00000
v -35.00000 130.00000 1.00000
v -35.00000 131.00000 0.00000
v -35.00000 131.00000 1.00000
v -35.00000 132.00000 0.00000
v -35.00000 132.00000 1.00000
v -35.00000 133.00000 0.00000
v -35.00000 133.00000 1.00000
v -35.00000 134.00000 0.00000
v -35.00000 134.00000 1.00000
v -35.00000 135.00000 0.00000
v -35.00000 135.00000 1.00000
v -35.00000 136.00000 1.00000
v -35.00000 136.00000 0.00000
v -34.00000 128.00000 0.00000
v -34.00000 128.00000 1.00000
v -34.00000 129.00000 0.00000
v -34.00000 129.00000 1.00000
v -34.00000 130.00000 0.00000
v -34.00000 130.00000 1.00000
v -34.00000 131.00000 0.00000
v -34.00000 131.00000 1.00000
v -34.00000 132.00000 0.00000
v -34.00000 132.00000 1.00000
v -34.00000 133.00000 0.00000
v -34.00000 133.00000 1.00000
v -34.00000 134.00000 0.00000
v -34.00000 134.00000 1.00000
v -34.00000 135.00000 0.00000
v -34.00000 135.00000 1.00000
v -34.00000 136.00000 1.00000
v -34.00000 136.00000 0.00000
v -33.00000 128.00000 0.00000
v -33.00000 128.00000 1.00000
v -33.00000 129.00000 0.00000
v -33.00000 129.00000 1.00000
v -33.00000 130.00000 0.00000
v -33.00000 130.00000 1.00000
v -33.00000 131.00000 0.00000
v -33.00000 131.00000 1.00000
v -33.00000 132.00000 0.00000
v -33.00000 132.00000 1.00000
v -33.00000 133.00000 0.00000
v -33.00000 133.00000 1.00000
v -33.00000 134.00000 0.00000
v -33.00000 134.00000 1.00000
v -33.00000 135.00000 0.00000
v -33.00000 135.00000 1.00000
v -33.00000 136.00000 1.00000
v -33.00000 136.00000 0.00000
v -32.00000 129.00000 1.00000
v -32.00000 128.00000 1.00000
v -32.00000 128.00000 0.00000
v -32.00000 129.00000 0.00000
v -32.00000 130.00000 1.00000
v -32.00000 130.00000 0.00000
v -32.00000 131.00000 1.00000
v -32.00000 131.00000 0.00000
v -32.00000 132.00000 1.00000
v -32.00000 132.00000 0.00000
v -32.00000 133.00000 1.00000
v -32.00000 133.00000 0.00000
v -32.00000 134.00000 1.00000
v -32.00000 134.00000 0.00000
v -32.00000 135.00000 1.00000
v -32.00000 135.00000 0.00000
v -32.00000 136.00000 1.00000
v -32.00000 136.00000 0.00000

vt 0.47266 0.06250
vt 0.47266 0.05469
vt 0.47656 0.05469
vt 0.47656 0.06250
vt 0.30859 0.20313
vt 0.30859 0.19531
vt 0.31250 0.19531
vt 0.31250 0.20313
vt 0.00391 0.01563
vt 0.00391 0.00781
vt 0.00781 0.00781
vt 0.00781 0.01563

g 101_Piece3_16_0
usemtl 101_Material
f 1/1/3 2/2/3 3/3/3 4/4/3
f 3/1/6 2/2/6 5/3/6 6/4/6
f 7/1/2 5/2/2 2/3/2 1/4/2
f 4/1/1 3/2/1 6/3/1 8/4/1
f 9/1/3 1/2/3 4/3/3 10/4/3
f 11/1/2 7/2/2 1/3/2 9/4/2
f 10/1/1 4/2/1 8/3/1 12/4/1
f 13/5/3 9/6/3 10/7/3 14/8/3
f 15/5/2 11/6/2 9/7/2 13/8/2
f 14/5/1 10/6/1 12/7/1 16/8/1
f 17/9/3 13/10/3 14/11/3 18/12/3
f 19/9/2 15/10/2 13/11/2 17/12/2
f 18/9/1 14/10/1 16/11/1 20/12/1
f 21/9/3 17/10/3 18/11/3 22/12/3
f 23/9/2 19/10/2 17/11/2 21/12/2
f 22/9/1 18/10/1 20/11/1 24/12/1
f 25/5/3 21/6/3 22/7/3 26/8/3
f 27/5/2 23/6/2 21/7/2 25/8/2
f 26/5/1 22/6/1 24/7/1 28/8/1
f 29/1/3 25/2/3 26/3/3 30/4/3
f 31/1/2 27/2/2 25/3/2 29/4/2
f 30/1/1 26/2/1 28/3/1 32/4/1
f 33/1/3 29/2/3 30/3/3 34/4/3
f 33/1/5 34/2/5 35/3/5 36/4/5
f 36/1/2 31/2/2 29/3/2 33/4/2
f 34/1/1 30/2/1 32/3/1 35/4/1
f 6/1/6 5/2/6 37/3/6 38/4/6
f 39/1/2 37/2/2 5/3/2 7/4/2
f 8/1/1 6/2/1 38/3/1 40/4/1
f 41/5/2 39/6/2 7/7/2 11/8/2
f 12/5/1 8/6/1 40/7/1 42/8/1
f 43/9/2 41/10/2 11/11/2 15/12/2
f 16/9/1 12/10/1 42/11/1 44/12/1
f 45/9/2 43/10/2 15/11/2 19/12/2
f 20/9/1 16/10/1 44/11/1 46/12/1
f 47/9/2 45/10/2 19/11/2 23/12/2
f 24/9/1 20/10/1 46/11/1 48/12/1
f 49/9/2 47/10/2 23/11/2 27/12/2
f 28/9/1 24/10/1 48/11/1 50/12/1
f 51/5/2 49/6/2 27/7/2 31/8/2
f 32/5/1 28/6/1 50/7/1 52/8/1
f 36/1/5 35/2/5 53/3/5 54/4/5
f 54/1/2 51/2/2 31/3/2 36/4/2
f 35/1/1 32/2/1 52/3/1 53/4/1
f 38/5/6 37/6/6 55/7/6 56/8/6
f 57/5/2 55/6/2 37/7/2 39/8/2
f 40/5/1 38/6/1 56/7/1 58/8/1
f 59/9/2 57/10/2 39/11/2 41/12/2
f 42/9/1 40/10/1 58/11/1 60/12/1
f 61/9/2 59/10/2 41/11/2 43/12/2
f 44/9/1 42/10/1 60/11/1 62/12/1
f 63/9/2 61/10/2 43/11/2 45/12/2
f 46/9/1 44/10/1 62/11/1 64/12/1
f 65/9/2 63/10/2 45/11/2 47/12/2
f 48/9/1 46/10/1 64/11/1 66/12/1
f 67/9/2 65/10/2 47/11/2 49/12/2
f 50/9/1 48/10/1 66/11/1 68/12/1
f 69/9/2 67/10/2 49/11/2 51/12/2
f 52/9/1 50/10/1 68/11/1 70/12/1
f 54/5/5 53/6/5 71/7/5 72/8/5
f 72/5/2 69/6/2 51/7/2 54/8/2
f 53/5/1 52/6/1 70/7/1 71/8/1
f 56/9/6 55/10/6 73/11/6 74/12/6
f 75/9/2 73/10/2 55/11/2 57/12/2
f 58/9/1 56/10/1 74/11/1 76/12/1
f 77/9/2 75/10/2 57/11/2 59/12/2
f 60/9/1 58/10/1 76/11/1 78/12/1
f 79/9/2 77/10/2 59/11/2 61/12/2
f 62/9/1 60/10/1 78/11/1 80/12/1
f 81/9/2 79/10/2 61/11/2 63/12/2
f 64/9/1 62/10/1 80/11/1 82/12/1
f 83/9/2 81/10/2 63/11/2 65/12/2
f 66/9/1 64/10/1 82/11/1 84/12/1
f 85/9/2 83/10/2 65/11/2 67/12/2
f 68/9/1 66/10/1 84/11/1 86/12/1
f 87/9/2 85/10/2 67/11/2 69/12/2
f 70/9/1 68/10/1 86/11/1 88/12/1
f 72/9/5 71/10/5 89/11/5 90/12/5
f 90/9/2 87/10/2 69/11/2 72/12/2
f 71/9/1 70/10/1 88/11/1 89/12/1
f 74/9/6 73/10/6 91/11/6 92/12/6
f 93/9/2 91/10/2 73/11/2 75/12/2
f 76/9/1 74/10/1 92/11/1 94/12/1
f 95/9/2 93/10/2 75/11/2 77/12/2
f 78/9/1 76/10/1 94/11/1 96/12/1
f 97/9/2 95/10/2 77/11/2 79/12/2
f 80/9/1 78/10/1 96/11/1 98/12/1
f 99/9/2 97/10/2 79/11/2 81/12/2
f 82/9/1 80/10/1 98/11/1 100/12/1
f 101/9/2 99/10/2 81/11/2 83/12/2
f 84/9/1 82/10/1 100/11/1 102/12/1
f 103/9/2 101/10/2 83/11/2 85/12/2
f 86/9/1 84/10/1 102/11/1 104/12/1
f 105/9/2 103/10/2 85/11/2 87/12/2
f 88/9/1 86/10/1 104/11/1 106/12/1
f 90/9/5 89/10/5 107/11/5 108/12/5
f 108/9/2 105/10/2 87/11/2 90/12/2
f 89/9/1 88/10/1 106/11/1 107/12/1
f 92/5/6 91/6/6 109/7/6 110/8/6
f 111/5/2 109/6/2 91/7/2 93/8/2
f 94/5/1 92/6/1 110/7/1 112/8/1
f 113/9/2 111/10/2 93/11/2 95/12/2
f 96/9/1 94/10/1 112/11/1 114/12/1
f 115/9/2 113/10/2 95/11/2 97/12/2
f 98/9/1 96/10/1 114/11/1 116/12/1
f 117/9/2 115/10/2 97/11/2 99/12/2
f 100/9/1 98/10/1 116/11/1 118/12/1
f 119/9/2 117/10/2 99/11/2 101/12/2
f 102/9/1 100/10/1 118/11/1 120/12/1
f 121/9/2 119/10/2 101/11/2 103/12/2
f 104/9/1 102/10/1 120/11/1 122/12/1
f 123/9/2 121/10/2 103/11/2 105/12/2
f 106/9/1 104/10/1 122/11/1 124/12/1
f 108/5/5 107/6/5 125/7/5 126/8/5
f 126/5/2 123/6/2 105/7/2 108/8/2
f 107/5/1 106/6/1 124/7/1 125/8/1
f 110/1/6 109/2/6 127/3/6 128/4/6
f 129/1/2 127/2/2 109/3/2 111/4/2
f 112/1/1 110/2/1 128/3/1 130/4/1
f 131/5/2 129/6/2 111/7/2 113/8/2
f 114/5/1 112/6/1 130/7/1 132/8/1
f 133/9/2 131/10/2 113/11/2 115/12/2
f 116/9/1 114/10/1 132/11/1 134/12/1
f 135/9/2 133/10/2 115/11/2 117/12/2
f 118/9/1 116/10/1 134/11/1 136/12/1
f 137/9/2 135/10/2 117/11/2 119/12/2
f 120/9/1 118/10/1 136/11/1 138/12/1
f 139/9/2 137/10/2 119/11/2 121/12/2
f 122/9/1 120/10/1 138/11/1 140/12/1
f 141/5/2 139/6/2 121/7/2 123/8/2
f 124/5/1 122/6/1 140/7/1 142/8/1
f 126/1/5 125/2/5 143/3/5 144/4/5
f 144/1/2 141/2/2 123/3/2 126/4/2
f 125/1/1 124/2/1 142/3/1 143/4/1
f 145/1/4 146/2/4 147/3/4 148/4/4
f 128/1/6 127/2/6 147/3/6 146/4/6
f 148/1/2 147/2/2 127/3/2 129/4/2
f 130/1/1 128/2/1 146/3/1 145/4/1
f 149/1/4 145/2/4 148/3/4 150/4/4
f 150/1/2 148/2/2 129/3/2 131/4/2
f 132/1/1 130/2/1 145/3/1 149/4/1
f 151/5/4 149/6/4 150/7/4 152/8/4
f 152/5/2 150/6/2 131/7/2 133/8/2
f 134/5/1 132/6/1 149/7/1 151/8/1
f 153/9/4 151/10/4 152/11/4 154/12/4
f 154/9/2 152/10/2 133/11/2 135/12/2
f 136/9/1 134/10/1 151/11/1 153/12/1
f 155/9/4 153/10/4 154/11/4 156/12/4
f 156/9/2 154/10/2 135/11/2 137/12/2
f 138/9/1 136/10/1 153/11/1 155/12/1
f 157/5/4 155/6/4 156/7/4 158/8/4
f 158/5/2 156/6/2 137/7/2 139/8/2
f 140/5/1 138/6/1 155/7/1 157/8/1
f 159/1/4 157/2/4 158/3/4 160/4/4
f 160/1/2 158/2/2 139/3/2 141/4/2
f 142/1/1 140/2/1 157/3/1 159/4/1
f 161/1/4 159/2/4 160/3/4 162/4/4
f 144/1/5 143/2/5 161/3/5 162/4/5
f 162/1/2 160/2/2 141/3/2 144/4/2
f 143/1/1 142/2/1 159/3/1 161/4/1
