# This file was created with Minddesk Qubicle 3.0
# Get Qubicle at www.getqubicle.com

mtllib 101_Piece2_12_0.mtl

vn 0.0 0.0 1.0
vn 0.0 0.0 -1.0
vn -1.0 0.0 0.0
vn 1.0 0.0 0.0
vn 0.0 1.0 0.0
vn 0.0 -1.0 0.0

v -48.00000 97.00000 0.00000
v -48.00000 96.00000 0.00000
v -48.00000 96.00000 1.00000
v -48.00000 97.00000 1.00000
v -47.00000 96.00000 0.00000
v -47.00000 96.00000 1.00000
v -47.00000 97.00000 0.00000
v -47.00000 97.00000 1.00000
v -48.00000 98.00000 0.00000
v -48.00000 98.00000 1.00000
v -47.00000 98.00000 0.00000
v -47.00000 98.00000 1.00000
v -48.00000 99.00000 0.00000
v -48.00000 99.00000 1.00000
v -47.00000 99.00000 0.00000
v -47.00000 99.00000 1.00000
v -48.00000 100.00000 0.00000
v -48.00000 100.00000 1.00000
v -47.00000 100.00000 0.00000
v -47.00000 100.00000 1.00000
v -48.00000 101.00000 0.00000
v -48.00000 101.00000 1.00000
v -47.00000 101.00000 0.00000
v -47.00000 101.00000 1.00000
v -48.00000 102.00000 0.00000
v -48.00000 102.00000 1.00000
v -47.00000 102.00000 0.00000
v -47.00000 102.00000 1.00000
v -48.00000 103.00000 0.00000
v -48.00000 103.00000 1.00000
v -47.00000 103.00000 0.00000
v -47.00000 103.00000 1.00000
v -48.00000 104.00000 0.00000
v -48.00000 104.00000 1.00000
v -47.00000 104.00000 1.00000
v -47.00000 104.00000 0.00000
v -46.00000 96.00000 0.00000
v -46.00000 96.00000 1.00000
v -46.00000 97.00000 0.00000
v -46.00000 97.00000 1.00000
v -46.00000 98.00000 0.00000
v -46.00000 98.00000 1.00000
v -46.00000 99.00000 0.00000
v -46.00000 99.00000 1.00000
v -46.00000 100.00000 0.00000
v -46.00000 100.00000 1.00000
v -46.00000 101.00000 0.00000
v -46.00000 101.00000 1.00000
v -46.00000 102.00000 0.00000
v -46.00000 102.00000 1.00000
v -46.00000 103.00000 0.00000
v -46.00000 103.00000 1.00000
v -46.00000 104.00000 1.00000
v -46.00000 104.00000 0.00000
v -45.00000 96.00000 0.00000
v -45.00000 96.00000 1.00000
v -45.00000 97.00000 0.00000
v -45.00000 97.00000 1.00000
v -45.00000 98.00000 0.00000
v -45.00000 98.00000 1.00000
v -45.00000 99.00000 0.00000
v -45.00000 99.00000 1.00000
v -45.00000 100.00000 0.00000
v -45.00000 100.00000 1.00000
v -45.00000 101.00000 0.00000
v -45.00000 101.00000 1.00000
v -45.00000 102.00000 0.00000
v -45.00000 102.00000 1.00000
v -45.00000 103.00000 0.00000
v -45.00000 103.00000 1.00000
v -45.00000 104.00000 1.00000
v -45.00000 104.00000 0.00000
v -44.00000 96.00000 0.00000
v -44.00000 96.00000 1.00000
v -44.00000 97.00000 0.00000
v -44.00000 97.00000 1.00000
v -44.00000 98.00000 0.00000
v -44.00000 98.00000 1.00000
v -44.00000 99.00000 0.00000
v -44.00000 99.00000 1.00000
v -44.00000 100.00000 0.00000
v -44.00000 100.00000 1.00000
v -44.00000 101.00000 0.00000
v -44.00000 101.00000 1.00000
v -44.00000 102.00000 0.00000
v -44.00000 102.00000 1.00000
v -44.00000 103.00000 0.00000
v -44.00000 103.00000 1.00000
v -44.00000 104.00000 1.00000
v -44.00000 104.00000 0.00000
v -43.00000 96.00000 0.00000
v -43.00000 96.00000 1.00000
v -43.00000 97.00000 0.00000
v -43.00000 97.00000 1.00000
v -43.00000 98.00000 0.00000
v -43.00000 98.00000 1.00000
v -43.00000 99.00000 0.00000
v -43.00000 99.00000 1.00000
v -43.00000 100.00000 0.00000
v -43.00000 100.00000 1.00000
v -43.00000 101.00000 0.00000
v -43.00000 101.00000 1.00000
v -43.00000 102.00000 0.00000
v -43.00000 102.00000 1.00000
v -43.00000 103.00000 0.00000
v -43.00000 103.00000 1.00000
v -43.00000 104.00000 1.00000
v -43.00000 104.00000 0.00000
v -42.00000 96.00000 0.00000
v -42.00000 96.00000 1.00000
v -42.00000 97.00000 0.00000
v -42.00000 97.00000 1.00000
v -42.00000 98.00000 0.00000
v -42.00000 98.00000 1.00000
v -42.00000 99.00000 0.00000
v -42.00000 99.00000 1.00000
v -42.00000 100.00000 0.00000
v -42.00000 100.00000 1.00000
v -42.00000 101.00000 0.00000
v -42.00000 101.00000 1.00000
v -42.00000 102.00000 0.00000
v -42.00000 102.00000 1.00000
v -42.00000 103.00000 0.00000
v -42.00000 103.00000 1.00000
v -42.00000 104.00000 1.00000
v -42.00000 104.00000 0.00000
v -41.00000 96.00000 0.00000
v -41.00000 96.00000 1.00000
v -41.00000 97.00000 0.00000
v -41.00000 97.00000 1.00000
v -41.00000 98.00000 0.00000
v -41.00000 98.00000 1.00000
v -41.00000 99.00000 0.00000
v -41.00000 99.00000 1.00000
v -41.00000 100.00000 0.00000
v -41.00000 100.00000 1.00000
v -41.00000 101.00000 0.00000
v -41.00000 101.00000 1.00000
v -41.00000 102.00000 0.00000
v -41.00000 102.00000 1.00000
v -41.00000 103.00000 0.00000
v -41.00000 103.00000 1.00000
v -41.00000 104.00000 1.00000
v -41.00000 104.00000 0.00000
v -40.00000 97.00000 1.00000
v -40.00000 96.00000 1.00000
v -40.00000 96.00000 0.00000
v -40.00000 97.00000 0.00000
v -40.00000 98.00000 1.00000
v -40.00000 98.00000 0.00000
v -40.00000 99.00000 1.00000
v -40.00000 99.00000 0.00000
v -40.00000 100.00000 1.00000
v -40.00000 100.00000 0.00000
v -40.00000 101.00000 1.00000
v -40.00000 101.00000 0.00000
v -40.00000 102.00000 1.00000
v -40.00000 102.00000 0.00000
v -40.00000 103.00000 1.00000
v -40.00000 103.00000 0.00000
v -40.00000 104.00000 1.00000
v -40.00000 104.00000 0.00000

vt 0.03906 0.15625
vt 0.03906 0.14844
vt 0.04297 0.14844
vt 0.04297 0.15625
vt 0.43750 0.03906
vt 0.43750 0.03125
vt 0.44141 0.03125
vt 0.44141 0.03906
vt 0.33203 0.03906
vt 0.33203 0.03125
vt 0.33594 0.03125
vt 0.33594 0.03906
vt 0.01563 0.06250
vt 0.01563 0.05469
vt 0.01953 0.05469
vt 0.01953 0.06250
vt 0.05078 0.15625
vt 0.05078 0.14844
vt 0.05469 0.14844
vt 0.05469 0.15625
vt 0.06250 0.15625
vt 0.06250 0.14844
vt 0.06641 0.14844
vt 0.06641 0.15625
vt 0.07422 0.15625
vt 0.07422 0.14844
vt 0.07813 0.14844
vt 0.07813 0.15625
vt 0.08594 0.15625
vt 0.08594 0.14844
vt 0.08984 0.14844
vt 0.08984 0.15625
vt 0.02734 0.06250
vt 0.02734 0.05469
vt 0.03125 0.05469
vt 0.03125 0.06250
vt 0.40234 0.03906
vt 0.40234 0.03125
vt 0.40625 0.03125
vt 0.40625 0.03906
vt 0.41406 0.03906
vt 0.41406 0.03125
vt 0.41797 0.03125
vt 0.41797 0.03906
vt 0.09766 0.15625
vt 0.09766 0.14844
vt 0.10156 0.14844
vt 0.10156 0.15625
vt 0.10938 0.15625
vt 0.10938 0.14844
vt 0.11328 0.14844
vt 0.11328 0.15625
vt 0.12109 0.15625
vt 0.12109 0.14844
vt 0.12500 0.14844
vt 0.12500 0.15625
vt 0.27344 0.03906
vt 0.27344 0.03125
vt 0.27734 0.03125
vt 0.27734 0.03906
vt 0.13281 0.15625
vt 0.13281 0.14844
vt 0.13672 0.14844
vt 0.13672 0.15625
vt 0.14453 0.15625
vt 0.14453 0.14844
vt 0.14844 0.14844
vt 0.14844 0.15625
vt 0.03906 0.06250
vt 0.03906 0.05469
vt 0.04297 0.05469
vt 0.04297 0.06250
vt 0.15625 0.15625
vt 0.15625 0.14844
vt 0.16016 0.14844
vt 0.16016 0.15625
vt 0.05078 0.06250
vt 0.05078 0.05469
vt 0.05469 0.05469
vt 0.05469 0.06250
vt 0.39063 0.03906
vt 0.39063 0.03125
vt 0.39453 0.03125
vt 0.39453 0.03906
vt 0.16797 0.15625
vt 0.16797 0.14844
vt 0.17188 0.14844
vt 0.17188 0.15625
vt 0.17969 0.15625
vt 0.17969 0.14844
vt 0.18359 0.14844
vt 0.18359 0.15625

g 101_Piece2_12_0
usemtl 101_Material
f 1/1/3 2/2/3 3/3/3 4/4/3
f 3/1/6 2/2/6 5/3/6 6/4/6
f 7/1/2 5/2/2 2/3/2 1/4/2
f 4/1/1 3/2/1 6/3/1 8/4/1
f 9/5/3 1/6/3 4/7/3 10/8/3
f 11/5/2 7/6/2 1/7/2 9/8/2
f 10/5/1 4/6/1 8/7/1 12/8/1
f 13/9/3 9/10/3 10/11/3 14/12/3
f 15/9/2 11/10/2 9/11/2 13/12/2
f 14/9/1 10/10/1 12/11/1 16/12/1
f 17/9/3 13/10/3 14/11/3 18/12/3
f 19/9/2 15/10/2 13/11/2 17/12/2
f 18/9/1 14/10/1 16/11/1 20/12/1
f 21/9/3 17/10/3 18/11/3 22/12/3
f 23/9/2 19/10/2 17/11/2 21/12/2
f 22/9/1 18/10/1 20/11/1 24/12/1
f 25/9/3 21/10/3 22/11/3 26/12/3
f 27/9/2 23/10/2 21/11/2 25/12/2
f 26/9/1 22/10/1 24/11/1 28/12/1
f 29/9/3 25/10/3 26/11/3 30/12/3
f 31/9/2 27/10/2 25/11/2 29/12/2
f 30/9/1 26/10/1 28/11/1 32/12/1
f 33/5/3 29/6/3 30/7/3 34/8/3
f 33/5/5 34/6/5 35/7/5 36/8/5
f 36/5/2 31/6/2 29/7/2 33/8/2
f 34/5/1 30/6/1 32/7/1 35/8/1
f 6/5/6 5/6/6 37/7/6 38/8/6
f 39/5/2 37/6/2 5/7/2 7/8/2
f 8/5/1 6/6/1 38/7/1 40/8/1
f 41/13/2 39/14/2 7/15/2 11/16/2
f 12/13/1 8/14/1 40/15/1 42/16/1
f 43/17/2 41/18/2 11/19/2 15/20/2
f 16/17/1 12/18/1 42/19/1 44/20/1
f 45/17/2 43/18/2 15/19/2 19/20/2
f 20/17/1 16/18/1 44/19/1 46/20/1
f 47/17/2 45/18/2 19/19/2 23/20/2
f 24/17/1 20/18/1 46/19/1 48/20/1
f 49/21/2 47/22/2 23/23/2 27/24/2
f 28/21/1 24/22/1 48/23/1 50/24/1
f 51/21/2 49/22/2 27/23/2 31/24/2
f 32/21/1 28/22/1 50/23/1 52/24/1
f 36/25/5 35/26/5 53/27/5 54/28/5
f 54/25/2 51/26/2 31/27/2 36/28/2
f 35/25/1 32/26/1 52/27/1 53/28/1
f 38/5/6 37/6/6 55/7/6 56/8/6
f 57/5/2 55/6/2 37/7/2 39/8/2
f 40/5/1 38/6/1 56/7/1 58/8/1
f 59/17/2 57/18/2 39/19/2 41/20/2
f 42/17/1 40/18/1 58/19/1 60/20/1
f 61/29/2 59/30/2 41/31/2 43/32/2
f 44/29/1 42/30/1 60/31/1 62/32/1
f 63/33/2 61/34/2 43/35/2 45/36/2
f 46/33/1 44/34/1 62/35/1 64/36/1
f 65/37/2 63/38/2 45/39/2 47/40/2
f 48/37/1 46/38/1 64/39/1 66/40/1
f 67/41/2 65/42/2 47/43/2 49/44/2
f 50/41/1 48/42/1 66/43/1 68/44/1
f 69/45/2 67/46/2 49/47/2 51/48/2
f 52/45/1 50/46/1 68/47/1 70/48/1
f 54/49/5 53/50/5 71/51/5 72/52/5
f 72/49/2 69/50/2 51/51/2 54/52/2
f 53/49/1 52/50/1 70/51/1 71/52/1
f 56/5/6 55/6/6 73/7/6 74/8/6
f 75/5/2 73/6/2 55/7/2 57/8/2
f 58/5/1 56/6/1 74/7/1 76/8/1
f 77/53/2 75/54/2 57/55/2 59/56/2
f 60/53/1 58/54/1 76/55/1 78/56/1
f 79/37/2 77/38/2 59/39/2 61/40/2
f 62/37/1 60/38/1 78/39/1 80/40/1
f 81/41/2 79/42/2 61/43/2 63/44/2
f 64/41/1 62/42/1 80/43/1 82/44/1
f 83/41/2 81/42/2 63/43/2 65/44/2
f 66/41/1 64/42/1 82/43/1 84/44/1
f 85/57/2 83/58/2 65/59/2 67/60/2
f 68/57/1 66/58/1 84/59/1 86/60/1
f 87/57/2 85/58/2 67/59/2 69/60/2
f 70/57/1 68/58/1 86/59/1 88/60/1
f 72/49/5 71/50/5 89/51/5 90/52/5
f 90/49/2 87/50/2 69/51/2 72/52/2
f 71/49/1 70/50/1 88/51/1 89/52/1
f 74/5/6 73/6/6 91/7/6 92/8/6
f 93/5/2 91/6/2 73/7/2 75/8/2
f 76/5/1 74/6/1 92/7/1 94/8/1
f 95/53/2 93/54/2 75/55/2 77/56/2
f 78/53/1 76/54/1 94/55/1 96/56/1
f 97/37/2 95/38/2 77/39/2 79/40/2
f 80/37/1 78/38/1 96/39/1 98/40/1
f 99/41/2 97/42/2 79/43/2 81/44/2
f 82/41/1 80/42/1 98/43/1 100/44/1
f 101/57/2 99/58/2 81/59/2 83/60/2
f 84/57/1 82/58/1 100/59/1 102/60/1
f 103/33/2 101/34/2 83/35/2 85/36/2
f 86/33/1 84/34/1 102/35/1 104/36/1
f 105/37/2 103/38/2 85/39/2 87/40/2
f 88/37/1 86/38/1 104/39/1 106/40/1
f 90/61/5 89/62/5 107/63/5 108/64/5
f 108/61/2 105/62/2 87/63/2 90/64/2
f 89/61/1 88/62/1 106/63/1 107/64/1
f 92/5/6 91/6/6 109/7/6 110/8/6
f 111/5/2 109/6/2 91/7/2 93/8/2
f 94/5/1 92/6/1 110/7/1 112/8/1
f 113/21/2 111/22/2 93/23/2 95/24/2
f 96/21/1 94/22/1 112/23/1 114/24/1
f 115/21/2 113/22/2 95/23/2 97/24/2
f 98/21/1 96/22/1 114/23/1 116/24/1
f 117/57/2 115/58/2 97/59/2 99/60/2
f 100/57/1 98/58/1 116/59/1 118/60/1
f 119/57/2 117/58/2 99/59/2 101/60/2
f 102/57/1 100/58/1 118/59/1 120/60/1
f 121/33/2 119/34/2 101/35/2 103/36/2
f 104/33/1 102/34/1 120/35/1 122/36/1
f 123/41/2 121/42/2 103/43/2 105/44/2
f 106/41/1 104/42/1 122/43/1 124/44/1
f 108/61/5 107/62/5 125/63/5 126/64/5
f 126/61/2 123/62/2 105/63/2 108/64/2
f 107/61/1 106/62/1 124/63/1 125/64/1
f 110/5/6 109/6/6 127/7/6 128/8/6
f 129/5/2 127/6/2 109/7/2 111/8/2
f 112/5/1 110/6/1 128/7/1 130/8/1
f 131/17/2 129/18/2 111/19/2 113/20/2
f 114/17/1 112/18/1 130/19/1 132/20/1
f 133/21/2 131/22/2 113/23/2 115/24/2
f 116/21/1 114/22/1 132/23/1 134/24/1
f 135/65/2 133/66/2 115/67/2 117/68/2
f 118/65/1 116/66/1 134/67/1 136/68/1
f 137/57/2 135/58/2 117/59/2 119/60/2
f 120/57/1 118/58/1 136/59/1 138/60/1
f 139/37/2 137/38/2 119/39/2 121/40/2
f 122/37/1 120/38/1 138/39/1 140/40/1
f 141/69/2 139/70/2 121/71/2 123/72/2
f 124/69/1 122/70/1 140/71/1 142/72/1
f 126/73/5 125/74/5 143/75/5 144/76/5
f 144/73/2 141/74/2 123/75/2 126/76/2
f 125/73/1 124/74/1 142/75/1 143/76/1
f 145/77/4 146/78/4 147/79/4 148/80/4
f 128/77/6 127/78/6 147/79/6 146/80/6
f 148/77/2 147/78/2 127/79/2 129/80/2
f 130/77/1 128/78/1 146/79/1 145/80/1
f 149/81/4 145/82/4 148/83/4 150/84/4
f 150/81/2 148/82/2 129/83/2 131/84/2
f 132/81/1 130/82/1 145/83/1 149/84/1
f 151/17/4 149/18/4 150/19/4 152/20/4
f 152/17/2 150/18/2 131/19/2 133/20/2
f 134/17/1 132/18/1 149/19/1 151/20/1
f 153/21/4 151/22/4 152/23/4 154/24/4
f 154/21/2 152/22/2 133/23/2 135/24/2
f 136/21/1 134/22/1 151/23/1 153/24/1
f 155/21/4 153/22/4 154/23/4 156/24/4
f 156/21/2 154/22/2 135/23/2 137/24/2
f 138/21/1 136/22/1 153/23/1 155/24/1
f 157/21/4 155/22/4 156/23/4 158/24/4
f 158/21/2 156/22/2 137/23/2 139/24/2
f 140/21/1 138/22/1 155/23/1 157/24/1
f 159/85/4 157/86/4 158/87/4 160/88/4
f 160/85/2 158/86/2 139/87/2 141/88/2
f 142/85/1 140/86/1 157/87/1 159/88/1
f 161/89/4 159/90/4 160/91/4 162/92/4
f 144/89/5 143/90/5 161/91/5 162/92/5
f 162/89/2 160/90/2 141/91/2 144/92/2
f 143/89/1 142/90/1 159/91/1 161/92/1
