# This file was created with Minddesk Qubicle 3.0
# Get Qubicle at www.getqubicle.com

mtllib 101_Piece1_21_0.mtl

vn 0.0 0.0 1.0
vn 0.0 0.0 -1.0
vn -1.0 0.0 0.0
vn 1.0 0.0 0.0
vn 0.0 1.0 0.0
vn 0.0 -1.0 0.0

v -56.00000 169.00000 0.00000
v -56.00000 168.00000 0.00000
v -56.00000 168.00000 1.00000
v -56.00000 169.00000 1.00000
v -55.00000 168.00000 0.00000
v -55.00000 168.00000 1.00000
v -55.00000 169.00000 0.00000
v -55.00000 169.00000 1.00000
v -56.00000 170.00000 0.00000
v -56.00000 170.00000 1.00000
v -55.00000 170.00000 0.00000
v -55.00000 170.00000 1.00000
v -56.00000 171.00000 0.00000
v -56.00000 171.00000 1.00000
v -55.00000 171.00000 0.00000
v -55.00000 171.00000 1.00000
v -56.00000 172.00000 0.00000
v -56.00000 172.00000 1.00000
v -55.00000 172.00000 0.00000
v -55.00000 172.00000 1.00000
v -56.00000 173.00000 0.00000
v -56.00000 173.00000 1.00000
v -55.00000 173.00000 0.00000
v -55.00000 173.00000 1.00000
v -56.00000 174.00000 0.00000
v -56.00000 174.00000 1.00000
v -55.00000 174.00000 0.00000
v -55.00000 174.00000 1.00000
v -56.00000 175.00000 0.00000
v -56.00000 175.00000 1.00000
v -55.00000 175.00000 0.00000
v -55.00000 175.00000 1.00000
v -56.00000 176.00000 0.00000
v -56.00000 176.00000 1.00000
v -55.00000 176.00000 1.00000
v -55.00000 176.00000 0.00000
v -54.00000 168.00000 0.00000
v -54.00000 168.00000 1.00000
v -54.00000 169.00000 0.00000
v -54.00000 169.00000 1.00000
v -54.00000 170.00000 0.00000
v -54.00000 170.00000 1.00000
v -54.00000 171.00000 0.00000
v -54.00000 171.00000 1.00000
v -54.00000 172.00000 0.00000
v -54.00000 172.00000 1.00000
v -54.00000 173.00000 0.00000
v -54.00000 173.00000 1.00000
v -54.00000 174.00000 0.00000
v -54.00000 174.00000 1.00000
v -54.00000 175.00000 0.00000
v -54.00000 175.00000 1.00000
v -54.00000 176.00000 1.00000
v -54.00000 176.00000 0.00000
v -53.00000 168.00000 0.00000
v -53.00000 168.00000 1.00000
v -53.00000 169.00000 0.00000
v -53.00000 169.00000 1.00000
v -53.00000 170.00000 0.00000
v -53.00000 170.00000 1.00000
v -53.00000 171.00000 0.00000
v -53.00000 171.00000 1.00000
v -53.00000 172.00000 0.00000
v -53.00000 172.00000 1.00000
v -53.00000 173.00000 0.00000
v -53.00000 173.00000 1.00000
v -53.00000 174.00000 0.00000
v -53.00000 174.00000 1.00000
v -53.00000 175.00000 0.00000
v -53.00000 175.00000 1.00000
v -53.00000 176.00000 1.00000
v -53.00000 176.00000 0.00000
v -52.00000 168.00000 0.00000
v -52.00000 168.00000 1.00000
v -52.00000 169.00000 0.00000
v -52.00000 169.00000 1.00000
v -52.00000 170.00000 0.00000
v -52.00000 170.00000 1.00000
v -52.00000 171.00000 0.00000
v -52.00000 171.00000 1.00000
v -52.00000 172.00000 0.00000
v -52.00000 172.00000 1.00000
v -52.00000 173.00000 0.00000
v -52.00000 173.00000 1.00000
v -52.00000 174.00000 0.00000
v -52.00000 174.00000 1.00000
v -52.00000 175.00000 0.00000
v -52.00000 175.00000 1.00000
v -52.00000 176.00000 1.00000
v -52.00000 176.00000 0.00000
v -51.00000 168.00000 0.00000
v -51.00000 168.00000 1.00000
v -51.00000 169.00000 0.00000
v -51.00000 169.00000 1.00000
v -51.00000 170.00000 0.00000
v -51.00000 170.00000 1.00000
v -51.00000 171.00000 0.00000
v -51.00000 171.00000 1.00000
v -51.00000 172.00000 0.00000
v -51.00000 172.00000 1.00000
v -51.00000 173.00000 0.00000
v -51.00000 173.00000 1.00000
v -51.00000 174.00000 0.00000
v -51.00000 174.00000 1.00000
v -51.00000 175.00000 0.00000
v -51.00000 175.00000 1.00000
v -51.00000 176.00000 1.00000
v -51.00000 176.00000 0.00000
v -50.00000 168.00000 0.00000
v -50.00000 168.00000 1.00000
v -50.00000 169.00000 0.00000
v -50.00000 169.00000 1.00000
v -50.00000 170.00000 0.00000
v -50.00000 170.00000 1.00000
v -50.00000 171.00000 0.00000
v -50.00000 171.00000 1.00000
v -50.00000 172.00000 0.00000
v -50.00000 172.00000 1.00000
v -50.00000 173.00000 0.00000
v -50.00000 173.00000 1.00000
v -50.00000 174.00000 0.00000
v -50.00000 174.00000 1.00000
v -50.00000 175.00000 0.00000
v -50.00000 175.00000 1.00000
v -50.00000 176.00000 1.00000
v -50.00000 176.00000 0.00000
v -49.00000 168.00000 0.00000
v -49.00000 168.00000 1.00000
v -49.00000 169.00000 0.00000
v -49.00000 169.00000 1.00000
v -49.00000 170.00000 0.00000
v -49.00000 170.00000 1.00000
v -49.00000 171.00000 0.00000
v -49.00000 171.00000 1.00000
v -49.00000 172.00000 0.00000
v -49.00000 172.00000 1.00000
v -49.00000 173.00000 0.00000
v -49.00000 173.00000 1.00000
v -49.00000 174.00000 0.00000
v -49.00000 174.00000 1.00000
v -49.00000 175.00000 0.00000
v -49.00000 175.00000 1.00000
v -49.00000 176.00000 1.00000
v -49.00000 176.00000 0.00000
v -48.00000 169.00000 1.00000
v -48.00000 168.00000 1.00000
v -48.00000 168.00000 0.00000
v -48.00000 169.00000 0.00000
v -48.00000 170.00000 1.00000
v -48.00000 170.00000 0.00000
v -48.00000 171.00000 1.00000
v -48.00000 171.00000 0.00000
v -48.00000 172.00000 1.00000
v -48.00000 172.00000 0.00000
v -48.00000 173.00000 1.00000
v -48.00000 173.00000 0.00000
v -48.00000 174.00000 1.00000
v -48.00000 174.00000 0.00000
v -48.00000 175.00000 1.00000
v -48.00000 175.00000 0.00000
v -48.00000 176.00000 1.00000
v -48.00000 176.00000 0.00000

vt 0.12109 0.08594
vt 0.12109 0.07813
vt 0.12500 0.07813
vt 0.12500 0.08594
vt 0.09766 0.08594
vt 0.09766 0.07813
vt 0.10156 0.07813
vt 0.10156 0.08594
vt 0.10938 0.08594
vt 0.10938 0.07813
vt 0.11328 0.07813
vt 0.11328 0.08594
vt 0.13281 0.08594
vt 0.13281 0.07813
vt 0.13672 0.07813
vt 0.13672 0.08594

g 101_Piece1_21_0
usemtl 101_Material
f 1/1/3 2/2/3 3/3/3 4/4/3
f 3/1/6 2/2/6 5/3/6 6/4/6
f 7/1/2 5/2/2 2/3/2 1/4/2
f 4/1/1 3/2/1 6/3/1 8/4/1
f 9/1/3 1/2/3 4/3/3 10/4/3
f 11/1/2 7/2/2 1/3/2 9/4/2
f 10/1/1 4/2/1 8/3/1 12/4/1
f 13/5/3 9/6/3 10/7/3 14/8/3
f 15/5/2 11/6/2 9/7/2 13/8/2
f 14/5/1 10/6/1 12/7/1 16/8/1
f 17/9/3 13/10/3 14/11/3 18/12/3
f 19/9/2 15/10/2 13/11/2 17/12/2
f 18/9/1 14/10/1 16/11/1 20/12/1
f 21/5/3 17/6/3 18/7/3 22/8/3
f 23/5/2 19/6/2 17/7/2 21/8/2
f 22/5/1 18/6/1 20/7/1 24/8/1
f 25/5/3 21/6/3 22/7/3 26/8/3
f 27/5/2 23/6/2 21/7/2 25/8/2
f 26/5/1 22/6/1 24/7/1 28/8/1
f 29/1/3 25/2/3 26/3/3 30/4/3
f 31/1/2 27/2/2 25/3/2 29/4/2
f 30/1/1 26/2/1 28/3/1 32/4/1
f 33/5/3 29/6/3 30/7/3 34/8/3
f 33/5/5 34/6/5 35/7/5 36/8/5
f 36/5/2 31/6/2 29/7/2 33/8/2
f 34/5/1 30/6/1 32/7/1 35/8/1
f 6/9/6 5/10/6 37/11/6 38/12/6
f 39/9/2 37/10/2 5/11/2 7/12/2
f 8/9/1 6/10/1 38/11/1 40/12/1
f 41/5/2 39/6/2 7/7/2 11/8/2
f 12/5/1 8/6/1 40/7/1 42/8/1
f 43/9/2 41/10/2 11/11/2 15/12/2
f 16/9/1 12/10/1 42/11/1 44/12/1
f 45/1/2 43/2/2 15/3/2 19/4/2
f 20/1/1 16/2/1 44/3/1 46/4/1
f 47/5/2 45/6/2 19/7/2 23/8/2
f 24/5/1 20/6/1 46/7/1 48/8/1
f 49/1/2 47/2/2 23/3/2 27/4/2
f 28/1/1 24/2/1 48/3/1 50/4/1
f 51/9/2 49/10/2 27/11/2 31/12/2
f 32/9/1 28/10/1 50/11/1 52/12/1
f 36/13/5 35/14/5 53/15/5 54/16/5
f 54/13/2 51/14/2 31/15/2 36/16/2
f 35/13/1 32/14/1 52/15/1 53/16/1
f 38/1/6 37/2/6 55/3/6 56/4/6
f 57/1/2 55/2/2 37/3/2 39/4/2
f 40/1/1 38/2/1 56/3/1 58/4/1
f 59/9/2 57/10/2 39/11/2 41/12/2
f 42/9/1 40/10/1 58/11/1 60/12/1
f 61/5/2 59/6/2 41/7/2 43/8/2
f 44/5/1 42/6/1 60/7/1 62/8/1
f 63/5/2 61/6/2 43/7/2 45/8/2
f 46/5/1 44/6/1 62/7/1 64/8/1
f 65/9/2 63/10/2 45/11/2 47/12/2
f 48/9/1 46/10/1 64/11/1 66/12/1
f 67/1/2 65/2/2 47/3/2 49/4/2
f 50/1/1 48/2/1 66/3/1 68/4/1
f 69/5/2 67/6/2 49/7/2 51/8/2
f 52/5/1 50/6/1 68/7/1 70/8/1
f 54/1/5 53/2/5 71/3/5 72/4/5
f 72/1/2 69/2/2 51/3/2 54/4/2
f 53/1/1 52/2/1 70/3/1 71/4/1
f 56/5/6 55/6/6 73/7/6 74/8/6
f 75/5/2 73/6/2 55/7/2 57/8/2
f 58/5/1 56/6/1 74/7/1 76/8/1
f 77/5/2 75/6/2 57/7/2 59/8/2
f 60/5/1 58/6/1 76/7/1 78/8/1
f 79/9/2 77/10/2 59/11/2 61/12/2
f 62/9/1 60/10/1 78/11/1 80/12/1
f 81/1/2 79/2/2 61/3/2 63/4/2
f 64/1/1 62/2/1 80/3/1 82/4/1
f 83/9/2 81/10/2 63/11/2 65/12/2
f 66/9/1 64/10/1 82/11/1 84/12/1
f 85/5/2 83/6/2 65/7/2 67/8/2
f 68/5/1 66/6/1 84/7/1 86/8/1
f 87/9/2 85/10/2 67/11/2 69/12/2
f 70/9/1 68/10/1 86/11/1 88/12/1
f 72/1/5 71/2/5 89/3/5 90/4/5
f 90/1/2 87/2/2 69/3/2 72/4/2
f 71/1/1 70/2/1 88/3/1 89/4/1
f 74/5/6 73/6/6 91/7/6 92/8/6
f 93/5/2 91/6/2 73/7/2 75/8/2
f 76/5/1 74/6/1 92/7/1 94/8/1
f 95/1/2 93/2/2 75/3/2 77/4/2
f 78/1/1 76/2/1 94/3/1 96/4/1
f 97/1/2 95/2/2 77/3/2 79/4/2
f 80/1/1 78/2/1 96/3/1 98/4/1
f 99/9/2 97/10/2 79/11/2 81/12/2
f 82/9/1 80/10/1 98/11/1 100/12/1
f 101/1/2 99/2/2 81/3/2 83/4/2
f 84/1/1 82/2/1 100/3/1 102/4/1
f 103/5/2 101/6/2 83/7/2 85/8/2
f 86/5/1 84/6/1 102/7/1 104/8/1
f 105/1/2 103/2/2 85/3/2 87/4/2
f 88/1/1 86/2/1 104/3/1 106/4/1
f 90/9/5 89/10/5 107/11/5 108/12/5
f 108/9/2 105/10/2 87/11/2 90/12/2
f 89/9/1 88/10/1 106/11/1 107/12/1
f 92/1/6 91/2/6 109/3/6 110/4/6
f 111/1/2 109/2/2 91/3/2 93/4/2
f 94/1/1 92/2/1 110/3/1 112/4/1
f 113/9/2 111/10/2 93/11/2 95/12/2
f 96/9/1 94/10/1 112/11/1 114/12/1
f 115/1/2 113/2/2 95/3/2 97/4/2
f 98/1/1 96/2/1 114/3/1 116/4/1
f 117/5/2 115/6/2 97/7/2 99/8/2
f 100/5/1 98/6/1 116/7/1 118/8/1
f 119/5/2 117/6/2 99/7/2 101/8/2
f 102/5/1 100/6/1 118/7/1 120/8/1
f 121/1/2 119/2/2 101/3/2 103/4/2
f 104/1/1 102/2/1 120/3/1 122/4/1
f 123/9/2 121/10/2 103/11/2 105/12/2
f 106/9/1 104/10/1 122/11/1 124/12/1
f 108/5/5 107/6/5 125/7/5 126/8/5
f 126/5/2 123/6/2 105/7/2 108/8/2
f 107/5/1 106/6/1 124/7/1 125/8/1
f 110/5/6 109/6/6 127/7/6 128/8/6
f 129/5/2 127/6/2 109/7/2 111/8/2
f 112/5/1 110/6/1 128/7/1 130/8/1
f 131/5/2 129/6/2 111/7/2 113/8/2
f 114/5/1 112/6/1 130/7/1 132/8/1
f 133/9/2 131/10/2 113/11/2 115/12/2
f 116/9/1 114/10/1 132/11/1 134/12/1
f 135/5/2 133/6/2 115/7/2 117/8/2
f 118/5/1 116/6/1 134/7/1 136/8/1
f 137/9/2 135/10/2 117/11/2 119/12/2
f 120/9/1 118/10/1 136/11/1 138/12/1
f 139/1/2 137/2/2 119/3/2 121/4/2
f 122/1/1 120/2/1 138/3/1 140/4/1
f 141/5/2 139/6/2 121/7/2 123/8/2
f 124/5/1 122/6/1 140/7/1 142/8/1
f 126/5/5 125/6/5 143/7/5 144/8/5
f 144/5/2 141/6/2 123/7/2 126/8/2
f 125/5/1 124/6/1 142/7/1 143/8/1
f 145/5/4 146/6/4 147/7/4 148/8/4
f 128/5/6 127/6/6 147/7/6 146/8/6
f 148/5/2 147/6/2 127/7/2 129/8/2
f 130/5/1 128/6/1 146/7/1 145/8/1
f 149/9/4 145/10/4 148/11/4 150/12/4
f 150/9/2 148/10/2 129/11/2 131/12/2
f 132/9/1 130/10/1 145/11/1 149/12/1
f 151/1/4 149/2/4 150/3/4 152/4/4
f 152/1/2 150/2/2 131/3/2 133/4/2
f 134/1/1 132/2/1 149/3/1 151/4/1
f 153/5/4 151/6/4 152/7/4 154/8/4
f 154/5/2 152/6/2 133/7/2 135/8/2
f 136/5/1 134/6/1 151/7/1 153/8/1
f 155/5/4 153/6/4 154/7/4 156/8/4
f 156/5/2 154/6/2 135/7/2 137/8/2
f 138/5/1 136/6/1 153/7/1 155/8/1
f 157/1/4 155/2/4 156/3/4 158/4/4
f 158/1/2 156/2/2 137/3/2 139/4/2
f 140/1/1 138/2/1 155/3/1 157/4/1
f 159/9/4 157/10/4 158/11/4 160/12/4
f 160/9/2 158/10/2 139/11/2 141/12/2
f 142/9/1 140/10/1 157/11/1 159/12/1
f 161/1/4 159/2/4 160/3/4 162/4/4
f 144/1/5 143/2/5 161/3/5 162/4/5
f 162/1/2 160/2/2 141/3/2 144/4/2
f 143/1/1 142/2/1 159/3/1 161/4/1
