# This file was created with Minddesk Qubicle 3.0
# Get Qubicle at www.getqubicle.com

mtllib 101_Piece14_3_0.mtl

vn 0.0 0.0 1.0
vn 0.0 0.0 -1.0
vn -1.0 0.0 0.0
vn 1.0 0.0 0.0
vn 0.0 1.0 0.0
vn 0.0 -1.0 0.0

v 48.00000 25.00000 0.00000
v 48.00000 24.00000 0.00000
v 48.00000 24.00000 1.00000
v 48.00000 25.00000 1.00000
v 49.00000 24.00000 0.00000
v 49.00000 24.00000 1.00000
v 49.00000 25.00000 0.00000
v 49.00000 25.00000 1.00000
v 48.00000 26.00000 0.00000
v 48.00000 26.00000 1.00000
v 49.00000 26.00000 0.00000
v 49.00000 26.00000 1.00000
v 48.00000 27.00000 0.00000
v 48.00000 27.00000 1.00000
v 49.00000 27.00000 0.00000
v 49.00000 27.00000 1.00000
v 48.00000 28.00000 0.00000
v 48.00000 28.00000 1.00000
v 49.00000 28.00000 0.00000
v 49.00000 28.00000 1.00000
v 48.00000 29.00000 0.00000
v 48.00000 29.00000 1.00000
v 49.00000 29.00000 0.00000
v 49.00000 29.00000 1.00000
v 48.00000 30.00000 0.00000
v 48.00000 30.00000 1.00000
v 49.00000 30.00000 0.00000
v 49.00000 30.00000 1.00000
v 48.00000 31.00000 0.00000
v 48.00000 31.00000 1.00000
v 49.00000 31.00000 0.00000
v 49.00000 31.00000 1.00000
v 48.00000 32.00000 0.00000
v 48.00000 32.00000 1.00000
v 49.00000 32.00000 1.00000
v 49.00000 32.00000 0.00000
v 50.00000 24.00000 0.00000
v 50.00000 24.00000 1.00000
v 50.00000 25.00000 0.00000
v 50.00000 25.00000 1.00000
v 50.00000 26.00000 0.00000
v 50.00000 26.00000 1.00000
v 50.00000 27.00000 0.00000
v 50.00000 27.00000 1.00000
v 50.00000 28.00000 0.00000
v 50.00000 28.00000 1.00000
v 50.00000 29.00000 0.00000
v 50.00000 29.00000 1.00000
v 50.00000 30.00000 0.00000
v 50.00000 30.00000 1.00000
v 50.00000 31.00000 0.00000
v 50.00000 31.00000 1.00000
v 50.00000 32.00000 1.00000
v 50.00000 32.00000 0.00000
v 51.00000 24.00000 0.00000
v 51.00000 24.00000 1.00000
v 51.00000 25.00000 0.00000
v 51.00000 25.00000 1.00000
v 51.00000 26.00000 0.00000
v 51.00000 26.00000 1.00000
v 51.00000 27.00000 0.00000
v 51.00000 27.00000 1.00000
v 51.00000 28.00000 0.00000
v 51.00000 28.00000 1.00000
v 51.00000 29.00000 0.00000
v 51.00000 29.00000 1.00000
v 51.00000 30.00000 0.00000
v 51.00000 30.00000 1.00000
v 51.00000 31.00000 0.00000
v 51.00000 31.00000 1.00000
v 51.00000 32.00000 1.00000
v 51.00000 32.00000 0.00000
v 52.00000 24.00000 0.00000
v 52.00000 24.00000 1.00000
v 52.00000 25.00000 0.00000
v 52.00000 25.00000 1.00000
v 52.00000 26.00000 0.00000
v 52.00000 26.00000 1.00000
v 52.00000 27.00000 0.00000
v 52.00000 27.00000 1.00000
v 52.00000 28.00000 0.00000
v 52.00000 28.00000 1.00000
v 52.00000 29.00000 0.00000
v 52.00000 29.00000 1.00000
v 52.00000 30.00000 0.00000
v 52.00000 30.00000 1.00000
v 52.00000 31.00000 0.00000
v 52.00000 31.00000 1.00000
v 52.00000 32.00000 1.00000
v 52.00000 32.00000 0.00000
v 53.00000 24.00000 0.00000
v 53.00000 24.00000 1.00000
v 53.00000 25.00000 0.00000
v 53.00000 25.00000 1.00000
v 53.00000 26.00000 0.00000
v 53.00000 26.00000 1.00000
v 53.00000 27.00000 0.00000
v 53.00000 27.00000 1.00000
v 53.00000 28.00000 0.00000
v 53.00000 28.00000 1.00000
v 53.00000 29.00000 0.00000
v 53.00000 29.00000 1.00000
v 53.00000 30.00000 0.00000
v 53.00000 30.00000 1.00000
v 53.00000 31.00000 0.00000
v 53.00000 31.00000 1.00000
v 53.00000 32.00000 1.00000
v 53.00000 32.00000 0.00000
v 54.00000 24.00000 0.00000
v 54.00000 24.00000 1.00000
v 54.00000 25.00000 0.00000
v 54.00000 25.00000 1.00000
v 54.00000 26.00000 0.00000
v 54.00000 26.00000 1.00000
v 54.00000 27.00000 0.00000
v 54.00000 27.00000 1.00000
v 54.00000 28.00000 0.00000
v 54.00000 28.00000 1.00000
v 54.00000 29.00000 0.00000
v 54.00000 29.00000 1.00000
v 54.00000 30.00000 0.00000
v 54.00000 30.00000 1.00000
v 54.00000 31.00000 0.00000
v 54.00000 31.00000 1.00000
v 54.00000 32.00000 1.00000
v 54.00000 32.00000 0.00000
v 55.00000 24.00000 0.00000
v 55.00000 24.00000 1.00000
v 55.00000 25.00000 0.00000
v 55.00000 25.00000 1.00000
v 55.00000 26.00000 0.00000
v 55.00000 26.00000 1.00000
v 55.00000 27.00000 0.00000
v 55.00000 27.00000 1.00000
v 55.00000 28.00000 0.00000
v 55.00000 28.00000 1.00000
v 55.00000 29.00000 0.00000
v 55.00000 29.00000 1.00000
v 55.00000 30.00000 0.00000
v 55.00000 30.00000 1.00000
v 55.00000 31.00000 0.00000
v 55.00000 31.00000 1.00000
v 55.00000 32.00000 1.00000
v 55.00000 32.00000 0.00000
v 56.00000 25.00000 1.00000
v 56.00000 24.00000 1.00000
v 56.00000 24.00000 0.00000
v 56.00000 25.00000 0.00000
v 56.00000 26.00000 1.00000
v 56.00000 26.00000 0.00000
v 56.00000 27.00000 1.00000
v 56.00000 27.00000 0.00000
v 56.00000 28.00000 1.00000
v 56.00000 28.00000 0.00000
v 56.00000 29.00000 1.00000
v 56.00000 29.00000 0.00000
v 56.00000 30.00000 1.00000
v 56.00000 30.00000 0.00000
v 56.00000 31.00000 1.00000
v 56.00000 31.00000 0.00000
v 56.00000 32.00000 1.00000
v 56.00000 32.00000 0.00000

vt 0.00391 0.01563
vt 0.00391 0.00781
vt 0.00781 0.00781
vt 0.00781 0.01563
vt 0.35547 0.43750
vt 0.35547 0.42969
vt 0.35938 0.42969
vt 0.35938 0.43750
vt 0.16797 0.25000
vt 0.16797 0.24219
vt 0.17188 0.24219
vt 0.17188 0.25000
vt 0.20313 0.25000
vt 0.20313 0.24219
vt 0.20703 0.24219
vt 0.20703 0.25000
vt 0.21484 0.25000
vt 0.21484 0.24219
vt 0.21875 0.24219
vt 0.21875 0.25000
vt 0.46094 0.36719
vt 0.46094 0.35938
vt 0.46484 0.35938
vt 0.46484 0.36719
vt 0.34375 0.43750
vt 0.34375 0.42969
vt 0.34766 0.42969
vt 0.34766 0.43750
vt 0.19141 0.25000
vt 0.19141 0.24219
vt 0.19531 0.24219
vt 0.19531 0.25000
vt 0.42578 0.36719
vt 0.42578 0.35938
vt 0.42969 0.35938
vt 0.42969 0.36719

g 101_Piece14_3_0
usemtl 101_Material
f 1/1/3 2/2/3 3/3/3 4/4/3
f 3/1/6 2/2/6 5/3/6 6/4/6
f 7/1/2 5/2/2 2/3/2 1/4/2
f 4/1/1 3/2/1 6/3/1 8/4/1
f 9/1/3 1/2/3 4/3/3 10/4/3
f 11/1/2 7/2/2 1/3/2 9/4/2
f 10/1/1 4/2/1 8/3/1 12/4/1
f 13/1/3 9/2/3 10/3/3 14/4/3
f 15/1/2 11/2/2 9/3/2 13/4/2
f 14/1/1 10/2/1 12/3/1 16/4/1
f 17/1/3 13/2/3 14/3/3 18/4/3
f 19/1/2 15/2/2 13/3/2 17/4/2
f 18/1/1 14/2/1 16/3/1 20/4/1
f 21/1/3 17/2/3 18/3/3 22/4/3
f 23/1/2 19/2/2 17/3/2 21/4/2
f 22/1/1 18/2/1 20/3/1 24/4/1
f 25/5/3 21/6/3 22/7/3 26/8/3
f 27/5/2 23/6/2 21/7/2 25/8/2
f 26/5/1 22/6/1 24/7/1 28/8/1
f 29/9/3 25/10/3 26/11/3 30/12/3
f 31/9/2 27/10/2 25/11/2 29/12/2
f 30/9/1 26/10/1 28/11/1 32/12/1
f 33/13/3 29/14/3 30/15/3 34/16/3
f 33/13/5 34/14/5 35/15/5 36/16/5
f 36/13/2 31/14/2 29/15/2 33/16/2
f 34/13/1 30/14/1 32/15/1 35/16/1
f 6/1/6 5/2/6 37/3/6 38/4/6
f 39/1/2 37/2/2 5/3/2 7/4/2
f 8/1/1 6/2/1 38/3/1 40/4/1
f 41/1/2 39/2/2 7/3/2 11/4/2
f 12/1/1 8/2/1 40/3/1 42/4/1
f 43/1/2 41/2/2 11/3/2 15/4/2
f 16/1/1 12/2/1 42/3/1 44/4/1
f 45/1/2 43/2/2 15/3/2 19/4/2
f 20/1/1 16/2/1 44/3/1 46/4/1
f 47/1/2 45/2/2 19/3/2 23/4/2
f 24/1/1 20/2/1 46/3/1 48/4/1
f 49/9/2 47/10/2 23/11/2 27/12/2
f 28/9/1 24/10/1 48/11/1 50/12/1
f 51/13/2 49/14/2 27/15/2 31/16/2
f 32/13/1 28/14/1 50/15/1 52/16/1
f 36/17/5 35/18/5 53/19/5 54/20/5
f 54/17/2 51/18/2 31/19/2 36/20/2
f 35/17/1 32/18/1 52/19/1 53/20/1
f 38/1/6 37/2/6 55/3/6 56/4/6
f 57/1/2 55/2/2 37/3/2 39/4/2
f 40/1/1 38/2/1 56/3/1 58/4/1
f 59/1/2 57/2/2 39/3/2 41/4/2
f 42/1/1 40/2/1 58/3/1 60/4/1
f 61/1/2 59/2/2 41/3/2 43/4/2
f 44/1/1 42/2/1 60/3/1 62/4/1
f 63/1/2 61/2/2 43/3/2 45/4/2
f 46/1/1 44/2/1 62/3/1 64/4/1
f 65/21/2 63/22/2 45/23/2 47/24/2
f 48/21/1 46/22/1 64/23/1 66/24/1
f 67/25/2 65/26/2 47/27/2 49/28/2
f 50/25/1 48/26/1 66/27/1 68/28/1
f 69/5/2 67/6/2 49/7/2 51/8/2
f 52/5/1 50/6/1 68/7/1 70/8/1
f 54/29/5 53/30/5 71/31/5 72/32/5
f 72/29/2 69/30/2 51/31/2 54/32/2
f 53/29/1 52/30/1 70/31/1 71/32/1
f 56/1/6 55/2/6 73/3/6 74/4/6
f 75/1/2 73/2/2 55/3/2 57/4/2
f 58/1/1 56/2/1 74/3/1 76/4/1
f 77/1/2 75/2/2 57/3/2 59/4/2
f 60/1/1 58/2/1 76/3/1 78/4/1
f 79/1/2 77/2/2 59/3/2 61/4/2
f 62/1/1 60/2/1 78/3/1 80/4/1
f 81/1/2 79/2/2 61/3/2 63/4/2
f 64/1/1 62/2/1 80/3/1 82/4/1
f 83/33/2 81/34/2 63/35/2 65/36/2
f 66/33/1 64/34/1 82/35/1 84/36/1
f 85/1/2 83/2/2 65/3/2 67/4/2
f 68/1/1 66/2/1 84/3/1 86/4/1
f 87/1/2 85/2/2 67/3/2 69/4/2
f 70/1/1 68/2/1 86/3/1 88/4/1
f 72/25/5 71/26/5 89/27/5 90/28/5
f 90/25/2 87/26/2 69/27/2 72/28/2
f 71/25/1 70/26/1 88/27/1 89/28/1
f 74/1/6 73/2/6 91/3/6 92/4/6
f 93/1/2 91/2/2 73/3/2 75/4/2
f 76/1/1 74/2/1 92/3/1 94/4/1
f 95/1/2 93/2/2 75/3/2 77/4/2
f 78/1/1 76/2/1 94/3/1 96/4/1
f 97/1/2 95/2/2 77/3/2 79/4/2
f 80/1/1 78/2/1 96/3/1 98/4/1
f 99/33/2 97/34/2 79/35/2 81/36/2
f 82/33/1 80/34/1 98/35/1 100/36/1
f 101/1/2 99/2/2 81/3/2 83/4/2
f 84/1/1 82/2/1 100/3/1 102/4/1
f 103/1/2 101/2/2 83/3/2 85/4/2
f 86/1/1 84/2/1 102/3/1 104/4/1
f 105/1/2 103/2/2 85/3/2 87/4/2
f 88/1/1 86/2/1 104/3/1 106/4/1
f 90/9/5 89/10/5 107/11/5 108/12/5
f 108/9/2 105/10/2 87/11/2 90/12/2
f 89/9/1 88/10/1 106/11/1 107/12/1
f 92/1/6 91/2/6 109/3/6 110/4/6
f 111/1/2 109/2/2 91/3/2 93/4/2
f 94/1/1 92/2/1 110/3/1 112/4/1
f 113/1/2 111/2/2 93/3/2 95/4/2
f 96/1/1 94/2/1 112/3/1 114/4/1
f 115/1/2 113/2/2 95/3/2 97/4/2
f 98/1/1 96/2/1 114/3/1 116/4/1
f 117/1/2 115/2/2 97/3/2 99/4/2
f 100/1/1 98/2/1 116/3/1 118/4/1
f 119/1/2 117/2/2 99/3/2 101/4/2
f 102/1/1 100/2/1 118/3/1 120/4/1
f 121/25/2 119/26/2 101/27/2 103/28/2
f 104/25/1 102/26/1 120/27/1 122/28/1
f 123/1/2 121/2/2 103/3/2 105/4/2
f 106/1/1 104/2/1 122/3/1 124/4/1
f 108/1/5 107/2/5 125/3/5 126/4/5
f 126/1/2 123/2/2 105/3/2 108/4/2
f 107/1/1 106/2/1 124/3/1 125/4/1
f 110/1/6 109/2/6 127/3/6 128/4/6
f 129/1/2 127/2/2 109/3/2 111/4/2
f 112/1/1 110/2/1 128/3/1 130/4/1
f 131/1/2 129/2/2 111/3/2 113/4/2
f 114/1/1 112/2/1 130/3/1 132/4/1
f 133/1/2 131/2/2 113/3/2 115/4/2
f 116/1/1 114/2/1 132/3/1 134/4/1
f 135/1/2 133/2/2 115/3/2 117/4/2
f 118/1/1 116/2/1 134/3/1 136/4/1
f 137/1/2 135/2/2 117/3/2 119/4/2
f 120/1/1 118/2/1 136/3/1 138/4/1
f 139/1/2 137/2/2 119/3/2 121/4/2
f 122/1/1 120/2/1 138/3/1 140/4/1
f 141/1/2 139/2/2 121/3/2 123/4/2
f 124/1/1 122/2/1 140/3/1 142/4/1
f 126/1/5 125/2/5 143/3/5 144/4/5
f 144/1/2 141/2/2 123/3/2 126/4/2
f 125/1/1 124/2/1 142/3/1 143/4/1
f 145/1/4 146/2/4 147/3/4 148/4/4
f 128/1/6 127/2/6 147/3/6 146/4/6
f 148/1/2 147/2/2 127/3/2 129/4/2
f 130/1/1 128/2/1 146/3/1 145/4/1
f 149/1/4 145/2/4 148/3/4 150/4/4
f 150/1/2 148/2/2 129/3/2 131/4/2
f 132/1/1 130/2/1 145/3/1 149/4/1
f 151/1/4 149/2/4 150/3/4 152/4/4
f 152/1/2 150/2/2 131/3/2 133/4/2
f 134/1/1 132/2/1 149/3/1 151/4/1
f 153/1/4 151/2/4 152/3/4 154/4/4
f 154/1/2 152/2/2 133/3/2 135/4/2
f 136/1/1 134/2/1 151/3/1 153/4/1
f 155/1/4 153/2/4 154/3/4 156/4/4
f 156/1/2 154/2/2 135/3/2 137/4/2
f 138/1/1 136/2/1 153/3/1 155/4/1
f 157/1/4 155/2/4 156/3/4 158/4/4
f 158/1/2 156/2/2 137/3/2 139/4/2
f 140/1/1 138/2/1 155/3/1 157/4/1
f 159/1/4 157/2/4 158/3/4 160/4/4
f 160/1/2 158/2/2 139/3/2 141/4/2
f 142/1/1 140/2/1 157/3/1 159/4/1
f 161/1/4 159/2/4 160/3/4 162/4/4
f 144/1/5 143/2/5 161/3/5 162/4/5
f 162/1/2 160/2/2 141/3/2 144/4/2
f 143/1/1 142/2/1 159/3/1 161/4/1
