# This file was created with Minddesk Qubicle 3.0
# Get Qubicle at www.getqubicle.com

mtllib 101_Piece11_18_0.mtl

vn 0.0 0.0 1.0
vn 0.0 0.0 -1.0
vn -1.0 0.0 0.0
vn 1.0 0.0 0.0
vn 0.0 1.0 0.0
vn 0.0 -1.0 0.0

v 24.00000 145.00000 0.00000
v 24.00000 144.00000 0.00000
v 24.00000 144.00000 1.00000
v 24.00000 145.00000 1.00000
v 25.00000 144.00000 0.00000
v 25.00000 144.00000 1.00000
v 25.00000 145.00000 0.00000
v 25.00000 145.00000 1.00000
v 24.00000 146.00000 0.00000
v 24.00000 146.00000 1.00000
v 25.00000 146.00000 0.00000
v 25.00000 146.00000 1.00000
v 24.00000 147.00000 0.00000
v 24.00000 147.00000 1.00000
v 25.00000 147.00000 0.00000
v 25.00000 147.00000 1.00000
v 24.00000 148.00000 0.00000
v 24.00000 148.00000 1.00000
v 25.00000 148.00000 0.00000
v 25.00000 148.00000 1.00000
v 24.00000 149.00000 0.00000
v 24.00000 149.00000 1.00000
v 25.00000 149.00000 0.00000
v 25.00000 149.00000 1.00000
v 24.00000 150.00000 0.00000
v 24.00000 150.00000 1.00000
v 25.00000 150.00000 0.00000
v 25.00000 150.00000 1.00000
v 24.00000 151.00000 0.00000
v 24.00000 151.00000 1.00000
v 25.00000 151.00000 0.00000
v 25.00000 151.00000 1.00000
v 24.00000 152.00000 0.00000
v 24.00000 152.00000 1.00000
v 25.00000 152.00000 1.00000
v 25.00000 152.00000 0.00000
v 26.00000 144.00000 0.00000
v 26.00000 144.00000 1.00000
v 26.00000 145.00000 0.00000
v 26.00000 145.00000 1.00000
v 26.00000 146.00000 0.00000
v 26.00000 146.00000 1.00000
v 26.00000 147.00000 0.00000
v 26.00000 147.00000 1.00000
v 26.00000 148.00000 0.00000
v 26.00000 148.00000 1.00000
v 26.00000 149.00000 0.00000
v 26.00000 149.00000 1.00000
v 26.00000 150.00000 0.00000
v 26.00000 150.00000 1.00000
v 26.00000 151.00000 0.00000
v 26.00000 151.00000 1.00000
v 26.00000 152.00000 1.00000
v 26.00000 152.00000 0.00000
v 27.00000 144.00000 0.00000
v 27.00000 144.00000 1.00000
v 27.00000 145.00000 0.00000
v 27.00000 145.00000 1.00000
v 27.00000 146.00000 0.00000
v 27.00000 146.00000 1.00000
v 27.00000 147.00000 0.00000
v 27.00000 147.00000 1.00000
v 27.00000 148.00000 0.00000
v 27.00000 148.00000 1.00000
v 27.00000 149.00000 0.00000
v 27.00000 149.00000 1.00000
v 27.00000 150.00000 0.00000
v 27.00000 150.00000 1.00000
v 27.00000 151.00000 0.00000
v 27.00000 151.00000 1.00000
v 27.00000 152.00000 1.00000
v 27.00000 152.00000 0.00000
v 28.00000 144.00000 0.00000
v 28.00000 144.00000 1.00000
v 28.00000 145.00000 0.00000
v 28.00000 145.00000 1.00000
v 28.00000 146.00000 0.00000
v 28.00000 146.00000 1.00000
v 28.00000 147.00000 0.00000
v 28.00000 147.00000 1.00000
v 28.00000 148.00000 0.00000
v 28.00000 148.00000 1.00000
v 28.00000 149.00000 0.00000
v 28.00000 149.00000 1.00000
v 28.00000 150.00000 0.00000
v 28.00000 150.00000 1.00000
v 28.00000 151.00000 0.00000
v 28.00000 151.00000 1.00000
v 28.00000 152.00000 1.00000
v 28.00000 152.00000 0.00000
v 29.00000 144.00000 0.00000
v 29.00000 144.00000 1.00000
v 29.00000 145.00000 0.00000
v 29.00000 145.00000 1.00000
v 29.00000 146.00000 0.00000
v 29.00000 146.00000 1.00000
v 29.00000 147.00000 0.00000
v 29.00000 147.00000 1.00000
v 29.00000 148.00000 0.00000
v 29.00000 148.00000 1.00000
v 29.00000 149.00000 0.00000
v 29.00000 149.00000 1.00000
v 29.00000 150.00000 0.00000
v 29.00000 150.00000 1.00000
v 29.00000 151.00000 0.00000
v 29.00000 151.00000 1.00000
v 29.00000 152.00000 1.00000
v 29.00000 152.00000 0.00000
v 30.00000 144.00000 0.00000
v 30.00000 144.00000 1.00000
v 30.00000 145.00000 0.00000
v 30.00000 145.00000 1.00000
v 30.00000 146.00000 0.00000
v 30.00000 146.00000 1.00000
v 30.00000 147.00000 0.00000
v 30.00000 147.00000 1.00000
v 30.00000 148.00000 0.00000
v 30.00000 148.00000 1.00000
v 30.00000 149.00000 0.00000
v 30.00000 149.00000 1.00000
v 30.00000 150.00000 0.00000
v 30.00000 150.00000 1.00000
v 30.00000 151.00000 0.00000
v 30.00000 151.00000 1.00000
v 30.00000 152.00000 1.00000
v 30.00000 152.00000 0.00000
v 31.00000 144.00000 0.00000
v 31.00000 144.00000 1.00000
v 31.00000 145.00000 0.00000
v 31.00000 145.00000 1.00000
v 31.00000 146.00000 0.00000
v 31.00000 146.00000 1.00000
v 31.00000 147.00000 0.00000
v 31.00000 147.00000 1.00000
v 31.00000 148.00000 0.00000
v 31.00000 148.00000 1.00000
v 31.00000 149.00000 0.00000
v 31.00000 149.00000 1.00000
v 31.00000 150.00000 0.00000
v 31.00000 150.00000 1.00000
v 31.00000 151.00000 0.00000
v 31.00000 151.00000 1.00000
v 31.00000 152.00000 1.00000
v 31.00000 152.00000 0.00000
v 32.00000 145.00000 1.00000
v 32.00000 144.00000 1.00000
v 32.00000 144.00000 0.00000
v 32.00000 145.00000 0.00000
v 32.00000 146.00000 1.00000
v 32.00000 146.00000 0.00000
v 32.00000 147.00000 1.00000
v 32.00000 147.00000 0.00000
v 32.00000 148.00000 1.00000
v 32.00000 148.00000 0.00000
v 32.00000 149.00000 1.00000
v 32.00000 149.00000 0.00000
v 32.00000 150.00000 1.00000
v 32.00000 150.00000 0.00000
v 32.00000 151.00000 1.00000
v 32.00000 151.00000 0.00000
v 32.00000 152.00000 1.00000
v 32.00000 152.00000 0.00000

vt 0.29688 0.17969
vt 0.29688 0.17188
vt 0.30078 0.17188
vt 0.30078 0.17969
vt 0.00391 0.03906
vt 0.00391 0.03125
vt 0.00781 0.03125
vt 0.00781 0.03906
vt 0.21484 0.41406
vt 0.21484 0.40625
vt 0.21875 0.40625
vt 0.21875 0.41406

g 101_Piece11_18_0
usemtl 101_Material
f 1/1/3 2/2/3 3/3/3 4/4/3
f 3/1/6 2/2/6 5/3/6 6/4/6
f 7/1/2 5/2/2 2/3/2 1/4/2
f 4/1/1 3/2/1 6/3/1 8/4/1
f 9/1/3 1/2/3 4/3/3 10/4/3
f 11/1/2 7/2/2 1/3/2 9/4/2
f 10/1/1 4/2/1 8/3/1 12/4/1
f 13/1/3 9/2/3 10/3/3 14/4/3
f 15/1/2 11/2/2 9/3/2 13/4/2
f 14/1/1 10/2/1 12/3/1 16/4/1
f 17/1/3 13/2/3 14/3/3 18/4/3
f 19/1/2 15/2/2 13/3/2 17/4/2
f 18/1/1 14/2/1 16/3/1 20/4/1
f 21/5/3 17/6/3 18/7/3 22/8/3
f 23/5/2 19/6/2 17/7/2 21/8/2
f 22/5/1 18/6/1 20/7/1 24/8/1
f 25/1/3 21/2/3 22/3/3 26/4/3
f 27/1/2 23/2/2 21/3/2 25/4/2
f 26/1/1 22/2/1 24/3/1 28/4/1
f 29/5/3 25/6/3 26/7/3 30/8/3
f 31/5/2 27/6/2 25/7/2 29/8/2
f 30/5/1 26/6/1 28/7/1 32/8/1
f 33/9/3 29/10/3 30/11/3 34/12/3
f 33/9/5 34/10/5 35/11/5 36/12/5
f 36/9/2 31/10/2 29/11/2 33/12/2
f 34/9/1 30/10/1 32/11/1 35/12/1
f 6/1/6 5/2/6 37/3/6 38/4/6
f 39/1/2 37/2/2 5/3/2 7/4/2
f 8/1/1 6/2/1 38/3/1 40/4/1
f 41/1/2 39/2/2 7/3/2 11/4/2
f 12/1/1 8/2/1 40/3/1 42/4/1
f 43/1/2 41/2/2 11/3/2 15/4/2
f 16/1/1 12/2/1 42/3/1 44/4/1
f 45/9/2 43/10/2 15/11/2 19/12/2
f 20/9/1 16/10/1 44/11/1 46/12/1
f 47/5/2 45/6/2 19/7/2 23/8/2
f 24/5/1 20/6/1 46/7/1 48/8/1
f 49/1/2 47/2/2 23/3/2 27/4/2
f 28/1/1 24/2/1 48/3/1 50/4/1
f 51/1/2 49/2/2 27/3/2 31/4/2
f 32/1/1 28/2/1 50/3/1 52/4/1
f 36/5/5 35/6/5 53/7/5 54/8/5
f 54/5/2 51/6/2 31/7/2 36/8/2
f 35/5/1 32/6/1 52/7/1 53/8/1
f 38/5/6 37/6/6 55/7/6 56/8/6
f 57/5/2 55/6/2 37/7/2 39/8/2
f 40/5/1 38/6/1 56/7/1 58/8/1
f 59/1/2 57/2/2 39/3/2 41/4/2
f 42/1/1 40/2/1 58/3/1 60/4/1
f 61/1/2 59/2/2 41/3/2 43/4/2
f 44/1/1 42/2/1 60/3/1 62/4/1
f 63/9/2 61/10/2 43/11/2 45/12/2
f 46/9/1 44/10/1 62/11/1 64/12/1
f 65/1/2 63/2/2 45/3/2 47/4/2
f 48/1/1 46/2/1 64/3/1 66/4/1
f 67/1/2 65/2/2 47/3/2 49/4/2
f 50/1/1 48/2/1 66/3/1 68/4/1
f 69/1/2 67/2/2 49/3/2 51/4/2
f 52/1/1 50/2/1 68/3/1 70/4/1
f 54/5/5 53/6/5 71/7/5 72/8/5
f 72/5/2 69/6/2 51/7/2 54/8/2
f 53/5/1 52/6/1 70/7/1 71/8/1
f 56/9/6 55/10/6 73/11/6 74/12/6
f 75/9/2 73/10/2 55/11/2 57/12/2
f 58/9/1 56/10/1 74/11/1 76/12/1
f 77/5/2 75/6/2 57/7/2 59/8/2
f 60/5/1 58/6/1 76/7/1 78/8/1
f 79/5/2 77/6/2 59/7/2 61/8/2
f 62/5/1 60/6/1 78/7/1 80/8/1
f 81/5/2 79/6/2 61/7/2 63/8/2
f 64/5/1 62/6/1 80/7/1 82/8/1
f 83/1/2 81/2/2 63/3/2 65/4/2
f 66/1/1 64/2/1 82/3/1 84/4/1
f 85/1/2 83/2/2 65/3/2 67/4/2
f 68/1/1 66/2/1 84/3/1 86/4/1
f 87/5/2 85/6/2 67/7/2 69/8/2
f 70/5/1 68/6/1 86/7/1 88/8/1
f 72/9/5 71/10/5 89/11/5 90/12/5
f 90/9/2 87/10/2 69/11/2 72/12/2
f 71/9/1 70/10/1 88/11/1 89/12/1
f 74/5/6 73/6/6 91/7/6 92/8/6
f 93/5/2 91/6/2 73/7/2 75/8/2
f 76/5/1 74/6/1 92/7/1 94/8/1
f 95/1/2 93/2/2 75/3/2 77/4/2
f 78/1/1 76/2/1 94/3/1 96/4/1
f 97/1/2 95/2/2 77/3/2 79/4/2
f 80/1/1 78/2/1 96/3/1 98/4/1
f 99/5/2 97/6/2 79/7/2 81/8/2
f 82/5/1 80/6/1 98/7/1 100/8/1
f 101/5/2 99/6/2 81/7/2 83/8/2
f 84/5/1 82/6/1 100/7/1 102/8/1
f 103/5/2 101/6/2 83/7/2 85/8/2
f 86/5/1 84/6/1 102/7/1 104/8/1
f 105/1/2 103/2/2 85/3/2 87/4/2
f 88/1/1 86/2/1 104/3/1 106/4/1
f 90/1/5 89/2/5 107/3/5 108/4/5
f 108/1/2 105/2/2 87/3/2 90/4/2
f 89/1/1 88/2/1 106/3/1 107/4/1
f 92/5/6 91/6/6 109/7/6 110/8/6
f 111/5/2 109/6/2 91/7/2 93/8/2
f 94/5/1 92/6/1 110/7/1 112/8/1
f 113/1/2 111/2/2 93/3/2 95/4/2
f 96/1/1 94/2/1 112/3/1 114/4/1
f 115/1/2 113/2/2 95/3/2 97/4/2
f 98/1/1 96/2/1 114/3/1 116/4/1
f 117/1/2 115/2/2 97/3/2 99/4/2
f 100/1/1 98/2/1 116/3/1 118/4/1
f 119/5/2 117/6/2 99/7/2 101/8/2
f 102/5/1 100/6/1 118/7/1 120/8/1
f 121/1/2 119/2/2 101/3/2 103/4/2
f 104/1/1 102/2/1 120/3/1 122/4/1
f 123/1/2 121/2/2 103/3/2 105/4/2
f 106/1/1 104/2/1 122/3/1 124/4/1
f 108/1/5 107/2/5 125/3/5 126/4/5
f 126/1/2 123/2/2 105/3/2 108/4/2
f 107/1/1 106/2/1 124/3/1 125/4/1
f 110/5/6 109/6/6 127/7/6 128/8/6
f 129/5/2 127/6/2 109/7/2 111/8/2
f 112/5/1 110/6/1 128/7/1 130/8/1
f 131/1/2 129/2/2 111/3/2 113/4/2
f 114/1/1 112/2/1 130/3/1 132/4/1
f 133/1/2 131/2/2 113/3/2 115/4/2
f 116/1/1 114/2/1 132/3/1 134/4/1
f 135/1/2 133/2/2 115/3/2 117/4/2
f 118/1/1 116/2/1 134/3/1 136/4/1
f 137/5/2 135/6/2 117/7/2 119/8/2
f 120/5/1 118/6/1 136/7/1 138/8/1
f 139/1/2 137/2/2 119/3/2 121/4/2
f 122/1/1 120/2/1 138/3/1 140/4/1
f 141/1/2 139/2/2 121/3/2 123/4/2
f 124/1/1 122/2/1 140/3/1 142/4/1
f 126/1/5 125/2/5 143/3/5 144/4/5
f 144/1/2 141/2/2 123/3/2 126/4/2
f 125/1/1 124/2/1 142/3/1 143/4/1
f 145/5/4 146/6/4 147/7/4 148/8/4
f 128/5/6 127/6/6 147/7/6 146/8/6
f 148/5/2 147/6/2 127/7/2 129/8/2
f 130/5/1 128/6/1 146/7/1 145/8/1
f 149/5/4 145/6/4 148/7/4 150/8/4
f 150/5/2 148/6/2 129/7/2 131/8/2
f 132/5/1 130/6/1 145/7/1 149/8/1
f 151/5/4 149/6/4 150/7/4 152/8/4
f 152/5/2 150/6/2 131/7/2 133/8/2
f 134/5/1 132/6/1 149/7/1 151/8/1
f 153/5/4 151/6/4 152/7/4 154/8/4
f 154/5/2 152/6/2 133/7/2 135/8/2
f 136/5/1 134/6/1 151/7/1 153/8/1
f 155/9/4 153/10/4 154/11/4 156/12/4
f 156/9/2 154/10/2 135/11/2 137/12/2
f 138/9/1 136/10/1 153/11/1 155/12/1
f 157/5/4 155/6/4 156/7/4 158/8/4
f 158/5/2 156/6/2 137/7/2 139/8/2
f 140/5/1 138/6/1 155/7/1 157/8/1
f 159/1/4 157/2/4 158/3/4 160/4/4
f 160/1/2 158/2/2 139/3/2 141/4/2
f 142/1/1 140/2/1 157/3/1 159/4/1
f 161/1/4 159/2/4 160/3/4 162/4/4
f 144/1/5 143/2/5 161/3/5 162/4/5
f 162/1/2 160/2/2 141/3/2 144/4/2
f 143/1/1 142/2/1 159/3/1 161/4/1
