# This file was created with Minddesk Qubicle 3.0
# Get Qubicle at www.getqubicle.com

mtllib 101_Piece2_14_0.mtl

vn 0.0 0.0 1.0
vn 0.0 0.0 -1.0
vn -1.0 0.0 0.0
vn 1.0 0.0 0.0
vn 0.0 1.0 0.0
vn 0.0 -1.0 0.0

v -48.00000 113.00000 0.00000
v -48.00000 112.00000 0.00000
v -48.00000 112.00000 1.00000
v -48.00000 113.00000 1.00000
v -47.00000 112.00000 0.00000
v -47.00000 112.00000 1.00000
v -47.00000 113.00000 0.00000
v -47.00000 113.00000 1.00000
v -48.00000 114.00000 0.00000
v -48.00000 114.00000 1.00000
v -47.00000 114.00000 0.00000
v -47.00000 114.00000 1.00000
v -48.00000 115.00000 0.00000
v -48.00000 115.00000 1.00000
v -47.00000 115.00000 0.00000
v -47.00000 115.00000 1.00000
v -48.00000 116.00000 0.00000
v -48.00000 116.00000 1.00000
v -47.00000 116.00000 0.00000
v -47.00000 116.00000 1.00000
v -48.00000 117.00000 0.00000
v -48.00000 117.00000 1.00000
v -47.00000 117.00000 0.00000
v -47.00000 117.00000 1.00000
v -48.00000 118.00000 0.00000
v -48.00000 118.00000 1.00000
v -47.00000 118.00000 0.00000
v -47.00000 118.00000 1.00000
v -48.00000 119.00000 0.00000
v -48.00000 119.00000 1.00000
v -47.00000 119.00000 0.00000
v -47.00000 119.00000 1.00000
v -48.00000 120.00000 0.00000
v -48.00000 120.00000 1.00000
v -47.00000 120.00000 1.00000
v -47.00000 120.00000 0.00000
v -46.00000 112.00000 0.00000
v -46.00000 112.00000 1.00000
v -46.00000 113.00000 0.00000
v -46.00000 113.00000 1.00000
v -46.00000 114.00000 0.00000
v -46.00000 114.00000 1.00000
v -46.00000 115.00000 0.00000
v -46.00000 115.00000 1.00000
v -46.00000 116.00000 0.00000
v -46.00000 116.00000 1.00000
v -46.00000 117.00000 0.00000
v -46.00000 117.00000 1.00000
v -46.00000 118.00000 0.00000
v -46.00000 118.00000 1.00000
v -46.00000 119.00000 0.00000
v -46.00000 119.00000 1.00000
v -46.00000 120.00000 1.00000
v -46.00000 120.00000 0.00000
v -45.00000 112.00000 0.00000
v -45.00000 112.00000 1.00000
v -45.00000 113.00000 0.00000
v -45.00000 113.00000 1.00000
v -45.00000 114.00000 0.00000
v -45.00000 114.00000 1.00000
v -45.00000 115.00000 0.00000
v -45.00000 115.00000 1.00000
v -45.00000 116.00000 0.00000
v -45.00000 116.00000 1.00000
v -45.00000 117.00000 0.00000
v -45.00000 117.00000 1.00000
v -45.00000 118.00000 0.00000
v -45.00000 118.00000 1.00000
v -45.00000 119.00000 0.00000
v -45.00000 119.00000 1.00000
v -45.00000 120.00000 1.00000
v -45.00000 120.00000 0.00000
v -44.00000 112.00000 0.00000
v -44.00000 112.00000 1.00000
v -44.00000 113.00000 0.00000
v -44.00000 113.00000 1.00000
v -44.00000 114.00000 0.00000
v -44.00000 114.00000 1.00000
v -44.00000 115.00000 0.00000
v -44.00000 115.00000 1.00000
v -44.00000 116.00000 0.00000
v -44.00000 116.00000 1.00000
v -44.00000 117.00000 0.00000
v -44.00000 117.00000 1.00000
v -44.00000 118.00000 0.00000
v -44.00000 118.00000 1.00000
v -44.00000 119.00000 0.00000
v -44.00000 119.00000 1.00000
v -44.00000 120.00000 1.00000
v -44.00000 120.00000 0.00000
v -43.00000 112.00000 0.00000
v -43.00000 112.00000 1.00000
v -43.00000 113.00000 0.00000
v -43.00000 113.00000 1.00000
v -43.00000 114.00000 0.00000
v -43.00000 114.00000 1.00000
v -43.00000 115.00000 0.00000
v -43.00000 115.00000 1.00000
v -43.00000 116.00000 0.00000
v -43.00000 116.00000 1.00000
v -43.00000 117.00000 0.00000
v -43.00000 117.00000 1.00000
v -43.00000 118.00000 0.00000
v -43.00000 118.00000 1.00000
v -43.00000 119.00000 0.00000
v -43.00000 119.00000 1.00000
v -43.00000 120.00000 1.00000
v -43.00000 120.00000 0.00000
v -42.00000 112.00000 0.00000
v -42.00000 112.00000 1.00000
v -42.00000 113.00000 0.00000
v -42.00000 113.00000 1.00000
v -42.00000 114.00000 0.00000
v -42.00000 114.00000 1.00000
v -42.00000 115.00000 0.00000
v -42.00000 115.00000 1.00000
v -42.00000 116.00000 0.00000
v -42.00000 116.00000 1.00000
v -42.00000 117.00000 0.00000
v -42.00000 117.00000 1.00000
v -42.00000 118.00000 0.00000
v -42.00000 118.00000 1.00000
v -42.00000 119.00000 0.00000
v -42.00000 119.00000 1.00000
v -42.00000 120.00000 1.00000
v -42.00000 120.00000 0.00000
v -41.00000 112.00000 0.00000
v -41.00000 112.00000 1.00000
v -41.00000 113.00000 0.00000
v -41.00000 113.00000 1.00000
v -41.00000 114.00000 0.00000
v -41.00000 114.00000 1.00000
v -41.00000 115.00000 0.00000
v -41.00000 115.00000 1.00000
v -41.00000 116.00000 0.00000
v -41.00000 116.00000 1.00000
v -41.00000 117.00000 0.00000
v -41.00000 117.00000 1.00000
v -41.00000 118.00000 0.00000
v -41.00000 118.00000 1.00000
v -41.00000 119.00000 0.00000
v -41.00000 119.00000 1.00000
v -41.00000 120.00000 1.00000
v -41.00000 120.00000 0.00000
v -40.00000 113.00000 1.00000
v -40.00000 112.00000 1.00000
v -40.00000 112.00000 0.00000
v -40.00000 113.00000 0.00000
v -40.00000 114.00000 1.00000
v -40.00000 114.00000 0.00000
v -40.00000 115.00000 1.00000
v -40.00000 115.00000 0.00000
v -40.00000 116.00000 1.00000
v -40.00000 116.00000 0.00000
v -40.00000 117.00000 1.00000
v -40.00000 117.00000 0.00000
v -40.00000 118.00000 1.00000
v -40.00000 118.00000 0.00000
v -40.00000 119.00000 1.00000
v -40.00000 119.00000 0.00000
v -40.00000 120.00000 1.00000
v -40.00000 120.00000 0.00000

vt 0.26172 0.06250
vt 0.26172 0.05469
vt 0.26563 0.05469
vt 0.26563 0.06250
vt 0.27344 0.06250
vt 0.27344 0.05469
vt 0.27734 0.05469
vt 0.27734 0.06250
vt 0.21484 0.15625
vt 0.21484 0.14844
vt 0.21875 0.14844
vt 0.21875 0.15625
vt 0.22656 0.15625
vt 0.22656 0.14844
vt 0.23047 0.14844
vt 0.23047 0.15625
vt 0.23828 0.15625
vt 0.23828 0.14844
vt 0.24219 0.14844
vt 0.24219 0.15625
vt 0.25000 0.15625
vt 0.25000 0.14844
vt 0.25391 0.14844
vt 0.25391 0.15625
vt 0.32031 0.06250
vt 0.32031 0.05469
vt 0.32422 0.05469
vt 0.32422 0.06250
vt 0.33203 0.06250
vt 0.33203 0.05469
vt 0.33594 0.05469
vt 0.33594 0.06250
vt 0.41406 0.06250
vt 0.41406 0.05469
vt 0.41797 0.05469
vt 0.41797 0.06250
vt 0.30859 0.06250
vt 0.30859 0.05469
vt 0.31250 0.05469
vt 0.31250 0.06250
vt 0.26172 0.15625
vt 0.26172 0.14844
vt 0.26563 0.14844
vt 0.26563 0.15625
vt 0.06250 0.13281
vt 0.06250 0.12500
vt 0.06641 0.12500
vt 0.06641 0.13281
vt 0.35547 0.06250
vt 0.35547 0.05469
vt 0.35938 0.05469
vt 0.35938 0.06250
vt 0.28516 0.06250
vt 0.28516 0.05469
vt 0.28906 0.05469
vt 0.28906 0.06250
vt 0.36719 0.06250
vt 0.36719 0.05469
vt 0.37109 0.05469
vt 0.37109 0.06250
vt 0.37891 0.06250
vt 0.37891 0.05469
vt 0.38281 0.05469
vt 0.38281 0.06250
vt 0.27344 0.15625
vt 0.27344 0.14844
vt 0.27734 0.14844
vt 0.27734 0.15625
vt 0.39063 0.06250
vt 0.39063 0.05469
vt 0.39453 0.05469
vt 0.39453 0.06250
vt 0.28516 0.15625
vt 0.28516 0.14844
vt 0.28906 0.14844
vt 0.28906 0.15625
vt 0.29688 0.06250
vt 0.29688 0.05469
vt 0.30078 0.05469
vt 0.30078 0.06250

g 101_Piece2_14_0
usemtl 101_Material
f 1/1/3 2/2/3 3/3/3 4/4/3
f 3/1/6 2/2/6 5/3/6 6/4/6
f 7/1/2 5/2/2 2/3/2 1/4/2
f 4/1/1 3/2/1 6/3/1 8/4/1
f 9/1/3 1/2/3 4/3/3 10/4/3
f 11/1/2 7/2/2 1/3/2 9/4/2
f 10/1/1 4/2/1 8/3/1 12/4/1
f 13/5/3 9/6/3 10/7/3 14/8/3
f 15/5/2 11/6/2 9/7/2 13/8/2
f 14/5/1 10/6/1 12/7/1 16/8/1
f 17/9/3 13/10/3 14/11/3 18/12/3
f 19/9/2 15/10/2 13/11/2 17/12/2
f 18/9/1 14/10/1 16/11/1 20/12/1
f 21/13/3 17/14/3 18/15/3 22/16/3
f 23/13/2 19/14/2 17/15/2 21/16/2
f 22/13/1 18/14/1 20/15/1 24/16/1
f 25/17/3 21/18/3 22/19/3 26/20/3
f 27/17/2 23/18/2 21/19/2 25/20/2
f 26/17/1 22/18/1 24/19/1 28/20/1
f 29/21/3 25/22/3 26/23/3 30/24/3
f 31/21/2 27/22/2 25/23/2 29/24/2
f 30/21/1 26/22/1 28/23/1 32/24/1
f 33/25/3 29/26/3 30/27/3 34/28/3
f 33/25/5 34/26/5 35/27/5 36/28/5
f 36/25/2 31/26/2 29/27/2 33/28/2
f 34/25/1 30/26/1 32/27/1 35/28/1
f 6/1/6 5/2/6 37/3/6 38/4/6
f 39/1/2 37/2/2 5/3/2 7/4/2
f 8/1/1 6/2/1 38/3/1 40/4/1
f 41/1/2 39/2/2 7/3/2 11/4/2
f 12/1/1 8/2/1 40/3/1 42/4/1
f 43/29/2 41/30/2 11/31/2 15/32/2
f 16/29/1 12/30/1 42/31/1 44/32/1
f 45/9/2 43/10/2 15/11/2 19/12/2
f 20/9/1 16/10/1 44/11/1 46/12/1
f 47/1/2 45/2/2 19/3/2 23/4/2
f 24/1/1 20/2/1 46/3/1 48/4/1
f 49/1/2 47/2/2 23/3/2 27/4/2
f 28/1/1 24/2/1 48/3/1 50/4/1
f 51/33/2 49/34/2 27/35/2 31/36/2
f 32/33/1 28/34/1 50/35/1 52/36/1
f 36/25/5 35/26/5 53/27/5 54/28/5
f 54/25/2 51/26/2 31/27/2 36/28/2
f 35/25/1 32/26/1 52/27/1 53/28/1
f 38/37/6 37/38/6 55/39/6 56/40/6
f 57/37/2 55/38/2 37/39/2 39/40/2
f 40/37/1 38/38/1 56/39/1 58/40/1
f 59/41/2 57/42/2 39/43/2 41/44/2
f 42/41/1 40/42/1 58/43/1 60/44/1
f 61/45/2 59/46/2 41/47/2 43/48/2
f 44/45/1 42/46/1 60/47/1 62/48/1
f 63/9/2 61/10/2 43/11/2 45/12/2
f 46/9/1 44/10/1 62/11/1 64/12/1
f 65/1/2 63/2/2 45/3/2 47/4/2
f 48/1/1 46/2/1 64/3/1 66/4/1
f 67/1/2 65/2/2 47/3/2 49/4/2
f 50/1/1 48/2/1 66/3/1 68/4/1
f 69/49/2 67/50/2 49/51/2 51/52/2
f 52/49/1 50/50/1 68/51/1 70/52/1
f 54/53/5 53/54/5 71/55/5 72/56/5
f 72/53/2 69/54/2 51/55/2 54/56/2
f 53/53/1 52/54/1 70/55/1 71/56/1
f 56/29/6 55/30/6 73/31/6 74/32/6
f 75/29/2 73/30/2 55/31/2 57/32/2
f 58/29/1 56/30/1 74/31/1 76/32/1
f 77/1/2 75/2/2 57/3/2 59/4/2
f 60/1/1 58/2/1 76/3/1 78/4/1
f 79/33/2 77/34/2 59/35/2 61/36/2
f 62/33/1 60/34/1 78/35/1 80/36/1
f 81/9/2 79/10/2 61/11/2 63/12/2
f 64/9/1 62/10/1 80/11/1 82/12/1
f 83/1/2 81/2/2 63/3/2 65/4/2
f 66/1/1 64/2/1 82/3/1 84/4/1
f 85/1/2 83/2/2 65/3/2 67/4/2
f 68/1/1 66/2/1 84/3/1 86/4/1
f 87/57/2 85/58/2 67/59/2 69/60/2
f 70/57/1 68/58/1 86/59/1 88/60/1
f 72/53/5 71/54/5 89/55/5 90/56/5
f 90/53/2 87/54/2 69/55/2 72/56/2
f 71/53/1 70/54/1 88/55/1 89/56/1
f 74/1/6 73/2/6 91/3/6 92/4/6
f 93/1/2 91/2/2 73/3/2 75/4/2
f 76/1/1 74/2/1 92/3/1 94/4/1
f 95/1/2 93/2/2 75/3/2 77/4/2
f 78/1/1 76/2/1 94/3/1 96/4/1
f 97/61/2 95/62/2 77/63/2 79/64/2
f 80/61/1 78/62/1 96/63/1 98/64/1
f 99/65/2 97/66/2 79/67/2 81/68/2
f 82/65/1 80/66/1 98/67/1 100/68/1
f 101/37/2 99/38/2 81/39/2 83/40/2
f 84/37/1 82/38/1 100/39/1 102/40/1
f 103/37/2 101/38/2 83/39/2 85/40/2
f 86/37/1 84/38/1 102/39/1 104/40/1
f 105/53/2 103/54/2 85/55/2 87/56/2
f 88/53/1 86/54/1 104/55/1 106/56/1
f 90/53/5 89/54/5 107/55/5 108/56/5
f 108/53/2 105/54/2 87/55/2 90/56/2
f 89/53/1 88/54/1 106/55/1 107/56/1
f 92/1/6 91/2/6 109/3/6 110/4/6
f 111/1/2 109/2/2 91/3/2 93/4/2
f 94/1/1 92/2/1 110/3/1 112/4/1
f 113/1/2 111/2/2 93/3/2 95/4/2
f 96/1/1 94/2/1 112/3/1 114/4/1
f 115/69/2 113/70/2 95/71/2 97/72/2
f 98/69/1 96/70/1 114/71/1 116/72/1
f 117/73/2 115/74/2 97/75/2 99/76/2
f 100/73/1 98/74/1 116/75/1 118/76/1
f 119/29/2 117/30/2 99/31/2 101/32/2
f 102/29/1 100/30/1 118/31/1 120/32/1
f 121/1/2 119/2/2 101/3/2 103/4/2
f 104/1/1 102/2/1 120/3/1 122/4/1
f 123/29/2 121/30/2 103/31/2 105/32/2
f 106/29/1 104/30/1 122/31/1 124/32/1
f 108/53/5 107/54/5 125/55/5 126/56/5
f 126/53/2 123/54/2 105/55/2 108/56/2
f 107/53/1 106/54/1 124/55/1 125/56/1
f 110/53/6 109/54/6 127/55/6 128/56/6
f 129/53/2 127/54/2 109/55/2 111/56/2
f 112/53/1 110/54/1 128/55/1 130/56/1
f 131/53/2 129/54/2 111/55/2 113/56/2
f 114/53/1 112/54/1 130/55/1 132/56/1
f 133/53/2 131/54/2 113/55/2 115/56/2
f 116/53/1 114/54/1 132/55/1 134/56/1
f 135/77/2 133/78/2 115/79/2 117/80/2
f 118/77/1 116/78/1 134/79/1 136/80/1
f 137/1/2 135/2/2 117/3/2 119/4/2
f 120/1/1 118/2/1 136/3/1 138/4/1
f 139/1/2 137/2/2 119/3/2 121/4/2
f 122/1/1 120/2/1 138/3/1 140/4/1
f 141/5/2 139/6/2 121/7/2 123/8/2
f 124/5/1 122/6/1 140/7/1 142/8/1
f 126/53/5 125/54/5 143/55/5 144/56/5
f 144/53/2 141/54/2 123/55/2 126/56/2
f 125/53/1 124/54/1 142/55/1 143/56/1
f 145/1/4 146/2/4 147/3/4 148/4/4
f 128/1/6 127/2/6 147/3/6 146/4/6
f 148/1/2 147/2/2 127/3/2 129/4/2
f 130/1/1 128/2/1 146/3/1 145/4/1
f 149/1/4 145/2/4 148/3/4 150/4/4
f 150/1/2 148/2/2 129/3/2 131/4/2
f 132/1/1 130/2/1 145/3/1 149/4/1
f 151/69/4 149/70/4 150/71/4 152/72/4
f 152/69/2 150/70/2 131/71/2 133/72/2
f 134/69/1 132/70/1 149/71/1 151/72/1
f 153/37/4 151/38/4 152/39/4 154/40/4
f 154/37/2 152/38/2 133/39/2 135/40/2
f 136/37/1 134/38/1 151/39/1 153/40/1
f 155/1/4 153/2/4 154/3/4 156/4/4
f 156/1/2 154/2/2 135/3/2 137/4/2
f 138/1/1 136/2/1 153/3/1 155/4/1
f 157/1/4 155/2/4 156/3/4 158/4/4
f 158/1/2 156/2/2 137/3/2 139/4/2
f 140/1/1 138/2/1 155/3/1 157/4/1
f 159/33/4 157/34/4 158/35/4 160/36/4
f 160/33/2 158/34/2 139/35/2 141/36/2
f 142/33/1 140/34/1 157/35/1 159/36/1
f 161/25/4 159/26/4 160/27/4 162/28/4
f 144/25/5 143/26/5 161/27/5 162/28/5
f 162/25/2 160/26/2 141/27/2 144/28/2
f 143/25/1 142/26/1 159/27/1 161/28/1
