# This file was created with Minddesk Qubicle 3.0
# Get Qubicle at www.getqubicle.com

mtllib 101_Piece12_7_0.mtl

vn 0.0 0.0 1.0
vn 0.0 0.0 -1.0
vn -1.0 0.0 0.0
vn 1.0 0.0 0.0
vn 0.0 1.0 0.0
vn 0.0 -1.0 0.0

v 32.00000 57.00000 0.00000
v 32.00000 56.00000 0.00000
v 32.00000 56.00000 1.00000
v 32.00000 57.00000 1.00000
v 33.00000 56.00000 0.00000
v 33.00000 56.00000 1.00000
v 33.00000 57.00000 0.00000
v 33.00000 57.00000 1.00000
v 32.00000 58.00000 0.00000
v 32.00000 58.00000 1.00000
v 33.00000 58.00000 0.00000
v 33.00000 58.00000 1.00000
v 32.00000 59.00000 0.00000
v 32.00000 59.00000 1.00000
v 33.00000 59.00000 0.00000
v 33.00000 59.00000 1.00000
v 32.00000 60.00000 0.00000
v 32.00000 60.00000 1.00000
v 33.00000 60.00000 0.00000
v 33.00000 60.00000 1.00000
v 32.00000 61.00000 0.00000
v 32.00000 61.00000 1.00000
v 33.00000 61.00000 0.00000
v 33.00000 61.00000 1.00000
v 32.00000 62.00000 0.00000
v 32.00000 62.00000 1.00000
v 33.00000 62.00000 0.00000
v 33.00000 62.00000 1.00000
v 32.00000 63.00000 0.00000
v 32.00000 63.00000 1.00000
v 33.00000 63.00000 0.00000
v 33.00000 63.00000 1.00000
v 32.00000 64.00000 0.00000
v 32.00000 64.00000 1.00000
v 33.00000 64.00000 1.00000
v 33.00000 64.00000 0.00000
v 34.00000 56.00000 0.00000
v 34.00000 56.00000 1.00000
v 34.00000 57.00000 0.00000
v 34.00000 57.00000 1.00000
v 34.00000 58.00000 0.00000
v 34.00000 58.00000 1.00000
v 34.00000 59.00000 0.00000
v 34.00000 59.00000 1.00000
v 34.00000 60.00000 0.00000
v 34.00000 60.00000 1.00000
v 34.00000 61.00000 0.00000
v 34.00000 61.00000 1.00000
v 34.00000 62.00000 0.00000
v 34.00000 62.00000 1.00000
v 34.00000 63.00000 0.00000
v 34.00000 63.00000 1.00000
v 34.00000 64.00000 1.00000
v 34.00000 64.00000 0.00000
v 35.00000 56.00000 0.00000
v 35.00000 56.00000 1.00000
v 35.00000 57.00000 0.00000
v 35.00000 57.00000 1.00000
v 35.00000 58.00000 0.00000
v 35.00000 58.00000 1.00000
v 35.00000 59.00000 0.00000
v 35.00000 59.00000 1.00000
v 35.00000 60.00000 0.00000
v 35.00000 60.00000 1.00000
v 35.00000 61.00000 0.00000
v 35.00000 61.00000 1.00000
v 35.00000 62.00000 0.00000
v 35.00000 62.00000 1.00000
v 35.00000 63.00000 0.00000
v 35.00000 63.00000 1.00000
v 35.00000 64.00000 1.00000
v 35.00000 64.00000 0.00000
v 36.00000 56.00000 0.00000
v 36.00000 56.00000 1.00000
v 36.00000 57.00000 0.00000
v 36.00000 57.00000 1.00000
v 36.00000 58.00000 0.00000
v 36.00000 58.00000 1.00000
v 36.00000 59.00000 0.00000
v 36.00000 59.00000 1.00000
v 36.00000 60.00000 0.00000
v 36.00000 60.00000 1.00000
v 36.00000 61.00000 0.00000
v 36.00000 61.00000 1.00000
v 36.00000 62.00000 0.00000
v 36.00000 62.00000 1.00000
v 36.00000 63.00000 0.00000
v 36.00000 63.00000 1.00000
v 36.00000 64.00000 1.00000
v 36.00000 64.00000 0.00000
v 37.00000 56.00000 0.00000
v 37.00000 56.00000 1.00000
v 37.00000 57.00000 0.00000
v 37.00000 57.00000 1.00000
v 37.00000 58.00000 0.00000
v 37.00000 58.00000 1.00000
v 37.00000 59.00000 0.00000
v 37.00000 59.00000 1.00000
v 37.00000 60.00000 0.00000
v 37.00000 60.00000 1.00000
v 37.00000 61.00000 0.00000
v 37.00000 61.00000 1.00000
v 37.00000 62.00000 0.00000
v 37.00000 62.00000 1.00000
v 37.00000 63.00000 0.00000
v 37.00000 63.00000 1.00000
v 37.00000 64.00000 1.00000
v 37.00000 64.00000 0.00000
v 38.00000 56.00000 0.00000
v 38.00000 56.00000 1.00000
v 38.00000 57.00000 0.00000
v 38.00000 57.00000 1.00000
v 38.00000 58.00000 0.00000
v 38.00000 58.00000 1.00000
v 38.00000 59.00000 0.00000
v 38.00000 59.00000 1.00000
v 38.00000 60.00000 0.00000
v 38.00000 60.00000 1.00000
v 38.00000 61.00000 0.00000
v 38.00000 61.00000 1.00000
v 38.00000 62.00000 0.00000
v 38.00000 62.00000 1.00000
v 38.00000 63.00000 0.00000
v 38.00000 63.00000 1.00000
v 38.00000 64.00000 1.00000
v 38.00000 64.00000 0.00000
v 39.00000 56.00000 0.00000
v 39.00000 56.00000 1.00000
v 39.00000 57.00000 0.00000
v 39.00000 57.00000 1.00000
v 39.00000 58.00000 0.00000
v 39.00000 58.00000 1.00000
v 39.00000 59.00000 0.00000
v 39.00000 59.00000 1.00000
v 39.00000 60.00000 0.00000
v 39.00000 60.00000 1.00000
v 39.00000 61.00000 0.00000
v 39.00000 61.00000 1.00000
v 39.00000 62.00000 0.00000
v 39.00000 62.00000 1.00000
v 39.00000 63.00000 0.00000
v 39.00000 63.00000 1.00000
v 39.00000 64.00000 1.00000
v 39.00000 64.00000 0.00000
v 40.00000 57.00000 1.00000
v 40.00000 56.00000 1.00000
v 40.00000 56.00000 0.00000
v 40.00000 57.00000 0.00000
v 40.00000 58.00000 1.00000
v 40.00000 58.00000 0.00000
v 40.00000 59.00000 1.00000
v 40.00000 59.00000 0.00000
v 40.00000 60.00000 1.00000
v 40.00000 60.00000 0.00000
v 40.00000 61.00000 1.00000
v 40.00000 61.00000 0.00000
v 40.00000 62.00000 1.00000
v 40.00000 62.00000 0.00000
v 40.00000 63.00000 1.00000
v 40.00000 63.00000 0.00000
v 40.00000 64.00000 1.00000
v 40.00000 64.00000 0.00000

vt 0.39063 0.27344
vt 0.39063 0.26563
vt 0.39453 0.26563
vt 0.39453 0.27344
vt 0.44922 0.32031
vt 0.44922 0.31250
vt 0.45313 0.31250
vt 0.45313 0.32031
vt 0.43750 0.32031
vt 0.43750 0.31250
vt 0.44141 0.31250
vt 0.44141 0.32031
vt 0.42578 0.32031
vt 0.42578 0.31250
vt 0.42969 0.31250
vt 0.42969 0.32031
vt 0.42578 0.41406
vt 0.42578 0.40625
vt 0.42969 0.40625
vt 0.42969 0.41406

g 101_Piece12_7_0
usemtl 101_Material
f 1/1/3 2/2/3 3/3/3 4/4/3
f 3/1/6 2/2/6 5/3/6 6/4/6
f 7/1/2 5/2/2 2/3/2 1/4/2
f 4/1/1 3/2/1 6/3/1 8/4/1
f 9/1/3 1/2/3 4/3/3 10/4/3
f 11/1/2 7/2/2 1/3/2 9/4/2
f 10/1/1 4/2/1 8/3/1 12/4/1
f 13/1/3 9/2/3 10/3/3 14/4/3
f 15/1/2 11/2/2 9/3/2 13/4/2
f 14/1/1 10/2/1 12/3/1 16/4/1
f 17/5/3 13/6/3 14/7/3 18/8/3
f 19/5/2 15/6/2 13/7/2 17/8/2
f 18/5/1 14/6/1 16/7/1 20/8/1
f 21/5/3 17/6/3 18/7/3 22/8/3
f 23/5/2 19/6/2 17/7/2 21/8/2
f 22/5/1 18/6/1 20/7/1 24/8/1
f 25/1/3 21/2/3 22/3/3 26/4/3
f 27/1/2 23/2/2 21/3/2 25/4/2
f 26/1/1 22/2/1 24/3/1 28/4/1
f 29/1/3 25/2/3 26/3/3 30/4/3
f 31/1/2 27/2/2 25/3/2 29/4/2
f 30/1/1 26/2/1 28/3/1 32/4/1
f 33/1/3 29/2/3 30/3/3 34/4/3
f 33/1/5 34/2/5 35/3/5 36/4/5
f 36/1/2 31/2/2 29/3/2 33/4/2
f 34/1/1 30/2/1 32/3/1 35/4/1
f 6/5/6 5/6/6 37/7/6 38/8/6
f 39/5/2 37/6/2 5/7/2 7/8/2
f 8/5/1 6/6/1 38/7/1 40/8/1
f 41/9/2 39/10/2 7/11/2 11/12/2
f 12/9/1 8/10/1 40/11/1 42/12/1
f 43/13/2 41/14/2 11/15/2 15/16/2
f 16/13/1 12/14/1 42/15/1 44/16/1
f 45/13/2 43/14/2 15/15/2 19/16/2
f 20/13/1 16/14/1 44/15/1 46/16/1
f 47/13/2 45/14/2 19/15/2 23/16/2
f 24/13/1 20/14/1 46/15/1 48/16/1
f 49/9/2 47/10/2 23/11/2 27/12/2
f 28/9/1 24/10/1 48/11/1 50/12/1
f 51/9/2 49/10/2 27/11/2 31/12/2
f 32/9/1 28/10/1 50/11/1 52/12/1
f 36/1/5 35/2/5 53/3/5 54/4/5
f 54/1/2 51/2/2 31/3/2 36/4/2
f 35/1/1 32/2/1 52/3/1 53/4/1
f 38/1/6 37/2/6 55/3/6 56/4/6
f 57/1/2 55/2/2 37/3/2 39/4/2
f 40/1/1 38/2/1 56/3/1 58/4/1
f 59/17/2 57/18/2 39/19/2 41/20/2
f 42/17/1 40/18/1 58/19/1 60/20/1
f 61/1/2 59/2/2 41/3/2 43/4/2
f 44/1/1 42/2/1 60/3/1 62/4/1
f 63/1/2 61/2/2 43/3/2 45/4/2
f 46/1/1 44/2/1 62/3/1 64/4/1
f 65/1/2 63/2/2 45/3/2 47/4/2
f 48/1/1 46/2/1 64/3/1 66/4/1
f 67/1/2 65/2/2 47/3/2 49/4/2
f 50/1/1 48/2/1 66/3/1 68/4/1
f 69/9/2 67/10/2 49/11/2 51/12/2
f 52/9/1 50/10/1 68/11/1 70/12/1
f 54/1/5 53/2/5 71/3/5 72/4/5
f 72/1/2 69/2/2 51/3/2 54/4/2
f 53/1/1 52/2/1 70/3/1 71/4/1
f 56/1/6 55/2/6 73/3/6 74/4/6
f 75/1/2 73/2/2 55/3/2 57/4/2
f 58/1/1 56/2/1 74/3/1 76/4/1
f 77/13/2 75/14/2 57/15/2 59/16/2
f 60/13/1 58/14/1 76/15/1 78/16/1
f 79/5/2 77/6/2 59/7/2 61/8/2
f 62/5/1 60/6/1 78/7/1 80/8/1
f 81/17/2 79/18/2 61/19/2 63/20/2
f 64/17/1 62/18/1 80/19/1 82/20/1
f 83/9/2 81/10/2 63/11/2 65/12/2
f 66/9/1 64/10/1 82/11/1 84/12/1
f 85/1/2 83/2/2 65/3/2 67/4/2
f 68/1/1 66/2/1 84/3/1 86/4/1
f 87/13/2 85/14/2 67/15/2 69/16/2
f 70/13/1 68/14/1 86/15/1 88/16/1
f 72/1/5 71/2/5 89/3/5 90/4/5
f 90/1/2 87/2/2 69/3/2 72/4/2
f 71/1/1 70/2/1 88/3/1 89/4/1
f 74/1/6 73/2/6 91/3/6 92/4/6
f 93/1/2 91/2/2 73/3/2 75/4/2
f 76/1/1 74/2/1 92/3/1 94/4/1
f 95/13/2 93/14/2 75/15/2 77/16/2
f 78/13/1 76/14/1 94/15/1 96/16/1
f 97/1/2 95/2/2 77/3/2 79/4/2
f 80/1/1 78/2/1 96/3/1 98/4/1
f 99/13/2 97/14/2 79/15/2 81/16/2
f 82/13/1 80/14/1 98/15/1 100/16/1
f 101/13/2 99/14/2 81/15/2 83/16/2
f 84/13/1 82/14/1 100/15/1 102/16/1
f 103/1/2 101/2/2 83/3/2 85/4/2
f 86/1/1 84/2/1 102/3/1 104/4/1
f 105/13/2 103/14/2 85/15/2 87/16/2
f 88/13/1 86/14/1 104/15/1 106/16/1
f 90/1/5 89/2/5 107/3/5 108/4/5
f 108/1/2 105/2/2 87/3/2 90/4/2
f 89/1/1 88/2/1 106/3/1 107/4/1
f 92/1/6 91/2/6 109/3/6 110/4/6
f 111/1/2 109/2/2 91/3/2 93/4/2
f 94/1/1 92/2/1 110/3/1 112/4/1
f 113/13/2 111/14/2 93/15/2 95/16/2
f 96/13/1 94/14/1 112/15/1 114/16/1
f 115/1/2 113/2/2 95/3/2 97/4/2
f 98/1/1 96/2/1 114/3/1 116/4/1
f 117/5/2 115/6/2 97/7/2 99/8/2
f 100/5/1 98/6/1 116/7/1 118/8/1
f 119/1/2 117/2/2 99/3/2 101/4/2
f 102/1/1 100/2/1 118/3/1 120/4/1
f 121/1/2 119/2/2 101/3/2 103/4/2
f 104/1/1 102/2/1 120/3/1 122/4/1
f 123/17/2 121/18/2 103/19/2 105/20/2
f 106/17/1 104/18/1 122/19/1 124/20/1
f 108/5/5 107/6/5 125/7/5 126/8/5
f 126/5/2 123/6/2 105/7/2 108/8/2
f 107/5/1 106/6/1 124/7/1 125/8/1
f 110/1/6 109/2/6 127/3/6 128/4/6
f 129/1/2 127/2/2 109/3/2 111/4/2
f 112/1/1 110/2/1 128/3/1 130/4/1
f 131/13/2 129/14/2 111/15/2 113/16/2
f 114/13/1 112/14/1 130/15/1 132/16/1
f 133/17/2 131/18/2 113/19/2 115/20/2
f 116/17/1 114/18/1 132/19/1 134/20/1
f 135/9/2 133/10/2 115/11/2 117/12/2
f 118/9/1 116/10/1 134/11/1 136/12/1
f 137/13/2 135/14/2 117/15/2 119/16/2
f 120/13/1 118/14/1 136/15/1 138/16/1
f 139/17/2 137/18/2 119/19/2 121/20/2
f 122/17/1 120/18/1 138/19/1 140/20/1
f 141/13/2 139/14/2 121/15/2 123/16/2
f 124/13/1 122/14/1 140/15/1 142/16/1
f 126/5/5 125/6/5 143/7/5 144/8/5
f 144/5/2 141/6/2 123/7/2 126/8/2
f 125/5/1 124/6/1 142/7/1 143/8/1
f 145/5/4 146/6/4 147/7/4 148/8/4
f 128/5/6 127/6/6 147/7/6 146/8/6
f 148/5/2 147/6/2 127/7/2 129/8/2
f 130/5/1 128/6/1 146/7/1 145/8/1
f 149/1/4 145/2/4 148/3/4 150/4/4
f 150/1/2 148/2/2 129/3/2 131/4/2
f 132/1/1 130/2/1 145/3/1 149/4/1
f 151/1/4 149/2/4 150/3/4 152/4/4
f 152/1/2 150/2/2 131/3/2 133/4/2
f 134/1/1 132/2/1 149/3/1 151/4/1
f 153/1/4 151/2/4 152/3/4 154/4/4
f 154/1/2 152/2/2 133/3/2 135/4/2
f 136/1/1 134/2/1 151/3/1 153/4/1
f 155/1/4 153/2/4 154/3/4 156/4/4
f 156/1/2 154/2/2 135/3/2 137/4/2
f 138/1/1 136/2/1 153/3/1 155/4/1
f 157/1/4 155/2/4 156/3/4 158/4/4
f 158/1/2 156/2/2 137/3/2 139/4/2
f 140/1/1 138/2/1 155/3/1 157/4/1
f 159/5/4 157/6/4 158/7/4 160/8/4
f 160/5/2 158/6/2 139/7/2 141/8/2
f 142/5/1 140/6/1 157/7/1 159/8/1
f 161/1/4 159/2/4 160/3/4 162/4/4
f 144/1/5 143/2/5 161/3/5 162/4/5
f 162/1/2 160/2/2 141/3/2 144/4/2
f 143/1/1 142/2/1 159/3/1 161/4/1
