# This file was created with Minddesk Qubicle 3.0
# Get Qubicle at www.getqubicle.com

mtllib 101_Piece15_5_0.mtl

vn 0.0 0.0 1.0
vn 0.0 0.0 -1.0
vn -1.0 0.0 0.0
vn 1.0 0.0 0.0
vn 0.0 1.0 0.0
vn 0.0 -1.0 0.0

v 56.00000 41.00000 0.00000
v 56.00000 40.00000 0.00000
v 56.00000 40.00000 1.00000
v 56.00000 41.00000 1.00000
v 57.00000 40.00000 0.00000
v 57.00000 40.00000 1.00000
v 57.00000 41.00000 0.00000
v 57.00000 41.00000 1.00000
v 56.00000 42.00000 0.00000
v 56.00000 42.00000 1.00000
v 57.00000 42.00000 0.00000
v 57.00000 42.00000 1.00000
v 56.00000 43.00000 0.00000
v 56.00000 43.00000 1.00000
v 57.00000 43.00000 0.00000
v 57.00000 43.00000 1.00000
v 56.00000 44.00000 0.00000
v 56.00000 44.00000 1.00000
v 57.00000 44.00000 0.00000
v 57.00000 44.00000 1.00000
v 56.00000 45.00000 0.00000
v 56.00000 45.00000 1.00000
v 57.00000 45.00000 0.00000
v 57.00000 45.00000 1.00000
v 56.00000 46.00000 0.00000
v 56.00000 46.00000 1.00000
v 57.00000 46.00000 0.00000
v 57.00000 46.00000 1.00000
v 56.00000 47.00000 0.00000
v 56.00000 47.00000 1.00000
v 57.00000 47.00000 0.00000
v 57.00000 47.00000 1.00000
v 56.00000 48.00000 0.00000
v 56.00000 48.00000 1.00000
v 57.00000 48.00000 1.00000
v 57.00000 48.00000 0.00000
v 58.00000 40.00000 0.00000
v 58.00000 40.00000 1.00000
v 58.00000 41.00000 0.00000
v 58.00000 41.00000 1.00000
v 58.00000 42.00000 0.00000
v 58.00000 42.00000 1.00000
v 58.00000 43.00000 0.00000
v 58.00000 43.00000 1.00000
v 58.00000 44.00000 0.00000
v 58.00000 44.00000 1.00000
v 58.00000 45.00000 0.00000
v 58.00000 45.00000 1.00000
v 58.00000 46.00000 0.00000
v 58.00000 46.00000 1.00000
v 58.00000 47.00000 0.00000
v 58.00000 47.00000 1.00000
v 58.00000 48.00000 1.00000
v 58.00000 48.00000 0.00000
v 59.00000 40.00000 0.00000
v 59.00000 40.00000 1.00000
v 59.00000 41.00000 0.00000
v 59.00000 41.00000 1.00000
v 59.00000 42.00000 0.00000
v 59.00000 42.00000 1.00000
v 59.00000 43.00000 0.00000
v 59.00000 43.00000 1.00000
v 59.00000 44.00000 0.00000
v 59.00000 44.00000 1.00000
v 59.00000 45.00000 0.00000
v 59.00000 45.00000 1.00000
v 59.00000 46.00000 0.00000
v 59.00000 46.00000 1.00000
v 59.00000 47.00000 0.00000
v 59.00000 47.00000 1.00000
v 59.00000 48.00000 1.00000
v 59.00000 48.00000 0.00000
v 60.00000 40.00000 0.00000
v 60.00000 40.00000 1.00000
v 60.00000 41.00000 0.00000
v 60.00000 41.00000 1.00000
v 60.00000 42.00000 0.00000
v 60.00000 42.00000 1.00000
v 60.00000 43.00000 0.00000
v 60.00000 43.00000 1.00000
v 60.00000 44.00000 0.00000
v 60.00000 44.00000 1.00000
v 60.00000 45.00000 0.00000
v 60.00000 45.00000 1.00000
v 60.00000 46.00000 0.00000
v 60.00000 46.00000 1.00000
v 60.00000 47.00000 0.00000
v 60.00000 47.00000 1.00000
v 60.00000 48.00000 1.00000
v 60.00000 48.00000 0.00000
v 61.00000 40.00000 0.00000
v 61.00000 40.00000 1.00000
v 61.00000 41.00000 0.00000
v 61.00000 41.00000 1.00000
v 61.00000 42.00000 0.00000
v 61.00000 42.00000 1.00000
v 61.00000 43.00000 0.00000
v 61.00000 43.00000 1.00000
v 61.00000 44.00000 0.00000
v 61.00000 44.00000 1.00000
v 61.00000 45.00000 0.00000
v 61.00000 45.00000 1.00000
v 61.00000 46.00000 0.00000
v 61.00000 46.00000 1.00000
v 61.00000 47.00000 0.00000
v 61.00000 47.00000 1.00000
v 61.00000 48.00000 1.00000
v 61.00000 48.00000 0.00000
v 62.00000 40.00000 0.00000
v 62.00000 40.00000 1.00000
v 62.00000 41.00000 0.00000
v 62.00000 41.00000 1.00000
v 62.00000 42.00000 0.00000
v 62.00000 42.00000 1.00000
v 62.00000 43.00000 0.00000
v 62.00000 43.00000 1.00000
v 62.00000 44.00000 0.00000
v 62.00000 44.00000 1.00000
v 62.00000 45.00000 0.00000
v 62.00000 45.00000 1.00000
v 62.00000 46.00000 0.00000
v 62.00000 46.00000 1.00000
v 62.00000 47.00000 0.00000
v 62.00000 47.00000 1.00000
v 62.00000 48.00000 1.00000
v 62.00000 48.00000 0.00000
v 63.00000 40.00000 0.00000
v 63.00000 40.00000 1.00000
v 63.00000 41.00000 0.00000
v 63.00000 41.00000 1.00000
v 63.00000 42.00000 0.00000
v 63.00000 42.00000 1.00000
v 63.00000 43.00000 0.00000
v 63.00000 43.00000 1.00000
v 63.00000 44.00000 0.00000
v 63.00000 44.00000 1.00000
v 63.00000 45.00000 0.00000
v 63.00000 45.00000 1.00000
v 63.00000 46.00000 0.00000
v 63.00000 46.00000 1.00000
v 63.00000 47.00000 0.00000
v 63.00000 47.00000 1.00000
v 63.00000 48.00000 1.00000
v 63.00000 48.00000 0.00000
v 64.00000 41.00000 1.00000
v 64.00000 40.00000 1.00000
v 64.00000 40.00000 0.00000
v 64.00000 41.00000 0.00000
v 64.00000 42.00000 1.00000
v 64.00000 42.00000 0.00000
v 64.00000 43.00000 1.00000
v 64.00000 43.00000 0.00000
v 64.00000 44.00000 1.00000
v 64.00000 44.00000 0.00000
v 64.00000 45.00000 1.00000
v 64.00000 45.00000 0.00000
v 64.00000 46.00000 1.00000
v 64.00000 46.00000 0.00000
v 64.00000 47.00000 1.00000
v 64.00000 47.00000 0.00000
v 64.00000 48.00000 1.00000
v 64.00000 48.00000 0.00000

vt 0.05078 0.01563
vt 0.05078 0.00781
vt 0.05469 0.00781
vt 0.05469 0.01563
vt 0.03906 0.01563
vt 0.03906 0.00781
vt 0.04297 0.00781
vt 0.04297 0.01563
vt 0.00391 0.01563
vt 0.00391 0.00781
vt 0.00781 0.00781
vt 0.00781 0.01563
vt 0.06250 0.01563
vt 0.06250 0.00781
vt 0.06641 0.00781
vt 0.06641 0.01563
vt 0.02734 0.01563
vt 0.02734 0.00781
vt 0.03125 0.00781
vt 0.03125 0.01563
vt 0.33203 0.08594
vt 0.33203 0.07813
vt 0.33594 0.07813
vt 0.33594 0.08594

g 101_Piece15_5_0
usemtl 101_Material
f 1/1/3 2/2/3 3/3/3 4/4/3
f 3/1/6 2/2/6 5/3/6 6/4/6
f 7/1/2 5/2/2 2/3/2 1/4/2
f 4/1/1 3/2/1 6/3/1 8/4/1
f 9/5/3 1/6/3 4/7/3 10/8/3
f 11/5/2 7/6/2 1/7/2 9/8/2
f 10/5/1 4/6/1 8/7/1 12/8/1
f 13/1/3 9/2/3 10/3/3 14/4/3
f 15/1/2 11/2/2 9/3/2 13/4/2
f 14/1/1 10/2/1 12/3/1 16/4/1
f 17/9/3 13/10/3 14/11/3 18/12/3
f 19/9/2 15/10/2 13/11/2 17/12/2
f 18/9/1 14/10/1 16/11/1 20/12/1
f 21/9/3 17/10/3 18/11/3 22/12/3
f 23/9/2 19/10/2 17/11/2 21/12/2
f 22/9/1 18/10/1 20/11/1 24/12/1
f 25/9/3 21/10/3 22/11/3 26/12/3
f 27/9/2 23/10/2 21/11/2 25/12/2
f 26/9/1 22/10/1 24/11/1 28/12/1
f 29/13/3 25/14/3 26/15/3 30/16/3
f 31/13/2 27/14/2 25/15/2 29/16/2
f 30/13/1 26/14/1 28/15/1 32/16/1
f 33/5/3 29/6/3 30/7/3 34/8/3
f 33/5/5 34/6/5 35/7/5 36/8/5
f 36/5/2 31/6/2 29/7/2 33/8/2
f 34/5/1 30/6/1 32/7/1 35/8/1
f 6/5/6 5/6/6 37/7/6 38/8/6
f 39/5/2 37/6/2 5/7/2 7/8/2
f 8/5/1 6/6/1 38/7/1 40/8/1
f 41/17/2 39/18/2 7/19/2 11/20/2
f 12/17/1 8/18/1 40/19/1 42/20/1
f 43/21/2 41/22/2 11/23/2 15/24/2
f 16/21/1 12/22/1 42/23/1 44/24/1
f 45/21/2 43/22/2 15/23/2 19/24/2
f 20/21/1 16/22/1 44/23/1 46/24/1
f 47/17/2 45/18/2 19/19/2 23/20/2
f 24/17/1 20/18/1 46/19/1 48/20/1
f 49/1/2 47/2/2 23/3/2 27/4/2
f 28/1/1 24/2/1 48/3/1 50/4/1
f 51/1/2 49/2/2 27/3/2 31/4/2
f 32/1/1 28/2/1 50/3/1 52/4/1
f 36/17/5 35/18/5 53/19/5 54/20/5
f 54/17/2 51/18/2 31/19/2 36/20/2
f 35/17/1 32/18/1 52/19/1 53/20/1
f 38/13/6 37/14/6 55/15/6 56/16/6
f 57/13/2 55/14/2 37/15/2 39/16/2
f 40/13/1 38/14/1 56/15/1 58/16/1
f 59/1/2 57/2/2 39/3/2 41/4/2
f 42/1/1 40/2/1 58/3/1 60/4/1
f 61/5/2 59/6/2 41/7/2 43/8/2
f 44/5/1 42/6/1 60/7/1 62/8/1
f 63/17/2 61/18/2 43/19/2 45/20/2
f 46/17/1 44/18/1 62/19/1 64/20/1
f 65/21/2 63/22/2 45/23/2 47/24/2
f 48/21/1 46/22/1 64/23/1 66/24/1
f 67/1/2 65/2/2 47/3/2 49/4/2
f 50/1/1 48/2/1 66/3/1 68/4/1
f 69/5/2 67/6/2 49/7/2 51/8/2
f 52/5/1 50/6/1 68/7/1 70/8/1
f 54/21/5 53/22/5 71/23/5 72/24/5
f 72/21/2 69/22/2 51/23/2 54/24/2
f 53/21/1 52/22/1 70/23/1 71/24/1
f 56/9/6 55/10/6 73/11/6 74/12/6
f 75/9/2 73/10/2 55/11/2 57/12/2
f 58/9/1 56/10/1 74/11/1 76/12/1
f 77/9/2 75/10/2 57/11/2 59/12/2
f 60/9/1 58/10/1 76/11/1 78/12/1
f 79/13/2 77/14/2 59/15/2 61/16/2
f 62/13/1 60/14/1 78/15/1 80/16/1
f 81/1/2 79/2/2 61/3/2 63/4/2
f 64/1/1 62/2/1 80/3/1 82/4/1
f 83/1/2 81/2/2 63/3/2 65/4/2
f 66/1/1 64/2/1 82/3/1 84/4/1
f 85/5/2 83/6/2 65/7/2 67/8/2
f 68/5/1 66/6/1 84/7/1 86/8/1
f 87/21/2 85/22/2 67/23/2 69/24/2
f 70/21/1 68/22/1 86/23/1 88/24/1
f 72/17/5 71/18/5 89/19/5 90/20/5
f 90/17/2 87/18/2 69/19/2 72/20/2
f 71/17/1 70/18/1 88/19/1 89/20/1
f 74/1/6 73/2/6 91/3/6 92/4/6
f 93/1/2 91/2/2 73/3/2 75/4/2
f 76/1/1 74/2/1 92/3/1 94/4/1
f 95/21/2 93/22/2 75/23/2 77/24/2
f 78/21/1 76/22/1 94/23/1 96/24/1
f 97/13/2 95/14/2 77/15/2 79/16/2
f 80/13/1 78/14/1 96/15/1 98/16/1
f 99/1/2 97/2/2 79/3/2 81/4/2
f 82/1/1 80/2/1 98/3/1 100/4/1
f 101/17/2 99/18/2 81/19/2 83/20/2
f 84/17/1 82/18/1 100/19/1 102/20/1
f 103/17/2 101/18/2 83/19/2 85/20/2
f 86/17/1 84/18/1 102/19/1 104/20/1
f 105/21/2 103/22/2 85/23/2 87/24/2
f 88/21/1 86/22/1 104/23/1 106/24/1
f 90/9/5 89/10/5 107/11/5 108/12/5
f 108/9/2 105/10/2 87/11/2 90/12/2
f 89/9/1 88/10/1 106/11/1 107/12/1
f 92/13/6 91/14/6 109/15/6 110/16/6
f 111/13/2 109/14/2 91/15/2 93/16/2
f 94/13/1 92/14/1 110/15/1 112/16/1
f 113/17/2 111/18/2 93/19/2 95/20/2
f 96/17/1 94/18/1 112/19/1 114/20/1
f 115/1/2 113/2/2 95/3/2 97/4/2
f 98/1/1 96/2/1 114/3/1 116/4/1
f 117/17/2 115/18/2 97/19/2 99/20/2
f 100/17/1 98/18/1 116/19/1 118/20/1
f 119/21/2 117/22/2 99/23/2 101/24/2
f 102/21/1 100/22/1 118/23/1 120/24/1
f 121/9/2 119/10/2 101/11/2 103/12/2
f 104/9/1 102/10/1 120/11/1 122/12/1
f 123/17/2 121/18/2 103/19/2 105/20/2
f 106/17/1 104/18/1 122/19/1 124/20/1
f 108/9/5 107/10/5 125/11/5 126/12/5
f 126/9/2 123/10/2 105/11/2 108/12/2
f 107/9/1 106/10/1 124/11/1 125/12/1
f 110/1/6 109/2/6 127/3/6 128/4/6
f 129/1/2 127/2/2 109/3/2 111/4/2
f 112/1/1 110/2/1 128/3/1 130/4/1
f 131/1/2 129/2/2 111/3/2 113/4/2
f 114/1/1 112/2/1 130/3/1 132/4/1
f 133/17/2 131/18/2 113/19/2 115/20/2
f 116/17/1 114/18/1 132/19/1 134/20/1
f 135/1/2 133/2/2 115/3/2 117/4/2
f 118/1/1 116/2/1 134/3/1 136/4/1
f 137/9/2 135/10/2 117/11/2 119/12/2
f 120/9/1 118/10/1 136/11/1 138/12/1
f 139/9/2 137/10/2 119/11/2 121/12/2
f 122/9/1 120/10/1 138/11/1 140/12/1
f 141/9/2 139/10/2 121/11/2 123/12/2
f 124/9/1 122/10/1 140/11/1 142/12/1
f 126/9/5 125/10/5 143/11/5 144/12/5
f 144/9/2 141/10/2 123/11/2 126/12/2
f 125/9/1 124/10/1 142/11/1 143/12/1
f 145/13/4 146/14/4 147/15/4 148/16/4
f 128/13/6 127/14/6 147/15/6 146/16/6
f 148/13/2 147/14/2 127/15/2 129/16/2
f 130/13/1 128/14/1 146/15/1 145/16/1
f 149/13/4 145/14/4 148/15/4 150/16/4
f 150/13/2 148/14/2 129/15/2 131/16/2
f 132/13/1 130/14/1 145/15/1 149/16/1
f 151/21/4 149/22/4 150/23/4 152/24/4
f 152/21/2 150/22/2 131/23/2 133/24/2
f 134/21/1 132/22/1 149/23/1 151/24/1
f 153/9/4 151/10/4 152/11/4 154/12/4
f 154/9/2 152/10/2 133/11/2 135/12/2
f 136/9/1 134/10/1 151/11/1 153/12/1
f 155/9/4 153/10/4 154/11/4 156/12/4
f 156/9/2 154/10/2 135/11/2 137/12/2
f 138/9/1 136/10/1 153/11/1 155/12/1
f 157/9/4 155/10/4 156/11/4 158/12/4
f 158/9/2 156/10/2 137/11/2 139/12/2
f 140/9/1 138/10/1 155/11/1 157/12/1
f 159/9/4 157/10/4 158/11/4 160/12/4
f 160/9/2 158/10/2 139/11/2 141/12/2
f 142/9/1 140/10/1 157/11/1 159/12/1
f 161/9/4 159/10/4 160/11/4 162/12/4
f 144/9/5 143/10/5 161/11/5 162/12/5
f 162/9/2 160/10/2 141/11/2 144/12/2
f 143/9/1 142/10/1 159/11/1 161/12/1
