# This file was created with Minddesk Qubicle 3.0
# Get Qubicle at www.getqubicle.com

mtllib 101_Piece4_7_0.mtl

vn 0.0 0.0 1.0
vn 0.0 0.0 -1.0
vn -1.0 0.0 0.0
vn 1.0 0.0 0.0
vn 0.0 1.0 0.0
vn 0.0 -1.0 0.0

v -32.00000 57.00000 0.00000
v -32.00000 56.00000 0.00000
v -32.00000 56.00000 1.00000
v -32.00000 57.00000 1.00000
v -31.00000 56.00000 0.00000
v -31.00000 56.00000 1.00000
v -31.00000 57.00000 0.00000
v -31.00000 57.00000 1.00000
v -32.00000 58.00000 0.00000
v -32.00000 58.00000 1.00000
v -31.00000 58.00000 0.00000
v -31.00000 58.00000 1.00000
v -32.00000 59.00000 0.00000
v -32.00000 59.00000 1.00000
v -31.00000 59.00000 0.00000
v -31.00000 59.00000 1.00000
v -32.00000 60.00000 0.00000
v -32.00000 60.00000 1.00000
v -31.00000 60.00000 0.00000
v -31.00000 60.00000 1.00000
v -32.00000 61.00000 0.00000
v -32.00000 61.00000 1.00000
v -31.00000 61.00000 0.00000
v -31.00000 61.00000 1.00000
v -32.00000 62.00000 0.00000
v -32.00000 62.00000 1.00000
v -31.00000 62.00000 0.00000
v -31.00000 62.00000 1.00000
v -32.00000 63.00000 0.00000
v -32.00000 63.00000 1.00000
v -31.00000 63.00000 0.00000
v -31.00000 63.00000 1.00000
v -32.00000 64.00000 0.00000
v -32.00000 64.00000 1.00000
v -31.00000 64.00000 1.00000
v -31.00000 64.00000 0.00000
v -30.00000 56.00000 0.00000
v -30.00000 56.00000 1.00000
v -30.00000 57.00000 0.00000
v -30.00000 57.00000 1.00000
v -30.00000 58.00000 0.00000
v -30.00000 58.00000 1.00000
v -30.00000 59.00000 0.00000
v -30.00000 59.00000 1.00000
v -30.00000 60.00000 0.00000
v -30.00000 60.00000 1.00000
v -30.00000 61.00000 0.00000
v -30.00000 61.00000 1.00000
v -30.00000 62.00000 0.00000
v -30.00000 62.00000 1.00000
v -30.00000 63.00000 0.00000
v -30.00000 63.00000 1.00000
v -30.00000 64.00000 1.00000
v -30.00000 64.00000 0.00000
v -29.00000 56.00000 0.00000
v -29.00000 56.00000 1.00000
v -29.00000 57.00000 0.00000
v -29.00000 57.00000 1.00000
v -29.00000 58.00000 0.00000
v -29.00000 58.00000 1.00000
v -29.00000 59.00000 0.00000
v -29.00000 59.00000 1.00000
v -29.00000 60.00000 0.00000
v -29.00000 60.00000 1.00000
v -29.00000 61.00000 0.00000
v -29.00000 61.00000 1.00000
v -29.00000 62.00000 0.00000
v -29.00000 62.00000 1.00000
v -29.00000 63.00000 0.00000
v -29.00000 63.00000 1.00000
v -29.00000 64.00000 1.00000
v -29.00000 64.00000 0.00000
v -28.00000 56.00000 0.00000
v -28.00000 56.00000 1.00000
v -28.00000 57.00000 0.00000
v -28.00000 57.00000 1.00000
v -28.00000 58.00000 0.00000
v -28.00000 58.00000 1.00000
v -28.00000 59.00000 0.00000
v -28.00000 59.00000 1.00000
v -28.00000 60.00000 0.00000
v -28.00000 60.00000 1.00000
v -28.00000 61.00000 0.00000
v -28.00000 61.00000 1.00000
v -28.00000 62.00000 0.00000
v -28.00000 62.00000 1.00000
v -28.00000 63.00000 0.00000
v -28.00000 63.00000 1.00000
v -28.00000 64.00000 1.00000
v -28.00000 64.00000 0.00000
v -27.00000 56.00000 0.00000
v -27.00000 56.00000 1.00000
v -27.00000 57.00000 0.00000
v -27.00000 57.00000 1.00000
v -27.00000 58.00000 0.00000
v -27.00000 58.00000 1.00000
v -27.00000 59.00000 0.00000
v -27.00000 59.00000 1.00000
v -27.00000 60.00000 0.00000
v -27.00000 60.00000 1.00000
v -27.00000 61.00000 0.00000
v -27.00000 61.00000 1.00000
v -27.00000 62.00000 0.00000
v -27.00000 62.00000 1.00000
v -27.00000 63.00000 0.00000
v -27.00000 63.00000 1.00000
v -27.00000 64.00000 1.00000
v -27.00000 64.00000 0.00000
v -26.00000 56.00000 0.00000
v -26.00000 56.00000 1.00000
v -26.00000 57.00000 0.00000
v -26.00000 57.00000 1.00000
v -26.00000 58.00000 0.00000
v -26.00000 58.00000 1.00000
v -26.00000 59.00000 0.00000
v -26.00000 59.00000 1.00000
v -26.00000 60.00000 0.00000
v -26.00000 60.00000 1.00000
v -26.00000 61.00000 0.00000
v -26.00000 61.00000 1.00000
v -26.00000 62.00000 0.00000
v -26.00000 62.00000 1.00000
v -26.00000 63.00000 0.00000
v -26.00000 63.00000 1.00000
v -26.00000 64.00000 1.00000
v -26.00000 64.00000 0.00000
v -25.00000 56.00000 0.00000
v -25.00000 56.00000 1.00000
v -25.00000 57.00000 0.00000
v -25.00000 57.00000 1.00000
v -25.00000 58.00000 0.00000
v -25.00000 58.00000 1.00000
v -25.00000 59.00000 0.00000
v -25.00000 59.00000 1.00000
v -25.00000 60.00000 0.00000
v -25.00000 60.00000 1.00000
v -25.00000 61.00000 0.00000
v -25.00000 61.00000 1.00000
v -25.00000 62.00000 0.00000
v -25.00000 62.00000 1.00000
v -25.00000 63.00000 0.00000
v -25.00000 63.00000 1.00000
v -25.00000 64.00000 1.00000
v -25.00000 64.00000 0.00000
v -24.00000 57.00000 1.00000
v -24.00000 56.00000 1.00000
v -24.00000 56.00000 0.00000
v -24.00000 57.00000 0.00000
v -24.00000 58.00000 1.00000
v -24.00000 58.00000 0.00000
v -24.00000 59.00000 1.00000
v -24.00000 59.00000 0.00000
v -24.00000 60.00000 1.00000
v -24.00000 60.00000 0.00000
v -24.00000 61.00000 1.00000
v -24.00000 61.00000 0.00000
v -24.00000 62.00000 1.00000
v -24.00000 62.00000 0.00000
v -24.00000 63.00000 1.00000
v -24.00000 63.00000 0.00000
v -24.00000 64.00000 1.00000
v -24.00000 64.00000 0.00000

vt 0.15625 0.17969
vt 0.15625 0.17188
vt 0.16016 0.17188
vt 0.16016 0.17969
vt 0.33203 0.13281
vt 0.33203 0.12500
vt 0.33594 0.12500
vt 0.33594 0.13281
vt 0.32031 0.13281
vt 0.32031 0.12500
vt 0.32422 0.12500
vt 0.32422 0.13281
vt 0.34375 0.13281
vt 0.34375 0.12500
vt 0.34766 0.12500
vt 0.34766 0.13281
vt 0.37891 0.13281
vt 0.37891 0.12500
vt 0.38281 0.12500
vt 0.38281 0.13281
vt 0.36719 0.13281
vt 0.36719 0.12500
vt 0.37109 0.12500
vt 0.37109 0.13281
vt 0.08594 0.22656
vt 0.08594 0.21875
vt 0.08984 0.21875
vt 0.08984 0.22656
vt 0.13281 0.17969
vt 0.13281 0.17188
vt 0.13672 0.17188
vt 0.13672 0.17969
vt 0.39063 0.13281
vt 0.39063 0.12500
vt 0.39453 0.12500
vt 0.39453 0.13281
vt 0.10938 0.17969
vt 0.10938 0.17188
vt 0.11328 0.17188
vt 0.11328 0.17969
vt 0.41406 0.13281
vt 0.41406 0.12500
vt 0.41797 0.12500
vt 0.41797 0.13281
vt 0.12109 0.17969
vt 0.12109 0.17188
vt 0.12500 0.17188
vt 0.12500 0.17969

g 101_Piece4_7_0
usemtl 101_Material
f 1/1/3 2/2/3 3/3/3 4/4/3
f 3/1/6 2/2/6 5/3/6 6/4/6
f 7/1/2 5/2/2 2/3/2 1/4/2
f 4/1/1 3/2/1 6/3/1 8/4/1
f 9/5/3 1/6/3 4/7/3 10/8/3
f 11/5/2 7/6/2 1/7/2 9/8/2
f 10/5/1 4/6/1 8/7/1 12/8/1
f 13/5/3 9/6/3 10/7/3 14/8/3
f 15/5/2 11/6/2 9/7/2 13/8/2
f 14/5/1 10/6/1 12/7/1 16/8/1
f 17/9/3 13/10/3 14/11/3 18/12/3
f 19/9/2 15/10/2 13/11/2 17/12/2
f 18/9/1 14/10/1 16/11/1 20/12/1
f 21/9/3 17/10/3 18/11/3 22/12/3
f 23/9/2 19/10/2 17/11/2 21/12/2
f 22/9/1 18/10/1 20/11/1 24/12/1
f 25/13/3 21/14/3 22/15/3 26/16/3
f 27/13/2 23/14/2 21/15/2 25/16/2
f 26/13/1 22/14/1 24/15/1 28/16/1
f 29/17/3 25/18/3 26/19/3 30/20/3
f 31/17/2 27/18/2 25/19/2 29/20/2
f 30/17/1 26/18/1 28/19/1 32/20/1
f 33/21/3 29/22/3 30/23/3 34/24/3
f 33/21/5 34/22/5 35/23/5 36/24/5
f 36/21/2 31/22/2 29/23/2 33/24/2
f 34/21/1 30/22/1 32/23/1 35/24/1
f 6/25/6 5/26/6 37/27/6 38/28/6
f 39/25/2 37/26/2 5/27/2 7/28/2
f 8/25/1 6/26/1 38/27/1 40/28/1
f 41/9/2 39/10/2 7/11/2 11/12/2
f 12/9/1 8/10/1 40/11/1 42/12/1
f 43/5/2 41/6/2 11/7/2 15/8/2
f 16/5/1 12/6/1 42/7/1 44/8/1
f 45/5/2 43/6/2 15/7/2 19/8/2
f 20/5/1 16/6/1 44/7/1 46/8/1
f 47/9/2 45/10/2 19/11/2 23/12/2
f 24/9/1 20/10/1 46/11/1 48/12/1
f 49/1/2 47/2/2 23/3/2 27/4/2
f 28/1/1 24/2/1 48/3/1 50/4/1
f 51/17/2 49/18/2 27/19/2 31/20/2
f 32/17/1 28/18/1 50/19/1 52/20/1
f 36/21/5 35/22/5 53/23/5 54/24/5
f 54/21/2 51/22/2 31/23/2 36/24/2
f 35/21/1 32/22/1 52/23/1 53/24/1
f 38/25/6 37/26/6 55/27/6 56/28/6
f 57/25/2 55/26/2 37/27/2 39/28/2
f 40/25/1 38/26/1 56/27/1 58/28/1
f 59/5/2 57/6/2 39/7/2 41/8/2
f 42/5/1 40/6/1 58/7/1 60/8/1
f 61/17/2 59/18/2 41/19/2 43/20/2
f 44/17/1 42/18/1 60/19/1 62/20/1
f 63/5/2 61/6/2 43/7/2 45/8/2
f 46/5/1 44/6/1 62/7/1 64/8/1
f 65/29/2 63/30/2 45/31/2 47/32/2
f 48/29/1 46/30/1 64/31/1 66/32/1
f 67/29/2 65/30/2 47/31/2 49/32/2
f 50/29/1 48/30/1 66/31/1 68/32/1
f 69/33/2 67/34/2 49/35/2 51/36/2
f 52/33/1 50/34/1 68/35/1 70/36/1
f 54/21/5 53/22/5 71/23/5 72/24/5
f 72/21/2 69/22/2 51/23/2 54/24/2
f 53/21/1 52/22/1 70/23/1 71/24/1
f 56/1/6 55/2/6 73/3/6 74/4/6
f 75/1/2 73/2/2 55/3/2 57/4/2
f 58/1/1 56/2/1 74/3/1 76/4/1
f 77/5/2 75/6/2 57/7/2 59/8/2
f 60/5/1 58/6/1 76/7/1 78/8/1
f 79/5/2 77/6/2 59/7/2 61/8/2
f 62/5/1 60/6/1 78/7/1 80/8/1
f 81/5/2 79/6/2 61/7/2 63/8/2
f 64/5/1 62/6/1 80/7/1 82/8/1
f 83/9/2 81/10/2 63/11/2 65/12/2
f 66/9/1 64/10/1 82/11/1 84/12/1
f 85/13/2 83/14/2 65/15/2 67/16/2
f 68/13/1 66/14/1 84/15/1 86/16/1
f 87/37/2 85/38/2 67/39/2 69/40/2
f 70/37/1 68/38/1 86/39/1 88/40/1
f 72/21/5 71/22/5 89/23/5 90/24/5
f 90/21/2 87/22/2 69/23/2 72/24/2
f 71/21/1 70/22/1 88/23/1 89/24/1
f 74/9/6 73/10/6 91/11/6 92/12/6
f 93/9/2 91/10/2 73/11/2 75/12/2
f 76/9/1 74/10/1 92/11/1 94/12/1
f 95/5/2 93/6/2 75/7/2 77/8/2
f 78/5/1 76/6/1 94/7/1 96/8/1
f 97/5/2 95/6/2 77/7/2 79/8/2
f 80/5/1 78/6/1 96/7/1 98/8/1
f 99/9/2 97/10/2 79/11/2 81/12/2
f 82/9/1 80/10/1 98/11/1 100/12/1
f 101/9/2 99/10/2 81/11/2 83/12/2
f 84/9/1 82/10/1 100/11/1 102/12/1
f 103/13/2 101/14/2 83/15/2 85/16/2
f 86/13/1 84/14/1 102/15/1 104/16/1
f 105/33/2 103/34/2 85/35/2 87/36/2
f 88/33/1 86/34/1 104/35/1 106/36/1
f 90/41/5 89/42/5 107/43/5 108/44/5
f 108/41/2 105/42/2 87/43/2 90/44/2
f 89/41/1 88/42/1 106/43/1 107/44/1
f 92/25/6 91/26/6 109/27/6 110/28/6
f 111/25/2 109/26/2 91/27/2 93/28/2
f 94/25/1 92/26/1 110/27/1 112/28/1
f 113/9/2 111/10/2 93/11/2 95/12/2
f 96/9/1 94/10/1 112/11/1 114/12/1
f 115/5/2 113/6/2 95/7/2 97/8/2
f 98/5/1 96/6/1 114/7/1 116/8/1
f 117/5/2 115/6/2 97/7/2 99/8/2
f 100/5/1 98/6/1 116/7/1 118/8/1
f 119/9/2 117/10/2 99/11/2 101/12/2
f 102/9/1 100/10/1 118/11/1 120/12/1
f 121/13/2 119/14/2 101/15/2 103/16/2
f 104/13/1 102/14/1 120/15/1 122/16/1
f 123/17/2 121/18/2 103/19/2 105/20/2
f 106/17/1 104/18/1 122/19/1 124/20/1
f 108/41/5 107/42/5 125/43/5 126/44/5
f 126/41/2 123/42/2 105/43/2 108/44/2
f 107/41/1 106/42/1 124/43/1 125/44/1
f 110/1/6 109/2/6 127/3/6 128/4/6
f 129/1/2 127/2/2 109/3/2 111/4/2
f 112/1/1 110/2/1 128/3/1 130/4/1
f 131/5/2 129/6/2 111/7/2 113/8/2
f 114/5/1 112/6/1 130/7/1 132/8/1
f 133/5/2 131/6/2 113/7/2 115/8/2
f 116/5/1 114/6/1 132/7/1 134/8/1
f 135/5/2 133/6/2 115/7/2 117/8/2
f 118/5/1 116/6/1 134/7/1 136/8/1
f 137/9/2 135/10/2 117/11/2 119/12/2
f 120/9/1 118/10/1 136/11/1 138/12/1
f 139/45/2 137/46/2 119/47/2 121/48/2
f 122/45/1 120/46/1 138/47/1 140/48/1
f 141/37/2 139/38/2 121/39/2 123/40/2
f 124/37/1 122/38/1 140/39/1 142/40/1
f 126/21/5 125/22/5 143/23/5 144/24/5
f 144/21/2 141/22/2 123/23/2 126/24/2
f 125/21/1 124/22/1 142/23/1 143/24/1
f 145/45/4 146/46/4 147/47/4 148/48/4
f 128/45/6 127/46/6 147/47/6 146/48/6
f 148/45/2 147/46/2 127/47/2 129/48/2
f 130/45/1 128/46/1 146/47/1 145/48/1
f 149/17/4 145/18/4 148/19/4 150/20/4
f 150/17/2 148/18/2 129/19/2 131/20/2
f 132/17/1 130/18/1 145/19/1 149/20/1
f 151/5/4 149/6/4 150/7/4 152/8/4
f 152/5/2 150/6/2 131/7/2 133/8/2
f 134/5/1 132/6/1 149/7/1 151/8/1
f 153/9/4 151/10/4 152/11/4 154/12/4
f 154/9/2 152/10/2 133/11/2 135/12/2
f 136/9/1 134/10/1 151/11/1 153/12/1
f 155/9/4 153/10/4 154/11/4 156/12/4
f 156/9/2 154/10/2 135/11/2 137/12/2
f 138/9/1 136/10/1 153/11/1 155/12/1
f 157/13/4 155/14/4 156/15/4 158/16/4
f 158/13/2 156/14/2 137/15/2 139/16/2
f 140/13/1 138/14/1 155/15/1 157/16/1
f 159/37/4 157/38/4 158/39/4 160/40/4
f 160/37/2 158/38/2 139/39/2 141/40/2
f 142/37/1 140/38/1 157/39/1 159/40/1
f 161/21/4 159/22/4 160/23/4 162/24/4
f 144/21/5 143/22/5 161/23/5 162/24/5
f 162/21/2 160/22/2 141/23/2 144/24/2
f 143/21/1 142/22/1 159/23/1 161/24/1
