# This file was created with Minddesk Qubicle 3.0
# Get Qubicle at www.getqubicle.com

mtllib 101_Piece6_16_0.mtl

vn 0.0 0.0 1.0
vn 0.0 0.0 -1.0
vn -1.0 0.0 0.0
vn 1.0 0.0 0.0
vn 0.0 1.0 0.0
vn 0.0 -1.0 0.0

v -16.00000 129.00000 0.00000
v -16.00000 128.00000 0.00000
v -16.00000 128.00000 1.00000
v -16.00000 129.00000 1.00000
v -15.00000 128.00000 0.00000
v -15.00000 128.00000 1.00000
v -15.00000 129.00000 0.00000
v -15.00000 129.00000 1.00000
v -16.00000 130.00000 0.00000
v -16.00000 130.00000 1.00000
v -15.00000 130.00000 0.00000
v -15.00000 130.00000 1.00000
v -16.00000 131.00000 0.00000
v -16.00000 131.00000 1.00000
v -15.00000 131.00000 0.00000
v -15.00000 131.00000 1.00000
v -16.00000 132.00000 0.00000
v -16.00000 132.00000 1.00000
v -15.00000 132.00000 0.00000
v -15.00000 132.00000 1.00000
v -16.00000 133.00000 0.00000
v -16.00000 133.00000 1.00000
v -15.00000 133.00000 0.00000
v -15.00000 133.00000 1.00000
v -16.00000 134.00000 0.00000
v -16.00000 134.00000 1.00000
v -15.00000 134.00000 0.00000
v -15.00000 134.00000 1.00000
v -16.00000 135.00000 0.00000
v -16.00000 135.00000 1.00000
v -15.00000 135.00000 0.00000
v -15.00000 135.00000 1.00000
v -16.00000 136.00000 0.00000
v -16.00000 136.00000 1.00000
v -15.00000 136.00000 1.00000
v -15.00000 136.00000 0.00000
v -14.00000 128.00000 0.00000
v -14.00000 128.00000 1.00000
v -14.00000 129.00000 0.00000
v -14.00000 129.00000 1.00000
v -14.00000 130.00000 0.00000
v -14.00000 130.00000 1.00000
v -14.00000 131.00000 0.00000
v -14.00000 131.00000 1.00000
v -14.00000 132.00000 0.00000
v -14.00000 132.00000 1.00000
v -14.00000 133.00000 0.00000
v -14.00000 133.00000 1.00000
v -14.00000 134.00000 0.00000
v -14.00000 134.00000 1.00000
v -14.00000 135.00000 0.00000
v -14.00000 135.00000 1.00000
v -14.00000 136.00000 1.00000
v -14.00000 136.00000 0.00000
v -13.00000 128.00000 0.00000
v -13.00000 128.00000 1.00000
v -13.00000 129.00000 0.00000
v -13.00000 129.00000 1.00000
v -13.00000 130.00000 0.00000
v -13.00000 130.00000 1.00000
v -13.00000 131.00000 0.00000
v -13.00000 131.00000 1.00000
v -13.00000 132.00000 0.00000
v -13.00000 132.00000 1.00000
v -13.00000 133.00000 0.00000
v -13.00000 133.00000 1.00000
v -13.00000 134.00000 0.00000
v -13.00000 134.00000 1.00000
v -13.00000 135.00000 0.00000
v -13.00000 135.00000 1.00000
v -13.00000 136.00000 1.00000
v -13.00000 136.00000 0.00000
v -12.00000 128.00000 0.00000
v -12.00000 128.00000 1.00000
v -12.00000 129.00000 0.00000
v -12.00000 129.00000 1.00000
v -12.00000 130.00000 0.00000
v -12.00000 130.00000 1.00000
v -12.00000 131.00000 0.00000
v -12.00000 131.00000 1.00000
v -12.00000 132.00000 0.00000
v -12.00000 132.00000 1.00000
v -12.00000 133.00000 0.00000
v -12.00000 133.00000 1.00000
v -12.00000 134.00000 0.00000
v -12.00000 134.00000 1.00000
v -12.00000 135.00000 0.00000
v -12.00000 135.00000 1.00000
v -12.00000 136.00000 1.00000
v -12.00000 136.00000 0.00000
v -11.00000 128.00000 0.00000
v -11.00000 128.00000 1.00000
v -11.00000 129.00000 0.00000
v -11.00000 129.00000 1.00000
v -11.00000 130.00000 0.00000
v -11.00000 130.00000 1.00000
v -11.00000 131.00000 0.00000
v -11.00000 131.00000 1.00000
v -11.00000 132.00000 0.00000
v -11.00000 132.00000 1.00000
v -11.00000 133.00000 0.00000
v -11.00000 133.00000 1.00000
v -11.00000 134.00000 0.00000
v -11.00000 134.00000 1.00000
v -11.00000 135.00000 0.00000
v -11.00000 135.00000 1.00000
v -11.00000 136.00000 1.00000
v -11.00000 136.00000 0.00000
v -10.00000 128.00000 0.00000
v -10.00000 128.00000 1.00000
v -10.00000 129.00000 0.00000
v -10.00000 129.00000 1.00000
v -10.00000 130.00000 0.00000
v -10.00000 130.00000 1.00000
v -10.00000 131.00000 0.00000
v -10.00000 131.00000 1.00000
v -10.00000 132.00000 0.00000
v -10.00000 132.00000 1.00000
v -10.00000 133.00000 0.00000
v -10.00000 133.00000 1.00000
v -10.00000 134.00000 0.00000
v -10.00000 134.00000 1.00000
v -10.00000 135.00000 0.00000
v -10.00000 135.00000 1.00000
v -10.00000 136.00000 1.00000
v -10.00000 136.00000 0.00000
v -9.00000 128.00000 0.00000
v -9.00000 128.00000 1.00000
v -9.00000 129.00000 0.00000
v -9.00000 129.00000 1.00000
v -9.00000 130.00000 0.00000
v -9.00000 130.00000 1.00000
v -9.00000 131.00000 0.00000
v -9.00000 131.00000 1.00000
v -9.00000 132.00000 0.00000
v -9.00000 132.00000 1.00000
v -9.00000 133.00000 0.00000
v -9.00000 133.00000 1.00000
v -9.00000 134.00000 0.00000
v -9.00000 134.00000 1.00000
v -9.00000 135.00000 0.00000
v -9.00000 135.00000 1.00000
v -9.00000 136.00000 1.00000
v -9.00000 136.00000 0.00000
v -8.00000 129.00000 1.00000
v -8.00000 128.00000 1.00000
v -8.00000 128.00000 0.00000
v -8.00000 129.00000 0.00000
v -8.00000 130.00000 1.00000
v -8.00000 130.00000 0.00000
v -8.00000 131.00000 1.00000
v -8.00000 131.00000 0.00000
v -8.00000 132.00000 1.00000
v -8.00000 132.00000 0.00000
v -8.00000 133.00000 1.00000
v -8.00000 133.00000 0.00000
v -8.00000 134.00000 1.00000
v -8.00000 134.00000 0.00000
v -8.00000 135.00000 1.00000
v -8.00000 135.00000 0.00000
v -8.00000 136.00000 1.00000
v -8.00000 136.00000 0.00000

vt 0.02734 0.29688
vt 0.02734 0.28906
vt 0.03125 0.28906
vt 0.03125 0.29688
vt 0.03906 0.29688
vt 0.03906 0.28906
vt 0.04297 0.28906
vt 0.04297 0.29688
vt 0.00391 0.01563
vt 0.00391 0.00781
vt 0.00781 0.00781
vt 0.00781 0.01563
vt 0.47266 0.25000
vt 0.47266 0.24219
vt 0.47656 0.24219
vt 0.47656 0.25000
vt 0.12109 0.27344
vt 0.12109 0.26563
vt 0.12500 0.26563
vt 0.12500 0.27344
vt 0.05078 0.29688
vt 0.05078 0.28906
vt 0.05469 0.28906
vt 0.05469 0.29688

g 101_Piece6_16_0
usemtl 101_Material
f 1/1/3 2/2/3 3/3/3 4/4/3
f 3/1/6 2/2/6 5/3/6 6/4/6
f 7/1/2 5/2/2 2/3/2 1/4/2
f 4/1/1 3/2/1 6/3/1 8/4/1
f 9/5/3 1/6/3 4/7/3 10/8/3
f 11/5/2 7/6/2 1/7/2 9/8/2
f 10/5/1 4/6/1 8/7/1 12/8/1
f 13/1/3 9/2/3 10/3/3 14/4/3
f 15/1/2 11/2/2 9/3/2 13/4/2
f 14/1/1 10/2/1 12/3/1 16/4/1
f 17/1/3 13/2/3 14/3/3 18/4/3
f 19/1/2 15/2/2 13/3/2 17/4/2
f 18/1/1 14/2/1 16/3/1 20/4/1
f 21/1/3 17/2/3 18/3/3 22/4/3
f 23/1/2 19/2/2 17/3/2 21/4/2
f 22/1/1 18/2/1 20/3/1 24/4/1
f 25/1/3 21/2/3 22/3/3 26/4/3
f 27/1/2 23/2/2 21/3/2 25/4/2
f 26/1/1 22/2/1 24/3/1 28/4/1
f 29/1/3 25/2/3 26/3/3 30/4/3
f 31/1/2 27/2/2 25/3/2 29/4/2
f 30/1/1 26/2/1 28/3/1 32/4/1
f 33/9/3 29/10/3 30/11/3 34/12/3
f 33/9/5 34/10/5 35/11/5 36/12/5
f 36/9/2 31/10/2 29/11/2 33/12/2
f 34/9/1 30/10/1 32/11/1 35/12/1
f 6/9/6 5/10/6 37/11/6 38/12/6
f 39/9/2 37/10/2 5/11/2 7/12/2
f 8/9/1 6/10/1 38/11/1 40/12/1
f 41/9/2 39/10/2 7/11/2 11/12/2
f 12/9/1 8/10/1 40/11/1 42/12/1
f 43/9/2 41/10/2 11/11/2 15/12/2
f 16/9/1 12/10/1 42/11/1 44/12/1
f 45/9/2 43/10/2 15/11/2 19/12/2
f 20/9/1 16/10/1 44/11/1 46/12/1
f 47/5/2 45/6/2 19/7/2 23/8/2
f 24/5/1 20/6/1 46/7/1 48/8/1
f 49/13/2 47/14/2 23/15/2 27/16/2
f 28/13/1 24/14/1 48/15/1 50/16/1
f 51/9/2 49/10/2 27/11/2 31/12/2
f 32/9/1 28/10/1 50/11/1 52/12/1
f 36/9/5 35/10/5 53/11/5 54/12/5
f 54/9/2 51/10/2 31/11/2 36/12/2
f 35/9/1 32/10/1 52/11/1 53/12/1
f 38/9/6 37/10/6 55/11/6 56/12/6
f 57/9/2 55/10/2 37/11/2 39/12/2
f 40/9/1 38/10/1 56/11/1 58/12/1
f 59/17/2 57/18/2 39/19/2 41/20/2
f 42/17/1 40/18/1 58/19/1 60/20/1
f 61/17/2 59/18/2 41/19/2 43/20/2
f 44/17/1 42/18/1 60/19/1 62/20/1
f 63/17/2 61/18/2 43/19/2 45/20/2
f 46/17/1 44/18/1 62/19/1 64/20/1
f 65/21/2 63/22/2 45/23/2 47/24/2
f 48/21/1 46/22/1 64/23/1 66/24/1
f 67/17/2 65/18/2 47/19/2 49/20/2
f 50/17/1 48/18/1 66/19/1 68/20/1
f 69/17/2 67/18/2 49/19/2 51/20/2
f 52/17/1 50/18/1 68/19/1 70/20/1
f 54/9/5 53/10/5 71/11/5 72/12/5
f 72/9/2 69/10/2 51/11/2 54/12/2
f 53/9/1 52/10/1 70/11/1 71/12/1
f 56/9/6 55/10/6 73/11/6 74/12/6
f 75/9/2 73/10/2 55/11/2 57/12/2
f 58/9/1 56/10/1 74/11/1 76/12/1
f 77/9/2 75/10/2 57/11/2 59/12/2
f 60/9/1 58/10/1 76/11/1 78/12/1
f 79/9/2 77/10/2 59/11/2 61/12/2
f 62/9/1 60/10/1 78/11/1 80/12/1
f 81/9/2 79/10/2 61/11/2 63/12/2
f 64/9/1 62/10/1 80/11/1 82/12/1
f 83/5/2 81/6/2 63/7/2 65/8/2
f 66/5/1 64/6/1 82/7/1 84/8/1
f 85/21/2 83/22/2 65/23/2 67/24/2
f 68/21/1 66/22/1 84/23/1 86/24/1
f 87/9/2 85/10/2 67/11/2 69/12/2
f 70/9/1 68/10/1 86/11/1 88/12/1
f 72/9/5 71/10/5 89/11/5 90/12/5
f 90/9/2 87/10/2 69/11/2 72/12/2
f 71/9/1 70/10/1 88/11/1 89/12/1
f 74/9/6 73/10/6 91/11/6 92/12/6
f 93/9/2 91/10/2 73/11/2 75/12/2
f 76/9/1 74/10/1 92/11/1 94/12/1
f 95/9/2 93/10/2 75/11/2 77/12/2
f 78/9/1 76/10/1 94/11/1 96/12/1
f 97/9/2 95/10/2 77/11/2 79/12/2
f 80/9/1 78/10/1 96/11/1 98/12/1
f 99/9/2 97/10/2 79/11/2 81/12/2
f 82/9/1 80/10/1 98/11/1 100/12/1
f 101/5/2 99/6/2 81/7/2 83/8/2
f 84/5/1 82/6/1 100/7/1 102/8/1
f 103/13/2 101/14/2 83/15/2 85/16/2
f 86/13/1 84/14/1 102/15/1 104/16/1
f 105/9/2 103/10/2 85/11/2 87/12/2
f 88/9/1 86/10/1 104/11/1 106/12/1
f 90/9/5 89/10/5 107/11/5 108/12/5
f 108/9/2 105/10/2 87/11/2 90/12/2
f 89/9/1 88/10/1 106/11/1 107/12/1
f 92/9/6 91/10/6 109/11/6 110/12/6
f 111/9/2 109/10/2 91/11/2 93/12/2
f 94/9/1 92/10/1 110/11/1 112/12/1
f 113/17/2 111/18/2 93/19/2 95/20/2
f 96/17/1 94/18/1 112/19/1 114/20/1
f 115/17/2 113/18/2 95/19/2 97/20/2
f 98/17/1 96/18/1 114/19/1 116/20/1
f 117/17/2 115/18/2 97/19/2 99/20/2
f 100/17/1 98/18/1 116/19/1 118/20/1
f 119/21/2 117/22/2 99/23/2 101/24/2
f 102/21/1 100/22/1 118/23/1 120/24/1
f 121/17/2 119/18/2 101/19/2 103/20/2
f 104/17/1 102/18/1 120/19/1 122/20/1
f 123/17/2 121/18/2 103/19/2 105/20/2
f 106/17/1 104/18/1 122/19/1 124/20/1
f 108/9/5 107/10/5 125/11/5 126/12/5
f 126/9/2 123/10/2 105/11/2 108/12/2
f 107/9/1 106/10/1 124/11/1 125/12/1
f 110/9/6 109/10/6 127/11/6 128/12/6
f 129/9/2 127/10/2 109/11/2 111/12/2
f 112/9/1 110/10/1 128/11/1 130/12/1
f 131/9/2 129/10/2 111/11/2 113/12/2
f 114/9/1 112/10/1 130/11/1 132/12/1
f 133/9/2 131/10/2 113/11/2 115/12/2
f 116/9/1 114/10/1 132/11/1 134/12/1
f 135/9/2 133/10/2 115/11/2 117/12/2
f 118/9/1 116/10/1 134/11/1 136/12/1
f 137/5/2 135/6/2 117/7/2 119/8/2
f 120/5/1 118/6/1 136/7/1 138/8/1
f 139/21/2 137/22/2 119/23/2 121/24/2
f 122/21/1 120/22/1 138/23/1 140/24/1
f 141/9/2 139/10/2 121/11/2 123/12/2
f 124/9/1 122/10/1 140/11/1 142/12/1
f 126/9/5 125/10/5 143/11/5 144/12/5
f 144/9/2 141/10/2 123/11/2 126/12/2
f 125/9/1 124/10/1 142/11/1 143/12/1
f 145/1/4 146/2/4 147/3/4 148/4/4
f 128/1/6 127/2/6 147/3/6 146/4/6
f 148/1/2 147/2/2 127/3/2 129/4/2
f 130/1/1 128/2/1 146/3/1 145/4/1
f 149/5/4 145/6/4 148/7/4 150/8/4
f 150/5/2 148/6/2 129/7/2 131/8/2
f 132/5/1 130/6/1 145/7/1 149/8/1
f 151/1/4 149/2/4 150/3/4 152/4/4
f 152/1/2 150/2/2 131/3/2 133/4/2
f 134/1/1 132/2/1 149/3/1 151/4/1
f 153/1/4 151/2/4 152/3/4 154/4/4
f 154/1/2 152/2/2 133/3/2 135/4/2
f 136/1/1 134/2/1 151/3/1 153/4/1
f 155/1/4 153/2/4 154/3/4 156/4/4
f 156/1/2 154/2/2 135/3/2 137/4/2
f 138/1/1 136/2/1 153/3/1 155/4/1
f 157/1/4 155/2/4 156/3/4 158/4/4
f 158/1/2 156/2/2 137/3/2 139/4/2
f 140/1/1 138/2/1 155/3/1 157/4/1
f 159/1/4 157/2/4 158/3/4 160/4/4
f 160/1/2 158/2/2 139/3/2 141/4/2
f 142/1/1 140/2/1 157/3/1 159/4/1
f 161/9/4 159/10/4 160/11/4 162/12/4
f 144/9/5 143/10/5 161/11/5 162/12/5
f 162/9/2 160/10/2 141/11/2 144/12/2
f 143/9/1 142/10/1 159/11/1 161/12/1
