# This file was created with Minddesk Qubicle 3.0
# Get Qubicle at www.getqubicle.com

mtllib 101_Piece6_19_0.mtl

vn 0.0 0.0 1.0
vn 0.0 0.0 -1.0
vn -1.0 0.0 0.0
vn 1.0 0.0 0.0
vn 0.0 1.0 0.0
vn 0.0 -1.0 0.0

v -16.00000 153.00000 0.00000
v -16.00000 152.00000 0.00000
v -16.00000 152.00000 1.00000
v -16.00000 153.00000 1.00000
v -15.00000 152.00000 0.00000
v -15.00000 152.00000 1.00000
v -15.00000 153.00000 0.00000
v -15.00000 153.00000 1.00000
v -16.00000 154.00000 0.00000
v -16.00000 154.00000 1.00000
v -15.00000 154.00000 0.00000
v -15.00000 154.00000 1.00000
v -16.00000 155.00000 0.00000
v -16.00000 155.00000 1.00000
v -15.00000 155.00000 0.00000
v -15.00000 155.00000 1.00000
v -16.00000 156.00000 0.00000
v -16.00000 156.00000 1.00000
v -15.00000 156.00000 0.00000
v -15.00000 156.00000 1.00000
v -16.00000 157.00000 0.00000
v -16.00000 157.00000 1.00000
v -15.00000 157.00000 0.00000
v -15.00000 157.00000 1.00000
v -16.00000 158.00000 0.00000
v -16.00000 158.00000 1.00000
v -15.00000 158.00000 0.00000
v -15.00000 158.00000 1.00000
v -16.00000 159.00000 0.00000
v -16.00000 159.00000 1.00000
v -15.00000 159.00000 0.00000
v -15.00000 159.00000 1.00000
v -16.00000 160.00000 0.00000
v -16.00000 160.00000 1.00000
v -15.00000 160.00000 1.00000
v -15.00000 160.00000 0.00000
v -14.00000 152.00000 0.00000
v -14.00000 152.00000 1.00000
v -14.00000 153.00000 0.00000
v -14.00000 153.00000 1.00000
v -14.00000 154.00000 0.00000
v -14.00000 154.00000 1.00000
v -14.00000 155.00000 0.00000
v -14.00000 155.00000 1.00000
v -14.00000 156.00000 0.00000
v -14.00000 156.00000 1.00000
v -14.00000 157.00000 0.00000
v -14.00000 157.00000 1.00000
v -14.00000 158.00000 0.00000
v -14.00000 158.00000 1.00000
v -14.00000 159.00000 0.00000
v -14.00000 159.00000 1.00000
v -14.00000 160.00000 1.00000
v -14.00000 160.00000 0.00000
v -13.00000 152.00000 0.00000
v -13.00000 152.00000 1.00000
v -13.00000 153.00000 0.00000
v -13.00000 153.00000 1.00000
v -13.00000 154.00000 0.00000
v -13.00000 154.00000 1.00000
v -13.00000 155.00000 0.00000
v -13.00000 155.00000 1.00000
v -13.00000 156.00000 0.00000
v -13.00000 156.00000 1.00000
v -13.00000 157.00000 0.00000
v -13.00000 157.00000 1.00000
v -13.00000 158.00000 0.00000
v -13.00000 158.00000 1.00000
v -13.00000 159.00000 0.00000
v -13.00000 159.00000 1.00000
v -13.00000 160.00000 1.00000
v -13.00000 160.00000 0.00000
v -12.00000 152.00000 0.00000
v -12.00000 152.00000 1.00000
v -12.00000 153.00000 0.00000
v -12.00000 153.00000 1.00000
v -12.00000 154.00000 0.00000
v -12.00000 154.00000 1.00000
v -12.00000 155.00000 0.00000
v -12.00000 155.00000 1.00000
v -12.00000 156.00000 0.00000
v -12.00000 156.00000 1.00000
v -12.00000 157.00000 0.00000
v -12.00000 157.00000 1.00000
v -12.00000 158.00000 0.00000
v -12.00000 158.00000 1.00000
v -12.00000 159.00000 0.00000
v -12.00000 159.00000 1.00000
v -12.00000 160.00000 1.00000
v -12.00000 160.00000 0.00000
v -11.00000 152.00000 0.00000
v -11.00000 152.00000 1.00000
v -11.00000 153.00000 0.00000
v -11.00000 153.00000 1.00000
v -11.00000 154.00000 0.00000
v -11.00000 154.00000 1.00000
v -11.00000 155.00000 0.00000
v -11.00000 155.00000 1.00000
v -11.00000 156.00000 0.00000
v -11.00000 156.00000 1.00000
v -11.00000 157.00000 0.00000
v -11.00000 157.00000 1.00000
v -11.00000 158.00000 0.00000
v -11.00000 158.00000 1.00000
v -11.00000 159.00000 0.00000
v -11.00000 159.00000 1.00000
v -11.00000 160.00000 1.00000
v -11.00000 160.00000 0.00000
v -10.00000 152.00000 0.00000
v -10.00000 152.00000 1.00000
v -10.00000 153.00000 0.00000
v -10.00000 153.00000 1.00000
v -10.00000 154.00000 0.00000
v -10.00000 154.00000 1.00000
v -10.00000 155.00000 0.00000
v -10.00000 155.00000 1.00000
v -10.00000 156.00000 0.00000
v -10.00000 156.00000 1.00000
v -10.00000 157.00000 0.00000
v -10.00000 157.00000 1.00000
v -10.00000 158.00000 0.00000
v -10.00000 158.00000 1.00000
v -10.00000 159.00000 0.00000
v -10.00000 159.00000 1.00000
v -10.00000 160.00000 1.00000
v -10.00000 160.00000 0.00000
v -9.00000 152.00000 0.00000
v -9.00000 152.00000 1.00000
v -9.00000 153.00000 0.00000
v -9.00000 153.00000 1.00000
v -9.00000 154.00000 0.00000
v -9.00000 154.00000 1.00000
v -9.00000 155.00000 0.00000
v -9.00000 155.00000 1.00000
v -9.00000 156.00000 0.00000
v -9.00000 156.00000 1.00000
v -9.00000 157.00000 0.00000
v -9.00000 157.00000 1.00000
v -9.00000 158.00000 0.00000
v -9.00000 158.00000 1.00000
v -9.00000 159.00000 0.00000
v -9.00000 159.00000 1.00000
v -9.00000 160.00000 1.00000
v -9.00000 160.00000 0.00000
v -8.00000 153.00000 1.00000
v -8.00000 152.00000 1.00000
v -8.00000 152.00000 0.00000
v -8.00000 153.00000 0.00000
v -8.00000 154.00000 1.00000
v -8.00000 154.00000 0.00000
v -8.00000 155.00000 1.00000
v -8.00000 155.00000 0.00000
v -8.00000 156.00000 1.00000
v -8.00000 156.00000 0.00000
v -8.00000 157.00000 1.00000
v -8.00000 157.00000 0.00000
v -8.00000 158.00000 1.00000
v -8.00000 158.00000 0.00000
v -8.00000 159.00000 1.00000
v -8.00000 159.00000 0.00000
v -8.00000 160.00000 1.00000
v -8.00000 160.00000 0.00000

vt 0.00391 0.01563
vt 0.00391 0.00781
vt 0.00781 0.00781
vt 0.00781 0.01563
vt 0.10938 0.29688
vt 0.10938 0.28906
vt 0.11328 0.28906
vt 0.11328 0.29688
vt 0.12109 0.29688
vt 0.12109 0.28906
vt 0.12500 0.28906
vt 0.12500 0.29688
vt 0.13281 0.29688
vt 0.13281 0.28906
vt 0.13672 0.28906
vt 0.13672 0.29688
vt 0.14453 0.29688
vt 0.14453 0.28906
vt 0.14844 0.28906
vt 0.14844 0.29688
vt 0.15625 0.29688
vt 0.15625 0.28906
vt 0.16016 0.28906
vt 0.16016 0.29688
vt 0.16797 0.29688
vt 0.16797 0.28906
vt 0.17188 0.28906
vt 0.17188 0.29688
vt 0.17969 0.29688
vt 0.17969 0.28906
vt 0.18359 0.28906
vt 0.18359 0.29688
vt 0.19141 0.29688
vt 0.19141 0.28906
vt 0.19531 0.28906
vt 0.19531 0.29688

g 101_Piece6_19_0
usemtl 101_Material
f 1/1/3 2/2/3 3/3/3 4/4/3
f 3/1/6 2/2/6 5/3/6 6/4/6
f 7/1/2 5/2/2 2/3/2 1/4/2
f 4/1/1 3/2/1 6/3/1 8/4/1
f 9/1/3 1/2/3 4/3/3 10/4/3
f 11/1/2 7/2/2 1/3/2 9/4/2
f 10/1/1 4/2/1 8/3/1 12/4/1
f 13/1/3 9/2/3 10/3/3 14/4/3
f 15/1/2 11/2/2 9/3/2 13/4/2
f 14/1/1 10/2/1 12/3/1 16/4/1
f 17/1/3 13/2/3 14/3/3 18/4/3
f 19/1/2 15/2/2 13/3/2 17/4/2
f 18/1/1 14/2/1 16/3/1 20/4/1
f 21/1/3 17/2/3 18/3/3 22/4/3
f 23/1/2 19/2/2 17/3/2 21/4/2
f 22/1/1 18/2/1 20/3/1 24/4/1
f 25/1/3 21/2/3 22/3/3 26/4/3
f 27/1/2 23/2/2 21/3/2 25/4/2
f 26/1/1 22/2/1 24/3/1 28/4/1
f 29/1/3 25/2/3 26/3/3 30/4/3
f 31/1/2 27/2/2 25/3/2 29/4/2
f 30/1/1 26/2/1 28/3/1 32/4/1
f 33/1/3 29/2/3 30/3/3 34/4/3
f 33/1/5 34/2/5 35/3/5 36/4/5
f 36/1/2 31/2/2 29/3/2 33/4/2
f 34/1/1 30/2/1 32/3/1 35/4/1
f 6/1/6 5/2/6 37/3/6 38/4/6
f 39/1/2 37/2/2 5/3/2 7/4/2
f 8/1/1 6/2/1 38/3/1 40/4/1
f 41/5/2 39/6/2 7/7/2 11/8/2
f 12/5/1 8/6/1 40/7/1 42/8/1
f 43/9/2 41/10/2 11/11/2 15/12/2
f 16/9/1 12/10/1 42/11/1 44/12/1
f 45/1/2 43/2/2 15/3/2 19/4/2
f 20/1/1 16/2/1 44/3/1 46/4/1
f 47/1/2 45/2/2 19/3/2 23/4/2
f 24/1/1 20/2/1 46/3/1 48/4/1
f 49/1/2 47/2/2 23/3/2 27/4/2
f 28/1/1 24/2/1 48/3/1 50/4/1
f 51/9/2 49/10/2 27/11/2 31/12/2
f 32/9/1 28/10/1 50/11/1 52/12/1
f 36/1/5 35/2/5 53/3/5 54/4/5
f 54/1/2 51/2/2 31/3/2 36/4/2
f 35/1/1 32/2/1 52/3/1 53/4/1
f 38/1/6 37/2/6 55/3/6 56/4/6
f 57/1/2 55/2/2 37/3/2 39/4/2
f 40/1/1 38/2/1 56/3/1 58/4/1
f 59/5/2 57/6/2 39/7/2 41/8/2
f 42/5/1 40/6/1 58/7/1 60/8/1
f 61/13/2 59/14/2 41/15/2 43/16/2
f 44/13/1 42/14/1 60/15/1 62/16/1
f 63/5/2 61/6/2 43/7/2 45/8/2
f 46/5/1 44/6/1 62/7/1 64/8/1
f 65/17/2 63/18/2 45/19/2 47/20/2
f 48/17/1 46/18/1 64/19/1 66/20/1
f 67/1/2 65/2/2 47/3/2 49/4/2
f 50/1/1 48/2/1 66/3/1 68/4/1
f 69/17/2 67/18/2 49/19/2 51/20/2
f 52/17/1 50/18/1 68/19/1 70/20/1
f 54/1/5 53/2/5 71/3/5 72/4/5
f 72/1/2 69/2/2 51/3/2 54/4/2
f 53/1/1 52/2/1 70/3/1 71/4/1
f 56/1/6 55/2/6 73/3/6 74/4/6
f 75/1/2 73/2/2 55/3/2 57/4/2
f 58/1/1 56/2/1 74/3/1 76/4/1
f 77/9/2 75/10/2 57/11/2 59/12/2
f 60/9/1 58/10/1 76/11/1 78/12/1
f 79/21/2 77/22/2 59/23/2 61/24/2
f 62/21/1 60/22/1 78/23/1 80/24/1
f 81/13/2 79/14/2 61/15/2 63/16/2
f 64/13/1 62/14/1 80/15/1 82/16/1
f 83/13/2 81/14/2 63/15/2 65/16/2
f 66/13/1 64/14/1 82/15/1 84/16/1
f 85/5/2 83/6/2 65/7/2 67/8/2
f 68/5/1 66/6/1 84/7/1 86/8/1
f 87/1/2 85/2/2 67/3/2 69/4/2
f 70/1/1 68/2/1 86/3/1 88/4/1
f 72/1/5 71/2/5 89/3/5 90/4/5
f 90/1/2 87/2/2 69/3/2 72/4/2
f 71/1/1 70/2/1 88/3/1 89/4/1
f 74/1/6 73/2/6 91/3/6 92/4/6
f 93/1/2 91/2/2 73/3/2 75/4/2
f 76/1/1 74/2/1 92/3/1 94/4/1
f 95/17/2 93/18/2 75/19/2 77/20/2
f 78/17/1 76/18/1 94/19/1 96/20/1
f 97/25/2 95/26/2 77/27/2 79/28/2
f 80/25/1 78/26/1 96/27/1 98/28/1
f 99/13/2 97/14/2 79/15/2 81/16/2
f 82/13/1 80/14/1 98/15/1 100/16/1
f 101/13/2 99/14/2 81/15/2 83/16/2
f 84/13/1 82/14/1 100/15/1 102/16/1
f 103/25/2 101/26/2 83/27/2 85/28/2
f 86/25/1 84/26/1 102/27/1 104/28/1
f 105/1/2 103/2/2 85/3/2 87/4/2
f 88/1/1 86/2/1 104/3/1 106/4/1
f 90/1/5 89/2/5 107/3/5 108/4/5
f 108/1/2 105/2/2 87/3/2 90/4/2
f 89/1/1 88/2/1 106/3/1 107/4/1
f 92/1/6 91/2/6 109/3/6 110/4/6
f 111/1/2 109/2/2 91/3/2 93/4/2
f 94/1/1 92/2/1 110/3/1 112/4/1
f 113/25/2 111/26/2 93/27/2 95/28/2
f 96/25/1 94/26/1 112/27/1 114/28/1
f 115/9/2 113/10/2 95/11/2 97/12/2
f 98/9/1 96/10/1 114/11/1 116/12/1
f 117/21/2 115/22/2 97/23/2 99/24/2
f 100/21/1 98/22/1 116/23/1 118/24/1
f 119/13/2 117/14/2 99/15/2 101/16/2
f 102/13/1 100/14/1 118/15/1 120/16/1
f 121/13/2 119/14/2 101/15/2 103/16/2
f 104/13/1 102/14/1 120/15/1 122/16/1
f 123/17/2 121/18/2 103/19/2 105/20/2
f 106/17/1 104/18/1 122/19/1 124/20/1
f 108/1/5 107/2/5 125/3/5 126/4/5
f 126/1/2 123/2/2 105/3/2 108/4/2
f 107/1/1 106/2/1 124/3/1 125/4/1
f 110/1/6 109/2/6 127/3/6 128/4/6
f 129/1/2 127/2/2 109/3/2 111/4/2
f 112/1/1 110/2/1 128/3/1 130/4/1
f 131/1/2 129/2/2 111/3/2 113/4/2
f 114/1/1 112/2/1 130/3/1 132/4/1
f 133/9/2 131/10/2 113/11/2 115/12/2
f 116/9/1 114/10/1 132/11/1 134/12/1
f 135/5/2 133/6/2 115/7/2 117/8/2
f 118/5/1 116/6/1 134/7/1 136/8/1
f 137/17/2 135/18/2 117/19/2 119/20/2
f 120/17/1 118/18/1 136/19/1 138/20/1
f 139/29/2 137/30/2 119/31/2 121/32/2
f 122/29/1 120/30/1 138/31/1 140/32/1
f 141/33/2 139/34/2 121/35/2 123/36/2
f 124/33/1 122/34/1 140/35/1 142/36/1
f 126/1/5 125/2/5 143/3/5 144/4/5
f 144/1/2 141/2/2 123/3/2 126/4/2
f 125/1/1 124/2/1 142/3/1 143/4/1
f 145/1/4 146/2/4 147/3/4 148/4/4
f 128/1/6 127/2/6 147/3/6 146/4/6
f 148/1/2 147/2/2 127/3/2 129/4/2
f 130/1/1 128/2/1 146/3/1 145/4/1
f 149/1/4 145/2/4 148/3/4 150/4/4
f 150/1/2 148/2/2 129/3/2 131/4/2
f 132/1/1 130/2/1 145/3/1 149/4/1
f 151/1/4 149/2/4 150/3/4 152/4/4
f 152/1/2 150/2/2 131/3/2 133/4/2
f 134/1/1 132/2/1 149/3/1 151/4/1
f 153/1/4 151/2/4 152/3/4 154/4/4
f 154/1/2 152/2/2 133/3/2 135/4/2
f 136/1/1 134/2/1 151/3/1 153/4/1
f 155/9/4 153/10/4 154/11/4 156/12/4
f 156/9/2 154/10/2 135/11/2 137/12/2
f 138/9/1 136/10/1 153/11/1 155/12/1
f 157/9/4 155/10/4 156/11/4 158/12/4
f 158/9/2 156/10/2 137/11/2 139/12/2
f 140/9/1 138/10/1 155/11/1 157/12/1
f 159/17/4 157/18/4 158/19/4 160/20/4
f 160/17/2 158/18/2 139/19/2 141/20/2
f 142/17/1 140/18/1 157/19/1 159/20/1
f 161/9/4 159/10/4 160/11/4 162/12/4
f 144/9/5 143/10/5 161/11/5 162/12/5
f 162/9/2 160/10/2 141/11/2 144/12/2
f 143/9/1 142/10/1 159/11/1 161/12/1
