# This file was created with Minddesk Qubicle 3.0
# Get Qubicle at www.getqubicle.com

mtllib 101_Piece3_2_0.mtl

vn 0.0 0.0 1.0
vn 0.0 0.0 -1.0
vn -1.0 0.0 0.0
vn 1.0 0.0 0.0
vn 0.0 1.0 0.0
vn 0.0 -1.0 0.0

v -40.00000 17.00000 0.00000
v -40.00000 16.00000 0.00000
v -40.00000 16.00000 1.00000
v -40.00000 17.00000 1.00000
v -39.00000 16.00000 0.00000
v -39.00000 16.00000 1.00000
v -39.00000 17.00000 0.00000
v -39.00000 17.00000 1.00000
v -40.00000 18.00000 0.00000
v -40.00000 18.00000 1.00000
v -39.00000 18.00000 0.00000
v -39.00000 18.00000 1.00000
v -40.00000 19.00000 0.00000
v -40.00000 19.00000 1.00000
v -39.00000 19.00000 0.00000
v -39.00000 19.00000 1.00000
v -40.00000 20.00000 0.00000
v -40.00000 20.00000 1.00000
v -39.00000 20.00000 0.00000
v -39.00000 20.00000 1.00000
v -40.00000 21.00000 0.00000
v -40.00000 21.00000 1.00000
v -39.00000 21.00000 0.00000
v -39.00000 21.00000 1.00000
v -40.00000 22.00000 0.00000
v -40.00000 22.00000 1.00000
v -39.00000 22.00000 0.00000
v -39.00000 22.00000 1.00000
v -40.00000 23.00000 0.00000
v -40.00000 23.00000 1.00000
v -39.00000 23.00000 0.00000
v -39.00000 23.00000 1.00000
v -40.00000 24.00000 0.00000
v -40.00000 24.00000 1.00000
v -39.00000 24.00000 1.00000
v -39.00000 24.00000 0.00000
v -38.00000 16.00000 0.00000
v -38.00000 16.00000 1.00000
v -38.00000 17.00000 0.00000
v -38.00000 17.00000 1.00000
v -38.00000 18.00000 0.00000
v -38.00000 18.00000 1.00000
v -38.00000 19.00000 0.00000
v -38.00000 19.00000 1.00000
v -38.00000 20.00000 0.00000
v -38.00000 20.00000 1.00000
v -38.00000 21.00000 0.00000
v -38.00000 21.00000 1.00000
v -38.00000 22.00000 0.00000
v -38.00000 22.00000 1.00000
v -38.00000 23.00000 0.00000
v -38.00000 23.00000 1.00000
v -38.00000 24.00000 1.00000
v -38.00000 24.00000 0.00000
v -37.00000 16.00000 0.00000
v -37.00000 16.00000 1.00000
v -37.00000 17.00000 0.00000
v -37.00000 17.00000 1.00000
v -37.00000 18.00000 0.00000
v -37.00000 18.00000 1.00000
v -37.00000 19.00000 0.00000
v -37.00000 19.00000 1.00000
v -37.00000 20.00000 0.00000
v -37.00000 20.00000 1.00000
v -37.00000 21.00000 0.00000
v -37.00000 21.00000 1.00000
v -37.00000 22.00000 0.00000
v -37.00000 22.00000 1.00000
v -37.00000 23.00000 0.00000
v -37.00000 23.00000 1.00000
v -37.00000 24.00000 1.00000
v -37.00000 24.00000 0.00000
v -36.00000 16.00000 0.00000
v -36.00000 16.00000 1.00000
v -36.00000 17.00000 0.00000
v -36.00000 17.00000 1.00000
v -36.00000 18.00000 0.00000
v -36.00000 18.00000 1.00000
v -36.00000 19.00000 0.00000
v -36.00000 19.00000 1.00000
v -36.00000 20.00000 0.00000
v -36.00000 20.00000 1.00000
v -36.00000 21.00000 0.00000
v -36.00000 21.00000 1.00000
v -36.00000 22.00000 0.00000
v -36.00000 22.00000 1.00000
v -36.00000 23.00000 0.00000
v -36.00000 23.00000 1.00000
v -36.00000 24.00000 1.00000
v -36.00000 24.00000 0.00000
v -35.00000 16.00000 0.00000
v -35.00000 16.00000 1.00000
v -35.00000 17.00000 0.00000
v -35.00000 17.00000 1.00000
v -35.00000 18.00000 0.00000
v -35.00000 18.00000 1.00000
v -35.00000 19.00000 0.00000
v -35.00000 19.00000 1.00000
v -35.00000 20.00000 0.00000
v -35.00000 20.00000 1.00000
v -35.00000 21.00000 0.00000
v -35.00000 21.00000 1.00000
v -35.00000 22.00000 0.00000
v -35.00000 22.00000 1.00000
v -35.00000 23.00000 0.00000
v -35.00000 23.00000 1.00000
v -35.00000 24.00000 1.00000
v -35.00000 24.00000 0.00000
v -34.00000 16.00000 0.00000
v -34.00000 16.00000 1.00000
v -34.00000 17.00000 0.00000
v -34.00000 17.00000 1.00000
v -34.00000 18.00000 0.00000
v -34.00000 18.00000 1.00000
v -34.00000 19.00000 0.00000
v -34.00000 19.00000 1.00000
v -34.00000 20.00000 0.00000
v -34.00000 20.00000 1.00000
v -34.00000 21.00000 0.00000
v -34.00000 21.00000 1.00000
v -34.00000 22.00000 0.00000
v -34.00000 22.00000 1.00000
v -34.00000 23.00000 0.00000
v -34.00000 23.00000 1.00000
v -34.00000 24.00000 1.00000
v -34.00000 24.00000 0.00000
v -33.00000 16.00000 0.00000
v -33.00000 16.00000 1.00000
v -33.00000 17.00000 0.00000
v -33.00000 17.00000 1.00000
v -33.00000 18.00000 0.00000
v -33.00000 18.00000 1.00000
v -33.00000 19.00000 0.00000
v -33.00000 19.00000 1.00000
v -33.00000 20.00000 0.00000
v -33.00000 20.00000 1.00000
v -33.00000 21.00000 0.00000
v -33.00000 21.00000 1.00000
v -33.00000 22.00000 0.00000
v -33.00000 22.00000 1.00000
v -33.00000 23.00000 0.00000
v -33.00000 23.00000 1.00000
v -33.00000 24.00000 1.00000
v -33.00000 24.00000 0.00000
v -32.00000 17.00000 1.00000
v -32.00000 16.00000 1.00000
v -32.00000 16.00000 0.00000
v -32.00000 17.00000 0.00000
v -32.00000 18.00000 1.00000
v -32.00000 18.00000 0.00000
v -32.00000 19.00000 1.00000
v -32.00000 19.00000 0.00000
v -32.00000 20.00000 1.00000
v -32.00000 20.00000 0.00000
v -32.00000 21.00000 1.00000
v -32.00000 21.00000 0.00000
v -32.00000 22.00000 1.00000
v -32.00000 22.00000 0.00000
v -32.00000 23.00000 1.00000
v -32.00000 23.00000 0.00000
v -32.00000 24.00000 1.00000
v -32.00000 24.00000 0.00000

vt 0.29688 0.08594
vt 0.29688 0.07813
vt 0.30078 0.07813
vt 0.30078 0.08594
vt 0.47266 0.15625
vt 0.47266 0.14844
vt 0.47656 0.14844
vt 0.47656 0.15625
vt 0.01563 0.01563
vt 0.01563 0.00781
vt 0.01953 0.00781
vt 0.01953 0.01563
vt 0.02734 0.01563
vt 0.02734 0.00781
vt 0.03125 0.00781
vt 0.03125 0.01563
vt 0.03906 0.01563
vt 0.03906 0.00781
vt 0.04297 0.00781
vt 0.04297 0.01563
vt 0.05078 0.01563
vt 0.05078 0.00781
vt 0.05469 0.00781
vt 0.05469 0.01563
vt 0.06250 0.01563
vt 0.06250 0.00781
vt 0.06641 0.00781
vt 0.06641 0.01563
vt 0.26172 0.01563
vt 0.26172 0.00781
vt 0.26563 0.00781
vt 0.26563 0.01563
vt 0.25000 0.08594
vt 0.25000 0.07813
vt 0.25391 0.07813
vt 0.25391 0.08594
vt 0.48438 0.15625
vt 0.48438 0.14844
vt 0.48828 0.14844
vt 0.48828 0.15625
vt 0.49609 0.15625
vt 0.49609 0.14844
vt 0.50000 0.14844
vt 0.50000 0.15625
vt 0.23828 0.08594
vt 0.23828 0.07813
vt 0.24219 0.07813
vt 0.24219 0.08594
vt 0.30859 0.08594
vt 0.30859 0.07813
vt 0.31250 0.07813
vt 0.31250 0.08594
vt 0.00391 0.17969
vt 0.00391 0.17188
vt 0.00781 0.17188
vt 0.00781 0.17969
vt 0.01563 0.17969
vt 0.01563 0.17188
vt 0.01953 0.17188
vt 0.01953 0.17969
vt 0.29688 0.01563
vt 0.29688 0.00781
vt 0.30078 0.00781
vt 0.30078 0.01563
vt 0.21484 0.01563
vt 0.21484 0.00781
vt 0.21875 0.00781
vt 0.21875 0.01563
vt 0.21484 0.08594
vt 0.21484 0.07813
vt 0.21875 0.07813
vt 0.21875 0.08594
vt 0.02734 0.17969
vt 0.02734 0.17188
vt 0.03125 0.17188
vt 0.03125 0.17969
vt 0.19141 0.01563
vt 0.19141 0.00781
vt 0.19531 0.00781
vt 0.19531 0.01563
vt 0.03906 0.17969
vt 0.03906 0.17188
vt 0.04297 0.17188
vt 0.04297 0.17969
vt 0.05078 0.17969
vt 0.05078 0.17188
vt 0.05469 0.17188
vt 0.05469 0.17969
vt 0.06250 0.17969
vt 0.06250 0.17188
vt 0.06641 0.17188
vt 0.06641 0.17969
vt 0.16797 0.01563
vt 0.16797 0.00781
vt 0.17188 0.00781
vt 0.17188 0.01563
vt 0.07422 0.17969
vt 0.07422 0.17188
vt 0.07813 0.17188
vt 0.07813 0.17969

g 101_Piece3_2_0
usemtl 101_Material
f 1/1/3 2/2/3 3/3/3 4/4/3
f 3/1/6 2/2/6 5/3/6 6/4/6
f 7/1/2 5/2/2 2/3/2 1/4/2
f 4/1/1 3/2/1 6/3/1 8/4/1
f 9/5/3 1/6/3 4/7/3 10/8/3
f 11/5/2 7/6/2 1/7/2 9/8/2
f 10/5/1 4/6/1 8/7/1 12/8/1
f 13/9/3 9/10/3 10/11/3 14/12/3
f 15/9/2 11/10/2 9/11/2 13/12/2
f 14/9/1 10/10/1 12/11/1 16/12/1
f 17/13/3 13/14/3 14/15/3 18/16/3
f 19/13/2 15/14/2 13/15/2 17/16/2
f 18/13/1 14/14/1 16/15/1 20/16/1
f 21/17/3 17/18/3 18/19/3 22/20/3
f 23/17/2 19/18/2 17/19/2 21/20/2
f 22/17/1 18/18/1 20/19/1 24/20/1
f 25/21/3 21/22/3 22/23/3 26/24/3
f 27/21/2 23/22/2 21/23/2 25/24/2
f 26/21/1 22/22/1 24/23/1 28/24/1
f 29/21/3 25/22/3 26/23/3 30/24/3
f 31/21/2 27/22/2 25/23/2 29/24/2
f 30/21/1 26/22/1 28/23/1 32/24/1
f 33/25/3 29/26/3 30/27/3 34/28/3
f 33/25/5 34/26/5 35/27/5 36/28/5
f 36/25/2 31/26/2 29/27/2 33/28/2
f 34/25/1 30/26/1 32/27/1 35/28/1
f 6/29/6 5/30/6 37/31/6 38/32/6
f 39/29/2 37/30/2 5/31/2 7/32/2
f 8/29/1 6/30/1 38/31/1 40/32/1
f 41/1/2 39/2/2 7/3/2 11/4/2
f 12/1/1 8/2/1 40/3/1 42/4/1
f 43/33/2 41/34/2 11/35/2 15/36/2
f 16/33/1 12/34/1 42/35/1 44/36/1
f 45/17/2 43/18/2 15/19/2 19/20/2
f 20/17/1 16/18/1 44/19/1 46/20/1
f 47/13/2 45/14/2 19/15/2 23/16/2
f 24/13/1 20/14/1 46/15/1 48/16/1
f 49/17/2 47/18/2 23/19/2 27/20/2
f 28/17/1 24/18/1 48/19/1 50/20/1
f 51/21/2 49/22/2 27/23/2 31/24/2
f 32/21/1 28/22/1 50/23/1 52/24/1
f 36/25/5 35/26/5 53/27/5 54/28/5
f 54/25/2 51/26/2 31/27/2 36/28/2
f 35/25/1 32/26/1 52/27/1 53/28/1
f 38/37/6 37/38/6 55/39/6 56/40/6
f 57/37/2 55/38/2 37/39/2 39/40/2
f 40/37/1 38/38/1 56/39/1 58/40/1
f 59/41/2 57/42/2 39/43/2 41/44/2
f 42/41/1 40/42/1 58/43/1 60/44/1
f 61/45/2 59/46/2 41/47/2 43/48/2
f 44/45/1 42/46/1 60/47/1 62/48/1
f 63/13/2 61/14/2 43/15/2 45/16/2
f 46/13/1 44/14/1 62/15/1 64/16/1
f 65/21/2 63/22/2 45/23/2 47/24/2
f 48/21/1 46/22/1 64/23/1 66/24/1
f 67/21/2 65/22/2 47/23/2 49/24/2
f 50/21/1 48/22/1 66/23/1 68/24/1
f 69/25/2 67/26/2 49/27/2 51/28/2
f 52/25/1 50/26/1 68/27/1 70/28/1
f 54/25/5 53/26/5 71/27/5 72/28/5
f 72/25/2 69/26/2 51/27/2 54/28/2
f 53/25/1 52/26/1 70/27/1 71/28/1
f 56/49/6 55/50/6 73/51/6 74/52/6
f 75/49/2 73/50/2 55/51/2 57/52/2
f 58/49/1 56/50/1 74/51/1 76/52/1
f 77/53/2 75/54/2 57/55/2 59/56/2
f 60/53/1 58/54/1 76/55/1 78/56/1
f 79/57/2 77/58/2 59/59/2 61/60/2
f 62/57/1 60/58/1 78/59/1 80/60/1
f 81/61/2 79/62/2 61/63/2 63/64/2
f 64/61/1 62/62/1 80/63/1 82/64/1
f 83/17/2 81/18/2 63/19/2 65/20/2
f 66/17/1 64/18/1 82/19/1 84/20/1
f 85/21/2 83/22/2 65/23/2 67/24/2
f 68/21/1 66/22/1 84/23/1 86/24/1
f 87/21/2 85/22/2 67/23/2 69/24/2
f 70/21/1 68/22/1 86/23/1 88/24/1
f 72/25/5 71/26/5 89/27/5 90/28/5
f 90/25/2 87/26/2 69/27/2 72/28/2
f 71/25/1 70/26/1 88/27/1 89/28/1
f 74/65/6 73/66/6 91/67/6 92/68/6
f 93/65/2 91/66/2 73/67/2 75/68/2
f 76/65/1 74/66/1 92/67/1 94/68/1
f 95/69/2 93/70/2 75/71/2 77/72/2
f 78/69/1 76/70/1 94/71/1 96/72/1
f 97/73/2 95/74/2 77/75/2 79/76/2
f 80/73/1 78/74/1 96/75/1 98/76/1
f 99/9/2 97/10/2 79/11/2 81/12/2
f 82/9/1 80/10/1 98/11/1 100/12/1
f 101/9/2 99/10/2 81/11/2 83/12/2
f 84/9/1 82/10/1 100/11/1 102/12/1
f 103/21/2 101/22/2 83/23/2 85/24/2
f 86/21/1 84/22/1 102/23/1 104/24/1
f 105/17/2 103/18/2 85/19/2 87/20/2
f 88/17/1 86/18/1 104/19/1 106/20/1
f 90/25/5 89/26/5 107/27/5 108/28/5
f 108/25/2 105/26/2 87/27/2 90/28/2
f 89/25/1 88/26/1 106/27/1 107/28/1
f 92/77/6 91/78/6 109/79/6 110/80/6
f 111/77/2 109/78/2 91/79/2 93/80/2
f 94/77/1 92/78/1 110/79/1 112/80/1
f 113/29/2 111/30/2 93/31/2 95/32/2
f 96/29/1 94/30/1 112/31/1 114/32/1
f 115/81/2 113/82/2 95/83/2 97/84/2
f 98/81/1 96/82/1 114/83/1 116/84/1
f 117/85/2 115/86/2 97/87/2 99/88/2
f 100/85/1 98/86/1 116/87/1 118/88/1
f 119/9/2 117/10/2 99/11/2 101/12/2
f 102/9/1 100/10/1 118/11/1 120/12/1
f 121/17/2 119/18/2 101/19/2 103/20/2
f 104/17/1 102/18/1 120/19/1 122/20/1
f 123/21/2 121/22/2 103/23/2 105/24/2
f 106/21/1 104/22/1 122/23/1 124/24/1
f 108/25/5 107/26/5 125/27/5 126/28/5
f 126/25/2 123/26/2 105/27/2 108/28/2
f 107/25/1 106/26/1 124/27/1 125/28/1
f 110/89/6 109/90/6 127/91/6 128/92/6
f 129/89/2 127/90/2 109/91/2 111/92/2
f 112/89/1 110/90/1 128/91/1 130/92/1
f 131/93/2 129/94/2 111/95/2 113/96/2
f 114/93/1 112/94/1 130/95/1 132/96/1
f 133/9/2 131/10/2 113/11/2 115/12/2
f 116/9/1 114/10/1 132/11/1 134/12/1
f 135/9/2 133/10/2 115/11/2 117/12/2
f 118/9/1 116/10/1 134/11/1 136/12/1
f 137/17/2 135/18/2 117/19/2 119/20/2
f 120/17/1 118/18/1 136/19/1 138/20/1
f 139/21/2 137/22/2 119/23/2 121/24/2
f 122/21/1 120/22/1 138/23/1 140/24/1
f 141/25/2 139/26/2 121/27/2 123/28/2
f 124/25/1 122/26/1 140/27/1 142/28/1
f 126/25/5 125/26/5 143/27/5 144/28/5
f 144/25/2 141/26/2 123/27/2 126/28/2
f 125/25/1 124/26/1 142/27/1 143/28/1
f 145/97/4 146/98/4 147/99/4 148/100/4
f 128/97/6 127/98/6 147/99/6 146/100/6
f 148/97/2 147/98/2 127/99/2 129/100/2
f 130/97/1 128/98/1 146/99/1 145/100/1
f 149/37/4 145/38/4 148/39/4 150/40/4
f 150/37/2 148/38/2 129/39/2 131/40/2
f 132/37/1 130/38/1 145/39/1 149/40/1
f 151/45/4 149/46/4 150/47/4 152/48/4
f 152/45/2 150/46/2 131/47/2 133/48/2
f 134/45/1 132/46/1 149/47/1 151/48/1
f 153/13/4 151/14/4 152/15/4 154/16/4
f 154/13/2 152/14/2 133/15/2 135/16/2
f 136/13/1 134/14/1 151/15/1 153/16/1
f 155/21/4 153/22/4 154/23/4 156/24/4
f 156/21/2 154/22/2 135/23/2 137/24/2
f 138/21/1 136/22/1 153/23/1 155/24/1
f 157/17/4 155/18/4 156/19/4 158/20/4
f 158/17/2 156/18/2 137/19/2 139/20/2
f 140/17/1 138/18/1 155/19/1 157/20/1
f 159/25/4 157/26/4 158/27/4 160/28/4
f 160/25/2 158/26/2 139/27/2 141/28/2
f 142/25/1 140/26/1 157/27/1 159/28/1
f 161/25/4 159/26/4 160/27/4 162/28/4
f 144/25/5 143/26/5 161/27/5 162/28/5
f 162/25/2 160/26/2 141/27/2 144/28/2
f 143/25/1 142/26/1 159/27/1 161/28/1
