# This file was created with Minddesk Qubicle 3.0
# Get Qubicle at www.getqubicle.com

mtllib 101_Piece2_2_0.mtl

vn 0.0 0.0 1.0
vn 0.0 0.0 -1.0
vn -1.0 0.0 0.0
vn 1.0 0.0 0.0
vn 0.0 1.0 0.0
vn 0.0 -1.0 0.0

v -48.00000 17.00000 0.00000
v -48.00000 16.00000 0.00000
v -48.00000 16.00000 1.00000
v -48.00000 17.00000 1.00000
v -47.00000 16.00000 0.00000
v -47.00000 16.00000 1.00000
v -47.00000 17.00000 0.00000
v -47.00000 17.00000 1.00000
v -48.00000 18.00000 0.00000
v -48.00000 18.00000 1.00000
v -47.00000 18.00000 0.00000
v -47.00000 18.00000 1.00000
v -48.00000 19.00000 0.00000
v -48.00000 19.00000 1.00000
v -47.00000 19.00000 0.00000
v -47.00000 19.00000 1.00000
v -48.00000 20.00000 0.00000
v -48.00000 20.00000 1.00000
v -47.00000 20.00000 0.00000
v -47.00000 20.00000 1.00000
v -48.00000 21.00000 0.00000
v -48.00000 21.00000 1.00000
v -47.00000 21.00000 0.00000
v -47.00000 21.00000 1.00000
v -48.00000 22.00000 0.00000
v -48.00000 22.00000 1.00000
v -47.00000 22.00000 0.00000
v -47.00000 22.00000 1.00000
v -48.00000 23.00000 0.00000
v -48.00000 23.00000 1.00000
v -47.00000 23.00000 0.00000
v -47.00000 23.00000 1.00000
v -48.00000 24.00000 0.00000
v -48.00000 24.00000 1.00000
v -47.00000 24.00000 1.00000
v -47.00000 24.00000 0.00000
v -46.00000 16.00000 0.00000
v -46.00000 16.00000 1.00000
v -46.00000 17.00000 0.00000
v -46.00000 17.00000 1.00000
v -46.00000 18.00000 0.00000
v -46.00000 18.00000 1.00000
v -46.00000 19.00000 0.00000
v -46.00000 19.00000 1.00000
v -46.00000 20.00000 0.00000
v -46.00000 20.00000 1.00000
v -46.00000 21.00000 0.00000
v -46.00000 21.00000 1.00000
v -46.00000 22.00000 0.00000
v -46.00000 22.00000 1.00000
v -46.00000 23.00000 0.00000
v -46.00000 23.00000 1.00000
v -46.00000 24.00000 1.00000
v -46.00000 24.00000 0.00000
v -45.00000 16.00000 0.00000
v -45.00000 16.00000 1.00000
v -45.00000 17.00000 0.00000
v -45.00000 17.00000 1.00000
v -45.00000 18.00000 0.00000
v -45.00000 18.00000 1.00000
v -45.00000 19.00000 0.00000
v -45.00000 19.00000 1.00000
v -45.00000 20.00000 0.00000
v -45.00000 20.00000 1.00000
v -45.00000 21.00000 0.00000
v -45.00000 21.00000 1.00000
v -45.00000 22.00000 0.00000
v -45.00000 22.00000 1.00000
v -45.00000 23.00000 0.00000
v -45.00000 23.00000 1.00000
v -45.00000 24.00000 1.00000
v -45.00000 24.00000 0.00000
v -44.00000 16.00000 0.00000
v -44.00000 16.00000 1.00000
v -44.00000 17.00000 0.00000
v -44.00000 17.00000 1.00000
v -44.00000 18.00000 0.00000
v -44.00000 18.00000 1.00000
v -44.00000 19.00000 0.00000
v -44.00000 19.00000 1.00000
v -44.00000 20.00000 0.00000
v -44.00000 20.00000 1.00000
v -44.00000 21.00000 0.00000
v -44.00000 21.00000 1.00000
v -44.00000 22.00000 0.00000
v -44.00000 22.00000 1.00000
v -44.00000 23.00000 0.00000
v -44.00000 23.00000 1.00000
v -44.00000 24.00000 1.00000
v -44.00000 24.00000 0.00000
v -43.00000 16.00000 0.00000
v -43.00000 16.00000 1.00000
v -43.00000 17.00000 0.00000
v -43.00000 17.00000 1.00000
v -43.00000 18.00000 0.00000
v -43.00000 18.00000 1.00000
v -43.00000 19.00000 0.00000
v -43.00000 19.00000 1.00000
v -43.00000 20.00000 0.00000
v -43.00000 20.00000 1.00000
v -43.00000 21.00000 0.00000
v -43.00000 21.00000 1.00000
v -43.00000 22.00000 0.00000
v -43.00000 22.00000 1.00000
v -43.00000 23.00000 0.00000
v -43.00000 23.00000 1.00000
v -43.00000 24.00000 1.00000
v -43.00000 24.00000 0.00000
v -42.00000 16.00000 0.00000
v -42.00000 16.00000 1.00000
v -42.00000 17.00000 0.00000
v -42.00000 17.00000 1.00000
v -42.00000 18.00000 0.00000
v -42.00000 18.00000 1.00000
v -42.00000 19.00000 0.00000
v -42.00000 19.00000 1.00000
v -42.00000 20.00000 0.00000
v -42.00000 20.00000 1.00000
v -42.00000 21.00000 0.00000
v -42.00000 21.00000 1.00000
v -42.00000 22.00000 0.00000
v -42.00000 22.00000 1.00000
v -42.00000 23.00000 0.00000
v -42.00000 23.00000 1.00000
v -42.00000 24.00000 1.00000
v -42.00000 24.00000 0.00000
v -41.00000 16.00000 0.00000
v -41.00000 16.00000 1.00000
v -41.00000 17.00000 0.00000
v -41.00000 17.00000 1.00000
v -41.00000 18.00000 0.00000
v -41.00000 18.00000 1.00000
v -41.00000 19.00000 0.00000
v -41.00000 19.00000 1.00000
v -41.00000 20.00000 0.00000
v -41.00000 20.00000 1.00000
v -41.00000 21.00000 0.00000
v -41.00000 21.00000 1.00000
v -41.00000 22.00000 0.00000
v -41.00000 22.00000 1.00000
v -41.00000 23.00000 0.00000
v -41.00000 23.00000 1.00000
v -41.00000 24.00000 1.00000
v -41.00000 24.00000 0.00000
v -40.00000 17.00000 1.00000
v -40.00000 16.00000 1.00000
v -40.00000 16.00000 0.00000
v -40.00000 17.00000 0.00000
v -40.00000 18.00000 1.00000
v -40.00000 18.00000 0.00000
v -40.00000 19.00000 1.00000
v -40.00000 19.00000 0.00000
v -40.00000 20.00000 1.00000
v -40.00000 20.00000 0.00000
v -40.00000 21.00000 1.00000
v -40.00000 21.00000 0.00000
v -40.00000 22.00000 1.00000
v -40.00000 22.00000 0.00000
v -40.00000 23.00000 1.00000
v -40.00000 23.00000 0.00000
v -40.00000 24.00000 1.00000
v -40.00000 24.00000 0.00000

vt 0.06250 0.01563
vt 0.06250 0.00781
vt 0.06641 0.00781
vt 0.06641 0.01563
vt 0.05078 0.01563
vt 0.05078 0.00781
vt 0.05469 0.00781
vt 0.05469 0.01563
vt 0.03906 0.01563
vt 0.03906 0.00781
vt 0.04297 0.00781
vt 0.04297 0.01563
vt 0.02734 0.01563
vt 0.02734 0.00781
vt 0.03125 0.00781
vt 0.03125 0.01563
vt 0.01563 0.01563
vt 0.01563 0.00781
vt 0.01953 0.00781
vt 0.01953 0.01563
vt 0.20313 0.13281
vt 0.20313 0.12500
vt 0.20703 0.12500
vt 0.20703 0.13281
vt 0.13281 0.01563
vt 0.13281 0.00781
vt 0.13672 0.00781
vt 0.13672 0.01563
vt 0.21484 0.13281
vt 0.21484 0.12500
vt 0.21875 0.12500
vt 0.21875 0.13281
vt 0.22656 0.13281
vt 0.22656 0.12500
vt 0.23047 0.12500
vt 0.23047 0.13281
vt 0.23828 0.13281
vt 0.23828 0.12500
vt 0.24219 0.12500
vt 0.24219 0.13281
vt 0.25000 0.13281
vt 0.25000 0.12500
vt 0.25391 0.12500
vt 0.25391 0.13281
vt 0.12109 0.01563
vt 0.12109 0.00781
vt 0.12500 0.00781
vt 0.12500 0.01563
vt 0.26172 0.13281
vt 0.26172 0.12500
vt 0.26563 0.12500
vt 0.26563 0.13281
vt 0.27344 0.13281
vt 0.27344 0.12500
vt 0.27734 0.12500
vt 0.27734 0.13281
vt 0.28516 0.13281
vt 0.28516 0.12500
vt 0.28906 0.12500
vt 0.28906 0.13281
vt 0.14453 0.01563
vt 0.14453 0.00781
vt 0.14844 0.00781
vt 0.14844 0.01563
vt 0.29688 0.13281
vt 0.29688 0.12500
vt 0.30078 0.12500
vt 0.30078 0.13281

g 101_Piece2_2_0
usemtl 101_Material
f 1/1/3 2/2/3 3/3/3 4/4/3
f 3/1/6 2/2/6 5/3/6 6/4/6
f 7/1/2 5/2/2 2/3/2 1/4/2
f 4/1/1 3/2/1 6/3/1 8/4/1
f 9/5/3 1/6/3 4/7/3 10/8/3
f 11/5/2 7/6/2 1/7/2 9/8/2
f 10/5/1 4/6/1 8/7/1 12/8/1
f 13/5/3 9/6/3 10/7/3 14/8/3
f 15/5/2 11/6/2 9/7/2 13/8/2
f 14/5/1 10/6/1 12/7/1 16/8/1
f 17/9/3 13/10/3 14/11/3 18/12/3
f 19/9/2 15/10/2 13/11/2 17/12/2
f 18/9/1 14/10/1 16/11/1 20/12/1
f 21/13/3 17/14/3 18/15/3 22/16/3
f 23/13/2 19/14/2 17/15/2 21/16/2
f 22/13/1 18/14/1 20/15/1 24/16/1
f 25/17/3 21/18/3 22/19/3 26/20/3
f 27/17/2 23/18/2 21/19/2 25/20/2
f 26/17/1 22/18/1 24/19/1 28/20/1
f 29/21/3 25/22/3 26/23/3 30/24/3
f 31/21/2 27/22/2 25/23/2 29/24/2
f 30/21/1 26/22/1 28/23/1 32/24/1
f 33/25/3 29/26/3 30/27/3 34/28/3
f 33/25/5 34/26/5 35/27/5 36/28/5
f 36/25/2 31/26/2 29/27/2 33/28/2
f 34/25/1 30/26/1 32/27/1 35/28/1
f 6/1/6 5/2/6 37/3/6 38/4/6
f 39/1/2 37/2/2 5/3/2 7/4/2
f 8/1/1 6/2/1 38/3/1 40/4/1
f 41/5/2 39/6/2 7/7/2 11/8/2
f 12/5/1 8/6/1 40/7/1 42/8/1
f 43/9/2 41/10/2 11/11/2 15/12/2
f 16/9/1 12/10/1 42/11/1 44/12/1
f 45/13/2 43/14/2 15/15/2 19/16/2
f 20/13/1 16/14/1 44/15/1 46/16/1
f 47/9/2 45/10/2 19/11/2 23/12/2
f 24/9/1 20/10/1 46/11/1 48/12/1
f 49/29/2 47/30/2 23/31/2 27/32/2
f 28/29/1 24/30/1 48/31/1 50/32/1
f 51/25/2 49/26/2 27/27/2 31/28/2
f 32/25/1 28/26/1 50/27/1 52/28/1
f 36/33/5 35/34/5 53/35/5 54/36/5
f 54/33/2 51/34/2 31/35/2 36/36/2
f 35/33/1 32/34/1 52/35/1 53/36/1
f 38/1/6 37/2/6 55/3/6 56/4/6
f 57/1/2 55/2/2 37/3/2 39/4/2
f 40/1/1 38/2/1 56/3/1 58/4/1
f 59/1/2 57/2/2 39/3/2 41/4/2
f 42/1/1 40/2/1 58/3/1 60/4/1
f 61/5/2 59/6/2 41/7/2 43/8/2
f 44/5/1 42/6/1 60/7/1 62/8/1
f 63/5/2 61/6/2 43/7/2 45/8/2
f 46/5/1 44/6/1 62/7/1 64/8/1
f 65/13/2 63/14/2 45/15/2 47/16/2
f 48/13/1 46/14/1 64/15/1 66/16/1
f 67/25/2 65/26/2 47/27/2 49/28/2
f 50/25/1 48/26/1 66/27/1 68/28/1
f 69/37/2 67/38/2 49/39/2 51/40/2
f 52/37/1 50/38/1 68/39/1 70/40/1
f 54/41/5 53/42/5 71/43/5 72/44/5
f 72/41/2 69/42/2 51/43/2 54/44/2
f 53/41/1 52/42/1 70/43/1 71/44/1
f 56/1/6 55/2/6 73/3/6 74/4/6
f 75/1/2 73/2/2 55/3/2 57/4/2
f 58/1/1 56/2/1 74/3/1 76/4/1
f 77/5/2 75/6/2 57/7/2 59/8/2
f 60/5/1 58/6/1 76/7/1 78/8/1
f 79/5/2 77/6/2 59/7/2 61/8/2
f 62/5/1 60/6/1 78/7/1 80/8/1
f 81/9/2 79/10/2 61/11/2 63/12/2
f 64/9/1 62/10/1 80/11/1 82/12/1
f 83/29/2 81/30/2 63/31/2 65/32/2
f 66/29/1 64/30/1 82/31/1 84/32/1
f 85/45/2 83/46/2 65/47/2 67/48/2
f 68/45/1 66/46/1 84/47/1 86/48/1
f 87/41/2 85/42/2 67/43/2 69/44/2
f 70/41/1 68/42/1 86/43/1 88/44/1
f 72/33/5 71/34/5 89/35/5 90/36/5
f 90/33/2 87/34/2 69/35/2 72/36/2
f 71/33/1 70/34/1 88/35/1 89/36/1
f 74/1/6 73/2/6 91/3/6 92/4/6
f 93/1/2 91/2/2 73/3/2 75/4/2
f 76/1/1 74/2/1 92/3/1 94/4/1
f 95/9/2 93/10/2 75/11/2 77/12/2
f 78/9/1 76/10/1 94/11/1 96/12/1
f 97/5/2 95/6/2 77/7/2 79/8/2
f 80/5/1 78/6/1 96/7/1 98/8/1
f 99/17/2 97/18/2 79/19/2 81/20/2
f 82/17/1 80/18/1 98/19/1 100/20/1
f 101/17/2 99/18/2 81/19/2 83/20/2
f 84/17/1 82/18/1 100/19/1 102/20/1
f 103/25/2 101/26/2 83/27/2 85/28/2
f 86/25/1 84/26/1 102/27/1 104/28/1
f 105/37/2 103/38/2 85/39/2 87/40/2
f 88/37/1 86/38/1 104/39/1 106/40/1
f 90/41/5 89/42/5 107/43/5 108/44/5
f 108/41/2 105/42/2 87/43/2 90/44/2
f 89/41/1 88/42/1 106/43/1 107/44/1
f 92/1/6 91/2/6 109/3/6 110/4/6
f 111/1/2 109/2/2 91/3/2 93/4/2
f 94/1/1 92/2/1 110/3/1 112/4/1
f 113/5/2 111/6/2 93/7/2 95/8/2
f 96/5/1 94/6/1 112/7/1 114/8/1
f 115/9/2 113/10/2 95/11/2 97/12/2
f 98/9/1 96/10/1 114/11/1 116/12/1
f 117/17/2 115/18/2 97/19/2 99/20/2
f 100/17/1 98/18/1 116/19/1 118/20/1
f 119/49/2 117/50/2 99/51/2 101/52/2
f 102/49/1 100/50/1 118/51/1 120/52/1
f 121/25/2 119/26/2 101/27/2 103/28/2
f 104/25/1 102/26/1 120/27/1 122/28/1
f 123/33/2 121/34/2 103/35/2 105/36/2
f 106/33/1 104/34/1 122/35/1 124/36/1
f 108/41/5 107/42/5 125/43/5 126/44/5
f 126/41/2 123/42/2 105/43/2 108/44/2
f 107/41/1 106/42/1 124/43/1 125/44/1
f 110/1/6 109/2/6 127/3/6 128/4/6
f 129/1/2 127/2/2 109/3/2 111/4/2
f 112/1/1 110/2/1 128/3/1 130/4/1
f 131/1/2 129/2/2 111/3/2 113/4/2
f 114/1/1 112/2/1 130/3/1 132/4/1
f 133/5/2 131/6/2 113/7/2 115/8/2
f 116/5/1 114/6/1 132/7/1 134/8/1
f 135/9/2 133/10/2 115/11/2 117/12/2
f 118/9/1 116/10/1 134/11/1 136/12/1
f 137/17/2 135/18/2 117/19/2 119/20/2
f 120/17/1 118/18/1 136/19/1 138/20/1
f 139/17/2 137/18/2 119/19/2 121/20/2
f 122/17/1 120/18/1 138/19/1 140/20/1
f 141/53/2 139/54/2 121/55/2 123/56/2
f 124/53/1 122/54/1 140/55/1 142/56/1
f 126/45/5 125/46/5 143/47/5 144/48/5
f 144/45/2 141/46/2 123/47/2 126/48/2
f 125/45/1 124/46/1 142/47/1 143/48/1
f 145/1/4 146/2/4 147/3/4 148/4/4
f 128/1/6 127/2/6 147/3/6 146/4/6
f 148/1/2 147/2/2 127/3/2 129/4/2
f 130/1/1 128/2/1 146/3/1 145/4/1
f 149/1/4 145/2/4 148/3/4 150/4/4
f 150/1/2 148/2/2 129/3/2 131/4/2
f 132/1/1 130/2/1 145/3/1 149/4/1
f 151/9/4 149/10/4 150/11/4 152/12/4
f 152/9/2 150/10/2 131/11/2 133/12/2
f 134/9/1 132/10/1 149/11/1 151/12/1
f 153/5/4 151/6/4 152/7/4 154/8/4
f 154/5/2 152/6/2 133/7/2 135/8/2
f 136/5/1 134/6/1 151/7/1 153/8/1
f 155/13/4 153/14/4 154/15/4 156/16/4
f 156/13/2 154/14/2 135/15/2 137/16/2
f 138/13/1 136/14/1 153/15/1 155/16/1
f 157/57/4 155/58/4 156/59/4 158/60/4
f 158/57/2 156/58/2 137/59/2 139/60/2
f 140/57/1 138/58/1 155/59/1 157/60/1
f 159/61/4 157/62/4 158/63/4 160/64/4
f 160/61/2 158/62/2 139/63/2 141/64/2
f 142/61/1 140/62/1 157/63/1 159/64/1
f 161/65/4 159/66/4 160/67/4 162/68/4
f 144/65/5 143/66/5 161/67/5 162/68/5
f 162/65/2 160/66/2 141/67/2 144/68/2
f 143/65/1 142/66/1 159/67/1 161/68/1
