# This file was created with Minddesk Qubicle 3.0
# Get Qubicle at www.getqubicle.com

mtllib 101_Piece6_15_0.mtl

vn 0.0 0.0 1.0
vn 0.0 0.0 -1.0
vn -1.0 0.0 0.0
vn 1.0 0.0 0.0
vn 0.0 1.0 0.0
vn 0.0 -1.0 0.0

v -16.00000 121.00000 0.00000
v -16.00000 120.00000 0.00000
v -16.00000 120.00000 1.00000
v -16.00000 121.00000 1.00000
v -15.00000 120.00000 0.00000
v -15.00000 120.00000 1.00000
v -15.00000 121.00000 0.00000
v -15.00000 121.00000 1.00000
v -16.00000 122.00000 0.00000
v -16.00000 122.00000 1.00000
v -15.00000 122.00000 0.00000
v -15.00000 122.00000 1.00000
v -16.00000 123.00000 0.00000
v -16.00000 123.00000 1.00000
v -15.00000 123.00000 0.00000
v -15.00000 123.00000 1.00000
v -16.00000 124.00000 0.00000
v -16.00000 124.00000 1.00000
v -15.00000 124.00000 0.00000
v -15.00000 124.00000 1.00000
v -16.00000 125.00000 0.00000
v -16.00000 125.00000 1.00000
v -15.00000 125.00000 0.00000
v -15.00000 125.00000 1.00000
v -16.00000 126.00000 0.00000
v -16.00000 126.00000 1.00000
v -15.00000 126.00000 0.00000
v -15.00000 126.00000 1.00000
v -16.00000 127.00000 0.00000
v -16.00000 127.00000 1.00000
v -15.00000 127.00000 0.00000
v -15.00000 127.00000 1.00000
v -16.00000 128.00000 0.00000
v -16.00000 128.00000 1.00000
v -15.00000 128.00000 1.00000
v -15.00000 128.00000 0.00000
v -14.00000 120.00000 0.00000
v -14.00000 120.00000 1.00000
v -14.00000 121.00000 0.00000
v -14.00000 121.00000 1.00000
v -14.00000 122.00000 0.00000
v -14.00000 122.00000 1.00000
v -14.00000 123.00000 0.00000
v -14.00000 123.00000 1.00000
v -14.00000 124.00000 0.00000
v -14.00000 124.00000 1.00000
v -14.00000 125.00000 0.00000
v -14.00000 125.00000 1.00000
v -14.00000 126.00000 0.00000
v -14.00000 126.00000 1.00000
v -14.00000 127.00000 0.00000
v -14.00000 127.00000 1.00000
v -14.00000 128.00000 1.00000
v -14.00000 128.00000 0.00000
v -13.00000 120.00000 0.00000
v -13.00000 120.00000 1.00000
v -13.00000 121.00000 0.00000
v -13.00000 121.00000 1.00000
v -13.00000 122.00000 0.00000
v -13.00000 122.00000 1.00000
v -13.00000 123.00000 0.00000
v -13.00000 123.00000 1.00000
v -13.00000 124.00000 0.00000
v -13.00000 124.00000 1.00000
v -13.00000 125.00000 0.00000
v -13.00000 125.00000 1.00000
v -13.00000 126.00000 0.00000
v -13.00000 126.00000 1.00000
v -13.00000 127.00000 0.00000
v -13.00000 127.00000 1.00000
v -13.00000 128.00000 1.00000
v -13.00000 128.00000 0.00000
v -12.00000 120.00000 0.00000
v -12.00000 120.00000 1.00000
v -12.00000 121.00000 0.00000
v -12.00000 121.00000 1.00000
v -12.00000 122.00000 0.00000
v -12.00000 122.00000 1.00000
v -12.00000 123.00000 0.00000
v -12.00000 123.00000 1.00000
v -12.00000 124.00000 0.00000
v -12.00000 124.00000 1.00000
v -12.00000 125.00000 0.00000
v -12.00000 125.00000 1.00000
v -12.00000 126.00000 0.00000
v -12.00000 126.00000 1.00000
v -12.00000 127.00000 0.00000
v -12.00000 127.00000 1.00000
v -12.00000 128.00000 1.00000
v -12.00000 128.00000 0.00000
v -11.00000 120.00000 0.00000
v -11.00000 120.00000 1.00000
v -11.00000 121.00000 0.00000
v -11.00000 121.00000 1.00000
v -11.00000 122.00000 0.00000
v -11.00000 122.00000 1.00000
v -11.00000 123.00000 0.00000
v -11.00000 123.00000 1.00000
v -11.00000 124.00000 0.00000
v -11.00000 124.00000 1.00000
v -11.00000 125.00000 0.00000
v -11.00000 125.00000 1.00000
v -11.00000 126.00000 0.00000
v -11.00000 126.00000 1.00000
v -11.00000 127.00000 0.00000
v -11.00000 127.00000 1.00000
v -11.00000 128.00000 1.00000
v -11.00000 128.00000 0.00000
v -10.00000 120.00000 0.00000
v -10.00000 120.00000 1.00000
v -10.00000 121.00000 0.00000
v -10.00000 121.00000 1.00000
v -10.00000 122.00000 0.00000
v -10.00000 122.00000 1.00000
v -10.00000 123.00000 0.00000
v -10.00000 123.00000 1.00000
v -10.00000 124.00000 0.00000
v -10.00000 124.00000 1.00000
v -10.00000 125.00000 0.00000
v -10.00000 125.00000 1.00000
v -10.00000 126.00000 0.00000
v -10.00000 126.00000 1.00000
v -10.00000 127.00000 0.00000
v -10.00000 127.00000 1.00000
v -10.00000 128.00000 1.00000
v -10.00000 128.00000 0.00000
v -9.00000 120.00000 0.00000
v -9.00000 120.00000 1.00000
v -9.00000 121.00000 0.00000
v -9.00000 121.00000 1.00000
v -9.00000 122.00000 0.00000
v -9.00000 122.00000 1.00000
v -9.00000 123.00000 0.00000
v -9.00000 123.00000 1.00000
v -9.00000 124.00000 0.00000
v -9.00000 124.00000 1.00000
v -9.00000 125.00000 0.00000
v -9.00000 125.00000 1.00000
v -9.00000 126.00000 0.00000
v -9.00000 126.00000 1.00000
v -9.00000 127.00000 0.00000
v -9.00000 127.00000 1.00000
v -9.00000 128.00000 1.00000
v -9.00000 128.00000 0.00000
v -8.00000 121.00000 1.00000
v -8.00000 120.00000 1.00000
v -8.00000 120.00000 0.00000
v -8.00000 121.00000 0.00000
v -8.00000 122.00000 1.00000
v -8.00000 122.00000 0.00000
v -8.00000 123.00000 1.00000
v -8.00000 123.00000 0.00000
v -8.00000 124.00000 1.00000
v -8.00000 124.00000 0.00000
v -8.00000 125.00000 1.00000
v -8.00000 125.00000 0.00000
v -8.00000 126.00000 1.00000
v -8.00000 126.00000 0.00000
v -8.00000 127.00000 1.00000
v -8.00000 127.00000 0.00000
v -8.00000 128.00000 1.00000
v -8.00000 128.00000 0.00000

vt 0.26172 0.20313
vt 0.26172 0.19531
vt 0.26563 0.19531
vt 0.26563 0.20313
vt 0.01563 0.29688
vt 0.01563 0.28906
vt 0.01953 0.28906
vt 0.01953 0.29688
vt 0.25000 0.20313
vt 0.25000 0.19531
vt 0.25391 0.19531
vt 0.25391 0.20313

g 101_Piece6_15_0
usemtl 101_Material
f 1/1/3 2/2/3 3/3/3 4/4/3
f 3/1/6 2/2/6 5/3/6 6/4/6
f 7/1/2 5/2/2 2/3/2 1/4/2
f 4/1/1 3/2/1 6/3/1 8/4/1
f 9/5/3 1/6/3 4/7/3 10/8/3
f 11/5/2 7/6/2 1/7/2 9/8/2
f 10/5/1 4/6/1 8/7/1 12/8/1
f 13/5/3 9/6/3 10/7/3 14/8/3
f 15/5/2 11/6/2 9/7/2 13/8/2
f 14/5/1 10/6/1 12/7/1 16/8/1
f 17/5/3 13/6/3 14/7/3 18/8/3
f 19/5/2 15/6/2 13/7/2 17/8/2
f 18/5/1 14/6/1 16/7/1 20/8/1
f 21/5/3 17/6/3 18/7/3 22/8/3
f 23/5/2 19/6/2 17/7/2 21/8/2
f 22/5/1 18/6/1 20/7/1 24/8/1
f 25/5/3 21/6/3 22/7/3 26/8/3
f 27/5/2 23/6/2 21/7/2 25/8/2
f 26/5/1 22/6/1 24/7/1 28/8/1
f 29/9/3 25/10/3 26/11/3 30/12/3
f 31/9/2 27/10/2 25/11/2 29/12/2
f 30/9/1 26/10/1 28/11/1 32/12/1
f 33/9/3 29/10/3 30/11/3 34/12/3
f 33/9/5 34/10/5 35/11/5 36/12/5
f 36/9/2 31/10/2 29/11/2 33/12/2
f 34/9/1 30/10/1 32/11/1 35/12/1
f 6/1/6 5/2/6 37/3/6 38/4/6
f 39/1/2 37/2/2 5/3/2 7/4/2
f 8/1/1 6/2/1 38/3/1 40/4/1
f 41/1/2 39/2/2 7/3/2 11/4/2
f 12/1/1 8/2/1 40/3/1 42/4/1
f 43/5/2 41/6/2 11/7/2 15/8/2
f 16/5/1 12/6/1 42/7/1 44/8/1
f 45/5/2 43/6/2 15/7/2 19/8/2
f 20/5/1 16/6/1 44/7/1 46/8/1
f 47/5/2 45/6/2 19/7/2 23/8/2
f 24/5/1 20/6/1 46/7/1 48/8/1
f 49/9/2 47/10/2 23/11/2 27/12/2
f 28/9/1 24/10/1 48/11/1 50/12/1
f 51/9/2 49/10/2 27/11/2 31/12/2
f 32/9/1 28/10/1 50/11/1 52/12/1
f 36/9/5 35/10/5 53/11/5 54/12/5
f 54/9/2 51/10/2 31/11/2 36/12/2
f 35/9/1 32/10/1 52/11/1 53/12/1
f 38/1/6 37/2/6 55/3/6 56/4/6
f 57/1/2 55/2/2 37/3/2 39/4/2
f 40/1/1 38/2/1 56/3/1 58/4/1
f 59/1/2 57/2/2 39/3/2 41/4/2
f 42/1/1 40/2/1 58/3/1 60/4/1
f 61/5/2 59/6/2 41/7/2 43/8/2
f 44/5/1 42/6/1 60/7/1 62/8/1
f 63/5/2 61/6/2 43/7/2 45/8/2
f 46/5/1 44/6/1 62/7/1 64/8/1
f 65/5/2 63/6/2 45/7/2 47/8/2
f 48/5/1 46/6/1 64/7/1 66/8/1
f 67/5/2 65/6/2 47/7/2 49/8/2
f 50/5/1 48/6/1 66/7/1 68/8/1
f 69/9/2 67/10/2 49/11/2 51/12/2
f 52/9/1 50/10/1 68/11/1 70/12/1
f 54/9/5 53/10/5 71/11/5 72/12/5
f 72/9/2 69/10/2 51/11/2 54/12/2
f 53/9/1 52/10/1 70/11/1 71/12/1
f 56/1/6 55/2/6 73/3/6 74/4/6
f 75/1/2 73/2/2 55/3/2 57/4/2
f 58/1/1 56/2/1 74/3/1 76/4/1
f 77/5/2 75/6/2 57/7/2 59/8/2
f 60/5/1 58/6/1 76/7/1 78/8/1
f 79/5/2 77/6/2 59/7/2 61/8/2
f 62/5/1 60/6/1 78/7/1 80/8/1
f 81/5/2 79/6/2 61/7/2 63/8/2
f 64/5/1 62/6/1 80/7/1 82/8/1
f 83/5/2 81/6/2 63/7/2 65/8/2
f 66/5/1 64/6/1 82/7/1 84/8/1
f 85/5/2 83/6/2 65/7/2 67/8/2
f 68/5/1 66/6/1 84/7/1 86/8/1
f 87/9/2 85/10/2 67/11/2 69/12/2
f 70/9/1 68/10/1 86/11/1 88/12/1
f 72/9/5 71/10/5 89/11/5 90/12/5
f 90/9/2 87/10/2 69/11/2 72/12/2
f 71/9/1 70/10/1 88/11/1 89/12/1
f 74/5/6 73/6/6 91/7/6 92/8/6
f 93/5/2 91/6/2 73/7/2 75/8/2
f 76/5/1 74/6/1 92/7/1 94/8/1
f 95/5/2 93/6/2 75/7/2 77/8/2
f 78/5/1 76/6/1 94/7/1 96/8/1
f 97/5/2 95/6/2 77/7/2 79/8/2
f 80/5/1 78/6/1 96/7/1 98/8/1
f 99/5/2 97/6/2 79/7/2 81/8/2
f 82/5/1 80/6/1 98/7/1 100/8/1
f 101/5/2 99/6/2 81/7/2 83/8/2
f 84/5/1 82/6/1 100/7/1 102/8/1
f 103/5/2 101/6/2 83/7/2 85/8/2
f 86/5/1 84/6/1 102/7/1 104/8/1
f 105/9/2 103/10/2 85/11/2 87/12/2
f 88/9/1 86/10/1 104/11/1 106/12/1
f 90/9/5 89/10/5 107/11/5 108/12/5
f 108/9/2 105/10/2 87/11/2 90/12/2
f 89/9/1 88/10/1 106/11/1 107/12/1
f 92/1/6 91/2/6 109/3/6 110/4/6
f 111/1/2 109/2/2 91/3/2 93/4/2
f 94/1/1 92/2/1 110/3/1 112/4/1
f 113/1/2 111/2/2 93/3/2 95/4/2
f 96/1/1 94/2/1 112/3/1 114/4/1
f 115/5/2 113/6/2 95/7/2 97/8/2
f 98/5/1 96/6/1 114/7/1 116/8/1
f 117/5/2 115/6/2 97/7/2 99/8/2
f 100/5/1 98/6/1 116/7/1 118/8/1
f 119/5/2 117/6/2 99/7/2 101/8/2
f 102/5/1 100/6/1 118/7/1 120/8/1
f 121/5/2 119/6/2 101/7/2 103/8/2
f 104/5/1 102/6/1 120/7/1 122/8/1
f 123/9/2 121/10/2 103/11/2 105/12/2
f 106/9/1 104/10/1 122/11/1 124/12/1
f 108/9/5 107/10/5 125/11/5 126/12/5
f 126/9/2 123/10/2 105/11/2 108/12/2
f 107/9/1 106/10/1 124/11/1 125/12/1
f 110/1/6 109/2/6 127/3/6 128/4/6
f 129/1/2 127/2/2 109/3/2 111/4/2
f 112/1/1 110/2/1 128/3/1 130/4/1
f 131/1/2 129/2/2 111/3/2 113/4/2
f 114/1/1 112/2/1 130/3/1 132/4/1
f 133/5/2 131/6/2 113/7/2 115/8/2
f 116/5/1 114/6/1 132/7/1 134/8/1
f 135/5/2 133/6/2 115/7/2 117/8/2
f 118/5/1 116/6/1 134/7/1 136/8/1
f 137/5/2 135/6/2 117/7/2 119/8/2
f 120/5/1 118/6/1 136/7/1 138/8/1
f 139/5/2 137/6/2 119/7/2 121/8/2
f 122/5/1 120/6/1 138/7/1 140/8/1
f 141/5/2 139/6/2 121/7/2 123/8/2
f 124/5/1 122/6/1 140/7/1 142/8/1
f 126/9/5 125/10/5 143/11/5 144/12/5
f 144/9/2 141/10/2 123/11/2 126/12/2
f 125/9/1 124/10/1 142/11/1 143/12/1
f 145/1/4 146/2/4 147/3/4 148/4/4
f 128/1/6 127/2/6 147/3/6 146/4/6
f 148/1/2 147/2/2 127/3/2 129/4/2
f 130/1/1 128/2/1 146/3/1 145/4/1
f 149/1/4 145/2/4 148/3/4 150/4/4
f 150/1/2 148/2/2 129/3/2 131/4/2
f 132/1/1 130/2/1 145/3/1 149/4/1
f 151/5/4 149/6/4 150/7/4 152/8/4
f 152/5/2 150/6/2 131/7/2 133/8/2
f 134/5/1 132/6/1 149/7/1 151/8/1
f 153/5/4 151/6/4 152/7/4 154/8/4
f 154/5/2 152/6/2 133/7/2 135/8/2
f 136/5/1 134/6/1 151/7/1 153/8/1
f 155/5/4 153/6/4 154/7/4 156/8/4
f 156/5/2 154/6/2 135/7/2 137/8/2
f 138/5/1 136/6/1 153/7/1 155/8/1
f 157/5/4 155/6/4 156/7/4 158/8/4
f 158/5/2 156/6/2 137/7/2 139/8/2
f 140/5/1 138/6/1 155/7/1 157/8/1
f 159/9/4 157/10/4 158/11/4 160/12/4
f 160/9/2 158/10/2 139/11/2 141/12/2
f 142/9/1 140/10/1 157/11/1 159/12/1
f 161/9/4 159/10/4 160/11/4 162/12/4
f 144/9/5 143/10/5 161/11/5 162/12/5
f 162/9/2 160/10/2 141/11/2 144/12/2
f 143/9/1 142/10/1 159/11/1 161/12/1
