# This file was created with Minddesk Qubicle 3.0
# Get Qubicle at www.getqubicle.com

mtllib 101_Piece10_1_0.mtl

vn 0.0 0.0 1.0
vn 0.0 0.0 -1.0
vn -1.0 0.0 0.0
vn 1.0 0.0 0.0
vn 0.0 1.0 0.0
vn 0.0 -1.0 0.0

v 16.00000 9.00000 0.00000
v 16.00000 8.00000 0.00000
v 16.00000 8.00000 1.00000
v 16.00000 9.00000 1.00000
v 17.00000 8.00000 0.00000
v 17.00000 8.00000 1.00000
v 17.00000 9.00000 0.00000
v 17.00000 9.00000 1.00000
v 16.00000 10.00000 0.00000
v 16.00000 10.00000 1.00000
v 17.00000 10.00000 0.00000
v 17.00000 10.00000 1.00000
v 16.00000 11.00000 0.00000
v 16.00000 11.00000 1.00000
v 17.00000 11.00000 0.00000
v 17.00000 11.00000 1.00000
v 16.00000 12.00000 0.00000
v 16.00000 12.00000 1.00000
v 17.00000 12.00000 0.00000
v 17.00000 12.00000 1.00000
v 16.00000 13.00000 0.00000
v 16.00000 13.00000 1.00000
v 17.00000 13.00000 0.00000
v 17.00000 13.00000 1.00000
v 16.00000 14.00000 0.00000
v 16.00000 14.00000 1.00000
v 17.00000 14.00000 0.00000
v 17.00000 14.00000 1.00000
v 16.00000 15.00000 0.00000
v 16.00000 15.00000 1.00000
v 17.00000 15.00000 0.00000
v 17.00000 15.00000 1.00000
v 16.00000 16.00000 0.00000
v 16.00000 16.00000 1.00000
v 17.00000 16.00000 1.00000
v 17.00000 16.00000 0.00000
v 18.00000 8.00000 0.00000
v 18.00000 8.00000 1.00000
v 18.00000 9.00000 0.00000
v 18.00000 9.00000 1.00000
v 18.00000 10.00000 0.00000
v 18.00000 10.00000 1.00000
v 18.00000 11.00000 0.00000
v 18.00000 11.00000 1.00000
v 18.00000 12.00000 0.00000
v 18.00000 12.00000 1.00000
v 18.00000 13.00000 0.00000
v 18.00000 13.00000 1.00000
v 18.00000 14.00000 0.00000
v 18.00000 14.00000 1.00000
v 18.00000 15.00000 0.00000
v 18.00000 15.00000 1.00000
v 18.00000 16.00000 1.00000
v 18.00000 16.00000 0.00000
v 19.00000 8.00000 0.00000
v 19.00000 8.00000 1.00000
v 19.00000 9.00000 0.00000
v 19.00000 9.00000 1.00000
v 19.00000 10.00000 0.00000
v 19.00000 10.00000 1.00000
v 19.00000 11.00000 0.00000
v 19.00000 11.00000 1.00000
v 19.00000 12.00000 0.00000
v 19.00000 12.00000 1.00000
v 19.00000 13.00000 0.00000
v 19.00000 13.00000 1.00000
v 19.00000 14.00000 0.00000
v 19.00000 14.00000 1.00000
v 19.00000 15.00000 0.00000
v 19.00000 15.00000 1.00000
v 19.00000 16.00000 1.00000
v 19.00000 16.00000 0.00000
v 20.00000 8.00000 0.00000
v 20.00000 8.00000 1.00000
v 20.00000 9.00000 0.00000
v 20.00000 9.00000 1.00000
v 20.00000 10.00000 0.00000
v 20.00000 10.00000 1.00000
v 20.00000 11.00000 0.00000
v 20.00000 11.00000 1.00000
v 20.00000 12.00000 0.00000
v 20.00000 12.00000 1.00000
v 20.00000 13.00000 0.00000
v 20.00000 13.00000 1.00000
v 20.00000 14.00000 0.00000
v 20.00000 14.00000 1.00000
v 20.00000 15.00000 0.00000
v 20.00000 15.00000 1.00000
v 20.00000 16.00000 1.00000
v 20.00000 16.00000 0.00000
v 21.00000 8.00000 0.00000
v 21.00000 8.00000 1.00000
v 21.00000 9.00000 0.00000
v 21.00000 9.00000 1.00000
v 21.00000 10.00000 0.00000
v 21.00000 10.00000 1.00000
v 21.00000 11.00000 0.00000
v 21.00000 11.00000 1.00000
v 21.00000 12.00000 0.00000
v 21.00000 12.00000 1.00000
v 21.00000 13.00000 0.00000
v 21.00000 13.00000 1.00000
v 21.00000 14.00000 0.00000
v 21.00000 14.00000 1.00000
v 21.00000 15.00000 0.00000
v 21.00000 15.00000 1.00000
v 21.00000 16.00000 1.00000
v 21.00000 16.00000 0.00000
v 22.00000 8.00000 0.00000
v 22.00000 8.00000 1.00000
v 22.00000 9.00000 0.00000
v 22.00000 9.00000 1.00000
v 22.00000 10.00000 0.00000
v 22.00000 10.00000 1.00000
v 22.00000 11.00000 0.00000
v 22.00000 11.00000 1.00000
v 22.00000 12.00000 0.00000
v 22.00000 12.00000 1.00000
v 22.00000 13.00000 0.00000
v 22.00000 13.00000 1.00000
v 22.00000 14.00000 0.00000
v 22.00000 14.00000 1.00000
v 22.00000 15.00000 0.00000
v 22.00000 15.00000 1.00000
v 22.00000 16.00000 1.00000
v 22.00000 16.00000 0.00000
v 23.00000 8.00000 0.00000
v 23.00000 8.00000 1.00000
v 23.00000 9.00000 0.00000
v 23.00000 9.00000 1.00000
v 23.00000 10.00000 0.00000
v 23.00000 10.00000 1.00000
v 23.00000 11.00000 0.00000
v 23.00000 11.00000 1.00000
v 23.00000 12.00000 0.00000
v 23.00000 12.00000 1.00000
v 23.00000 13.00000 0.00000
v 23.00000 13.00000 1.00000
v 23.00000 14.00000 0.00000
v 23.00000 14.00000 1.00000
v 23.00000 15.00000 0.00000
v 23.00000 15.00000 1.00000
v 23.00000 16.00000 1.00000
v 23.00000 16.00000 0.00000
v 24.00000 9.00000 1.00000
v 24.00000 8.00000 1.00000
v 24.00000 8.00000 0.00000
v 24.00000 9.00000 0.00000
v 24.00000 10.00000 1.00000
v 24.00000 10.00000 0.00000
v 24.00000 11.00000 1.00000
v 24.00000 11.00000 0.00000
v 24.00000 12.00000 1.00000
v 24.00000 12.00000 0.00000
v 24.00000 13.00000 1.00000
v 24.00000 13.00000 0.00000
v 24.00000 14.00000 1.00000
v 24.00000 14.00000 0.00000
v 24.00000 15.00000 1.00000
v 24.00000 15.00000 0.00000
v 24.00000 16.00000 1.00000
v 24.00000 16.00000 0.00000

vt 0.42578 0.36719
vt 0.42578 0.35938
vt 0.42969 0.35938
vt 0.42969 0.36719
vt 0.43750 0.36719
vt 0.43750 0.35938
vt 0.44141 0.35938
vt 0.44141 0.36719
vt 0.44922 0.36719
vt 0.44922 0.35938
vt 0.45313 0.35938
vt 0.45313 0.36719
vt 0.46094 0.36719
vt 0.46094 0.35938
vt 0.46484 0.35938
vt 0.46484 0.36719

g 101_Piece10_1_0
usemtl 101_Material
f 1/1/3 2/2/3 3/3/3 4/4/3
f 3/1/6 2/2/6 5/3/6 6/4/6
f 7/1/2 5/2/2 2/3/2 1/4/2
f 4/1/1 3/2/1 6/3/1 8/4/1
f 9/5/3 1/6/3 4/7/3 10/8/3
f 11/5/2 7/6/2 1/7/2 9/8/2
f 10/5/1 4/6/1 8/7/1 12/8/1
f 13/5/3 9/6/3 10/7/3 14/8/3
f 15/5/2 11/6/2 9/7/2 13/8/2
f 14/5/1 10/6/1 12/7/1 16/8/1
f 17/1/3 13/2/3 14/3/3 18/4/3
f 19/1/2 15/2/2 13/3/2 17/4/2
f 18/1/1 14/2/1 16/3/1 20/4/1
f 21/9/3 17/10/3 18/11/3 22/12/3
f 23/9/2 19/10/2 17/11/2 21/12/2
f 22/9/1 18/10/1 20/11/1 24/12/1
f 25/13/3 21/14/3 22/15/3 26/16/3
f 27/13/2 23/14/2 21/15/2 25/16/2
f 26/13/1 22/14/1 24/15/1 28/16/1
f 29/5/3 25/6/3 26/7/3 30/8/3
f 31/5/2 27/6/2 25/7/2 29/8/2
f 30/5/1 26/6/1 28/7/1 32/8/1
f 33/1/3 29/2/3 30/3/3 34/4/3
f 33/1/5 34/2/5 35/3/5 36/4/5
f 36/1/2 31/2/2 29/3/2 33/4/2
f 34/1/1 30/2/1 32/3/1 35/4/1
f 6/9/6 5/10/6 37/11/6 38/12/6
f 39/9/2 37/10/2 5/11/2 7/12/2
f 8/9/1 6/10/1 38/11/1 40/12/1
f 41/9/2 39/10/2 7/11/2 11/12/2
f 12/9/1 8/10/1 40/11/1 42/12/1
f 43/5/2 41/6/2 11/7/2 15/8/2
f 16/5/1 12/6/1 42/7/1 44/8/1
f 45/13/2 43/14/2 15/15/2 19/16/2
f 20/13/1 16/14/1 44/15/1 46/16/1
f 47/13/2 45/14/2 19/15/2 23/16/2
f 24/13/1 20/14/1 46/15/1 48/16/1
f 49/5/2 47/6/2 23/7/2 27/8/2
f 28/5/1 24/6/1 48/7/1 50/8/1
f 51/5/2 49/6/2 27/7/2 31/8/2
f 32/5/1 28/6/1 50/7/1 52/8/1
f 36/1/5 35/2/5 53/3/5 54/4/5
f 54/1/2 51/2/2 31/3/2 36/4/2
f 35/1/1 32/2/1 52/3/1 53/4/1
f 38/9/6 37/10/6 55/11/6 56/12/6
f 57/9/2 55/10/2 37/11/2 39/12/2
f 40/9/1 38/10/1 56/11/1 58/12/1
f 59/9/2 57/10/2 39/11/2 41/12/2
f 42/9/1 40/10/1 58/11/1 60/12/1
f 61/9/2 59/10/2 41/11/2 43/12/2
f 44/9/1 42/10/1 60/11/1 62/12/1
f 63/13/2 61/14/2 43/15/2 45/16/2
f 46/13/1 44/14/1 62/15/1 64/16/1
f 65/1/2 63/2/2 45/3/2 47/4/2
f 48/1/1 46/2/1 64/3/1 66/4/1
f 67/9/2 65/10/2 47/11/2 49/12/2
f 50/9/1 48/10/1 66/11/1 68/12/1
f 69/13/2 67/14/2 49/15/2 51/16/2
f 52/13/1 50/14/1 68/15/1 70/16/1
f 54/5/5 53/6/5 71/7/5 72/8/5
f 72/5/2 69/6/2 51/7/2 54/8/2
f 53/5/1 52/6/1 70/7/1 71/8/1
f 56/1/6 55/2/6 73/3/6 74/4/6
f 75/1/2 73/2/2 55/3/2 57/4/2
f 58/1/1 56/2/1 74/3/1 76/4/1
f 77/9/2 75/10/2 57/11/2 59/12/2
f 60/9/1 58/10/1 76/11/1 78/12/1
f 79/9/2 77/10/2 59/11/2 61/12/2
f 62/9/1 60/10/1 78/11/1 80/12/1
f 81/5/2 79/6/2 61/7/2 63/8/2
f 64/5/1 62/6/1 80/7/1 82/8/1
f 83/9/2 81/10/2 63/11/2 65/12/2
f 66/9/1 64/10/1 82/11/1 84/12/1
f 85/9/2 83/10/2 65/11/2 67/12/2
f 68/9/1 66/10/1 84/11/1 86/12/1
f 87/9/2 85/10/2 67/11/2 69/12/2
f 70/9/1 68/10/1 86/11/1 88/12/1
f 72/5/5 71/6/5 89/7/5 90/8/5
f 90/5/2 87/6/2 69/7/2 72/8/2
f 71/5/1 70/6/1 88/7/1 89/8/1
f 74/5/6 73/6/6 91/7/6 92/8/6
f 93/5/2 91/6/2 73/7/2 75/8/2
f 76/5/1 74/6/1 92/7/1 94/8/1
f 95/1/2 93/2/2 75/3/2 77/4/2
f 78/1/1 76/2/1 94/3/1 96/4/1
f 97/13/2 95/14/2 77/15/2 79/16/2
f 80/13/1 78/14/1 96/15/1 98/16/1
f 99/5/2 97/6/2 79/7/2 81/8/2
f 82/5/1 80/6/1 98/7/1 100/8/1
f 101/1/2 99/2/2 81/3/2 83/4/2
f 84/1/1 82/2/1 100/3/1 102/4/1
f 103/9/2 101/10/2 83/11/2 85/12/2
f 86/9/1 84/10/1 102/11/1 104/12/1
f 105/9/2 103/10/2 85/11/2 87/12/2
f 88/9/1 86/10/1 104/11/1 106/12/1
f 90/5/5 89/6/5 107/7/5 108/8/5
f 108/5/2 105/6/2 87/7/2 90/8/2
f 89/5/1 88/6/1 106/7/1 107/8/1
f 92/9/6 91/10/6 109/11/6 110/12/6
f 111/9/2 109/10/2 91/11/2 93/12/2
f 94/9/1 92/10/1 110/11/1 112/12/1
f 113/13/2 111/14/2 93/15/2 95/16/2
f 96/13/1 94/14/1 112/15/1 114/16/1
f 115/1/2 113/2/2 95/3/2 97/4/2
f 98/1/1 96/2/1 114/3/1 116/4/1
f 117/1/2 115/2/2 97/3/2 99/4/2
f 100/1/1 98/2/1 116/3/1 118/4/1
f 119/13/2 117/14/2 99/15/2 101/16/2
f 102/13/1 100/14/1 118/15/1 120/16/1
f 121/1/2 119/2/2 101/3/2 103/4/2
f 104/1/1 102/2/1 120/3/1 122/4/1
f 123/9/2 121/10/2 103/11/2 105/12/2
f 106/9/1 104/10/1 122/11/1 124/12/1
f 108/13/5 107/14/5 125/15/5 126/16/5
f 126/13/2 123/14/2 105/15/2 108/16/2
f 107/13/1 106/14/1 124/15/1 125/16/1
f 110/5/6 109/6/6 127/7/6 128/8/6
f 129/5/2 127/6/2 109/7/2 111/8/2
f 112/5/1 110/6/1 128/7/1 130/8/1
f 131/13/2 129/14/2 111/15/2 113/16/2
f 114/13/1 112/14/1 130/15/1 132/16/1
f 133/1/2 131/2/2 113/3/2 115/4/2
f 116/1/1 114/2/1 132/3/1 134/4/1
f 135/9/2 133/10/2 115/11/2 117/12/2
f 118/9/1 116/10/1 134/11/1 136/12/1
f 137/13/2 135/14/2 117/15/2 119/16/2
f 120/13/1 118/14/1 136/15/1 138/16/1
f 139/13/2 137/14/2 119/15/2 121/16/2
f 122/13/1 120/14/1 138/15/1 140/16/1
f 141/5/2 139/6/2 121/7/2 123/8/2
f 124/5/1 122/6/1 140/7/1 142/8/1
f 126/5/5 125/6/5 143/7/5 144/8/5
f 144/5/2 141/6/2 123/7/2 126/8/2
f 125/5/1 124/6/1 142/7/1 143/8/1
f 145/5/4 146/6/4 147/7/4 148/8/4
f 128/5/6 127/6/6 147/7/6 146/8/6
f 148/5/2 147/6/2 127/7/2 129/8/2
f 130/5/1 128/6/1 146/7/1 145/8/1
f 149/5/4 145/6/4 148/7/4 150/8/4
f 150/5/2 148/6/2 129/7/2 131/8/2
f 132/5/1 130/6/1 145/7/1 149/8/1
f 151/1/4 149/2/4 150/3/4 152/4/4
f 152/1/2 150/2/2 131/3/2 133/4/2
f 134/1/1 132/2/1 149/3/1 151/4/1
f 153/9/4 151/10/4 152/11/4 154/12/4
f 154/9/2 152/10/2 133/11/2 135/12/2
f 136/9/1 134/10/1 151/11/1 153/12/1
f 155/9/4 153/10/4 154/11/4 156/12/4
f 156/9/2 154/10/2 135/11/2 137/12/2
f 138/9/1 136/10/1 153/11/1 155/12/1
f 157/5/4 155/6/4 156/7/4 158/8/4
f 158/5/2 156/6/2 137/7/2 139/8/2
f 140/5/1 138/6/1 155/7/1 157/8/1
f 159/1/4 157/2/4 158/3/4 160/4/4
f 160/1/2 158/2/2 139/3/2 141/4/2
f 142/1/1 140/2/1 157/3/1 159/4/1
f 161/9/4 159/10/4 160/11/4 162/12/4
f 144/9/5 143/10/5 161/11/5 162/12/5
f 162/9/2 160/10/2 141/11/2 144/12/2
f 143/9/1 142/10/1 159/11/1 161/12/1
