# This file was created with Minddesk Qubicle 3.0
# Get Qubicle at www.getqubicle.com

mtllib 101_Piece5_17_0.mtl

vn 0.0 0.0 1.0
vn 0.0 0.0 -1.0
vn -1.0 0.0 0.0
vn 1.0 0.0 0.0
vn 0.0 1.0 0.0
vn 0.0 -1.0 0.0

v -24.00000 137.00000 0.00000
v -24.00000 136.00000 0.00000
v -24.00000 136.00000 1.00000
v -24.00000 137.00000 1.00000
v -23.00000 136.00000 0.00000
v -23.00000 136.00000 1.00000
v -23.00000 137.00000 0.00000
v -23.00000 137.00000 1.00000
v -24.00000 138.00000 0.00000
v -24.00000 138.00000 1.00000
v -23.00000 138.00000 0.00000
v -23.00000 138.00000 1.00000
v -24.00000 139.00000 0.00000
v -24.00000 139.00000 1.00000
v -23.00000 139.00000 0.00000
v -23.00000 139.00000 1.00000
v -24.00000 140.00000 0.00000
v -24.00000 140.00000 1.00000
v -23.00000 140.00000 0.00000
v -23.00000 140.00000 1.00000
v -24.00000 141.00000 0.00000
v -24.00000 141.00000 1.00000
v -23.00000 141.00000 0.00000
v -23.00000 141.00000 1.00000
v -24.00000 142.00000 0.00000
v -24.00000 142.00000 1.00000
v -23.00000 142.00000 0.00000
v -23.00000 142.00000 1.00000
v -24.00000 143.00000 0.00000
v -24.00000 143.00000 1.00000
v -23.00000 143.00000 0.00000
v -23.00000 143.00000 1.00000
v -24.00000 144.00000 0.00000
v -24.00000 144.00000 1.00000
v -23.00000 144.00000 1.00000
v -23.00000 144.00000 0.00000
v -22.00000 136.00000 0.00000
v -22.00000 136.00000 1.00000
v -22.00000 137.00000 0.00000
v -22.00000 137.00000 1.00000
v -22.00000 138.00000 0.00000
v -22.00000 138.00000 1.00000
v -22.00000 139.00000 0.00000
v -22.00000 139.00000 1.00000
v -22.00000 140.00000 0.00000
v -22.00000 140.00000 1.00000
v -22.00000 141.00000 0.00000
v -22.00000 141.00000 1.00000
v -22.00000 142.00000 0.00000
v -22.00000 142.00000 1.00000
v -22.00000 143.00000 0.00000
v -22.00000 143.00000 1.00000
v -22.00000 144.00000 1.00000
v -22.00000 144.00000 0.00000
v -21.00000 136.00000 0.00000
v -21.00000 136.00000 1.00000
v -21.00000 137.00000 0.00000
v -21.00000 137.00000 1.00000
v -21.00000 138.00000 0.00000
v -21.00000 138.00000 1.00000
v -21.00000 139.00000 0.00000
v -21.00000 139.00000 1.00000
v -21.00000 140.00000 0.00000
v -21.00000 140.00000 1.00000
v -21.00000 141.00000 0.00000
v -21.00000 141.00000 1.00000
v -21.00000 142.00000 0.00000
v -21.00000 142.00000 1.00000
v -21.00000 143.00000 0.00000
v -21.00000 143.00000 1.00000
v -21.00000 144.00000 1.00000
v -21.00000 144.00000 0.00000
v -20.00000 136.00000 0.00000
v -20.00000 136.00000 1.00000
v -20.00000 137.00000 0.00000
v -20.00000 137.00000 1.00000
v -20.00000 138.00000 0.00000
v -20.00000 138.00000 1.00000
v -20.00000 139.00000 0.00000
v -20.00000 139.00000 1.00000
v -20.00000 140.00000 0.00000
v -20.00000 140.00000 1.00000
v -20.00000 141.00000 0.00000
v -20.00000 141.00000 1.00000
v -20.00000 142.00000 0.00000
v -20.00000 142.00000 1.00000
v -20.00000 143.00000 0.00000
v -20.00000 143.00000 1.00000
v -20.00000 144.00000 1.00000
v -20.00000 144.00000 0.00000
v -19.00000 136.00000 0.00000
v -19.00000 136.00000 1.00000
v -19.00000 137.00000 0.00000
v -19.00000 137.00000 1.00000
v -19.00000 138.00000 0.00000
v -19.00000 138.00000 1.00000
v -19.00000 139.00000 0.00000
v -19.00000 139.00000 1.00000
v -19.00000 140.00000 0.00000
v -19.00000 140.00000 1.00000
v -19.00000 141.00000 0.00000
v -19.00000 141.00000 1.00000
v -19.00000 142.00000 0.00000
v -19.00000 142.00000 1.00000
v -19.00000 143.00000 0.00000
v -19.00000 143.00000 1.00000
v -19.00000 144.00000 1.00000
v -19.00000 144.00000 0.00000
v -18.00000 136.00000 0.00000
v -18.00000 136.00000 1.00000
v -18.00000 137.00000 0.00000
v -18.00000 137.00000 1.00000
v -18.00000 138.00000 0.00000
v -18.00000 138.00000 1.00000
v -18.00000 139.00000 0.00000
v -18.00000 139.00000 1.00000
v -18.00000 140.00000 0.00000
v -18.00000 140.00000 1.00000
v -18.00000 141.00000 0.00000
v -18.00000 141.00000 1.00000
v -18.00000 142.00000 0.00000
v -18.00000 142.00000 1.00000
v -18.00000 143.00000 0.00000
v -18.00000 143.00000 1.00000
v -18.00000 144.00000 1.00000
v -18.00000 144.00000 0.00000
v -17.00000 136.00000 0.00000
v -17.00000 136.00000 1.00000
v -17.00000 137.00000 0.00000
v -17.00000 137.00000 1.00000
v -17.00000 138.00000 0.00000
v -17.00000 138.00000 1.00000
v -17.00000 139.00000 0.00000
v -17.00000 139.00000 1.00000
v -17.00000 140.00000 0.00000
v -17.00000 140.00000 1.00000
v -17.00000 141.00000 0.00000
v -17.00000 141.00000 1.00000
v -17.00000 142.00000 0.00000
v -17.00000 142.00000 1.00000
v -17.00000 143.00000 0.00000
v -17.00000 143.00000 1.00000
v -17.00000 144.00000 1.00000
v -17.00000 144.00000 0.00000
v -16.00000 137.00000 1.00000
v -16.00000 136.00000 1.00000
v -16.00000 136.00000 0.00000
v -16.00000 137.00000 0.00000
v -16.00000 138.00000 1.00000
v -16.00000 138.00000 0.00000
v -16.00000 139.00000 1.00000
v -16.00000 139.00000 0.00000
v -16.00000 140.00000 1.00000
v -16.00000 140.00000 0.00000
v -16.00000 141.00000 1.00000
v -16.00000 141.00000 0.00000
v -16.00000 142.00000 1.00000
v -16.00000 142.00000 0.00000
v -16.00000 143.00000 1.00000
v -16.00000 143.00000 0.00000
v -16.00000 144.00000 1.00000
v -16.00000 144.00000 0.00000

vt 0.00391 0.01563
vt 0.00391 0.00781
vt 0.00781 0.00781
vt 0.00781 0.01563
vt 0.13281 0.27344
vt 0.13281 0.26563
vt 0.13672 0.26563
vt 0.13672 0.27344
vt 0.14453 0.27344
vt 0.14453 0.26563
vt 0.14844 0.26563
vt 0.14844 0.27344
vt 0.15625 0.27344
vt 0.15625 0.26563
vt 0.16016 0.26563
vt 0.16016 0.27344

g 101_Piece5_17_0
usemtl 101_Material
f 1/1/3 2/2/3 3/3/3 4/4/3
f 3/1/6 2/2/6 5/3/6 6/4/6
f 7/1/2 5/2/2 2/3/2 1/4/2
f 4/1/1 3/2/1 6/3/1 8/4/1
f 9/1/3 1/2/3 4/3/3 10/4/3
f 11/1/2 7/2/2 1/3/2 9/4/2
f 10/1/1 4/2/1 8/3/1 12/4/1
f 13/1/3 9/2/3 10/3/3 14/4/3
f 15/1/2 11/2/2 9/3/2 13/4/2
f 14/1/1 10/2/1 12/3/1 16/4/1
f 17/1/3 13/2/3 14/3/3 18/4/3
f 19/1/2 15/2/2 13/3/2 17/4/2
f 18/1/1 14/2/1 16/3/1 20/4/1
f 21/1/3 17/2/3 18/3/3 22/4/3
f 23/1/2 19/2/2 17/3/2 21/4/2
f 22/1/1 18/2/1 20/3/1 24/4/1
f 25/5/3 21/6/3 22/7/3 26/8/3
f 27/5/2 23/6/2 21/7/2 25/8/2
f 26/5/1 22/6/1 24/7/1 28/8/1
f 29/9/3 25/10/3 26/11/3 30/12/3
f 31/9/2 27/10/2 25/11/2 29/12/2
f 30/9/1 26/10/1 28/11/1 32/12/1
f 33/1/3 29/2/3 30/3/3 34/4/3
f 33/1/5 34/2/5 35/3/5 36/4/5
f 36/1/2 31/2/2 29/3/2 33/4/2
f 34/1/1 30/2/1 32/3/1 35/4/1
f 6/1/6 5/2/6 37/3/6 38/4/6
f 39/1/2 37/2/2 5/3/2 7/4/2
f 8/1/1 6/2/1 38/3/1 40/4/1
f 41/1/2 39/2/2 7/3/2 11/4/2
f 12/1/1 8/2/1 40/3/1 42/4/1
f 43/1/2 41/2/2 11/3/2 15/4/2
f 16/1/1 12/2/1 42/3/1 44/4/1
f 45/5/2 43/6/2 15/7/2 19/8/2
f 20/5/1 16/6/1 44/7/1 46/8/1
f 47/13/2 45/14/2 19/15/2 23/16/2
f 24/13/1 20/14/1 46/15/1 48/16/1
f 49/5/2 47/6/2 23/7/2 27/8/2
f 28/5/1 24/6/1 48/7/1 50/8/1
f 51/5/2 49/6/2 27/7/2 31/8/2
f 32/5/1 28/6/1 50/7/1 52/8/1
f 36/1/5 35/2/5 53/3/5 54/4/5
f 54/1/2 51/2/2 31/3/2 36/4/2
f 35/1/1 32/2/1 52/3/1 53/4/1
f 38/5/6 37/6/6 55/7/6 56/8/6
f 57/5/2 55/6/2 37/7/2 39/8/2
f 40/5/1 38/6/1 56/7/1 58/8/1
f 59/1/2 57/2/2 39/3/2 41/4/2
f 42/1/1 40/2/1 58/3/1 60/4/1
f 61/1/2 59/2/2 41/3/2 43/4/2
f 44/1/1 42/2/1 60/3/1 62/4/1
f 63/5/2 61/6/2 43/7/2 45/8/2
f 46/5/1 44/6/1 62/7/1 64/8/1
f 65/1/2 63/2/2 45/3/2 47/4/2
f 48/1/1 46/2/1 64/3/1 66/4/1
f 67/5/2 65/6/2 47/7/2 49/8/2
f 50/5/1 48/6/1 66/7/1 68/8/1
f 69/5/2 67/6/2 49/7/2 51/8/2
f 52/5/1 50/6/1 68/7/1 70/8/1
f 54/1/5 53/2/5 71/3/5 72/4/5
f 72/1/2 69/2/2 51/3/2 54/4/2
f 53/1/1 52/2/1 70/3/1 71/4/1
f 56/9/6 55/10/6 73/11/6 74/12/6
f 75/9/2 73/10/2 55/11/2 57/12/2
f 58/9/1 56/10/1 74/11/1 76/12/1
f 77/5/2 75/6/2 57/7/2 59/8/2
f 60/5/1 58/6/1 76/7/1 78/8/1
f 79/5/2 77/6/2 59/7/2 61/8/2
f 62/5/1 60/6/1 78/7/1 80/8/1
f 81/5/2 79/6/2 61/7/2 63/8/2
f 64/5/1 62/6/1 80/7/1 82/8/1
f 83/1/2 81/2/2 63/3/2 65/4/2
f 66/1/1 64/2/1 82/3/1 84/4/1
f 85/1/2 83/2/2 65/3/2 67/4/2
f 68/1/1 66/2/1 84/3/1 86/4/1
f 87/1/2 85/2/2 67/3/2 69/4/2
f 70/1/1 68/2/1 86/3/1 88/4/1
f 72/1/5 71/2/5 89/3/5 90/4/5
f 90/1/2 87/2/2 69/3/2 72/4/2
f 71/1/1 70/2/1 88/3/1 89/4/1
f 74/9/6 73/10/6 91/11/6 92/12/6
f 93/9/2 91/10/2 73/11/2 75/12/2
f 76/9/1 74/10/1 92/11/1 94/12/1
f 95/5/2 93/6/2 75/7/2 77/8/2
f 78/5/1 76/6/1 94/7/1 96/8/1
f 97/5/2 95/6/2 77/7/2 79/8/2
f 80/5/1 78/6/1 96/7/1 98/8/1
f 99/5/2 97/6/2 79/7/2 81/8/2
f 82/5/1 80/6/1 98/7/1 100/8/1
f 101/1/2 99/2/2 81/3/2 83/4/2
f 84/1/1 82/2/1 100/3/1 102/4/1
f 103/1/2 101/2/2 83/3/2 85/4/2
f 86/1/1 84/2/1 102/3/1 104/4/1
f 105/5/2 103/6/2 85/7/2 87/8/2
f 88/5/1 86/6/1 104/7/1 106/8/1
f 90/9/5 89/10/5 107/11/5 108/12/5
f 108/9/2 105/10/2 87/11/2 90/12/2
f 89/9/1 88/10/1 106/11/1 107/12/1
f 92/5/6 91/6/6 109/7/6 110/8/6
f 111/5/2 109/6/2 91/7/2 93/8/2
f 94/5/1 92/6/1 110/7/1 112/8/1
f 113/1/2 111/2/2 93/3/2 95/4/2
f 96/1/1 94/2/1 112/3/1 114/4/1
f 115/1/2 113/2/2 95/3/2 97/4/2
f 98/1/1 96/2/1 114/3/1 116/4/1
f 117/5/2 115/6/2 97/7/2 99/8/2
f 100/5/1 98/6/1 116/7/1 118/8/1
f 119/5/2 117/6/2 99/7/2 101/8/2
f 102/5/1 100/6/1 118/7/1 120/8/1
f 121/13/2 119/14/2 101/15/2 103/16/2
f 104/13/1 102/14/1 120/15/1 122/16/1
f 123/5/2 121/6/2 103/7/2 105/8/2
f 106/5/1 104/6/1 122/7/1 124/8/1
f 108/5/5 107/6/5 125/7/5 126/8/5
f 126/5/2 123/6/2 105/7/2 108/8/2
f 107/5/1 106/6/1 124/7/1 125/8/1
f 110/1/6 109/2/6 127/3/6 128/4/6
f 129/1/2 127/2/2 109/3/2 111/4/2
f 112/1/1 110/2/1 128/3/1 130/4/1
f 131/1/2 129/2/2 111/3/2 113/4/2
f 114/1/1 112/2/1 130/3/1 132/4/1
f 133/1/2 131/2/2 113/3/2 115/4/2
f 116/1/1 114/2/1 132/3/1 134/4/1
f 135/1/2 133/2/2 115/3/2 117/4/2
f 118/1/1 116/2/1 134/3/1 136/4/1
f 137/1/2 135/2/2 117/3/2 119/4/2
f 120/1/1 118/2/1 136/3/1 138/4/1
f 139/1/2 137/2/2 119/3/2 121/4/2
f 122/1/1 120/2/1 138/3/1 140/4/1
f 141/5/2 139/6/2 121/7/2 123/8/2
f 124/5/1 122/6/1 140/7/1 142/8/1
f 126/5/5 125/6/5 143/7/5 144/8/5
f 144/5/2 141/6/2 123/7/2 126/8/2
f 125/5/1 124/6/1 142/7/1 143/8/1
f 145/1/4 146/2/4 147/3/4 148/4/4
f 128/1/6 127/2/6 147/3/6 146/4/6
f 148/1/2 147/2/2 127/3/2 129/4/2
f 130/1/1 128/2/1 146/3/1 145/4/1
f 149/1/4 145/2/4 148/3/4 150/4/4
f 150/1/2 148/2/2 129/3/2 131/4/2
f 132/1/1 130/2/1 145/3/1 149/4/1
f 151/1/4 149/2/4 150/3/4 152/4/4
f 152/1/2 150/2/2 131/3/2 133/4/2
f 134/1/1 132/2/1 149/3/1 151/4/1
f 153/1/4 151/2/4 152/3/4 154/4/4
f 154/1/2 152/2/2 133/3/2 135/4/2
f 136/1/1 134/2/1 151/3/1 153/4/1
f 155/1/4 153/2/4 154/3/4 156/4/4
f 156/1/2 154/2/2 135/3/2 137/4/2
f 138/1/1 136/2/1 153/3/1 155/4/1
f 157/1/4 155/2/4 156/3/4 158/4/4
f 158/1/2 156/2/2 137/3/2 139/4/2
f 140/1/1 138/2/1 155/3/1 157/4/1
f 159/1/4 157/2/4 158/3/4 160/4/4
f 160/1/2 158/2/2 139/3/2 141/4/2
f 142/1/1 140/2/1 157/3/1 159/4/1
f 161/1/4 159/2/4 160/3/4 162/4/4
f 144/1/5 143/2/5 161/3/5 162/4/5
f 162/1/2 160/2/2 141/3/2 144/4/2
f 143/1/1 142/2/1 159/3/1 161/4/1
