# This file was created with Minddesk Qubicle 3.0
# Get Qubicle at www.getqubicle.com

mtllib 101_Piece10_14_0.mtl

vn 0.0 0.0 1.0
vn 0.0 0.0 -1.0
vn -1.0 0.0 0.0
vn 1.0 0.0 0.0
vn 0.0 1.0 0.0
vn 0.0 -1.0 0.0

v 16.00000 113.00000 0.00000
v 16.00000 112.00000 0.00000
v 16.00000 112.00000 1.00000
v 16.00000 113.00000 1.00000
v 17.00000 112.00000 0.00000
v 17.00000 112.00000 1.00000
v 17.00000 113.00000 0.00000
v 17.00000 113.00000 1.00000
v 16.00000 114.00000 0.00000
v 16.00000 114.00000 1.00000
v 17.00000 114.00000 0.00000
v 17.00000 114.00000 1.00000
v 16.00000 115.00000 0.00000
v 16.00000 115.00000 1.00000
v 17.00000 115.00000 0.00000
v 17.00000 115.00000 1.00000
v 16.00000 116.00000 0.00000
v 16.00000 116.00000 1.00000
v 17.00000 116.00000 0.00000
v 17.00000 116.00000 1.00000
v 16.00000 117.00000 0.00000
v 16.00000 117.00000 1.00000
v 17.00000 117.00000 0.00000
v 17.00000 117.00000 1.00000
v 16.00000 118.00000 0.00000
v 16.00000 118.00000 1.00000
v 17.00000 118.00000 0.00000
v 17.00000 118.00000 1.00000
v 16.00000 119.00000 0.00000
v 16.00000 119.00000 1.00000
v 17.00000 119.00000 0.00000
v 17.00000 119.00000 1.00000
v 16.00000 120.00000 0.00000
v 16.00000 120.00000 1.00000
v 17.00000 120.00000 1.00000
v 17.00000 120.00000 0.00000
v 18.00000 112.00000 0.00000
v 18.00000 112.00000 1.00000
v 18.00000 113.00000 0.00000
v 18.00000 113.00000 1.00000
v 18.00000 114.00000 0.00000
v 18.00000 114.00000 1.00000
v 18.00000 115.00000 0.00000
v 18.00000 115.00000 1.00000
v 18.00000 116.00000 0.00000
v 18.00000 116.00000 1.00000
v 18.00000 117.00000 0.00000
v 18.00000 117.00000 1.00000
v 18.00000 118.00000 0.00000
v 18.00000 118.00000 1.00000
v 18.00000 119.00000 0.00000
v 18.00000 119.00000 1.00000
v 18.00000 120.00000 1.00000
v 18.00000 120.00000 0.00000
v 19.00000 112.00000 0.00000
v 19.00000 112.00000 1.00000
v 19.00000 113.00000 0.00000
v 19.00000 113.00000 1.00000
v 19.00000 114.00000 0.00000
v 19.00000 114.00000 1.00000
v 19.00000 115.00000 0.00000
v 19.00000 115.00000 1.00000
v 19.00000 116.00000 0.00000
v 19.00000 116.00000 1.00000
v 19.00000 117.00000 0.00000
v 19.00000 117.00000 1.00000
v 19.00000 118.00000 0.00000
v 19.00000 118.00000 1.00000
v 19.00000 119.00000 0.00000
v 19.00000 119.00000 1.00000
v 19.00000 120.00000 1.00000
v 19.00000 120.00000 0.00000
v 20.00000 112.00000 0.00000
v 20.00000 112.00000 1.00000
v 20.00000 113.00000 0.00000
v 20.00000 113.00000 1.00000
v 20.00000 114.00000 0.00000
v 20.00000 114.00000 1.00000
v 20.00000 115.00000 0.00000
v 20.00000 115.00000 1.00000
v 20.00000 116.00000 0.00000
v 20.00000 116.00000 1.00000
v 20.00000 117.00000 0.00000
v 20.00000 117.00000 1.00000
v 20.00000 118.00000 0.00000
v 20.00000 118.00000 1.00000
v 20.00000 119.00000 0.00000
v 20.00000 119.00000 1.00000
v 20.00000 120.00000 1.00000
v 20.00000 120.00000 0.00000
v 21.00000 112.00000 0.00000
v 21.00000 112.00000 1.00000
v 21.00000 113.00000 0.00000
v 21.00000 113.00000 1.00000
v 21.00000 114.00000 0.00000
v 21.00000 114.00000 1.00000
v 21.00000 115.00000 0.00000
v 21.00000 115.00000 1.00000
v 21.00000 116.00000 0.00000
v 21.00000 116.00000 1.00000
v 21.00000 117.00000 0.00000
v 21.00000 117.00000 1.00000
v 21.00000 118.00000 0.00000
v 21.00000 118.00000 1.00000
v 21.00000 119.00000 0.00000
v 21.00000 119.00000 1.00000
v 21.00000 120.00000 1.00000
v 21.00000 120.00000 0.00000
v 22.00000 112.00000 0.00000
v 22.00000 112.00000 1.00000
v 22.00000 113.00000 0.00000
v 22.00000 113.00000 1.00000
v 22.00000 114.00000 0.00000
v 22.00000 114.00000 1.00000
v 22.00000 115.00000 0.00000
v 22.00000 115.00000 1.00000
v 22.00000 116.00000 0.00000
v 22.00000 116.00000 1.00000
v 22.00000 117.00000 0.00000
v 22.00000 117.00000 1.00000
v 22.00000 118.00000 0.00000
v 22.00000 118.00000 1.00000
v 22.00000 119.00000 0.00000
v 22.00000 119.00000 1.00000
v 22.00000 120.00000 1.00000
v 22.00000 120.00000 0.00000
v 23.00000 112.00000 0.00000
v 23.00000 112.00000 1.00000
v 23.00000 113.00000 0.00000
v 23.00000 113.00000 1.00000
v 23.00000 114.00000 0.00000
v 23.00000 114.00000 1.00000
v 23.00000 115.00000 0.00000
v 23.00000 115.00000 1.00000
v 23.00000 116.00000 0.00000
v 23.00000 116.00000 1.00000
v 23.00000 117.00000 0.00000
v 23.00000 117.00000 1.00000
v 23.00000 118.00000 0.00000
v 23.00000 118.00000 1.00000
v 23.00000 119.00000 0.00000
v 23.00000 119.00000 1.00000
v 23.00000 120.00000 1.00000
v 23.00000 120.00000 0.00000
v 24.00000 113.00000 1.00000
v 24.00000 112.00000 1.00000
v 24.00000 112.00000 0.00000
v 24.00000 113.00000 0.00000
v 24.00000 114.00000 1.00000
v 24.00000 114.00000 0.00000
v 24.00000 115.00000 1.00000
v 24.00000 115.00000 0.00000
v 24.00000 116.00000 1.00000
v 24.00000 116.00000 0.00000
v 24.00000 117.00000 1.00000
v 24.00000 117.00000 0.00000
v 24.00000 118.00000 1.00000
v 24.00000 118.00000 0.00000
v 24.00000 119.00000 1.00000
v 24.00000 119.00000 0.00000
v 24.00000 120.00000 1.00000
v 24.00000 120.00000 0.00000

vt 0.00391 0.01563
vt 0.00391 0.00781
vt 0.00781 0.00781
vt 0.00781 0.01563
vt 0.17969 0.36719
vt 0.17969 0.35938
vt 0.18359 0.35938
vt 0.18359 0.36719
vt 0.07422 0.39063
vt 0.07422 0.38281
vt 0.07813 0.38281
vt 0.07813 0.39063
vt 0.16797 0.36719
vt 0.16797 0.35938
vt 0.17188 0.35938
vt 0.17188 0.36719
vt 0.15625 0.36719
vt 0.15625 0.35938
vt 0.16016 0.35938
vt 0.16016 0.36719

g 101_Piece10_14_0
usemtl 101_Material
f 1/1/3 2/2/3 3/3/3 4/4/3
f 3/1/6 2/2/6 5/3/6 6/4/6
f 7/1/2 5/2/2 2/3/2 1/4/2
f 4/1/1 3/2/1 6/3/1 8/4/1
f 9/1/3 1/2/3 4/3/3 10/4/3
f 11/1/2 7/2/2 1/3/2 9/4/2
f 10/1/1 4/2/1 8/3/1 12/4/1
f 13/1/3 9/2/3 10/3/3 14/4/3
f 15/1/2 11/2/2 9/3/2 13/4/2
f 14/1/1 10/2/1 12/3/1 16/4/1
f 17/1/3 13/2/3 14/3/3 18/4/3
f 19/1/2 15/2/2 13/3/2 17/4/2
f 18/1/1 14/2/1 16/3/1 20/4/1
f 21/1/3 17/2/3 18/3/3 22/4/3
f 23/1/2 19/2/2 17/3/2 21/4/2
f 22/1/1 18/2/1 20/3/1 24/4/1
f 25/1/3 21/2/3 22/3/3 26/4/3
f 27/1/2 23/2/2 21/3/2 25/4/2
f 26/1/1 22/2/1 24/3/1 28/4/1
f 29/1/3 25/2/3 26/3/3 30/4/3
f 31/1/2 27/2/2 25/3/2 29/4/2
f 30/1/1 26/2/1 28/3/1 32/4/1
f 33/1/3 29/2/3 30/3/3 34/4/3
f 33/1/5 34/2/5 35/3/5 36/4/5
f 36/1/2 31/2/2 29/3/2 33/4/2
f 34/1/1 30/2/1 32/3/1 35/4/1
f 6/5/6 5/6/6 37/7/6 38/8/6
f 39/5/2 37/6/2 5/7/2 7/8/2
f 8/5/1 6/6/1 38/7/1 40/8/1
f 41/9/2 39/10/2 7/11/2 11/12/2
f 12/9/1 8/10/1 40/11/1 42/12/1
f 43/1/2 41/2/2 11/3/2 15/4/2
f 16/1/1 12/2/1 42/3/1 44/4/1
f 45/1/2 43/2/2 15/3/2 19/4/2
f 20/1/1 16/2/1 44/3/1 46/4/1
f 47/13/2 45/14/2 19/15/2 23/16/2
f 24/13/1 20/14/1 46/15/1 48/16/1
f 49/13/2 47/14/2 23/15/2 27/16/2
f 28/13/1 24/14/1 48/15/1 50/16/1
f 51/13/2 49/14/2 27/15/2 31/16/2
f 32/13/1 28/14/1 50/15/1 52/16/1
f 36/1/5 35/2/5 53/3/5 54/4/5
f 54/1/2 51/2/2 31/3/2 36/4/2
f 35/1/1 32/2/1 52/3/1 53/4/1
f 38/5/6 37/6/6 55/7/6 56/8/6
f 57/5/2 55/6/2 37/7/2 39/8/2
f 40/5/1 38/6/1 56/7/1 58/8/1
f 59/5/2 57/6/2 39/7/2 41/8/2
f 42/5/1 40/6/1 58/7/1 60/8/1
f 61/5/2 59/6/2 41/7/2 43/8/2
f 44/5/1 42/6/1 60/7/1 62/8/1
f 63/5/2 61/6/2 43/7/2 45/8/2
f 46/5/1 44/6/1 62/7/1 64/8/1
f 65/13/2 63/14/2 45/15/2 47/16/2
f 48/13/1 46/14/1 64/15/1 66/16/1
f 67/9/2 65/10/2 47/11/2 49/12/2
f 50/9/1 48/10/1 66/11/1 68/12/1
f 69/5/2 67/6/2 49/7/2 51/8/2
f 52/5/1 50/6/1 68/7/1 70/8/1
f 54/13/5 53/14/5 71/15/5 72/16/5
f 72/13/2 69/14/2 51/15/2 54/16/2
f 53/13/1 52/14/1 70/15/1 71/16/1
f 56/5/6 55/6/6 73/7/6 74/8/6
f 75/5/2 73/6/2 55/7/2 57/8/2
f 58/5/1 56/6/1 74/7/1 76/8/1
f 77/5/2 75/6/2 57/7/2 59/8/2
f 60/5/1 58/6/1 76/7/1 78/8/1
f 79/5/2 77/6/2 59/7/2 61/8/2
f 62/5/1 60/6/1 78/7/1 80/8/1
f 81/5/2 79/6/2 61/7/2 63/8/2
f 64/5/1 62/6/1 80/7/1 82/8/1
f 83/17/2 81/18/2 63/19/2 65/20/2
f 66/17/1 64/18/1 82/19/1 84/20/1
f 85/9/2 83/10/2 65/11/2 67/12/2
f 68/9/1 66/10/1 84/11/1 86/12/1
f 87/5/2 85/6/2 67/7/2 69/8/2
f 70/5/1 68/6/1 86/7/1 88/8/1
f 72/13/5 71/14/5 89/15/5 90/16/5
f 90/13/2 87/14/2 69/15/2 72/16/2
f 71/13/1 70/14/1 88/15/1 89/16/1
f 74/9/6 73/10/6 91/11/6 92/12/6
f 93/9/2 91/10/2 73/11/2 75/12/2
f 76/9/1 74/10/1 92/11/1 94/12/1
f 95/9/2 93/10/2 75/11/2 77/12/2
f 78/9/1 76/10/1 94/11/1 96/12/1
f 97/9/2 95/10/2 77/11/2 79/12/2
f 80/9/1 78/10/1 96/11/1 98/12/1
f 99/9/2 97/10/2 79/11/2 81/12/2
f 82/9/1 80/10/1 98/11/1 100/12/1
f 101/17/2 99/18/2 81/19/2 83/20/2
f 84/17/1 82/18/1 100/19/1 102/20/1
f 103/13/2 101/14/2 83/15/2 85/16/2
f 86/13/1 84/14/1 102/15/1 104/16/1
f 105/13/2 103/14/2 85/15/2 87/16/2
f 88/13/1 86/14/1 104/15/1 106/16/1
f 90/1/5 89/2/5 107/3/5 108/4/5
f 108/1/2 105/2/2 87/3/2 90/4/2
f 89/1/1 88/2/1 106/3/1 107/4/1
f 92/5/6 91/6/6 109/7/6 110/8/6
f 111/5/2 109/6/2 91/7/2 93/8/2
f 94/5/1 92/6/1 110/7/1 112/8/1
f 113/5/2 111/6/2 93/7/2 95/8/2
f 96/5/1 94/6/1 112/7/1 114/8/1
f 115/17/2 113/18/2 95/19/2 97/20/2
f 98/17/1 96/18/1 114/19/1 116/20/1
f 117/13/2 115/14/2 97/15/2 99/16/2
f 100/13/1 98/14/1 116/15/1 118/16/1
f 119/13/2 117/14/2 99/15/2 101/16/2
f 102/13/1 100/14/1 118/15/1 120/16/1
f 121/1/2 119/2/2 101/3/2 103/4/2
f 104/1/1 102/2/1 120/3/1 122/4/1
f 123/1/2 121/2/2 103/3/2 105/4/2
f 106/1/1 104/2/1 122/3/1 124/4/1
f 108/1/5 107/2/5 125/3/5 126/4/5
f 126/1/2 123/2/2 105/3/2 108/4/2
f 107/1/1 106/2/1 124/3/1 125/4/1
f 110/5/6 109/6/6 127/7/6 128/8/6
f 129/5/2 127/6/2 109/7/2 111/8/2
f 112/5/1 110/6/1 128/7/1 130/8/1
f 131/5/2 129/6/2 111/7/2 113/8/2
f 114/5/1 112/6/1 130/7/1 132/8/1
f 133/17/2 131/18/2 113/19/2 115/20/2
f 116/17/1 114/18/1 132/19/1 134/20/1
f 135/9/2 133/10/2 115/11/2 117/12/2
f 118/9/1 116/10/1 134/11/1 136/12/1
f 137/13/2 135/14/2 117/15/2 119/16/2
f 120/13/1 118/14/1 136/15/1 138/16/1
f 139/1/2 137/2/2 119/3/2 121/4/2
f 122/1/1 120/2/1 138/3/1 140/4/1
f 141/1/2 139/2/2 121/3/2 123/4/2
f 124/1/1 122/2/1 140/3/1 142/4/1
f 126/1/5 125/2/5 143/3/5 144/4/5
f 144/1/2 141/2/2 123/3/2 126/4/2
f 125/1/1 124/2/1 142/3/1 143/4/1
f 145/1/4 146/2/4 147/3/4 148/4/4
f 128/1/6 127/2/6 147/3/6 146/4/6
f 148/1/2 147/2/2 127/3/2 129/4/2
f 130/1/1 128/2/1 146/3/1 145/4/1
f 149/1/4 145/2/4 148/3/4 150/4/4
f 150/1/2 148/2/2 129/3/2 131/4/2
f 132/1/1 130/2/1 145/3/1 149/4/1
f 151/17/4 149/18/4 150/19/4 152/20/4
f 152/17/2 150/18/2 131/19/2 133/20/2
f 134/17/1 132/18/1 149/19/1 151/20/1
f 153/17/4 151/18/4 152/19/4 154/20/4
f 154/17/2 152/18/2 133/19/2 135/20/2
f 136/17/1 134/18/1 151/19/1 153/20/1
f 155/1/4 153/2/4 154/3/4 156/4/4
f 156/1/2 154/2/2 135/3/2 137/4/2
f 138/1/1 136/2/1 153/3/1 155/4/1
f 157/1/4 155/2/4 156/3/4 158/4/4
f 158/1/2 156/2/2 137/3/2 139/4/2
f 140/1/1 138/2/1 155/3/1 157/4/1
f 159/1/4 157/2/4 158/3/4 160/4/4
f 160/1/2 158/2/2 139/3/2 141/4/2
f 142/1/1 140/2/1 157/3/1 159/4/1
f 161/1/4 159/2/4 160/3/4 162/4/4
f 144/1/5 143/2/5 161/3/5 162/4/5
f 162/1/2 160/2/2 141/3/2 144/4/2
f 143/1/1 142/2/1 159/3/1 161/4/1
