# This file was created with Minddesk Qubicle 3.0
# Get Qubicle at www.getqubicle.com

mtllib 101_Piece0_9_0.mtl

vn 0.0 0.0 1.0
vn 0.0 0.0 -1.0
vn -1.0 0.0 0.0
vn 1.0 0.0 0.0
vn 0.0 1.0 0.0
vn 0.0 -1.0 0.0

v -64.00000 73.00000 0.00000
v -64.00000 72.00000 0.00000
v -64.00000 72.00000 1.00000
v -64.00000 73.00000 1.00000
v -63.00000 72.00000 0.00000
v -63.00000 72.00000 1.00000
v -63.00000 73.00000 0.00000
v -63.00000 73.00000 1.00000
v -64.00000 74.00000 0.00000
v -64.00000 74.00000 1.00000
v -63.00000 74.00000 0.00000
v -63.00000 74.00000 1.00000
v -64.00000 75.00000 0.00000
v -64.00000 75.00000 1.00000
v -63.00000 75.00000 0.00000
v -63.00000 75.00000 1.00000
v -64.00000 76.00000 0.00000
v -64.00000 76.00000 1.00000
v -63.00000 76.00000 0.00000
v -63.00000 76.00000 1.00000
v -64.00000 77.00000 0.00000
v -64.00000 77.00000 1.00000
v -63.00000 77.00000 0.00000
v -63.00000 77.00000 1.00000
v -64.00000 78.00000 0.00000
v -64.00000 78.00000 1.00000
v -63.00000 78.00000 0.00000
v -63.00000 78.00000 1.00000
v -64.00000 79.00000 0.00000
v -64.00000 79.00000 1.00000
v -63.00000 79.00000 0.00000
v -63.00000 79.00000 1.00000
v -64.00000 80.00000 0.00000
v -64.00000 80.00000 1.00000
v -63.00000 80.00000 1.00000
v -63.00000 80.00000 0.00000
v -62.00000 72.00000 0.00000
v -62.00000 72.00000 1.00000
v -62.00000 73.00000 0.00000
v -62.00000 73.00000 1.00000
v -62.00000 74.00000 0.00000
v -62.00000 74.00000 1.00000
v -62.00000 75.00000 0.00000
v -62.00000 75.00000 1.00000
v -62.00000 76.00000 0.00000
v -62.00000 76.00000 1.00000
v -62.00000 77.00000 0.00000
v -62.00000 77.00000 1.00000
v -62.00000 78.00000 0.00000
v -62.00000 78.00000 1.00000
v -62.00000 79.00000 0.00000
v -62.00000 79.00000 1.00000
v -62.00000 80.00000 1.00000
v -62.00000 80.00000 0.00000
v -61.00000 72.00000 0.00000
v -61.00000 72.00000 1.00000
v -61.00000 73.00000 0.00000
v -61.00000 73.00000 1.00000
v -61.00000 74.00000 0.00000
v -61.00000 74.00000 1.00000
v -61.00000 75.00000 0.00000
v -61.00000 75.00000 1.00000
v -61.00000 76.00000 0.00000
v -61.00000 76.00000 1.00000
v -61.00000 77.00000 0.00000
v -61.00000 77.00000 1.00000
v -61.00000 78.00000 0.00000
v -61.00000 78.00000 1.00000
v -61.00000 79.00000 0.00000
v -61.00000 79.00000 1.00000
v -61.00000 80.00000 1.00000
v -61.00000 80.00000 0.00000
v -60.00000 72.00000 0.00000
v -60.00000 72.00000 1.00000
v -60.00000 73.00000 0.00000
v -60.00000 73.00000 1.00000
v -60.00000 74.00000 0.00000
v -60.00000 74.00000 1.00000
v -60.00000 75.00000 0.00000
v -60.00000 75.00000 1.00000
v -60.00000 76.00000 0.00000
v -60.00000 76.00000 1.00000
v -60.00000 77.00000 0.00000
v -60.00000 77.00000 1.00000
v -60.00000 78.00000 0.00000
v -60.00000 78.00000 1.00000
v -60.00000 79.00000 0.00000
v -60.00000 79.00000 1.00000
v -60.00000 80.00000 1.00000
v -60.00000 80.00000 0.00000
v -59.00000 72.00000 0.00000
v -59.00000 72.00000 1.00000
v -59.00000 73.00000 0.00000
v -59.00000 73.00000 1.00000
v -59.00000 74.00000 0.00000
v -59.00000 74.00000 1.00000
v -59.00000 75.00000 0.00000
v -59.00000 75.00000 1.00000
v -59.00000 76.00000 0.00000
v -59.00000 76.00000 1.00000
v -59.00000 77.00000 0.00000
v -59.00000 77.00000 1.00000
v -59.00000 78.00000 0.00000
v -59.00000 78.00000 1.00000
v -59.00000 79.00000 0.00000
v -59.00000 79.00000 1.00000
v -59.00000 80.00000 1.00000
v -59.00000 80.00000 0.00000
v -58.00000 72.00000 0.00000
v -58.00000 72.00000 1.00000
v -58.00000 73.00000 0.00000
v -58.00000 73.00000 1.00000
v -58.00000 74.00000 0.00000
v -58.00000 74.00000 1.00000
v -58.00000 75.00000 0.00000
v -58.00000 75.00000 1.00000
v -58.00000 76.00000 0.00000
v -58.00000 76.00000 1.00000
v -58.00000 77.00000 0.00000
v -58.00000 77.00000 1.00000
v -58.00000 78.00000 0.00000
v -58.00000 78.00000 1.00000
v -58.00000 79.00000 0.00000
v -58.00000 79.00000 1.00000
v -58.00000 80.00000 1.00000
v -58.00000 80.00000 0.00000
v -57.00000 72.00000 0.00000
v -57.00000 72.00000 1.00000
v -57.00000 73.00000 0.00000
v -57.00000 73.00000 1.00000
v -57.00000 74.00000 0.00000
v -57.00000 74.00000 1.00000
v -57.00000 75.00000 0.00000
v -57.00000 75.00000 1.00000
v -57.00000 76.00000 0.00000
v -57.00000 76.00000 1.00000
v -57.00000 77.00000 0.00000
v -57.00000 77.00000 1.00000
v -57.00000 78.00000 0.00000
v -57.00000 78.00000 1.00000
v -57.00000 79.00000 0.00000
v -57.00000 79.00000 1.00000
v -57.00000 80.00000 1.00000
v -57.00000 80.00000 0.00000
v -56.00000 73.00000 1.00000
v -56.00000 72.00000 1.00000
v -56.00000 72.00000 0.00000
v -56.00000 73.00000 0.00000
v -56.00000 74.00000 1.00000
v -56.00000 74.00000 0.00000
v -56.00000 75.00000 1.00000
v -56.00000 75.00000 0.00000
v -56.00000 76.00000 1.00000
v -56.00000 76.00000 0.00000
v -56.00000 77.00000 1.00000
v -56.00000 77.00000 0.00000
v -56.00000 78.00000 1.00000
v -56.00000 78.00000 0.00000
v -56.00000 79.00000 1.00000
v -56.00000 79.00000 0.00000
v -56.00000 80.00000 1.00000
v -56.00000 80.00000 0.00000

vt 0.06250 0.03906
vt 0.06250 0.03125
vt 0.06641 0.03125
vt 0.06641 0.03906
vt 0.07422 0.03906
vt 0.07422 0.03125
vt 0.07813 0.03125
vt 0.07813 0.03906
vt 0.08594 0.03906
vt 0.08594 0.03125
vt 0.08984 0.03125
vt 0.08984 0.03906
vt 0.09766 0.03906
vt 0.09766 0.03125
vt 0.10156 0.03125
vt 0.10156 0.03906
vt 0.10938 0.03906
vt 0.10938 0.03125
vt 0.11328 0.03125
vt 0.11328 0.03906
vt 0.12109 0.03906
vt 0.12109 0.03125
vt 0.12500 0.03125
vt 0.12500 0.03906
vt 0.13281 0.03906
vt 0.13281 0.03125
vt 0.13672 0.03125
vt 0.13672 0.03906
vt 0.14453 0.03906
vt 0.14453 0.03125
vt 0.14844 0.03125
vt 0.14844 0.03906
vt 0.15625 0.03906
vt 0.15625 0.03125
vt 0.16016 0.03125
vt 0.16016 0.03906

g 101_Piece0_9_0
usemtl 101_Material
f 1/1/3 2/2/3 3/3/3 4/4/3
f 3/1/6 2/2/6 5/3/6 6/4/6
f 7/1/2 5/2/2 2/3/2 1/4/2
f 4/1/1 3/2/1 6/3/1 8/4/1
f 9/5/3 1/6/3 4/7/3 10/8/3
f 11/5/2 7/6/2 1/7/2 9/8/2
f 10/5/1 4/6/1 8/7/1 12/8/1
f 13/9/3 9/10/3 10/11/3 14/12/3
f 15/9/2 11/10/2 9/11/2 13/12/2
f 14/9/1 10/10/1 12/11/1 16/12/1
f 17/13/3 13/14/3 14/15/3 18/16/3
f 19/13/2 15/14/2 13/15/2 17/16/2
f 18/13/1 14/14/1 16/15/1 20/16/1
f 21/17/3 17/18/3 18/19/3 22/20/3
f 23/17/2 19/18/2 17/19/2 21/20/2
f 22/17/1 18/18/1 20/19/1 24/20/1
f 25/17/3 21/18/3 22/19/3 26/20/3
f 27/17/2 23/18/2 21/19/2 25/20/2
f 26/17/1 22/18/1 24/19/1 28/20/1
f 29/9/3 25/10/3 26/11/3 30/12/3
f 31/9/2 27/10/2 25/11/2 29/12/2
f 30/9/1 26/10/1 28/11/1 32/12/1
f 33/17/3 29/18/3 30/19/3 34/20/3
f 33/17/5 34/18/5 35/19/5 36/20/5
f 36/17/2 31/18/2 29/19/2 33/20/2
f 34/17/1 30/18/1 32/19/1 35/20/1
f 6/21/6 5/22/6 37/23/6 38/24/6
f 39/21/2 37/22/2 5/23/2 7/24/2
f 8/21/1 6/22/1 38/23/1 40/24/1
f 41/1/2 39/2/2 7/3/2 11/4/2
f 12/1/1 8/2/1 40/3/1 42/4/1
f 43/13/2 41/14/2 11/15/2 15/16/2
f 16/13/1 12/14/1 42/15/1 44/16/1
f 45/1/2 43/2/2 15/3/2 19/4/2
f 20/1/1 16/2/1 44/3/1 46/4/1
f 47/17/2 45/18/2 19/19/2 23/20/2
f 24/17/1 20/18/1 46/19/1 48/20/1
f 49/5/2 47/6/2 23/7/2 27/8/2
f 28/5/1 24/6/1 48/7/1 50/8/1
f 51/25/2 49/26/2 27/27/2 31/28/2
f 32/25/1 28/26/1 50/27/1 52/28/1
f 36/1/5 35/2/5 53/3/5 54/4/5
f 54/1/2 51/2/2 31/3/2 36/4/2
f 35/1/1 32/2/1 52/3/1 53/4/1
f 38/5/6 37/6/6 55/7/6 56/8/6
f 57/5/2 55/6/2 37/7/2 39/8/2
f 40/5/1 38/6/1 56/7/1 58/8/1
f 59/25/2 57/26/2 39/27/2 41/28/2
f 42/25/1 40/26/1 58/27/1 60/28/1
f 61/17/2 59/18/2 41/19/2 43/20/2
f 44/17/1 42/18/1 60/19/1 62/20/1
f 63/1/2 61/2/2 43/3/2 45/4/2
f 46/1/1 44/2/1 62/3/1 64/4/1
f 65/29/2 63/30/2 45/31/2 47/32/2
f 48/29/1 46/30/1 64/31/1 66/32/1
f 67/33/2 65/34/2 47/35/2 49/36/2
f 50/33/1 48/34/1 66/35/1 68/36/1
f 69/9/2 67/10/2 49/11/2 51/12/2
f 52/9/1 50/10/1 68/11/1 70/12/1
f 54/9/5 53/10/5 71/11/5 72/12/5
f 72/9/2 69/10/2 51/11/2 54/12/2
f 53/9/1 52/10/1 70/11/1 71/12/1
f 56/17/6 55/18/6 73/19/6 74/20/6
f 75/17/2 73/18/2 55/19/2 57/20/2
f 58/17/1 56/18/1 74/19/1 76/20/1
f 77/21/2 75/22/2 57/23/2 59/24/2
f 60/21/1 58/22/1 76/23/1 78/24/1
f 79/1/2 77/2/2 59/3/2 61/4/2
f 62/1/1 60/2/1 78/3/1 80/4/1
f 81/25/2 79/26/2 61/27/2 63/28/2
f 64/25/1 62/26/1 80/27/1 82/28/1
f 83/33/2 81/34/2 63/35/2 65/36/2
f 66/33/1 64/34/1 82/35/1 84/36/1
f 85/17/2 83/18/2 65/19/2 67/20/2
f 68/17/1 66/18/1 84/19/1 86/20/1
f 87/17/2 85/18/2 67/19/2 69/20/2
f 70/17/1 68/18/1 86/19/1 88/20/1
f 72/5/5 71/6/5 89/7/5 90/8/5
f 90/5/2 87/6/2 69/7/2 72/8/2
f 71/5/1 70/6/1 88/7/1 89/8/1
f 74/29/6 73/30/6 91/31/6 92/32/6
f 93/29/2 91/30/2 73/31/2 75/32/2
f 76/29/1 74/30/1 92/31/1 94/32/1
f 95/5/2 93/6/2 75/7/2 77/8/2
f 78/5/1 76/6/1 94/7/1 96/8/1
f 97/5/2 95/6/2 77/7/2 79/8/2
f 80/5/1 78/6/1 96/7/1 98/8/1
f 99/25/2 97/26/2 79/27/2 81/28/2
f 82/25/1 80/26/1 98/27/1 100/28/1
f 101/9/2 99/10/2 81/11/2 83/12/2
f 84/9/1 82/10/1 100/11/1 102/12/1
f 103/9/2 101/10/2 83/11/2 85/12/2
f 86/9/1 84/10/1 102/11/1 104/12/1
f 105/5/2 103/6/2 85/7/2 87/8/2
f 88/5/1 86/6/1 104/7/1 106/8/1
f 90/9/5 89/10/5 107/11/5 108/12/5
f 108/9/2 105/10/2 87/11/2 90/12/2
f 89/9/1 88/10/1 106/11/1 107/12/1
f 92/1/6 91/2/6 109/3/6 110/4/6
f 111/1/2 109/2/2 91/3/2 93/4/2
f 94/1/1 92/2/1 110/3/1 112/4/1
f 113/5/2 111/6/2 93/7/2 95/8/2
f 96/5/1 94/6/1 112/7/1 114/8/1
f 115/5/2 113/6/2 95/7/2 97/8/2
f 98/5/1 96/6/1 114/7/1 116/8/1
f 117/9/2 115/10/2 97/11/2 99/12/2
f 100/9/1 98/10/1 116/11/1 118/12/1
f 119/17/2 117/18/2 99/19/2 101/20/2
f 102/17/1 100/18/1 118/19/1 120/20/1
f 121/9/2 119/10/2 101/11/2 103/12/2
f 104/9/1 102/10/1 120/11/1 122/12/1
f 123/13/2 121/14/2 103/15/2 105/16/2
f 106/13/1 104/14/1 122/15/1 124/16/1
f 108/9/5 107/10/5 125/11/5 126/12/5
f 126/9/2 123/10/2 105/11/2 108/12/2
f 107/9/1 106/10/1 124/11/1 125/12/1
f 110/17/6 109/18/6 127/19/6 128/20/6
f 129/17/2 127/18/2 109/19/2 111/20/2
f 112/17/1 110/18/1 128/19/1 130/20/1
f 131/17/2 129/18/2 111/19/2 113/20/2
f 114/17/1 112/18/1 130/19/1 132/20/1
f 133/5/2 131/6/2 113/7/2 115/8/2
f 116/5/1 114/6/1 132/7/1 134/8/1
f 135/1/2 133/2/2 115/3/2 117/4/2
f 118/1/1 116/2/1 134/3/1 136/4/1
f 137/5/2 135/6/2 117/7/2 119/8/2
f 120/5/1 118/6/1 136/7/1 138/8/1
f 139/25/2 137/26/2 119/27/2 121/28/2
f 122/25/1 120/26/1 138/27/1 140/28/1
f 141/17/2 139/18/2 121/19/2 123/20/2
f 124/17/1 122/18/1 140/19/1 142/20/1
f 126/17/5 125/18/5 143/19/5 144/20/5
f 144/17/2 141/18/2 123/19/2 126/20/2
f 125/17/1 124/18/1 142/19/1 143/20/1
f 145/17/4 146/18/4 147/19/4 148/20/4
f 128/17/6 127/18/6 147/19/6 146/20/6
f 148/17/2 147/18/2 127/19/2 129/20/2
f 130/17/1 128/18/1 146/19/1 145/20/1
f 149/5/4 145/6/4 148/7/4 150/8/4
f 150/5/2 148/6/2 129/7/2 131/8/2
f 132/5/1 130/6/1 145/7/1 149/8/1
f 151/5/4 149/6/4 150/7/4 152/8/4
f 152/5/2 150/6/2 131/7/2 133/8/2
f 134/5/1 132/6/1 149/7/1 151/8/1
f 153/1/4 151/2/4 152/3/4 154/4/4
f 154/1/2 152/2/2 133/3/2 135/4/2
f 136/1/1 134/2/1 151/3/1 153/4/1
f 155/17/4 153/18/4 154/19/4 156/20/4
f 156/17/2 154/18/2 135/19/2 137/20/2
f 138/17/1 136/18/1 153/19/1 155/20/1
f 157/33/4 155/34/4 156/35/4 158/36/4
f 158/33/2 156/34/2 137/35/2 139/36/2
f 140/33/1 138/34/1 155/35/1 157/36/1
f 159/1/4 157/2/4 158/3/4 160/4/4
f 160/1/2 158/2/2 139/3/2 141/4/2
f 142/1/1 140/2/1 157/3/1 159/4/1
f 161/5/4 159/6/4 160/7/4 162/8/4
f 144/5/5 143/6/5 161/7/5 162/8/5
f 162/5/2 160/6/2 141/7/2 144/8/2
f 143/5/1 142/6/1 159/7/1 161/8/1
