# This file was created with Minddesk Qubicle 3.0
# Get Qubicle at www.getqubicle.com

mtllib 101_Piece13_19_0.mtl

vn 0.0 0.0 1.0
vn 0.0 0.0 -1.0
vn -1.0 0.0 0.0
vn 1.0 0.0 0.0
vn 0.0 1.0 0.0
vn 0.0 -1.0 0.0

v 40.00000 153.00000 0.00000
v 40.00000 152.00000 0.00000
v 40.00000 152.00000 1.00000
v 40.00000 153.00000 1.00000
v 41.00000 152.00000 0.00000
v 41.00000 152.00000 1.00000
v 41.00000 153.00000 0.00000
v 41.00000 153.00000 1.00000
v 40.00000 154.00000 0.00000
v 40.00000 154.00000 1.00000
v 41.00000 154.00000 0.00000
v 41.00000 154.00000 1.00000
v 40.00000 155.00000 0.00000
v 40.00000 155.00000 1.00000
v 41.00000 155.00000 0.00000
v 41.00000 155.00000 1.00000
v 40.00000 156.00000 0.00000
v 40.00000 156.00000 1.00000
v 41.00000 156.00000 0.00000
v 41.00000 156.00000 1.00000
v 40.00000 157.00000 0.00000
v 40.00000 157.00000 1.00000
v 41.00000 157.00000 0.00000
v 41.00000 157.00000 1.00000
v 40.00000 158.00000 0.00000
v 40.00000 158.00000 1.00000
v 41.00000 158.00000 0.00000
v 41.00000 158.00000 1.00000
v 40.00000 159.00000 0.00000
v 40.00000 159.00000 1.00000
v 41.00000 159.00000 0.00000
v 41.00000 159.00000 1.00000
v 40.00000 160.00000 0.00000
v 40.00000 160.00000 1.00000
v 41.00000 160.00000 1.00000
v 41.00000 160.00000 0.00000
v 42.00000 152.00000 0.00000
v 42.00000 152.00000 1.00000
v 42.00000 153.00000 0.00000
v 42.00000 153.00000 1.00000
v 42.00000 154.00000 0.00000
v 42.00000 154.00000 1.00000
v 42.00000 155.00000 0.00000
v 42.00000 155.00000 1.00000
v 42.00000 156.00000 0.00000
v 42.00000 156.00000 1.00000
v 42.00000 157.00000 0.00000
v 42.00000 157.00000 1.00000
v 42.00000 158.00000 0.00000
v 42.00000 158.00000 1.00000
v 42.00000 159.00000 0.00000
v 42.00000 159.00000 1.00000
v 42.00000 160.00000 1.00000
v 42.00000 160.00000 0.00000
v 43.00000 152.00000 0.00000
v 43.00000 152.00000 1.00000
v 43.00000 153.00000 0.00000
v 43.00000 153.00000 1.00000
v 43.00000 154.00000 0.00000
v 43.00000 154.00000 1.00000
v 43.00000 155.00000 0.00000
v 43.00000 155.00000 1.00000
v 43.00000 156.00000 0.00000
v 43.00000 156.00000 1.00000
v 43.00000 157.00000 0.00000
v 43.00000 157.00000 1.00000
v 43.00000 158.00000 0.00000
v 43.00000 158.00000 1.00000
v 43.00000 159.00000 0.00000
v 43.00000 159.00000 1.00000
v 43.00000 160.00000 1.00000
v 43.00000 160.00000 0.00000
v 44.00000 152.00000 0.00000
v 44.00000 152.00000 1.00000
v 44.00000 153.00000 0.00000
v 44.00000 153.00000 1.00000
v 44.00000 154.00000 0.00000
v 44.00000 154.00000 1.00000
v 44.00000 155.00000 0.00000
v 44.00000 155.00000 1.00000
v 44.00000 156.00000 0.00000
v 44.00000 156.00000 1.00000
v 44.00000 157.00000 0.00000
v 44.00000 157.00000 1.00000
v 44.00000 158.00000 0.00000
v 44.00000 158.00000 1.00000
v 44.00000 159.00000 0.00000
v 44.00000 159.00000 1.00000
v 44.00000 160.00000 1.00000
v 44.00000 160.00000 0.00000
v 45.00000 152.00000 0.00000
v 45.00000 152.00000 1.00000
v 45.00000 153.00000 0.00000
v 45.00000 153.00000 1.00000
v 45.00000 154.00000 0.00000
v 45.00000 154.00000 1.00000
v 45.00000 155.00000 0.00000
v 45.00000 155.00000 1.00000
v 45.00000 156.00000 0.00000
v 45.00000 156.00000 1.00000
v 45.00000 157.00000 0.00000
v 45.00000 157.00000 1.00000
v 45.00000 158.00000 0.00000
v 45.00000 158.00000 1.00000
v 45.00000 159.00000 0.00000
v 45.00000 159.00000 1.00000
v 45.00000 160.00000 1.00000
v 45.00000 160.00000 0.00000
v 46.00000 152.00000 0.00000
v 46.00000 152.00000 1.00000
v 46.00000 153.00000 0.00000
v 46.00000 153.00000 1.00000
v 46.00000 154.00000 0.00000
v 46.00000 154.00000 1.00000
v 46.00000 155.00000 0.00000
v 46.00000 155.00000 1.00000
v 46.00000 156.00000 0.00000
v 46.00000 156.00000 1.00000
v 46.00000 157.00000 0.00000
v 46.00000 157.00000 1.00000
v 46.00000 158.00000 0.00000
v 46.00000 158.00000 1.00000
v 46.00000 159.00000 0.00000
v 46.00000 159.00000 1.00000
v 46.00000 160.00000 1.00000
v 46.00000 160.00000 0.00000
v 47.00000 152.00000 0.00000
v 47.00000 152.00000 1.00000
v 47.00000 153.00000 0.00000
v 47.00000 153.00000 1.00000
v 47.00000 154.00000 0.00000
v 47.00000 154.00000 1.00000
v 47.00000 155.00000 0.00000
v 47.00000 155.00000 1.00000
v 47.00000 156.00000 0.00000
v 47.00000 156.00000 1.00000
v 47.00000 157.00000 0.00000
v 47.00000 157.00000 1.00000
v 47.00000 158.00000 0.00000
v 47.00000 158.00000 1.00000
v 47.00000 159.00000 0.00000
v 47.00000 159.00000 1.00000
v 47.00000 160.00000 1.00000
v 47.00000 160.00000 0.00000
v 48.00000 153.00000 1.00000
v 48.00000 152.00000 1.00000
v 48.00000 152.00000 0.00000
v 48.00000 153.00000 0.00000
v 48.00000 154.00000 1.00000
v 48.00000 154.00000 0.00000
v 48.00000 155.00000 1.00000
v 48.00000 155.00000 0.00000
v 48.00000 156.00000 1.00000
v 48.00000 156.00000 0.00000
v 48.00000 157.00000 1.00000
v 48.00000 157.00000 0.00000
v 48.00000 158.00000 1.00000
v 48.00000 158.00000 0.00000
v 48.00000 159.00000 1.00000
v 48.00000 159.00000 0.00000
v 48.00000 160.00000 1.00000
v 48.00000 160.00000 0.00000

vt 0.19141 0.43750
vt 0.19141 0.42969
vt 0.19531 0.42969
vt 0.19531 0.43750
vt 0.20313 0.43750
vt 0.20313 0.42969
vt 0.20703 0.42969
vt 0.20703 0.43750
vt 0.21484 0.43750
vt 0.21484 0.42969
vt 0.21875 0.42969
vt 0.21875 0.43750

g 101_Piece13_19_0
usemtl 101_Material
f 1/1/3 2/2/3 3/3/3 4/4/3
f 3/1/6 2/2/6 5/3/6 6/4/6
f 7/1/2 5/2/2 2/3/2 1/4/2
f 4/1/1 3/2/1 6/3/1 8/4/1
f 9/5/3 1/6/3 4/7/3 10/8/3
f 11/5/2 7/6/2 1/7/2 9/8/2
f 10/5/1 4/6/1 8/7/1 12/8/1
f 13/5/3 9/6/3 10/7/3 14/8/3
f 15/5/2 11/6/2 9/7/2 13/8/2
f 14/5/1 10/6/1 12/7/1 16/8/1
f 17/9/3 13/10/3 14/11/3 18/12/3
f 19/9/2 15/10/2 13/11/2 17/12/2
f 18/9/1 14/10/1 16/11/1 20/12/1
f 21/1/3 17/2/3 18/3/3 22/4/3
f 23/1/2 19/2/2 17/3/2 21/4/2
f 22/1/1 18/2/1 20/3/1 24/4/1
f 25/5/3 21/6/3 22/7/3 26/8/3
f 27/5/2 23/6/2 21/7/2 25/8/2
f 26/5/1 22/6/1 24/7/1 28/8/1
f 29/5/3 25/6/3 26/7/3 30/8/3
f 31/5/2 27/6/2 25/7/2 29/8/2
f 30/5/1 26/6/1 28/7/1 32/8/1
f 33/9/3 29/10/3 30/11/3 34/12/3
f 33/9/5 34/10/5 35/11/5 36/12/5
f 36/9/2 31/10/2 29/11/2 33/12/2
f 34/9/1 30/10/1 32/11/1 35/12/1
f 6/9/6 5/10/6 37/11/6 38/12/6
f 39/9/2 37/10/2 5/11/2 7/12/2
f 8/9/1 6/10/1 38/11/1 40/12/1
f 41/1/2 39/2/2 7/3/2 11/4/2
f 12/1/1 8/2/1 40/3/1 42/4/1
f 43/5/2 41/6/2 11/7/2 15/8/2
f 16/5/1 12/6/1 42/7/1 44/8/1
f 45/1/2 43/2/2 15/3/2 19/4/2
f 20/1/1 16/2/1 44/3/1 46/4/1
f 47/9/2 45/10/2 19/11/2 23/12/2
f 24/9/1 20/10/1 46/11/1 48/12/1
f 49/1/2 47/2/2 23/3/2 27/4/2
f 28/1/1 24/2/1 48/3/1 50/4/1
f 51/5/2 49/6/2 27/7/2 31/8/2
f 32/5/1 28/6/1 50/7/1 52/8/1
f 36/5/5 35/6/5 53/7/5 54/8/5
f 54/5/2 51/6/2 31/7/2 36/8/2
f 35/5/1 32/6/1 52/7/1 53/8/1
f 38/5/6 37/6/6 55/7/6 56/8/6
f 57/5/2 55/6/2 37/7/2 39/8/2
f 40/5/1 38/6/1 56/7/1 58/8/1
f 59/9/2 57/10/2 39/11/2 41/12/2
f 42/9/1 40/10/1 58/11/1 60/12/1
f 61/1/2 59/2/2 41/3/2 43/4/2
f 44/1/1 42/2/1 60/3/1 62/4/1
f 63/5/2 61/6/2 43/7/2 45/8/2
f 46/5/1 44/6/1 62/7/1 64/8/1
f 65/9/2 63/10/2 45/11/2 47/12/2
f 48/9/1 46/10/1 64/11/1 66/12/1
f 67/9/2 65/10/2 47/11/2 49/12/2
f 50/9/1 48/10/1 66/11/1 68/12/1
f 69/1/2 67/2/2 49/3/2 51/4/2
f 52/1/1 50/2/1 68/3/1 70/4/1
f 54/5/5 53/6/5 71/7/5 72/8/5
f 72/5/2 69/6/2 51/7/2 54/8/2
f 53/5/1 52/6/1 70/7/1 71/8/1
f 56/5/6 55/6/6 73/7/6 74/8/6
f 75/5/2 73/6/2 55/7/2 57/8/2
f 58/5/1 56/6/1 74/7/1 76/8/1
f 77/1/2 75/2/2 57/3/2 59/4/2
f 60/1/1 58/2/1 76/3/1 78/4/1
f 79/5/2 77/6/2 59/7/2 61/8/2
f 62/5/1 60/6/1 78/7/1 80/8/1
f 81/5/2 79/6/2 61/7/2 63/8/2
f 64/5/1 62/6/1 80/7/1 82/8/1
f 83/5/2 81/6/2 63/7/2 65/8/2
f 66/5/1 64/6/1 82/7/1 84/8/1
f 85/5/2 83/6/2 65/7/2 67/8/2
f 68/5/1 66/6/1 84/7/1 86/8/1
f 87/9/2 85/10/2 67/11/2 69/12/2
f 70/9/1 68/10/1 86/11/1 88/12/1
f 72/1/5 71/2/5 89/3/5 90/4/5
f 90/1/2 87/2/2 69/3/2 72/4/2
f 71/1/1 70/2/1 88/3/1 89/4/1
f 74/1/6 73/2/6 91/3/6 92/4/6
f 93/1/2 91/2/2 73/3/2 75/4/2
f 76/1/1 74/2/1 92/3/1 94/4/1
f 95/5/2 93/6/2 75/7/2 77/8/2
f 78/5/1 76/6/1 94/7/1 96/8/1
f 97/5/2 95/6/2 77/7/2 79/8/2
f 80/5/1 78/6/1 96/7/1 98/8/1
f 99/9/2 97/10/2 79/11/2 81/12/2
f 82/9/1 80/10/1 98/11/1 100/12/1
f 101/5/2 99/6/2 81/7/2 83/8/2
f 84/5/1 82/6/1 100/7/1 102/8/1
f 103/5/2 101/6/2 83/7/2 85/8/2
f 86/5/1 84/6/1 102/7/1 104/8/1
f 105/5/2 103/6/2 85/7/2 87/8/2
f 88/5/1 86/6/1 104/7/1 106/8/1
f 90/9/5 89/10/5 107/11/5 108/12/5
f 108/9/2 105/10/2 87/11/2 90/12/2
f 89/9/1 88/10/1 106/11/1 107/12/1
f 92/9/6 91/10/6 109/11/6 110/12/6
f 111/9/2 109/10/2 91/11/2 93/12/2
f 94/9/1 92/10/1 110/11/1 112/12/1
f 113/1/2 111/2/2 93/3/2 95/4/2
f 96/1/1 94/2/1 112/3/1 114/4/1
f 115/5/2 113/6/2 95/7/2 97/8/2
f 98/5/1 96/6/1 114/7/1 116/8/1
f 117/5/2 115/6/2 97/7/2 99/8/2
f 100/5/1 98/6/1 116/7/1 118/8/1
f 119/5/2 117/6/2 99/7/2 101/8/2
f 102/5/1 100/6/1 118/7/1 120/8/1
f 121/5/2 119/6/2 101/7/2 103/8/2
f 104/5/1 102/6/1 120/7/1 122/8/1
f 123/9/2 121/10/2 103/11/2 105/12/2
f 106/9/1 104/10/1 122/11/1 124/12/1
f 108/1/5 107/2/5 125/3/5 126/4/5
f 126/1/2 123/2/2 105/3/2 108/4/2
f 107/1/1 106/2/1 124/3/1 125/4/1
f 110/5/6 109/6/6 127/7/6 128/8/6
f 129/5/2 127/6/2 109/7/2 111/8/2
f 112/5/1 110/6/1 128/7/1 130/8/1
f 131/5/2 129/6/2 111/7/2 113/8/2
f 114/5/1 112/6/1 130/7/1 132/8/1
f 133/1/2 131/2/2 113/3/2 115/4/2
f 116/1/1 114/2/1 132/3/1 134/4/1
f 135/9/2 133/10/2 115/11/2 117/12/2
f 118/9/1 116/10/1 134/11/1 136/12/1
f 137/9/2 135/10/2 117/11/2 119/12/2
f 120/9/1 118/10/1 136/11/1 138/12/1
f 139/5/2 137/6/2 119/7/2 121/8/2
f 122/5/1 120/6/1 138/7/1 140/8/1
f 141/1/2 139/2/2 121/3/2 123/4/2
f 124/1/1 122/2/1 140/3/1 142/4/1
f 126/9/5 125/10/5 143/11/5 144/12/5
f 144/9/2 141/10/2 123/11/2 126/12/2
f 125/9/1 124/10/1 142/11/1 143/12/1
f 145/5/4 146/6/4 147/7/4 148/8/4
f 128/5/6 127/6/6 147/7/6 146/8/6
f 148/5/2 147/6/2 127/7/2 129/8/2
f 130/5/1 128/6/1 146/7/1 145/8/1
f 149/5/4 145/6/4 148/7/4 150/8/4
f 150/5/2 148/6/2 129/7/2 131/8/2
f 132/5/1 130/6/1 145/7/1 149/8/1
f 151/9/4 149/10/4 150/11/4 152/12/4
f 152/9/2 150/10/2 131/11/2 133/12/2
f 134/9/1 132/10/1 149/11/1 151/12/1
f 153/1/4 151/2/4 152/3/4 154/4/4
f 154/1/2 152/2/2 133/3/2 135/4/2
f 136/1/1 134/2/1 151/3/1 153/4/1
f 155/5/4 153/6/4 154/7/4 156/8/4
f 156/5/2 154/6/2 135/7/2 137/8/2
f 138/5/1 136/6/1 153/7/1 155/8/1
f 157/1/4 155/2/4 156/3/4 158/4/4
f 158/1/2 156/2/2 137/3/2 139/4/2
f 140/1/1 138/2/1 155/3/1 157/4/1
f 159/5/4 157/6/4 158/7/4 160/8/4
f 160/5/2 158/6/2 139/7/2 141/8/2
f 142/5/1 140/6/1 157/7/1 159/8/1
f 161/1/4 159/2/4 160/3/4 162/4/4
f 144/1/5 143/2/5 161/3/5 162/4/5
f 162/1/2 160/2/2 141/3/2 144/4/2
f 143/1/1 142/2/1 159/3/1 161/4/1
