# This file was created with Minddesk Qubicle 3.0
# Get Qubicle at www.getqubicle.com

mtllib 101_Piece14_20_0.mtl

vn 0.0 0.0 1.0
vn 0.0 0.0 -1.0
vn -1.0 0.0 0.0
vn 1.0 0.0 0.0
vn 0.0 1.0 0.0
vn 0.0 -1.0 0.0

v 48.00000 161.00000 0.00000
v 48.00000 160.00000 0.00000
v 48.00000 160.00000 1.00000
v 48.00000 161.00000 1.00000
v 49.00000 160.00000 0.00000
v 49.00000 160.00000 1.00000
v 49.00000 161.00000 0.00000
v 49.00000 161.00000 1.00000
v 48.00000 162.00000 0.00000
v 48.00000 162.00000 1.00000
v 49.00000 162.00000 0.00000
v 49.00000 162.00000 1.00000
v 48.00000 163.00000 0.00000
v 48.00000 163.00000 1.00000
v 49.00000 163.00000 0.00000
v 49.00000 163.00000 1.00000
v 48.00000 164.00000 0.00000
v 48.00000 164.00000 1.00000
v 49.00000 164.00000 0.00000
v 49.00000 164.00000 1.00000
v 48.00000 165.00000 0.00000
v 48.00000 165.00000 1.00000
v 49.00000 165.00000 0.00000
v 49.00000 165.00000 1.00000
v 48.00000 166.00000 0.00000
v 48.00000 166.00000 1.00000
v 49.00000 166.00000 0.00000
v 49.00000 166.00000 1.00000
v 48.00000 167.00000 0.00000
v 48.00000 167.00000 1.00000
v 49.00000 167.00000 0.00000
v 49.00000 167.00000 1.00000
v 48.00000 168.00000 0.00000
v 48.00000 168.00000 1.00000
v 49.00000 168.00000 1.00000
v 49.00000 168.00000 0.00000
v 50.00000 160.00000 0.00000
v 50.00000 160.00000 1.00000
v 50.00000 161.00000 0.00000
v 50.00000 161.00000 1.00000
v 50.00000 162.00000 0.00000
v 50.00000 162.00000 1.00000
v 50.00000 163.00000 0.00000
v 50.00000 163.00000 1.00000
v 50.00000 164.00000 0.00000
v 50.00000 164.00000 1.00000
v 50.00000 165.00000 0.00000
v 50.00000 165.00000 1.00000
v 50.00000 166.00000 0.00000
v 50.00000 166.00000 1.00000
v 50.00000 167.00000 0.00000
v 50.00000 167.00000 1.00000
v 50.00000 168.00000 1.00000
v 50.00000 168.00000 0.00000
v 51.00000 160.00000 0.00000
v 51.00000 160.00000 1.00000
v 51.00000 161.00000 0.00000
v 51.00000 161.00000 1.00000
v 51.00000 162.00000 0.00000
v 51.00000 162.00000 1.00000
v 51.00000 163.00000 0.00000
v 51.00000 163.00000 1.00000
v 51.00000 164.00000 0.00000
v 51.00000 164.00000 1.00000
v 51.00000 165.00000 0.00000
v 51.00000 165.00000 1.00000
v 51.00000 166.00000 0.00000
v 51.00000 166.00000 1.00000
v 51.00000 167.00000 0.00000
v 51.00000 167.00000 1.00000
v 51.00000 168.00000 1.00000
v 51.00000 168.00000 0.00000
v 52.00000 160.00000 0.00000
v 52.00000 160.00000 1.00000
v 52.00000 161.00000 0.00000
v 52.00000 161.00000 1.00000
v 52.00000 162.00000 0.00000
v 52.00000 162.00000 1.00000
v 52.00000 163.00000 0.00000
v 52.00000 163.00000 1.00000
v 52.00000 164.00000 0.00000
v 52.00000 164.00000 1.00000
v 52.00000 165.00000 0.00000
v 52.00000 165.00000 1.00000
v 52.00000 166.00000 0.00000
v 52.00000 166.00000 1.00000
v 52.00000 167.00000 0.00000
v 52.00000 167.00000 1.00000
v 52.00000 168.00000 1.00000
v 52.00000 168.00000 0.00000
v 53.00000 160.00000 0.00000
v 53.00000 160.00000 1.00000
v 53.00000 161.00000 0.00000
v 53.00000 161.00000 1.00000
v 53.00000 162.00000 0.00000
v 53.00000 162.00000 1.00000
v 53.00000 163.00000 0.00000
v 53.00000 163.00000 1.00000
v 53.00000 164.00000 0.00000
v 53.00000 164.00000 1.00000
v 53.00000 165.00000 0.00000
v 53.00000 165.00000 1.00000
v 53.00000 166.00000 0.00000
v 53.00000 166.00000 1.00000
v 53.00000 167.00000 0.00000
v 53.00000 167.00000 1.00000
v 53.00000 168.00000 1.00000
v 53.00000 168.00000 0.00000
v 54.00000 160.00000 0.00000
v 54.00000 160.00000 1.00000
v 54.00000 161.00000 0.00000
v 54.00000 161.00000 1.00000
v 54.00000 162.00000 0.00000
v 54.00000 162.00000 1.00000
v 54.00000 163.00000 0.00000
v 54.00000 163.00000 1.00000
v 54.00000 164.00000 0.00000
v 54.00000 164.00000 1.00000
v 54.00000 165.00000 0.00000
v 54.00000 165.00000 1.00000
v 54.00000 166.00000 0.00000
v 54.00000 166.00000 1.00000
v 54.00000 167.00000 0.00000
v 54.00000 167.00000 1.00000
v 54.00000 168.00000 1.00000
v 54.00000 168.00000 0.00000
v 55.00000 160.00000 0.00000
v 55.00000 160.00000 1.00000
v 55.00000 161.00000 0.00000
v 55.00000 161.00000 1.00000
v 55.00000 162.00000 0.00000
v 55.00000 162.00000 1.00000
v 55.00000 163.00000 0.00000
v 55.00000 163.00000 1.00000
v 55.00000 164.00000 0.00000
v 55.00000 164.00000 1.00000
v 55.00000 165.00000 0.00000
v 55.00000 165.00000 1.00000
v 55.00000 166.00000 0.00000
v 55.00000 166.00000 1.00000
v 55.00000 167.00000 0.00000
v 55.00000 167.00000 1.00000
v 55.00000 168.00000 1.00000
v 55.00000 168.00000 0.00000
v 56.00000 161.00000 1.00000
v 56.00000 160.00000 1.00000
v 56.00000 160.00000 0.00000
v 56.00000 161.00000 0.00000
v 56.00000 162.00000 1.00000
v 56.00000 162.00000 0.00000
v 56.00000 163.00000 1.00000
v 56.00000 163.00000 0.00000
v 56.00000 164.00000 1.00000
v 56.00000 164.00000 0.00000
v 56.00000 165.00000 1.00000
v 56.00000 165.00000 0.00000
v 56.00000 166.00000 1.00000
v 56.00000 166.00000 0.00000
v 56.00000 167.00000 1.00000
v 56.00000 167.00000 0.00000
v 56.00000 168.00000 1.00000
v 56.00000 168.00000 0.00000

vt 0.32031 0.48438
vt 0.32031 0.47656
vt 0.32422 0.47656
vt 0.32422 0.48438
vt 0.33203 0.48438
vt 0.33203 0.47656
vt 0.33594 0.47656
vt 0.33594 0.48438
vt 0.34375 0.48438
vt 0.34375 0.47656
vt 0.34766 0.47656
vt 0.34766 0.48438
vt 0.35547 0.48438
vt 0.35547 0.47656
vt 0.35938 0.47656
vt 0.35938 0.48438
vt 0.36719 0.48438
vt 0.36719 0.47656
vt 0.37109 0.47656
vt 0.37109 0.48438
vt 0.37891 0.48438
vt 0.37891 0.47656
vt 0.38281 0.47656
vt 0.38281 0.48438
vt 0.39063 0.48438
vt 0.39063 0.47656
vt 0.39453 0.47656
vt 0.39453 0.48438
vt 0.20313 0.36719
vt 0.20313 0.35938
vt 0.20703 0.35938
vt 0.20703 0.36719
vt 0.13281 0.29688
vt 0.13281 0.28906
vt 0.13672 0.28906
vt 0.13672 0.29688

g 101_Piece14_20_0
usemtl 101_Material
f 1/1/3 2/2/3 3/3/3 4/4/3
f 3/1/6 2/2/6 5/3/6 6/4/6
f 7/1/2 5/2/2 2/3/2 1/4/2
f 4/1/1 3/2/1 6/3/1 8/4/1
f 9/5/3 1/6/3 4/7/3 10/8/3
f 11/5/2 7/6/2 1/7/2 9/8/2
f 10/5/1 4/6/1 8/7/1 12/8/1
f 13/9/3 9/10/3 10/11/3 14/12/3
f 15/9/2 11/10/2 9/11/2 13/12/2
f 14/9/1 10/10/1 12/11/1 16/12/1
f 17/13/3 13/14/3 14/15/3 18/16/3
f 19/13/2 15/14/2 13/15/2 17/16/2
f 18/13/1 14/14/1 16/15/1 20/16/1
f 21/13/3 17/14/3 18/15/3 22/16/3
f 23/13/2 19/14/2 17/15/2 21/16/2
f 22/13/1 18/14/1 20/15/1 24/16/1
f 25/13/3 21/14/3 22/15/3 26/16/3
f 27/13/2 23/14/2 21/15/2 25/16/2
f 26/13/1 22/14/1 24/15/1 28/16/1
f 29/13/3 25/14/3 26/15/3 30/16/3
f 31/13/2 27/14/2 25/15/2 29/16/2
f 30/13/1 26/14/1 28/15/1 32/16/1
f 33/13/3 29/14/3 30/15/3 34/16/3
f 33/13/5 34/14/5 35/15/5 36/16/5
f 36/13/2 31/14/2 29/15/2 33/16/2
f 34/13/1 30/14/1 32/15/1 35/16/1
f 6/1/6 5/2/6 37/3/6 38/4/6
f 39/1/2 37/2/2 5/3/2 7/4/2
f 8/1/1 6/2/1 38/3/1 40/4/1
f 41/5/2 39/6/2 7/7/2 11/8/2
f 12/5/1 8/6/1 40/7/1 42/8/1
f 43/17/2 41/18/2 11/19/2 15/20/2
f 16/17/1 12/18/1 42/19/1 44/20/1
f 45/13/2 43/14/2 15/15/2 19/16/2
f 20/13/1 16/14/1 44/15/1 46/16/1
f 47/13/2 45/14/2 19/15/2 23/16/2
f 24/13/1 20/14/1 46/15/1 48/16/1
f 49/13/2 47/14/2 23/15/2 27/16/2
f 28/13/1 24/14/1 48/15/1 50/16/1
f 51/13/2 49/14/2 27/15/2 31/16/2
f 32/13/1 28/14/1 50/15/1 52/16/1
f 36/13/5 35/14/5 53/15/5 54/16/5
f 54/13/2 51/14/2 31/15/2 36/16/2
f 35/13/1 32/14/1 52/15/1 53/16/1
f 38/1/6 37/2/6 55/3/6 56/4/6
f 57/1/2 55/2/2 37/3/2 39/4/2
f 40/1/1 38/2/1 56/3/1 58/4/1
f 59/5/2 57/6/2 39/7/2 41/8/2
f 42/5/1 40/6/1 58/7/1 60/8/1
f 61/9/2 59/10/2 41/11/2 43/12/2
f 44/9/1 42/10/1 60/11/1 62/12/1
f 63/9/2 61/10/2 43/11/2 45/12/2
f 46/9/1 44/10/1 62/11/1 64/12/1
f 65/13/2 63/14/2 45/15/2 47/16/2
f 48/13/1 46/14/1 64/15/1 66/16/1
f 67/13/2 65/14/2 47/15/2 49/16/2
f 50/13/1 48/14/1 66/15/1 68/16/1
f 69/21/2 67/22/2 49/23/2 51/24/2
f 52/21/1 50/22/1 68/23/1 70/24/1
f 54/13/5 53/14/5 71/15/5 72/16/5
f 72/13/2 69/14/2 51/15/2 54/16/2
f 53/13/1 52/14/1 70/15/1 71/16/1
f 56/1/6 55/2/6 73/3/6 74/4/6
f 75/1/2 73/2/2 55/3/2 57/4/2
f 58/1/1 56/2/1 74/3/1 76/4/1
f 77/5/2 75/6/2 57/7/2 59/8/2
f 60/5/1 58/6/1 76/7/1 78/8/1
f 79/9/2 77/10/2 59/11/2 61/12/2
f 62/9/1 60/10/1 78/11/1 80/12/1
f 81/9/2 79/10/2 61/11/2 63/12/2
f 64/9/1 62/10/1 80/11/1 82/12/1
f 83/13/2 81/14/2 63/15/2 65/16/2
f 66/13/1 64/14/1 82/15/1 84/16/1
f 85/13/2 83/14/2 65/15/2 67/16/2
f 68/13/1 66/14/1 84/15/1 86/16/1
f 87/13/2 85/14/2 67/15/2 69/16/2
f 70/13/1 68/14/1 86/15/1 88/16/1
f 72/13/5 71/14/5 89/15/5 90/16/5
f 90/13/2 87/14/2 69/15/2 72/16/2
f 71/13/1 70/14/1 88/15/1 89/16/1
f 74/1/6 73/2/6 91/3/6 92/4/6
f 93/1/2 91/2/2 73/3/2 75/4/2
f 76/1/1 74/2/1 92/3/1 94/4/1
f 95/5/2 93/6/2 75/7/2 77/8/2
f 78/5/1 76/6/1 94/7/1 96/8/1
f 97/25/2 95/26/2 77/27/2 79/28/2
f 80/25/1 78/26/1 96/27/1 98/28/1
f 99/9/2 97/10/2 79/11/2 81/12/2
f 82/9/1 80/10/1 98/11/1 100/12/1
f 101/9/2 99/10/2 81/11/2 83/12/2
f 84/9/1 82/10/1 100/11/1 102/12/1
f 103/9/2 101/10/2 83/11/2 85/12/2
f 86/9/1 84/10/1 102/11/1 104/12/1
f 105/13/2 103/14/2 85/15/2 87/16/2
f 88/13/1 86/14/1 104/15/1 106/16/1
f 90/13/5 89/14/5 107/15/5 108/16/5
f 108/13/2 105/14/2 87/15/2 90/16/2
f 89/13/1 88/14/1 106/15/1 107/16/1
f 92/1/6 91/2/6 109/3/6 110/4/6
f 111/1/2 109/2/2 91/3/2 93/4/2
f 94/1/1 92/2/1 110/3/1 112/4/1
f 113/29/2 111/30/2 93/31/2 95/32/2
f 96/29/1 94/30/1 112/31/1 114/32/1
f 115/5/2 113/6/2 95/7/2 97/8/2
f 98/5/1 96/6/1 114/7/1 116/8/1
f 117/25/2 115/26/2 97/27/2 99/28/2
f 100/25/1 98/26/1 116/27/1 118/28/1
f 119/9/2 117/10/2 99/11/2 101/12/2
f 102/9/1 100/10/1 118/11/1 120/12/1
f 121/9/2 119/10/2 101/11/2 103/12/2
f 104/9/1 102/10/1 120/11/1 122/12/1
f 123/9/2 121/10/2 103/11/2 105/12/2
f 106/9/1 104/10/1 122/11/1 124/12/1
f 108/9/5 107/10/5 125/11/5 126/12/5
f 126/9/2 123/10/2 105/11/2 108/12/2
f 107/9/1 106/10/1 124/11/1 125/12/1
f 110/33/6 109/34/6 127/35/6 128/36/6
f 129/33/2 127/34/2 109/35/2 111/36/2
f 112/33/1 110/34/1 128/35/1 130/36/1
f 131/1/2 129/2/2 111/3/2 113/4/2
f 114/1/1 112/2/1 130/3/1 132/4/1
f 133/5/2 131/6/2 113/7/2 115/8/2
f 116/5/1 114/6/1 132/7/1 134/8/1
f 135/5/2 133/6/2 115/7/2 117/8/2
f 118/5/1 116/6/1 134/7/1 136/8/1
f 137/5/2 135/6/2 117/7/2 119/8/2
f 120/5/1 118/6/1 136/7/1 138/8/1
f 139/5/2 137/6/2 119/7/2 121/8/2
f 122/5/1 120/6/1 138/7/1 140/8/1
f 141/5/2 139/6/2 121/7/2 123/8/2
f 124/5/1 122/6/1 140/7/1 142/8/1
f 126/29/5 125/30/5 143/31/5 144/32/5
f 144/29/2 141/30/2 123/31/2 126/32/2
f 125/29/1 124/30/1 142/31/1 143/32/1
f 145/33/4 146/34/4 147/35/4 148/36/4
f 128/33/6 127/34/6 147/35/6 146/36/6
f 148/33/2 147/34/2 127/35/2 129/36/2
f 130/33/1 128/34/1 146/35/1 145/36/1
f 149/33/4 145/34/4 148/35/4 150/36/4
f 150/33/2 148/34/2 129/35/2 131/36/2
f 132/33/1 130/34/1 145/35/1 149/36/1
f 151/1/4 149/2/4 150/3/4 152/4/4
f 152/1/2 150/2/2 131/3/2 133/4/2
f 134/1/1 132/2/1 149/3/1 151/4/1
f 153/1/4 151/2/4 152/3/4 154/4/4
f 154/1/2 152/2/2 133/3/2 135/4/2
f 136/1/1 134/2/1 151/3/1 153/4/1
f 155/1/4 153/2/4 154/3/4 156/4/4
f 156/1/2 154/2/2 135/3/2 137/4/2
f 138/1/1 136/2/1 153/3/1 155/4/1
f 157/1/4 155/2/4 156/3/4 158/4/4
f 158/1/2 156/2/2 137/3/2 139/4/2
f 140/1/1 138/2/1 155/3/1 157/4/1
f 159/1/4 157/2/4 158/3/4 160/4/4
f 160/1/2 158/2/2 139/3/2 141/4/2
f 142/1/1 140/2/1 157/3/1 159/4/1
f 161/1/4 159/2/4 160/3/4 162/4/4
f 144/1/5 143/2/5 161/3/5 162/4/5
f 162/1/2 160/2/2 141/3/2 144/4/2
f 143/1/1 142/2/1 159/3/1 161/4/1
