# This file was created with Minddesk Qubicle 3.0
# Get Qubicle at www.getqubicle.com

mtllib 101_Piece6_6_0.mtl

vn 0.0 0.0 1.0
vn 0.0 0.0 -1.0
vn -1.0 0.0 0.0
vn 1.0 0.0 0.0
vn 0.0 1.0 0.0
vn 0.0 -1.0 0.0

v -16.00000 49.00000 0.00000
v -16.00000 48.00000 0.00000
v -16.00000 48.00000 1.00000
v -16.00000 49.00000 1.00000
v -15.00000 48.00000 0.00000
v -15.00000 48.00000 1.00000
v -15.00000 49.00000 0.00000
v -15.00000 49.00000 1.00000
v -16.00000 50.00000 0.00000
v -16.00000 50.00000 1.00000
v -15.00000 50.00000 0.00000
v -15.00000 50.00000 1.00000
v -16.00000 51.00000 0.00000
v -16.00000 51.00000 1.00000
v -15.00000 51.00000 0.00000
v -15.00000 51.00000 1.00000
v -16.00000 52.00000 0.00000
v -16.00000 52.00000 1.00000
v -15.00000 52.00000 0.00000
v -15.00000 52.00000 1.00000
v -16.00000 53.00000 0.00000
v -16.00000 53.00000 1.00000
v -15.00000 53.00000 0.00000
v -15.00000 53.00000 1.00000
v -16.00000 54.00000 0.00000
v -16.00000 54.00000 1.00000
v -15.00000 54.00000 0.00000
v -15.00000 54.00000 1.00000
v -16.00000 55.00000 0.00000
v -16.00000 55.00000 1.00000
v -15.00000 55.00000 0.00000
v -15.00000 55.00000 1.00000
v -16.00000 56.00000 0.00000
v -16.00000 56.00000 1.00000
v -15.00000 56.00000 1.00000
v -15.00000 56.00000 0.00000
v -14.00000 48.00000 0.00000
v -14.00000 48.00000 1.00000
v -14.00000 49.00000 0.00000
v -14.00000 49.00000 1.00000
v -14.00000 50.00000 0.00000
v -14.00000 50.00000 1.00000
v -14.00000 51.00000 0.00000
v -14.00000 51.00000 1.00000
v -14.00000 52.00000 0.00000
v -14.00000 52.00000 1.00000
v -14.00000 53.00000 0.00000
v -14.00000 53.00000 1.00000
v -14.00000 54.00000 0.00000
v -14.00000 54.00000 1.00000
v -14.00000 55.00000 0.00000
v -14.00000 55.00000 1.00000
v -14.00000 56.00000 1.00000
v -14.00000 56.00000 0.00000
v -13.00000 48.00000 0.00000
v -13.00000 48.00000 1.00000
v -13.00000 49.00000 0.00000
v -13.00000 49.00000 1.00000
v -13.00000 50.00000 0.00000
v -13.00000 50.00000 1.00000
v -13.00000 51.00000 0.00000
v -13.00000 51.00000 1.00000
v -13.00000 52.00000 0.00000
v -13.00000 52.00000 1.00000
v -13.00000 53.00000 0.00000
v -13.00000 53.00000 1.00000
v -13.00000 54.00000 0.00000
v -13.00000 54.00000 1.00000
v -13.00000 55.00000 0.00000
v -13.00000 55.00000 1.00000
v -13.00000 56.00000 1.00000
v -13.00000 56.00000 0.00000
v -12.00000 48.00000 0.00000
v -12.00000 48.00000 1.00000
v -12.00000 49.00000 0.00000
v -12.00000 49.00000 1.00000
v -12.00000 50.00000 0.00000
v -12.00000 50.00000 1.00000
v -12.00000 51.00000 0.00000
v -12.00000 51.00000 1.00000
v -12.00000 52.00000 0.00000
v -12.00000 52.00000 1.00000
v -12.00000 53.00000 0.00000
v -12.00000 53.00000 1.00000
v -12.00000 54.00000 0.00000
v -12.00000 54.00000 1.00000
v -12.00000 55.00000 0.00000
v -12.00000 55.00000 1.00000
v -12.00000 56.00000 1.00000
v -12.00000 56.00000 0.00000
v -11.00000 48.00000 0.00000
v -11.00000 48.00000 1.00000
v -11.00000 49.00000 0.00000
v -11.00000 49.00000 1.00000
v -11.00000 50.00000 0.00000
v -11.00000 50.00000 1.00000
v -11.00000 51.00000 0.00000
v -11.00000 51.00000 1.00000
v -11.00000 52.00000 0.00000
v -11.00000 52.00000 1.00000
v -11.00000 53.00000 0.00000
v -11.00000 53.00000 1.00000
v -11.00000 54.00000 0.00000
v -11.00000 54.00000 1.00000
v -11.00000 55.00000 0.00000
v -11.00000 55.00000 1.00000
v -11.00000 56.00000 1.00000
v -11.00000 56.00000 0.00000
v -10.00000 48.00000 0.00000
v -10.00000 48.00000 1.00000
v -10.00000 49.00000 0.00000
v -10.00000 49.00000 1.00000
v -10.00000 50.00000 0.00000
v -10.00000 50.00000 1.00000
v -10.00000 51.00000 0.00000
v -10.00000 51.00000 1.00000
v -10.00000 52.00000 0.00000
v -10.00000 52.00000 1.00000
v -10.00000 53.00000 0.00000
v -10.00000 53.00000 1.00000
v -10.00000 54.00000 0.00000
v -10.00000 54.00000 1.00000
v -10.00000 55.00000 0.00000
v -10.00000 55.00000 1.00000
v -10.00000 56.00000 1.00000
v -10.00000 56.00000 0.00000
v -9.00000 48.00000 0.00000
v -9.00000 48.00000 1.00000
v -9.00000 49.00000 0.00000
v -9.00000 49.00000 1.00000
v -9.00000 50.00000 0.00000
v -9.00000 50.00000 1.00000
v -9.00000 51.00000 0.00000
v -9.00000 51.00000 1.00000
v -9.00000 52.00000 0.00000
v -9.00000 52.00000 1.00000
v -9.00000 53.00000 0.00000
v -9.00000 53.00000 1.00000
v -9.00000 54.00000 0.00000
v -9.00000 54.00000 1.00000
v -9.00000 55.00000 0.00000
v -9.00000 55.00000 1.00000
v -9.00000 56.00000 1.00000
v -9.00000 56.00000 0.00000
v -8.00000 49.00000 1.00000
v -8.00000 48.00000 1.00000
v -8.00000 48.00000 0.00000
v -8.00000 49.00000 0.00000
v -8.00000 50.00000 1.00000
v -8.00000 50.00000 0.00000
v -8.00000 51.00000 1.00000
v -8.00000 51.00000 0.00000
v -8.00000 52.00000 1.00000
v -8.00000 52.00000 0.00000
v -8.00000 53.00000 1.00000
v -8.00000 53.00000 0.00000
v -8.00000 54.00000 1.00000
v -8.00000 54.00000 0.00000
v -8.00000 55.00000 1.00000
v -8.00000 55.00000 0.00000
v -8.00000 56.00000 1.00000
v -8.00000 56.00000 0.00000

vt 0.29688 0.27344
vt 0.29688 0.26563
vt 0.30078 0.26563
vt 0.30078 0.27344
vt 0.30859 0.27344
vt 0.30859 0.26563
vt 0.31250 0.26563
vt 0.31250 0.27344
vt 0.32031 0.27344
vt 0.32031 0.26563
vt 0.32422 0.26563
vt 0.32422 0.27344
vt 0.33203 0.27344
vt 0.33203 0.26563
vt 0.33594 0.26563
vt 0.33594 0.27344
vt 0.34375 0.27344
vt 0.34375 0.26563
vt 0.34766 0.26563
vt 0.34766 0.27344
vt 0.35547 0.27344
vt 0.35547 0.26563
vt 0.35938 0.26563
vt 0.35938 0.27344
vt 0.36719 0.27344
vt 0.36719 0.26563
vt 0.37109 0.26563
vt 0.37109 0.27344
vt 0.37891 0.27344
vt 0.37891 0.26563
vt 0.38281 0.26563
vt 0.38281 0.27344

g 101_Piece6_6_0
usemtl 101_Material
f 1/1/3 2/2/3 3/3/3 4/4/3
f 3/1/6 2/2/6 5/3/6 6/4/6
f 7/1/2 5/2/2 2/3/2 1/4/2
f 4/1/1 3/2/1 6/3/1 8/4/1
f 9/5/3 1/6/3 4/7/3 10/8/3
f 11/5/2 7/6/2 1/7/2 9/8/2
f 10/5/1 4/6/1 8/7/1 12/8/1
f 13/9/3 9/10/3 10/11/3 14/12/3
f 15/9/2 11/10/2 9/11/2 13/12/2
f 14/9/1 10/10/1 12/11/1 16/12/1
f 17/1/3 13/2/3 14/3/3 18/4/3
f 19/1/2 15/2/2 13/3/2 17/4/2
f 18/1/1 14/2/1 16/3/1 20/4/1
f 21/5/3 17/6/3 18/7/3 22/8/3
f 23/5/2 19/6/2 17/7/2 21/8/2
f 22/5/1 18/6/1 20/7/1 24/8/1
f 25/9/3 21/10/3 22/11/3 26/12/3
f 27/9/2 23/10/2 21/11/2 25/12/2
f 26/9/1 22/10/1 24/11/1 28/12/1
f 29/1/3 25/2/3 26/3/3 30/4/3
f 31/1/2 27/2/2 25/3/2 29/4/2
f 30/1/1 26/2/1 28/3/1 32/4/1
f 33/13/3 29/14/3 30/15/3 34/16/3
f 33/13/5 34/14/5 35/15/5 36/16/5
f 36/13/2 31/14/2 29/15/2 33/16/2
f 34/13/1 30/14/1 32/15/1 35/16/1
f 6/1/6 5/2/6 37/3/6 38/4/6
f 39/1/2 37/2/2 5/3/2 7/4/2
f 8/1/1 6/2/1 38/3/1 40/4/1
f 41/5/2 39/6/2 7/7/2 11/8/2
f 12/5/1 8/6/1 40/7/1 42/8/1
f 43/17/2 41/18/2 11/19/2 15/20/2
f 16/17/1 12/18/1 42/19/1 44/20/1
f 45/17/2 43/18/2 15/19/2 19/20/2
f 20/17/1 16/18/1 44/19/1 46/20/1
f 47/5/2 45/6/2 19/7/2 23/8/2
f 24/5/1 20/6/1 46/7/1 48/8/1
f 49/9/2 47/10/2 23/11/2 27/12/2
f 28/9/1 24/10/1 48/11/1 50/12/1
f 51/1/2 49/2/2 27/3/2 31/4/2
f 32/1/1 28/2/1 50/3/1 52/4/1
f 36/13/5 35/14/5 53/15/5 54/16/5
f 54/13/2 51/14/2 31/15/2 36/16/2
f 35/13/1 32/14/1 52/15/1 53/16/1
f 38/1/6 37/2/6 55/3/6 56/4/6
f 57/1/2 55/2/2 37/3/2 39/4/2
f 40/1/1 38/2/1 56/3/1 58/4/1
f 59/5/2 57/6/2 39/7/2 41/8/2
f 42/5/1 40/6/1 58/7/1 60/8/1
f 61/21/2 59/22/2 41/23/2 43/24/2
f 44/21/1 42/22/1 60/23/1 62/24/1
f 63/17/2 61/18/2 43/19/2 45/20/2
f 46/17/1 44/18/1 62/19/1 64/20/1
f 65/5/2 63/6/2 45/7/2 47/8/2
f 48/5/1 46/6/1 64/7/1 66/8/1
f 67/9/2 65/10/2 47/11/2 49/12/2
f 50/9/1 48/10/1 66/11/1 68/12/1
f 69/1/2 67/2/2 49/3/2 51/4/2
f 52/1/1 50/2/1 68/3/1 70/4/1
f 54/13/5 53/14/5 71/15/5 72/16/5
f 72/13/2 69/14/2 51/15/2 54/16/2
f 53/13/1 52/14/1 70/15/1 71/16/1
f 56/1/6 55/2/6 73/3/6 74/4/6
f 75/1/2 73/2/2 55/3/2 57/4/2
f 58/1/1 56/2/1 74/3/1 76/4/1
f 77/5/2 75/6/2 57/7/2 59/8/2
f 60/5/1 58/6/1 76/7/1 78/8/1
f 79/21/2 77/22/2 59/23/2 61/24/2
f 62/21/1 60/22/1 78/23/1 80/24/1
f 81/17/2 79/18/2 61/19/2 63/20/2
f 64/17/1 62/18/1 80/19/1 82/20/1
f 83/5/2 81/6/2 63/7/2 65/8/2
f 66/5/1 64/6/1 82/7/1 84/8/1
f 85/25/2 83/26/2 65/27/2 67/28/2
f 68/25/1 66/26/1 84/27/1 86/28/1
f 87/1/2 85/2/2 67/3/2 69/4/2
f 70/1/1 68/2/1 86/3/1 88/4/1
f 72/13/5 71/14/5 89/15/5 90/16/5
f 90/13/2 87/14/2 69/15/2 72/16/2
f 71/13/1 70/14/1 88/15/1 89/16/1
f 74/25/6 73/26/6 91/27/6 92/28/6
f 93/25/2 91/26/2 73/27/2 75/28/2
f 76/25/1 74/26/1 92/27/1 94/28/1
f 95/5/2 93/6/2 75/7/2 77/8/2
f 78/5/1 76/6/1 94/7/1 96/8/1
f 97/1/2 95/2/2 77/3/2 79/4/2
f 80/1/1 78/2/1 96/3/1 98/4/1
f 99/1/2 97/2/2 79/3/2 81/4/2
f 82/1/1 80/2/1 98/3/1 100/4/1
f 101/5/2 99/6/2 81/7/2 83/8/2
f 84/5/1 82/6/1 100/7/1 102/8/1
f 103/29/2 101/30/2 83/31/2 85/32/2
f 86/29/1 84/30/1 102/31/1 104/32/1
f 105/1/2 103/2/2 85/3/2 87/4/2
f 88/1/1 86/2/1 104/3/1 106/4/1
f 90/13/5 89/14/5 107/15/5 108/16/5
f 108/13/2 105/14/2 87/15/2 90/16/2
f 89/13/1 88/14/1 106/15/1 107/16/1
f 92/29/6 91/30/6 109/31/6 110/32/6
f 111/29/2 109/30/2 91/31/2 93/32/2
f 94/29/1 92/30/1 110/31/1 112/32/1
f 113/5/2 111/6/2 93/7/2 95/8/2
f 96/5/1 94/6/1 112/7/1 114/8/1
f 115/9/2 113/10/2 95/11/2 97/12/2
f 98/9/1 96/10/1 114/11/1 116/12/1
f 117/1/2 115/2/2 97/3/2 99/4/2
f 100/1/1 98/2/1 116/3/1 118/4/1
f 119/5/2 117/6/2 99/7/2 101/8/2
f 102/5/1 100/6/1 118/7/1 120/8/1
f 121/1/2 119/2/2 101/3/2 103/4/2
f 104/1/1 102/2/1 120/3/1 122/4/1
f 123/1/2 121/2/2 103/3/2 105/4/2
f 106/1/1 104/2/1 122/3/1 124/4/1
f 108/13/5 107/14/5 125/15/5 126/16/5
f 126/13/2 123/14/2 105/15/2 108/16/2
f 107/13/1 106/14/1 124/15/1 125/16/1
f 110/1/6 109/2/6 127/3/6 128/4/6
f 129/1/2 127/2/2 109/3/2 111/4/2
f 112/1/1 110/2/1 128/3/1 130/4/1
f 131/5/2 129/6/2 111/7/2 113/8/2
f 114/5/1 112/6/1 130/7/1 132/8/1
f 133/9/2 131/10/2 113/11/2 115/12/2
f 116/9/1 114/10/1 132/11/1 134/12/1
f 135/1/2 133/2/2 115/3/2 117/4/2
f 118/1/1 116/2/1 134/3/1 136/4/1
f 137/5/2 135/6/2 117/7/2 119/8/2
f 120/5/1 118/6/1 136/7/1 138/8/1
f 139/9/2 137/10/2 119/11/2 121/12/2
f 122/9/1 120/10/1 138/11/1 140/12/1
f 141/1/2 139/2/2 121/3/2 123/4/2
f 124/1/1 122/2/1 140/3/1 142/4/1
f 126/13/5 125/14/5 143/15/5 144/16/5
f 144/13/2 141/14/2 123/15/2 126/16/2
f 125/13/1 124/14/1 142/15/1 143/16/1
f 145/1/4 146/2/4 147/3/4 148/4/4
f 128/1/6 127/2/6 147/3/6 146/4/6
f 148/1/2 147/2/2 127/3/2 129/4/2
f 130/1/1 128/2/1 146/3/1 145/4/1
f 149/5/4 145/6/4 148/7/4 150/8/4
f 150/5/2 148/6/2 129/7/2 131/8/2
f 132/5/1 130/6/1 145/7/1 149/8/1
f 151/9/4 149/10/4 150/11/4 152/12/4
f 152/9/2 150/10/2 131/11/2 133/12/2
f 134/9/1 132/10/1 149/11/1 151/12/1
f 153/1/4 151/2/4 152/3/4 154/4/4
f 154/1/2 152/2/2 133/3/2 135/4/2
f 136/1/1 134/2/1 151/3/1 153/4/1
f 155/5/4 153/6/4 154/7/4 156/8/4
f 156/5/2 154/6/2 135/7/2 137/8/2
f 138/5/1 136/6/1 153/7/1 155/8/1
f 157/9/4 155/10/4 156/11/4 158/12/4
f 158/9/2 156/10/2 137/11/2 139/12/2
f 140/9/1 138/10/1 155/11/1 157/12/1
f 159/1/4 157/2/4 158/3/4 160/4/4
f 160/1/2 158/2/2 139/3/2 141/4/2
f 142/1/1 140/2/1 157/3/1 159/4/1
f 161/13/4 159/14/4 160/15/4 162/16/4
f 144/13/5 143/14/5 161/15/5 162/16/5
f 162/13/2 160/14/2 141/15/2 144/16/2
f 143/13/1 142/14/1 159/15/1 161/16/1
