# This file was created with Minddesk Qubicle 3.0
# Get Qubicle at www.getqubicle.com

mtllib 101_Piece11_19_0.mtl

vn 0.0 0.0 1.0
vn 0.0 0.0 -1.0
vn -1.0 0.0 0.0
vn 1.0 0.0 0.0
vn 0.0 1.0 0.0
vn 0.0 -1.0 0.0

v 24.00000 153.00000 0.00000
v 24.00000 152.00000 0.00000
v 24.00000 152.00000 1.00000
v 24.00000 153.00000 1.00000
v 25.00000 152.00000 0.00000
v 25.00000 152.00000 1.00000
v 25.00000 153.00000 0.00000
v 25.00000 153.00000 1.00000
v 24.00000 154.00000 0.00000
v 24.00000 154.00000 1.00000
v 25.00000 154.00000 0.00000
v 25.00000 154.00000 1.00000
v 24.00000 155.00000 0.00000
v 24.00000 155.00000 1.00000
v 25.00000 155.00000 0.00000
v 25.00000 155.00000 1.00000
v 24.00000 156.00000 0.00000
v 24.00000 156.00000 1.00000
v 25.00000 156.00000 0.00000
v 25.00000 156.00000 1.00000
v 24.00000 157.00000 0.00000
v 24.00000 157.00000 1.00000
v 25.00000 157.00000 0.00000
v 25.00000 157.00000 1.00000
v 24.00000 158.00000 0.00000
v 24.00000 158.00000 1.00000
v 25.00000 158.00000 0.00000
v 25.00000 158.00000 1.00000
v 24.00000 159.00000 0.00000
v 24.00000 159.00000 1.00000
v 25.00000 159.00000 0.00000
v 25.00000 159.00000 1.00000
v 24.00000 160.00000 0.00000
v 24.00000 160.00000 1.00000
v 25.00000 160.00000 1.00000
v 25.00000 160.00000 0.00000
v 26.00000 152.00000 0.00000
v 26.00000 152.00000 1.00000
v 26.00000 153.00000 0.00000
v 26.00000 153.00000 1.00000
v 26.00000 154.00000 0.00000
v 26.00000 154.00000 1.00000
v 26.00000 155.00000 0.00000
v 26.00000 155.00000 1.00000
v 26.00000 156.00000 0.00000
v 26.00000 156.00000 1.00000
v 26.00000 157.00000 0.00000
v 26.00000 157.00000 1.00000
v 26.00000 158.00000 0.00000
v 26.00000 158.00000 1.00000
v 26.00000 159.00000 0.00000
v 26.00000 159.00000 1.00000
v 26.00000 160.00000 1.00000
v 26.00000 160.00000 0.00000
v 27.00000 152.00000 0.00000
v 27.00000 152.00000 1.00000
v 27.00000 153.00000 0.00000
v 27.00000 153.00000 1.00000
v 27.00000 154.00000 0.00000
v 27.00000 154.00000 1.00000
v 27.00000 155.00000 0.00000
v 27.00000 155.00000 1.00000
v 27.00000 156.00000 0.00000
v 27.00000 156.00000 1.00000
v 27.00000 157.00000 0.00000
v 27.00000 157.00000 1.00000
v 27.00000 158.00000 0.00000
v 27.00000 158.00000 1.00000
v 27.00000 159.00000 0.00000
v 27.00000 159.00000 1.00000
v 27.00000 160.00000 1.00000
v 27.00000 160.00000 0.00000
v 28.00000 152.00000 0.00000
v 28.00000 152.00000 1.00000
v 28.00000 153.00000 0.00000
v 28.00000 153.00000 1.00000
v 28.00000 154.00000 0.00000
v 28.00000 154.00000 1.00000
v 28.00000 155.00000 0.00000
v 28.00000 155.00000 1.00000
v 28.00000 156.00000 0.00000
v 28.00000 156.00000 1.00000
v 28.00000 157.00000 0.00000
v 28.00000 157.00000 1.00000
v 28.00000 158.00000 0.00000
v 28.00000 158.00000 1.00000
v 28.00000 159.00000 0.00000
v 28.00000 159.00000 1.00000
v 28.00000 160.00000 1.00000
v 28.00000 160.00000 0.00000
v 29.00000 152.00000 0.00000
v 29.00000 152.00000 1.00000
v 29.00000 153.00000 0.00000
v 29.00000 153.00000 1.00000
v 29.00000 154.00000 0.00000
v 29.00000 154.00000 1.00000
v 29.00000 155.00000 0.00000
v 29.00000 155.00000 1.00000
v 29.00000 156.00000 0.00000
v 29.00000 156.00000 1.00000
v 29.00000 157.00000 0.00000
v 29.00000 157.00000 1.00000
v 29.00000 158.00000 0.00000
v 29.00000 158.00000 1.00000
v 29.00000 159.00000 0.00000
v 29.00000 159.00000 1.00000
v 29.00000 160.00000 1.00000
v 29.00000 160.00000 0.00000
v 30.00000 152.00000 0.00000
v 30.00000 152.00000 1.00000
v 30.00000 153.00000 0.00000
v 30.00000 153.00000 1.00000
v 30.00000 154.00000 0.00000
v 30.00000 154.00000 1.00000
v 30.00000 155.00000 0.00000
v 30.00000 155.00000 1.00000
v 30.00000 156.00000 0.00000
v 30.00000 156.00000 1.00000
v 30.00000 157.00000 0.00000
v 30.00000 157.00000 1.00000
v 30.00000 158.00000 0.00000
v 30.00000 158.00000 1.00000
v 30.00000 159.00000 0.00000
v 30.00000 159.00000 1.00000
v 30.00000 160.00000 1.00000
v 30.00000 160.00000 0.00000
v 31.00000 152.00000 0.00000
v 31.00000 152.00000 1.00000
v 31.00000 153.00000 0.00000
v 31.00000 153.00000 1.00000
v 31.00000 154.00000 0.00000
v 31.00000 154.00000 1.00000
v 31.00000 155.00000 0.00000
v 31.00000 155.00000 1.00000
v 31.00000 156.00000 0.00000
v 31.00000 156.00000 1.00000
v 31.00000 157.00000 0.00000
v 31.00000 157.00000 1.00000
v 31.00000 158.00000 0.00000
v 31.00000 158.00000 1.00000
v 31.00000 159.00000 0.00000
v 31.00000 159.00000 1.00000
v 31.00000 160.00000 1.00000
v 31.00000 160.00000 0.00000
v 32.00000 153.00000 1.00000
v 32.00000 152.00000 1.00000
v 32.00000 152.00000 0.00000
v 32.00000 153.00000 0.00000
v 32.00000 154.00000 1.00000
v 32.00000 154.00000 0.00000
v 32.00000 155.00000 1.00000
v 32.00000 155.00000 0.00000
v 32.00000 156.00000 1.00000
v 32.00000 156.00000 0.00000
v 32.00000 157.00000 1.00000
v 32.00000 157.00000 0.00000
v 32.00000 158.00000 1.00000
v 32.00000 158.00000 0.00000
v 32.00000 159.00000 1.00000
v 32.00000 159.00000 0.00000
v 32.00000 160.00000 1.00000
v 32.00000 160.00000 0.00000

vt 0.22656 0.41406
vt 0.22656 0.40625
vt 0.23047 0.40625
vt 0.23047 0.41406
vt 0.23828 0.41406
vt 0.23828 0.40625
vt 0.24219 0.40625
vt 0.24219 0.41406
vt 0.25000 0.41406
vt 0.25000 0.40625
vt 0.25391 0.40625
vt 0.25391 0.41406
vt 0.26172 0.41406
vt 0.26172 0.40625
vt 0.26563 0.40625
vt 0.26563 0.41406

g 101_Piece11_19_0
usemtl 101_Material
f 1/1/3 2/2/3 3/3/3 4/4/3
f 3/1/6 2/2/6 5/3/6 6/4/6
f 7/1/2 5/2/2 2/3/2 1/4/2
f 4/1/1 3/2/1 6/3/1 8/4/1
f 9/5/3 1/6/3 4/7/3 10/8/3
f 11/5/2 7/6/2 1/7/2 9/8/2
f 10/5/1 4/6/1 8/7/1 12/8/1
f 13/9/3 9/10/3 10/11/3 14/12/3
f 15/9/2 11/10/2 9/11/2 13/12/2
f 14/9/1 10/10/1 12/11/1 16/12/1
f 17/13/3 13/14/3 14/15/3 18/16/3
f 19/13/2 15/14/2 13/15/2 17/16/2
f 18/13/1 14/14/1 16/15/1 20/16/1
f 21/1/3 17/2/3 18/3/3 22/4/3
f 23/1/2 19/2/2 17/3/2 21/4/2
f 22/1/1 18/2/1 20/3/1 24/4/1
f 25/5/3 21/6/3 22/7/3 26/8/3
f 27/5/2 23/6/2 21/7/2 25/8/2
f 26/5/1 22/6/1 24/7/1 28/8/1
f 29/9/3 25/10/3 26/11/3 30/12/3
f 31/9/2 27/10/2 25/11/2 29/12/2
f 30/9/1 26/10/1 28/11/1 32/12/1
f 33/5/3 29/6/3 30/7/3 34/8/3
f 33/5/5 34/6/5 35/7/5 36/8/5
f 36/5/2 31/6/2 29/7/2 33/8/2
f 34/5/1 30/6/1 32/7/1 35/8/1
f 6/13/6 5/14/6 37/15/6 38/16/6
f 39/13/2 37/14/2 5/15/2 7/16/2
f 8/13/1 6/14/1 38/15/1 40/16/1
f 41/1/2 39/2/2 7/3/2 11/4/2
f 12/1/1 8/2/1 40/3/1 42/4/1
f 43/9/2 41/10/2 11/11/2 15/12/2
f 16/9/1 12/10/1 42/11/1 44/12/1
f 45/1/2 43/2/2 15/3/2 19/4/2
f 20/1/1 16/2/1 44/3/1 46/4/1
f 47/5/2 45/6/2 19/7/2 23/8/2
f 24/5/1 20/6/1 46/7/1 48/8/1
f 49/9/2 47/10/2 23/11/2 27/12/2
f 28/9/1 24/10/1 48/11/1 50/12/1
f 51/9/2 49/10/2 27/11/2 31/12/2
f 32/9/1 28/10/1 50/11/1 52/12/1
f 36/9/5 35/10/5 53/11/5 54/12/5
f 54/9/2 51/10/2 31/11/2 36/12/2
f 35/9/1 32/10/1 52/11/1 53/12/1
f 38/9/6 37/10/6 55/11/6 56/12/6
f 57/9/2 55/10/2 37/11/2 39/12/2
f 40/9/1 38/10/1 56/11/1 58/12/1
f 59/13/2 57/14/2 39/15/2 41/16/2
f 42/13/1 40/14/1 58/15/1 60/16/1
f 61/1/2 59/2/2 41/3/2 43/4/2
f 44/1/1 42/2/1 60/3/1 62/4/1
f 63/5/2 61/6/2 43/7/2 45/8/2
f 46/5/1 44/6/1 62/7/1 64/8/1
f 65/5/2 63/6/2 45/7/2 47/8/2
f 48/5/1 46/6/1 64/7/1 66/8/1
f 67/9/2 65/10/2 47/11/2 49/12/2
f 50/9/1 48/10/1 66/11/1 68/12/1
f 69/5/2 67/6/2 49/7/2 51/8/2
f 52/5/1 50/6/1 68/7/1 70/8/1
f 54/9/5 53/10/5 71/11/5 72/12/5
f 72/9/2 69/10/2 51/11/2 54/12/2
f 53/9/1 52/10/1 70/11/1 71/12/1
f 56/5/6 55/6/6 73/7/6 74/8/6
f 75/5/2 73/6/2 55/7/2 57/8/2
f 58/5/1 56/6/1 74/7/1 76/8/1
f 77/9/2 75/10/2 57/11/2 59/12/2
f 60/9/1 58/10/1 76/11/1 78/12/1
f 79/13/2 77/14/2 59/15/2 61/16/2
f 62/13/1 60/14/1 78/15/1 80/16/1
f 81/1/2 79/2/2 61/3/2 63/4/2
f 64/1/1 62/2/1 80/3/1 82/4/1
f 83/5/2 81/6/2 63/7/2 65/8/2
f 66/5/1 64/6/1 82/7/1 84/8/1
f 85/9/2 83/10/2 65/11/2 67/12/2
f 68/9/1 66/10/1 84/11/1 86/12/1
f 87/9/2 85/10/2 67/11/2 69/12/2
f 70/9/1 68/10/1 86/11/1 88/12/1
f 72/5/5 71/6/5 89/7/5 90/8/5
f 90/5/2 87/6/2 69/7/2 72/8/2
f 71/5/1 70/6/1 88/7/1 89/8/1
f 74/9/6 73/10/6 91/11/6 92/12/6
f 93/9/2 91/10/2 73/11/2 75/12/2
f 76/9/1 74/10/1 92/11/1 94/12/1
f 95/9/2 93/10/2 75/11/2 77/12/2
f 78/9/1 76/10/1 94/11/1 96/12/1
f 97/9/2 95/10/2 77/11/2 79/12/2
f 80/9/1 78/10/1 96/11/1 98/12/1
f 99/13/2 97/14/2 79/15/2 81/16/2
f 82/13/1 80/14/1 98/15/1 100/16/1
f 101/1/2 99/2/2 81/3/2 83/4/2
f 84/1/1 82/2/1 100/3/1 102/4/1
f 103/5/2 101/6/2 83/7/2 85/8/2
f 86/5/1 84/6/1 102/7/1 104/8/1
f 105/9/2 103/10/2 85/11/2 87/12/2
f 88/9/1 86/10/1 104/11/1 106/12/1
f 90/9/5 89/10/5 107/11/5 108/12/5
f 108/9/2 105/10/2 87/11/2 90/12/2
f 89/9/1 88/10/1 106/11/1 107/12/1
f 92/9/6 91/10/6 109/11/6 110/12/6
f 111/9/2 109/10/2 91/11/2 93/12/2
f 94/9/1 92/10/1 110/11/1 112/12/1
f 113/5/2 111/6/2 93/7/2 95/8/2
f 96/5/1 94/6/1 112/7/1 114/8/1
f 115/9/2 113/10/2 95/11/2 97/12/2
f 98/9/1 96/10/1 114/11/1 116/12/1
f 117/9/2 115/10/2 97/11/2 99/12/2
f 100/9/1 98/10/1 116/11/1 118/12/1
f 119/13/2 117/14/2 99/15/2 101/16/2
f 102/13/1 100/14/1 118/15/1 120/16/1
f 121/1/2 119/2/2 101/3/2 103/4/2
f 104/1/1 102/2/1 120/3/1 122/4/1
f 123/5/2 121/6/2 103/7/2 105/8/2
f 106/5/1 104/6/1 122/7/1 124/8/1
f 108/5/5 107/6/5 125/7/5 126/8/5
f 126/5/2 123/6/2 105/7/2 108/8/2
f 107/5/1 106/6/1 124/7/1 125/8/1
f 110/9/6 109/10/6 127/11/6 128/12/6
f 129/9/2 127/10/2 109/11/2 111/12/2
f 112/9/1 110/10/1 128/11/1 130/12/1
f 131/9/2 129/10/2 111/11/2 113/12/2
f 114/9/1 112/10/1 130/11/1 132/12/1
f 133/5/2 131/6/2 113/7/2 115/8/2
f 116/5/1 114/6/1 132/7/1 134/8/1
f 135/9/2 133/10/2 115/11/2 117/12/2
f 118/9/1 116/10/1 134/11/1 136/12/1
f 137/13/2 135/14/2 117/15/2 119/16/2
f 120/13/1 118/14/1 136/15/1 138/16/1
f 139/13/2 137/14/2 119/15/2 121/16/2
f 122/13/1 120/14/1 138/15/1 140/16/1
f 141/1/2 139/2/2 121/3/2 123/4/2
f 124/1/1 122/2/1 140/3/1 142/4/1
f 126/5/5 125/6/5 143/7/5 144/8/5
f 144/5/2 141/6/2 123/7/2 126/8/2
f 125/5/1 124/6/1 142/7/1 143/8/1
f 145/5/4 146/6/4 147/7/4 148/8/4
f 128/5/6 127/6/6 147/7/6 146/8/6
f 148/5/2 147/6/2 127/7/2 129/8/2
f 130/5/1 128/6/1 146/7/1 145/8/1
f 149/9/4 145/10/4 148/11/4 150/12/4
f 150/9/2 148/10/2 129/11/2 131/12/2
f 132/9/1 130/10/1 145/11/1 149/12/1
f 151/9/4 149/10/4 150/11/4 152/12/4
f 152/9/2 150/10/2 131/11/2 133/12/2
f 134/9/1 132/10/1 149/11/1 151/12/1
f 153/9/4 151/10/4 152/11/4 154/12/4
f 154/9/2 152/10/2 133/11/2 135/12/2
f 136/9/1 134/10/1 151/11/1 153/12/1
f 155/13/4 153/14/4 154/15/4 156/16/4
f 156/13/2 154/14/2 135/15/2 137/16/2
f 138/13/1 136/14/1 153/15/1 155/16/1
f 157/1/4 155/2/4 156/3/4 158/4/4
f 158/1/2 156/2/2 137/3/2 139/4/2
f 140/1/1 138/2/1 155/3/1 157/4/1
f 159/9/4 157/10/4 158/11/4 160/12/4
f 160/9/2 158/10/2 139/11/2 141/12/2
f 142/9/1 140/10/1 157/11/1 159/12/1
f 161/1/4 159/2/4 160/3/4 162/4/4
f 144/1/5 143/2/5 161/3/5 162/4/5
f 162/1/2 160/2/2 141/3/2 144/4/2
f 143/1/1 142/2/1 159/3/1 161/4/1
