# This file was created with Minddesk Qubicle 3.0
# Get Qubicle at www.getqubicle.com

mtllib 101_Piece11_9_0.mtl

vn 0.0 0.0 1.0
vn 0.0 0.0 -1.0
vn -1.0 0.0 0.0
vn 1.0 0.0 0.0
vn 0.0 1.0 0.0
vn 0.0 -1.0 0.0

v 24.00000 73.00000 0.00000
v 24.00000 72.00000 0.00000
v 24.00000 72.00000 1.00000
v 24.00000 73.00000 1.00000
v 25.00000 72.00000 0.00000
v 25.00000 72.00000 1.00000
v 25.00000 73.00000 0.00000
v 25.00000 73.00000 1.00000
v 24.00000 74.00000 0.00000
v 24.00000 74.00000 1.00000
v 25.00000 74.00000 0.00000
v 25.00000 74.00000 1.00000
v 24.00000 75.00000 0.00000
v 24.00000 75.00000 1.00000
v 25.00000 75.00000 0.00000
v 25.00000 75.00000 1.00000
v 24.00000 76.00000 0.00000
v 24.00000 76.00000 1.00000
v 25.00000 76.00000 0.00000
v 25.00000 76.00000 1.00000
v 24.00000 77.00000 0.00000
v 24.00000 77.00000 1.00000
v 25.00000 77.00000 0.00000
v 25.00000 77.00000 1.00000
v 24.00000 78.00000 0.00000
v 24.00000 78.00000 1.00000
v 25.00000 78.00000 0.00000
v 25.00000 78.00000 1.00000
v 24.00000 79.00000 0.00000
v 24.00000 79.00000 1.00000
v 25.00000 79.00000 0.00000
v 25.00000 79.00000 1.00000
v 24.00000 80.00000 0.00000
v 24.00000 80.00000 1.00000
v 25.00000 80.00000 1.00000
v 25.00000 80.00000 0.00000
v 26.00000 72.00000 0.00000
v 26.00000 72.00000 1.00000
v 26.00000 73.00000 0.00000
v 26.00000 73.00000 1.00000
v 26.00000 74.00000 0.00000
v 26.00000 74.00000 1.00000
v 26.00000 75.00000 0.00000
v 26.00000 75.00000 1.00000
v 26.00000 76.00000 0.00000
v 26.00000 76.00000 1.00000
v 26.00000 77.00000 0.00000
v 26.00000 77.00000 1.00000
v 26.00000 78.00000 0.00000
v 26.00000 78.00000 1.00000
v 26.00000 79.00000 0.00000
v 26.00000 79.00000 1.00000
v 26.00000 80.00000 1.00000
v 26.00000 80.00000 0.00000
v 27.00000 72.00000 0.00000
v 27.00000 72.00000 1.00000
v 27.00000 73.00000 0.00000
v 27.00000 73.00000 1.00000
v 27.00000 74.00000 0.00000
v 27.00000 74.00000 1.00000
v 27.00000 75.00000 0.00000
v 27.00000 75.00000 1.00000
v 27.00000 76.00000 0.00000
v 27.00000 76.00000 1.00000
v 27.00000 77.00000 0.00000
v 27.00000 77.00000 1.00000
v 27.00000 78.00000 0.00000
v 27.00000 78.00000 1.00000
v 27.00000 79.00000 0.00000
v 27.00000 79.00000 1.00000
v 27.00000 80.00000 1.00000
v 27.00000 80.00000 0.00000
v 28.00000 72.00000 0.00000
v 28.00000 72.00000 1.00000
v 28.00000 73.00000 0.00000
v 28.00000 73.00000 1.00000
v 28.00000 74.00000 0.00000
v 28.00000 74.00000 1.00000
v 28.00000 75.00000 0.00000
v 28.00000 75.00000 1.00000
v 28.00000 76.00000 0.00000
v 28.00000 76.00000 1.00000
v 28.00000 77.00000 0.00000
v 28.00000 77.00000 1.00000
v 28.00000 78.00000 0.00000
v 28.00000 78.00000 1.00000
v 28.00000 79.00000 0.00000
v 28.00000 79.00000 1.00000
v 28.00000 80.00000 1.00000
v 28.00000 80.00000 0.00000
v 29.00000 72.00000 0.00000
v 29.00000 72.00000 1.00000
v 29.00000 73.00000 0.00000
v 29.00000 73.00000 1.00000
v 29.00000 74.00000 0.00000
v 29.00000 74.00000 1.00000
v 29.00000 75.00000 0.00000
v 29.00000 75.00000 1.00000
v 29.00000 76.00000 0.00000
v 29.00000 76.00000 1.00000
v 29.00000 77.00000 0.00000
v 29.00000 77.00000 1.00000
v 29.00000 78.00000 0.00000
v 29.00000 78.00000 1.00000
v 29.00000 79.00000 0.00000
v 29.00000 79.00000 1.00000
v 29.00000 80.00000 1.00000
v 29.00000 80.00000 0.00000
v 30.00000 72.00000 0.00000
v 30.00000 72.00000 1.00000
v 30.00000 73.00000 0.00000
v 30.00000 73.00000 1.00000
v 30.00000 74.00000 0.00000
v 30.00000 74.00000 1.00000
v 30.00000 75.00000 0.00000
v 30.00000 75.00000 1.00000
v 30.00000 76.00000 0.00000
v 30.00000 76.00000 1.00000
v 30.00000 77.00000 0.00000
v 30.00000 77.00000 1.00000
v 30.00000 78.00000 0.00000
v 30.00000 78.00000 1.00000
v 30.00000 79.00000 0.00000
v 30.00000 79.00000 1.00000
v 30.00000 80.00000 1.00000
v 30.00000 80.00000 0.00000
v 31.00000 72.00000 0.00000
v 31.00000 72.00000 1.00000
v 31.00000 73.00000 0.00000
v 31.00000 73.00000 1.00000
v 31.00000 74.00000 0.00000
v 31.00000 74.00000 1.00000
v 31.00000 75.00000 0.00000
v 31.00000 75.00000 1.00000
v 31.00000 76.00000 0.00000
v 31.00000 76.00000 1.00000
v 31.00000 77.00000 0.00000
v 31.00000 77.00000 1.00000
v 31.00000 78.00000 0.00000
v 31.00000 78.00000 1.00000
v 31.00000 79.00000 0.00000
v 31.00000 79.00000 1.00000
v 31.00000 80.00000 1.00000
v 31.00000 80.00000 0.00000
v 32.00000 73.00000 1.00000
v 32.00000 72.00000 1.00000
v 32.00000 72.00000 0.00000
v 32.00000 73.00000 0.00000
v 32.00000 74.00000 1.00000
v 32.00000 74.00000 0.00000
v 32.00000 75.00000 1.00000
v 32.00000 75.00000 0.00000
v 32.00000 76.00000 1.00000
v 32.00000 76.00000 0.00000
v 32.00000 77.00000 1.00000
v 32.00000 77.00000 0.00000
v 32.00000 78.00000 1.00000
v 32.00000 78.00000 0.00000
v 32.00000 79.00000 1.00000
v 32.00000 79.00000 0.00000
v 32.00000 80.00000 1.00000
v 32.00000 80.00000 0.00000

vt 0.16797 0.22656
vt 0.16797 0.21875
vt 0.17188 0.21875
vt 0.17188 0.22656
vt 0.17969 0.22656
vt 0.17969 0.21875
vt 0.18359 0.21875
vt 0.18359 0.22656
vt 0.47266 0.08594
vt 0.47266 0.07813
vt 0.47656 0.07813
vt 0.47656 0.08594
vt 0.19141 0.22656
vt 0.19141 0.21875
vt 0.19531 0.21875
vt 0.19531 0.22656
vt 0.20313 0.22656
vt 0.20313 0.21875
vt 0.20703 0.21875
vt 0.20703 0.22656
vt 0.21484 0.22656
vt 0.21484 0.21875
vt 0.21875 0.21875
vt 0.21875 0.22656
vt 0.47266 0.39063
vt 0.47266 0.38281
vt 0.47656 0.38281
vt 0.47656 0.39063
vt 0.49609 0.08594
vt 0.49609 0.07813
vt 0.50000 0.07813
vt 0.50000 0.08594

g 101_Piece11_9_0
usemtl 101_Material
f 1/1/3 2/2/3 3/3/3 4/4/3
f 3/1/6 2/2/6 5/3/6 6/4/6
f 7/1/2 5/2/2 2/3/2 1/4/2
f 4/1/1 3/2/1 6/3/1 8/4/1
f 9/1/3 1/2/3 4/3/3 10/4/3
f 11/1/2 7/2/2 1/3/2 9/4/2
f 10/1/1 4/2/1 8/3/1 12/4/1
f 13/5/3 9/6/3 10/7/3 14/8/3
f 15/5/2 11/6/2 9/7/2 13/8/2
f 14/5/1 10/6/1 12/7/1 16/8/1
f 17/5/3 13/6/3 14/7/3 18/8/3
f 19/5/2 15/6/2 13/7/2 17/8/2
f 18/5/1 14/6/1 16/7/1 20/8/1
f 21/9/3 17/10/3 18/11/3 22/12/3
f 23/9/2 19/10/2 17/11/2 21/12/2
f 22/9/1 18/10/1 20/11/1 24/12/1
f 25/5/3 21/6/3 22/7/3 26/8/3
f 27/5/2 23/6/2 21/7/2 25/8/2
f 26/5/1 22/6/1 24/7/1 28/8/1
f 29/5/3 25/6/3 26/7/3 30/8/3
f 31/5/2 27/6/2 25/7/2 29/8/2
f 30/5/1 26/6/1 28/7/1 32/8/1
f 33/1/3 29/2/3 30/3/3 34/4/3
f 33/1/5 34/2/5 35/3/5 36/4/5
f 36/1/2 31/2/2 29/3/2 33/4/2
f 34/1/1 30/2/1 32/3/1 35/4/1
f 6/13/6 5/14/6 37/15/6 38/16/6
f 39/13/2 37/14/2 5/15/2 7/16/2
f 8/13/1 6/14/1 38/15/1 40/16/1
f 41/13/2 39/14/2 7/15/2 11/16/2
f 12/13/1 8/14/1 40/15/1 42/16/1
f 43/9/2 41/10/2 11/11/2 15/12/2
f 16/9/1 12/10/1 42/11/1 44/12/1
f 45/17/2 43/18/2 15/19/2 19/20/2
f 20/17/1 16/18/1 44/19/1 46/20/1
f 47/21/2 45/22/2 19/23/2 23/24/2
f 24/21/1 20/22/1 46/23/1 48/24/1
f 49/9/2 47/10/2 23/11/2 27/12/2
f 28/9/1 24/10/1 48/11/1 50/12/1
f 51/9/2 49/10/2 27/11/2 31/12/2
f 32/9/1 28/10/1 50/11/1 52/12/1
f 36/5/5 35/6/5 53/7/5 54/8/5
f 54/5/2 51/6/2 31/7/2 36/8/2
f 35/5/1 32/6/1 52/7/1 53/8/1
f 38/13/6 37/14/6 55/15/6 56/16/6
f 57/13/2 55/14/2 37/15/2 39/16/2
f 40/13/1 38/14/1 56/15/1 58/16/1
f 59/13/2 57/14/2 39/15/2 41/16/2
f 42/13/1 40/14/1 58/15/1 60/16/1
f 61/9/2 59/10/2 41/11/2 43/12/2
f 44/9/1 42/10/1 60/11/1 62/12/1
f 63/25/2 61/26/2 43/27/2 45/28/2
f 46/25/1 44/26/1 62/27/1 64/28/1
f 65/21/2 63/22/2 45/23/2 47/24/2
f 48/21/1 46/22/1 64/23/1 66/24/1
f 67/29/2 65/30/2 47/31/2 49/32/2
f 50/29/1 48/30/1 66/31/1 68/32/1
f 69/9/2 67/10/2 49/11/2 51/12/2
f 52/9/1 50/10/1 68/11/1 70/12/1
f 54/5/5 53/6/5 71/7/5 72/8/5
f 72/5/2 69/6/2 51/7/2 54/8/2
f 53/5/1 52/6/1 70/7/1 71/8/1
f 56/13/6 55/14/6 73/15/6 74/16/6
f 75/13/2 73/14/2 55/15/2 57/16/2
f 58/13/1 56/14/1 74/15/1 76/16/1
f 77/13/2 75/14/2 57/15/2 59/16/2
f 60/13/1 58/14/1 76/15/1 78/16/1
f 79/25/2 77/26/2 59/27/2 61/28/2
f 62/25/1 60/26/1 78/27/1 80/28/1
f 81/9/2 79/10/2 61/11/2 63/12/2
f 64/9/1 62/10/1 80/11/1 82/12/1
f 83/29/2 81/30/2 63/31/2 65/32/2
f 66/29/1 64/30/1 82/31/1 84/32/1
f 85/17/2 83/18/2 65/19/2 67/20/2
f 68/17/1 66/18/1 84/19/1 86/20/1
f 87/29/2 85/30/2 67/31/2 69/32/2
f 70/29/1 68/30/1 86/31/1 88/32/1
f 72/5/5 71/6/5 89/7/5 90/8/5
f 90/5/2 87/6/2 69/7/2 72/8/2
f 71/5/1 70/6/1 88/7/1 89/8/1
f 74/13/6 73/14/6 91/15/6 92/16/6
f 93/13/2 91/14/2 73/15/2 75/16/2
f 76/13/1 74/14/1 92/15/1 94/16/1
f 95/13/2 93/14/2 75/15/2 77/16/2
f 78/13/1 76/14/1 94/15/1 96/16/1
f 97/25/2 95/26/2 77/27/2 79/28/2
f 80/25/1 78/26/1 96/27/1 98/28/1
f 99/9/2 97/10/2 79/11/2 81/12/2
f 82/9/1 80/10/1 98/11/1 100/12/1
f 101/25/2 99/26/2 81/27/2 83/28/2
f 84/25/1 82/26/1 100/27/1 102/28/1
f 103/17/2 101/18/2 83/19/2 85/20/2
f 86/17/1 84/18/1 102/19/1 104/20/1
f 105/29/2 103/30/2 85/31/2 87/32/2
f 88/29/1 86/30/1 104/31/1 106/32/1
f 90/5/5 89/6/5 107/7/5 108/8/5
f 108/5/2 105/6/2 87/7/2 90/8/2
f 89/5/1 88/6/1 106/7/1 107/8/1
f 92/13/6 91/14/6 109/15/6 110/16/6
f 111/13/2 109/14/2 91/15/2 93/16/2
f 94/13/1 92/14/1 110/15/1 112/16/1
f 113/13/2 111/14/2 93/15/2 95/16/2
f 96/13/1 94/14/1 112/15/1 114/16/1
f 115/9/2 113/10/2 95/11/2 97/12/2
f 98/9/1 96/10/1 114/11/1 116/12/1
f 117/25/2 115/26/2 97/27/2 99/28/2
f 100/25/1 98/26/1 116/27/1 118/28/1
f 119/17/2 117/18/2 99/19/2 101/20/2
f 102/17/1 100/18/1 118/19/1 120/20/1
f 121/29/2 119/30/2 101/31/2 103/32/2
f 104/29/1 102/30/1 120/31/1 122/32/1
f 123/9/2 121/10/2 103/11/2 105/12/2
f 106/9/1 104/10/1 122/11/1 124/12/1
f 108/5/5 107/6/5 125/7/5 126/8/5
f 126/5/2 123/6/2 105/7/2 108/8/2
f 107/5/1 106/6/1 124/7/1 125/8/1
f 110/13/6 109/14/6 127/15/6 128/16/6
f 129/13/2 127/14/2 109/15/2 111/16/2
f 112/13/1 110/14/1 128/15/1 130/16/1
f 131/13/2 129/14/2 111/15/2 113/16/2
f 114/13/1 112/14/1 130/15/1 132/16/1
f 133/9/2 131/10/2 113/11/2 115/12/2
f 116/9/1 114/10/1 132/11/1 134/12/1
f 135/17/2 133/18/2 115/19/2 117/20/2
f 118/17/1 116/18/1 134/19/1 136/20/1
f 137/21/2 135/22/2 117/23/2 119/24/2
f 120/21/1 118/22/1 136/23/1 138/24/1
f 139/9/2 137/10/2 119/11/2 121/12/2
f 122/9/1 120/10/1 138/11/1 140/12/1
f 141/9/2 139/10/2 121/11/2 123/12/2
f 124/9/1 122/10/1 140/11/1 142/12/1
f 126/5/5 125/6/5 143/7/5 144/8/5
f 144/5/2 141/6/2 123/7/2 126/8/2
f 125/5/1 124/6/1 142/7/1 143/8/1
f 145/1/4 146/2/4 147/3/4 148/4/4
f 128/1/6 127/2/6 147/3/6 146/4/6
f 148/1/2 147/2/2 127/3/2 129/4/2
f 130/1/1 128/2/1 146/3/1 145/4/1
f 149/1/4 145/2/4 148/3/4 150/4/4
f 150/1/2 148/2/2 129/3/2 131/4/2
f 132/1/1 130/2/1 145/3/1 149/4/1
f 151/5/4 149/6/4 150/7/4 152/8/4
f 152/5/2 150/6/2 131/7/2 133/8/2
f 134/5/1 132/6/1 149/7/1 151/8/1
f 153/5/4 151/6/4 152/7/4 154/8/4
f 154/5/2 152/6/2 133/7/2 135/8/2
f 136/5/1 134/6/1 151/7/1 153/8/1
f 155/9/4 153/10/4 154/11/4 156/12/4
f 156/9/2 154/10/2 135/11/2 137/12/2
f 138/9/1 136/10/1 153/11/1 155/12/1
f 157/5/4 155/6/4 156/7/4 158/8/4
f 158/5/2 156/6/2 137/7/2 139/8/2
f 140/5/1 138/6/1 155/7/1 157/8/1
f 159/5/4 157/6/4 158/7/4 160/8/4
f 160/5/2 158/6/2 139/7/2 141/8/2
f 142/5/1 140/6/1 157/7/1 159/8/1
f 161/1/4 159/2/4 160/3/4 162/4/4
f 144/1/5 143/2/5 161/3/5 162/4/5
f 162/1/2 160/2/2 141/3/2 144/4/2
f 143/1/1 142/2/1 159/3/1 161/4/1
