# This file was created with Minddesk Qubicle 3.0
# Get Qubicle at www.getqubicle.com

mtllib 101_Piece5_11_0.mtl

vn 0.0 0.0 1.0
vn 0.0 0.0 -1.0
vn -1.0 0.0 0.0
vn 1.0 0.0 0.0
vn 0.0 1.0 0.0
vn 0.0 -1.0 0.0

v -24.00000 89.00000 0.00000
v -24.00000 88.00000 0.00000
v -24.00000 88.00000 1.00000
v -24.00000 89.00000 1.00000
v -23.00000 88.00000 0.00000
v -23.00000 88.00000 1.00000
v -23.00000 89.00000 0.00000
v -23.00000 89.00000 1.00000
v -24.00000 90.00000 0.00000
v -24.00000 90.00000 1.00000
v -23.00000 90.00000 0.00000
v -23.00000 90.00000 1.00000
v -24.00000 91.00000 0.00000
v -24.00000 91.00000 1.00000
v -23.00000 91.00000 0.00000
v -23.00000 91.00000 1.00000
v -24.00000 92.00000 0.00000
v -24.00000 92.00000 1.00000
v -23.00000 92.00000 0.00000
v -23.00000 92.00000 1.00000
v -24.00000 93.00000 0.00000
v -24.00000 93.00000 1.00000
v -23.00000 93.00000 0.00000
v -23.00000 93.00000 1.00000
v -24.00000 94.00000 0.00000
v -24.00000 94.00000 1.00000
v -23.00000 94.00000 0.00000
v -23.00000 94.00000 1.00000
v -24.00000 95.00000 0.00000
v -24.00000 95.00000 1.00000
v -23.00000 95.00000 0.00000
v -23.00000 95.00000 1.00000
v -24.00000 96.00000 0.00000
v -24.00000 96.00000 1.00000
v -23.00000 96.00000 1.00000
v -23.00000 96.00000 0.00000
v -22.00000 88.00000 0.00000
v -22.00000 88.00000 1.00000
v -22.00000 89.00000 0.00000
v -22.00000 89.00000 1.00000
v -22.00000 90.00000 0.00000
v -22.00000 90.00000 1.00000
v -22.00000 91.00000 0.00000
v -22.00000 91.00000 1.00000
v -22.00000 92.00000 0.00000
v -22.00000 92.00000 1.00000
v -22.00000 93.00000 0.00000
v -22.00000 93.00000 1.00000
v -22.00000 94.00000 0.00000
v -22.00000 94.00000 1.00000
v -22.00000 95.00000 0.00000
v -22.00000 95.00000 1.00000
v -22.00000 96.00000 1.00000
v -22.00000 96.00000 0.00000
v -21.00000 88.00000 0.00000
v -21.00000 88.00000 1.00000
v -21.00000 89.00000 0.00000
v -21.00000 89.00000 1.00000
v -21.00000 90.00000 0.00000
v -21.00000 90.00000 1.00000
v -21.00000 91.00000 0.00000
v -21.00000 91.00000 1.00000
v -21.00000 92.00000 0.00000
v -21.00000 92.00000 1.00000
v -21.00000 93.00000 0.00000
v -21.00000 93.00000 1.00000
v -21.00000 94.00000 0.00000
v -21.00000 94.00000 1.00000
v -21.00000 95.00000 0.00000
v -21.00000 95.00000 1.00000
v -21.00000 96.00000 1.00000
v -21.00000 96.00000 0.00000
v -20.00000 88.00000 0.00000
v -20.00000 88.00000 1.00000
v -20.00000 89.00000 0.00000
v -20.00000 89.00000 1.00000
v -20.00000 90.00000 0.00000
v -20.00000 90.00000 1.00000
v -20.00000 91.00000 0.00000
v -20.00000 91.00000 1.00000
v -20.00000 92.00000 0.00000
v -20.00000 92.00000 1.00000
v -20.00000 93.00000 0.00000
v -20.00000 93.00000 1.00000
v -20.00000 94.00000 0.00000
v -20.00000 94.00000 1.00000
v -20.00000 95.00000 0.00000
v -20.00000 95.00000 1.00000
v -20.00000 96.00000 1.00000
v -20.00000 96.00000 0.00000
v -19.00000 88.00000 0.00000
v -19.00000 88.00000 1.00000
v -19.00000 89.00000 0.00000
v -19.00000 89.00000 1.00000
v -19.00000 90.00000 0.00000
v -19.00000 90.00000 1.00000
v -19.00000 91.00000 0.00000
v -19.00000 91.00000 1.00000
v -19.00000 92.00000 0.00000
v -19.00000 92.00000 1.00000
v -19.00000 93.00000 0.00000
v -19.00000 93.00000 1.00000
v -19.00000 94.00000 0.00000
v -19.00000 94.00000 1.00000
v -19.00000 95.00000 0.00000
v -19.00000 95.00000 1.00000
v -19.00000 96.00000 1.00000
v -19.00000 96.00000 0.00000
v -18.00000 88.00000 0.00000
v -18.00000 88.00000 1.00000
v -18.00000 89.00000 0.00000
v -18.00000 89.00000 1.00000
v -18.00000 90.00000 0.00000
v -18.00000 90.00000 1.00000
v -18.00000 91.00000 0.00000
v -18.00000 91.00000 1.00000
v -18.00000 92.00000 0.00000
v -18.00000 92.00000 1.00000
v -18.00000 93.00000 0.00000
v -18.00000 93.00000 1.00000
v -18.00000 94.00000 0.00000
v -18.00000 94.00000 1.00000
v -18.00000 95.00000 0.00000
v -18.00000 95.00000 1.00000
v -18.00000 96.00000 1.00000
v -18.00000 96.00000 0.00000
v -17.00000 88.00000 0.00000
v -17.00000 88.00000 1.00000
v -17.00000 89.00000 0.00000
v -17.00000 89.00000 1.00000
v -17.00000 90.00000 0.00000
v -17.00000 90.00000 1.00000
v -17.00000 91.00000 0.00000
v -17.00000 91.00000 1.00000
v -17.00000 92.00000 0.00000
v -17.00000 92.00000 1.00000
v -17.00000 93.00000 0.00000
v -17.00000 93.00000 1.00000
v -17.00000 94.00000 0.00000
v -17.00000 94.00000 1.00000
v -17.00000 95.00000 0.00000
v -17.00000 95.00000 1.00000
v -17.00000 96.00000 1.00000
v -17.00000 96.00000 0.00000
v -16.00000 89.00000 1.00000
v -16.00000 88.00000 1.00000
v -16.00000 88.00000 0.00000
v -16.00000 89.00000 0.00000
v -16.00000 90.00000 1.00000
v -16.00000 90.00000 0.00000
v -16.00000 91.00000 1.00000
v -16.00000 91.00000 0.00000
v -16.00000 92.00000 1.00000
v -16.00000 92.00000 0.00000
v -16.00000 93.00000 1.00000
v -16.00000 93.00000 0.00000
v -16.00000 94.00000 1.00000
v -16.00000 94.00000 0.00000
v -16.00000 95.00000 1.00000
v -16.00000 95.00000 0.00000
v -16.00000 96.00000 1.00000
v -16.00000 96.00000 0.00000

vt 0.30859 0.22656
vt 0.30859 0.21875
vt 0.31250 0.21875
vt 0.31250 0.22656
vt 0.00391 0.01563
vt 0.00391 0.00781
vt 0.00781 0.00781
vt 0.00781 0.01563
vt 0.29688 0.22656
vt 0.29688 0.21875
vt 0.30078 0.21875
vt 0.30078 0.22656

g 101_Piece5_11_0
usemtl 101_Material
f 1/1/3 2/2/3 3/3/3 4/4/3
f 3/1/6 2/2/6 5/3/6 6/4/6
f 7/1/2 5/2/2 2/3/2 1/4/2
f 4/1/1 3/2/1 6/3/1 8/4/1
f 9/5/3 1/6/3 4/7/3 10/8/3
f 11/5/2 7/6/2 1/7/2 9/8/2
f 10/5/1 4/6/1 8/7/1 12/8/1
f 13/9/3 9/10/3 10/11/3 14/12/3
f 15/9/2 11/10/2 9/11/2 13/12/2
f 14/9/1 10/10/1 12/11/1 16/12/1
f 17/1/3 13/2/3 14/3/3 18/4/3
f 19/1/2 15/2/2 13/3/2 17/4/2
f 18/1/1 14/2/1 16/3/1 20/4/1
f 21/5/3 17/6/3 18/7/3 22/8/3
f 23/5/2 19/6/2 17/7/2 21/8/2
f 22/5/1 18/6/1 20/7/1 24/8/1
f 25/5/3 21/6/3 22/7/3 26/8/3
f 27/5/2 23/6/2 21/7/2 25/8/2
f 26/5/1 22/6/1 24/7/1 28/8/1
f 29/1/3 25/2/3 26/3/3 30/4/3
f 31/1/2 27/2/2 25/3/2 29/4/2
f 30/1/1 26/2/1 28/3/1 32/4/1
f 33/9/3 29/10/3 30/11/3 34/12/3
f 33/9/5 34/10/5 35/11/5 36/12/5
f 36/9/2 31/10/2 29/11/2 33/12/2
f 34/9/1 30/10/1 32/11/1 35/12/1
f 6/5/6 5/6/6 37/7/6 38/8/6
f 39/5/2 37/6/2 5/7/2 7/8/2
f 8/5/1 6/6/1 38/7/1 40/8/1
f 41/1/2 39/2/2 7/3/2 11/4/2
f 12/1/1 8/2/1 40/3/1 42/4/1
f 43/5/2 41/6/2 11/7/2 15/8/2
f 16/5/1 12/6/1 42/7/1 44/8/1
f 45/5/2 43/6/2 15/7/2 19/8/2
f 20/5/1 16/6/1 44/7/1 46/8/1
f 47/9/2 45/10/2 19/11/2 23/12/2
f 24/9/1 20/10/1 46/11/1 48/12/1
f 49/9/2 47/10/2 23/11/2 27/12/2
f 28/9/1 24/10/1 48/11/1 50/12/1
f 51/5/2 49/6/2 27/7/2 31/8/2
f 32/5/1 28/6/1 50/7/1 52/8/1
f 36/5/5 35/6/5 53/7/5 54/8/5
f 54/5/2 51/6/2 31/7/2 36/8/2
f 35/5/1 32/6/1 52/7/1 53/8/1
f 38/5/6 37/6/6 55/7/6 56/8/6
f 57/5/2 55/6/2 37/7/2 39/8/2
f 40/5/1 38/6/1 56/7/1 58/8/1
f 59/5/2 57/6/2 39/7/2 41/8/2
f 42/5/1 40/6/1 58/7/1 60/8/1
f 61/9/2 59/10/2 41/11/2 43/12/2
f 44/9/1 42/10/1 60/11/1 62/12/1
f 63/9/2 61/10/2 43/11/2 45/12/2
f 46/9/1 44/10/1 62/11/1 64/12/1
f 65/5/2 63/6/2 45/7/2 47/8/2
f 48/5/1 46/6/1 64/7/1 66/8/1
f 67/5/2 65/6/2 47/7/2 49/8/2
f 50/5/1 48/6/1 66/7/1 68/8/1
f 69/5/2 67/6/2 49/7/2 51/8/2
f 52/5/1 50/6/1 68/7/1 70/8/1
f 54/5/5 53/6/5 71/7/5 72/8/5
f 72/5/2 69/6/2 51/7/2 54/8/2
f 53/5/1 52/6/1 70/7/1 71/8/1
f 56/1/6 55/2/6 73/3/6 74/4/6
f 75/1/2 73/2/2 55/3/2 57/4/2
f 58/1/1 56/2/1 74/3/1 76/4/1
f 77/5/2 75/6/2 57/7/2 59/8/2
f 60/5/1 58/6/1 76/7/1 78/8/1
f 79/9/2 77/10/2 59/11/2 61/12/2
f 62/9/1 60/10/1 78/11/1 80/12/1
f 81/5/2 79/6/2 61/7/2 63/8/2
f 64/5/1 62/6/1 80/7/1 82/8/1
f 83/5/2 81/6/2 63/7/2 65/8/2
f 66/5/1 64/6/1 82/7/1 84/8/1
f 85/5/2 83/6/2 65/7/2 67/8/2
f 68/5/1 66/6/1 84/7/1 86/8/1
f 87/5/2 85/6/2 67/7/2 69/8/2
f 70/5/1 68/6/1 86/7/1 88/8/1
f 72/5/5 71/6/5 89/7/5 90/8/5
f 90/5/2 87/6/2 69/7/2 72/8/2
f 71/5/1 70/6/1 88/7/1 89/8/1
f 74/5/6 73/6/6 91/7/6 92/8/6
f 93/5/2 91/6/2 73/7/2 75/8/2
f 76/5/1 74/6/1 92/7/1 94/8/1
f 95/9/2 93/10/2 75/11/2 77/12/2
f 78/9/1 76/10/1 94/11/1 96/12/1
f 97/5/2 95/6/2 77/7/2 79/8/2
f 80/5/1 78/6/1 96/7/1 98/8/1
f 99/5/2 97/6/2 79/7/2 81/8/2
f 82/5/1 80/6/1 98/7/1 100/8/1
f 101/5/2 99/6/2 81/7/2 83/8/2
f 84/5/1 82/6/1 100/7/1 102/8/1
f 103/5/2 101/6/2 83/7/2 85/8/2
f 86/5/1 84/6/1 102/7/1 104/8/1
f 105/5/2 103/6/2 85/7/2 87/8/2
f 88/5/1 86/6/1 104/7/1 106/8/1
f 90/5/5 89/6/5 107/7/5 108/8/5
f 108/5/2 105/6/2 87/7/2 90/8/2
f 89/5/1 88/6/1 106/7/1 107/8/1
f 92/1/6 91/2/6 109/3/6 110/4/6
f 111/1/2 109/2/2 91/3/2 93/4/2
f 94/1/1 92/2/1 110/3/1 112/4/1
f 113/5/2 111/6/2 93/7/2 95/8/2
f 96/5/1 94/6/1 112/7/1 114/8/1
f 115/5/2 113/6/2 95/7/2 97/8/2
f 98/5/1 96/6/1 114/7/1 116/8/1
f 117/5/2 115/6/2 97/7/2 99/8/2
f 100/5/1 98/6/1 116/7/1 118/8/1
f 119/5/2 117/6/2 99/7/2 101/8/2
f 102/5/1 100/6/1 118/7/1 120/8/1
f 121/5/2 119/6/2 101/7/2 103/8/2
f 104/5/1 102/6/1 120/7/1 122/8/1
f 123/5/2 121/6/2 103/7/2 105/8/2
f 106/5/1 104/6/1 122/7/1 124/8/1
f 108/5/5 107/6/5 125/7/5 126/8/5
f 126/5/2 123/6/2 105/7/2 108/8/2
f 107/5/1 106/6/1 124/7/1 125/8/1
f 110/9/6 109/10/6 127/11/6 128/12/6
f 129/9/2 127/10/2 109/11/2 111/12/2
f 112/9/1 110/10/1 128/11/1 130/12/1
f 131/5/2 129/6/2 111/7/2 113/8/2
f 114/5/1 112/6/1 130/7/1 132/8/1
f 133/5/2 131/6/2 113/7/2 115/8/2
f 116/5/1 114/6/1 132/7/1 134/8/1
f 135/5/2 133/6/2 115/7/2 117/8/2
f 118/5/1 116/6/1 134/7/1 136/8/1
f 137/5/2 135/6/2 117/7/2 119/8/2
f 120/5/1 118/6/1 136/7/1 138/8/1
f 139/5/2 137/6/2 119/7/2 121/8/2
f 122/5/1 120/6/1 138/7/1 140/8/1
f 141/5/2 139/6/2 121/7/2 123/8/2
f 124/5/1 122/6/1 140/7/1 142/8/1
f 126/5/5 125/6/5 143/7/5 144/8/5
f 144/5/2 141/6/2 123/7/2 126/8/2
f 125/5/1 124/6/1 142/7/1 143/8/1
f 145/5/4 146/6/4 147/7/4 148/8/4
f 128/5/6 127/6/6 147/7/6 146/8/6
f 148/5/2 147/6/2 127/7/2 129/8/2
f 130/5/1 128/6/1 146/7/1 145/8/1
f 149/5/4 145/6/4 148/7/4 150/8/4
f 150/5/2 148/6/2 129/7/2 131/8/2
f 132/5/1 130/6/1 145/7/1 149/8/1
f 151/5/4 149/6/4 150/7/4 152/8/4
f 152/5/2 150/6/2 131/7/2 133/8/2
f 134/5/1 132/6/1 149/7/1 151/8/1
f 153/5/4 151/6/4 152/7/4 154/8/4
f 154/5/2 152/6/2 133/7/2 135/8/2
f 136/5/1 134/6/1 151/7/1 153/8/1
f 155/5/4 153/6/4 154/7/4 156/8/4
f 156/5/2 154/6/2 135/7/2 137/8/2
f 138/5/1 136/6/1 153/7/1 155/8/1
f 157/5/4 155/6/4 156/7/4 158/8/4
f 158/5/2 156/6/2 137/7/2 139/8/2
f 140/5/1 138/6/1 155/7/1 157/8/1
f 159/5/4 157/6/4 158/7/4 160/8/4
f 160/5/2 158/6/2 139/7/2 141/8/2
f 142/5/1 140/6/1 157/7/1 159/8/1
f 161/5/4 159/6/4 160/7/4 162/8/4
f 144/5/5 143/6/5 161/7/5 162/8/5
f 162/5/2 160/6/2 141/7/2 144/8/2
f 143/5/1 142/6/1 159/7/1 161/8/1
