# This file was created with Minddesk Qubicle 3.0
# Get Qubicle at www.getqubicle.com

mtllib 101_Piece14_19_0.mtl

vn 0.0 0.0 1.0
vn 0.0 0.0 -1.0
vn -1.0 0.0 0.0
vn 1.0 0.0 0.0
vn 0.0 1.0 0.0
vn 0.0 -1.0 0.0

v 48.00000 153.00000 0.00000
v 48.00000 152.00000 0.00000
v 48.00000 152.00000 1.00000
v 48.00000 153.00000 1.00000
v 49.00000 152.00000 0.00000
v 49.00000 152.00000 1.00000
v 49.00000 153.00000 0.00000
v 49.00000 153.00000 1.00000
v 48.00000 154.00000 0.00000
v 48.00000 154.00000 1.00000
v 49.00000 154.00000 0.00000
v 49.00000 154.00000 1.00000
v 48.00000 155.00000 0.00000
v 48.00000 155.00000 1.00000
v 49.00000 155.00000 0.00000
v 49.00000 155.00000 1.00000
v 48.00000 156.00000 0.00000
v 48.00000 156.00000 1.00000
v 49.00000 156.00000 0.00000
v 49.00000 156.00000 1.00000
v 48.00000 157.00000 0.00000
v 48.00000 157.00000 1.00000
v 49.00000 157.00000 0.00000
v 49.00000 157.00000 1.00000
v 48.00000 158.00000 0.00000
v 48.00000 158.00000 1.00000
v 49.00000 158.00000 0.00000
v 49.00000 158.00000 1.00000
v 48.00000 159.00000 0.00000
v 48.00000 159.00000 1.00000
v 49.00000 159.00000 0.00000
v 49.00000 159.00000 1.00000
v 48.00000 160.00000 0.00000
v 48.00000 160.00000 1.00000
v 49.00000 160.00000 1.00000
v 49.00000 160.00000 0.00000
v 50.00000 152.00000 0.00000
v 50.00000 152.00000 1.00000
v 50.00000 153.00000 0.00000
v 50.00000 153.00000 1.00000
v 50.00000 154.00000 0.00000
v 50.00000 154.00000 1.00000
v 50.00000 155.00000 0.00000
v 50.00000 155.00000 1.00000
v 50.00000 156.00000 0.00000
v 50.00000 156.00000 1.00000
v 50.00000 157.00000 0.00000
v 50.00000 157.00000 1.00000
v 50.00000 158.00000 0.00000
v 50.00000 158.00000 1.00000
v 50.00000 159.00000 0.00000
v 50.00000 159.00000 1.00000
v 50.00000 160.00000 1.00000
v 50.00000 160.00000 0.00000
v 51.00000 152.00000 0.00000
v 51.00000 152.00000 1.00000
v 51.00000 153.00000 0.00000
v 51.00000 153.00000 1.00000
v 51.00000 154.00000 0.00000
v 51.00000 154.00000 1.00000
v 51.00000 155.00000 0.00000
v 51.00000 155.00000 1.00000
v 51.00000 156.00000 0.00000
v 51.00000 156.00000 1.00000
v 51.00000 157.00000 0.00000
v 51.00000 157.00000 1.00000
v 51.00000 158.00000 0.00000
v 51.00000 158.00000 1.00000
v 51.00000 159.00000 0.00000
v 51.00000 159.00000 1.00000
v 51.00000 160.00000 1.00000
v 51.00000 160.00000 0.00000
v 52.00000 152.00000 0.00000
v 52.00000 152.00000 1.00000
v 52.00000 153.00000 0.00000
v 52.00000 153.00000 1.00000
v 52.00000 154.00000 0.00000
v 52.00000 154.00000 1.00000
v 52.00000 155.00000 0.00000
v 52.00000 155.00000 1.00000
v 52.00000 156.00000 0.00000
v 52.00000 156.00000 1.00000
v 52.00000 157.00000 0.00000
v 52.00000 157.00000 1.00000
v 52.00000 158.00000 0.00000
v 52.00000 158.00000 1.00000
v 52.00000 159.00000 0.00000
v 52.00000 159.00000 1.00000
v 52.00000 160.00000 1.00000
v 52.00000 160.00000 0.00000
v 53.00000 152.00000 0.00000
v 53.00000 152.00000 1.00000
v 53.00000 153.00000 0.00000
v 53.00000 153.00000 1.00000
v 53.00000 154.00000 0.00000
v 53.00000 154.00000 1.00000
v 53.00000 155.00000 0.00000
v 53.00000 155.00000 1.00000
v 53.00000 156.00000 0.00000
v 53.00000 156.00000 1.00000
v 53.00000 157.00000 0.00000
v 53.00000 157.00000 1.00000
v 53.00000 158.00000 0.00000
v 53.00000 158.00000 1.00000
v 53.00000 159.00000 0.00000
v 53.00000 159.00000 1.00000
v 53.00000 160.00000 1.00000
v 53.00000 160.00000 0.00000
v 54.00000 152.00000 0.00000
v 54.00000 152.00000 1.00000
v 54.00000 153.00000 0.00000
v 54.00000 153.00000 1.00000
v 54.00000 154.00000 0.00000
v 54.00000 154.00000 1.00000
v 54.00000 155.00000 0.00000
v 54.00000 155.00000 1.00000
v 54.00000 156.00000 0.00000
v 54.00000 156.00000 1.00000
v 54.00000 157.00000 0.00000
v 54.00000 157.00000 1.00000
v 54.00000 158.00000 0.00000
v 54.00000 158.00000 1.00000
v 54.00000 159.00000 0.00000
v 54.00000 159.00000 1.00000
v 54.00000 160.00000 1.00000
v 54.00000 160.00000 0.00000
v 55.00000 152.00000 0.00000
v 55.00000 152.00000 1.00000
v 55.00000 153.00000 0.00000
v 55.00000 153.00000 1.00000
v 55.00000 154.00000 0.00000
v 55.00000 154.00000 1.00000
v 55.00000 155.00000 0.00000
v 55.00000 155.00000 1.00000
v 55.00000 156.00000 0.00000
v 55.00000 156.00000 1.00000
v 55.00000 157.00000 0.00000
v 55.00000 157.00000 1.00000
v 55.00000 158.00000 0.00000
v 55.00000 158.00000 1.00000
v 55.00000 159.00000 0.00000
v 55.00000 159.00000 1.00000
v 55.00000 160.00000 1.00000
v 55.00000 160.00000 0.00000
v 56.00000 153.00000 1.00000
v 56.00000 152.00000 1.00000
v 56.00000 152.00000 0.00000
v 56.00000 153.00000 0.00000
v 56.00000 154.00000 1.00000
v 56.00000 154.00000 0.00000
v 56.00000 155.00000 1.00000
v 56.00000 155.00000 0.00000
v 56.00000 156.00000 1.00000
v 56.00000 156.00000 0.00000
v 56.00000 157.00000 1.00000
v 56.00000 157.00000 0.00000
v 56.00000 158.00000 1.00000
v 56.00000 158.00000 0.00000
v 56.00000 159.00000 1.00000
v 56.00000 159.00000 0.00000
v 56.00000 160.00000 1.00000
v 56.00000 160.00000 0.00000

vt 0.26172 0.48438
vt 0.26172 0.47656
vt 0.26563 0.47656
vt 0.26563 0.48438
vt 0.27344 0.48438
vt 0.27344 0.47656
vt 0.27734 0.47656
vt 0.27734 0.48438
vt 0.28516 0.48438
vt 0.28516 0.47656
vt 0.28906 0.47656
vt 0.28906 0.48438
vt 0.29688 0.48438
vt 0.29688 0.47656
vt 0.30078 0.47656
vt 0.30078 0.48438
vt 0.30859 0.48438
vt 0.30859 0.47656
vt 0.31250 0.47656
vt 0.31250 0.48438

g 101_Piece14_19_0
usemtl 101_Material
f 1/1/3 2/2/3 3/3/3 4/4/3
f 3/1/6 2/2/6 5/3/6 6/4/6
f 7/1/2 5/2/2 2/3/2 1/4/2
f 4/1/1 3/2/1 6/3/1 8/4/1
f 9/1/3 1/2/3 4/3/3 10/4/3
f 11/1/2 7/2/2 1/3/2 9/4/2
f 10/1/1 4/2/1 8/3/1 12/4/1
f 13/5/3 9/6/3 10/7/3 14/8/3
f 15/5/2 11/6/2 9/7/2 13/8/2
f 14/5/1 10/6/1 12/7/1 16/8/1
f 17/9/3 13/10/3 14/11/3 18/12/3
f 19/9/2 15/10/2 13/11/2 17/12/2
f 18/9/1 14/10/1 16/11/1 20/12/1
f 21/5/3 17/6/3 18/7/3 22/8/3
f 23/5/2 19/6/2 17/7/2 21/8/2
f 22/5/1 18/6/1 20/7/1 24/8/1
f 25/1/3 21/2/3 22/3/3 26/4/3
f 27/1/2 23/2/2 21/3/2 25/4/2
f 26/1/1 22/2/1 24/3/1 28/4/1
f 29/1/3 25/2/3 26/3/3 30/4/3
f 31/1/2 27/2/2 25/3/2 29/4/2
f 30/1/1 26/2/1 28/3/1 32/4/1
f 33/1/3 29/2/3 30/3/3 34/4/3
f 33/1/5 34/2/5 35/3/5 36/4/5
f 36/1/2 31/2/2 29/3/2 33/4/2
f 34/1/1 30/2/1 32/3/1 35/4/1
f 6/13/6 5/14/6 37/15/6 38/16/6
f 39/13/2 37/14/2 5/15/2 7/16/2
f 8/13/1 6/14/1 38/15/1 40/16/1
f 41/5/2 39/6/2 7/7/2 11/8/2
f 12/5/1 8/6/1 40/7/1 42/8/1
f 43/1/2 41/2/2 11/3/2 15/4/2
f 16/1/1 12/2/1 42/3/1 44/4/1
f 45/17/2 43/18/2 15/19/2 19/20/2
f 20/17/1 16/18/1 44/19/1 46/20/1
f 47/5/2 45/6/2 19/7/2 23/8/2
f 24/5/1 20/6/1 46/7/1 48/8/1
f 49/1/2 47/2/2 23/3/2 27/4/2
f 28/1/1 24/2/1 48/3/1 50/4/1
f 51/1/2 49/2/2 27/3/2 31/4/2
f 32/1/1 28/2/1 50/3/1 52/4/1
f 36/1/5 35/2/5 53/3/5 54/4/5
f 54/1/2 51/2/2 31/3/2 36/4/2
f 35/1/1 32/2/1 52/3/1 53/4/1
f 38/5/6 37/6/6 55/7/6 56/8/6
f 57/5/2 55/6/2 37/7/2 39/8/2
f 40/5/1 38/6/1 56/7/1 58/8/1
f 59/1/2 57/2/2 39/3/2 41/4/2
f 42/1/1 40/2/1 58/3/1 60/4/1
f 61/1/2 59/2/2 41/3/2 43/4/2
f 44/1/1 42/2/1 60/3/1 62/4/1
f 63/1/2 61/2/2 43/3/2 45/4/2
f 46/1/1 44/2/1 62/3/1 64/4/1
f 65/1/2 63/2/2 45/3/2 47/4/2
f 48/1/1 46/2/1 64/3/1 66/4/1
f 67/5/2 65/6/2 47/7/2 49/8/2
f 50/5/1 48/6/1 66/7/1 68/8/1
f 69/1/2 67/2/2 49/3/2 51/4/2
f 52/1/1 50/2/1 68/3/1 70/4/1
f 54/13/5 53/14/5 71/15/5 72/16/5
f 72/13/2 69/14/2 51/15/2 54/16/2
f 53/13/1 52/14/1 70/15/1 71/16/1
f 56/9/6 55/10/6 73/11/6 74/12/6
f 75/9/2 73/10/2 55/11/2 57/12/2
f 58/9/1 56/10/1 74/11/1 76/12/1
f 77/17/2 75/18/2 57/19/2 59/20/2
f 60/17/1 58/18/1 76/19/1 78/20/1
f 79/1/2 77/2/2 59/3/2 61/4/2
f 62/1/1 60/2/1 78/3/1 80/4/1
f 81/17/2 79/18/2 61/19/2 63/20/2
f 64/17/1 62/18/1 80/19/1 82/20/1
f 83/1/2 81/2/2 63/3/2 65/4/2
f 66/1/1 64/2/1 82/3/1 84/4/1
f 85/1/2 83/2/2 65/3/2 67/4/2
f 68/1/1 66/2/1 84/3/1 86/4/1
f 87/5/2 85/6/2 67/7/2 69/8/2
f 70/5/1 68/6/1 86/7/1 88/8/1
f 72/5/5 71/6/5 89/7/5 90/8/5
f 90/5/2 87/6/2 69/7/2 72/8/2
f 71/5/1 70/6/1 88/7/1 89/8/1
f 74/5/6 73/6/6 91/7/6 92/8/6
f 93/5/2 91/6/2 73/7/2 75/8/2
f 76/5/1 74/6/1 92/7/1 94/8/1
f 95/5/2 93/6/2 75/7/2 77/8/2
f 78/5/1 76/6/1 94/7/1 96/8/1
f 97/1/2 95/2/2 77/3/2 79/4/2
f 80/1/1 78/2/1 96/3/1 98/4/1
f 99/1/2 97/2/2 79/3/2 81/4/2
f 82/1/1 80/2/1 98/3/1 100/4/1
f 101/1/2 99/2/2 81/3/2 83/4/2
f 84/1/1 82/2/1 100/3/1 102/4/1
f 103/1/2 101/2/2 83/3/2 85/4/2
f 86/1/1 84/2/1 102/3/1 104/4/1
f 105/17/2 103/18/2 85/19/2 87/20/2
f 88/17/1 86/18/1 104/19/1 106/20/1
f 90/9/5 89/10/5 107/11/5 108/12/5
f 108/9/2 105/10/2 87/11/2 90/12/2
f 89/9/1 88/10/1 106/11/1 107/12/1
f 92/1/6 91/2/6 109/3/6 110/4/6
f 111/1/2 109/2/2 91/3/2 93/4/2
f 94/1/1 92/2/1 110/3/1 112/4/1
f 113/1/2 111/2/2 93/3/2 95/4/2
f 96/1/1 94/2/1 112/3/1 114/4/1
f 115/5/2 113/6/2 95/7/2 97/8/2
f 98/5/1 96/6/1 114/7/1 116/8/1
f 117/1/2 115/2/2 97/3/2 99/4/2
f 100/1/1 98/2/1 116/3/1 118/4/1
f 119/17/2 117/18/2 99/19/2 101/20/2
f 102/17/1 100/18/1 118/19/1 120/20/1
f 121/17/2 119/18/2 101/19/2 103/20/2
f 104/17/1 102/18/1 120/19/1 122/20/1
f 123/1/2 121/2/2 103/3/2 105/4/2
f 106/1/1 104/2/1 122/3/1 124/4/1
f 108/5/5 107/6/5 125/7/5 126/8/5
f 126/5/2 123/6/2 105/7/2 108/8/2
f 107/5/1 106/6/1 124/7/1 125/8/1
f 110/1/6 109/2/6 127/3/6 128/4/6
f 129/1/2 127/2/2 109/3/2 111/4/2
f 112/1/1 110/2/1 128/3/1 130/4/1
f 131/1/2 129/2/2 111/3/2 113/4/2
f 114/1/1 112/2/1 130/3/1 132/4/1
f 133/13/2 131/14/2 113/15/2 115/16/2
f 116/13/1 114/14/1 132/15/1 134/16/1
f 135/5/2 133/6/2 115/7/2 117/8/2
f 118/5/1 116/6/1 134/7/1 136/8/1
f 137/1/2 135/2/2 117/3/2 119/4/2
f 120/1/1 118/2/1 136/3/1 138/4/1
f 139/17/2 137/18/2 119/19/2 121/20/2
f 122/17/1 120/18/1 138/19/1 140/20/1
f 141/5/2 139/6/2 121/7/2 123/8/2
f 124/5/1 122/6/1 140/7/1 142/8/1
f 126/1/5 125/2/5 143/3/5 144/4/5
f 144/1/2 141/2/2 123/3/2 126/4/2
f 125/1/1 124/2/1 142/3/1 143/4/1
f 145/13/4 146/14/4 147/15/4 148/16/4
f 128/13/6 127/14/6 147/15/6 146/16/6
f 148/13/2 147/14/2 127/15/2 129/16/2
f 130/13/1 128/14/1 146/15/1 145/16/1
f 149/1/4 145/2/4 148/3/4 150/4/4
f 150/1/2 148/2/2 129/3/2 131/4/2
f 132/1/1 130/2/1 145/3/1 149/4/1
f 151/1/4 149/2/4 150/3/4 152/4/4
f 152/1/2 150/2/2 131/3/2 133/4/2
f 134/1/1 132/2/1 149/3/1 151/4/1
f 153/5/4 151/6/4 152/7/4 154/8/4
f 154/5/2 152/6/2 133/7/2 135/8/2
f 136/5/1 134/6/1 151/7/1 153/8/1
f 155/9/4 153/10/4 154/11/4 156/12/4
f 156/9/2 154/10/2 135/11/2 137/12/2
f 138/9/1 136/10/1 153/11/1 155/12/1
f 157/5/4 155/6/4 156/7/4 158/8/4
f 158/5/2 156/6/2 137/7/2 139/8/2
f 140/5/1 138/6/1 155/7/1 157/8/1
f 159/1/4 157/2/4 158/3/4 160/4/4
f 160/1/2 158/2/2 139/3/2 141/4/2
f 142/1/1 140/2/1 157/3/1 159/4/1
f 161/13/4 159/14/4 160/15/4 162/16/4
f 144/13/5 143/14/5 161/15/5 162/16/5
f 162/13/2 160/14/2 141/15/2 144/16/2
f 143/13/1 142/14/1 159/15/1 161/16/1
