# This file was created with Minddesk Qubicle 3.0
# Get Qubicle at www.getqubicle.com

mtllib 101_Piece12_16_0.mtl

vn 0.0 0.0 1.0
vn 0.0 0.0 -1.0
vn -1.0 0.0 0.0
vn 1.0 0.0 0.0
vn 0.0 1.0 0.0
vn 0.0 -1.0 0.0

v 32.00000 129.00000 0.00000
v 32.00000 128.00000 0.00000
v 32.00000 128.00000 1.00000
v 32.00000 129.00000 1.00000
v 33.00000 128.00000 0.00000
v 33.00000 128.00000 1.00000
v 33.00000 129.00000 0.00000
v 33.00000 129.00000 1.00000
v 32.00000 130.00000 0.00000
v 32.00000 130.00000 1.00000
v 33.00000 130.00000 0.00000
v 33.00000 130.00000 1.00000
v 32.00000 131.00000 0.00000
v 32.00000 131.00000 1.00000
v 33.00000 131.00000 0.00000
v 33.00000 131.00000 1.00000
v 32.00000 132.00000 0.00000
v 32.00000 132.00000 1.00000
v 33.00000 132.00000 0.00000
v 33.00000 132.00000 1.00000
v 32.00000 133.00000 0.00000
v 32.00000 133.00000 1.00000
v 33.00000 133.00000 0.00000
v 33.00000 133.00000 1.00000
v 32.00000 134.00000 0.00000
v 32.00000 134.00000 1.00000
v 33.00000 134.00000 0.00000
v 33.00000 134.00000 1.00000
v 32.00000 135.00000 0.00000
v 32.00000 135.00000 1.00000
v 33.00000 135.00000 0.00000
v 33.00000 135.00000 1.00000
v 32.00000 136.00000 0.00000
v 32.00000 136.00000 1.00000
v 33.00000 136.00000 1.00000
v 33.00000 136.00000 0.00000
v 34.00000 128.00000 0.00000
v 34.00000 128.00000 1.00000
v 34.00000 129.00000 0.00000
v 34.00000 129.00000 1.00000
v 34.00000 130.00000 0.00000
v 34.00000 130.00000 1.00000
v 34.00000 131.00000 0.00000
v 34.00000 131.00000 1.00000
v 34.00000 132.00000 0.00000
v 34.00000 132.00000 1.00000
v 34.00000 133.00000 0.00000
v 34.00000 133.00000 1.00000
v 34.00000 134.00000 0.00000
v 34.00000 134.00000 1.00000
v 34.00000 135.00000 0.00000
v 34.00000 135.00000 1.00000
v 34.00000 136.00000 1.00000
v 34.00000 136.00000 0.00000
v 35.00000 128.00000 0.00000
v 35.00000 128.00000 1.00000
v 35.00000 129.00000 0.00000
v 35.00000 129.00000 1.00000
v 35.00000 130.00000 0.00000
v 35.00000 130.00000 1.00000
v 35.00000 131.00000 0.00000
v 35.00000 131.00000 1.00000
v 35.00000 132.00000 0.00000
v 35.00000 132.00000 1.00000
v 35.00000 133.00000 0.00000
v 35.00000 133.00000 1.00000
v 35.00000 134.00000 0.00000
v 35.00000 134.00000 1.00000
v 35.00000 135.00000 0.00000
v 35.00000 135.00000 1.00000
v 35.00000 136.00000 1.00000
v 35.00000 136.00000 0.00000
v 36.00000 128.00000 0.00000
v 36.00000 128.00000 1.00000
v 36.00000 129.00000 0.00000
v 36.00000 129.00000 1.00000
v 36.00000 130.00000 0.00000
v 36.00000 130.00000 1.00000
v 36.00000 131.00000 0.00000
v 36.00000 131.00000 1.00000
v 36.00000 132.00000 0.00000
v 36.00000 132.00000 1.00000
v 36.00000 133.00000 0.00000
v 36.00000 133.00000 1.00000
v 36.00000 134.00000 0.00000
v 36.00000 134.00000 1.00000
v 36.00000 135.00000 0.00000
v 36.00000 135.00000 1.00000
v 36.00000 136.00000 1.00000
v 36.00000 136.00000 0.00000
v 37.00000 128.00000 0.00000
v 37.00000 128.00000 1.00000
v 37.00000 129.00000 0.00000
v 37.00000 129.00000 1.00000
v 37.00000 130.00000 0.00000
v 37.00000 130.00000 1.00000
v 37.00000 131.00000 0.00000
v 37.00000 131.00000 1.00000
v 37.00000 132.00000 0.00000
v 37.00000 132.00000 1.00000
v 37.00000 133.00000 0.00000
v 37.00000 133.00000 1.00000
v 37.00000 134.00000 0.00000
v 37.00000 134.00000 1.00000
v 37.00000 135.00000 0.00000
v 37.00000 135.00000 1.00000
v 37.00000 136.00000 1.00000
v 37.00000 136.00000 0.00000
v 38.00000 128.00000 0.00000
v 38.00000 128.00000 1.00000
v 38.00000 129.00000 0.00000
v 38.00000 129.00000 1.00000
v 38.00000 130.00000 0.00000
v 38.00000 130.00000 1.00000
v 38.00000 131.00000 0.00000
v 38.00000 131.00000 1.00000
v 38.00000 132.00000 0.00000
v 38.00000 132.00000 1.00000
v 38.00000 133.00000 0.00000
v 38.00000 133.00000 1.00000
v 38.00000 134.00000 0.00000
v 38.00000 134.00000 1.00000
v 38.00000 135.00000 0.00000
v 38.00000 135.00000 1.00000
v 38.00000 136.00000 1.00000
v 38.00000 136.00000 0.00000
v 39.00000 128.00000 0.00000
v 39.00000 128.00000 1.00000
v 39.00000 129.00000 0.00000
v 39.00000 129.00000 1.00000
v 39.00000 130.00000 0.00000
v 39.00000 130.00000 1.00000
v 39.00000 131.00000 0.00000
v 39.00000 131.00000 1.00000
v 39.00000 132.00000 0.00000
v 39.00000 132.00000 1.00000
v 39.00000 133.00000 0.00000
v 39.00000 133.00000 1.00000
v 39.00000 134.00000 0.00000
v 39.00000 134.00000 1.00000
v 39.00000 135.00000 0.00000
v 39.00000 135.00000 1.00000
v 39.00000 136.00000 1.00000
v 39.00000 136.00000 0.00000
v 40.00000 129.00000 1.00000
v 40.00000 128.00000 1.00000
v 40.00000 128.00000 0.00000
v 40.00000 129.00000 0.00000
v 40.00000 130.00000 1.00000
v 40.00000 130.00000 0.00000
v 40.00000 131.00000 1.00000
v 40.00000 131.00000 0.00000
v 40.00000 132.00000 1.00000
v 40.00000 132.00000 0.00000
v 40.00000 133.00000 1.00000
v 40.00000 133.00000 0.00000
v 40.00000 134.00000 1.00000
v 40.00000 134.00000 0.00000
v 40.00000 135.00000 1.00000
v 40.00000 135.00000 0.00000
v 40.00000 136.00000 1.00000
v 40.00000 136.00000 0.00000

vt 0.03906 0.43750
vt 0.03906 0.42969
vt 0.04297 0.42969
vt 0.04297 0.43750
vt 0.05078 0.43750
vt 0.05078 0.42969
vt 0.05469 0.42969
vt 0.05469 0.43750
vt 0.06250 0.43750
vt 0.06250 0.42969
vt 0.06641 0.42969
vt 0.06641 0.43750
vt 0.00391 0.01563
vt 0.00391 0.00781
vt 0.00781 0.00781
vt 0.00781 0.01563
vt 0.07422 0.43750
vt 0.07422 0.42969
vt 0.07813 0.42969
vt 0.07813 0.43750
vt 0.47266 0.06250
vt 0.47266 0.05469
vt 0.47656 0.05469
vt 0.47656 0.06250
vt 0.08594 0.43750
vt 0.08594 0.42969
vt 0.08984 0.42969
vt 0.08984 0.43750
vt 0.09766 0.43750
vt 0.09766 0.42969
vt 0.10156 0.42969
vt 0.10156 0.43750

g 101_Piece12_16_0
usemtl 101_Material
f 1/1/3 2/2/3 3/3/3 4/4/3
f 3/1/6 2/2/6 5/3/6 6/4/6
f 7/1/2 5/2/2 2/3/2 1/4/2
f 4/1/1 3/2/1 6/3/1 8/4/1
f 9/5/3 1/6/3 4/7/3 10/8/3
f 11/5/2 7/6/2 1/7/2 9/8/2
f 10/5/1 4/6/1 8/7/1 12/8/1
f 13/9/3 9/10/3 10/11/3 14/12/3
f 15/9/2 11/10/2 9/11/2 13/12/2
f 14/9/1 10/10/1 12/11/1 16/12/1
f 17/9/3 13/10/3 14/11/3 18/12/3
f 19/9/2 15/10/2 13/11/2 17/12/2
f 18/9/1 14/10/1 16/11/1 20/12/1
f 21/9/3 17/10/3 18/11/3 22/12/3
f 23/9/2 19/10/2 17/11/2 21/12/2
f 22/9/1 18/10/1 20/11/1 24/12/1
f 25/9/3 21/10/3 22/11/3 26/12/3
f 27/9/2 23/10/2 21/11/2 25/12/2
f 26/9/1 22/10/1 24/11/1 28/12/1
f 29/13/3 25/14/3 26/15/3 30/16/3
f 31/13/2 27/14/2 25/15/2 29/16/2
f 30/13/1 26/14/1 28/15/1 32/16/1
f 33/13/3 29/14/3 30/15/3 34/16/3
f 33/13/5 34/14/5 35/15/5 36/16/5
f 36/13/2 31/14/2 29/15/2 33/16/2
f 34/13/1 30/14/1 32/15/1 35/16/1
f 6/5/6 5/6/6 37/7/6 38/8/6
f 39/5/2 37/6/2 5/7/2 7/8/2
f 8/5/1 6/6/1 38/7/1 40/8/1
f 41/5/2 39/6/2 7/7/2 11/8/2
f 12/5/1 8/6/1 40/7/1 42/8/1
f 43/9/2 41/10/2 11/11/2 15/12/2
f 16/9/1 12/10/1 42/11/1 44/12/1
f 45/17/2 43/18/2 15/19/2 19/20/2
f 20/17/1 16/18/1 44/19/1 46/20/1
f 47/21/2 45/22/2 19/23/2 23/24/2
f 24/21/1 20/22/1 46/23/1 48/24/1
f 49/21/2 47/22/2 23/23/2 27/24/2
f 28/21/1 24/22/1 48/23/1 50/24/1
f 51/21/2 49/22/2 27/23/2 31/24/2
f 32/21/1 28/22/1 50/23/1 52/24/1
f 36/13/5 35/14/5 53/15/5 54/16/5
f 54/13/2 51/14/2 31/15/2 36/16/2
f 35/13/1 32/14/1 52/15/1 53/16/1
f 38/1/6 37/2/6 55/3/6 56/4/6
f 57/1/2 55/2/2 37/3/2 39/4/2
f 40/1/1 38/2/1 56/3/1 58/4/1
f 59/5/2 57/6/2 39/7/2 41/8/2
f 42/5/1 40/6/1 58/7/1 60/8/1
f 61/9/2 59/10/2 41/11/2 43/12/2
f 44/9/1 42/10/1 60/11/1 62/12/1
f 63/17/2 61/18/2 43/19/2 45/20/2
f 46/17/1 44/18/1 62/19/1 64/20/1
f 65/21/2 63/22/2 45/23/2 47/24/2
f 48/21/1 46/22/1 64/23/1 66/24/1
f 67/21/2 65/22/2 47/23/2 49/24/2
f 50/21/1 48/22/1 66/23/1 68/24/1
f 69/21/2 67/22/2 49/23/2 51/24/2
f 52/21/1 50/22/1 68/23/1 70/24/1
f 54/13/5 53/14/5 71/15/5 72/16/5
f 72/13/2 69/14/2 51/15/2 54/16/2
f 53/13/1 52/14/1 70/15/1 71/16/1
f 56/5/6 55/6/6 73/7/6 74/8/6
f 75/5/2 73/6/2 55/7/2 57/8/2
f 58/5/1 56/6/1 74/7/1 76/8/1
f 77/5/2 75/6/2 57/7/2 59/8/2
f 60/5/1 58/6/1 76/7/1 78/8/1
f 79/9/2 77/10/2 59/11/2 61/12/2
f 62/9/1 60/10/1 78/11/1 80/12/1
f 81/25/2 79/26/2 61/27/2 63/28/2
f 64/25/1 62/26/1 80/27/1 82/28/1
f 83/29/2 81/30/2 63/31/2 65/32/2
f 66/29/1 64/30/1 82/31/1 84/32/1
f 85/29/2 83/30/2 65/31/2 67/32/2
f 68/29/1 66/30/1 84/31/1 86/32/1
f 87/29/2 85/30/2 67/31/2 69/32/2
f 70/29/1 68/30/1 86/31/1 88/32/1
f 72/13/5 71/14/5 89/15/5 90/16/5
f 90/13/2 87/14/2 69/15/2 72/16/2
f 71/13/1 70/14/1 88/15/1 89/16/1
f 74/1/6 73/2/6 91/3/6 92/4/6
f 93/1/2 91/2/2 73/3/2 75/4/2
f 76/1/1 74/2/1 92/3/1 94/4/1
f 95/5/2 93/6/2 75/7/2 77/8/2
f 78/5/1 76/6/1 94/7/1 96/8/1
f 97/9/2 95/10/2 77/11/2 79/12/2
f 80/9/1 78/10/1 96/11/1 98/12/1
f 99/17/2 97/18/2 79/19/2 81/20/2
f 82/17/1 80/18/1 98/19/1 100/20/1
f 101/21/2 99/22/2 81/23/2 83/24/2
f 84/21/1 82/22/1 100/23/1 102/24/1
f 103/21/2 101/22/2 83/23/2 85/24/2
f 86/21/1 84/22/1 102/23/1 104/24/1
f 105/21/2 103/22/2 85/23/2 87/24/2
f 88/21/1 86/22/1 104/23/1 106/24/1
f 90/13/5 89/14/5 107/15/5 108/16/5
f 108/13/2 105/14/2 87/15/2 90/16/2
f 89/13/1 88/14/1 106/15/1 107/16/1
f 92/5/6 91/6/6 109/7/6 110/8/6
f 111/5/2 109/6/2 91/7/2 93/8/2
f 94/5/1 92/6/1 110/7/1 112/8/1
f 113/5/2 111/6/2 93/7/2 95/8/2
f 96/5/1 94/6/1 112/7/1 114/8/1
f 115/9/2 113/10/2 95/11/2 97/12/2
f 98/9/1 96/10/1 114/11/1 116/12/1
f 117/17/2 115/18/2 97/19/2 99/20/2
f 100/17/1 98/18/1 116/19/1 118/20/1
f 119/21/2 117/22/2 99/23/2 101/24/2
f 102/21/1 100/22/1 118/23/1 120/24/1
f 121/21/2 119/22/2 101/23/2 103/24/2
f 104/21/1 102/22/1 120/23/1 122/24/1
f 123/21/2 121/22/2 103/23/2 105/24/2
f 106/21/1 104/22/1 122/23/1 124/24/1
f 108/13/5 107/14/5 125/15/5 126/16/5
f 126/13/2 123/14/2 105/15/2 108/16/2
f 107/13/1 106/14/1 124/15/1 125/16/1
f 110/1/6 109/2/6 127/3/6 128/4/6
f 129/1/2 127/2/2 109/3/2 111/4/2
f 112/1/1 110/2/1 128/3/1 130/4/1
f 131/5/2 129/6/2 111/7/2 113/8/2
f 114/5/1 112/6/1 130/7/1 132/8/1
f 133/9/2 131/10/2 113/11/2 115/12/2
f 116/9/1 114/10/1 132/11/1 134/12/1
f 135/9/2 133/10/2 115/11/2 117/12/2
f 118/9/1 116/10/1 134/11/1 136/12/1
f 137/9/2 135/10/2 117/11/2 119/12/2
f 120/9/1 118/10/1 136/11/1 138/12/1
f 139/9/2 137/10/2 119/11/2 121/12/2
f 122/9/1 120/10/1 138/11/1 140/12/1
f 141/13/2 139/14/2 121/15/2 123/16/2
f 124/13/1 122/14/1 140/15/1 142/16/1
f 126/13/5 125/14/5 143/15/5 144/16/5
f 144/13/2 141/14/2 123/15/2 126/16/2
f 125/13/1 124/14/1 142/15/1 143/16/1
f 145/13/4 146/14/4 147/15/4 148/16/4
f 128/13/6 127/14/6 147/15/6 146/16/6
f 148/13/2 147/14/2 127/15/2 129/16/2
f 130/13/1 128/14/1 146/15/1 145/16/1
f 149/13/4 145/14/4 148/15/4 150/16/4
f 150/13/2 148/14/2 129/15/2 131/16/2
f 132/13/1 130/14/1 145/15/1 149/16/1
f 151/13/4 149/14/4 150/15/4 152/16/4
f 152/13/2 150/14/2 131/15/2 133/16/2
f 134/13/1 132/14/1 149/15/1 151/16/1
f 153/13/4 151/14/4 152/15/4 154/16/4
f 154/13/2 152/14/2 133/15/2 135/16/2
f 136/13/1 134/14/1 151/15/1 153/16/1
f 155/13/4 153/14/4 154/15/4 156/16/4
f 156/13/2 154/14/2 135/15/2 137/16/2
f 138/13/1 136/14/1 153/15/1 155/16/1
f 157/13/4 155/14/4 156/15/4 158/16/4
f 158/13/2 156/14/2 137/15/2 139/16/2
f 140/13/1 138/14/1 155/15/1 157/16/1
f 159/13/4 157/14/4 158/15/4 160/16/4
f 160/13/2 158/14/2 139/15/2 141/16/2
f 142/13/1 140/14/1 157/15/1 159/16/1
f 161/13/4 159/14/4 160/15/4 162/16/4
f 144/13/5 143/14/5 161/15/5 162/16/5
f 162/13/2 160/14/2 141/15/2 144/16/2
f 143/13/1 142/14/1 159/15/1 161/16/1
