# This file was created with Minddesk Qubicle 3.0
# Get Qubicle at www.getqubicle.com

mtllib 101_Piece15_4_0.mtl

vn 0.0 0.0 1.0
vn 0.0 0.0 -1.0
vn -1.0 0.0 0.0
vn 1.0 0.0 0.0
vn 0.0 1.0 0.0
vn 0.0 -1.0 0.0

v 56.00000 33.00000 0.00000
v 56.00000 32.00000 0.00000
v 56.00000 32.00000 1.00000
v 56.00000 33.00000 1.00000
v 57.00000 32.00000 0.00000
v 57.00000 32.00000 1.00000
v 57.00000 33.00000 0.00000
v 57.00000 33.00000 1.00000
v 56.00000 34.00000 0.00000
v 56.00000 34.00000 1.00000
v 57.00000 34.00000 0.00000
v 57.00000 34.00000 1.00000
v 56.00000 35.00000 0.00000
v 56.00000 35.00000 1.00000
v 57.00000 35.00000 0.00000
v 57.00000 35.00000 1.00000
v 56.00000 36.00000 0.00000
v 56.00000 36.00000 1.00000
v 57.00000 36.00000 0.00000
v 57.00000 36.00000 1.00000
v 56.00000 37.00000 0.00000
v 56.00000 37.00000 1.00000
v 57.00000 37.00000 0.00000
v 57.00000 37.00000 1.00000
v 56.00000 38.00000 0.00000
v 56.00000 38.00000 1.00000
v 57.00000 38.00000 0.00000
v 57.00000 38.00000 1.00000
v 56.00000 39.00000 0.00000
v 56.00000 39.00000 1.00000
v 57.00000 39.00000 0.00000
v 57.00000 39.00000 1.00000
v 56.00000 40.00000 0.00000
v 56.00000 40.00000 1.00000
v 57.00000 40.00000 1.00000
v 57.00000 40.00000 0.00000
v 58.00000 32.00000 0.00000
v 58.00000 32.00000 1.00000
v 58.00000 33.00000 0.00000
v 58.00000 33.00000 1.00000
v 58.00000 34.00000 0.00000
v 58.00000 34.00000 1.00000
v 58.00000 35.00000 0.00000
v 58.00000 35.00000 1.00000
v 58.00000 36.00000 0.00000
v 58.00000 36.00000 1.00000
v 58.00000 37.00000 0.00000
v 58.00000 37.00000 1.00000
v 58.00000 38.00000 0.00000
v 58.00000 38.00000 1.00000
v 58.00000 39.00000 0.00000
v 58.00000 39.00000 1.00000
v 58.00000 40.00000 1.00000
v 58.00000 40.00000 0.00000
v 59.00000 32.00000 0.00000
v 59.00000 32.00000 1.00000
v 59.00000 33.00000 0.00000
v 59.00000 33.00000 1.00000
v 59.00000 34.00000 0.00000
v 59.00000 34.00000 1.00000
v 59.00000 35.00000 0.00000
v 59.00000 35.00000 1.00000
v 59.00000 36.00000 0.00000
v 59.00000 36.00000 1.00000
v 59.00000 37.00000 0.00000
v 59.00000 37.00000 1.00000
v 59.00000 38.00000 0.00000
v 59.00000 38.00000 1.00000
v 59.00000 39.00000 0.00000
v 59.00000 39.00000 1.00000
v 59.00000 40.00000 1.00000
v 59.00000 40.00000 0.00000
v 60.00000 32.00000 0.00000
v 60.00000 32.00000 1.00000
v 60.00000 33.00000 0.00000
v 60.00000 33.00000 1.00000
v 60.00000 34.00000 0.00000
v 60.00000 34.00000 1.00000
v 60.00000 35.00000 0.00000
v 60.00000 35.00000 1.00000
v 60.00000 36.00000 0.00000
v 60.00000 36.00000 1.00000
v 60.00000 37.00000 0.00000
v 60.00000 37.00000 1.00000
v 60.00000 38.00000 0.00000
v 60.00000 38.00000 1.00000
v 60.00000 39.00000 0.00000
v 60.00000 39.00000 1.00000
v 60.00000 40.00000 1.00000
v 60.00000 40.00000 0.00000
v 61.00000 32.00000 0.00000
v 61.00000 32.00000 1.00000
v 61.00000 33.00000 0.00000
v 61.00000 33.00000 1.00000
v 61.00000 34.00000 0.00000
v 61.00000 34.00000 1.00000
v 61.00000 35.00000 0.00000
v 61.00000 35.00000 1.00000
v 61.00000 36.00000 0.00000
v 61.00000 36.00000 1.00000
v 61.00000 37.00000 0.00000
v 61.00000 37.00000 1.00000
v 61.00000 38.00000 0.00000
v 61.00000 38.00000 1.00000
v 61.00000 39.00000 0.00000
v 61.00000 39.00000 1.00000
v 61.00000 40.00000 1.00000
v 61.00000 40.00000 0.00000
v 62.00000 32.00000 0.00000
v 62.00000 32.00000 1.00000
v 62.00000 33.00000 0.00000
v 62.00000 33.00000 1.00000
v 62.00000 34.00000 0.00000
v 62.00000 34.00000 1.00000
v 62.00000 35.00000 0.00000
v 62.00000 35.00000 1.00000
v 62.00000 36.00000 0.00000
v 62.00000 36.00000 1.00000
v 62.00000 37.00000 0.00000
v 62.00000 37.00000 1.00000
v 62.00000 38.00000 0.00000
v 62.00000 38.00000 1.00000
v 62.00000 39.00000 0.00000
v 62.00000 39.00000 1.00000
v 62.00000 40.00000 1.00000
v 62.00000 40.00000 0.00000
v 63.00000 32.00000 0.00000
v 63.00000 32.00000 1.00000
v 63.00000 33.00000 0.00000
v 63.00000 33.00000 1.00000
v 63.00000 34.00000 0.00000
v 63.00000 34.00000 1.00000
v 63.00000 35.00000 0.00000
v 63.00000 35.00000 1.00000
v 63.00000 36.00000 0.00000
v 63.00000 36.00000 1.00000
v 63.00000 37.00000 0.00000
v 63.00000 37.00000 1.00000
v 63.00000 38.00000 0.00000
v 63.00000 38.00000 1.00000
v 63.00000 39.00000 0.00000
v 63.00000 39.00000 1.00000
v 63.00000 40.00000 1.00000
v 63.00000 40.00000 0.00000
v 64.00000 33.00000 1.00000
v 64.00000 32.00000 1.00000
v 64.00000 32.00000 0.00000
v 64.00000 33.00000 0.00000
v 64.00000 34.00000 1.00000
v 64.00000 34.00000 0.00000
v 64.00000 35.00000 1.00000
v 64.00000 35.00000 0.00000
v 64.00000 36.00000 1.00000
v 64.00000 36.00000 0.00000
v 64.00000 37.00000 1.00000
v 64.00000 37.00000 0.00000
v 64.00000 38.00000 1.00000
v 64.00000 38.00000 0.00000
v 64.00000 39.00000 1.00000
v 64.00000 39.00000 0.00000
v 64.00000 40.00000 1.00000
v 64.00000 40.00000 0.00000

vt 0.00391 0.01563
vt 0.00391 0.00781
vt 0.00781 0.00781
vt 0.00781 0.01563
vt 0.25000 0.43750
vt 0.25000 0.42969
vt 0.25391 0.42969
vt 0.25391 0.43750
vt 0.26172 0.43750
vt 0.26172 0.42969
vt 0.26563 0.42969
vt 0.26563 0.43750
vt 0.23828 0.43750
vt 0.23828 0.42969
vt 0.24219 0.42969
vt 0.24219 0.43750
vt 0.27344 0.43750
vt 0.27344 0.42969
vt 0.27734 0.42969
vt 0.27734 0.43750
vt 0.28516 0.43750
vt 0.28516 0.42969
vt 0.28906 0.42969
vt 0.28906 0.43750

g 101_Piece15_4_0
usemtl 101_Material
f 1/1/3 2/2/3 3/3/3 4/4/3
f 3/1/6 2/2/6 5/3/6 6/4/6
f 7/1/2 5/2/2 2/3/2 1/4/2
f 4/1/1 3/2/1 6/3/1 8/4/1
f 9/1/3 1/2/3 4/3/3 10/4/3
f 11/1/2 7/2/2 1/3/2 9/4/2
f 10/1/1 4/2/1 8/3/1 12/4/1
f 13/1/3 9/2/3 10/3/3 14/4/3
f 15/1/2 11/2/2 9/3/2 13/4/2
f 14/1/1 10/2/1 12/3/1 16/4/1
f 17/1/3 13/2/3 14/3/3 18/4/3
f 19/1/2 15/2/2 13/3/2 17/4/2
f 18/1/1 14/2/1 16/3/1 20/4/1
f 21/1/3 17/2/3 18/3/3 22/4/3
f 23/1/2 19/2/2 17/3/2 21/4/2
f 22/1/1 18/2/1 20/3/1 24/4/1
f 25/1/3 21/2/3 22/3/3 26/4/3
f 27/1/2 23/2/2 21/3/2 25/4/2
f 26/1/1 22/2/1 24/3/1 28/4/1
f 29/1/3 25/2/3 26/3/3 30/4/3
f 31/1/2 27/2/2 25/3/2 29/4/2
f 30/1/1 26/2/1 28/3/1 32/4/1
f 33/1/3 29/2/3 30/3/3 34/4/3
f 33/1/5 34/2/5 35/3/5 36/4/5
f 36/1/2 31/2/2 29/3/2 33/4/2
f 34/1/1 30/2/1 32/3/1 35/4/1
f 6/1/6 5/2/6 37/3/6 38/4/6
f 39/1/2 37/2/2 5/3/2 7/4/2
f 8/1/1 6/2/1 38/3/1 40/4/1
f 41/1/2 39/2/2 7/3/2 11/4/2
f 12/1/1 8/2/1 40/3/1 42/4/1
f 43/5/2 41/6/2 11/7/2 15/8/2
f 16/5/1 12/6/1 42/7/1 44/8/1
f 45/9/2 43/10/2 15/11/2 19/12/2
f 20/9/1 16/10/1 44/11/1 46/12/1
f 47/1/2 45/2/2 19/3/2 23/4/2
f 24/1/1 20/2/1 46/3/1 48/4/1
f 49/5/2 47/6/2 23/7/2 27/8/2
f 28/5/1 24/6/1 48/7/1 50/8/1
f 51/1/2 49/2/2 27/3/2 31/4/2
f 32/1/1 28/2/1 50/3/1 52/4/1
f 36/1/5 35/2/5 53/3/5 54/4/5
f 54/1/2 51/2/2 31/3/2 36/4/2
f 35/1/1 32/2/1 52/3/1 53/4/1
f 38/5/6 37/6/6 55/7/6 56/8/6
f 57/5/2 55/6/2 37/7/2 39/8/2
f 40/5/1 38/6/1 56/7/1 58/8/1
f 59/5/2 57/6/2 39/7/2 41/8/2
f 42/5/1 40/6/1 58/7/1 60/8/1
f 61/1/2 59/2/2 41/3/2 43/4/2
f 44/1/1 42/2/1 60/3/1 62/4/1
f 63/5/2 61/6/2 43/7/2 45/8/2
f 46/5/1 44/6/1 62/7/1 64/8/1
f 65/13/2 63/14/2 45/15/2 47/16/2
f 48/13/1 46/14/1 64/15/1 66/16/1
f 67/9/2 65/10/2 47/11/2 49/12/2
f 50/9/1 48/10/1 66/11/1 68/12/1
f 69/5/2 67/6/2 49/7/2 51/8/2
f 52/5/1 50/6/1 68/7/1 70/8/1
f 54/13/5 53/14/5 71/15/5 72/16/5
f 72/13/2 69/14/2 51/15/2 54/16/2
f 53/13/1 52/14/1 70/15/1 71/16/1
f 56/13/6 55/14/6 73/15/6 74/16/6
f 75/13/2 73/14/2 55/15/2 57/16/2
f 58/13/1 56/14/1 74/15/1 76/16/1
f 77/5/2 75/6/2 57/7/2 59/8/2
f 60/5/1 58/6/1 76/7/1 78/8/1
f 79/13/2 77/14/2 59/15/2 61/16/2
f 62/13/1 60/14/1 78/15/1 80/16/1
f 81/5/2 79/6/2 61/7/2 63/8/2
f 64/5/1 62/6/1 80/7/1 82/8/1
f 83/5/2 81/6/2 63/7/2 65/8/2
f 66/5/1 64/6/1 82/7/1 84/8/1
f 85/5/2 83/6/2 65/7/2 67/8/2
f 68/5/1 66/6/1 84/7/1 86/8/1
f 87/17/2 85/18/2 67/19/2 69/20/2
f 70/17/1 68/18/1 86/19/1 88/20/1
f 72/9/5 71/10/5 89/11/5 90/12/5
f 90/9/2 87/10/2 69/11/2 72/12/2
f 71/9/1 70/10/1 88/11/1 89/12/1
f 74/21/6 73/22/6 91/23/6 92/24/6
f 93/21/2 91/22/2 73/23/2 75/24/2
f 76/21/1 74/22/1 92/23/1 94/24/1
f 95/9/2 93/10/2 75/11/2 77/12/2
f 78/9/1 76/10/1 94/11/1 96/12/1
f 97/17/2 95/18/2 77/19/2 79/20/2
f 80/17/1 78/18/1 96/19/1 98/20/1
f 99/9/2 97/10/2 79/11/2 81/12/2
f 82/9/1 80/10/1 98/11/1 100/12/1
f 101/13/2 99/14/2 81/15/2 83/16/2
f 84/13/1 82/14/1 100/15/1 102/16/1
f 103/13/2 101/14/2 83/15/2 85/16/2
f 86/13/1 84/14/1 102/15/1 104/16/1
f 105/9/2 103/10/2 85/11/2 87/12/2
f 88/9/1 86/10/1 104/11/1 106/12/1
f 90/13/5 89/14/5 107/15/5 108/16/5
f 108/13/2 105/14/2 87/15/2 90/16/2
f 89/13/1 88/14/1 106/15/1 107/16/1
f 92/9/6 91/10/6 109/11/6 110/12/6
f 111/9/2 109/10/2 91/11/2 93/12/2
f 94/9/1 92/10/1 110/11/1 112/12/1
f 113/13/2 111/14/2 93/15/2 95/16/2
f 96/13/1 94/14/1 112/15/1 114/16/1
f 115/13/2 113/14/2 95/15/2 97/16/2
f 98/13/1 96/14/1 114/15/1 116/16/1
f 117/13/2 115/14/2 97/15/2 99/16/2
f 100/13/1 98/14/1 116/15/1 118/16/1
f 119/5/2 117/6/2 99/7/2 101/8/2
f 102/5/1 100/6/1 118/7/1 120/8/1
f 121/13/2 119/14/2 101/15/2 103/16/2
f 104/13/1 102/14/1 120/15/1 122/16/1
f 123/5/2 121/6/2 103/7/2 105/8/2
f 106/5/1 104/6/1 122/7/1 124/8/1
f 108/5/5 107/6/5 125/7/5 126/8/5
f 126/5/2 123/6/2 105/7/2 108/8/2
f 107/5/1 106/6/1 124/7/1 125/8/1
f 110/1/6 109/2/6 127/3/6 128/4/6
f 129/1/2 127/2/2 109/3/2 111/4/2
f 112/1/1 110/2/1 128/3/1 130/4/1
f 131/5/2 129/6/2 111/7/2 113/8/2
f 114/5/1 112/6/1 130/7/1 132/8/1
f 133/1/2 131/2/2 113/3/2 115/4/2
f 116/1/1 114/2/1 132/3/1 134/4/1
f 135/5/2 133/6/2 115/7/2 117/8/2
f 118/5/1 116/6/1 134/7/1 136/8/1
f 137/13/2 135/14/2 117/15/2 119/16/2
f 120/13/1 118/14/1 136/15/1 138/16/1
f 139/1/2 137/2/2 119/3/2 121/4/2
f 122/1/1 120/2/1 138/3/1 140/4/1
f 141/1/2 139/2/2 121/3/2 123/4/2
f 124/1/1 122/2/1 140/3/1 142/4/1
f 126/1/5 125/2/5 143/3/5 144/4/5
f 144/1/2 141/2/2 123/3/2 126/4/2
f 125/1/1 124/2/1 142/3/1 143/4/1
f 145/1/4 146/2/4 147/3/4 148/4/4
f 128/1/6 127/2/6 147/3/6 146/4/6
f 148/1/2 147/2/2 127/3/2 129/4/2
f 130/1/1 128/2/1 146/3/1 145/4/1
f 149/1/4 145/2/4 148/3/4 150/4/4
f 150/1/2 148/2/2 129/3/2 131/4/2
f 132/1/1 130/2/1 145/3/1 149/4/1
f 151/1/4 149/2/4 150/3/4 152/4/4
f 152/1/2 150/2/2 131/3/2 133/4/2
f 134/1/1 132/2/1 149/3/1 151/4/1
f 153/1/4 151/2/4 152/3/4 154/4/4
f 154/1/2 152/2/2 133/3/2 135/4/2
f 136/1/1 134/2/1 151/3/1 153/4/1
f 155/1/4 153/2/4 154/3/4 156/4/4
f 156/1/2 154/2/2 135/3/2 137/4/2
f 138/1/1 136/2/1 153/3/1 155/4/1
f 157/1/4 155/2/4 156/3/4 158/4/4
f 158/1/2 156/2/2 137/3/2 139/4/2
f 140/1/1 138/2/1 155/3/1 157/4/1
f 159/1/4 157/2/4 158/3/4 160/4/4
f 160/1/2 158/2/2 139/3/2 141/4/2
f 142/1/1 140/2/1 157/3/1 159/4/1
f 161/1/4 159/2/4 160/3/4 162/4/4
f 144/1/5 143/2/5 161/3/5 162/4/5
f 162/1/2 160/2/2 141/3/2 144/4/2
f 143/1/1 142/2/1 159/3/1 161/4/1
