# This file was created with Minddesk Qubicle 3.0
# Get Qubicle at www.getqubicle.com

mtllib 101_Piece15_9_0.mtl

vn 0.0 0.0 1.0
vn 0.0 0.0 -1.0
vn -1.0 0.0 0.0
vn 1.0 0.0 0.0
vn 0.0 1.0 0.0
vn 0.0 -1.0 0.0

v 56.00000 73.00000 0.00000
v 56.00000 72.00000 0.00000
v 56.00000 72.00000 1.00000
v 56.00000 73.00000 1.00000
v 57.00000 72.00000 0.00000
v 57.00000 72.00000 1.00000
v 57.00000 73.00000 0.00000
v 57.00000 73.00000 1.00000
v 56.00000 74.00000 0.00000
v 56.00000 74.00000 1.00000
v 57.00000 74.00000 0.00000
v 57.00000 74.00000 1.00000
v 56.00000 75.00000 0.00000
v 56.00000 75.00000 1.00000
v 57.00000 75.00000 0.00000
v 57.00000 75.00000 1.00000
v 56.00000 76.00000 0.00000
v 56.00000 76.00000 1.00000
v 57.00000 76.00000 0.00000
v 57.00000 76.00000 1.00000
v 56.00000 77.00000 0.00000
v 56.00000 77.00000 1.00000
v 57.00000 77.00000 0.00000
v 57.00000 77.00000 1.00000
v 56.00000 78.00000 0.00000
v 56.00000 78.00000 1.00000
v 57.00000 78.00000 0.00000
v 57.00000 78.00000 1.00000
v 56.00000 79.00000 0.00000
v 56.00000 79.00000 1.00000
v 57.00000 79.00000 0.00000
v 57.00000 79.00000 1.00000
v 56.00000 80.00000 0.00000
v 56.00000 80.00000 1.00000
v 57.00000 80.00000 1.00000
v 57.00000 80.00000 0.00000
v 58.00000 72.00000 0.00000
v 58.00000 72.00000 1.00000
v 58.00000 73.00000 0.00000
v 58.00000 73.00000 1.00000
v 58.00000 74.00000 0.00000
v 58.00000 74.00000 1.00000
v 58.00000 75.00000 0.00000
v 58.00000 75.00000 1.00000
v 58.00000 76.00000 0.00000
v 58.00000 76.00000 1.00000
v 58.00000 77.00000 0.00000
v 58.00000 77.00000 1.00000
v 58.00000 78.00000 0.00000
v 58.00000 78.00000 1.00000
v 58.00000 79.00000 0.00000
v 58.00000 79.00000 1.00000
v 58.00000 80.00000 1.00000
v 58.00000 80.00000 0.00000
v 59.00000 72.00000 0.00000
v 59.00000 72.00000 1.00000
v 59.00000 73.00000 0.00000
v 59.00000 73.00000 1.00000
v 59.00000 74.00000 0.00000
v 59.00000 74.00000 1.00000
v 59.00000 75.00000 0.00000
v 59.00000 75.00000 1.00000
v 59.00000 76.00000 0.00000
v 59.00000 76.00000 1.00000
v 59.00000 77.00000 0.00000
v 59.00000 77.00000 1.00000
v 59.00000 78.00000 0.00000
v 59.00000 78.00000 1.00000
v 59.00000 79.00000 0.00000
v 59.00000 79.00000 1.00000
v 59.00000 80.00000 1.00000
v 59.00000 80.00000 0.00000
v 60.00000 72.00000 0.00000
v 60.00000 72.00000 1.00000
v 60.00000 73.00000 0.00000
v 60.00000 73.00000 1.00000
v 60.00000 74.00000 0.00000
v 60.00000 74.00000 1.00000
v 60.00000 75.00000 0.00000
v 60.00000 75.00000 1.00000
v 60.00000 76.00000 0.00000
v 60.00000 76.00000 1.00000
v 60.00000 77.00000 0.00000
v 60.00000 77.00000 1.00000
v 60.00000 78.00000 0.00000
v 60.00000 78.00000 1.00000
v 60.00000 79.00000 0.00000
v 60.00000 79.00000 1.00000
v 60.00000 80.00000 1.00000
v 60.00000 80.00000 0.00000
v 61.00000 72.00000 0.00000
v 61.00000 72.00000 1.00000
v 61.00000 73.00000 0.00000
v 61.00000 73.00000 1.00000
v 61.00000 74.00000 0.00000
v 61.00000 74.00000 1.00000
v 61.00000 75.00000 0.00000
v 61.00000 75.00000 1.00000
v 61.00000 76.00000 0.00000
v 61.00000 76.00000 1.00000
v 61.00000 77.00000 0.00000
v 61.00000 77.00000 1.00000
v 61.00000 78.00000 0.00000
v 61.00000 78.00000 1.00000
v 61.00000 79.00000 0.00000
v 61.00000 79.00000 1.00000
v 61.00000 80.00000 1.00000
v 61.00000 80.00000 0.00000
v 62.00000 72.00000 0.00000
v 62.00000 72.00000 1.00000
v 62.00000 73.00000 0.00000
v 62.00000 73.00000 1.00000
v 62.00000 74.00000 0.00000
v 62.00000 74.00000 1.00000
v 62.00000 75.00000 0.00000
v 62.00000 75.00000 1.00000
v 62.00000 76.00000 0.00000
v 62.00000 76.00000 1.00000
v 62.00000 77.00000 0.00000
v 62.00000 77.00000 1.00000
v 62.00000 78.00000 0.00000
v 62.00000 78.00000 1.00000
v 62.00000 79.00000 0.00000
v 62.00000 79.00000 1.00000
v 62.00000 80.00000 1.00000
v 62.00000 80.00000 0.00000
v 63.00000 72.00000 0.00000
v 63.00000 72.00000 1.00000
v 63.00000 73.00000 0.00000
v 63.00000 73.00000 1.00000
v 63.00000 74.00000 0.00000
v 63.00000 74.00000 1.00000
v 63.00000 75.00000 0.00000
v 63.00000 75.00000 1.00000
v 63.00000 76.00000 0.00000
v 63.00000 76.00000 1.00000
v 63.00000 77.00000 0.00000
v 63.00000 77.00000 1.00000
v 63.00000 78.00000 0.00000
v 63.00000 78.00000 1.00000
v 63.00000 79.00000 0.00000
v 63.00000 79.00000 1.00000
v 63.00000 80.00000 1.00000
v 63.00000 80.00000 0.00000
v 64.00000 73.00000 1.00000
v 64.00000 72.00000 1.00000
v 64.00000 72.00000 0.00000
v 64.00000 73.00000 0.00000
v 64.00000 74.00000 1.00000
v 64.00000 74.00000 0.00000
v 64.00000 75.00000 1.00000
v 64.00000 75.00000 0.00000
v 64.00000 76.00000 1.00000
v 64.00000 76.00000 0.00000
v 64.00000 77.00000 1.00000
v 64.00000 77.00000 0.00000
v 64.00000 78.00000 1.00000
v 64.00000 78.00000 0.00000
v 64.00000 79.00000 1.00000
v 64.00000 79.00000 0.00000
v 64.00000 80.00000 1.00000
v 64.00000 80.00000 0.00000

vt 0.42578 0.48438
vt 0.42578 0.47656
vt 0.42969 0.47656
vt 0.42969 0.48438
vt 0.43750 0.48438
vt 0.43750 0.47656
vt 0.44141 0.47656
vt 0.44141 0.48438
vt 0.40234 0.10938
vt 0.40234 0.10156
vt 0.40625 0.10156
vt 0.40625 0.10938
vt 0.37891 0.10938
vt 0.37891 0.10156
vt 0.38281 0.10156
vt 0.38281 0.10938
vt 0.44922 0.48438
vt 0.44922 0.47656
vt 0.45313 0.47656
vt 0.45313 0.48438
vt 0.47266 0.08594
vt 0.47266 0.07813
vt 0.47656 0.07813
vt 0.47656 0.08594
vt 0.46094 0.48438
vt 0.46094 0.47656
vt 0.46484 0.47656
vt 0.46484 0.48438
vt 0.47266 0.48438
vt 0.47266 0.47656
vt 0.47656 0.47656
vt 0.47656 0.48438
vt 0.39063 0.10938
vt 0.39063 0.10156
vt 0.39453 0.10156
vt 0.39453 0.10938
vt 0.12109 0.48438
vt 0.12109 0.47656
vt 0.12500 0.47656
vt 0.12500 0.48438

g 101_Piece15_9_0
usemtl 101_Material
f 1/1/3 2/2/3 3/3/3 4/4/3
f 3/1/6 2/2/6 5/3/6 6/4/6
f 7/1/2 5/2/2 2/3/2 1/4/2
f 4/1/1 3/2/1 6/3/1 8/4/1
f 9/1/3 1/2/3 4/3/3 10/4/3
f 11/1/2 7/2/2 1/3/2 9/4/2
f 10/1/1 4/2/1 8/3/1 12/4/1
f 13/5/3 9/6/3 10/7/3 14/8/3
f 15/5/2 11/6/2 9/7/2 13/8/2
f 14/5/1 10/6/1 12/7/1 16/8/1
f 17/5/3 13/6/3 14/7/3 18/8/3
f 19/5/2 15/6/2 13/7/2 17/8/2
f 18/5/1 14/6/1 16/7/1 20/8/1
f 21/5/3 17/6/3 18/7/3 22/8/3
f 23/5/2 19/6/2 17/7/2 21/8/2
f 22/5/1 18/6/1 20/7/1 24/8/1
f 25/5/3 21/6/3 22/7/3 26/8/3
f 27/5/2 23/6/2 21/7/2 25/8/2
f 26/5/1 22/6/1 24/7/1 28/8/1
f 29/5/3 25/6/3 26/7/3 30/8/3
f 31/5/2 27/6/2 25/7/2 29/8/2
f 30/5/1 26/6/1 28/7/1 32/8/1
f 33/1/3 29/2/3 30/3/3 34/4/3
f 33/1/5 34/2/5 35/3/5 36/4/5
f 36/1/2 31/2/2 29/3/2 33/4/2
f 34/1/1 30/2/1 32/3/1 35/4/1
f 6/9/6 5/10/6 37/11/6 38/12/6
f 39/9/2 37/10/2 5/11/2 7/12/2
f 8/9/1 6/10/1 38/11/1 40/12/1
f 41/13/2 39/14/2 7/15/2 11/16/2
f 12/13/1 8/14/1 40/15/1 42/16/1
f 43/17/2 41/18/2 11/19/2 15/20/2
f 16/17/1 12/18/1 42/19/1 44/20/1
f 45/17/2 43/18/2 15/19/2 19/20/2
f 20/17/1 16/18/1 44/19/1 46/20/1
f 47/21/2 45/22/2 19/23/2 23/24/2
f 24/21/1 20/22/1 46/23/1 48/24/1
f 49/25/2 47/26/2 23/27/2 27/28/2
f 28/25/1 24/26/1 48/27/1 50/28/1
f 51/29/2 49/30/2 27/31/2 31/32/2
f 32/29/1 28/30/1 50/31/1 52/32/1
f 36/5/5 35/6/5 53/7/5 54/8/5
f 54/5/2 51/6/2 31/7/2 36/8/2
f 35/5/1 32/6/1 52/7/1 53/8/1
f 38/13/6 37/14/6 55/15/6 56/16/6
f 57/13/2 55/14/2 37/15/2 39/16/2
f 40/13/1 38/14/1 56/15/1 58/16/1
f 59/33/2 57/34/2 39/35/2 41/36/2
f 42/33/1 40/34/1 58/35/1 60/36/1
f 61/37/2 59/38/2 41/39/2 43/40/2
f 44/37/1 42/38/1 60/39/1 62/40/1
f 63/37/2 61/38/2 43/39/2 45/40/2
f 46/37/1 44/38/1 62/39/1 64/40/1
f 65/17/2 63/18/2 45/19/2 47/20/2
f 48/17/1 46/18/1 64/19/1 66/20/1
f 67/21/2 65/22/2 47/23/2 49/24/2
f 50/21/1 48/22/1 66/23/1 68/24/1
f 69/25/2 67/26/2 49/27/2 51/28/2
f 52/25/1 50/26/1 68/27/1 70/28/1
f 54/5/5 53/6/5 71/7/5 72/8/5
f 72/5/2 69/6/2 51/7/2 54/8/2
f 53/5/1 52/6/1 70/7/1 71/8/1
f 56/9/6 55/10/6 73/11/6 74/12/6
f 75/9/2 73/10/2 55/11/2 57/12/2
f 58/9/1 56/10/1 74/11/1 76/12/1
f 77/13/2 75/14/2 57/15/2 59/16/2
f 60/13/1 58/14/1 76/15/1 78/16/1
f 79/17/2 77/18/2 59/19/2 61/20/2
f 62/17/1 60/18/1 78/19/1 80/20/1
f 81/17/2 79/18/2 61/19/2 63/20/2
f 64/17/1 62/18/1 80/19/1 82/20/1
f 83/21/2 81/22/2 63/23/2 65/24/2
f 66/21/1 64/22/1 82/23/1 84/24/1
f 85/25/2 83/26/2 65/27/2 67/28/2
f 68/25/1 66/26/1 84/27/1 86/28/1
f 87/21/2 85/22/2 67/23/2 69/24/2
f 70/21/1 68/22/1 86/23/1 88/24/1
f 72/5/5 71/6/5 89/7/5 90/8/5
f 90/5/2 87/6/2 69/7/2 72/8/2
f 71/5/1 70/6/1 88/7/1 89/8/1
f 74/9/6 73/10/6 91/11/6 92/12/6
f 93/9/2 91/10/2 73/11/2 75/12/2
f 76/9/1 74/10/1 92/11/1 94/12/1
f 95/13/2 93/14/2 75/15/2 77/16/2
f 78/13/1 76/14/1 94/15/1 96/16/1
f 97/17/2 95/18/2 77/19/2 79/20/2
f 80/17/1 78/18/1 96/19/1 98/20/1
f 99/21/2 97/22/2 79/23/2 81/24/2
f 82/21/1 80/22/1 98/23/1 100/24/1
f 101/29/2 99/30/2 81/31/2 83/32/2
f 84/29/1 82/30/1 100/31/1 102/32/1
f 103/25/2 101/26/2 83/27/2 85/28/2
f 86/25/1 84/26/1 102/27/1 104/28/1
f 105/21/2 103/22/2 85/23/2 87/24/2
f 88/21/1 86/22/1 104/23/1 106/24/1
f 90/5/5 89/6/5 107/7/5 108/8/5
f 108/5/2 105/6/2 87/7/2 90/8/2
f 89/5/1 88/6/1 106/7/1 107/8/1
f 92/13/6 91/14/6 109/15/6 110/16/6
f 111/13/2 109/14/2 91/15/2 93/16/2
f 94/13/1 92/14/1 110/15/1 112/16/1
f 113/33/2 111/34/2 93/35/2 95/36/2
f 96/33/1 94/34/1 112/35/1 114/36/1
f 115/37/2 113/38/2 95/39/2 97/40/2
f 98/37/1 96/38/1 114/39/1 116/40/1
f 117/17/2 115/18/2 97/19/2 99/20/2
f 100/17/1 98/18/1 116/19/1 118/20/1
f 119/21/2 117/22/2 99/23/2 101/24/2
f 102/21/1 100/22/1 118/23/1 120/24/1
f 121/21/2 119/22/2 101/23/2 103/24/2
f 104/21/1 102/22/1 120/23/1 122/24/1
f 123/25/2 121/26/2 103/27/2 105/28/2
f 106/25/1 104/26/1 122/27/1 124/28/1
f 108/5/5 107/6/5 125/7/5 126/8/5
f 126/5/2 123/6/2 105/7/2 108/8/2
f 107/5/1 106/6/1 124/7/1 125/8/1
f 110/9/6 109/10/6 127/11/6 128/12/6
f 129/9/2 127/10/2 109/11/2 111/12/2
f 112/9/1 110/10/1 128/11/1 130/12/1
f 131/13/2 129/14/2 111/15/2 113/16/2
f 114/13/1 112/14/1 130/15/1 132/16/1
f 133/17/2 131/18/2 113/19/2 115/20/2
f 116/17/1 114/18/1 132/19/1 134/20/1
f 135/17/2 133/18/2 115/19/2 117/20/2
f 118/17/1 116/18/1 134/19/1 136/20/1
f 137/21/2 135/22/2 117/23/2 119/24/2
f 120/21/1 118/22/1 136/23/1 138/24/1
f 139/25/2 137/26/2 119/27/2 121/28/2
f 122/25/1 120/26/1 138/27/1 140/28/1
f 141/29/2 139/30/2 121/31/2 123/32/2
f 124/29/1 122/30/1 140/31/1 142/32/1
f 126/5/5 125/6/5 143/7/5 144/8/5
f 144/5/2 141/6/2 123/7/2 126/8/2
f 125/5/1 124/6/1 142/7/1 143/8/1
f 145/1/4 146/2/4 147/3/4 148/4/4
f 128/1/6 127/2/6 147/3/6 146/4/6
f 148/1/2 147/2/2 127/3/2 129/4/2
f 130/1/1 128/2/1 146/3/1 145/4/1
f 149/1/4 145/2/4 148/3/4 150/4/4
f 150/1/2 148/2/2 129/3/2 131/4/2
f 132/1/1 130/2/1 145/3/1 149/4/1
f 151/5/4 149/6/4 150/7/4 152/8/4
f 152/5/2 150/6/2 131/7/2 133/8/2
f 134/5/1 132/6/1 149/7/1 151/8/1
f 153/5/4 151/6/4 152/7/4 154/8/4
f 154/5/2 152/6/2 133/7/2 135/8/2
f 136/5/1 134/6/1 151/7/1 153/8/1
f 155/5/4 153/6/4 154/7/4 156/8/4
f 156/5/2 154/6/2 135/7/2 137/8/2
f 138/5/1 136/6/1 153/7/1 155/8/1
f 157/5/4 155/6/4 156/7/4 158/8/4
f 158/5/2 156/6/2 137/7/2 139/8/2
f 140/5/1 138/6/1 155/7/1 157/8/1
f 159/5/4 157/6/4 158/7/4 160/8/4
f 160/5/2 158/6/2 139/7/2 141/8/2
f 142/5/1 140/6/1 157/7/1 159/8/1
f 161/1/4 159/2/4 160/3/4 162/4/4
f 144/1/5 143/2/5 161/3/5 162/4/5
f 162/1/2 160/2/2 141/3/2 144/4/2
f 143/1/1 142/2/1 159/3/1 161/4/1
