# This file was created with Minddesk Qubicle 3.0
# Get Qubicle at www.getqubicle.com

mtllib 101_Piece4_20_0.mtl

vn 0.0 0.0 1.0
vn 0.0 0.0 -1.0
vn -1.0 0.0 0.0
vn 1.0 0.0 0.0
vn 0.0 1.0 0.0
vn 0.0 -1.0 0.0

v -32.00000 161.00000 0.00000
v -32.00000 160.00000 0.00000
v -32.00000 160.00000 1.00000
v -32.00000 161.00000 1.00000
v -31.00000 160.00000 0.00000
v -31.00000 160.00000 1.00000
v -31.00000 161.00000 0.00000
v -31.00000 161.00000 1.00000
v -32.00000 162.00000 0.00000
v -32.00000 162.00000 1.00000
v -31.00000 162.00000 0.00000
v -31.00000 162.00000 1.00000
v -32.00000 163.00000 0.00000
v -32.00000 163.00000 1.00000
v -31.00000 163.00000 0.00000
v -31.00000 163.00000 1.00000
v -32.00000 164.00000 0.00000
v -32.00000 164.00000 1.00000
v -31.00000 164.00000 0.00000
v -31.00000 164.00000 1.00000
v -32.00000 165.00000 0.00000
v -32.00000 165.00000 1.00000
v -31.00000 165.00000 0.00000
v -31.00000 165.00000 1.00000
v -32.00000 166.00000 0.00000
v -32.00000 166.00000 1.00000
v -31.00000 166.00000 0.00000
v -31.00000 166.00000 1.00000
v -32.00000 167.00000 0.00000
v -32.00000 167.00000 1.00000
v -31.00000 167.00000 0.00000
v -31.00000 167.00000 1.00000
v -32.00000 168.00000 0.00000
v -32.00000 168.00000 1.00000
v -31.00000 168.00000 1.00000
v -31.00000 168.00000 0.00000
v -30.00000 160.00000 0.00000
v -30.00000 160.00000 1.00000
v -30.00000 161.00000 0.00000
v -30.00000 161.00000 1.00000
v -30.00000 162.00000 0.00000
v -30.00000 162.00000 1.00000
v -30.00000 163.00000 0.00000
v -30.00000 163.00000 1.00000
v -30.00000 164.00000 0.00000
v -30.00000 164.00000 1.00000
v -30.00000 165.00000 0.00000
v -30.00000 165.00000 1.00000
v -30.00000 166.00000 0.00000
v -30.00000 166.00000 1.00000
v -30.00000 167.00000 0.00000
v -30.00000 167.00000 1.00000
v -30.00000 168.00000 1.00000
v -30.00000 168.00000 0.00000
v -29.00000 160.00000 0.00000
v -29.00000 160.00000 1.00000
v -29.00000 161.00000 0.00000
v -29.00000 161.00000 1.00000
v -29.00000 162.00000 0.00000
v -29.00000 162.00000 1.00000
v -29.00000 163.00000 0.00000
v -29.00000 163.00000 1.00000
v -29.00000 164.00000 0.00000
v -29.00000 164.00000 1.00000
v -29.00000 165.00000 0.00000
v -29.00000 165.00000 1.00000
v -29.00000 166.00000 0.00000
v -29.00000 166.00000 1.00000
v -29.00000 167.00000 0.00000
v -29.00000 167.00000 1.00000
v -29.00000 168.00000 1.00000
v -29.00000 168.00000 0.00000
v -28.00000 160.00000 0.00000
v -28.00000 160.00000 1.00000
v -28.00000 161.00000 0.00000
v -28.00000 161.00000 1.00000
v -28.00000 162.00000 0.00000
v -28.00000 162.00000 1.00000
v -28.00000 163.00000 0.00000
v -28.00000 163.00000 1.00000
v -28.00000 164.00000 0.00000
v -28.00000 164.00000 1.00000
v -28.00000 165.00000 0.00000
v -28.00000 165.00000 1.00000
v -28.00000 166.00000 0.00000
v -28.00000 166.00000 1.00000
v -28.00000 167.00000 0.00000
v -28.00000 167.00000 1.00000
v -28.00000 168.00000 1.00000
v -28.00000 168.00000 0.00000
v -27.00000 160.00000 0.00000
v -27.00000 160.00000 1.00000
v -27.00000 161.00000 0.00000
v -27.00000 161.00000 1.00000
v -27.00000 162.00000 0.00000
v -27.00000 162.00000 1.00000
v -27.00000 163.00000 0.00000
v -27.00000 163.00000 1.00000
v -27.00000 164.00000 0.00000
v -27.00000 164.00000 1.00000
v -27.00000 165.00000 0.00000
v -27.00000 165.00000 1.00000
v -27.00000 166.00000 0.00000
v -27.00000 166.00000 1.00000
v -27.00000 167.00000 0.00000
v -27.00000 167.00000 1.00000
v -27.00000 168.00000 1.00000
v -27.00000 168.00000 0.00000
v -26.00000 160.00000 0.00000
v -26.00000 160.00000 1.00000
v -26.00000 161.00000 0.00000
v -26.00000 161.00000 1.00000
v -26.00000 162.00000 0.00000
v -26.00000 162.00000 1.00000
v -26.00000 163.00000 0.00000
v -26.00000 163.00000 1.00000
v -26.00000 164.00000 0.00000
v -26.00000 164.00000 1.00000
v -26.00000 165.00000 0.00000
v -26.00000 165.00000 1.00000
v -26.00000 166.00000 0.00000
v -26.00000 166.00000 1.00000
v -26.00000 167.00000 0.00000
v -26.00000 167.00000 1.00000
v -26.00000 168.00000 1.00000
v -26.00000 168.00000 0.00000
v -25.00000 160.00000 0.00000
v -25.00000 160.00000 1.00000
v -25.00000 161.00000 0.00000
v -25.00000 161.00000 1.00000
v -25.00000 162.00000 0.00000
v -25.00000 162.00000 1.00000
v -25.00000 163.00000 0.00000
v -25.00000 163.00000 1.00000
v -25.00000 164.00000 0.00000
v -25.00000 164.00000 1.00000
v -25.00000 165.00000 0.00000
v -25.00000 165.00000 1.00000
v -25.00000 166.00000 0.00000
v -25.00000 166.00000 1.00000
v -25.00000 167.00000 0.00000
v -25.00000 167.00000 1.00000
v -25.00000 168.00000 1.00000
v -25.00000 168.00000 0.00000
v -24.00000 161.00000 1.00000
v -24.00000 160.00000 1.00000
v -24.00000 160.00000 0.00000
v -24.00000 161.00000 0.00000
v -24.00000 162.00000 1.00000
v -24.00000 162.00000 0.00000
v -24.00000 163.00000 1.00000
v -24.00000 163.00000 0.00000
v -24.00000 164.00000 1.00000
v -24.00000 164.00000 0.00000
v -24.00000 165.00000 1.00000
v -24.00000 165.00000 0.00000
v -24.00000 166.00000 1.00000
v -24.00000 166.00000 0.00000
v -24.00000 167.00000 1.00000
v -24.00000 167.00000 0.00000
v -24.00000 168.00000 1.00000
v -24.00000 168.00000 0.00000

vt 0.42578 0.15625
vt 0.42578 0.14844
vt 0.42969 0.14844
vt 0.42969 0.15625
vt 0.41406 0.15625
vt 0.41406 0.14844
vt 0.41797 0.14844
vt 0.41797 0.15625
vt 0.43750 0.15625
vt 0.43750 0.14844
vt 0.44141 0.14844
vt 0.44141 0.15625

g 101_Piece4_20_0
usemtl 101_Material
f 1/1/3 2/2/3 3/3/3 4/4/3
f 3/1/6 2/2/6 5/3/6 6/4/6
f 7/1/2 5/2/2 2/3/2 1/4/2
f 4/1/1 3/2/1 6/3/1 8/4/1
f 9/1/3 1/2/3 4/3/3 10/4/3
f 11/1/2 7/2/2 1/3/2 9/4/2
f 10/1/1 4/2/1 8/3/1 12/4/1
f 13/5/3 9/6/3 10/7/3 14/8/3
f 15/5/2 11/6/2 9/7/2 13/8/2
f 14/5/1 10/6/1 12/7/1 16/8/1
f 17/9/3 13/10/3 14/11/3 18/12/3
f 19/9/2 15/10/2 13/11/2 17/12/2
f 18/9/1 14/10/1 16/11/1 20/12/1
f 21/1/3 17/2/3 18/3/3 22/4/3
f 23/1/2 19/2/2 17/3/2 21/4/2
f 22/1/1 18/2/1 20/3/1 24/4/1
f 25/1/3 21/2/3 22/3/3 26/4/3
f 27/1/2 23/2/2 21/3/2 25/4/2
f 26/1/1 22/2/1 24/3/1 28/4/1
f 29/1/3 25/2/3 26/3/3 30/4/3
f 31/1/2 27/2/2 25/3/2 29/4/2
f 30/1/1 26/2/1 28/3/1 32/4/1
f 33/9/3 29/10/3 30/11/3 34/12/3
f 33/9/5 34/10/5 35/11/5 36/12/5
f 36/9/2 31/10/2 29/11/2 33/12/2
f 34/9/1 30/10/1 32/11/1 35/12/1
f 6/1/6 5/2/6 37/3/6 38/4/6
f 39/1/2 37/2/2 5/3/2 7/4/2
f 8/1/1 6/2/1 38/3/1 40/4/1
f 41/1/2 39/2/2 7/3/2 11/4/2
f 12/1/1 8/2/1 40/3/1 42/4/1
f 43/1/2 41/2/2 11/3/2 15/4/2
f 16/1/1 12/2/1 42/3/1 44/4/1
f 45/9/2 43/10/2 15/11/2 19/12/2
f 20/9/1 16/10/1 44/11/1 46/12/1
f 47/1/2 45/2/2 19/3/2 23/4/2
f 24/1/1 20/2/1 46/3/1 48/4/1
f 49/1/2 47/2/2 23/3/2 27/4/2
f 28/1/1 24/2/1 48/3/1 50/4/1
f 51/1/2 49/2/2 27/3/2 31/4/2
f 32/1/1 28/2/1 50/3/1 52/4/1
f 36/9/5 35/10/5 53/11/5 54/12/5
f 54/9/2 51/10/2 31/11/2 36/12/2
f 35/9/1 32/10/1 52/11/1 53/12/1
f 38/9/6 37/10/6 55/11/6 56/12/6
f 57/9/2 55/10/2 37/11/2 39/12/2
f 40/9/1 38/10/1 56/11/1 58/12/1
f 59/9/2 57/10/2 39/11/2 41/12/2
f 42/9/1 40/10/1 58/11/1 60/12/1
f 61/9/2 59/10/2 41/11/2 43/12/2
f 44/9/1 42/10/1 60/11/1 62/12/1
f 63/9/2 61/10/2 43/11/2 45/12/2
f 46/9/1 44/10/1 62/11/1 64/12/1
f 65/1/2 63/2/2 45/3/2 47/4/2
f 48/1/1 46/2/1 64/3/1 66/4/1
f 67/1/2 65/2/2 47/3/2 49/4/2
f 50/1/1 48/2/1 66/3/1 68/4/1
f 69/1/2 67/2/2 49/3/2 51/4/2
f 52/1/1 50/2/1 68/3/1 70/4/1
f 54/9/5 53/10/5 71/11/5 72/12/5
f 72/9/2 69/10/2 51/11/2 54/12/2
f 53/9/1 52/10/1 70/11/1 71/12/1
f 56/5/6 55/6/6 73/7/6 74/8/6
f 75/5/2 73/6/2 55/7/2 57/8/2
f 58/5/1 56/6/1 74/7/1 76/8/1
f 77/1/2 75/2/2 57/3/2 59/4/2
f 60/1/1 58/2/1 76/3/1 78/4/1
f 79/1/2 77/2/2 59/3/2 61/4/2
f 62/1/1 60/2/1 78/3/1 80/4/1
f 81/9/2 79/10/2 61/11/2 63/12/2
f 64/9/1 62/10/1 80/11/1 82/12/1
f 83/5/2 81/6/2 63/7/2 65/8/2
f 66/5/1 64/6/1 82/7/1 84/8/1
f 85/1/2 83/2/2 65/3/2 67/4/2
f 68/1/1 66/2/1 84/3/1 86/4/1
f 87/1/2 85/2/2 67/3/2 69/4/2
f 70/1/1 68/2/1 86/3/1 88/4/1
f 72/9/5 71/10/5 89/11/5 90/12/5
f 90/9/2 87/10/2 69/11/2 72/12/2
f 71/9/1 70/10/1 88/11/1 89/12/1
f 74/5/6 73/6/6 91/7/6 92/8/6
f 93/5/2 91/6/2 73/7/2 75/8/2
f 76/5/1 74/6/1 92/7/1 94/8/1
f 95/1/2 93/2/2 75/3/2 77/4/2
f 78/1/1 76/2/1 94/3/1 96/4/1
f 97/1/2 95/2/2 77/3/2 79/4/2
f 80/1/1 78/2/1 96/3/1 98/4/1
f 99/9/2 97/10/2 79/11/2 81/12/2
f 82/9/1 80/10/1 98/11/1 100/12/1
f 101/5/2 99/6/2 81/7/2 83/8/2
f 84/5/1 82/6/1 100/7/1 102/8/1
f 103/1/2 101/2/2 83/3/2 85/4/2
f 86/1/1 84/2/1 102/3/1 104/4/1
f 105/1/2 103/2/2 85/3/2 87/4/2
f 88/1/1 86/2/1 104/3/1 106/4/1
f 90/9/5 89/10/5 107/11/5 108/12/5
f 108/9/2 105/10/2 87/11/2 90/12/2
f 89/9/1 88/10/1 106/11/1 107/12/1
f 92/1/6 91/2/6 109/3/6 110/4/6
f 111/1/2 109/2/2 91/3/2 93/4/2
f 94/1/1 92/2/1 110/3/1 112/4/1
f 113/1/2 111/2/2 93/3/2 95/4/2
f 96/1/1 94/2/1 112/3/1 114/4/1
f 115/1/2 113/2/2 95/3/2 97/4/2
f 98/1/1 96/2/1 114/3/1 116/4/1
f 117/9/2 115/10/2 97/11/2 99/12/2
f 100/9/1 98/10/1 116/11/1 118/12/1
f 119/1/2 117/2/2 99/3/2 101/4/2
f 102/1/1 100/2/1 118/3/1 120/4/1
f 121/1/2 119/2/2 101/3/2 103/4/2
f 104/1/1 102/2/1 120/3/1 122/4/1
f 123/1/2 121/2/2 103/3/2 105/4/2
f 106/1/1 104/2/1 122/3/1 124/4/1
f 108/9/5 107/10/5 125/11/5 126/12/5
f 126/9/2 123/10/2 105/11/2 108/12/2
f 107/9/1 106/10/1 124/11/1 125/12/1
f 110/1/6 109/2/6 127/3/6 128/4/6
f 129/1/2 127/2/2 109/3/2 111/4/2
f 112/1/1 110/2/1 128/3/1 130/4/1
f 131/1/2 129/2/2 111/3/2 113/4/2
f 114/1/1 112/2/1 130/3/1 132/4/1
f 133/1/2 131/2/2 113/3/2 115/4/2
f 116/1/1 114/2/1 132/3/1 134/4/1
f 135/9/2 133/10/2 115/11/2 117/12/2
f 118/9/1 116/10/1 134/11/1 136/12/1
f 137/1/2 135/2/2 117/3/2 119/4/2
f 120/1/1 118/2/1 136/3/1 138/4/1
f 139/1/2 137/2/2 119/3/2 121/4/2
f 122/1/1 120/2/1 138/3/1 140/4/1
f 141/1/2 139/2/2 121/3/2 123/4/2
f 124/1/1 122/2/1 140/3/1 142/4/1
f 126/9/5 125/10/5 143/11/5 144/12/5
f 144/9/2 141/10/2 123/11/2 126/12/2
f 125/9/1 124/10/1 142/11/1 143/12/1
f 145/1/4 146/2/4 147/3/4 148/4/4
f 128/1/6 127/2/6 147/3/6 146/4/6
f 148/1/2 147/2/2 127/3/2 129/4/2
f 130/1/1 128/2/1 146/3/1 145/4/1
f 149/1/4 145/2/4 148/3/4 150/4/4
f 150/1/2 148/2/2 129/3/2 131/4/2
f 132/1/1 130/2/1 145/3/1 149/4/1
f 151/1/4 149/2/4 150/3/4 152/4/4
f 152/1/2 150/2/2 131/3/2 133/4/2
f 134/1/1 132/2/1 149/3/1 151/4/1
f 153/9/4 151/10/4 152/11/4 154/12/4
f 154/9/2 152/10/2 133/11/2 135/12/2
f 136/9/1 134/10/1 151/11/1 153/12/1
f 155/1/4 153/2/4 154/3/4 156/4/4
f 156/1/2 154/2/2 135/3/2 137/4/2
f 138/1/1 136/2/1 153/3/1 155/4/1
f 157/1/4 155/2/4 156/3/4 158/4/4
f 158/1/2 156/2/2 137/3/2 139/4/2
f 140/1/1 138/2/1 155/3/1 157/4/1
f 159/5/4 157/6/4 158/7/4 160/8/4
f 160/5/2 158/6/2 139/7/2 141/8/2
f 142/5/1 140/6/1 157/7/1 159/8/1
f 161/9/4 159/10/4 160/11/4 162/12/4
f 144/9/5 143/10/5 161/11/5 162/12/5
f 162/9/2 160/10/2 141/11/2 144/12/2
f 143/9/1 142/10/1 159/11/1 161/12/1
