# This file was created with Minddesk Qubicle 3.0
# Get Qubicle at www.getqubicle.com

mtllib 101_Piece4_8_0.mtl

vn 0.0 0.0 1.0
vn 0.0 0.0 -1.0
vn -1.0 0.0 0.0
vn 1.0 0.0 0.0
vn 0.0 1.0 0.0
vn 0.0 -1.0 0.0

v -32.00000 65.00000 0.00000
v -32.00000 64.00000 0.00000
v -32.00000 64.00000 1.00000
v -32.00000 65.00000 1.00000
v -31.00000 64.00000 0.00000
v -31.00000 64.00000 1.00000
v -31.00000 65.00000 0.00000
v -31.00000 65.00000 1.00000
v -32.00000 66.00000 0.00000
v -32.00000 66.00000 1.00000
v -31.00000 66.00000 0.00000
v -31.00000 66.00000 1.00000
v -32.00000 67.00000 0.00000
v -32.00000 67.00000 1.00000
v -31.00000 67.00000 0.00000
v -31.00000 67.00000 1.00000
v -32.00000 68.00000 0.00000
v -32.00000 68.00000 1.00000
v -31.00000 68.00000 0.00000
v -31.00000 68.00000 1.00000
v -32.00000 69.00000 0.00000
v -32.00000 69.00000 1.00000
v -31.00000 69.00000 0.00000
v -31.00000 69.00000 1.00000
v -32.00000 70.00000 0.00000
v -32.00000 70.00000 1.00000
v -31.00000 70.00000 0.00000
v -31.00000 70.00000 1.00000
v -32.00000 71.00000 0.00000
v -32.00000 71.00000 1.00000
v -31.00000 71.00000 0.00000
v -31.00000 71.00000 1.00000
v -32.00000 72.00000 0.00000
v -32.00000 72.00000 1.00000
v -31.00000 72.00000 1.00000
v -31.00000 72.00000 0.00000
v -30.00000 64.00000 0.00000
v -30.00000 64.00000 1.00000
v -30.00000 65.00000 0.00000
v -30.00000 65.00000 1.00000
v -30.00000 66.00000 0.00000
v -30.00000 66.00000 1.00000
v -30.00000 67.00000 0.00000
v -30.00000 67.00000 1.00000
v -30.00000 68.00000 0.00000
v -30.00000 68.00000 1.00000
v -30.00000 69.00000 0.00000
v -30.00000 69.00000 1.00000
v -30.00000 70.00000 0.00000
v -30.00000 70.00000 1.00000
v -30.00000 71.00000 0.00000
v -30.00000 71.00000 1.00000
v -30.00000 72.00000 1.00000
v -30.00000 72.00000 0.00000
v -29.00000 64.00000 0.00000
v -29.00000 64.00000 1.00000
v -29.00000 65.00000 0.00000
v -29.00000 65.00000 1.00000
v -29.00000 66.00000 0.00000
v -29.00000 66.00000 1.00000
v -29.00000 67.00000 0.00000
v -29.00000 67.00000 1.00000
v -29.00000 68.00000 0.00000
v -29.00000 68.00000 1.00000
v -29.00000 69.00000 0.00000
v -29.00000 69.00000 1.00000
v -29.00000 70.00000 0.00000
v -29.00000 70.00000 1.00000
v -29.00000 71.00000 0.00000
v -29.00000 71.00000 1.00000
v -29.00000 72.00000 1.00000
v -29.00000 72.00000 0.00000
v -28.00000 64.00000 0.00000
v -28.00000 64.00000 1.00000
v -28.00000 65.00000 0.00000
v -28.00000 65.00000 1.00000
v -28.00000 66.00000 0.00000
v -28.00000 66.00000 1.00000
v -28.00000 67.00000 0.00000
v -28.00000 67.00000 1.00000
v -28.00000 68.00000 0.00000
v -28.00000 68.00000 1.00000
v -28.00000 69.00000 0.00000
v -28.00000 69.00000 1.00000
v -28.00000 70.00000 0.00000
v -28.00000 70.00000 1.00000
v -28.00000 71.00000 0.00000
v -28.00000 71.00000 1.00000
v -28.00000 72.00000 1.00000
v -28.00000 72.00000 0.00000
v -27.00000 64.00000 0.00000
v -27.00000 64.00000 1.00000
v -27.00000 65.00000 0.00000
v -27.00000 65.00000 1.00000
v -27.00000 66.00000 0.00000
v -27.00000 66.00000 1.00000
v -27.00000 67.00000 0.00000
v -27.00000 67.00000 1.00000
v -27.00000 68.00000 0.00000
v -27.00000 68.00000 1.00000
v -27.00000 69.00000 0.00000
v -27.00000 69.00000 1.00000
v -27.00000 70.00000 0.00000
v -27.00000 70.00000 1.00000
v -27.00000 71.00000 0.00000
v -27.00000 71.00000 1.00000
v -27.00000 72.00000 1.00000
v -27.00000 72.00000 0.00000
v -26.00000 64.00000 0.00000
v -26.00000 64.00000 1.00000
v -26.00000 65.00000 0.00000
v -26.00000 65.00000 1.00000
v -26.00000 66.00000 0.00000
v -26.00000 66.00000 1.00000
v -26.00000 67.00000 0.00000
v -26.00000 67.00000 1.00000
v -26.00000 68.00000 0.00000
v -26.00000 68.00000 1.00000
v -26.00000 69.00000 0.00000
v -26.00000 69.00000 1.00000
v -26.00000 70.00000 0.00000
v -26.00000 70.00000 1.00000
v -26.00000 71.00000 0.00000
v -26.00000 71.00000 1.00000
v -26.00000 72.00000 1.00000
v -26.00000 72.00000 0.00000
v -25.00000 64.00000 0.00000
v -25.00000 64.00000 1.00000
v -25.00000 65.00000 0.00000
v -25.00000 65.00000 1.00000
v -25.00000 66.00000 0.00000
v -25.00000 66.00000 1.00000
v -25.00000 67.00000 0.00000
v -25.00000 67.00000 1.00000
v -25.00000 68.00000 0.00000
v -25.00000 68.00000 1.00000
v -25.00000 69.00000 0.00000
v -25.00000 69.00000 1.00000
v -25.00000 70.00000 0.00000
v -25.00000 70.00000 1.00000
v -25.00000 71.00000 0.00000
v -25.00000 71.00000 1.00000
v -25.00000 72.00000 1.00000
v -25.00000 72.00000 0.00000
v -24.00000 65.00000 1.00000
v -24.00000 64.00000 1.00000
v -24.00000 64.00000 0.00000
v -24.00000 65.00000 0.00000
v -24.00000 66.00000 1.00000
v -24.00000 66.00000 0.00000
v -24.00000 67.00000 1.00000
v -24.00000 67.00000 0.00000
v -24.00000 68.00000 1.00000
v -24.00000 68.00000 0.00000
v -24.00000 69.00000 1.00000
v -24.00000 69.00000 0.00000
v -24.00000 70.00000 1.00000
v -24.00000 70.00000 0.00000
v -24.00000 71.00000 1.00000
v -24.00000 71.00000 0.00000
v -24.00000 72.00000 1.00000
v -24.00000 72.00000 0.00000

vt 0.09766 0.22656
vt 0.09766 0.21875
vt 0.10156 0.21875
vt 0.10156 0.22656
vt 0.10938 0.22656
vt 0.10938 0.21875
vt 0.11328 0.21875
vt 0.11328 0.22656
vt 0.40234 0.10938
vt 0.40234 0.10156
vt 0.40625 0.10156
vt 0.40625 0.10938
vt 0.37891 0.10938
vt 0.37891 0.10156
vt 0.38281 0.10156
vt 0.38281 0.10938
vt 0.12109 0.22656
vt 0.12109 0.21875
vt 0.12500 0.21875
vt 0.12500 0.22656
vt 0.47266 0.08594
vt 0.47266 0.07813
vt 0.47656 0.07813
vt 0.47656 0.08594
vt 0.13281 0.22656
vt 0.13281 0.21875
vt 0.13672 0.21875
vt 0.13672 0.22656
vt 0.14453 0.22656
vt 0.14453 0.21875
vt 0.14844 0.21875
vt 0.14844 0.22656
vt 0.39063 0.10938
vt 0.39063 0.10156
vt 0.39453 0.10156
vt 0.39453 0.10938
vt 0.15625 0.22656
vt 0.15625 0.21875
vt 0.16016 0.21875
vt 0.16016 0.22656

g 101_Piece4_8_0
usemtl 101_Material
f 1/1/3 2/2/3 3/3/3 4/4/3
f 3/1/6 2/2/6 5/3/6 6/4/6
f 7/1/2 5/2/2 2/3/2 1/4/2
f 4/1/1 3/2/1 6/3/1 8/4/1
f 9/1/3 1/2/3 4/3/3 10/4/3
f 11/1/2 7/2/2 1/3/2 9/4/2
f 10/1/1 4/2/1 8/3/1 12/4/1
f 13/5/3 9/6/3 10/7/3 14/8/3
f 15/5/2 11/6/2 9/7/2 13/8/2
f 14/5/1 10/6/1 12/7/1 16/8/1
f 17/5/3 13/6/3 14/7/3 18/8/3
f 19/5/2 15/6/2 13/7/2 17/8/2
f 18/5/1 14/6/1 16/7/1 20/8/1
f 21/5/3 17/6/3 18/7/3 22/8/3
f 23/5/2 19/6/2 17/7/2 21/8/2
f 22/5/1 18/6/1 20/7/1 24/8/1
f 25/5/3 21/6/3 22/7/3 26/8/3
f 27/5/2 23/6/2 21/7/2 25/8/2
f 26/5/1 22/6/1 24/7/1 28/8/1
f 29/5/3 25/6/3 26/7/3 30/8/3
f 31/5/2 27/6/2 25/7/2 29/8/2
f 30/5/1 26/6/1 28/7/1 32/8/1
f 33/1/3 29/2/3 30/3/3 34/4/3
f 33/1/5 34/2/5 35/3/5 36/4/5
f 36/1/2 31/2/2 29/3/2 33/4/2
f 34/1/1 30/2/1 32/3/1 35/4/1
f 6/9/6 5/10/6 37/11/6 38/12/6
f 39/9/2 37/10/2 5/11/2 7/12/2
f 8/9/1 6/10/1 38/11/1 40/12/1
f 41/13/2 39/14/2 7/15/2 11/16/2
f 12/13/1 8/14/1 40/15/1 42/16/1
f 43/17/2 41/18/2 11/19/2 15/20/2
f 16/17/1 12/18/1 42/19/1 44/20/1
f 45/21/2 43/22/2 15/23/2 19/24/2
f 20/21/1 16/22/1 44/23/1 46/24/1
f 47/25/2 45/26/2 19/27/2 23/28/2
f 24/25/1 20/26/1 46/27/1 48/28/1
f 49/29/2 47/30/2 23/31/2 27/32/2
f 28/29/1 24/30/1 48/31/1 50/32/1
f 51/25/2 49/26/2 27/27/2 31/28/2
f 32/25/1 28/26/1 50/27/1 52/28/1
f 36/5/5 35/6/5 53/7/5 54/8/5
f 54/5/2 51/6/2 31/7/2 36/8/2
f 35/5/1 32/6/1 52/7/1 53/8/1
f 38/13/6 37/14/6 55/15/6 56/16/6
f 57/13/2 55/14/2 37/15/2 39/16/2
f 40/13/1 38/14/1 56/15/1 58/16/1
f 59/33/2 57/34/2 39/35/2 41/36/2
f 42/33/1 40/34/1 58/35/1 60/36/1
f 61/17/2 59/18/2 41/19/2 43/20/2
f 44/17/1 42/18/1 60/19/1 62/20/1
f 63/17/2 61/18/2 43/19/2 45/20/2
f 46/17/1 44/18/1 62/19/1 64/20/1
f 65/21/2 63/22/2 45/23/2 47/24/2
f 48/21/1 46/22/1 64/23/1 66/24/1
f 67/21/2 65/22/2 47/23/2 49/24/2
f 50/21/1 48/22/1 66/23/1 68/24/1
f 69/29/2 67/30/2 49/31/2 51/32/2
f 52/29/1 50/30/1 68/31/1 70/32/1
f 54/5/5 53/6/5 71/7/5 72/8/5
f 72/5/2 69/6/2 51/7/2 54/8/2
f 53/5/1 52/6/1 70/7/1 71/8/1
f 56/9/6 55/10/6 73/11/6 74/12/6
f 75/9/2 73/10/2 55/11/2 57/12/2
f 58/9/1 56/10/1 74/11/1 76/12/1
f 77/13/2 75/14/2 57/15/2 59/16/2
f 60/13/1 58/14/1 76/15/1 78/16/1
f 79/21/2 77/22/2 59/23/2 61/24/2
f 62/21/1 60/22/1 78/23/1 80/24/1
f 81/21/2 79/22/2 61/23/2 63/24/2
f 64/21/1 62/22/1 80/23/1 82/24/1
f 83/25/2 81/26/2 63/27/2 65/28/2
f 66/25/1 64/26/1 82/27/1 84/28/1
f 85/29/2 83/30/2 65/31/2 67/32/2
f 68/29/1 66/30/1 84/31/1 86/32/1
f 87/21/2 85/22/2 67/23/2 69/24/2
f 70/21/1 68/22/1 86/23/1 88/24/1
f 72/5/5 71/6/5 89/7/5 90/8/5
f 90/5/2 87/6/2 69/7/2 72/8/2
f 71/5/1 70/6/1 88/7/1 89/8/1
f 74/9/6 73/10/6 91/11/6 92/12/6
f 93/9/2 91/10/2 73/11/2 75/12/2
f 76/9/1 74/10/1 92/11/1 94/12/1
f 95/13/2 93/14/2 75/15/2 77/16/2
f 78/13/1 76/14/1 94/15/1 96/16/1
f 97/17/2 95/18/2 77/19/2 79/20/2
f 80/17/1 78/18/1 96/19/1 98/20/1
f 99/17/2 97/18/2 79/19/2 81/20/2
f 82/17/1 80/18/1 98/19/1 100/20/1
f 101/21/2 99/22/2 81/23/2 83/24/2
f 84/21/1 82/22/1 100/23/1 102/24/1
f 103/29/2 101/30/2 83/31/2 85/32/2
f 86/29/1 84/30/1 102/31/1 104/32/1
f 105/21/2 103/22/2 85/23/2 87/24/2
f 88/21/1 86/22/1 104/23/1 106/24/1
f 90/5/5 89/6/5 107/7/5 108/8/5
f 108/5/2 105/6/2 87/7/2 90/8/2
f 89/5/1 88/6/1 106/7/1 107/8/1
f 92/13/6 91/14/6 109/15/6 110/16/6
f 111/13/2 109/14/2 91/15/2 93/16/2
f 94/13/1 92/14/1 110/15/1 112/16/1
f 113/33/2 111/34/2 93/35/2 95/36/2
f 96/33/1 94/34/1 112/35/1 114/36/1
f 115/37/2 113/38/2 95/39/2 97/40/2
f 98/37/1 96/38/1 114/39/1 116/40/1
f 117/37/2 115/38/2 97/39/2 99/40/2
f 100/37/1 98/38/1 116/39/1 118/40/1
f 119/17/2 117/18/2 99/19/2 101/20/2
f 102/17/1 100/18/1 118/19/1 120/20/1
f 121/21/2 119/22/2 101/23/2 103/24/2
f 104/21/1 102/22/1 120/23/1 122/24/1
f 123/29/2 121/30/2 103/31/2 105/32/2
f 106/29/1 104/30/1 122/31/1 124/32/1
f 108/5/5 107/6/5 125/7/5 126/8/5
f 126/5/2 123/6/2 105/7/2 108/8/2
f 107/5/1 106/6/1 124/7/1 125/8/1
f 110/9/6 109/10/6 127/11/6 128/12/6
f 129/9/2 127/10/2 109/11/2 111/12/2
f 112/9/1 110/10/1 128/11/1 130/12/1
f 131/13/2 129/14/2 111/15/2 113/16/2
f 114/13/1 112/14/1 130/15/1 132/16/1
f 133/17/2 131/18/2 113/19/2 115/20/2
f 116/17/1 114/18/1 132/19/1 134/20/1
f 135/17/2 133/18/2 115/19/2 117/20/2
f 118/17/1 116/18/1 134/19/1 136/20/1
f 137/17/2 135/18/2 117/19/2 119/20/2
f 120/17/1 118/18/1 136/19/1 138/20/1
f 139/29/2 137/30/2 119/31/2 121/32/2
f 122/29/1 120/30/1 138/31/1 140/32/1
f 141/25/2 139/26/2 121/27/2 123/28/2
f 124/25/1 122/26/1 140/27/1 142/28/1
f 126/5/5 125/6/5 143/7/5 144/8/5
f 144/5/2 141/6/2 123/7/2 126/8/2
f 125/5/1 124/6/1 142/7/1 143/8/1
f 145/1/4 146/2/4 147/3/4 148/4/4
f 128/1/6 127/2/6 147/3/6 146/4/6
f 148/1/2 147/2/2 127/3/2 129/4/2
f 130/1/1 128/2/1 146/3/1 145/4/1
f 149/1/4 145/2/4 148/3/4 150/4/4
f 150/1/2 148/2/2 129/3/2 131/4/2
f 132/1/1 130/2/1 145/3/1 149/4/1
f 151/5/4 149/6/4 150/7/4 152/8/4
f 152/5/2 150/6/2 131/7/2 133/8/2
f 134/5/1 132/6/1 149/7/1 151/8/1
f 153/5/4 151/6/4 152/7/4 154/8/4
f 154/5/2 152/6/2 133/7/2 135/8/2
f 136/5/1 134/6/1 151/7/1 153/8/1
f 155/5/4 153/6/4 154/7/4 156/8/4
f 156/5/2 154/6/2 135/7/2 137/8/2
f 138/5/1 136/6/1 153/7/1 155/8/1
f 157/5/4 155/6/4 156/7/4 158/8/4
f 158/5/2 156/6/2 137/7/2 139/8/2
f 140/5/1 138/6/1 155/7/1 157/8/1
f 159/5/4 157/6/4 158/7/4 160/8/4
f 160/5/2 158/6/2 139/7/2 141/8/2
f 142/5/1 140/6/1 157/7/1 159/8/1
f 161/1/4 159/2/4 160/3/4 162/4/4
f 144/1/5 143/2/5 161/3/5 162/4/5
f 162/1/2 160/2/2 141/3/2 144/4/2
f 143/1/1 142/2/1 159/3/1 161/4/1
