# This file was created with Minddesk Qubicle 3.0
# Get Qubicle at www.getqubicle.com

mtllib 101_Piece0_15_0.mtl

vn 0.0 0.0 1.0
vn 0.0 0.0 -1.0
vn -1.0 0.0 0.0
vn 1.0 0.0 0.0
vn 0.0 1.0 0.0
vn 0.0 -1.0 0.0

v -64.00000 121.00000 0.00000
v -64.00000 120.00000 0.00000
v -64.00000 120.00000 1.00000
v -64.00000 121.00000 1.00000
v -63.00000 120.00000 0.00000
v -63.00000 120.00000 1.00000
v -63.00000 121.00000 0.00000
v -63.00000 121.00000 1.00000
v -64.00000 122.00000 0.00000
v -64.00000 122.00000 1.00000
v -63.00000 122.00000 0.00000
v -63.00000 122.00000 1.00000
v -64.00000 123.00000 0.00000
v -64.00000 123.00000 1.00000
v -63.00000 123.00000 0.00000
v -63.00000 123.00000 1.00000
v -64.00000 124.00000 0.00000
v -64.00000 124.00000 1.00000
v -63.00000 124.00000 0.00000
v -63.00000 124.00000 1.00000
v -64.00000 125.00000 0.00000
v -64.00000 125.00000 1.00000
v -63.00000 125.00000 0.00000
v -63.00000 125.00000 1.00000
v -64.00000 126.00000 0.00000
v -64.00000 126.00000 1.00000
v -63.00000 126.00000 0.00000
v -63.00000 126.00000 1.00000
v -64.00000 127.00000 0.00000
v -64.00000 127.00000 1.00000
v -63.00000 127.00000 0.00000
v -63.00000 127.00000 1.00000
v -64.00000 128.00000 0.00000
v -64.00000 128.00000 1.00000
v -63.00000 128.00000 1.00000
v -63.00000 128.00000 0.00000
v -62.00000 120.00000 0.00000
v -62.00000 120.00000 1.00000
v -62.00000 121.00000 0.00000
v -62.00000 121.00000 1.00000
v -62.00000 122.00000 0.00000
v -62.00000 122.00000 1.00000
v -62.00000 123.00000 0.00000
v -62.00000 123.00000 1.00000
v -62.00000 124.00000 0.00000
v -62.00000 124.00000 1.00000
v -62.00000 125.00000 0.00000
v -62.00000 125.00000 1.00000
v -62.00000 126.00000 0.00000
v -62.00000 126.00000 1.00000
v -62.00000 127.00000 0.00000
v -62.00000 127.00000 1.00000
v -62.00000 128.00000 1.00000
v -62.00000 128.00000 0.00000
v -61.00000 120.00000 0.00000
v -61.00000 120.00000 1.00000
v -61.00000 121.00000 0.00000
v -61.00000 121.00000 1.00000
v -61.00000 122.00000 0.00000
v -61.00000 122.00000 1.00000
v -61.00000 123.00000 0.00000
v -61.00000 123.00000 1.00000
v -61.00000 124.00000 0.00000
v -61.00000 124.00000 1.00000
v -61.00000 125.00000 0.00000
v -61.00000 125.00000 1.00000
v -61.00000 126.00000 0.00000
v -61.00000 126.00000 1.00000
v -61.00000 127.00000 0.00000
v -61.00000 127.00000 1.00000
v -61.00000 128.00000 1.00000
v -61.00000 128.00000 0.00000
v -60.00000 120.00000 0.00000
v -60.00000 120.00000 1.00000
v -60.00000 121.00000 0.00000
v -60.00000 121.00000 1.00000
v -60.00000 122.00000 0.00000
v -60.00000 122.00000 1.00000
v -60.00000 123.00000 0.00000
v -60.00000 123.00000 1.00000
v -60.00000 124.00000 0.00000
v -60.00000 124.00000 1.00000
v -60.00000 125.00000 0.00000
v -60.00000 125.00000 1.00000
v -60.00000 126.00000 0.00000
v -60.00000 126.00000 1.00000
v -60.00000 127.00000 0.00000
v -60.00000 127.00000 1.00000
v -60.00000 128.00000 1.00000
v -60.00000 128.00000 0.00000
v -59.00000 120.00000 0.00000
v -59.00000 120.00000 1.00000
v -59.00000 121.00000 0.00000
v -59.00000 121.00000 1.00000
v -59.00000 122.00000 0.00000
v -59.00000 122.00000 1.00000
v -59.00000 123.00000 0.00000
v -59.00000 123.00000 1.00000
v -59.00000 124.00000 0.00000
v -59.00000 124.00000 1.00000
v -59.00000 125.00000 0.00000
v -59.00000 125.00000 1.00000
v -59.00000 126.00000 0.00000
v -59.00000 126.00000 1.00000
v -59.00000 127.00000 0.00000
v -59.00000 127.00000 1.00000
v -59.00000 128.00000 1.00000
v -59.00000 128.00000 0.00000
v -58.00000 120.00000 0.00000
v -58.00000 120.00000 1.00000
v -58.00000 121.00000 0.00000
v -58.00000 121.00000 1.00000
v -58.00000 122.00000 0.00000
v -58.00000 122.00000 1.00000
v -58.00000 123.00000 0.00000
v -58.00000 123.00000 1.00000
v -58.00000 124.00000 0.00000
v -58.00000 124.00000 1.00000
v -58.00000 125.00000 0.00000
v -58.00000 125.00000 1.00000
v -58.00000 126.00000 0.00000
v -58.00000 126.00000 1.00000
v -58.00000 127.00000 0.00000
v -58.00000 127.00000 1.00000
v -58.00000 128.00000 1.00000
v -58.00000 128.00000 0.00000
v -57.00000 120.00000 0.00000
v -57.00000 120.00000 1.00000
v -57.00000 121.00000 0.00000
v -57.00000 121.00000 1.00000
v -57.00000 122.00000 0.00000
v -57.00000 122.00000 1.00000
v -57.00000 123.00000 0.00000
v -57.00000 123.00000 1.00000
v -57.00000 124.00000 0.00000
v -57.00000 124.00000 1.00000
v -57.00000 125.00000 0.00000
v -57.00000 125.00000 1.00000
v -57.00000 126.00000 0.00000
v -57.00000 126.00000 1.00000
v -57.00000 127.00000 0.00000
v -57.00000 127.00000 1.00000
v -57.00000 128.00000 1.00000
v -57.00000 128.00000 0.00000
v -56.00000 121.00000 1.00000
v -56.00000 120.00000 1.00000
v -56.00000 120.00000 0.00000
v -56.00000 121.00000 0.00000
v -56.00000 122.00000 1.00000
v -56.00000 122.00000 0.00000
v -56.00000 123.00000 1.00000
v -56.00000 123.00000 0.00000
v -56.00000 124.00000 1.00000
v -56.00000 124.00000 0.00000
v -56.00000 125.00000 1.00000
v -56.00000 125.00000 0.00000
v -56.00000 126.00000 1.00000
v -56.00000 126.00000 0.00000
v -56.00000 127.00000 1.00000
v -56.00000 127.00000 0.00000
v -56.00000 128.00000 1.00000
v -56.00000 128.00000 0.00000

vt 0.42578 0.06250
vt 0.42578 0.05469
vt 0.42969 0.05469
vt 0.42969 0.06250
vt 0.43750 0.06250
vt 0.43750 0.05469
vt 0.44141 0.05469
vt 0.44141 0.06250
vt 0.44922 0.06250
vt 0.44922 0.05469
vt 0.45313 0.05469
vt 0.45313 0.06250
vt 0.46094 0.06250
vt 0.46094 0.05469
vt 0.46484 0.05469
vt 0.46484 0.06250
vt 0.47266 0.06250
vt 0.47266 0.05469
vt 0.47656 0.05469
vt 0.47656 0.06250
vt 0.48438 0.06250
vt 0.48438 0.05469
vt 0.48828 0.05469
vt 0.48828 0.06250

g 101_Piece0_15_0
usemtl 101_Material
f 1/1/3 2/2/3 3/3/3 4/4/3
f 3/1/6 2/2/6 5/3/6 6/4/6
f 7/1/2 5/2/2 2/3/2 1/4/2
f 4/1/1 3/2/1 6/3/1 8/4/1
f 9/5/3 1/6/3 4/7/3 10/8/3
f 11/5/2 7/6/2 1/7/2 9/8/2
f 10/5/1 4/6/1 8/7/1 12/8/1
f 13/1/3 9/2/3 10/3/3 14/4/3
f 15/1/2 11/2/2 9/3/2 13/4/2
f 14/1/1 10/2/1 12/3/1 16/4/1
f 17/1/3 13/2/3 14/3/3 18/4/3
f 19/1/2 15/2/2 13/3/2 17/4/2
f 18/1/1 14/2/1 16/3/1 20/4/1
f 21/9/3 17/10/3 18/11/3 22/12/3
f 23/9/2 19/10/2 17/11/2 21/12/2
f 22/9/1 18/10/1 20/11/1 24/12/1
f 25/9/3 21/10/3 22/11/3 26/12/3
f 27/9/2 23/10/2 21/11/2 25/12/2
f 26/9/1 22/10/1 24/11/1 28/12/1
f 29/1/3 25/2/3 26/3/3 30/4/3
f 31/1/2 27/2/2 25/3/2 29/4/2
f 30/1/1 26/2/1 28/3/1 32/4/1
f 33/9/3 29/10/3 30/11/3 34/12/3
f 33/9/5 34/10/5 35/11/5 36/12/5
f 36/9/2 31/10/2 29/11/2 33/12/2
f 34/9/1 30/10/1 32/11/1 35/12/1
f 6/13/6 5/14/6 37/15/6 38/16/6
f 39/13/2 37/14/2 5/15/2 7/16/2
f 8/13/1 6/14/1 38/15/1 40/16/1
f 41/1/2 39/2/2 7/3/2 11/4/2
f 12/1/1 8/2/1 40/3/1 42/4/1
f 43/1/2 41/2/2 11/3/2 15/4/2
f 16/1/1 12/2/1 42/3/1 44/4/1
f 45/17/2 43/18/2 15/19/2 19/20/2
f 20/17/1 16/18/1 44/19/1 46/20/1
f 47/9/2 45/10/2 19/11/2 23/12/2
f 24/9/1 20/10/1 46/11/1 48/12/1
f 49/5/2 47/6/2 23/7/2 27/8/2
f 28/5/1 24/6/1 48/7/1 50/8/1
f 51/5/2 49/6/2 27/7/2 31/8/2
f 32/5/1 28/6/1 50/7/1 52/8/1
f 36/1/5 35/2/5 53/3/5 54/4/5
f 54/1/2 51/2/2 31/3/2 36/4/2
f 35/1/1 32/2/1 52/3/1 53/4/1
f 38/5/6 37/6/6 55/7/6 56/8/6
f 57/5/2 55/6/2 37/7/2 39/8/2
f 40/5/1 38/6/1 56/7/1 58/8/1
f 59/5/2 57/6/2 39/7/2 41/8/2
f 42/5/1 40/6/1 58/7/1 60/8/1
f 61/9/2 59/10/2 41/11/2 43/12/2
f 44/9/1 42/10/1 60/11/1 62/12/1
f 63/1/2 61/2/2 43/3/2 45/4/2
f 46/1/1 44/2/1 62/3/1 64/4/1
f 65/21/2 63/22/2 45/23/2 47/24/2
f 48/21/1 46/22/1 64/23/1 66/24/1
f 67/5/2 65/6/2 47/7/2 49/8/2
f 50/5/1 48/6/1 66/7/1 68/8/1
f 69/1/2 67/2/2 49/3/2 51/4/2
f 52/1/1 50/2/1 68/3/1 70/4/1
f 54/1/5 53/2/5 71/3/5 72/4/5
f 72/1/2 69/2/2 51/3/2 54/4/2
f 53/1/1 52/2/1 70/3/1 71/4/1
f 56/9/6 55/10/6 73/11/6 74/12/6
f 75/9/2 73/10/2 55/11/2 57/12/2
f 58/9/1 56/10/1 74/11/1 76/12/1
f 77/13/2 75/14/2 57/15/2 59/16/2
f 60/13/1 58/14/1 76/15/1 78/16/1
f 79/1/2 77/2/2 59/3/2 61/4/2
f 62/1/1 60/2/1 78/3/1 80/4/1
f 81/5/2 79/6/2 61/7/2 63/8/2
f 64/5/1 62/6/1 80/7/1 82/8/1
f 83/5/2 81/6/2 63/7/2 65/8/2
f 66/5/1 64/6/1 82/7/1 84/8/1
f 85/9/2 83/10/2 65/11/2 67/12/2
f 68/9/1 66/10/1 84/11/1 86/12/1
f 87/9/2 85/10/2 67/11/2 69/12/2
f 70/9/1 68/10/1 86/11/1 88/12/1
f 72/5/5 71/6/5 89/7/5 90/8/5
f 90/5/2 87/6/2 69/7/2 72/8/2
f 71/5/1 70/6/1 88/7/1 89/8/1
f 74/21/6 73/22/6 91/23/6 92/24/6
f 93/21/2 91/22/2 73/23/2 75/24/2
f 76/21/1 74/22/1 92/23/1 94/24/1
f 95/5/2 93/6/2 75/7/2 77/8/2
f 78/5/1 76/6/1 94/7/1 96/8/1
f 97/5/2 95/6/2 77/7/2 79/8/2
f 80/5/1 78/6/1 96/7/1 98/8/1
f 99/5/2 97/6/2 79/7/2 81/8/2
f 82/5/1 80/6/1 98/7/1 100/8/1
f 101/1/2 99/2/2 81/3/2 83/4/2
f 84/1/1 82/2/1 100/3/1 102/4/1
f 103/1/2 101/2/2 83/3/2 85/4/2
f 86/1/1 84/2/1 102/3/1 104/4/1
f 105/5/2 103/6/2 85/7/2 87/8/2
f 88/5/1 86/6/1 104/7/1 106/8/1
f 90/1/5 89/2/5 107/3/5 108/4/5
f 108/1/2 105/2/2 87/3/2 90/4/2
f 89/1/1 88/2/1 106/3/1 107/4/1
f 92/1/6 91/2/6 109/3/6 110/4/6
f 111/1/2 109/2/2 91/3/2 93/4/2
f 94/1/1 92/2/1 110/3/1 112/4/1
f 113/5/2 111/6/2 93/7/2 95/8/2
f 96/5/1 94/6/1 112/7/1 114/8/1
f 115/5/2 113/6/2 95/7/2 97/8/2
f 98/5/1 96/6/1 114/7/1 116/8/1
f 117/1/2 115/2/2 97/3/2 99/4/2
f 100/1/1 98/2/1 116/3/1 118/4/1
f 119/9/2 117/10/2 99/11/2 101/12/2
f 102/9/1 100/10/1 118/11/1 120/12/1
f 121/1/2 119/2/2 101/3/2 103/4/2
f 104/1/1 102/2/1 120/3/1 122/4/1
f 123/1/2 121/2/2 103/3/2 105/4/2
f 106/1/1 104/2/1 122/3/1 124/4/1
f 108/1/5 107/2/5 125/3/5 126/4/5
f 126/1/2 123/2/2 105/3/2 108/4/2
f 107/1/1 106/2/1 124/3/1 125/4/1
f 110/9/6 109/10/6 127/11/6 128/12/6
f 129/9/2 127/10/2 109/11/2 111/12/2
f 112/9/1 110/10/1 128/11/1 130/12/1
f 131/9/2 129/10/2 111/11/2 113/12/2
f 114/9/1 112/10/1 130/11/1 132/12/1
f 133/13/2 131/14/2 113/15/2 115/16/2
f 116/13/1 114/14/1 132/15/1 134/16/1
f 135/1/2 133/2/2 115/3/2 117/4/2
f 118/1/1 116/2/1 134/3/1 136/4/1
f 137/13/2 135/14/2 117/15/2 119/16/2
f 120/13/1 118/14/1 136/15/1 138/16/1
f 139/5/2 137/6/2 119/7/2 121/8/2
f 122/5/1 120/6/1 138/7/1 140/8/1
f 141/9/2 139/10/2 121/11/2 123/12/2
f 124/9/1 122/10/1 140/11/1 142/12/1
f 126/9/5 125/10/5 143/11/5 144/12/5
f 144/9/2 141/10/2 123/11/2 126/12/2
f 125/9/1 124/10/1 142/11/1 143/12/1
f 145/9/4 146/10/4 147/11/4 148/12/4
f 128/9/6 127/10/6 147/11/6 146/12/6
f 148/9/2 147/10/2 127/11/2 129/12/2
f 130/9/1 128/10/1 146/11/1 145/12/1
f 149/5/4 145/6/4 148/7/4 150/8/4
f 150/5/2 148/6/2 129/7/2 131/8/2
f 132/5/1 130/6/1 145/7/1 149/8/1
f 151/5/4 149/6/4 150/7/4 152/8/4
f 152/5/2 150/6/2 131/7/2 133/8/2
f 134/5/1 132/6/1 149/7/1 151/8/1
f 153/1/4 151/2/4 152/3/4 154/4/4
f 154/1/2 152/2/2 133/3/2 135/4/2
f 136/1/1 134/2/1 151/3/1 153/4/1
f 155/9/4 153/10/4 154/11/4 156/12/4
f 156/9/2 154/10/2 135/11/2 137/12/2
f 138/9/1 136/10/1 153/11/1 155/12/1
f 157/5/4 155/6/4 156/7/4 158/8/4
f 158/5/2 156/6/2 137/7/2 139/8/2
f 140/5/1 138/6/1 155/7/1 157/8/1
f 159/1/4 157/2/4 158/3/4 160/4/4
f 160/1/2 158/2/2 139/3/2 141/4/2
f 142/1/1 140/2/1 157/3/1 159/4/1
f 161/5/4 159/6/4 160/7/4 162/8/4
f 144/5/5 143/6/5 161/7/5 162/8/5
f 162/5/2 160/6/2 141/7/2 144/8/2
f 143/5/1 142/6/1 159/7/1 161/8/1
