# This file was created with Minddesk Qubicle 3.0
# Get Qubicle at www.getqubicle.com

mtllib 101_Piece15_12_0.mtl

vn 0.0 0.0 1.0
vn 0.0 0.0 -1.0
vn -1.0 0.0 0.0
vn 1.0 0.0 0.0
vn 0.0 1.0 0.0
vn 0.0 -1.0 0.0

v 56.00000 97.00000 0.00000
v 56.00000 96.00000 0.00000
v 56.00000 96.00000 1.00000
v 56.00000 97.00000 1.00000
v 57.00000 96.00000 0.00000
v 57.00000 96.00000 1.00000
v 57.00000 97.00000 0.00000
v 57.00000 97.00000 1.00000
v 56.00000 98.00000 0.00000
v 56.00000 98.00000 1.00000
v 57.00000 98.00000 0.00000
v 57.00000 98.00000 1.00000
v 56.00000 99.00000 0.00000
v 56.00000 99.00000 1.00000
v 57.00000 99.00000 0.00000
v 57.00000 99.00000 1.00000
v 56.00000 100.00000 0.00000
v 56.00000 100.00000 1.00000
v 57.00000 100.00000 0.00000
v 57.00000 100.00000 1.00000
v 56.00000 101.00000 0.00000
v 56.00000 101.00000 1.00000
v 57.00000 101.00000 0.00000
v 57.00000 101.00000 1.00000
v 56.00000 102.00000 0.00000
v 56.00000 102.00000 1.00000
v 57.00000 102.00000 0.00000
v 57.00000 102.00000 1.00000
v 56.00000 103.00000 0.00000
v 56.00000 103.00000 1.00000
v 57.00000 103.00000 0.00000
v 57.00000 103.00000 1.00000
v 56.00000 104.00000 0.00000
v 56.00000 104.00000 1.00000
v 57.00000 104.00000 1.00000
v 57.00000 104.00000 0.00000
v 58.00000 96.00000 0.00000
v 58.00000 96.00000 1.00000
v 58.00000 97.00000 0.00000
v 58.00000 97.00000 1.00000
v 58.00000 98.00000 0.00000
v 58.00000 98.00000 1.00000
v 58.00000 99.00000 0.00000
v 58.00000 99.00000 1.00000
v 58.00000 100.00000 0.00000
v 58.00000 100.00000 1.00000
v 58.00000 101.00000 0.00000
v 58.00000 101.00000 1.00000
v 58.00000 102.00000 0.00000
v 58.00000 102.00000 1.00000
v 58.00000 103.00000 0.00000
v 58.00000 103.00000 1.00000
v 58.00000 104.00000 1.00000
v 58.00000 104.00000 0.00000
v 59.00000 96.00000 0.00000
v 59.00000 96.00000 1.00000
v 59.00000 97.00000 0.00000
v 59.00000 97.00000 1.00000
v 59.00000 98.00000 0.00000
v 59.00000 98.00000 1.00000
v 59.00000 99.00000 0.00000
v 59.00000 99.00000 1.00000
v 59.00000 100.00000 0.00000
v 59.00000 100.00000 1.00000
v 59.00000 101.00000 0.00000
v 59.00000 101.00000 1.00000
v 59.00000 102.00000 0.00000
v 59.00000 102.00000 1.00000
v 59.00000 103.00000 0.00000
v 59.00000 103.00000 1.00000
v 59.00000 104.00000 1.00000
v 59.00000 104.00000 0.00000
v 60.00000 96.00000 0.00000
v 60.00000 96.00000 1.00000
v 60.00000 97.00000 0.00000
v 60.00000 97.00000 1.00000
v 60.00000 98.00000 0.00000
v 60.00000 98.00000 1.00000
v 60.00000 99.00000 0.00000
v 60.00000 99.00000 1.00000
v 60.00000 100.00000 0.00000
v 60.00000 100.00000 1.00000
v 60.00000 101.00000 0.00000
v 60.00000 101.00000 1.00000
v 60.00000 102.00000 0.00000
v 60.00000 102.00000 1.00000
v 60.00000 103.00000 0.00000
v 60.00000 103.00000 1.00000
v 60.00000 104.00000 1.00000
v 60.00000 104.00000 0.00000
v 61.00000 96.00000 0.00000
v 61.00000 96.00000 1.00000
v 61.00000 97.00000 0.00000
v 61.00000 97.00000 1.00000
v 61.00000 98.00000 0.00000
v 61.00000 98.00000 1.00000
v 61.00000 99.00000 0.00000
v 61.00000 99.00000 1.00000
v 61.00000 100.00000 0.00000
v 61.00000 100.00000 1.00000
v 61.00000 101.00000 0.00000
v 61.00000 101.00000 1.00000
v 61.00000 102.00000 0.00000
v 61.00000 102.00000 1.00000
v 61.00000 103.00000 0.00000
v 61.00000 103.00000 1.00000
v 61.00000 104.00000 1.00000
v 61.00000 104.00000 0.00000
v 62.00000 96.00000 0.00000
v 62.00000 96.00000 1.00000
v 62.00000 97.00000 0.00000
v 62.00000 97.00000 1.00000
v 62.00000 98.00000 0.00000
v 62.00000 98.00000 1.00000
v 62.00000 99.00000 0.00000
v 62.00000 99.00000 1.00000
v 62.00000 100.00000 0.00000
v 62.00000 100.00000 1.00000
v 62.00000 101.00000 0.00000
v 62.00000 101.00000 1.00000
v 62.00000 102.00000 0.00000
v 62.00000 102.00000 1.00000
v 62.00000 103.00000 0.00000
v 62.00000 103.00000 1.00000
v 62.00000 104.00000 1.00000
v 62.00000 104.00000 0.00000
v 63.00000 96.00000 0.00000
v 63.00000 96.00000 1.00000
v 63.00000 97.00000 0.00000
v 63.00000 97.00000 1.00000
v 63.00000 98.00000 0.00000
v 63.00000 98.00000 1.00000
v 63.00000 99.00000 0.00000
v 63.00000 99.00000 1.00000
v 63.00000 100.00000 0.00000
v 63.00000 100.00000 1.00000
v 63.00000 101.00000 0.00000
v 63.00000 101.00000 1.00000
v 63.00000 102.00000 0.00000
v 63.00000 102.00000 1.00000
v 63.00000 103.00000 0.00000
v 63.00000 103.00000 1.00000
v 63.00000 104.00000 1.00000
v 63.00000 104.00000 0.00000
v 64.00000 97.00000 1.00000
v 64.00000 96.00000 1.00000
v 64.00000 96.00000 0.00000
v 64.00000 97.00000 0.00000
v 64.00000 98.00000 1.00000
v 64.00000 98.00000 0.00000
v 64.00000 99.00000 1.00000
v 64.00000 99.00000 0.00000
v 64.00000 100.00000 1.00000
v 64.00000 100.00000 0.00000
v 64.00000 101.00000 1.00000
v 64.00000 101.00000 0.00000
v 64.00000 102.00000 1.00000
v 64.00000 102.00000 0.00000
v 64.00000 103.00000 1.00000
v 64.00000 103.00000 0.00000
v 64.00000 104.00000 1.00000
v 64.00000 104.00000 0.00000

vt 0.48438 0.48438
vt 0.48438 0.47656
vt 0.48828 0.47656
vt 0.48828 0.48438
vt 0.49609 0.48438
vt 0.49609 0.47656
vt 0.50000 0.47656
vt 0.50000 0.48438
vt 0.00391 0.50781
vt 0.00391 0.50000
vt 0.00781 0.50000
vt 0.00781 0.50781
vt 0.00391 0.01563
vt 0.00391 0.00781
vt 0.00781 0.00781
vt 0.00781 0.01563
vt 0.01563 0.50781
vt 0.01563 0.50000
vt 0.01953 0.50000
vt 0.01953 0.50781
vt 0.02734 0.50781
vt 0.02734 0.50000
vt 0.03125 0.50000
vt 0.03125 0.50781
vt 0.03906 0.50781
vt 0.03906 0.50000
vt 0.04297 0.50000
vt 0.04297 0.50781
vt 0.05078 0.50781
vt 0.05078 0.50000
vt 0.05469 0.50000
vt 0.05469 0.50781

g 101_Piece15_12_0
usemtl 101_Material
f 1/1/3 2/2/3 3/3/3 4/4/3
f 3/1/6 2/2/6 5/3/6 6/4/6
f 7/1/2 5/2/2 2/3/2 1/4/2
f 4/1/1 3/2/1 6/3/1 8/4/1
f 9/5/3 1/6/3 4/7/3 10/8/3
f 11/5/2 7/6/2 1/7/2 9/8/2
f 10/5/1 4/6/1 8/7/1 12/8/1
f 13/9/3 9/10/3 10/11/3 14/12/3
f 15/9/2 11/10/2 9/11/2 13/12/2
f 14/9/1 10/10/1 12/11/1 16/12/1
f 17/5/3 13/6/3 14/7/3 18/8/3
f 19/5/2 15/6/2 13/7/2 17/8/2
f 18/5/1 14/6/1 16/7/1 20/8/1
f 21/13/3 17/14/3 18/15/3 22/16/3
f 23/13/2 19/14/2 17/15/2 21/16/2
f 22/13/1 18/14/1 20/15/1 24/16/1
f 25/13/3 21/14/3 22/15/3 26/16/3
f 27/13/2 23/14/2 21/15/2 25/16/2
f 26/13/1 22/14/1 24/15/1 28/16/1
f 29/13/3 25/14/3 26/15/3 30/16/3
f 31/13/2 27/14/2 25/15/2 29/16/2
f 30/13/1 26/14/1 28/15/1 32/16/1
f 33/13/3 29/14/3 30/15/3 34/16/3
f 33/13/5 34/14/5 35/15/5 36/16/5
f 36/13/2 31/14/2 29/15/2 33/16/2
f 34/13/1 30/14/1 32/15/1 35/16/1
f 6/17/6 5/18/6 37/19/6 38/20/6
f 39/17/2 37/18/2 5/19/2 7/20/2
f 8/17/1 6/18/1 38/19/1 40/20/1
f 41/21/2 39/22/2 7/23/2 11/24/2
f 12/21/1 8/22/1 40/23/1 42/24/1
f 43/1/2 41/2/2 11/3/2 15/4/2
f 16/1/1 12/2/1 42/3/1 44/4/1
f 45/25/2 43/26/2 15/27/2 19/28/2
f 20/25/1 16/26/1 44/27/1 46/28/1
f 47/25/2 45/26/2 19/27/2 23/28/2
f 24/25/1 20/26/1 46/27/1 48/28/1
f 49/13/2 47/14/2 23/15/2 27/16/2
f 28/13/1 24/14/1 48/15/1 50/16/1
f 51/13/2 49/14/2 27/15/2 31/16/2
f 32/13/1 28/14/1 50/15/1 52/16/1
f 36/13/5 35/14/5 53/15/5 54/16/5
f 54/13/2 51/14/2 31/15/2 36/16/2
f 35/13/1 32/14/1 52/15/1 53/16/1
f 38/29/6 37/30/6 55/31/6 56/32/6
f 57/29/2 55/30/2 37/31/2 39/32/2
f 40/29/1 38/30/1 56/31/1 58/32/1
f 59/29/2 57/30/2 39/31/2 41/32/2
f 42/29/1 40/30/1 58/31/1 60/32/1
f 61/29/2 59/30/2 41/31/2 43/32/2
f 44/29/1 42/30/1 60/31/1 62/32/1
f 63/21/2 61/22/2 43/23/2 45/24/2
f 46/21/1 44/22/1 62/23/1 64/24/1
f 65/25/2 63/26/2 45/27/2 47/28/2
f 48/25/1 46/26/1 64/27/1 66/28/1
f 67/9/2 65/10/2 47/11/2 49/12/2
f 50/9/1 48/10/1 66/11/1 68/12/1
f 69/13/2 67/14/2 49/15/2 51/16/2
f 52/13/1 50/14/1 68/15/1 70/16/1
f 54/13/5 53/14/5 71/15/5 72/16/5
f 72/13/2 69/14/2 51/15/2 54/16/2
f 53/13/1 52/14/1 70/15/1 71/16/1
f 56/29/6 55/30/6 73/31/6 74/32/6
f 75/29/2 73/30/2 55/31/2 57/32/2
f 58/29/1 56/30/1 74/31/1 76/32/1
f 77/29/2 75/30/2 57/31/2 59/32/2
f 60/29/1 58/30/1 76/31/1 78/32/1
f 79/29/2 77/30/2 59/31/2 61/32/2
f 62/29/1 60/30/1 78/31/1 80/32/1
f 81/29/2 79/30/2 61/31/2 63/32/2
f 64/29/1 62/30/1 80/31/1 82/32/1
f 83/21/2 81/22/2 63/23/2 65/24/2
f 66/21/1 64/22/1 82/23/1 84/24/1
f 85/9/2 83/10/2 65/11/2 67/12/2
f 68/9/1 66/10/1 84/11/1 86/12/1
f 87/9/2 85/10/2 67/11/2 69/12/2
f 70/9/1 68/10/1 86/11/1 88/12/1
f 72/13/5 71/14/5 89/15/5 90/16/5
f 90/13/2 87/14/2 69/15/2 72/16/2
f 71/13/1 70/14/1 88/15/1 89/16/1
f 74/29/6 73/30/6 91/31/6 92/32/6
f 93/29/2 91/30/2 73/31/2 75/32/2
f 76/29/1 74/30/1 92/31/1 94/32/1
f 95/29/2 93/30/2 75/31/2 77/32/2
f 78/29/1 76/30/1 94/31/1 96/32/1
f 97/29/2 95/30/2 77/31/2 79/32/2
f 80/29/1 78/30/1 96/31/1 98/32/1
f 99/29/2 97/30/2 79/31/2 81/32/2
f 82/29/1 80/30/1 98/31/1 100/32/1
f 101/21/2 99/22/2 81/23/2 83/24/2
f 84/21/1 82/22/1 100/23/1 102/24/1
f 103/9/2 101/10/2 83/11/2 85/12/2
f 86/9/1 84/10/1 102/11/1 104/12/1
f 105/9/2 103/10/2 85/11/2 87/12/2
f 88/9/1 86/10/1 104/11/1 106/12/1
f 90/13/5 89/14/5 107/15/5 108/16/5
f 108/13/2 105/14/2 87/15/2 90/16/2
f 89/13/1 88/14/1 106/15/1 107/16/1
f 92/29/6 91/30/6 109/31/6 110/32/6
f 111/29/2 109/30/2 91/31/2 93/32/2
f 94/29/1 92/30/1 110/31/1 112/32/1
f 113/29/2 111/30/2 93/31/2 95/32/2
f 96/29/1 94/30/1 112/31/1 114/32/1
f 115/29/2 113/30/2 95/31/2 97/32/2
f 98/29/1 96/30/1 114/31/1 116/32/1
f 117/21/2 115/22/2 97/23/2 99/24/2
f 100/21/1 98/22/1 116/23/1 118/24/1
f 119/25/2 117/26/2 99/27/2 101/28/2
f 102/25/1 100/26/1 118/27/1 120/28/1
f 121/9/2 119/10/2 101/11/2 103/12/2
f 104/9/1 102/10/1 120/11/1 122/12/1
f 123/13/2 121/14/2 103/15/2 105/16/2
f 106/13/1 104/14/1 122/15/1 124/16/1
f 108/13/5 107/14/5 125/15/5 126/16/5
f 126/13/2 123/14/2 105/15/2 108/16/2
f 107/13/1 106/14/1 124/15/1 125/16/1
f 110/17/6 109/18/6 127/19/6 128/20/6
f 129/17/2 127/18/2 109/19/2 111/20/2
f 112/17/1 110/18/1 128/19/1 130/20/1
f 131/21/2 129/22/2 111/23/2 113/24/2
f 114/21/1 112/22/1 130/23/1 132/24/1
f 133/1/2 131/2/2 113/3/2 115/4/2
f 116/1/1 114/2/1 132/3/1 134/4/1
f 135/25/2 133/26/2 115/27/2 117/28/2
f 118/25/1 116/26/1 134/27/1 136/28/1
f 137/25/2 135/26/2 117/27/2 119/28/2
f 120/25/1 118/26/1 136/27/1 138/28/1
f 139/13/2 137/14/2 119/15/2 121/16/2
f 122/13/1 120/14/1 138/15/1 140/16/1
f 141/13/2 139/14/2 121/15/2 123/16/2
f 124/13/1 122/14/1 140/15/1 142/16/1
f 126/13/5 125/14/5 143/15/5 144/16/5
f 144/13/2 141/14/2 123/15/2 126/16/2
f 125/13/1 124/14/1 142/15/1 143/16/1
f 145/1/4 146/2/4 147/3/4 148/4/4
f 128/1/6 127/2/6 147/3/6 146/4/6
f 148/1/2 147/2/2 127/3/2 129/4/2
f 130/1/1 128/2/1 146/3/1 145/4/1
f 149/5/4 145/6/4 148/7/4 150/8/4
f 150/5/2 148/6/2 129/7/2 131/8/2
f 132/5/1 130/6/1 145/7/1 149/8/1
f 151/9/4 149/10/4 150/11/4 152/12/4
f 152/9/2 150/10/2 131/11/2 133/12/2
f 134/9/1 132/10/1 149/11/1 151/12/1
f 153/5/4 151/6/4 152/7/4 154/8/4
f 154/5/2 152/6/2 133/7/2 135/8/2
f 136/5/1 134/6/1 151/7/1 153/8/1
f 155/13/4 153/14/4 154/15/4 156/16/4
f 156/13/2 154/14/2 135/15/2 137/16/2
f 138/13/1 136/14/1 153/15/1 155/16/1
f 157/13/4 155/14/4 156/15/4 158/16/4
f 158/13/2 156/14/2 137/15/2 139/16/2
f 140/13/1 138/14/1 155/15/1 157/16/1
f 159/13/4 157/14/4 158/15/4 160/16/4
f 160/13/2 158/14/2 139/15/2 141/16/2
f 142/13/1 140/14/1 157/15/1 159/16/1
f 161/13/4 159/14/4 160/15/4 162/16/4
f 144/13/5 143/14/5 161/15/5 162/16/5
f 162/13/2 160/14/2 141/15/2 144/16/2
f 143/13/1 142/14/1 159/15/1 161/16/1
