# This file was created with Minddesk Qubicle 3.0
# Get Qubicle at www.getqubicle.com

mtllib 101_Piece0_5_0.mtl

vn 0.0 0.0 1.0
vn 0.0 0.0 -1.0
vn -1.0 0.0 0.0
vn 1.0 0.0 0.0
vn 0.0 1.0 0.0
vn 0.0 -1.0 0.0

v -64.00000 41.00000 0.00000
v -64.00000 40.00000 0.00000
v -64.00000 40.00000 1.00000
v -64.00000 41.00000 1.00000
v -63.00000 40.00000 0.00000
v -63.00000 40.00000 1.00000
v -63.00000 41.00000 0.00000
v -63.00000 41.00000 1.00000
v -64.00000 42.00000 0.00000
v -64.00000 42.00000 1.00000
v -63.00000 42.00000 0.00000
v -63.00000 42.00000 1.00000
v -64.00000 43.00000 0.00000
v -64.00000 43.00000 1.00000
v -63.00000 43.00000 0.00000
v -63.00000 43.00000 1.00000
v -64.00000 44.00000 0.00000
v -64.00000 44.00000 1.00000
v -63.00000 44.00000 0.00000
v -63.00000 44.00000 1.00000
v -64.00000 45.00000 0.00000
v -64.00000 45.00000 1.00000
v -63.00000 45.00000 0.00000
v -63.00000 45.00000 1.00000
v -64.00000 46.00000 0.00000
v -64.00000 46.00000 1.00000
v -63.00000 46.00000 0.00000
v -63.00000 46.00000 1.00000
v -64.00000 47.00000 0.00000
v -64.00000 47.00000 1.00000
v -63.00000 47.00000 0.00000
v -63.00000 47.00000 1.00000
v -64.00000 48.00000 0.00000
v -64.00000 48.00000 1.00000
v -63.00000 48.00000 1.00000
v -63.00000 48.00000 0.00000
v -62.00000 40.00000 0.00000
v -62.00000 40.00000 1.00000
v -62.00000 41.00000 0.00000
v -62.00000 41.00000 1.00000
v -62.00000 42.00000 0.00000
v -62.00000 42.00000 1.00000
v -62.00000 43.00000 0.00000
v -62.00000 43.00000 1.00000
v -62.00000 44.00000 0.00000
v -62.00000 44.00000 1.00000
v -62.00000 45.00000 0.00000
v -62.00000 45.00000 1.00000
v -62.00000 46.00000 0.00000
v -62.00000 46.00000 1.00000
v -62.00000 47.00000 0.00000
v -62.00000 47.00000 1.00000
v -62.00000 48.00000 1.00000
v -62.00000 48.00000 0.00000
v -61.00000 40.00000 0.00000
v -61.00000 40.00000 1.00000
v -61.00000 41.00000 0.00000
v -61.00000 41.00000 1.00000
v -61.00000 42.00000 0.00000
v -61.00000 42.00000 1.00000
v -61.00000 43.00000 0.00000
v -61.00000 43.00000 1.00000
v -61.00000 44.00000 0.00000
v -61.00000 44.00000 1.00000
v -61.00000 45.00000 0.00000
v -61.00000 45.00000 1.00000
v -61.00000 46.00000 0.00000
v -61.00000 46.00000 1.00000
v -61.00000 47.00000 0.00000
v -61.00000 47.00000 1.00000
v -61.00000 48.00000 1.00000
v -61.00000 48.00000 0.00000
v -60.00000 40.00000 0.00000
v -60.00000 40.00000 1.00000
v -60.00000 41.00000 0.00000
v -60.00000 41.00000 1.00000
v -60.00000 42.00000 0.00000
v -60.00000 42.00000 1.00000
v -60.00000 43.00000 0.00000
v -60.00000 43.00000 1.00000
v -60.00000 44.00000 0.00000
v -60.00000 44.00000 1.00000
v -60.00000 45.00000 0.00000
v -60.00000 45.00000 1.00000
v -60.00000 46.00000 0.00000
v -60.00000 46.00000 1.00000
v -60.00000 47.00000 0.00000
v -60.00000 47.00000 1.00000
v -60.00000 48.00000 1.00000
v -60.00000 48.00000 0.00000
v -59.00000 40.00000 0.00000
v -59.00000 40.00000 1.00000
v -59.00000 41.00000 0.00000
v -59.00000 41.00000 1.00000
v -59.00000 42.00000 0.00000
v -59.00000 42.00000 1.00000
v -59.00000 43.00000 0.00000
v -59.00000 43.00000 1.00000
v -59.00000 44.00000 0.00000
v -59.00000 44.00000 1.00000
v -59.00000 45.00000 0.00000
v -59.00000 45.00000 1.00000
v -59.00000 46.00000 0.00000
v -59.00000 46.00000 1.00000
v -59.00000 47.00000 0.00000
v -59.00000 47.00000 1.00000
v -59.00000 48.00000 1.00000
v -59.00000 48.00000 0.00000
v -58.00000 40.00000 0.00000
v -58.00000 40.00000 1.00000
v -58.00000 41.00000 0.00000
v -58.00000 41.00000 1.00000
v -58.00000 42.00000 0.00000
v -58.00000 42.00000 1.00000
v -58.00000 43.00000 0.00000
v -58.00000 43.00000 1.00000
v -58.00000 44.00000 0.00000
v -58.00000 44.00000 1.00000
v -58.00000 45.00000 0.00000
v -58.00000 45.00000 1.00000
v -58.00000 46.00000 0.00000
v -58.00000 46.00000 1.00000
v -58.00000 47.00000 0.00000
v -58.00000 47.00000 1.00000
v -58.00000 48.00000 1.00000
v -58.00000 48.00000 0.00000
v -57.00000 40.00000 0.00000
v -57.00000 40.00000 1.00000
v -57.00000 41.00000 0.00000
v -57.00000 41.00000 1.00000
v -57.00000 42.00000 0.00000
v -57.00000 42.00000 1.00000
v -57.00000 43.00000 0.00000
v -57.00000 43.00000 1.00000
v -57.00000 44.00000 0.00000
v -57.00000 44.00000 1.00000
v -57.00000 45.00000 0.00000
v -57.00000 45.00000 1.00000
v -57.00000 46.00000 0.00000
v -57.00000 46.00000 1.00000
v -57.00000 47.00000 0.00000
v -57.00000 47.00000 1.00000
v -57.00000 48.00000 1.00000
v -57.00000 48.00000 0.00000
v -56.00000 41.00000 1.00000
v -56.00000 40.00000 1.00000
v -56.00000 40.00000 0.00000
v -56.00000 41.00000 0.00000
v -56.00000 42.00000 1.00000
v -56.00000 42.00000 0.00000
v -56.00000 43.00000 1.00000
v -56.00000 43.00000 0.00000
v -56.00000 44.00000 1.00000
v -56.00000 44.00000 0.00000
v -56.00000 45.00000 1.00000
v -56.00000 45.00000 0.00000
v -56.00000 46.00000 1.00000
v -56.00000 46.00000 0.00000
v -56.00000 47.00000 1.00000
v -56.00000 47.00000 0.00000
v -56.00000 48.00000 1.00000
v -56.00000 48.00000 0.00000

vt 0.42578 0.01563
vt 0.42578 0.00781
vt 0.42969 0.00781
vt 0.42969 0.01563
vt 0.00391 0.01563
vt 0.00391 0.00781
vt 0.00781 0.00781
vt 0.00781 0.01563

g 101_Piece0_5_0
usemtl 101_Material
f 1/1/3 2/2/3 3/3/3 4/4/3
f 3/1/6 2/2/6 5/3/6 6/4/6
f 7/1/2 5/2/2 2/3/2 1/4/2
f 4/1/1 3/2/1 6/3/1 8/4/1
f 9/1/3 1/2/3 4/3/3 10/4/3
f 11/1/2 7/2/2 1/3/2 9/4/2
f 10/1/1 4/2/1 8/3/1 12/4/1
f 13/1/3 9/2/3 10/3/3 14/4/3
f 15/1/2 11/2/2 9/3/2 13/4/2
f 14/1/1 10/2/1 12/3/1 16/4/1
f 17/1/3 13/2/3 14/3/3 18/4/3
f 19/1/2 15/2/2 13/3/2 17/4/2
f 18/1/1 14/2/1 16/3/1 20/4/1
f 21/1/3 17/2/3 18/3/3 22/4/3
f 23/1/2 19/2/2 17/3/2 21/4/2
f 22/1/1 18/2/1 20/3/1 24/4/1
f 25/1/3 21/2/3 22/3/3 26/4/3
f 27/1/2 23/2/2 21/3/2 25/4/2
f 26/1/1 22/2/1 24/3/1 28/4/1
f 29/1/3 25/2/3 26/3/3 30/4/3
f 31/1/2 27/2/2 25/3/2 29/4/2
f 30/1/1 26/2/1 28/3/1 32/4/1
f 33/1/3 29/2/3 30/3/3 34/4/3
f 33/1/5 34/2/5 35/3/5 36/4/5
f 36/1/2 31/2/2 29/3/2 33/4/2
f 34/1/1 30/2/1 32/3/1 35/4/1
f 6/1/6 5/2/6 37/3/6 38/4/6
f 39/1/2 37/2/2 5/3/2 7/4/2
f 8/1/1 6/2/1 38/3/1 40/4/1
f 41/1/2 39/2/2 7/3/2 11/4/2
f 12/1/1 8/2/1 40/3/1 42/4/1
f 43/1/2 41/2/2 11/3/2 15/4/2
f 16/1/1 12/2/1 42/3/1 44/4/1
f 45/1/2 43/2/2 15/3/2 19/4/2
f 20/1/1 16/2/1 44/3/1 46/4/1
f 47/1/2 45/2/2 19/3/2 23/4/2
f 24/1/1 20/2/1 46/3/1 48/4/1
f 49/1/2 47/2/2 23/3/2 27/4/2
f 28/1/1 24/2/1 48/3/1 50/4/1
f 51/1/2 49/2/2 27/3/2 31/4/2
f 32/1/1 28/2/1 50/3/1 52/4/1
f 36/1/5 35/2/5 53/3/5 54/4/5
f 54/1/2 51/2/2 31/3/2 36/4/2
f 35/1/1 32/2/1 52/3/1 53/4/1
f 38/5/6 37/6/6 55/7/6 56/8/6
f 57/5/2 55/6/2 37/7/2 39/8/2
f 40/5/1 38/6/1 56/7/1 58/8/1
f 59/5/2 57/6/2 39/7/2 41/8/2
f 42/5/1 40/6/1 58/7/1 60/8/1
f 61/5/2 59/6/2 41/7/2 43/8/2
f 44/5/1 42/6/1 60/7/1 62/8/1
f 63/5/2 61/6/2 43/7/2 45/8/2
f 46/5/1 44/6/1 62/7/1 64/8/1
f 65/5/2 63/6/2 45/7/2 47/8/2
f 48/5/1 46/6/1 64/7/1 66/8/1
f 67/5/2 65/6/2 47/7/2 49/8/2
f 50/5/1 48/6/1 66/7/1 68/8/1
f 69/5/2 67/6/2 49/7/2 51/8/2
f 52/5/1 50/6/1 68/7/1 70/8/1
f 54/5/5 53/6/5 71/7/5 72/8/5
f 72/5/2 69/6/2 51/7/2 54/8/2
f 53/5/1 52/6/1 70/7/1 71/8/1
f 56/5/6 55/6/6 73/7/6 74/8/6
f 75/5/2 73/6/2 55/7/2 57/8/2
f 58/5/1 56/6/1 74/7/1 76/8/1
f 77/5/2 75/6/2 57/7/2 59/8/2
f 60/5/1 58/6/1 76/7/1 78/8/1
f 79/5/2 77/6/2 59/7/2 61/8/2
f 62/5/1 60/6/1 78/7/1 80/8/1
f 81/5/2 79/6/2 61/7/2 63/8/2
f 64/5/1 62/6/1 80/7/1 82/8/1
f 83/5/2 81/6/2 63/7/2 65/8/2
f 66/5/1 64/6/1 82/7/1 84/8/1
f 85/5/2 83/6/2 65/7/2 67/8/2
f 68/5/1 66/6/1 84/7/1 86/8/1
f 87/5/2 85/6/2 67/7/2 69/8/2
f 70/5/1 68/6/1 86/7/1 88/8/1
f 72/5/5 71/6/5 89/7/5 90/8/5
f 90/5/2 87/6/2 69/7/2 72/8/2
f 71/5/1 70/6/1 88/7/1 89/8/1
f 74/5/6 73/6/6 91/7/6 92/8/6
f 93/5/2 91/6/2 73/7/2 75/8/2
f 76/5/1 74/6/1 92/7/1 94/8/1
f 95/5/2 93/6/2 75/7/2 77/8/2
f 78/5/1 76/6/1 94/7/1 96/8/1
f 97/5/2 95/6/2 77/7/2 79/8/2
f 80/5/1 78/6/1 96/7/1 98/8/1
f 99/5/2 97/6/2 79/7/2 81/8/2
f 82/5/1 80/6/1 98/7/1 100/8/1
f 101/5/2 99/6/2 81/7/2 83/8/2
f 84/5/1 82/6/1 100/7/1 102/8/1
f 103/5/2 101/6/2 83/7/2 85/8/2
f 86/5/1 84/6/1 102/7/1 104/8/1
f 105/5/2 103/6/2 85/7/2 87/8/2
f 88/5/1 86/6/1 104/7/1 106/8/1
f 90/5/5 89/6/5 107/7/5 108/8/5
f 108/5/2 105/6/2 87/7/2 90/8/2
f 89/5/1 88/6/1 106/7/1 107/8/1
f 92/5/6 91/6/6 109/7/6 110/8/6
f 111/5/2 109/6/2 91/7/2 93/8/2
f 94/5/1 92/6/1 110/7/1 112/8/1
f 113/5/2 111/6/2 93/7/2 95/8/2
f 96/5/1 94/6/1 112/7/1 114/8/1
f 115/5/2 113/6/2 95/7/2 97/8/2
f 98/5/1 96/6/1 114/7/1 116/8/1
f 117/5/2 115/6/2 97/7/2 99/8/2
f 100/5/1 98/6/1 116/7/1 118/8/1
f 119/5/2 117/6/2 99/7/2 101/8/2
f 102/5/1 100/6/1 118/7/1 120/8/1
f 121/5/2 119/6/2 101/7/2 103/8/2
f 104/5/1 102/6/1 120/7/1 122/8/1
f 123/5/2 121/6/2 103/7/2 105/8/2
f 106/5/1 104/6/1 122/7/1 124/8/1
f 108/5/5 107/6/5 125/7/5 126/8/5
f 126/5/2 123/6/2 105/7/2 108/8/2
f 107/5/1 106/6/1 124/7/1 125/8/1
f 110/5/6 109/6/6 127/7/6 128/8/6
f 129/5/2 127/6/2 109/7/2 111/8/2
f 112/5/1 110/6/1 128/7/1 130/8/1
f 131/5/2 129/6/2 111/7/2 113/8/2
f 114/5/1 112/6/1 130/7/1 132/8/1
f 133/5/2 131/6/2 113/7/2 115/8/2
f 116/5/1 114/6/1 132/7/1 134/8/1
f 135/5/2 133/6/2 115/7/2 117/8/2
f 118/5/1 116/6/1 134/7/1 136/8/1
f 137/5/2 135/6/2 117/7/2 119/8/2
f 120/5/1 118/6/1 136/7/1 138/8/1
f 139/5/2 137/6/2 119/7/2 121/8/2
f 122/5/1 120/6/1 138/7/1 140/8/1
f 141/5/2 139/6/2 121/7/2 123/8/2
f 124/5/1 122/6/1 140/7/1 142/8/1
f 126/5/5 125/6/5 143/7/5 144/8/5
f 144/5/2 141/6/2 123/7/2 126/8/2
f 125/5/1 124/6/1 142/7/1 143/8/1
f 145/5/4 146/6/4 147/7/4 148/8/4
f 128/5/6 127/6/6 147/7/6 146/8/6
f 148/5/2 147/6/2 127/7/2 129/8/2
f 130/5/1 128/6/1 146/7/1 145/8/1
f 149/5/4 145/6/4 148/7/4 150/8/4
f 150/5/2 148/6/2 129/7/2 131/8/2
f 132/5/1 130/6/1 145/7/1 149/8/1
f 151/5/4 149/6/4 150/7/4 152/8/4
f 152/5/2 150/6/2 131/7/2 133/8/2
f 134/5/1 132/6/1 149/7/1 151/8/1
f 153/5/4 151/6/4 152/7/4 154/8/4
f 154/5/2 152/6/2 133/7/2 135/8/2
f 136/5/1 134/6/1 151/7/1 153/8/1
f 155/5/4 153/6/4 154/7/4 156/8/4
f 156/5/2 154/6/2 135/7/2 137/8/2
f 138/5/1 136/6/1 153/7/1 155/8/1
f 157/5/4 155/6/4 156/7/4 158/8/4
f 158/5/2 156/6/2 137/7/2 139/8/2
f 140/5/1 138/6/1 155/7/1 157/8/1
f 159/5/4 157/6/4 158/7/4 160/8/4
f 160/5/2 158/6/2 139/7/2 141/8/2
f 142/5/1 140/6/1 157/7/1 159/8/1
f 161/5/4 159/6/4 160/7/4 162/8/4
f 144/5/5 143/6/5 161/7/5 162/8/5
f 162/5/2 160/6/2 141/7/2 144/8/2
f 143/5/1 142/6/1 159/7/1 161/8/1
