# This file was created with Minddesk Qubicle 3.0
# Get Qubicle at www.getqubicle.com

mtllib 101_Piece9_21_0.mtl

vn 0.0 0.0 1.0
vn 0.0 0.0 -1.0
vn -1.0 0.0 0.0
vn 1.0 0.0 0.0
vn 0.0 1.0 0.0
vn 0.0 -1.0 0.0

v 8.00000 169.00000 0.00000
v 8.00000 168.00000 0.00000
v 8.00000 168.00000 1.00000
v 8.00000 169.00000 1.00000
v 9.00000 168.00000 0.00000
v 9.00000 168.00000 1.00000
v 9.00000 169.00000 0.00000
v 9.00000 169.00000 1.00000
v 8.00000 170.00000 0.00000
v 8.00000 170.00000 1.00000
v 9.00000 170.00000 0.00000
v 9.00000 170.00000 1.00000
v 8.00000 171.00000 0.00000
v 8.00000 171.00000 1.00000
v 9.00000 171.00000 0.00000
v 9.00000 171.00000 1.00000
v 8.00000 172.00000 0.00000
v 8.00000 172.00000 1.00000
v 9.00000 172.00000 0.00000
v 9.00000 172.00000 1.00000
v 8.00000 173.00000 0.00000
v 8.00000 173.00000 1.00000
v 9.00000 173.00000 0.00000
v 9.00000 173.00000 1.00000
v 8.00000 174.00000 0.00000
v 8.00000 174.00000 1.00000
v 9.00000 174.00000 0.00000
v 9.00000 174.00000 1.00000
v 8.00000 175.00000 0.00000
v 8.00000 175.00000 1.00000
v 9.00000 175.00000 0.00000
v 9.00000 175.00000 1.00000
v 8.00000 176.00000 0.00000
v 8.00000 176.00000 1.00000
v 9.00000 176.00000 1.00000
v 9.00000 176.00000 0.00000
v 10.00000 168.00000 0.00000
v 10.00000 168.00000 1.00000
v 10.00000 169.00000 0.00000
v 10.00000 169.00000 1.00000
v 10.00000 170.00000 0.00000
v 10.00000 170.00000 1.00000
v 10.00000 171.00000 0.00000
v 10.00000 171.00000 1.00000
v 10.00000 172.00000 0.00000
v 10.00000 172.00000 1.00000
v 10.00000 173.00000 0.00000
v 10.00000 173.00000 1.00000
v 10.00000 174.00000 0.00000
v 10.00000 174.00000 1.00000
v 10.00000 175.00000 0.00000
v 10.00000 175.00000 1.00000
v 10.00000 176.00000 1.00000
v 10.00000 176.00000 0.00000
v 11.00000 168.00000 0.00000
v 11.00000 168.00000 1.00000
v 11.00000 169.00000 0.00000
v 11.00000 169.00000 1.00000
v 11.00000 170.00000 0.00000
v 11.00000 170.00000 1.00000
v 11.00000 171.00000 0.00000
v 11.00000 171.00000 1.00000
v 11.00000 172.00000 0.00000
v 11.00000 172.00000 1.00000
v 11.00000 173.00000 0.00000
v 11.00000 173.00000 1.00000
v 11.00000 174.00000 0.00000
v 11.00000 174.00000 1.00000
v 11.00000 175.00000 0.00000
v 11.00000 175.00000 1.00000
v 11.00000 176.00000 1.00000
v 11.00000 176.00000 0.00000
v 12.00000 168.00000 0.00000
v 12.00000 168.00000 1.00000
v 12.00000 169.00000 0.00000
v 12.00000 169.00000 1.00000
v 12.00000 170.00000 0.00000
v 12.00000 170.00000 1.00000
v 12.00000 171.00000 0.00000
v 12.00000 171.00000 1.00000
v 12.00000 172.00000 0.00000
v 12.00000 172.00000 1.00000
v 12.00000 173.00000 0.00000
v 12.00000 173.00000 1.00000
v 12.00000 174.00000 0.00000
v 12.00000 174.00000 1.00000
v 12.00000 175.00000 0.00000
v 12.00000 175.00000 1.00000
v 12.00000 176.00000 1.00000
v 12.00000 176.00000 0.00000
v 13.00000 168.00000 0.00000
v 13.00000 168.00000 1.00000
v 13.00000 169.00000 0.00000
v 13.00000 169.00000 1.00000
v 13.00000 170.00000 0.00000
v 13.00000 170.00000 1.00000
v 13.00000 171.00000 0.00000
v 13.00000 171.00000 1.00000
v 13.00000 172.00000 0.00000
v 13.00000 172.00000 1.00000
v 13.00000 173.00000 0.00000
v 13.00000 173.00000 1.00000
v 13.00000 174.00000 0.00000
v 13.00000 174.00000 1.00000
v 13.00000 175.00000 0.00000
v 13.00000 175.00000 1.00000
v 13.00000 176.00000 1.00000
v 13.00000 176.00000 0.00000
v 14.00000 168.00000 0.00000
v 14.00000 168.00000 1.00000
v 14.00000 169.00000 0.00000
v 14.00000 169.00000 1.00000
v 14.00000 170.00000 0.00000
v 14.00000 170.00000 1.00000
v 14.00000 171.00000 0.00000
v 14.00000 171.00000 1.00000
v 14.00000 172.00000 0.00000
v 14.00000 172.00000 1.00000
v 14.00000 173.00000 0.00000
v 14.00000 173.00000 1.00000
v 14.00000 174.00000 0.00000
v 14.00000 174.00000 1.00000
v 14.00000 175.00000 0.00000
v 14.00000 175.00000 1.00000
v 14.00000 176.00000 1.00000
v 14.00000 176.00000 0.00000
v 15.00000 168.00000 0.00000
v 15.00000 168.00000 1.00000
v 15.00000 169.00000 0.00000
v 15.00000 169.00000 1.00000
v 15.00000 170.00000 0.00000
v 15.00000 170.00000 1.00000
v 15.00000 171.00000 0.00000
v 15.00000 171.00000 1.00000
v 15.00000 172.00000 0.00000
v 15.00000 172.00000 1.00000
v 15.00000 173.00000 0.00000
v 15.00000 173.00000 1.00000
v 15.00000 174.00000 0.00000
v 15.00000 174.00000 1.00000
v 15.00000 175.00000 0.00000
v 15.00000 175.00000 1.00000
v 15.00000 176.00000 1.00000
v 15.00000 176.00000 0.00000
v 16.00000 169.00000 1.00000
v 16.00000 168.00000 1.00000
v 16.00000 168.00000 0.00000
v 16.00000 169.00000 0.00000
v 16.00000 170.00000 1.00000
v 16.00000 170.00000 0.00000
v 16.00000 171.00000 1.00000
v 16.00000 171.00000 0.00000
v 16.00000 172.00000 1.00000
v 16.00000 172.00000 0.00000
v 16.00000 173.00000 1.00000
v 16.00000 173.00000 0.00000
v 16.00000 174.00000 1.00000
v 16.00000 174.00000 0.00000
v 16.00000 175.00000 1.00000
v 16.00000 175.00000 0.00000
v 16.00000 176.00000 1.00000
v 16.00000 176.00000 0.00000

vt 0.36719 0.36719
vt 0.36719 0.35938
vt 0.37109 0.35938
vt 0.37109 0.36719
vt 0.37891 0.36719
vt 0.37891 0.35938
vt 0.38281 0.35938
vt 0.38281 0.36719
vt 0.39063 0.36719
vt 0.39063 0.35938
vt 0.39453 0.35938
vt 0.39453 0.36719
vt 0.40234 0.36719
vt 0.40234 0.35938
vt 0.40625 0.35938
vt 0.40625 0.36719
vt 0.41406 0.36719
vt 0.41406 0.35938
vt 0.41797 0.35938
vt 0.41797 0.36719

g 101_Piece9_21_0
usemtl 101_Material
f 1/1/3 2/2/3 3/3/3 4/4/3
f 3/1/6 2/2/6 5/3/6 6/4/6
f 7/1/2 5/2/2 2/3/2 1/4/2
f 4/1/1 3/2/1 6/3/1 8/4/1
f 9/1/3 1/2/3 4/3/3 10/4/3
f 11/1/2 7/2/2 1/3/2 9/4/2
f 10/1/1 4/2/1 8/3/1 12/4/1
f 13/5/3 9/6/3 10/7/3 14/8/3
f 15/5/2 11/6/2 9/7/2 13/8/2
f 14/5/1 10/6/1 12/7/1 16/8/1
f 17/9/3 13/10/3 14/11/3 18/12/3
f 19/9/2 15/10/2 13/11/2 17/12/2
f 18/9/1 14/10/1 16/11/1 20/12/1
f 21/1/3 17/2/3 18/3/3 22/4/3
f 23/1/2 19/2/2 17/3/2 21/4/2
f 22/1/1 18/2/1 20/3/1 24/4/1
f 25/1/3 21/2/3 22/3/3 26/4/3
f 27/1/2 23/2/2 21/3/2 25/4/2
f 26/1/1 22/2/1 24/3/1 28/4/1
f 29/5/3 25/6/3 26/7/3 30/8/3
f 31/5/2 27/6/2 25/7/2 29/8/2
f 30/5/1 26/6/1 28/7/1 32/8/1
f 33/9/3 29/10/3 30/11/3 34/12/3
f 33/9/5 34/10/5 35/11/5 36/12/5
f 36/9/2 31/10/2 29/11/2 33/12/2
f 34/9/1 30/10/1 32/11/1 35/12/1
f 6/9/6 5/10/6 37/11/6 38/12/6
f 39/9/2 37/10/2 5/11/2 7/12/2
f 8/9/1 6/10/1 38/11/1 40/12/1
f 41/1/2 39/2/2 7/3/2 11/4/2
f 12/1/1 8/2/1 40/3/1 42/4/1
f 43/1/2 41/2/2 11/3/2 15/4/2
f 16/1/1 12/2/1 42/3/1 44/4/1
f 45/13/2 43/14/2 15/15/2 19/16/2
f 20/13/1 16/14/1 44/15/1 46/16/1
f 47/9/2 45/10/2 19/11/2 23/12/2
f 24/9/1 20/10/1 46/11/1 48/12/1
f 49/1/2 47/2/2 23/3/2 27/4/2
f 28/1/1 24/2/1 48/3/1 50/4/1
f 51/1/2 49/2/2 27/3/2 31/4/2
f 32/1/1 28/2/1 50/3/1 52/4/1
f 36/13/5 35/14/5 53/15/5 54/16/5
f 54/13/2 51/14/2 31/15/2 36/16/2
f 35/13/1 32/14/1 52/15/1 53/16/1
f 38/9/6 37/10/6 55/11/6 56/12/6
f 57/9/2 55/10/2 37/11/2 39/12/2
f 40/9/1 38/10/1 56/11/1 58/12/1
f 59/1/2 57/2/2 39/3/2 41/4/2
f 42/1/1 40/2/1 58/3/1 60/4/1
f 61/1/2 59/2/2 41/3/2 43/4/2
f 44/1/1 42/2/1 60/3/1 62/4/1
f 63/13/2 61/14/2 43/15/2 45/16/2
f 46/13/1 44/14/1 62/15/1 64/16/1
f 65/9/2 63/10/2 45/11/2 47/12/2
f 48/9/1 46/10/1 64/11/1 66/12/1
f 67/1/2 65/2/2 47/3/2 49/4/2
f 50/1/1 48/2/1 66/3/1 68/4/1
f 69/1/2 67/2/2 49/3/2 51/4/2
f 52/1/1 50/2/1 68/3/1 70/4/1
f 54/13/5 53/14/5 71/15/5 72/16/5
f 72/13/2 69/14/2 51/15/2 54/16/2
f 53/13/1 52/14/1 70/15/1 71/16/1
f 56/1/6 55/2/6 73/3/6 74/4/6
f 75/1/2 73/2/2 55/3/2 57/4/2
f 58/1/1 56/2/1 74/3/1 76/4/1
f 77/1/2 75/2/2 57/3/2 59/4/2
f 60/1/1 58/2/1 76/3/1 78/4/1
f 79/13/2 77/14/2 59/15/2 61/16/2
f 62/13/1 60/14/1 78/15/1 80/16/1
f 81/9/2 79/10/2 61/11/2 63/12/2
f 64/9/1 62/10/1 80/11/1 82/12/1
f 83/9/2 81/10/2 63/11/2 65/12/2
f 66/9/1 64/10/1 82/11/1 84/12/1
f 85/1/2 83/2/2 65/3/2 67/4/2
f 68/1/1 66/2/1 84/3/1 86/4/1
f 87/13/2 85/14/2 67/15/2 69/16/2
f 70/13/1 68/14/1 86/15/1 88/16/1
f 72/9/5 71/10/5 89/11/5 90/12/5
f 90/9/2 87/10/2 69/11/2 72/12/2
f 71/9/1 70/10/1 88/11/1 89/12/1
f 74/1/6 73/2/6 91/3/6 92/4/6
f 93/1/2 91/2/2 73/3/2 75/4/2
f 76/1/1 74/2/1 92/3/1 94/4/1
f 95/1/2 93/2/2 75/3/2 77/4/2
f 78/1/1 76/2/1 94/3/1 96/4/1
f 97/17/2 95/18/2 77/19/2 79/20/2
f 80/17/1 78/18/1 96/19/1 98/20/1
f 99/9/2 97/10/2 79/11/2 81/12/2
f 82/9/1 80/10/1 98/11/1 100/12/1
f 101/1/2 99/2/2 81/3/2 83/4/2
f 84/1/1 82/2/1 100/3/1 102/4/1
f 103/1/2 101/2/2 83/3/2 85/4/2
f 86/1/1 84/2/1 102/3/1 104/4/1
f 105/17/2 103/18/2 85/19/2 87/20/2
f 88/17/1 86/18/1 104/19/1 106/20/1
f 90/9/5 89/10/5 107/11/5 108/12/5
f 108/9/2 105/10/2 87/11/2 90/12/2
f 89/9/1 88/10/1 106/11/1 107/12/1
f 92/1/6 91/2/6 109/3/6 110/4/6
f 111/1/2 109/2/2 91/3/2 93/4/2
f 94/1/1 92/2/1 110/3/1 112/4/1
f 113/17/2 111/18/2 93/19/2 95/20/2
f 96/17/1 94/18/1 112/19/1 114/20/1
f 115/9/2 113/10/2 95/11/2 97/12/2
f 98/9/1 96/10/1 114/11/1 116/12/1
f 117/9/2 115/10/2 97/11/2 99/12/2
f 100/9/1 98/10/1 116/11/1 118/12/1
f 119/1/2 117/2/2 99/3/2 101/4/2
f 102/1/1 100/2/1 118/3/1 120/4/1
f 121/17/2 119/18/2 101/19/2 103/20/2
f 104/17/1 102/18/1 120/19/1 122/20/1
f 123/9/2 121/10/2 103/11/2 105/12/2
f 106/9/1 104/10/1 122/11/1 124/12/1
f 108/9/5 107/10/5 125/11/5 126/12/5
f 126/9/2 123/10/2 105/11/2 108/12/2
f 107/9/1 106/10/1 124/11/1 125/12/1
f 110/1/6 109/2/6 127/3/6 128/4/6
f 129/1/2 127/2/2 109/3/2 111/4/2
f 112/1/1 110/2/1 128/3/1 130/4/1
f 131/5/2 129/6/2 111/7/2 113/8/2
f 114/5/1 112/6/1 130/7/1 132/8/1
f 133/9/2 131/10/2 113/11/2 115/12/2
f 116/9/1 114/10/1 132/11/1 134/12/1
f 135/9/2 133/10/2 115/11/2 117/12/2
f 118/9/1 116/10/1 134/11/1 136/12/1
f 137/1/2 135/2/2 117/3/2 119/4/2
f 120/1/1 118/2/1 136/3/1 138/4/1
f 139/5/2 137/6/2 119/7/2 121/8/2
f 122/5/1 120/6/1 138/7/1 140/8/1
f 141/9/2 139/10/2 121/11/2 123/12/2
f 124/9/1 122/10/1 140/11/1 142/12/1
f 126/9/5 125/10/5 143/11/5 144/12/5
f 144/9/2 141/10/2 123/11/2 126/12/2
f 125/9/1 124/10/1 142/11/1 143/12/1
f 145/1/4 146/2/4 147/3/4 148/4/4
f 128/1/6 127/2/6 147/3/6 146/4/6
f 148/1/2 147/2/2 127/3/2 129/4/2
f 130/1/1 128/2/1 146/3/1 145/4/1
f 149/5/4 145/6/4 148/7/4 150/8/4
f 150/5/2 148/6/2 129/7/2 131/8/2
f 132/5/1 130/6/1 145/7/1 149/8/1
f 151/9/4 149/10/4 150/11/4 152/12/4
f 152/9/2 150/10/2 131/11/2 133/12/2
f 134/9/1 132/10/1 149/11/1 151/12/1
f 153/9/4 151/10/4 152/11/4 154/12/4
f 154/9/2 152/10/2 133/11/2 135/12/2
f 136/9/1 134/10/1 151/11/1 153/12/1
f 155/1/4 153/2/4 154/3/4 156/4/4
f 156/1/2 154/2/2 135/3/2 137/4/2
f 138/1/1 136/2/1 153/3/1 155/4/1
f 157/5/4 155/6/4 156/7/4 158/8/4
f 158/5/2 156/6/2 137/7/2 139/8/2
f 140/5/1 138/6/1 155/7/1 157/8/1
f 159/9/4 157/10/4 158/11/4 160/12/4
f 160/9/2 158/10/2 139/11/2 141/12/2
f 142/9/1 140/10/1 157/11/1 159/12/1
f 161/9/4 159/10/4 160/11/4 162/12/4
f 144/9/5 143/10/5 161/11/5 162/12/5
f 162/9/2 160/10/2 141/11/2 144/12/2
f 143/9/1 142/10/1 159/11/1 161/12/1
