# This file was created with Minddesk Qubicle 3.0
# Get Qubicle at www.getqubicle.com

mtllib 101_Piece14_7_0.mtl

vn 0.0 0.0 1.0
vn 0.0 0.0 -1.0
vn -1.0 0.0 0.0
vn 1.0 0.0 0.0
vn 0.0 1.0 0.0
vn 0.0 -1.0 0.0

v 48.00000 57.00000 0.00000
v 48.00000 56.00000 0.00000
v 48.00000 56.00000 1.00000
v 48.00000 57.00000 1.00000
v 49.00000 56.00000 0.00000
v 49.00000 56.00000 1.00000
v 49.00000 57.00000 0.00000
v 49.00000 57.00000 1.00000
v 48.00000 58.00000 0.00000
v 48.00000 58.00000 1.00000
v 49.00000 58.00000 0.00000
v 49.00000 58.00000 1.00000
v 48.00000 59.00000 0.00000
v 48.00000 59.00000 1.00000
v 49.00000 59.00000 0.00000
v 49.00000 59.00000 1.00000
v 48.00000 60.00000 0.00000
v 48.00000 60.00000 1.00000
v 49.00000 60.00000 0.00000
v 49.00000 60.00000 1.00000
v 48.00000 61.00000 0.00000
v 48.00000 61.00000 1.00000
v 49.00000 61.00000 0.00000
v 49.00000 61.00000 1.00000
v 48.00000 62.00000 0.00000
v 48.00000 62.00000 1.00000
v 49.00000 62.00000 0.00000
v 49.00000 62.00000 1.00000
v 48.00000 63.00000 0.00000
v 48.00000 63.00000 1.00000
v 49.00000 63.00000 0.00000
v 49.00000 63.00000 1.00000
v 48.00000 64.00000 0.00000
v 48.00000 64.00000 1.00000
v 49.00000 64.00000 1.00000
v 49.00000 64.00000 0.00000
v 50.00000 56.00000 0.00000
v 50.00000 56.00000 1.00000
v 50.00000 57.00000 0.00000
v 50.00000 57.00000 1.00000
v 50.00000 58.00000 0.00000
v 50.00000 58.00000 1.00000
v 50.00000 59.00000 0.00000
v 50.00000 59.00000 1.00000
v 50.00000 60.00000 0.00000
v 50.00000 60.00000 1.00000
v 50.00000 61.00000 0.00000
v 50.00000 61.00000 1.00000
v 50.00000 62.00000 0.00000
v 50.00000 62.00000 1.00000
v 50.00000 63.00000 0.00000
v 50.00000 63.00000 1.00000
v 50.00000 64.00000 1.00000
v 50.00000 64.00000 0.00000
v 51.00000 56.00000 0.00000
v 51.00000 56.00000 1.00000
v 51.00000 57.00000 0.00000
v 51.00000 57.00000 1.00000
v 51.00000 58.00000 0.00000
v 51.00000 58.00000 1.00000
v 51.00000 59.00000 0.00000
v 51.00000 59.00000 1.00000
v 51.00000 60.00000 0.00000
v 51.00000 60.00000 1.00000
v 51.00000 61.00000 0.00000
v 51.00000 61.00000 1.00000
v 51.00000 62.00000 0.00000
v 51.00000 62.00000 1.00000
v 51.00000 63.00000 0.00000
v 51.00000 63.00000 1.00000
v 51.00000 64.00000 1.00000
v 51.00000 64.00000 0.00000
v 52.00000 56.00000 0.00000
v 52.00000 56.00000 1.00000
v 52.00000 57.00000 0.00000
v 52.00000 57.00000 1.00000
v 52.00000 58.00000 0.00000
v 52.00000 58.00000 1.00000
v 52.00000 59.00000 0.00000
v 52.00000 59.00000 1.00000
v 52.00000 60.00000 0.00000
v 52.00000 60.00000 1.00000
v 52.00000 61.00000 0.00000
v 52.00000 61.00000 1.00000
v 52.00000 62.00000 0.00000
v 52.00000 62.00000 1.00000
v 52.00000 63.00000 0.00000
v 52.00000 63.00000 1.00000
v 52.00000 64.00000 1.00000
v 52.00000 64.00000 0.00000
v 53.00000 56.00000 0.00000
v 53.00000 56.00000 1.00000
v 53.00000 57.00000 0.00000
v 53.00000 57.00000 1.00000
v 53.00000 58.00000 0.00000
v 53.00000 58.00000 1.00000
v 53.00000 59.00000 0.00000
v 53.00000 59.00000 1.00000
v 53.00000 60.00000 0.00000
v 53.00000 60.00000 1.00000
v 53.00000 61.00000 0.00000
v 53.00000 61.00000 1.00000
v 53.00000 62.00000 0.00000
v 53.00000 62.00000 1.00000
v 53.00000 63.00000 0.00000
v 53.00000 63.00000 1.00000
v 53.00000 64.00000 1.00000
v 53.00000 64.00000 0.00000
v 54.00000 56.00000 0.00000
v 54.00000 56.00000 1.00000
v 54.00000 57.00000 0.00000
v 54.00000 57.00000 1.00000
v 54.00000 58.00000 0.00000
v 54.00000 58.00000 1.00000
v 54.00000 59.00000 0.00000
v 54.00000 59.00000 1.00000
v 54.00000 60.00000 0.00000
v 54.00000 60.00000 1.00000
v 54.00000 61.00000 0.00000
v 54.00000 61.00000 1.00000
v 54.00000 62.00000 0.00000
v 54.00000 62.00000 1.00000
v 54.00000 63.00000 0.00000
v 54.00000 63.00000 1.00000
v 54.00000 64.00000 1.00000
v 54.00000 64.00000 0.00000
v 55.00000 56.00000 0.00000
v 55.00000 56.00000 1.00000
v 55.00000 57.00000 0.00000
v 55.00000 57.00000 1.00000
v 55.00000 58.00000 0.00000
v 55.00000 58.00000 1.00000
v 55.00000 59.00000 0.00000
v 55.00000 59.00000 1.00000
v 55.00000 60.00000 0.00000
v 55.00000 60.00000 1.00000
v 55.00000 61.00000 0.00000
v 55.00000 61.00000 1.00000
v 55.00000 62.00000 0.00000
v 55.00000 62.00000 1.00000
v 55.00000 63.00000 0.00000
v 55.00000 63.00000 1.00000
v 55.00000 64.00000 1.00000
v 55.00000 64.00000 0.00000
v 56.00000 57.00000 1.00000
v 56.00000 56.00000 1.00000
v 56.00000 56.00000 0.00000
v 56.00000 57.00000 0.00000
v 56.00000 58.00000 1.00000
v 56.00000 58.00000 0.00000
v 56.00000 59.00000 1.00000
v 56.00000 59.00000 0.00000
v 56.00000 60.00000 1.00000
v 56.00000 60.00000 0.00000
v 56.00000 61.00000 1.00000
v 56.00000 61.00000 0.00000
v 56.00000 62.00000 1.00000
v 56.00000 62.00000 0.00000
v 56.00000 63.00000 1.00000
v 56.00000 63.00000 0.00000
v 56.00000 64.00000 1.00000
v 56.00000 64.00000 0.00000

vt 0.49609 0.01563
vt 0.49609 0.00781
vt 0.50000 0.00781
vt 0.50000 0.01563
vt 0.48438 0.01563
vt 0.48438 0.00781
vt 0.48828 0.00781
vt 0.48828 0.01563
vt 0.29688 0.27344
vt 0.29688 0.26563
vt 0.30078 0.26563
vt 0.30078 0.27344
vt 0.00391 0.48438
vt 0.00391 0.47656
vt 0.00781 0.47656
vt 0.00781 0.48438
vt 0.01563 0.48438
vt 0.01563 0.47656
vt 0.01953 0.47656
vt 0.01953 0.48438
vt 0.02734 0.48438
vt 0.02734 0.47656
vt 0.03125 0.47656
vt 0.03125 0.48438
vt 0.32031 0.27344
vt 0.32031 0.26563
vt 0.32422 0.26563
vt 0.32422 0.27344
vt 0.35547 0.27344
vt 0.35547 0.26563
vt 0.35938 0.26563
vt 0.35938 0.27344
vt 0.36719 0.27344
vt 0.36719 0.26563
vt 0.37109 0.26563
vt 0.37109 0.27344
vt 0.37891 0.27344
vt 0.37891 0.26563
vt 0.38281 0.26563
vt 0.38281 0.27344
vt 0.33203 0.27344
vt 0.33203 0.26563
vt 0.33594 0.26563
vt 0.33594 0.27344

g 101_Piece14_7_0
usemtl 101_Material
f 1/1/3 2/2/3 3/3/3 4/4/3
f 3/1/6 2/2/6 5/3/6 6/4/6
f 7/1/2 5/2/2 2/3/2 1/4/2
f 4/1/1 3/2/1 6/3/1 8/4/1
f 9/1/3 1/2/3 4/3/3 10/4/3
f 11/1/2 7/2/2 1/3/2 9/4/2
f 10/1/1 4/2/1 8/3/1 12/4/1
f 13/5/3 9/6/3 10/7/3 14/8/3
f 15/5/2 11/6/2 9/7/2 13/8/2
f 14/5/1 10/6/1 12/7/1 16/8/1
f 17/5/3 13/6/3 14/7/3 18/8/3
f 19/5/2 15/6/2 13/7/2 17/8/2
f 18/5/1 14/6/1 16/7/1 20/8/1
f 21/5/3 17/6/3 18/7/3 22/8/3
f 23/5/2 19/6/2 17/7/2 21/8/2
f 22/5/1 18/6/1 20/7/1 24/8/1
f 25/5/3 21/6/3 22/7/3 26/8/3
f 27/5/2 23/6/2 21/7/2 25/8/2
f 26/5/1 22/6/1 24/7/1 28/8/1
f 29/5/3 25/6/3 26/7/3 30/8/3
f 31/5/2 27/6/2 25/7/2 29/8/2
f 30/5/1 26/6/1 28/7/1 32/8/1
f 33/1/3 29/2/3 30/3/3 34/4/3
f 33/1/5 34/2/5 35/3/5 36/4/5
f 36/1/2 31/2/2 29/3/2 33/4/2
f 34/1/1 30/2/1 32/3/1 35/4/1
f 6/5/6 5/6/6 37/7/6 38/8/6
f 39/5/2 37/6/2 5/7/2 7/8/2
f 8/5/1 6/6/1 38/7/1 40/8/1
f 41/5/2 39/6/2 7/7/2 11/8/2
f 12/5/1 8/6/1 40/7/1 42/8/1
f 43/5/2 41/6/2 11/7/2 15/8/2
f 16/5/1 12/6/1 42/7/1 44/8/1
f 45/5/2 43/6/2 15/7/2 19/8/2
f 20/5/1 16/6/1 44/7/1 46/8/1
f 47/5/2 45/6/2 19/7/2 23/8/2
f 24/5/1 20/6/1 46/7/1 48/8/1
f 49/5/2 47/6/2 23/7/2 27/8/2
f 28/5/1 24/6/1 48/7/1 50/8/1
f 51/5/2 49/6/2 27/7/2 31/8/2
f 32/5/1 28/6/1 50/7/1 52/8/1
f 36/5/5 35/6/5 53/7/5 54/8/5
f 54/5/2 51/6/2 31/7/2 36/8/2
f 35/5/1 32/6/1 52/7/1 53/8/1
f 38/9/6 37/10/6 55/11/6 56/12/6
f 57/9/2 55/10/2 37/11/2 39/12/2
f 40/9/1 38/10/1 56/11/1 58/12/1
f 59/13/2 57/14/2 39/15/2 41/16/2
f 42/13/1 40/14/1 58/15/1 60/16/1
f 61/9/2 59/10/2 41/11/2 43/12/2
f 44/9/1 42/10/1 60/11/1 62/12/1
f 63/9/2 61/10/2 43/11/2 45/12/2
f 46/9/1 44/10/1 62/11/1 64/12/1
f 65/13/2 63/14/2 45/15/2 47/16/2
f 48/13/1 46/14/1 64/15/1 66/16/1
f 67/9/2 65/10/2 47/11/2 49/12/2
f 50/9/1 48/10/1 66/11/1 68/12/1
f 69/5/2 67/6/2 49/7/2 51/8/2
f 52/5/1 50/6/1 68/7/1 70/8/1
f 54/5/5 53/6/5 71/7/5 72/8/5
f 72/5/2 69/6/2 51/7/2 54/8/2
f 53/5/1 52/6/1 70/7/1 71/8/1
f 56/9/6 55/10/6 73/11/6 74/12/6
f 75/9/2 73/10/2 55/11/2 57/12/2
f 58/9/1 56/10/1 74/11/1 76/12/1
f 77/13/2 75/14/2 57/15/2 59/16/2
f 60/13/1 58/14/1 76/15/1 78/16/1
f 79/9/2 77/10/2 59/11/2 61/12/2
f 62/9/1 60/10/1 78/11/1 80/12/1
f 81/9/2 79/10/2 61/11/2 63/12/2
f 64/9/1 62/10/1 80/11/1 82/12/1
f 83/13/2 81/14/2 63/15/2 65/16/2
f 66/13/1 64/14/1 82/15/1 84/16/1
f 85/9/2 83/10/2 65/11/2 67/12/2
f 68/9/1 66/10/1 84/11/1 86/12/1
f 87/9/2 85/10/2 67/11/2 69/12/2
f 70/9/1 68/10/1 86/11/1 88/12/1
f 72/5/5 71/6/5 89/7/5 90/8/5
f 90/5/2 87/6/2 69/7/2 72/8/2
f 71/5/1 70/6/1 88/7/1 89/8/1
f 74/9/6 73/10/6 91/11/6 92/12/6
f 93/9/2 91/10/2 73/11/2 75/12/2
f 76/9/1 74/10/1 92/11/1 94/12/1
f 95/17/2 93/18/2 75/19/2 77/20/2
f 78/17/1 76/18/1 94/19/1 96/20/1
f 97/21/2 95/22/2 77/23/2 79/24/2
f 80/21/1 78/22/1 96/23/1 98/24/1
f 99/9/2 97/10/2 79/11/2 81/12/2
f 82/9/1 80/10/1 98/11/1 100/12/1
f 101/17/2 99/18/2 81/19/2 83/20/2
f 84/17/1 82/18/1 100/19/1 102/20/1
f 103/25/2 101/26/2 83/27/2 85/28/2
f 86/25/1 84/26/1 102/27/1 104/28/1
f 105/9/2 103/10/2 85/11/2 87/12/2
f 88/9/1 86/10/1 104/11/1 106/12/1
f 90/5/5 89/6/5 107/7/5 108/8/5
f 108/5/2 105/6/2 87/7/2 90/8/2
f 89/5/1 88/6/1 106/7/1 107/8/1
f 92/9/6 91/10/6 109/11/6 110/12/6
f 111/9/2 109/10/2 91/11/2 93/12/2
f 94/9/1 92/10/1 110/11/1 112/12/1
f 113/17/2 111/18/2 93/19/2 95/20/2
f 96/17/1 94/18/1 112/19/1 114/20/1
f 115/29/2 113/30/2 95/31/2 97/32/2
f 98/29/1 96/30/1 114/31/1 116/32/1
f 117/9/2 115/10/2 97/11/2 99/12/2
f 100/9/1 98/10/1 116/11/1 118/12/1
f 119/17/2 117/18/2 99/19/2 101/20/2
f 102/17/1 100/18/1 118/19/1 120/20/1
f 121/33/2 119/34/2 101/35/2 103/36/2
f 104/33/1 102/34/1 120/35/1 122/36/1
f 123/33/2 121/34/2 103/35/2 105/36/2
f 106/33/1 104/34/1 122/35/1 124/36/1
f 108/5/5 107/6/5 125/7/5 126/8/5
f 126/5/2 123/6/2 105/7/2 108/8/2
f 107/5/1 106/6/1 124/7/1 125/8/1
f 110/9/6 109/10/6 127/11/6 128/12/6
f 129/9/2 127/10/2 109/11/2 111/12/2
f 112/9/1 110/10/1 128/11/1 130/12/1
f 131/17/2 129/18/2 111/19/2 113/20/2
f 114/17/1 112/18/1 130/19/1 132/20/1
f 133/9/2 131/10/2 113/11/2 115/12/2
f 116/9/1 114/10/1 132/11/1 134/12/1
f 135/9/2 133/10/2 115/11/2 117/12/2
f 118/9/1 116/10/1 134/11/1 136/12/1
f 137/17/2 135/18/2 117/19/2 119/20/2
f 120/17/1 118/18/1 136/19/1 138/20/1
f 139/37/2 137/38/2 119/39/2 121/40/2
f 122/37/1 120/38/1 138/39/1 140/40/1
f 141/33/2 139/34/2 121/35/2 123/36/2
f 124/33/1 122/34/1 140/35/1 142/36/1
f 126/41/5 125/42/5 143/43/5 144/44/5
f 144/41/2 141/42/2 123/43/2 126/44/2
f 125/41/1 124/42/1 142/43/1 143/44/1
f 145/9/4 146/10/4 147/11/4 148/12/4
f 128/9/6 127/10/6 147/11/6 146/12/6
f 148/9/2 147/10/2 127/11/2 129/12/2
f 130/9/1 128/10/1 146/11/1 145/12/1
f 149/17/4 145/18/4 148/19/4 150/20/4
f 150/17/2 148/18/2 129/19/2 131/20/2
f 132/17/1 130/18/1 145/19/1 149/20/1
f 151/25/4 149/26/4 150/27/4 152/28/4
f 152/25/2 150/26/2 131/27/2 133/28/2
f 134/25/1 132/26/1 149/27/1 151/28/1
f 153/9/4 151/10/4 152/11/4 154/12/4
f 154/9/2 152/10/2 133/11/2 135/12/2
f 136/9/1 134/10/1 151/11/1 153/12/1
f 155/17/4 153/18/4 154/19/4 156/20/4
f 156/17/2 154/18/2 135/19/2 137/20/2
f 138/17/1 136/18/1 153/19/1 155/20/1
f 157/9/4 155/10/4 156/11/4 158/12/4
f 158/9/2 156/10/2 137/11/2 139/12/2
f 140/9/1 138/10/1 155/11/1 157/12/1
f 159/9/4 157/10/4 158/11/4 160/12/4
f 160/9/2 158/10/2 139/11/2 141/12/2
f 142/9/1 140/10/1 157/11/1 159/12/1
f 161/41/4 159/42/4 160/43/4 162/44/4
f 144/41/5 143/42/5 161/43/5 162/44/5
f 162/41/2 160/42/2 141/43/2 144/44/2
f 143/41/1 142/42/1 159/43/1 161/44/1
