# This file was created with Minddesk Qubicle 3.0
# Get Qubicle at www.getqubicle.com

mtllib 101_Piece15_1_0.mtl

vn 0.0 0.0 1.0
vn 0.0 0.0 -1.0
vn -1.0 0.0 0.0
vn 1.0 0.0 0.0
vn 0.0 1.0 0.0
vn 0.0 -1.0 0.0

v 56.00000 9.00000 0.00000
v 56.00000 8.00000 0.00000
v 56.00000 8.00000 1.00000
v 56.00000 9.00000 1.00000
v 57.00000 8.00000 0.00000
v 57.00000 8.00000 1.00000
v 57.00000 9.00000 0.00000
v 57.00000 9.00000 1.00000
v 56.00000 10.00000 0.00000
v 56.00000 10.00000 1.00000
v 57.00000 10.00000 0.00000
v 57.00000 10.00000 1.00000
v 56.00000 11.00000 0.00000
v 56.00000 11.00000 1.00000
v 57.00000 11.00000 0.00000
v 57.00000 11.00000 1.00000
v 56.00000 12.00000 0.00000
v 56.00000 12.00000 1.00000
v 57.00000 12.00000 0.00000
v 57.00000 12.00000 1.00000
v 56.00000 13.00000 0.00000
v 56.00000 13.00000 1.00000
v 57.00000 13.00000 0.00000
v 57.00000 13.00000 1.00000
v 56.00000 14.00000 0.00000
v 56.00000 14.00000 1.00000
v 57.00000 14.00000 0.00000
v 57.00000 14.00000 1.00000
v 56.00000 15.00000 0.00000
v 56.00000 15.00000 1.00000
v 57.00000 15.00000 0.00000
v 57.00000 15.00000 1.00000
v 56.00000 16.00000 0.00000
v 56.00000 16.00000 1.00000
v 57.00000 16.00000 1.00000
v 57.00000 16.00000 0.00000
v 58.00000 8.00000 0.00000
v 58.00000 8.00000 1.00000
v 58.00000 9.00000 0.00000
v 58.00000 9.00000 1.00000
v 58.00000 10.00000 0.00000
v 58.00000 10.00000 1.00000
v 58.00000 11.00000 0.00000
v 58.00000 11.00000 1.00000
v 58.00000 12.00000 0.00000
v 58.00000 12.00000 1.00000
v 58.00000 13.00000 0.00000
v 58.00000 13.00000 1.00000
v 58.00000 14.00000 0.00000
v 58.00000 14.00000 1.00000
v 58.00000 15.00000 0.00000
v 58.00000 15.00000 1.00000
v 58.00000 16.00000 1.00000
v 58.00000 16.00000 0.00000
v 59.00000 8.00000 0.00000
v 59.00000 8.00000 1.00000
v 59.00000 9.00000 0.00000
v 59.00000 9.00000 1.00000
v 59.00000 10.00000 0.00000
v 59.00000 10.00000 1.00000
v 59.00000 11.00000 0.00000
v 59.00000 11.00000 1.00000
v 59.00000 12.00000 0.00000
v 59.00000 12.00000 1.00000
v 59.00000 13.00000 0.00000
v 59.00000 13.00000 1.00000
v 59.00000 14.00000 0.00000
v 59.00000 14.00000 1.00000
v 59.00000 15.00000 0.00000
v 59.00000 15.00000 1.00000
v 59.00000 16.00000 1.00000
v 59.00000 16.00000 0.00000
v 60.00000 8.00000 0.00000
v 60.00000 8.00000 1.00000
v 60.00000 9.00000 0.00000
v 60.00000 9.00000 1.00000
v 60.00000 10.00000 0.00000
v 60.00000 10.00000 1.00000
v 60.00000 11.00000 0.00000
v 60.00000 11.00000 1.00000
v 60.00000 12.00000 0.00000
v 60.00000 12.00000 1.00000
v 60.00000 13.00000 0.00000
v 60.00000 13.00000 1.00000
v 60.00000 14.00000 0.00000
v 60.00000 14.00000 1.00000
v 60.00000 15.00000 0.00000
v 60.00000 15.00000 1.00000
v 60.00000 16.00000 1.00000
v 60.00000 16.00000 0.00000
v 61.00000 8.00000 0.00000
v 61.00000 8.00000 1.00000
v 61.00000 9.00000 0.00000
v 61.00000 9.00000 1.00000
v 61.00000 10.00000 0.00000
v 61.00000 10.00000 1.00000
v 61.00000 11.00000 0.00000
v 61.00000 11.00000 1.00000
v 61.00000 12.00000 0.00000
v 61.00000 12.00000 1.00000
v 61.00000 13.00000 0.00000
v 61.00000 13.00000 1.00000
v 61.00000 14.00000 0.00000
v 61.00000 14.00000 1.00000
v 61.00000 15.00000 0.00000
v 61.00000 15.00000 1.00000
v 61.00000 16.00000 1.00000
v 61.00000 16.00000 0.00000
v 62.00000 8.00000 0.00000
v 62.00000 8.00000 1.00000
v 62.00000 9.00000 0.00000
v 62.00000 9.00000 1.00000
v 62.00000 10.00000 0.00000
v 62.00000 10.00000 1.00000
v 62.00000 11.00000 0.00000
v 62.00000 11.00000 1.00000
v 62.00000 12.00000 0.00000
v 62.00000 12.00000 1.00000
v 62.00000 13.00000 0.00000
v 62.00000 13.00000 1.00000
v 62.00000 14.00000 0.00000
v 62.00000 14.00000 1.00000
v 62.00000 15.00000 0.00000
v 62.00000 15.00000 1.00000
v 62.00000 16.00000 1.00000
v 62.00000 16.00000 0.00000
v 63.00000 8.00000 0.00000
v 63.00000 8.00000 1.00000
v 63.00000 9.00000 0.00000
v 63.00000 9.00000 1.00000
v 63.00000 10.00000 0.00000
v 63.00000 10.00000 1.00000
v 63.00000 11.00000 0.00000
v 63.00000 11.00000 1.00000
v 63.00000 12.00000 0.00000
v 63.00000 12.00000 1.00000
v 63.00000 13.00000 0.00000
v 63.00000 13.00000 1.00000
v 63.00000 14.00000 0.00000
v 63.00000 14.00000 1.00000
v 63.00000 15.00000 0.00000
v 63.00000 15.00000 1.00000
v 63.00000 16.00000 1.00000
v 63.00000 16.00000 0.00000
v 64.00000 9.00000 1.00000
v 64.00000 8.00000 1.00000
v 64.00000 8.00000 0.00000
v 64.00000 9.00000 0.00000
v 64.00000 10.00000 1.00000
v 64.00000 10.00000 0.00000
v 64.00000 11.00000 1.00000
v 64.00000 11.00000 0.00000
v 64.00000 12.00000 1.00000
v 64.00000 12.00000 0.00000
v 64.00000 13.00000 1.00000
v 64.00000 13.00000 0.00000
v 64.00000 14.00000 1.00000
v 64.00000 14.00000 0.00000
v 64.00000 15.00000 1.00000
v 64.00000 15.00000 0.00000
v 64.00000 16.00000 1.00000
v 64.00000 16.00000 0.00000

vt 0.16797 0.25000
vt 0.16797 0.24219
vt 0.17188 0.24219
vt 0.17188 0.25000
vt 0.17969 0.25000
vt 0.17969 0.24219
vt 0.18359 0.24219
vt 0.18359 0.25000
vt 0.19141 0.25000
vt 0.19141 0.24219
vt 0.19531 0.24219
vt 0.19531 0.25000
vt 0.21484 0.25000
vt 0.21484 0.24219
vt 0.21875 0.24219
vt 0.21875 0.25000
vt 0.20313 0.25000
vt 0.20313 0.24219
vt 0.20703 0.24219
vt 0.20703 0.25000

g 101_Piece15_1_0
usemtl 101_Material
f 1/1/3 2/2/3 3/3/3 4/4/3
f 3/1/6 2/2/6 5/3/6 6/4/6
f 7/1/2 5/2/2 2/3/2 1/4/2
f 4/1/1 3/2/1 6/3/1 8/4/1
f 9/1/3 1/2/3 4/3/3 10/4/3
f 11/1/2 7/2/2 1/3/2 9/4/2
f 10/1/1 4/2/1 8/3/1 12/4/1
f 13/5/3 9/6/3 10/7/3 14/8/3
f 15/5/2 11/6/2 9/7/2 13/8/2
f 14/5/1 10/6/1 12/7/1 16/8/1
f 17/5/3 13/6/3 14/7/3 18/8/3
f 19/5/2 15/6/2 13/7/2 17/8/2
f 18/5/1 14/6/1 16/7/1 20/8/1
f 21/9/3 17/10/3 18/11/3 22/12/3
f 23/9/2 19/10/2 17/11/2 21/12/2
f 22/9/1 18/10/1 20/11/1 24/12/1
f 25/9/3 21/10/3 22/11/3 26/12/3
f 27/9/2 23/10/2 21/11/2 25/12/2
f 26/9/1 22/10/1 24/11/1 28/12/1
f 29/1/3 25/2/3 26/3/3 30/4/3
f 31/1/2 27/2/2 25/3/2 29/4/2
f 30/1/1 26/2/1 28/3/1 32/4/1
f 33/13/3 29/14/3 30/15/3 34/16/3
f 33/13/5 34/14/5 35/15/5 36/16/5
f 36/13/2 31/14/2 29/15/2 33/16/2
f 34/13/1 30/14/1 32/15/1 35/16/1
f 6/1/6 5/2/6 37/3/6 38/4/6
f 39/1/2 37/2/2 5/3/2 7/4/2
f 8/1/1 6/2/1 38/3/1 40/4/1
f 41/17/2 39/18/2 7/19/2 11/20/2
f 12/17/1 8/18/1 40/19/1 42/20/1
f 43/5/2 41/6/2 11/7/2 15/8/2
f 16/5/1 12/6/1 42/7/1 44/8/1
f 45/1/2 43/2/2 15/3/2 19/4/2
f 20/1/1 16/2/1 44/3/1 46/4/1
f 47/13/2 45/14/2 19/15/2 23/16/2
f 24/13/1 20/14/1 46/15/1 48/16/1
f 49/5/2 47/6/2 23/7/2 27/8/2
f 28/5/1 24/6/1 48/7/1 50/8/1
f 51/17/2 49/18/2 27/19/2 31/20/2
f 32/17/1 28/18/1 50/19/1 52/20/1
f 36/1/5 35/2/5 53/3/5 54/4/5
f 54/1/2 51/2/2 31/3/2 36/4/2
f 35/1/1 32/2/1 52/3/1 53/4/1
f 38/17/6 37/18/6 55/19/6 56/20/6
f 57/17/2 55/18/2 37/19/2 39/20/2
f 40/17/1 38/18/1 56/19/1 58/20/1
f 59/5/2 57/6/2 39/7/2 41/8/2
f 42/5/1 40/6/1 58/7/1 60/8/1
f 61/9/2 59/10/2 41/11/2 43/12/2
f 44/9/1 42/10/1 60/11/1 62/12/1
f 63/17/2 61/18/2 43/19/2 45/20/2
f 46/17/1 44/18/1 62/19/1 64/20/1
f 65/5/2 63/6/2 45/7/2 47/8/2
f 48/5/1 46/6/1 64/7/1 66/8/1
f 67/1/2 65/2/2 47/3/2 49/4/2
f 50/1/1 48/2/1 66/3/1 68/4/1
f 69/5/2 67/6/2 49/7/2 51/8/2
f 52/5/1 50/6/1 68/7/1 70/8/1
f 54/1/5 53/2/5 71/3/5 72/4/5
f 72/1/2 69/2/2 51/3/2 54/4/2
f 53/1/1 52/2/1 70/3/1 71/4/1
f 56/5/6 55/6/6 73/7/6 74/8/6
f 75/5/2 73/6/2 55/7/2 57/8/2
f 58/5/1 56/6/1 74/7/1 76/8/1
f 77/1/2 75/2/2 57/3/2 59/4/2
f 60/1/1 58/2/1 76/3/1 78/4/1
f 79/5/2 77/6/2 59/7/2 61/8/2
f 62/5/1 60/6/1 78/7/1 80/8/1
f 81/9/2 79/10/2 61/11/2 63/12/2
f 64/9/1 62/10/1 80/11/1 82/12/1
f 83/1/2 81/2/2 63/3/2 65/4/2
f 66/1/1 64/2/1 82/3/1 84/4/1
f 85/17/2 83/18/2 65/19/2 67/20/2
f 68/17/1 66/18/1 84/19/1 86/20/1
f 87/1/2 85/2/2 67/3/2 69/4/2
f 70/1/1 68/2/1 86/3/1 88/4/1
f 72/13/5 71/14/5 89/15/5 90/16/5
f 90/13/2 87/14/2 69/15/2 72/16/2
f 71/13/1 70/14/1 88/15/1 89/16/1
f 74/5/6 73/6/6 91/7/6 92/8/6
f 93/5/2 91/6/2 73/7/2 75/8/2
f 76/5/1 74/6/1 92/7/1 94/8/1
f 95/9/2 93/10/2 75/11/2 77/12/2
f 78/9/1 76/10/1 94/11/1 96/12/1
f 97/17/2 95/18/2 77/19/2 79/20/2
f 80/17/1 78/18/1 96/19/1 98/20/1
f 99/1/2 97/2/2 79/3/2 81/4/2
f 82/1/1 80/2/1 98/3/1 100/4/1
f 101/5/2 99/6/2 81/7/2 83/8/2
f 84/5/1 82/6/1 100/7/1 102/8/1
f 103/1/2 101/2/2 83/3/2 85/4/2
f 86/1/1 84/2/1 102/3/1 104/4/1
f 105/9/2 103/10/2 85/11/2 87/12/2
f 88/9/1 86/10/1 104/11/1 106/12/1
f 90/1/5 89/2/5 107/3/5 108/4/5
f 108/1/2 105/2/2 87/3/2 90/4/2
f 89/1/1 88/2/1 106/3/1 107/4/1
f 92/9/6 91/10/6 109/11/6 110/12/6
f 111/9/2 109/10/2 91/11/2 93/12/2
f 94/9/1 92/10/1 110/11/1 112/12/1
f 113/13/2 111/14/2 93/15/2 95/16/2
f 96/13/1 94/14/1 112/15/1 114/16/1
f 115/5/2 113/6/2 95/7/2 97/8/2
f 98/5/1 96/6/1 114/7/1 116/8/1
f 117/5/2 115/6/2 97/7/2 99/8/2
f 100/5/1 98/6/1 116/7/1 118/8/1
f 119/13/2 117/14/2 99/15/2 101/16/2
f 102/13/1 100/14/1 118/15/1 120/16/1
f 121/5/2 119/6/2 101/7/2 103/8/2
f 104/5/1 102/6/1 120/7/1 122/8/1
f 123/17/2 121/18/2 103/19/2 105/20/2
f 106/17/1 104/18/1 122/19/1 124/20/1
f 108/1/5 107/2/5 125/3/5 126/4/5
f 126/1/2 123/2/2 105/3/2 108/4/2
f 107/1/1 106/2/1 124/3/1 125/4/1
f 110/1/6 109/2/6 127/3/6 128/4/6
f 129/1/2 127/2/2 109/3/2 111/4/2
f 112/1/1 110/2/1 128/3/1 130/4/1
f 131/17/2 129/18/2 111/19/2 113/20/2
f 114/17/1 112/18/1 130/19/1 132/20/1
f 133/5/2 131/6/2 113/7/2 115/8/2
f 116/5/1 114/6/1 132/7/1 134/8/1
f 135/17/2 133/18/2 115/19/2 117/20/2
f 118/17/1 116/18/1 134/19/1 136/20/1
f 137/5/2 135/6/2 117/7/2 119/8/2
f 120/5/1 118/6/1 136/7/1 138/8/1
f 139/1/2 137/2/2 119/3/2 121/4/2
f 122/1/1 120/2/1 138/3/1 140/4/1
f 141/9/2 139/10/2 121/11/2 123/12/2
f 124/9/1 122/10/1 140/11/1 142/12/1
f 126/17/5 125/18/5 143/19/5 144/20/5
f 144/17/2 141/18/2 123/19/2 126/20/2
f 125/17/1 124/18/1 142/19/1 143/20/1
f 145/5/4 146/6/4 147/7/4 148/8/4
f 128/5/6 127/6/6 147/7/6 146/8/6
f 148/5/2 147/6/2 127/7/2 129/8/2
f 130/5/1 128/6/1 146/7/1 145/8/1
f 149/5/4 145/6/4 148/7/4 150/8/4
f 150/5/2 148/6/2 129/7/2 131/8/2
f 132/5/1 130/6/1 145/7/1 149/8/1
f 151/17/4 149/18/4 150/19/4 152/20/4
f 152/17/2 150/18/2 131/19/2 133/20/2
f 134/17/1 132/18/1 149/19/1 151/20/1
f 153/1/4 151/2/4 152/3/4 154/4/4
f 154/1/2 152/2/2 133/3/2 135/4/2
f 136/1/1 134/2/1 151/3/1 153/4/1
f 155/1/4 153/2/4 154/3/4 156/4/4
f 156/1/2 154/2/2 135/3/2 137/4/2
f 138/1/1 136/2/1 153/3/1 155/4/1
f 157/9/4 155/10/4 156/11/4 158/12/4
f 158/9/2 156/10/2 137/11/2 139/12/2
f 140/9/1 138/10/1 155/11/1 157/12/1
f 159/5/4 157/6/4 158/7/4 160/8/4
f 160/5/2 158/6/2 139/7/2 141/8/2
f 142/5/1 140/6/1 157/7/1 159/8/1
f 161/9/4 159/10/4 160/11/4 162/12/4
f 144/9/5 143/10/5 161/11/5 162/12/5
f 162/9/2 160/10/2 141/11/2 144/12/2
f 143/9/1 142/10/1 159/11/1 161/12/1
