# This file was created with Minddesk Qubicle 3.0
# Get Qubicle at www.getqubicle.com

mtllib 101_Piece1_2_0.mtl

vn 0.0 0.0 1.0
vn 0.0 0.0 -1.0
vn -1.0 0.0 0.0
vn 1.0 0.0 0.0
vn 0.0 1.0 0.0
vn 0.0 -1.0 0.0

v -56.00000 17.00000 0.00000
v -56.00000 16.00000 0.00000
v -56.00000 16.00000 1.00000
v -56.00000 17.00000 1.00000
v -55.00000 16.00000 0.00000
v -55.00000 16.00000 1.00000
v -55.00000 17.00000 0.00000
v -55.00000 17.00000 1.00000
v -56.00000 18.00000 0.00000
v -56.00000 18.00000 1.00000
v -55.00000 18.00000 0.00000
v -55.00000 18.00000 1.00000
v -56.00000 19.00000 0.00000
v -56.00000 19.00000 1.00000
v -55.00000 19.00000 0.00000
v -55.00000 19.00000 1.00000
v -56.00000 20.00000 0.00000
v -56.00000 20.00000 1.00000
v -55.00000 20.00000 0.00000
v -55.00000 20.00000 1.00000
v -56.00000 21.00000 0.00000
v -56.00000 21.00000 1.00000
v -55.00000 21.00000 0.00000
v -55.00000 21.00000 1.00000
v -56.00000 22.00000 0.00000
v -56.00000 22.00000 1.00000
v -55.00000 22.00000 0.00000
v -55.00000 22.00000 1.00000
v -56.00000 23.00000 0.00000
v -56.00000 23.00000 1.00000
v -55.00000 23.00000 0.00000
v -55.00000 23.00000 1.00000
v -56.00000 24.00000 0.00000
v -56.00000 24.00000 1.00000
v -55.00000 24.00000 1.00000
v -55.00000 24.00000 0.00000
v -54.00000 16.00000 0.00000
v -54.00000 16.00000 1.00000
v -54.00000 17.00000 0.00000
v -54.00000 17.00000 1.00000
v -54.00000 18.00000 0.00000
v -54.00000 18.00000 1.00000
v -54.00000 19.00000 0.00000
v -54.00000 19.00000 1.00000
v -54.00000 20.00000 0.00000
v -54.00000 20.00000 1.00000
v -54.00000 21.00000 0.00000
v -54.00000 21.00000 1.00000
v -54.00000 22.00000 0.00000
v -54.00000 22.00000 1.00000
v -54.00000 23.00000 0.00000
v -54.00000 23.00000 1.00000
v -54.00000 24.00000 1.00000
v -54.00000 24.00000 0.00000
v -53.00000 16.00000 0.00000
v -53.00000 16.00000 1.00000
v -53.00000 17.00000 0.00000
v -53.00000 17.00000 1.00000
v -53.00000 18.00000 0.00000
v -53.00000 18.00000 1.00000
v -53.00000 19.00000 0.00000
v -53.00000 19.00000 1.00000
v -53.00000 20.00000 0.00000
v -53.00000 20.00000 1.00000
v -53.00000 21.00000 0.00000
v -53.00000 21.00000 1.00000
v -53.00000 22.00000 0.00000
v -53.00000 22.00000 1.00000
v -53.00000 23.00000 0.00000
v -53.00000 23.00000 1.00000
v -53.00000 24.00000 1.00000
v -53.00000 24.00000 0.00000
v -52.00000 16.00000 0.00000
v -52.00000 16.00000 1.00000
v -52.00000 17.00000 0.00000
v -52.00000 17.00000 1.00000
v -52.00000 18.00000 0.00000
v -52.00000 18.00000 1.00000
v -52.00000 19.00000 0.00000
v -52.00000 19.00000 1.00000
v -52.00000 20.00000 0.00000
v -52.00000 20.00000 1.00000
v -52.00000 21.00000 0.00000
v -52.00000 21.00000 1.00000
v -52.00000 22.00000 0.00000
v -52.00000 22.00000 1.00000
v -52.00000 23.00000 0.00000
v -52.00000 23.00000 1.00000
v -52.00000 24.00000 1.00000
v -52.00000 24.00000 0.00000
v -51.00000 16.00000 0.00000
v -51.00000 16.00000 1.00000
v -51.00000 17.00000 0.00000
v -51.00000 17.00000 1.00000
v -51.00000 18.00000 0.00000
v -51.00000 18.00000 1.00000
v -51.00000 19.00000 0.00000
v -51.00000 19.00000 1.00000
v -51.00000 20.00000 0.00000
v -51.00000 20.00000 1.00000
v -51.00000 21.00000 0.00000
v -51.00000 21.00000 1.00000
v -51.00000 22.00000 0.00000
v -51.00000 22.00000 1.00000
v -51.00000 23.00000 0.00000
v -51.00000 23.00000 1.00000
v -51.00000 24.00000 1.00000
v -51.00000 24.00000 0.00000
v -50.00000 16.00000 0.00000
v -50.00000 16.00000 1.00000
v -50.00000 17.00000 0.00000
v -50.00000 17.00000 1.00000
v -50.00000 18.00000 0.00000
v -50.00000 18.00000 1.00000
v -50.00000 19.00000 0.00000
v -50.00000 19.00000 1.00000
v -50.00000 20.00000 0.00000
v -50.00000 20.00000 1.00000
v -50.00000 21.00000 0.00000
v -50.00000 21.00000 1.00000
v -50.00000 22.00000 0.00000
v -50.00000 22.00000 1.00000
v -50.00000 23.00000 0.00000
v -50.00000 23.00000 1.00000
v -50.00000 24.00000 1.00000
v -50.00000 24.00000 0.00000
v -49.00000 16.00000 0.00000
v -49.00000 16.00000 1.00000
v -49.00000 17.00000 0.00000
v -49.00000 17.00000 1.00000
v -49.00000 18.00000 0.00000
v -49.00000 18.00000 1.00000
v -49.00000 19.00000 0.00000
v -49.00000 19.00000 1.00000
v -49.00000 20.00000 0.00000
v -49.00000 20.00000 1.00000
v -49.00000 21.00000 0.00000
v -49.00000 21.00000 1.00000
v -49.00000 22.00000 0.00000
v -49.00000 22.00000 1.00000
v -49.00000 23.00000 0.00000
v -49.00000 23.00000 1.00000
v -49.00000 24.00000 1.00000
v -49.00000 24.00000 0.00000
v -48.00000 17.00000 1.00000
v -48.00000 16.00000 1.00000
v -48.00000 16.00000 0.00000
v -48.00000 17.00000 0.00000
v -48.00000 18.00000 1.00000
v -48.00000 18.00000 0.00000
v -48.00000 19.00000 1.00000
v -48.00000 19.00000 0.00000
v -48.00000 20.00000 1.00000
v -48.00000 20.00000 0.00000
v -48.00000 21.00000 1.00000
v -48.00000 21.00000 0.00000
v -48.00000 22.00000 1.00000
v -48.00000 22.00000 0.00000
v -48.00000 23.00000 1.00000
v -48.00000 23.00000 0.00000
v -48.00000 24.00000 1.00000
v -48.00000 24.00000 0.00000

vt 0.06250 0.01563
vt 0.06250 0.00781
vt 0.06641 0.00781
vt 0.06641 0.01563
vt 0.05078 0.01563
vt 0.05078 0.00781
vt 0.05469 0.00781
vt 0.05469 0.01563
vt 0.03906 0.01563
vt 0.03906 0.00781
vt 0.04297 0.00781
vt 0.04297 0.01563
vt 0.02734 0.01563
vt 0.02734 0.00781
vt 0.03125 0.00781
vt 0.03125 0.01563
vt 0.01563 0.01563
vt 0.01563 0.00781
vt 0.01953 0.00781
vt 0.01953 0.01563
vt 0.14453 0.08594
vt 0.14453 0.07813
vt 0.14844 0.07813
vt 0.14844 0.08594
vt 0.28516 0.01563
vt 0.28516 0.00781
vt 0.28906 0.00781
vt 0.28906 0.01563
vt 0.15625 0.08594
vt 0.15625 0.07813
vt 0.16016 0.07813
vt 0.16016 0.08594
vt 0.16797 0.08594
vt 0.16797 0.07813
vt 0.17188 0.07813
vt 0.17188 0.08594
vt 0.17969 0.08594
vt 0.17969 0.07813
vt 0.18359 0.07813
vt 0.18359 0.08594
vt 0.19141 0.08594
vt 0.19141 0.07813
vt 0.19531 0.07813
vt 0.19531 0.08594
vt 0.20313 0.08594
vt 0.20313 0.07813
vt 0.20703 0.07813
vt 0.20703 0.08594
vt 0.21484 0.08594
vt 0.21484 0.07813
vt 0.21875 0.07813
vt 0.21875 0.08594
vt 0.22656 0.08594
vt 0.22656 0.07813
vt 0.23047 0.07813
vt 0.23047 0.08594
vt 0.29688 0.01563
vt 0.29688 0.00781
vt 0.30078 0.00781
vt 0.30078 0.01563
vt 0.23828 0.08594
vt 0.23828 0.07813
vt 0.24219 0.07813
vt 0.24219 0.08594
vt 0.25000 0.08594
vt 0.25000 0.07813
vt 0.25391 0.07813
vt 0.25391 0.08594
vt 0.17969 0.01563
vt 0.17969 0.00781
vt 0.18359 0.00781
vt 0.18359 0.01563
vt 0.26172 0.08594
vt 0.26172 0.07813
vt 0.26563 0.07813
vt 0.26563 0.08594
vt 0.27344 0.08594
vt 0.27344 0.07813
vt 0.27734 0.07813
vt 0.27734 0.08594
vt 0.28516 0.08594
vt 0.28516 0.07813
vt 0.28906 0.07813
vt 0.28906 0.08594
vt 0.25000 0.01563
vt 0.25000 0.00781
vt 0.25391 0.00781
vt 0.25391 0.01563
vt 0.29688 0.08594
vt 0.29688 0.07813
vt 0.30078 0.07813
vt 0.30078 0.08594
vt 0.30859 0.08594
vt 0.30859 0.07813
vt 0.31250 0.07813
vt 0.31250 0.08594
vt 0.19141 0.01563
vt 0.19141 0.00781
vt 0.19531 0.00781
vt 0.19531 0.01563
vt 0.32031 0.08594
vt 0.32031 0.07813
vt 0.32422 0.07813
vt 0.32422 0.08594

g 101_Piece1_2_0
usemtl 101_Material
f 1/1/3 2/2/3 3/3/3 4/4/3
f 3/1/6 2/2/6 5/3/6 6/4/6
f 7/1/2 5/2/2 2/3/2 1/4/2
f 4/1/1 3/2/1 6/3/1 8/4/1
f 9/1/3 1/2/3 4/3/3 10/4/3
f 11/1/2 7/2/2 1/3/2 9/4/2
f 10/1/1 4/2/1 8/3/1 12/4/1
f 13/1/3 9/2/3 10/3/3 14/4/3
f 15/1/2 11/2/2 9/3/2 13/4/2
f 14/1/1 10/2/1 12/3/1 16/4/1
f 17/1/3 13/2/3 14/3/3 18/4/3
f 19/1/2 15/2/2 13/3/2 17/4/2
f 18/1/1 14/2/1 16/3/1 20/4/1
f 21/1/3 17/2/3 18/3/3 22/4/3
f 23/1/2 19/2/2 17/3/2 21/4/2
f 22/1/1 18/2/1 20/3/1 24/4/1
f 25/1/3 21/2/3 22/3/3 26/4/3
f 27/1/2 23/2/2 21/3/2 25/4/2
f 26/1/1 22/2/1 24/3/1 28/4/1
f 29/1/3 25/2/3 26/3/3 30/4/3
f 31/1/2 27/2/2 25/3/2 29/4/2
f 30/1/1 26/2/1 28/3/1 32/4/1
f 33/1/3 29/2/3 30/3/3 34/4/3
f 33/1/5 34/2/5 35/3/5 36/4/5
f 36/1/2 31/2/2 29/3/2 33/4/2
f 34/1/1 30/2/1 32/3/1 35/4/1
f 6/5/6 5/6/6 37/7/6 38/8/6
f 39/5/2 37/6/2 5/7/2 7/8/2
f 8/5/1 6/6/1 38/7/1 40/8/1
f 41/5/2 39/6/2 7/7/2 11/8/2
f 12/5/1 8/6/1 40/7/1 42/8/1
f 43/1/2 41/2/2 11/3/2 15/4/2
f 16/1/1 12/2/1 42/3/1 44/4/1
f 45/5/2 43/6/2 15/7/2 19/8/2
f 20/5/1 16/6/1 44/7/1 46/8/1
f 47/9/2 45/10/2 19/11/2 23/12/2
f 24/9/1 20/10/1 46/11/1 48/12/1
f 49/5/2 47/6/2 23/7/2 27/8/2
f 28/5/1 24/6/1 48/7/1 50/8/1
f 51/1/2 49/2/2 27/3/2 31/4/2
f 32/1/1 28/2/1 50/3/1 52/4/1
f 36/1/5 35/2/5 53/3/5 54/4/5
f 54/1/2 51/2/2 31/3/2 36/4/2
f 35/1/1 32/2/1 52/3/1 53/4/1
f 38/5/6 37/6/6 55/7/6 56/8/6
f 57/5/2 55/6/2 37/7/2 39/8/2
f 40/5/1 38/6/1 56/7/1 58/8/1
f 59/9/2 57/10/2 39/11/2 41/12/2
f 42/9/1 40/10/1 58/11/1 60/12/1
f 61/5/2 59/6/2 41/7/2 43/8/2
f 44/5/1 42/6/1 60/7/1 62/8/1
f 63/5/2 61/6/2 43/7/2 45/8/2
f 46/5/1 44/6/1 62/7/1 64/8/1
f 65/5/2 63/6/2 45/7/2 47/8/2
f 48/5/1 46/6/1 64/7/1 66/8/1
f 67/9/2 65/10/2 47/11/2 49/12/2
f 50/9/1 48/10/1 66/11/1 68/12/1
f 69/5/2 67/6/2 49/7/2 51/8/2
f 52/5/1 50/6/1 68/7/1 70/8/1
f 54/9/5 53/10/5 71/11/5 72/12/5
f 72/9/2 69/10/2 51/11/2 54/12/2
f 53/9/1 52/10/1 70/11/1 71/12/1
f 56/9/6 55/10/6 73/11/6 74/12/6
f 75/9/2 73/10/2 55/11/2 57/12/2
f 58/9/1 56/10/1 74/11/1 76/12/1
f 77/13/2 75/14/2 57/15/2 59/16/2
f 60/13/1 58/14/1 76/15/1 78/16/1
f 79/5/2 77/6/2 59/7/2 61/8/2
f 62/5/1 60/6/1 78/7/1 80/8/1
f 81/9/2 79/10/2 61/11/2 63/12/2
f 64/9/1 62/10/1 80/11/1 82/12/1
f 83/17/2 81/18/2 63/19/2 65/20/2
f 66/17/1 64/18/1 82/19/1 84/20/1
f 85/17/2 83/18/2 65/19/2 67/20/2
f 68/17/1 66/18/1 84/19/1 86/20/1
f 87/9/2 85/10/2 67/11/2 69/12/2
f 70/9/1 68/10/1 86/11/1 88/12/1
f 72/5/5 71/6/5 89/7/5 90/8/5
f 90/5/2 87/6/2 69/7/2 72/8/2
f 71/5/1 70/6/1 88/7/1 89/8/1
f 74/13/6 73/14/6 91/15/6 92/16/6
f 93/13/2 91/14/2 73/15/2 75/16/2
f 76/13/1 74/14/1 92/15/1 94/16/1
f 95/9/2 93/10/2 75/11/2 77/12/2
f 78/9/1 76/10/1 94/11/1 96/12/1
f 97/13/2 95/14/2 77/15/2 79/16/2
f 80/13/1 78/14/1 96/15/1 98/16/1
f 99/21/2 97/22/2 79/23/2 81/24/2
f 82/21/1 80/22/1 98/23/1 100/24/1
f 101/17/2 99/18/2 81/19/2 83/20/2
f 84/17/1 82/18/1 100/19/1 102/20/1
f 103/25/2 101/26/2 83/27/2 85/28/2
f 86/25/1 84/26/1 102/27/1 104/28/1
f 105/17/2 103/18/2 85/19/2 87/20/2
f 88/17/1 86/18/1 104/19/1 106/20/1
f 90/13/5 89/14/5 107/15/5 108/16/5
f 108/13/2 105/14/2 87/15/2 90/16/2
f 89/13/1 88/14/1 106/15/1 107/16/1
f 92/17/6 91/18/6 109/19/6 110/20/6
f 111/17/2 109/18/2 91/19/2 93/20/2
f 94/17/1 92/18/1 110/19/1 112/20/1
f 113/29/2 111/30/2 93/31/2 95/32/2
f 96/29/1 94/30/1 112/31/1 114/32/1
f 115/33/2 113/34/2 95/35/2 97/36/2
f 98/33/1 96/34/1 114/35/1 116/36/1
f 117/37/2 115/38/2 97/39/2 99/40/2
f 100/37/1 98/38/1 116/39/1 118/40/1
f 119/41/2 117/42/2 99/43/2 101/44/2
f 102/41/1 100/42/1 118/43/1 120/44/1
f 121/45/2 119/46/2 101/47/2 103/48/2
f 104/45/1 102/46/1 120/47/1 122/48/1
f 123/17/2 121/18/2 103/19/2 105/20/2
f 106/17/1 104/18/1 122/19/1 124/20/1
f 108/49/5 107/50/5 125/51/5 126/52/5
f 126/49/2 123/50/2 105/51/2 108/52/2
f 107/49/1 106/50/1 124/51/1 125/52/1
f 110/29/6 109/30/6 127/31/6 128/32/6
f 129/29/2 127/30/2 109/31/2 111/32/2
f 112/29/1 110/30/1 128/31/1 130/32/1
f 131/21/2 129/22/2 111/23/2 113/24/2
f 114/21/1 112/22/1 130/23/1 132/24/1
f 133/53/2 131/54/2 113/55/2 115/56/2
f 116/53/1 114/54/1 132/55/1 134/56/1
f 135/57/2 133/58/2 115/59/2 117/60/2
f 118/57/1 116/58/1 134/59/1 136/60/1
f 137/61/2 135/62/2 117/63/2 119/64/2
f 120/61/1 118/62/1 136/63/1 138/64/1
f 139/65/2 137/66/2 119/67/2 121/68/2
f 122/65/1 120/66/1 138/67/1 140/68/1
f 141/69/2 139/70/2 121/71/2 123/72/2
f 124/69/1 122/70/1 140/71/1 142/72/1
f 126/73/5 125/74/5 143/75/5 144/76/5
f 144/73/2 141/74/2 123/75/2 126/76/2
f 125/73/1 124/74/1 142/75/1 143/76/1
f 145/21/4 146/22/4 147/23/4 148/24/4
f 128/21/6 127/22/6 147/23/6 146/24/6
f 148/21/2 147/22/2 127/23/2 129/24/2
f 130/21/1 128/22/1 146/23/1 145/24/1
f 149/77/4 145/78/4 148/79/4 150/80/4
f 150/77/2 148/78/2 129/79/2 131/80/2
f 132/77/1 130/78/1 145/79/1 149/80/1
f 151/81/4 149/82/4 150/83/4 152/84/4
f 152/81/2 150/82/2 131/83/2 133/84/2
f 134/81/1 132/82/1 149/83/1 151/84/1
f 153/85/4 151/86/4 152/87/4 154/88/4
f 154/85/2 152/86/2 133/87/2 135/88/2
f 136/85/1 134/86/1 151/87/1 153/88/1
f 155/89/4 153/90/4 154/91/4 156/92/4
f 156/89/2 154/90/2 135/91/2 137/92/2
f 138/89/1 136/90/1 153/91/1 155/92/1
f 157/93/4 155/94/4 156/95/4 158/96/4
f 158/93/2 156/94/2 137/95/2 139/96/2
f 140/93/1 138/94/1 155/95/1 157/96/1
f 159/97/4 157/98/4 158/99/4 160/100/4
f 160/97/2 158/98/2 139/99/2 141/100/2
f 142/97/1 140/98/1 157/99/1 159/100/1
f 161/101/4 159/102/4 160/103/4 162/104/4
f 144/101/5 143/102/5 161/103/5 162/104/5
f 162/101/2 160/102/2 141/103/2 144/104/2
f 143/101/1 142/102/1 159/103/1 161/104/1
