# This file was created with Minddesk Qubicle 3.0
# Get Qubicle at www.getqubicle.com

mtllib 101_Piece12_12_0.mtl

vn 0.0 0.0 1.0
vn 0.0 0.0 -1.0
vn -1.0 0.0 0.0
vn 1.0 0.0 0.0
vn 0.0 1.0 0.0
vn 0.0 -1.0 0.0

v 32.00000 97.00000 0.00000
v 32.00000 96.00000 0.00000
v 32.00000 96.00000 1.00000
v 32.00000 97.00000 1.00000
v 33.00000 96.00000 0.00000
v 33.00000 96.00000 1.00000
v 33.00000 97.00000 0.00000
v 33.00000 97.00000 1.00000
v 32.00000 98.00000 0.00000
v 32.00000 98.00000 1.00000
v 33.00000 98.00000 0.00000
v 33.00000 98.00000 1.00000
v 32.00000 99.00000 0.00000
v 32.00000 99.00000 1.00000
v 33.00000 99.00000 0.00000
v 33.00000 99.00000 1.00000
v 32.00000 100.00000 0.00000
v 32.00000 100.00000 1.00000
v 33.00000 100.00000 0.00000
v 33.00000 100.00000 1.00000
v 32.00000 101.00000 0.00000
v 32.00000 101.00000 1.00000
v 33.00000 101.00000 0.00000
v 33.00000 101.00000 1.00000
v 32.00000 102.00000 0.00000
v 32.00000 102.00000 1.00000
v 33.00000 102.00000 0.00000
v 33.00000 102.00000 1.00000
v 32.00000 103.00000 0.00000
v 32.00000 103.00000 1.00000
v 33.00000 103.00000 0.00000
v 33.00000 103.00000 1.00000
v 32.00000 104.00000 0.00000
v 32.00000 104.00000 1.00000
v 33.00000 104.00000 1.00000
v 33.00000 104.00000 0.00000
v 34.00000 96.00000 0.00000
v 34.00000 96.00000 1.00000
v 34.00000 97.00000 0.00000
v 34.00000 97.00000 1.00000
v 34.00000 98.00000 0.00000
v 34.00000 98.00000 1.00000
v 34.00000 99.00000 0.00000
v 34.00000 99.00000 1.00000
v 34.00000 100.00000 0.00000
v 34.00000 100.00000 1.00000
v 34.00000 101.00000 0.00000
v 34.00000 101.00000 1.00000
v 34.00000 102.00000 0.00000
v 34.00000 102.00000 1.00000
v 34.00000 103.00000 0.00000
v 34.00000 103.00000 1.00000
v 34.00000 104.00000 1.00000
v 34.00000 104.00000 0.00000
v 35.00000 96.00000 0.00000
v 35.00000 96.00000 1.00000
v 35.00000 97.00000 0.00000
v 35.00000 97.00000 1.00000
v 35.00000 98.00000 0.00000
v 35.00000 98.00000 1.00000
v 35.00000 99.00000 0.00000
v 35.00000 99.00000 1.00000
v 35.00000 100.00000 0.00000
v 35.00000 100.00000 1.00000
v 35.00000 101.00000 0.00000
v 35.00000 101.00000 1.00000
v 35.00000 102.00000 0.00000
v 35.00000 102.00000 1.00000
v 35.00000 103.00000 0.00000
v 35.00000 103.00000 1.00000
v 35.00000 104.00000 1.00000
v 35.00000 104.00000 0.00000
v 36.00000 96.00000 0.00000
v 36.00000 96.00000 1.00000
v 36.00000 97.00000 0.00000
v 36.00000 97.00000 1.00000
v 36.00000 98.00000 0.00000
v 36.00000 98.00000 1.00000
v 36.00000 99.00000 0.00000
v 36.00000 99.00000 1.00000
v 36.00000 100.00000 0.00000
v 36.00000 100.00000 1.00000
v 36.00000 101.00000 0.00000
v 36.00000 101.00000 1.00000
v 36.00000 102.00000 0.00000
v 36.00000 102.00000 1.00000
v 36.00000 103.00000 0.00000
v 36.00000 103.00000 1.00000
v 36.00000 104.00000 1.00000
v 36.00000 104.00000 0.00000
v 37.00000 96.00000 0.00000
v 37.00000 96.00000 1.00000
v 37.00000 97.00000 0.00000
v 37.00000 97.00000 1.00000
v 37.00000 98.00000 0.00000
v 37.00000 98.00000 1.00000
v 37.00000 99.00000 0.00000
v 37.00000 99.00000 1.00000
v 37.00000 100.00000 0.00000
v 37.00000 100.00000 1.00000
v 37.00000 101.00000 0.00000
v 37.00000 101.00000 1.00000
v 37.00000 102.00000 0.00000
v 37.00000 102.00000 1.00000
v 37.00000 103.00000 0.00000
v 37.00000 103.00000 1.00000
v 37.00000 104.00000 1.00000
v 37.00000 104.00000 0.00000
v 38.00000 96.00000 0.00000
v 38.00000 96.00000 1.00000
v 38.00000 97.00000 0.00000
v 38.00000 97.00000 1.00000
v 38.00000 98.00000 0.00000
v 38.00000 98.00000 1.00000
v 38.00000 99.00000 0.00000
v 38.00000 99.00000 1.00000
v 38.00000 100.00000 0.00000
v 38.00000 100.00000 1.00000
v 38.00000 101.00000 0.00000
v 38.00000 101.00000 1.00000
v 38.00000 102.00000 0.00000
v 38.00000 102.00000 1.00000
v 38.00000 103.00000 0.00000
v 38.00000 103.00000 1.00000
v 38.00000 104.00000 1.00000
v 38.00000 104.00000 0.00000
v 39.00000 96.00000 0.00000
v 39.00000 96.00000 1.00000
v 39.00000 97.00000 0.00000
v 39.00000 97.00000 1.00000
v 39.00000 98.00000 0.00000
v 39.00000 98.00000 1.00000
v 39.00000 99.00000 0.00000
v 39.00000 99.00000 1.00000
v 39.00000 100.00000 0.00000
v 39.00000 100.00000 1.00000
v 39.00000 101.00000 0.00000
v 39.00000 101.00000 1.00000
v 39.00000 102.00000 0.00000
v 39.00000 102.00000 1.00000
v 39.00000 103.00000 0.00000
v 39.00000 103.00000 1.00000
v 39.00000 104.00000 1.00000
v 39.00000 104.00000 0.00000
v 40.00000 97.00000 1.00000
v 40.00000 96.00000 1.00000
v 40.00000 96.00000 0.00000
v 40.00000 97.00000 0.00000
v 40.00000 98.00000 1.00000
v 40.00000 98.00000 0.00000
v 40.00000 99.00000 1.00000
v 40.00000 99.00000 0.00000
v 40.00000 100.00000 1.00000
v 40.00000 100.00000 0.00000
v 40.00000 101.00000 1.00000
v 40.00000 101.00000 0.00000
v 40.00000 102.00000 1.00000
v 40.00000 102.00000 0.00000
v 40.00000 103.00000 1.00000
v 40.00000 103.00000 0.00000
v 40.00000 104.00000 1.00000
v 40.00000 104.00000 0.00000

vt 0.46094 0.29688
vt 0.46094 0.28906
vt 0.46484 0.28906
vt 0.46484 0.29688
vt 0.03906 0.41406
vt 0.03906 0.40625
vt 0.04297 0.40625
vt 0.04297 0.41406
vt 0.05078 0.39063
vt 0.05078 0.38281
vt 0.05469 0.38281
vt 0.05469 0.39063
vt 0.00391 0.01563
vt 0.00391 0.00781
vt 0.00781 0.00781
vt 0.00781 0.01563
vt 0.02734 0.03906
vt 0.02734 0.03125
vt 0.03125 0.03125
vt 0.03125 0.03906

g 101_Piece12_12_0
usemtl 101_Material
f 1/1/3 2/2/3 3/3/3 4/4/3
f 3/1/6 2/2/6 5/3/6 6/4/6
f 7/1/2 5/2/2 2/3/2 1/4/2
f 4/1/1 3/2/1 6/3/1 8/4/1
f 9/1/3 1/2/3 4/3/3 10/4/3
f 11/1/2 7/2/2 1/3/2 9/4/2
f 10/1/1 4/2/1 8/3/1 12/4/1
f 13/5/3 9/6/3 10/7/3 14/8/3
f 15/5/2 11/6/2 9/7/2 13/8/2
f 14/5/1 10/6/1 12/7/1 16/8/1
f 17/9/3 13/10/3 14/11/3 18/12/3
f 19/9/2 15/10/2 13/11/2 17/12/2
f 18/9/1 14/10/1 16/11/1 20/12/1
f 21/13/3 17/14/3 18/15/3 22/16/3
f 23/13/2 19/14/2 17/15/2 21/16/2
f 22/13/1 18/14/1 20/15/1 24/16/1
f 25/13/3 21/14/3 22/15/3 26/16/3
f 27/13/2 23/14/2 21/15/2 25/16/2
f 26/13/1 22/14/1 24/15/1 28/16/1
f 29/13/3 25/14/3 26/15/3 30/16/3
f 31/13/2 27/14/2 25/15/2 29/16/2
f 30/13/1 26/14/1 28/15/1 32/16/1
f 33/13/3 29/14/3 30/15/3 34/16/3
f 33/13/5 34/14/5 35/15/5 36/16/5
f 36/13/2 31/14/2 29/15/2 33/16/2
f 34/13/1 30/14/1 32/15/1 35/16/1
f 6/17/6 5/18/6 37/19/6 38/20/6
f 39/17/2 37/18/2 5/19/2 7/20/2
f 8/17/1 6/18/1 38/19/1 40/20/1
f 41/17/2 39/18/2 7/19/2 11/20/2
f 12/17/1 8/18/1 40/19/1 42/20/1
f 43/17/2 41/18/2 11/19/2 15/20/2
f 16/17/1 12/18/1 42/19/1 44/20/1
f 45/1/2 43/2/2 15/3/2 19/4/2
f 20/1/1 16/2/1 44/3/1 46/4/1
f 47/1/2 45/2/2 19/3/2 23/4/2
f 24/1/1 20/2/1 46/3/1 48/4/1
f 49/13/2 47/14/2 23/15/2 27/16/2
f 28/13/1 24/14/1 48/15/1 50/16/1
f 51/13/2 49/14/2 27/15/2 31/16/2
f 32/13/1 28/14/1 50/15/1 52/16/1
f 36/13/5 35/14/5 53/15/5 54/16/5
f 54/13/2 51/14/2 31/15/2 36/16/2
f 35/13/1 32/14/1 52/15/1 53/16/1
f 38/13/6 37/14/6 55/15/6 56/16/6
f 57/13/2 55/14/2 37/15/2 39/16/2
f 40/13/1 38/14/1 56/15/1 58/16/1
f 59/13/2 57/14/2 39/15/2 41/16/2
f 42/13/1 40/14/1 58/15/1 60/16/1
f 61/13/2 59/14/2 41/15/2 43/16/2
f 44/13/1 42/14/1 60/15/1 62/16/1
f 63/17/2 61/18/2 43/19/2 45/20/2
f 46/17/1 44/18/1 62/19/1 64/20/1
f 65/1/2 63/2/2 45/3/2 47/4/2
f 48/1/1 46/2/1 64/3/1 66/4/1
f 67/1/2 65/2/2 47/3/2 49/4/2
f 50/1/1 48/2/1 66/3/1 68/4/1
f 69/13/2 67/14/2 49/15/2 51/16/2
f 52/13/1 50/14/1 68/15/1 70/16/1
f 54/13/5 53/14/5 71/15/5 72/16/5
f 72/13/2 69/14/2 51/15/2 54/16/2
f 53/13/1 52/14/1 70/15/1 71/16/1
f 56/13/6 55/14/6 73/15/6 74/16/6
f 75/13/2 73/14/2 55/15/2 57/16/2
f 58/13/1 56/14/1 74/15/1 76/16/1
f 77/13/2 75/14/2 57/15/2 59/16/2
f 60/13/1 58/14/1 76/15/1 78/16/1
f 79/13/2 77/14/2 59/15/2 61/16/2
f 62/13/1 60/14/1 78/15/1 80/16/1
f 81/13/2 79/14/2 61/15/2 63/16/2
f 64/13/1 62/14/1 80/15/1 82/16/1
f 83/17/2 81/18/2 63/19/2 65/20/2
f 66/17/1 64/18/1 82/19/1 84/20/1
f 85/1/2 83/2/2 65/3/2 67/4/2
f 68/1/1 66/2/1 84/3/1 86/4/1
f 87/1/2 85/2/2 67/3/2 69/4/2
f 70/1/1 68/2/1 86/3/1 88/4/1
f 72/13/5 71/14/5 89/15/5 90/16/5
f 90/13/2 87/14/2 69/15/2 72/16/2
f 71/13/1 70/14/1 88/15/1 89/16/1
f 74/13/6 73/14/6 91/15/6 92/16/6
f 93/13/2 91/14/2 73/15/2 75/16/2
f 76/13/1 74/14/1 92/15/1 94/16/1
f 95/13/2 93/14/2 75/15/2 77/16/2
f 78/13/1 76/14/1 94/15/1 96/16/1
f 97/13/2 95/14/2 77/15/2 79/16/2
f 80/13/1 78/14/1 96/15/1 98/16/1
f 99/13/2 97/14/2 79/15/2 81/16/2
f 82/13/1 80/14/1 98/15/1 100/16/1
f 101/17/2 99/18/2 81/19/2 83/20/2
f 84/17/1 82/18/1 100/19/1 102/20/1
f 103/1/2 101/2/2 83/3/2 85/4/2
f 86/1/1 84/2/1 102/3/1 104/4/1
f 105/1/2 103/2/2 85/3/2 87/4/2
f 88/1/1 86/2/1 104/3/1 106/4/1
f 90/13/5 89/14/5 107/15/5 108/16/5
f 108/13/2 105/14/2 87/15/2 90/16/2
f 89/13/1 88/14/1 106/15/1 107/16/1
f 92/13/6 91/14/6 109/15/6 110/16/6
f 111/13/2 109/14/2 91/15/2 93/16/2
f 94/13/1 92/14/1 110/15/1 112/16/1
f 113/13/2 111/14/2 93/15/2 95/16/2
f 96/13/1 94/14/1 112/15/1 114/16/1
f 115/13/2 113/14/2 95/15/2 97/16/2
f 98/13/1 96/14/1 114/15/1 116/16/1
f 117/17/2 115/18/2 97/19/2 99/20/2
f 100/17/1 98/18/1 116/19/1 118/20/1
f 119/1/2 117/2/2 99/3/2 101/4/2
f 102/1/1 100/2/1 118/3/1 120/4/1
f 121/1/2 119/2/2 101/3/2 103/4/2
f 104/1/1 102/2/1 120/3/1 122/4/1
f 123/13/2 121/14/2 103/15/2 105/16/2
f 106/13/1 104/14/1 122/15/1 124/16/1
f 108/13/5 107/14/5 125/15/5 126/16/5
f 126/13/2 123/14/2 105/15/2 108/16/2
f 107/13/1 106/14/1 124/15/1 125/16/1
f 110/17/6 109/18/6 127/19/6 128/20/6
f 129/17/2 127/18/2 109/19/2 111/20/2
f 112/17/1 110/18/1 128/19/1 130/20/1
f 131/17/2 129/18/2 111/19/2 113/20/2
f 114/17/1 112/18/1 130/19/1 132/20/1
f 133/17/2 131/18/2 113/19/2 115/20/2
f 116/17/1 114/18/1 132/19/1 134/20/1
f 135/1/2 133/2/2 115/3/2 117/4/2
f 118/1/1 116/2/1 134/3/1 136/4/1
f 137/1/2 135/2/2 117/3/2 119/4/2
f 120/1/1 118/2/1 136/3/1 138/4/1
f 139/13/2 137/14/2 119/15/2 121/16/2
f 122/13/1 120/14/1 138/15/1 140/16/1
f 141/13/2 139/14/2 121/15/2 123/16/2
f 124/13/1 122/14/1 140/15/1 142/16/1
f 126/13/5 125/14/5 143/15/5 144/16/5
f 144/13/2 141/14/2 123/15/2 126/16/2
f 125/13/1 124/14/1 142/15/1 143/16/1
f 145/1/4 146/2/4 147/3/4 148/4/4
f 128/1/6 127/2/6 147/3/6 146/4/6
f 148/1/2 147/2/2 127/3/2 129/4/2
f 130/1/1 128/2/1 146/3/1 145/4/1
f 149/1/4 145/2/4 148/3/4 150/4/4
f 150/1/2 148/2/2 129/3/2 131/4/2
f 132/1/1 130/2/1 145/3/1 149/4/1
f 151/9/4 149/10/4 150/11/4 152/12/4
f 152/9/2 150/10/2 131/11/2 133/12/2
f 134/9/1 132/10/1 149/11/1 151/12/1
f 153/13/4 151/14/4 152/15/4 154/16/4
f 154/13/2 152/14/2 133/15/2 135/16/2
f 136/13/1 134/14/1 151/15/1 153/16/1
f 155/13/4 153/14/4 154/15/4 156/16/4
f 156/13/2 154/14/2 135/15/2 137/16/2
f 138/13/1 136/14/1 153/15/1 155/16/1
f 157/13/4 155/14/4 156/15/4 158/16/4
f 158/13/2 156/14/2 137/15/2 139/16/2
f 140/13/1 138/14/1 155/15/1 157/16/1
f 159/13/4 157/14/4 158/15/4 160/16/4
f 160/13/2 158/14/2 139/15/2 141/16/2
f 142/13/1 140/14/1 157/15/1 159/16/1
f 161/13/4 159/14/4 160/15/4 162/16/4
f 144/13/5 143/14/5 161/15/5 162/16/5
f 162/13/2 160/14/2 141/15/2 144/16/2
f 143/13/1 142/14/1 159/15/1 161/16/1
