# This file was created with Minddesk Qubicle 3.0
# Get Qubicle at www.getqubicle.com

mtllib 101_Piece15_18_0.mtl

vn 0.0 0.0 1.0
vn 0.0 0.0 -1.0
vn -1.0 0.0 0.0
vn 1.0 0.0 0.0
vn 0.0 1.0 0.0
vn 0.0 -1.0 0.0

v 56.00000 145.00000 0.00000
v 56.00000 144.00000 0.00000
v 56.00000 144.00000 1.00000
v 56.00000 145.00000 1.00000
v 57.00000 144.00000 0.00000
v 57.00000 144.00000 1.00000
v 57.00000 145.00000 0.00000
v 57.00000 145.00000 1.00000
v 56.00000 146.00000 0.00000
v 56.00000 146.00000 1.00000
v 57.00000 146.00000 0.00000
v 57.00000 146.00000 1.00000
v 56.00000 147.00000 0.00000
v 56.00000 147.00000 1.00000
v 57.00000 147.00000 0.00000
v 57.00000 147.00000 1.00000
v 56.00000 148.00000 0.00000
v 56.00000 148.00000 1.00000
v 57.00000 148.00000 0.00000
v 57.00000 148.00000 1.00000
v 56.00000 149.00000 0.00000
v 56.00000 149.00000 1.00000
v 57.00000 149.00000 0.00000
v 57.00000 149.00000 1.00000
v 56.00000 150.00000 0.00000
v 56.00000 150.00000 1.00000
v 57.00000 150.00000 0.00000
v 57.00000 150.00000 1.00000
v 56.00000 151.00000 0.00000
v 56.00000 151.00000 1.00000
v 57.00000 151.00000 0.00000
v 57.00000 151.00000 1.00000
v 56.00000 152.00000 0.00000
v 56.00000 152.00000 1.00000
v 57.00000 152.00000 1.00000
v 57.00000 152.00000 0.00000
v 58.00000 144.00000 0.00000
v 58.00000 144.00000 1.00000
v 58.00000 145.00000 0.00000
v 58.00000 145.00000 1.00000
v 58.00000 146.00000 0.00000
v 58.00000 146.00000 1.00000
v 58.00000 147.00000 0.00000
v 58.00000 147.00000 1.00000
v 58.00000 148.00000 0.00000
v 58.00000 148.00000 1.00000
v 58.00000 149.00000 0.00000
v 58.00000 149.00000 1.00000
v 58.00000 150.00000 0.00000
v 58.00000 150.00000 1.00000
v 58.00000 151.00000 0.00000
v 58.00000 151.00000 1.00000
v 58.00000 152.00000 1.00000
v 58.00000 152.00000 0.00000
v 59.00000 144.00000 0.00000
v 59.00000 144.00000 1.00000
v 59.00000 145.00000 0.00000
v 59.00000 145.00000 1.00000
v 59.00000 146.00000 0.00000
v 59.00000 146.00000 1.00000
v 59.00000 147.00000 0.00000
v 59.00000 147.00000 1.00000
v 59.00000 148.00000 0.00000
v 59.00000 148.00000 1.00000
v 59.00000 149.00000 0.00000
v 59.00000 149.00000 1.00000
v 59.00000 150.00000 0.00000
v 59.00000 150.00000 1.00000
v 59.00000 151.00000 0.00000
v 59.00000 151.00000 1.00000
v 59.00000 152.00000 1.00000
v 59.00000 152.00000 0.00000
v 60.00000 144.00000 0.00000
v 60.00000 144.00000 1.00000
v 60.00000 145.00000 0.00000
v 60.00000 145.00000 1.00000
v 60.00000 146.00000 0.00000
v 60.00000 146.00000 1.00000
v 60.00000 147.00000 0.00000
v 60.00000 147.00000 1.00000
v 60.00000 148.00000 0.00000
v 60.00000 148.00000 1.00000
v 60.00000 149.00000 0.00000
v 60.00000 149.00000 1.00000
v 60.00000 150.00000 0.00000
v 60.00000 150.00000 1.00000
v 60.00000 151.00000 0.00000
v 60.00000 151.00000 1.00000
v 60.00000 152.00000 1.00000
v 60.00000 152.00000 0.00000
v 61.00000 144.00000 0.00000
v 61.00000 144.00000 1.00000
v 61.00000 145.00000 0.00000
v 61.00000 145.00000 1.00000
v 61.00000 146.00000 0.00000
v 61.00000 146.00000 1.00000
v 61.00000 147.00000 0.00000
v 61.00000 147.00000 1.00000
v 61.00000 148.00000 0.00000
v 61.00000 148.00000 1.00000
v 61.00000 149.00000 0.00000
v 61.00000 149.00000 1.00000
v 61.00000 150.00000 0.00000
v 61.00000 150.00000 1.00000
v 61.00000 151.00000 0.00000
v 61.00000 151.00000 1.00000
v 61.00000 152.00000 1.00000
v 61.00000 152.00000 0.00000
v 62.00000 144.00000 0.00000
v 62.00000 144.00000 1.00000
v 62.00000 145.00000 0.00000
v 62.00000 145.00000 1.00000
v 62.00000 146.00000 0.00000
v 62.00000 146.00000 1.00000
v 62.00000 147.00000 0.00000
v 62.00000 147.00000 1.00000
v 62.00000 148.00000 0.00000
v 62.00000 148.00000 1.00000
v 62.00000 149.00000 0.00000
v 62.00000 149.00000 1.00000
v 62.00000 150.00000 0.00000
v 62.00000 150.00000 1.00000
v 62.00000 151.00000 0.00000
v 62.00000 151.00000 1.00000
v 62.00000 152.00000 1.00000
v 62.00000 152.00000 0.00000
v 63.00000 144.00000 0.00000
v 63.00000 144.00000 1.00000
v 63.00000 145.00000 0.00000
v 63.00000 145.00000 1.00000
v 63.00000 146.00000 0.00000
v 63.00000 146.00000 1.00000
v 63.00000 147.00000 0.00000
v 63.00000 147.00000 1.00000
v 63.00000 148.00000 0.00000
v 63.00000 148.00000 1.00000
v 63.00000 149.00000 0.00000
v 63.00000 149.00000 1.00000
v 63.00000 150.00000 0.00000
v 63.00000 150.00000 1.00000
v 63.00000 151.00000 0.00000
v 63.00000 151.00000 1.00000
v 63.00000 152.00000 1.00000
v 63.00000 152.00000 0.00000
v 64.00000 145.00000 1.00000
v 64.00000 144.00000 1.00000
v 64.00000 144.00000 0.00000
v 64.00000 145.00000 0.00000
v 64.00000 146.00000 1.00000
v 64.00000 146.00000 0.00000
v 64.00000 147.00000 1.00000
v 64.00000 147.00000 0.00000
v 64.00000 148.00000 1.00000
v 64.00000 148.00000 0.00000
v 64.00000 149.00000 1.00000
v 64.00000 149.00000 0.00000
v 64.00000 150.00000 1.00000
v 64.00000 150.00000 0.00000
v 64.00000 151.00000 1.00000
v 64.00000 151.00000 0.00000
v 64.00000 152.00000 1.00000
v 64.00000 152.00000 0.00000

vt 0.16797 0.50781
vt 0.16797 0.50000
vt 0.17188 0.50000
vt 0.17188 0.50781
vt 0.17969 0.50781
vt 0.17969 0.50000
vt 0.18359 0.50000
vt 0.18359 0.50781
vt 0.06250 0.29688
vt 0.06250 0.28906
vt 0.06641 0.28906
vt 0.06641 0.29688
vt 0.19141 0.50781
vt 0.19141 0.50000
vt 0.19531 0.50000
vt 0.19531 0.50781
vt 0.20313 0.50781
vt 0.20313 0.50000
vt 0.20703 0.50000
vt 0.20703 0.50781

g 101_Piece15_18_0
usemtl 101_Material
f 1/1/3 2/2/3 3/3/3 4/4/3
f 3/1/6 2/2/6 5/3/6 6/4/6
f 7/1/2 5/2/2 2/3/2 1/4/2
f 4/1/1 3/2/1 6/3/1 8/4/1
f 9/1/3 1/2/3 4/3/3 10/4/3
f 11/1/2 7/2/2 1/3/2 9/4/2
f 10/1/1 4/2/1 8/3/1 12/4/1
f 13/1/3 9/2/3 10/3/3 14/4/3
f 15/1/2 11/2/2 9/3/2 13/4/2
f 14/1/1 10/2/1 12/3/1 16/4/1
f 17/1/3 13/2/3 14/3/3 18/4/3
f 19/1/2 15/2/2 13/3/2 17/4/2
f 18/1/1 14/2/1 16/3/1 20/4/1
f 21/1/3 17/2/3 18/3/3 22/4/3
f 23/1/2 19/2/2 17/3/2 21/4/2
f 22/1/1 18/2/1 20/3/1 24/4/1
f 25/1/3 21/2/3 22/3/3 26/4/3
f 27/1/2 23/2/2 21/3/2 25/4/2
f 26/1/1 22/2/1 24/3/1 28/4/1
f 29/1/3 25/2/3 26/3/3 30/4/3
f 31/1/2 27/2/2 25/3/2 29/4/2
f 30/1/1 26/2/1 28/3/1 32/4/1
f 33/1/3 29/2/3 30/3/3 34/4/3
f 33/1/5 34/2/5 35/3/5 36/4/5
f 36/1/2 31/2/2 29/3/2 33/4/2
f 34/1/1 30/2/1 32/3/1 35/4/1
f 6/5/6 5/6/6 37/7/6 38/8/6
f 39/5/2 37/6/2 5/7/2 7/8/2
f 8/5/1 6/6/1 38/7/1 40/8/1
f 41/5/2 39/6/2 7/7/2 11/8/2
f 12/5/1 8/6/1 40/7/1 42/8/1
f 43/5/2 41/6/2 11/7/2 15/8/2
f 16/5/1 12/6/1 42/7/1 44/8/1
f 45/5/2 43/6/2 15/7/2 19/8/2
f 20/5/1 16/6/1 44/7/1 46/8/1
f 47/5/2 45/6/2 19/7/2 23/8/2
f 24/5/1 20/6/1 46/7/1 48/8/1
f 49/5/2 47/6/2 23/7/2 27/8/2
f 28/5/1 24/6/1 48/7/1 50/8/1
f 51/5/2 49/6/2 27/7/2 31/8/2
f 32/5/1 28/6/1 50/7/1 52/8/1
f 36/5/5 35/6/5 53/7/5 54/8/5
f 54/5/2 51/6/2 31/7/2 36/8/2
f 35/5/1 32/6/1 52/7/1 53/8/1
f 38/9/6 37/10/6 55/11/6 56/12/6
f 57/9/2 55/10/2 37/11/2 39/12/2
f 40/9/1 38/10/1 56/11/1 58/12/1
f 59/9/2 57/10/2 39/11/2 41/12/2
f 42/9/1 40/10/1 58/11/1 60/12/1
f 61/9/2 59/10/2 41/11/2 43/12/2
f 44/9/1 42/10/1 60/11/1 62/12/1
f 63/9/2 61/10/2 43/11/2 45/12/2
f 46/9/1 44/10/1 62/11/1 64/12/1
f 65/9/2 63/10/2 45/11/2 47/12/2
f 48/9/1 46/10/1 64/11/1 66/12/1
f 67/9/2 65/10/2 47/11/2 49/12/2
f 50/9/1 48/10/1 66/11/1 68/12/1
f 69/9/2 67/10/2 49/11/2 51/12/2
f 52/9/1 50/10/1 68/11/1 70/12/1
f 54/9/5 53/10/5 71/11/5 72/12/5
f 72/9/2 69/10/2 51/11/2 54/12/2
f 53/9/1 52/10/1 70/11/1 71/12/1
f 56/9/6 55/10/6 73/11/6 74/12/6
f 75/9/2 73/10/2 55/11/2 57/12/2
f 58/9/1 56/10/1 74/11/1 76/12/1
f 77/13/2 75/14/2 57/15/2 59/16/2
f 60/13/1 58/14/1 76/15/1 78/16/1
f 79/9/2 77/10/2 59/11/2 61/12/2
f 62/9/1 60/10/1 78/11/1 80/12/1
f 81/13/2 79/14/2 61/15/2 63/16/2
f 64/13/1 62/14/1 80/15/1 82/16/1
f 83/9/2 81/10/2 63/11/2 65/12/2
f 66/9/1 64/10/1 82/11/1 84/12/1
f 85/13/2 83/14/2 65/15/2 67/16/2
f 68/13/1 66/14/1 84/15/1 86/16/1
f 87/9/2 85/10/2 67/11/2 69/12/2
f 70/9/1 68/10/1 86/11/1 88/12/1
f 72/13/5 71/14/5 89/15/5 90/16/5
f 90/13/2 87/14/2 69/15/2 72/16/2
f 71/13/1 70/14/1 88/15/1 89/16/1
f 74/9/6 73/10/6 91/11/6 92/12/6
f 93/9/2 91/10/2 73/11/2 75/12/2
f 76/9/1 74/10/1 92/11/1 94/12/1
f 95/13/2 93/14/2 75/15/2 77/16/2
f 78/13/1 76/14/1 94/15/1 96/16/1
f 97/9/2 95/10/2 77/11/2 79/12/2
f 80/9/1 78/10/1 96/11/1 98/12/1
f 99/13/2 97/14/2 79/15/2 81/16/2
f 82/13/1 80/14/1 98/15/1 100/16/1
f 101/9/2 99/10/2 81/11/2 83/12/2
f 84/9/1 82/10/1 100/11/1 102/12/1
f 103/13/2 101/14/2 83/15/2 85/16/2
f 86/13/1 84/14/1 102/15/1 104/16/1
f 105/9/2 103/10/2 85/11/2 87/12/2
f 88/9/1 86/10/1 104/11/1 106/12/1
f 90/13/5 89/14/5 107/15/5 108/16/5
f 108/13/2 105/14/2 87/15/2 90/16/2
f 89/13/1 88/14/1 106/15/1 107/16/1
f 92/9/6 91/10/6 109/11/6 110/12/6
f 111/9/2 109/10/2 91/11/2 93/12/2
f 94/9/1 92/10/1 110/11/1 112/12/1
f 113/9/2 111/10/2 93/11/2 95/12/2
f 96/9/1 94/10/1 112/11/1 114/12/1
f 115/13/2 113/14/2 95/15/2 97/16/2
f 98/13/1 96/14/1 114/15/1 116/16/1
f 117/9/2 115/10/2 97/11/2 99/12/2
f 100/9/1 98/10/1 116/11/1 118/12/1
f 119/9/2 117/10/2 99/11/2 101/12/2
f 102/9/1 100/10/1 118/11/1 120/12/1
f 121/9/2 119/10/2 101/11/2 103/12/2
f 104/9/1 102/10/1 120/11/1 122/12/1
f 123/13/2 121/14/2 103/15/2 105/16/2
f 106/13/1 104/14/1 122/15/1 124/16/1
f 108/9/5 107/10/5 125/11/5 126/12/5
f 126/9/2 123/10/2 105/11/2 108/12/2
f 107/9/1 106/10/1 124/11/1 125/12/1
f 110/9/6 109/10/6 127/11/6 128/12/6
f 129/9/2 127/10/2 109/11/2 111/12/2
f 112/9/1 110/10/1 128/11/1 130/12/1
f 131/9/2 129/10/2 111/11/2 113/12/2
f 114/9/1 112/10/1 130/11/1 132/12/1
f 133/13/2 131/14/2 113/15/2 115/16/2
f 116/13/1 114/14/1 132/15/1 134/16/1
f 135/9/2 133/10/2 115/11/2 117/12/2
f 118/9/1 116/10/1 134/11/1 136/12/1
f 137/9/2 135/10/2 117/11/2 119/12/2
f 120/9/1 118/10/1 136/11/1 138/12/1
f 139/9/2 137/10/2 119/11/2 121/12/2
f 122/9/1 120/10/1 138/11/1 140/12/1
f 141/13/2 139/14/2 121/15/2 123/16/2
f 124/13/1 122/14/1 140/15/1 142/16/1
f 126/9/5 125/10/5 143/11/5 144/12/5
f 144/9/2 141/10/2 123/11/2 126/12/2
f 125/9/1 124/10/1 142/11/1 143/12/1
f 145/9/4 146/10/4 147/11/4 148/12/4
f 128/9/6 127/10/6 147/11/6 146/12/6
f 148/9/2 147/10/2 127/11/2 129/12/2
f 130/9/1 128/10/1 146/11/1 145/12/1
f 149/9/4 145/10/4 148/11/4 150/12/4
f 150/9/2 148/10/2 129/11/2 131/12/2
f 132/9/1 130/10/1 145/11/1 149/12/1
f 151/17/4 149/18/4 150/19/4 152/20/4
f 152/17/2 150/18/2 131/19/2 133/20/2
f 134/17/1 132/18/1 149/19/1 151/20/1
f 153/9/4 151/10/4 152/11/4 154/12/4
f 154/9/2 152/10/2 133/11/2 135/12/2
f 136/9/1 134/10/1 151/11/1 153/12/1
f 155/9/4 153/10/4 154/11/4 156/12/4
f 156/9/2 154/10/2 135/11/2 137/12/2
f 138/9/1 136/10/1 153/11/1 155/12/1
f 157/9/4 155/10/4 156/11/4 158/12/4
f 158/9/2 156/10/2 137/11/2 139/12/2
f 140/9/1 138/10/1 155/11/1 157/12/1
f 159/17/4 157/18/4 158/19/4 160/20/4
f 160/17/2 158/18/2 139/19/2 141/20/2
f 142/17/1 140/18/1 157/19/1 159/20/1
f 161/9/4 159/10/4 160/11/4 162/12/4
f 144/9/5 143/10/5 161/11/5 162/12/5
f 162/9/2 160/10/2 141/11/2 144/12/2
f 143/9/1 142/10/1 159/11/1 161/12/1
