# This file was created with Minddesk Qubicle 3.0
# Get Qubicle at www.getqubicle.com

mtllib 101_Piece3_12_0.mtl

vn 0.0 0.0 1.0
vn 0.0 0.0 -1.0
vn -1.0 0.0 0.0
vn 1.0 0.0 0.0
vn 0.0 1.0 0.0
vn 0.0 -1.0 0.0

v -40.00000 97.00000 0.00000
v -40.00000 96.00000 0.00000
v -40.00000 96.00000 1.00000
v -40.00000 97.00000 1.00000
v -39.00000 96.00000 0.00000
v -39.00000 96.00000 1.00000
v -39.00000 97.00000 0.00000
v -39.00000 97.00000 1.00000
v -40.00000 98.00000 0.00000
v -40.00000 98.00000 1.00000
v -39.00000 98.00000 0.00000
v -39.00000 98.00000 1.00000
v -40.00000 99.00000 0.00000
v -40.00000 99.00000 1.00000
v -39.00000 99.00000 0.00000
v -39.00000 99.00000 1.00000
v -40.00000 100.00000 0.00000
v -40.00000 100.00000 1.00000
v -39.00000 100.00000 0.00000
v -39.00000 100.00000 1.00000
v -40.00000 101.00000 0.00000
v -40.00000 101.00000 1.00000
v -39.00000 101.00000 0.00000
v -39.00000 101.00000 1.00000
v -40.00000 102.00000 0.00000
v -40.00000 102.00000 1.00000
v -39.00000 102.00000 0.00000
v -39.00000 102.00000 1.00000
v -40.00000 103.00000 0.00000
v -40.00000 103.00000 1.00000
v -39.00000 103.00000 0.00000
v -39.00000 103.00000 1.00000
v -40.00000 104.00000 0.00000
v -40.00000 104.00000 1.00000
v -39.00000 104.00000 1.00000
v -39.00000 104.00000 0.00000
v -38.00000 96.00000 0.00000
v -38.00000 96.00000 1.00000
v -38.00000 97.00000 0.00000
v -38.00000 97.00000 1.00000
v -38.00000 98.00000 0.00000
v -38.00000 98.00000 1.00000
v -38.00000 99.00000 0.00000
v -38.00000 99.00000 1.00000
v -38.00000 100.00000 0.00000
v -38.00000 100.00000 1.00000
v -38.00000 101.00000 0.00000
v -38.00000 101.00000 1.00000
v -38.00000 102.00000 0.00000
v -38.00000 102.00000 1.00000
v -38.00000 103.00000 0.00000
v -38.00000 103.00000 1.00000
v -38.00000 104.00000 1.00000
v -38.00000 104.00000 0.00000
v -37.00000 96.00000 0.00000
v -37.00000 96.00000 1.00000
v -37.00000 97.00000 0.00000
v -37.00000 97.00000 1.00000
v -37.00000 98.00000 0.00000
v -37.00000 98.00000 1.00000
v -37.00000 99.00000 0.00000
v -37.00000 99.00000 1.00000
v -37.00000 100.00000 0.00000
v -37.00000 100.00000 1.00000
v -37.00000 101.00000 0.00000
v -37.00000 101.00000 1.00000
v -37.00000 102.00000 0.00000
v -37.00000 102.00000 1.00000
v -37.00000 103.00000 0.00000
v -37.00000 103.00000 1.00000
v -37.00000 104.00000 1.00000
v -37.00000 104.00000 0.00000
v -36.00000 96.00000 0.00000
v -36.00000 96.00000 1.00000
v -36.00000 97.00000 0.00000
v -36.00000 97.00000 1.00000
v -36.00000 98.00000 0.00000
v -36.00000 98.00000 1.00000
v -36.00000 99.00000 0.00000
v -36.00000 99.00000 1.00000
v -36.00000 100.00000 0.00000
v -36.00000 100.00000 1.00000
v -36.00000 101.00000 0.00000
v -36.00000 101.00000 1.00000
v -36.00000 102.00000 0.00000
v -36.00000 102.00000 1.00000
v -36.00000 103.00000 0.00000
v -36.00000 103.00000 1.00000
v -36.00000 104.00000 1.00000
v -36.00000 104.00000 0.00000
v -35.00000 96.00000 0.00000
v -35.00000 96.00000 1.00000
v -35.00000 97.00000 0.00000
v -35.00000 97.00000 1.00000
v -35.00000 98.00000 0.00000
v -35.00000 98.00000 1.00000
v -35.00000 99.00000 0.00000
v -35.00000 99.00000 1.00000
v -35.00000 100.00000 0.00000
v -35.00000 100.00000 1.00000
v -35.00000 101.00000 0.00000
v -35.00000 101.00000 1.00000
v -35.00000 102.00000 0.00000
v -35.00000 102.00000 1.00000
v -35.00000 103.00000 0.00000
v -35.00000 103.00000 1.00000
v -35.00000 104.00000 1.00000
v -35.00000 104.00000 0.00000
v -34.00000 96.00000 0.00000
v -34.00000 96.00000 1.00000
v -34.00000 97.00000 0.00000
v -34.00000 97.00000 1.00000
v -34.00000 98.00000 0.00000
v -34.00000 98.00000 1.00000
v -34.00000 99.00000 0.00000
v -34.00000 99.00000 1.00000
v -34.00000 100.00000 0.00000
v -34.00000 100.00000 1.00000
v -34.00000 101.00000 0.00000
v -34.00000 101.00000 1.00000
v -34.00000 102.00000 0.00000
v -34.00000 102.00000 1.00000
v -34.00000 103.00000 0.00000
v -34.00000 103.00000 1.00000
v -34.00000 104.00000 1.00000
v -34.00000 104.00000 0.00000
v -33.00000 96.00000 0.00000
v -33.00000 96.00000 1.00000
v -33.00000 97.00000 0.00000
v -33.00000 97.00000 1.00000
v -33.00000 98.00000 0.00000
v -33.00000 98.00000 1.00000
v -33.00000 99.00000 0.00000
v -33.00000 99.00000 1.00000
v -33.00000 100.00000 0.00000
v -33.00000 100.00000 1.00000
v -33.00000 101.00000 0.00000
v -33.00000 101.00000 1.00000
v -33.00000 102.00000 0.00000
v -33.00000 102.00000 1.00000
v -33.00000 103.00000 0.00000
v -33.00000 103.00000 1.00000
v -33.00000 104.00000 1.00000
v -33.00000 104.00000 0.00000
v -32.00000 97.00000 1.00000
v -32.00000 96.00000 1.00000
v -32.00000 96.00000 0.00000
v -32.00000 97.00000 0.00000
v -32.00000 98.00000 1.00000
v -32.00000 98.00000 0.00000
v -32.00000 99.00000 1.00000
v -32.00000 99.00000 0.00000
v -32.00000 100.00000 1.00000
v -32.00000 100.00000 0.00000
v -32.00000 101.00000 1.00000
v -32.00000 101.00000 0.00000
v -32.00000 102.00000 1.00000
v -32.00000 102.00000 0.00000
v -32.00000 103.00000 1.00000
v -32.00000 103.00000 0.00000
v -32.00000 104.00000 1.00000
v -32.00000 104.00000 0.00000

vt 0.00391 0.06250
vt 0.00391 0.05469
vt 0.00781 0.05469
vt 0.00781 0.06250
vt 0.43750 0.03906
vt 0.43750 0.03125
vt 0.44141 0.03125
vt 0.44141 0.03906
vt 0.33203 0.03906
vt 0.33203 0.03125
vt 0.33594 0.03125
vt 0.33594 0.03906
vt 0.30859 0.17969
vt 0.30859 0.17188
vt 0.31250 0.17188
vt 0.31250 0.17969
vt 0.32031 0.17969
vt 0.32031 0.17188
vt 0.32422 0.17188
vt 0.32422 0.17969
vt 0.03906 0.15625
vt 0.03906 0.14844
vt 0.04297 0.14844
vt 0.04297 0.15625
vt 0.33203 0.17969
vt 0.33203 0.17188
vt 0.33594 0.17188
vt 0.33594 0.17969
vt 0.13281 0.10938
vt 0.13281 0.10156
vt 0.13672 0.10156
vt 0.13672 0.10938
vt 0.34375 0.17969
vt 0.34375 0.17188
vt 0.34766 0.17188
vt 0.34766 0.17969
vt 0.35547 0.17969
vt 0.35547 0.17188
vt 0.35938 0.17188
vt 0.35938 0.17969
vt 0.21484 0.10938
vt 0.21484 0.10156
vt 0.21875 0.10156
vt 0.21875 0.10938
vt 0.36719 0.17969
vt 0.36719 0.17188
vt 0.37109 0.17188
vt 0.37109 0.17969
vt 0.37891 0.17969
vt 0.37891 0.17188
vt 0.38281 0.17188
vt 0.38281 0.17969
vt 0.34375 0.10938
vt 0.34375 0.10156
vt 0.34766 0.10156
vt 0.34766 0.10938
vt 0.05078 0.06250
vt 0.05078 0.05469
vt 0.05469 0.05469
vt 0.05469 0.06250
vt 0.39063 0.17969
vt 0.39063 0.17188
vt 0.39453 0.17188
vt 0.39453 0.17969
vt 0.40234 0.17969
vt 0.40234 0.17188
vt 0.40625 0.17188
vt 0.40625 0.17969
vt 0.41406 0.17969
vt 0.41406 0.17188
vt 0.41797 0.17188
vt 0.41797 0.17969

g 101_Piece3_12_0
usemtl 101_Material
f 1/1/3 2/2/3 3/3/3 4/4/3
f 3/1/6 2/2/6 5/3/6 6/4/6
f 7/1/2 5/2/2 2/3/2 1/4/2
f 4/1/1 3/2/1 6/3/1 8/4/1
f 9/5/3 1/6/3 4/7/3 10/8/3
f 11/5/2 7/6/2 1/7/2 9/8/2
f 10/5/1 4/6/1 8/7/1 12/8/1
f 13/9/3 9/10/3 10/11/3 14/12/3
f 15/9/2 11/10/2 9/11/2 13/12/2
f 14/9/1 10/10/1 12/11/1 16/12/1
f 17/9/3 13/10/3 14/11/3 18/12/3
f 19/9/2 15/10/2 13/11/2 17/12/2
f 18/9/1 14/10/1 16/11/1 20/12/1
f 21/9/3 17/10/3 18/11/3 22/12/3
f 23/9/2 19/10/2 17/11/2 21/12/2
f 22/9/1 18/10/1 20/11/1 24/12/1
f 25/9/3 21/10/3 22/11/3 26/12/3
f 27/9/2 23/10/2 21/11/2 25/12/2
f 26/9/1 22/10/1 24/11/1 28/12/1
f 29/9/3 25/10/3 26/11/3 30/12/3
f 31/9/2 27/10/2 25/11/2 29/12/2
f 30/9/1 26/10/1 28/11/1 32/12/1
f 33/5/3 29/6/3 30/7/3 34/8/3
f 33/5/5 34/6/5 35/7/5 36/8/5
f 36/5/2 31/6/2 29/7/2 33/8/2
f 34/5/1 30/6/1 32/7/1 35/8/1
f 6/5/6 5/6/6 37/7/6 38/8/6
f 39/5/2 37/6/2 5/7/2 7/8/2
f 8/5/1 6/6/1 38/7/1 40/8/1
f 41/13/2 39/14/2 7/15/2 11/16/2
f 12/13/1 8/14/1 40/15/1 42/16/1
f 43/17/2 41/18/2 11/19/2 15/20/2
f 16/17/1 12/18/1 42/19/1 44/20/1
f 45/21/2 43/22/2 15/23/2 19/24/2
f 20/21/1 16/22/1 44/23/1 46/24/1
f 47/21/2 45/22/2 19/23/2 23/24/2
f 24/21/1 20/22/1 46/23/1 48/24/1
f 49/25/2 47/26/2 23/27/2 27/28/2
f 28/25/1 24/26/1 48/27/1 50/28/1
f 51/25/2 49/26/2 27/27/2 31/28/2
f 32/25/1 28/26/1 50/27/1 52/28/1
f 36/13/5 35/14/5 53/15/5 54/16/5
f 54/13/2 51/14/2 31/15/2 36/16/2
f 35/13/1 32/14/1 52/15/1 53/16/1
f 38/5/6 37/6/6 55/7/6 56/8/6
f 57/5/2 55/6/2 37/7/2 39/8/2
f 40/5/1 38/6/1 56/7/1 58/8/1
f 59/17/2 57/18/2 39/19/2 41/20/2
f 42/17/1 40/18/1 58/19/1 60/20/1
f 61/29/2 59/30/2 41/31/2 43/32/2
f 44/29/1 42/30/1 60/31/1 62/32/1
f 63/33/2 61/34/2 43/35/2 45/36/2
f 46/33/1 44/34/1 62/35/1 64/36/1
f 65/37/2 63/38/2 45/39/2 47/40/2
f 48/37/1 46/38/1 64/39/1 66/40/1
f 67/41/2 65/42/2 47/43/2 49/44/2
f 50/41/1 48/42/1 66/43/1 68/44/1
f 69/41/2 67/42/2 49/43/2 51/44/2
f 52/41/1 50/42/1 68/43/1 70/44/1
f 54/17/5 53/18/5 71/19/5 72/20/5
f 72/17/2 69/18/2 51/19/2 54/20/2
f 53/17/1 52/18/1 70/19/1 71/20/1
f 56/5/6 55/6/6 73/7/6 74/8/6
f 75/5/2 73/6/2 55/7/2 57/8/2
f 58/5/1 56/6/1 74/7/1 76/8/1
f 77/45/2 75/46/2 57/47/2 59/48/2
f 60/45/1 58/46/1 76/47/1 78/48/1
f 79/37/2 77/38/2 59/39/2 61/40/2
f 62/37/1 60/38/1 78/39/1 80/40/1
f 81/41/2 79/42/2 61/43/2 63/44/2
f 64/41/1 62/42/1 80/43/1 82/44/1
f 83/41/2 81/42/2 63/43/2 65/44/2
f 66/41/1 64/42/1 82/43/1 84/44/1
f 85/29/2 83/30/2 65/31/2 67/32/2
f 68/29/1 66/30/1 84/31/1 86/32/1
f 87/29/2 85/30/2 67/31/2 69/32/2
f 70/29/1 68/30/1 86/31/1 88/32/1
f 72/21/5 71/22/5 89/23/5 90/24/5
f 90/21/2 87/22/2 69/23/2 72/24/2
f 71/21/1 70/22/1 88/23/1 89/24/1
f 74/5/6 73/6/6 91/7/6 92/8/6
f 93/5/2 91/6/2 73/7/2 75/8/2
f 76/5/1 74/6/1 92/7/1 94/8/1
f 95/45/2 93/46/2 75/47/2 77/48/2
f 78/45/1 76/46/1 94/47/1 96/48/1
f 97/37/2 95/38/2 77/39/2 79/40/2
f 80/37/1 78/38/1 96/39/1 98/40/1
f 99/41/2 97/42/2 79/43/2 81/44/2
f 82/41/1 80/42/1 98/43/1 100/44/1
f 101/29/2 99/30/2 81/31/2 83/32/2
f 84/29/1 82/30/1 100/31/1 102/32/1
f 103/33/2 101/34/2 83/35/2 85/36/2
f 86/33/1 84/34/1 102/35/1 104/36/1
f 105/37/2 103/38/2 85/39/2 87/40/2
f 88/37/1 86/38/1 104/39/1 106/40/1
f 90/25/5 89/26/5 107/27/5 108/28/5
f 108/25/2 105/26/2 87/27/2 90/28/2
f 89/25/1 88/26/1 106/27/1 107/28/1
f 92/5/6 91/6/6 109/7/6 110/8/6
f 111/5/2 109/6/2 91/7/2 93/8/2
f 94/5/1 92/6/1 110/7/1 112/8/1
f 113/25/2 111/26/2 93/27/2 95/28/2
f 96/25/1 94/26/1 112/27/1 114/28/1
f 115/41/2 113/42/2 95/43/2 97/44/2
f 98/41/1 96/42/1 114/43/1 116/44/1
f 117/29/2 115/30/2 97/31/2 99/32/2
f 100/29/1 98/30/1 116/31/1 118/32/1
f 119/29/2 117/30/2 99/31/2 101/32/2
f 102/29/1 100/30/1 118/31/1 120/32/1
f 121/33/2 119/34/2 101/35/2 103/36/2
f 104/33/1 102/34/1 120/35/1 122/36/1
f 123/41/2 121/42/2 103/43/2 105/44/2
f 106/41/1 104/42/1 122/43/1 124/44/1
f 108/25/5 107/26/5 125/27/5 126/28/5
f 126/25/2 123/26/2 105/27/2 108/28/2
f 107/25/1 106/26/1 124/27/1 125/28/1
f 110/5/6 109/6/6 127/7/6 128/8/6
f 129/5/2 127/6/2 109/7/2 111/8/2
f 112/5/1 110/6/1 128/7/1 130/8/1
f 131/17/2 129/18/2 111/19/2 113/20/2
f 114/17/1 112/18/1 130/19/1 132/20/1
f 133/41/2 131/42/2 113/43/2 115/44/2
f 116/41/1 114/42/1 132/43/1 134/44/1
f 135/37/2 133/38/2 115/39/2 117/40/2
f 118/37/1 116/38/1 134/39/1 136/40/1
f 137/29/2 135/30/2 117/31/2 119/32/2
f 120/29/1 118/30/1 136/31/1 138/32/1
f 139/37/2 137/38/2 119/39/2 121/40/2
f 122/37/1 120/38/1 138/39/1 140/40/1
f 141/49/2 139/50/2 121/51/2 123/52/2
f 124/49/1 122/50/1 140/51/1 142/52/1
f 126/53/5 125/54/5 143/55/5 144/56/5
f 144/53/2 141/54/2 123/55/2 126/56/2
f 125/53/1 124/54/1 142/55/1 143/56/1
f 145/57/4 146/58/4 147/59/4 148/60/4
f 128/57/6 127/58/6 147/59/6 146/60/6
f 148/57/2 147/58/2 127/59/2 129/60/2
f 130/57/1 128/58/1 146/59/1 145/60/1
f 149/61/4 145/62/4 148/63/4 150/64/4
f 150/61/2 148/62/2 129/63/2 131/64/2
f 132/61/1 130/62/1 145/63/1 149/64/1
f 151/65/4 149/66/4 150/67/4 152/68/4
f 152/65/2 150/66/2 131/67/2 133/68/2
f 134/65/1 132/66/1 149/67/1 151/68/1
f 153/25/4 151/26/4 152/27/4 154/28/4
f 154/25/2 152/26/2 133/27/2 135/28/2
f 136/25/1 134/26/1 151/27/1 153/28/1
f 155/25/4 153/26/4 154/27/4 156/28/4
f 156/25/2 154/26/2 135/27/2 137/28/2
f 138/25/1 136/26/1 153/27/1 155/28/1
f 157/25/4 155/26/4 156/27/4 158/28/4
f 158/25/2 156/26/2 137/27/2 139/28/2
f 140/25/1 138/26/1 155/27/1 157/28/1
f 159/17/4 157/18/4 158/19/4 160/20/4
f 160/17/2 158/18/2 139/19/2 141/20/2
f 142/17/1 140/18/1 157/19/1 159/20/1
f 161/69/4 159/70/4 160/71/4 162/72/4
f 144/69/5 143/70/5 161/71/5 162/72/5
f 162/69/2 160/70/2 141/71/2 144/72/2
f 143/69/1 142/70/1 159/71/1 161/72/1
