# This file was created with Minddesk Qubicle 3.0
# Get Qubicle at www.getqubicle.com

mtllib 101_Piece4_2_0.mtl

vn 0.0 0.0 1.0
vn 0.0 0.0 -1.0
vn -1.0 0.0 0.0
vn 1.0 0.0 0.0
vn 0.0 1.0 0.0
vn 0.0 -1.0 0.0

v -32.00000 17.00000 0.00000
v -32.00000 16.00000 0.00000
v -32.00000 16.00000 1.00000
v -32.00000 17.00000 1.00000
v -31.00000 16.00000 0.00000
v -31.00000 16.00000 1.00000
v -31.00000 17.00000 0.00000
v -31.00000 17.00000 1.00000
v -32.00000 18.00000 0.00000
v -32.00000 18.00000 1.00000
v -31.00000 18.00000 0.00000
v -31.00000 18.00000 1.00000
v -32.00000 19.00000 0.00000
v -32.00000 19.00000 1.00000
v -31.00000 19.00000 0.00000
v -31.00000 19.00000 1.00000
v -32.00000 20.00000 0.00000
v -32.00000 20.00000 1.00000
v -31.00000 20.00000 0.00000
v -31.00000 20.00000 1.00000
v -32.00000 21.00000 0.00000
v -32.00000 21.00000 1.00000
v -31.00000 21.00000 0.00000
v -31.00000 21.00000 1.00000
v -32.00000 22.00000 0.00000
v -32.00000 22.00000 1.00000
v -31.00000 22.00000 0.00000
v -31.00000 22.00000 1.00000
v -32.00000 23.00000 0.00000
v -32.00000 23.00000 1.00000
v -31.00000 23.00000 0.00000
v -31.00000 23.00000 1.00000
v -32.00000 24.00000 0.00000
v -32.00000 24.00000 1.00000
v -31.00000 24.00000 1.00000
v -31.00000 24.00000 0.00000
v -30.00000 16.00000 0.00000
v -30.00000 16.00000 1.00000
v -30.00000 17.00000 0.00000
v -30.00000 17.00000 1.00000
v -30.00000 18.00000 0.00000
v -30.00000 18.00000 1.00000
v -30.00000 19.00000 0.00000
v -30.00000 19.00000 1.00000
v -30.00000 20.00000 0.00000
v -30.00000 20.00000 1.00000
v -30.00000 21.00000 0.00000
v -30.00000 21.00000 1.00000
v -30.00000 22.00000 0.00000
v -30.00000 22.00000 1.00000
v -30.00000 23.00000 0.00000
v -30.00000 23.00000 1.00000
v -30.00000 24.00000 1.00000
v -30.00000 24.00000 0.00000
v -29.00000 16.00000 0.00000
v -29.00000 16.00000 1.00000
v -29.00000 17.00000 0.00000
v -29.00000 17.00000 1.00000
v -29.00000 18.00000 0.00000
v -29.00000 18.00000 1.00000
v -29.00000 19.00000 0.00000
v -29.00000 19.00000 1.00000
v -29.00000 20.00000 0.00000
v -29.00000 20.00000 1.00000
v -29.00000 21.00000 0.00000
v -29.00000 21.00000 1.00000
v -29.00000 22.00000 0.00000
v -29.00000 22.00000 1.00000
v -29.00000 23.00000 0.00000
v -29.00000 23.00000 1.00000
v -29.00000 24.00000 1.00000
v -29.00000 24.00000 0.00000
v -28.00000 16.00000 0.00000
v -28.00000 16.00000 1.00000
v -28.00000 17.00000 0.00000
v -28.00000 17.00000 1.00000
v -28.00000 18.00000 0.00000
v -28.00000 18.00000 1.00000
v -28.00000 19.00000 0.00000
v -28.00000 19.00000 1.00000
v -28.00000 20.00000 0.00000
v -28.00000 20.00000 1.00000
v -28.00000 21.00000 0.00000
v -28.00000 21.00000 1.00000
v -28.00000 22.00000 0.00000
v -28.00000 22.00000 1.00000
v -28.00000 23.00000 0.00000
v -28.00000 23.00000 1.00000
v -28.00000 24.00000 1.00000
v -28.00000 24.00000 0.00000
v -27.00000 16.00000 0.00000
v -27.00000 16.00000 1.00000
v -27.00000 17.00000 0.00000
v -27.00000 17.00000 1.00000
v -27.00000 18.00000 0.00000
v -27.00000 18.00000 1.00000
v -27.00000 19.00000 0.00000
v -27.00000 19.00000 1.00000
v -27.00000 20.00000 0.00000
v -27.00000 20.00000 1.00000
v -27.00000 21.00000 0.00000
v -27.00000 21.00000 1.00000
v -27.00000 22.00000 0.00000
v -27.00000 22.00000 1.00000
v -27.00000 23.00000 0.00000
v -27.00000 23.00000 1.00000
v -27.00000 24.00000 1.00000
v -27.00000 24.00000 0.00000
v -26.00000 16.00000 0.00000
v -26.00000 16.00000 1.00000
v -26.00000 17.00000 0.00000
v -26.00000 17.00000 1.00000
v -26.00000 18.00000 0.00000
v -26.00000 18.00000 1.00000
v -26.00000 19.00000 0.00000
v -26.00000 19.00000 1.00000
v -26.00000 20.00000 0.00000
v -26.00000 20.00000 1.00000
v -26.00000 21.00000 0.00000
v -26.00000 21.00000 1.00000
v -26.00000 22.00000 0.00000
v -26.00000 22.00000 1.00000
v -26.00000 23.00000 0.00000
v -26.00000 23.00000 1.00000
v -26.00000 24.00000 1.00000
v -26.00000 24.00000 0.00000
v -25.00000 16.00000 0.00000
v -25.00000 16.00000 1.00000
v -25.00000 17.00000 0.00000
v -25.00000 17.00000 1.00000
v -25.00000 18.00000 0.00000
v -25.00000 18.00000 1.00000
v -25.00000 19.00000 0.00000
v -25.00000 19.00000 1.00000
v -25.00000 20.00000 0.00000
v -25.00000 20.00000 1.00000
v -25.00000 21.00000 0.00000
v -25.00000 21.00000 1.00000
v -25.00000 22.00000 0.00000
v -25.00000 22.00000 1.00000
v -25.00000 23.00000 0.00000
v -25.00000 23.00000 1.00000
v -25.00000 24.00000 1.00000
v -25.00000 24.00000 0.00000
v -24.00000 17.00000 1.00000
v -24.00000 16.00000 1.00000
v -24.00000 16.00000 0.00000
v -24.00000 17.00000 0.00000
v -24.00000 18.00000 1.00000
v -24.00000 18.00000 0.00000
v -24.00000 19.00000 1.00000
v -24.00000 19.00000 0.00000
v -24.00000 20.00000 1.00000
v -24.00000 20.00000 0.00000
v -24.00000 21.00000 1.00000
v -24.00000 21.00000 0.00000
v -24.00000 22.00000 1.00000
v -24.00000 22.00000 0.00000
v -24.00000 23.00000 1.00000
v -24.00000 23.00000 0.00000
v -24.00000 24.00000 1.00000
v -24.00000 24.00000 0.00000

vt 0.09766 0.01563
vt 0.09766 0.00781
vt 0.10156 0.00781
vt 0.10156 0.01563
vt 0.42578 0.20313
vt 0.42578 0.19531
vt 0.42969 0.19531
vt 0.42969 0.20313
vt 0.23828 0.01563
vt 0.23828 0.00781
vt 0.24219 0.00781
vt 0.24219 0.01563
vt 0.43750 0.20313
vt 0.43750 0.19531
vt 0.44141 0.19531
vt 0.44141 0.20313
vt 0.28516 0.01563
vt 0.28516 0.00781
vt 0.28906 0.00781
vt 0.28906 0.01563
vt 0.44922 0.20313
vt 0.44922 0.19531
vt 0.45313 0.19531
vt 0.45313 0.20313
vt 0.46094 0.20313
vt 0.46094 0.19531
vt 0.46484 0.19531
vt 0.46484 0.20313
vt 0.47266 0.20313
vt 0.47266 0.19531
vt 0.47656 0.19531
vt 0.47656 0.20313
vt 0.06250 0.17969
vt 0.06250 0.17188
vt 0.06641 0.17188
vt 0.06641 0.17969
vt 0.48438 0.15625
vt 0.48438 0.14844
vt 0.48828 0.14844
vt 0.48828 0.15625
vt 0.25000 0.01563
vt 0.25000 0.00781
vt 0.25391 0.00781
vt 0.25391 0.01563
vt 0.01563 0.17969
vt 0.01563 0.17188
vt 0.01953 0.17188
vt 0.01953 0.17969
vt 0.48438 0.20313
vt 0.48438 0.19531
vt 0.48828 0.19531
vt 0.48828 0.20313
vt 0.22656 0.08594
vt 0.22656 0.07813
vt 0.23047 0.07813
vt 0.23047 0.08594
vt 0.19141 0.01563
vt 0.19141 0.00781
vt 0.19531 0.00781
vt 0.19531 0.01563
vt 0.49609 0.20313
vt 0.49609 0.19531
vt 0.50000 0.19531
vt 0.50000 0.20313
vt 0.00391 0.22656
vt 0.00391 0.21875
vt 0.00781 0.21875
vt 0.00781 0.22656
vt 0.01563 0.22656
vt 0.01563 0.21875
vt 0.01953 0.21875
vt 0.01953 0.22656
vt 0.17969 0.08594
vt 0.17969 0.07813
vt 0.18359 0.07813
vt 0.18359 0.08594
vt 0.02734 0.22656
vt 0.02734 0.21875
vt 0.03125 0.21875
vt 0.03125 0.22656
vt 0.26172 0.01563
vt 0.26172 0.00781
vt 0.26563 0.00781
vt 0.26563 0.01563
vt 0.29688 0.01563
vt 0.29688 0.00781
vt 0.30078 0.00781
vt 0.30078 0.01563
vt 0.02734 0.01563
vt 0.02734 0.00781
vt 0.03125 0.00781
vt 0.03125 0.01563
vt 0.03906 0.01563
vt 0.03906 0.00781
vt 0.04297 0.00781
vt 0.04297 0.01563
vt 0.21484 0.01563
vt 0.21484 0.00781
vt 0.21875 0.00781
vt 0.21875 0.01563
vt 0.16797 0.01563
vt 0.16797 0.00781
vt 0.17188 0.00781
vt 0.17188 0.01563
vt 0.26172 0.08594
vt 0.26172 0.07813
vt 0.26563 0.07813
vt 0.26563 0.08594
vt 0.17969 0.01563
vt 0.17969 0.00781
vt 0.18359 0.00781
vt 0.18359 0.01563
vt 0.03906 0.22656
vt 0.03906 0.21875
vt 0.04297 0.21875
vt 0.04297 0.22656
vt 0.05078 0.01563
vt 0.05078 0.00781
vt 0.05469 0.00781
vt 0.05469 0.01563
vt 0.05078 0.22656
vt 0.05078 0.21875
vt 0.05469 0.21875
vt 0.05469 0.22656
vt 0.06250 0.01563
vt 0.06250 0.00781
vt 0.06641 0.00781
vt 0.06641 0.01563
vt 0.06250 0.22656
vt 0.06250 0.21875
vt 0.06641 0.21875
vt 0.06641 0.22656
vt 0.27344 0.01563
vt 0.27344 0.00781
vt 0.27734 0.00781
vt 0.27734 0.01563

g 101_Piece4_2_0
usemtl 101_Material
f 1/1/3 2/2/3 3/3/3 4/4/3
f 3/1/6 2/2/6 5/3/6 6/4/6
f 7/1/2 5/2/2 2/3/2 1/4/2
f 4/1/1 3/2/1 6/3/1 8/4/1
f 9/5/3 1/6/3 4/7/3 10/8/3
f 11/5/2 7/6/2 1/7/2 9/8/2
f 10/5/1 4/6/1 8/7/1 12/8/1
f 13/9/3 9/10/3 10/11/3 14/12/3
f 15/9/2 11/10/2 9/11/2 13/12/2
f 14/9/1 10/10/1 12/11/1 16/12/1
f 17/13/3 13/14/3 14/15/3 18/16/3
f 19/13/2 15/14/2 13/15/2 17/16/2
f 18/13/1 14/14/1 16/15/1 20/16/1
f 21/17/3 17/18/3 18/19/3 22/20/3
f 23/17/2 19/18/2 17/19/2 21/20/2
f 22/17/1 18/18/1 20/19/1 24/20/1
f 25/21/3 21/22/3 22/23/3 26/24/3
f 27/21/2 23/22/2 21/23/2 25/24/2
f 26/21/1 22/22/1 24/23/1 28/24/1
f 29/25/3 25/26/3 26/27/3 30/28/3
f 31/25/2 27/26/2 25/27/2 29/28/2
f 30/25/1 26/26/1 28/27/1 32/28/1
f 33/29/3 29/30/3 30/31/3 34/32/3
f 33/29/5 34/30/5 35/31/5 36/32/5
f 36/29/2 31/30/2 29/31/2 33/32/2
f 34/29/1 30/30/1 32/31/1 35/32/1
f 6/33/6 5/34/6 37/35/6 38/36/6
f 39/33/2 37/34/2 5/35/2 7/36/2
f 8/33/1 6/34/1 38/35/1 40/36/1
f 41/37/2 39/38/2 7/39/2 11/40/2
f 12/37/1 8/38/1 40/39/1 42/40/1
f 43/41/2 41/42/2 11/43/2 15/44/2
f 16/41/1 12/42/1 42/43/1 44/44/1
f 45/45/2 43/46/2 15/47/2 19/48/2
f 20/45/1 16/46/1 44/47/1 46/48/1
f 47/49/2 45/50/2 19/51/2 23/52/2
f 24/49/1 20/50/1 46/51/1 48/52/1
f 49/53/2 47/54/2 23/55/2 27/56/2
f 28/53/1 24/54/1 48/55/1 50/56/1
f 51/17/2 49/18/2 27/19/2 31/20/2
f 32/17/1 28/18/1 50/19/1 52/20/1
f 36/21/5 35/22/5 53/23/5 54/24/5
f 54/21/2 51/22/2 31/23/2 36/24/2
f 35/21/1 32/22/1 52/23/1 53/24/1
f 38/57/6 37/58/6 55/59/6 56/60/6
f 57/57/2 55/58/2 37/59/2 39/60/2
f 40/57/1 38/58/1 56/59/1 58/60/1
f 59/5/2 57/6/2 39/7/2 41/8/2
f 42/5/1 40/6/1 58/7/1 60/8/1
f 61/61/2 59/62/2 41/63/2 43/64/2
f 44/61/1 42/62/1 60/63/1 62/64/1
f 63/65/2 61/66/2 43/67/2 45/68/2
f 46/65/1 44/66/1 62/67/1 64/68/1
f 65/69/2 63/70/2 45/71/2 47/72/2
f 48/69/1 46/70/1 64/71/1 66/72/1
f 67/17/2 65/18/2 47/19/2 49/20/2
f 50/17/1 48/18/1 66/19/1 68/20/1
f 69/73/2 67/74/2 49/75/2 51/76/2
f 52/73/1 50/74/1 68/75/1 70/76/1
f 54/17/5 53/18/5 71/19/5 72/20/5
f 72/17/2 69/18/2 51/19/2 54/20/2
f 53/17/1 52/18/1 70/19/1 71/20/1
f 56/77/6 55/78/6 73/79/6 74/80/6
f 75/77/2 73/78/2 55/79/2 57/80/2
f 58/77/1 56/78/1 74/79/1 76/80/1
f 77/81/2 75/82/2 57/83/2 59/84/2
f 60/81/1 58/82/1 76/83/1 78/84/1
f 79/41/2 77/42/2 59/43/2 61/44/2
f 62/41/1 60/42/1 78/43/1 80/44/1
f 81/85/2 79/86/2 61/87/2 63/88/2
f 64/85/1 62/86/1 80/87/1 82/88/1
f 83/89/2 81/90/2 63/91/2 65/92/2
f 66/89/1 64/90/1 82/91/1 84/92/1
f 85/21/2 83/22/2 65/23/2 67/24/2
f 68/21/1 66/22/1 84/23/1 86/24/1
f 87/89/2 85/90/2 67/91/2 69/92/2
f 70/89/1 68/90/1 86/91/1 88/92/1
f 72/93/5 71/94/5 89/95/5 90/96/5
f 90/93/2 87/94/2 69/95/2 72/96/2
f 71/93/1 70/94/1 88/95/1 89/96/1
f 74/97/6 73/98/6 91/99/6 92/100/6
f 93/97/2 91/98/2 73/99/2 75/100/2
f 76/97/1 74/98/1 92/99/1 94/100/1
f 95/101/2 93/102/2 75/103/2 77/104/2
f 78/101/1 76/102/1 94/103/1 96/104/1
f 97/9/2 95/10/2 77/11/2 79/12/2
f 80/9/1 78/10/1 96/11/1 98/12/1
f 99/93/2 97/94/2 79/95/2 81/96/2
f 82/93/1 80/94/1 98/95/1 100/96/1
f 101/89/2 99/90/2 81/91/2 83/92/2
f 84/89/1 82/90/1 100/91/1 102/92/1
f 103/93/2 101/94/2 83/95/2 85/96/2
f 86/93/1 84/94/1 102/95/1 104/96/1
f 105/89/2 103/90/2 85/91/2 87/92/2
f 88/89/1 86/90/1 104/91/1 106/92/1
f 90/93/5 89/94/5 107/95/5 108/96/5
f 108/93/2 105/94/2 87/95/2 90/96/2
f 89/93/1 88/94/1 106/95/1 107/96/1
f 92/105/6 91/106/6 109/107/6 110/108/6
f 111/105/2 109/106/2 91/107/2 93/108/2
f 94/105/1 92/106/1 110/107/1 112/108/1
f 113/109/2 111/110/2 93/111/2 95/112/2
f 96/109/1 94/110/1 112/111/1 114/112/1
f 115/113/2 113/114/2 95/115/2 97/116/2
f 98/113/1 96/114/1 114/115/1 116/116/1
f 117/45/2 115/46/2 97/47/2 99/48/2
f 100/45/1 98/46/1 116/47/1 118/48/1
f 119/93/2 117/94/2 99/95/2 101/96/2
f 102/93/1 100/94/1 118/95/1 120/96/1
f 121/117/2 119/118/2 101/119/2 103/120/2
f 104/117/1 102/118/1 120/119/1 122/120/1
f 123/93/2 121/94/2 103/95/2 105/96/2
f 106/93/1 104/94/1 122/95/1 124/96/1
f 108/117/5 107/118/5 125/119/5 126/120/5
f 126/117/2 123/118/2 105/119/2 108/120/2
f 107/117/1 106/118/1 124/119/1 125/120/1
f 110/33/6 109/34/6 127/35/6 128/36/6
f 129/33/2 127/34/2 109/35/2 111/36/2
f 112/33/1 110/34/1 128/35/1 130/36/1
f 131/101/2 129/102/2 111/103/2 113/104/2
f 114/101/1 112/102/1 130/103/1 132/104/1
f 133/121/2 131/122/2 113/123/2 115/124/2
f 116/121/1 114/122/1 132/123/1 134/124/1
f 135/93/2 133/94/2 115/95/2 117/96/2
f 118/93/1 116/94/1 134/95/1 136/96/1
f 137/89/2 135/90/2 117/91/2 119/92/2
f 120/89/1 118/90/1 136/91/1 138/92/1
f 139/93/2 137/94/2 119/95/2 121/96/2
f 122/93/1 120/94/1 138/95/1 140/96/1
f 141/125/2 139/126/2 121/127/2 123/128/2
f 124/125/1 122/126/1 140/127/1 142/128/1
f 126/125/5 125/126/5 143/127/5 144/128/5
f 144/125/2 141/126/2 123/127/2 126/128/2
f 125/125/1 124/126/1 142/127/1 143/128/1
f 145/129/4 146/130/4 147/131/4 148/132/4
f 128/129/6 127/130/6 147/131/6 146/132/6
f 148/129/2 147/130/2 127/131/2 129/132/2
f 130/129/1 128/130/1 146/131/1 145/132/1
f 149/37/4 145/38/4 148/39/4 150/40/4
f 150/37/2 148/38/2 129/39/2 131/40/2
f 132/37/1 130/38/1 145/39/1 149/40/1
f 151/133/4 149/134/4 150/135/4 152/136/4
f 152/133/2 150/134/2 131/135/2 133/136/2
f 134/133/1 132/134/1 149/135/1 151/136/1
f 153/117/4 151/118/4 152/119/4 154/120/4
f 154/117/2 152/118/2 133/119/2 135/120/2
f 136/117/1 134/118/1 151/119/1 153/120/1
f 155/93/4 153/94/4 154/95/4 156/96/4
f 156/93/2 154/94/2 135/95/2 137/96/2
f 138/93/1 136/94/1 153/95/1 155/96/1
f 157/117/4 155/118/4 156/119/4 158/120/4
f 158/117/2 156/118/2 137/119/2 139/120/2
f 140/117/1 138/118/1 155/119/1 157/120/1
f 159/117/4 157/118/4 158/119/4 160/120/4
f 160/117/2 158/118/2 139/119/2 141/120/2
f 142/117/1 140/118/1 157/119/1 159/120/1
f 161/125/4 159/126/4 160/127/4 162/128/4
f 144/125/5 143/126/5 161/127/5 162/128/5
f 162/125/2 160/126/2 141/127/2 144/128/2
f 143/125/1 142/126/1 159/127/1 161/128/1
