# This file was created with Minddesk Qubicle 3.0
# Get Qubicle at www.getqubicle.com

mtllib 101_Piece10_4_0.mtl

vn 0.0 0.0 1.0
vn 0.0 0.0 -1.0
vn -1.0 0.0 0.0
vn 1.0 0.0 0.0
vn 0.0 1.0 0.0
vn 0.0 -1.0 0.0

v 16.00000 33.00000 0.00000
v 16.00000 32.00000 0.00000
v 16.00000 32.00000 1.00000
v 16.00000 33.00000 1.00000
v 17.00000 32.00000 0.00000
v 17.00000 32.00000 1.00000
v 17.00000 33.00000 0.00000
v 17.00000 33.00000 1.00000
v 16.00000 34.00000 0.00000
v 16.00000 34.00000 1.00000
v 17.00000 34.00000 0.00000
v 17.00000 34.00000 1.00000
v 16.00000 35.00000 0.00000
v 16.00000 35.00000 1.00000
v 17.00000 35.00000 0.00000
v 17.00000 35.00000 1.00000
v 16.00000 36.00000 0.00000
v 16.00000 36.00000 1.00000
v 17.00000 36.00000 0.00000
v 17.00000 36.00000 1.00000
v 16.00000 37.00000 0.00000
v 16.00000 37.00000 1.00000
v 17.00000 37.00000 0.00000
v 17.00000 37.00000 1.00000
v 16.00000 38.00000 0.00000
v 16.00000 38.00000 1.00000
v 17.00000 38.00000 0.00000
v 17.00000 38.00000 1.00000
v 16.00000 39.00000 0.00000
v 16.00000 39.00000 1.00000
v 17.00000 39.00000 0.00000
v 17.00000 39.00000 1.00000
v 16.00000 40.00000 0.00000
v 16.00000 40.00000 1.00000
v 17.00000 40.00000 1.00000
v 17.00000 40.00000 0.00000
v 18.00000 32.00000 0.00000
v 18.00000 32.00000 1.00000
v 18.00000 33.00000 0.00000
v 18.00000 33.00000 1.00000
v 18.00000 34.00000 0.00000
v 18.00000 34.00000 1.00000
v 18.00000 35.00000 0.00000
v 18.00000 35.00000 1.00000
v 18.00000 36.00000 0.00000
v 18.00000 36.00000 1.00000
v 18.00000 37.00000 0.00000
v 18.00000 37.00000 1.00000
v 18.00000 38.00000 0.00000
v 18.00000 38.00000 1.00000
v 18.00000 39.00000 0.00000
v 18.00000 39.00000 1.00000
v 18.00000 40.00000 1.00000
v 18.00000 40.00000 0.00000
v 19.00000 32.00000 0.00000
v 19.00000 32.00000 1.00000
v 19.00000 33.00000 0.00000
v 19.00000 33.00000 1.00000
v 19.00000 34.00000 0.00000
v 19.00000 34.00000 1.00000
v 19.00000 35.00000 0.00000
v 19.00000 35.00000 1.00000
v 19.00000 36.00000 0.00000
v 19.00000 36.00000 1.00000
v 19.00000 37.00000 0.00000
v 19.00000 37.00000 1.00000
v 19.00000 38.00000 0.00000
v 19.00000 38.00000 1.00000
v 19.00000 39.00000 0.00000
v 19.00000 39.00000 1.00000
v 19.00000 40.00000 1.00000
v 19.00000 40.00000 0.00000
v 20.00000 32.00000 0.00000
v 20.00000 32.00000 1.00000
v 20.00000 33.00000 0.00000
v 20.00000 33.00000 1.00000
v 20.00000 34.00000 0.00000
v 20.00000 34.00000 1.00000
v 20.00000 35.00000 0.00000
v 20.00000 35.00000 1.00000
v 20.00000 36.00000 0.00000
v 20.00000 36.00000 1.00000
v 20.00000 37.00000 0.00000
v 20.00000 37.00000 1.00000
v 20.00000 38.00000 0.00000
v 20.00000 38.00000 1.00000
v 20.00000 39.00000 0.00000
v 20.00000 39.00000 1.00000
v 20.00000 40.00000 1.00000
v 20.00000 40.00000 0.00000
v 21.00000 32.00000 0.00000
v 21.00000 32.00000 1.00000
v 21.00000 33.00000 0.00000
v 21.00000 33.00000 1.00000
v 21.00000 34.00000 0.00000
v 21.00000 34.00000 1.00000
v 21.00000 35.00000 0.00000
v 21.00000 35.00000 1.00000
v 21.00000 36.00000 0.00000
v 21.00000 36.00000 1.00000
v 21.00000 37.00000 0.00000
v 21.00000 37.00000 1.00000
v 21.00000 38.00000 0.00000
v 21.00000 38.00000 1.00000
v 21.00000 39.00000 0.00000
v 21.00000 39.00000 1.00000
v 21.00000 40.00000 1.00000
v 21.00000 40.00000 0.00000
v 22.00000 32.00000 0.00000
v 22.00000 32.00000 1.00000
v 22.00000 33.00000 0.00000
v 22.00000 33.00000 1.00000
v 22.00000 34.00000 0.00000
v 22.00000 34.00000 1.00000
v 22.00000 35.00000 0.00000
v 22.00000 35.00000 1.00000
v 22.00000 36.00000 0.00000
v 22.00000 36.00000 1.00000
v 22.00000 37.00000 0.00000
v 22.00000 37.00000 1.00000
v 22.00000 38.00000 0.00000
v 22.00000 38.00000 1.00000
v 22.00000 39.00000 0.00000
v 22.00000 39.00000 1.00000
v 22.00000 40.00000 1.00000
v 22.00000 40.00000 0.00000
v 23.00000 32.00000 0.00000
v 23.00000 32.00000 1.00000
v 23.00000 33.00000 0.00000
v 23.00000 33.00000 1.00000
v 23.00000 34.00000 0.00000
v 23.00000 34.00000 1.00000
v 23.00000 35.00000 0.00000
v 23.00000 35.00000 1.00000
v 23.00000 36.00000 0.00000
v 23.00000 36.00000 1.00000
v 23.00000 37.00000 0.00000
v 23.00000 37.00000 1.00000
v 23.00000 38.00000 0.00000
v 23.00000 38.00000 1.00000
v 23.00000 39.00000 0.00000
v 23.00000 39.00000 1.00000
v 23.00000 40.00000 1.00000
v 23.00000 40.00000 0.00000
v 24.00000 33.00000 1.00000
v 24.00000 32.00000 1.00000
v 24.00000 32.00000 0.00000
v 24.00000 33.00000 0.00000
v 24.00000 34.00000 1.00000
v 24.00000 34.00000 0.00000
v 24.00000 35.00000 1.00000
v 24.00000 35.00000 0.00000
v 24.00000 36.00000 1.00000
v 24.00000 36.00000 0.00000
v 24.00000 37.00000 1.00000
v 24.00000 37.00000 0.00000
v 24.00000 38.00000 1.00000
v 24.00000 38.00000 0.00000
v 24.00000 39.00000 1.00000
v 24.00000 39.00000 0.00000
v 24.00000 40.00000 1.00000
v 24.00000 40.00000 0.00000

vt 0.41406 0.01563
vt 0.41406 0.00781
vt 0.41797 0.00781
vt 0.41797 0.01563
vt 0.39063 0.01563
vt 0.39063 0.00781
vt 0.39453 0.00781
vt 0.39453 0.01563
vt 0.40234 0.01563
vt 0.40234 0.00781
vt 0.40625 0.00781
vt 0.40625 0.01563
vt 0.37891 0.01563
vt 0.37891 0.00781
vt 0.38281 0.00781
vt 0.38281 0.01563
vt 0.32031 0.01563
vt 0.32031 0.00781
vt 0.32422 0.00781
vt 0.32422 0.01563
vt 0.36719 0.01563
vt 0.36719 0.00781
vt 0.37109 0.00781
vt 0.37109 0.01563
vt 0.34375 0.32031
vt 0.34375 0.31250
vt 0.34766 0.31250
vt 0.34766 0.32031
vt 0.35547 0.01563
vt 0.35547 0.00781
vt 0.35938 0.00781
vt 0.35938 0.01563
vt 0.33203 0.01563
vt 0.33203 0.00781
vt 0.33594 0.00781
vt 0.33594 0.01563

g 101_Piece10_4_0
usemtl 101_Material
f 1/1/3 2/2/3 3/3/3 4/4/3
f 3/1/6 2/2/6 5/3/6 6/4/6
f 7/1/2 5/2/2 2/3/2 1/4/2
f 4/1/1 3/2/1 6/3/1 8/4/1
f 9/1/3 1/2/3 4/3/3 10/4/3
f 11/1/2 7/2/2 1/3/2 9/4/2
f 10/1/1 4/2/1 8/3/1 12/4/1
f 13/5/3 9/6/3 10/7/3 14/8/3
f 15/5/2 11/6/2 9/7/2 13/8/2
f 14/5/1 10/6/1 12/7/1 16/8/1
f 17/9/3 13/10/3 14/11/3 18/12/3
f 19/9/2 15/10/2 13/11/2 17/12/2
f 18/9/1 14/10/1 16/11/1 20/12/1
f 21/13/3 17/14/3 18/15/3 22/16/3
f 23/13/2 19/14/2 17/15/2 21/16/2
f 22/13/1 18/14/1 20/15/1 24/16/1
f 25/17/3 21/18/3 22/19/3 26/20/3
f 27/17/2 23/18/2 21/19/2 25/20/2
f 26/17/1 22/18/1 24/19/1 28/20/1
f 29/21/3 25/22/3 26/23/3 30/24/3
f 31/21/2 27/22/2 25/23/2 29/24/2
f 30/21/1 26/22/1 28/23/1 32/24/1
f 33/17/3 29/18/3 30/19/3 34/20/3
f 33/17/5 34/18/5 35/19/5 36/20/5
f 36/17/2 31/18/2 29/19/2 33/20/2
f 34/17/1 30/18/1 32/19/1 35/20/1
f 6/1/6 5/2/6 37/3/6 38/4/6
f 39/1/2 37/2/2 5/3/2 7/4/2
f 8/1/1 6/2/1 38/3/1 40/4/1
f 41/1/2 39/2/2 7/3/2 11/4/2
f 12/1/1 8/2/1 40/3/1 42/4/1
f 43/9/2 41/10/2 11/11/2 15/12/2
f 16/9/1 12/10/1 42/11/1 44/12/1
f 45/5/2 43/6/2 15/7/2 19/8/2
f 20/5/1 16/6/1 44/7/1 46/8/1
f 47/21/2 45/22/2 19/23/2 23/24/2
f 24/21/1 20/22/1 46/23/1 48/24/1
f 49/25/2 47/26/2 23/27/2 27/28/2
f 28/25/1 24/26/1 48/27/1 50/28/1
f 51/17/2 49/18/2 27/19/2 31/20/2
f 32/17/1 28/18/1 50/19/1 52/20/1
f 36/29/5 35/30/5 53/31/5 54/32/5
f 54/29/2 51/30/2 31/31/2 36/32/2
f 35/29/1 32/30/1 52/31/1 53/32/1
f 38/1/6 37/2/6 55/3/6 56/4/6
f 57/1/2 55/2/2 37/3/2 39/4/2
f 40/1/1 38/2/1 56/3/1 58/4/1
f 59/9/2 57/10/2 39/11/2 41/12/2
f 42/9/1 40/10/1 58/11/1 60/12/1
f 61/1/2 59/2/2 41/3/2 43/4/2
f 44/1/1 42/2/1 60/3/1 62/4/1
f 63/9/2 61/10/2 43/11/2 45/12/2
f 46/9/1 44/10/1 62/11/1 64/12/1
f 65/5/2 63/6/2 45/7/2 47/8/2
f 48/5/1 46/6/1 64/7/1 66/8/1
f 67/13/2 65/14/2 47/15/2 49/16/2
f 50/13/1 48/14/1 66/15/1 68/16/1
f 69/33/2 67/34/2 49/35/2 51/36/2
f 52/33/1 50/34/1 68/35/1 70/36/1
f 54/21/5 53/22/5 71/23/5 72/24/5
f 72/21/2 69/22/2 51/23/2 54/24/2
f 53/21/1 52/22/1 70/23/1 71/24/1
f 56/1/6 55/2/6 73/3/6 74/4/6
f 75/1/2 73/2/2 55/3/2 57/4/2
f 58/1/1 56/2/1 74/3/1 76/4/1
f 77/1/2 75/2/2 57/3/2 59/4/2
f 60/1/1 58/2/1 76/3/1 78/4/1
f 79/9/2 77/10/2 59/11/2 61/12/2
f 62/9/1 60/10/1 78/11/1 80/12/1
f 81/5/2 79/6/2 61/7/2 63/8/2
f 64/5/1 62/6/1 80/7/1 82/8/1
f 83/9/2 81/10/2 63/11/2 65/12/2
f 66/9/1 64/10/1 82/11/1 84/12/1
f 85/13/2 83/14/2 65/15/2 67/16/2
f 68/13/1 66/14/1 84/15/1 86/16/1
f 87/5/2 85/6/2 67/7/2 69/8/2
f 70/5/1 68/6/1 86/7/1 88/8/1
f 72/13/5 71/14/5 89/15/5 90/16/5
f 90/13/2 87/14/2 69/15/2 72/16/2
f 71/13/1 70/14/1 88/15/1 89/16/1
f 74/1/6 73/2/6 91/3/6 92/4/6
f 93/1/2 91/2/2 73/3/2 75/4/2
f 76/1/1 74/2/1 92/3/1 94/4/1
f 95/1/2 93/2/2 75/3/2 77/4/2
f 78/1/1 76/2/1 94/3/1 96/4/1
f 97/1/2 95/2/2 77/3/2 79/4/2
f 80/1/1 78/2/1 96/3/1 98/4/1
f 99/9/2 97/10/2 79/11/2 81/12/2
f 82/9/1 80/10/1 98/11/1 100/12/1
f 101/5/2 99/6/2 81/7/2 83/8/2
f 84/5/1 82/6/1 100/7/1 102/8/1
f 103/9/2 101/10/2 83/11/2 85/12/2
f 86/9/1 84/10/1 102/11/1 104/12/1
f 105/13/2 103/14/2 85/15/2 87/16/2
f 88/13/1 86/14/1 104/15/1 106/16/1
f 90/5/5 89/6/5 107/7/5 108/8/5
f 108/5/2 105/6/2 87/7/2 90/8/2
f 89/5/1 88/6/1 106/7/1 107/8/1
f 92/1/6 91/2/6 109/3/6 110/4/6
f 111/1/2 109/2/2 91/3/2 93/4/2
f 94/1/1 92/2/1 110/3/1 112/4/1
f 113/1/2 111/2/2 93/3/2 95/4/2
f 96/1/1 94/2/1 112/3/1 114/4/1
f 115/9/2 113/10/2 95/11/2 97/12/2
f 98/9/1 96/10/1 114/11/1 116/12/1
f 117/1/2 115/2/2 97/3/2 99/4/2
f 100/1/1 98/2/1 116/3/1 118/4/1
f 119/9/2 117/10/2 99/11/2 101/12/2
f 102/9/1 100/10/1 118/11/1 120/12/1
f 121/9/2 119/10/2 101/11/2 103/12/2
f 104/9/1 102/10/1 120/11/1 122/12/1
f 123/5/2 121/6/2 103/7/2 105/8/2
f 106/5/1 104/6/1 122/7/1 124/8/1
f 108/9/5 107/10/5 125/11/5 126/12/5
f 126/9/2 123/10/2 105/11/2 108/12/2
f 107/9/1 106/10/1 124/11/1 125/12/1
f 110/1/6 109/2/6 127/3/6 128/4/6
f 129/1/2 127/2/2 109/3/2 111/4/2
f 112/1/1 110/2/1 128/3/1 130/4/1
f 131/1/2 129/2/2 111/3/2 113/4/2
f 114/1/1 112/2/1 130/3/1 132/4/1
f 133/1/2 131/2/2 113/3/2 115/4/2
f 116/1/1 114/2/1 132/3/1 134/4/1
f 135/1/2 133/2/2 115/3/2 117/4/2
f 118/1/1 116/2/1 134/3/1 136/4/1
f 137/9/2 135/10/2 117/11/2 119/12/2
f 120/9/1 118/10/1 136/11/1 138/12/1
f 139/1/2 137/2/2 119/3/2 121/4/2
f 122/1/1 120/2/1 138/3/1 140/4/1
f 141/9/2 139/10/2 121/11/2 123/12/2
f 124/9/1 122/10/1 140/11/1 142/12/1
f 126/9/5 125/10/5 143/11/5 144/12/5
f 144/9/2 141/10/2 123/11/2 126/12/2
f 125/9/1 124/10/1 142/11/1 143/12/1
f 145/1/4 146/2/4 147/3/4 148/4/4
f 128/1/6 127/2/6 147/3/6 146/4/6
f 148/1/2 147/2/2 127/3/2 129/4/2
f 130/1/1 128/2/1 146/3/1 145/4/1
f 149/1/4 145/2/4 148/3/4 150/4/4
f 150/1/2 148/2/2 129/3/2 131/4/2
f 132/1/1 130/2/1 145/3/1 149/4/1
f 151/1/4 149/2/4 150/3/4 152/4/4
f 152/1/2 150/2/2 131/3/2 133/4/2
f 134/1/1 132/2/1 149/3/1 151/4/1
f 153/1/4 151/2/4 152/3/4 154/4/4
f 154/1/2 152/2/2 133/3/2 135/4/2
f 136/1/1 134/2/1 151/3/1 153/4/1
f 155/1/4 153/2/4 154/3/4 156/4/4
f 156/1/2 154/2/2 135/3/2 137/4/2
f 138/1/1 136/2/1 153/3/1 155/4/1
f 157/1/4 155/2/4 156/3/4 158/4/4
f 158/1/2 156/2/2 137/3/2 139/4/2
f 140/1/1 138/2/1 155/3/1 157/4/1
f 159/1/4 157/2/4 158/3/4 160/4/4
f 160/1/2 158/2/2 139/3/2 141/4/2
f 142/1/1 140/2/1 157/3/1 159/4/1
f 161/1/4 159/2/4 160/3/4 162/4/4
f 144/1/5 143/2/5 161/3/5 162/4/5
f 162/1/2 160/2/2 141/3/2 144/4/2
f 143/1/1 142/2/1 159/3/1 161/4/1
