# This file was created with Minddesk Qubicle 3.0
# Get Qubicle at www.getqubicle.com

mtllib 101_Piece8_20_0.mtl

vn 0.0 0.0 1.0
vn 0.0 0.0 -1.0
vn -1.0 0.0 0.0
vn 1.0 0.0 0.0
vn 0.0 1.0 0.0
vn 0.0 -1.0 0.0

v 0.00000 161.00000 0.00000
v 0.00000 160.00000 0.00000
v 0.00000 160.00000 1.00000
v 0.00000 161.00000 1.00000
v 1.00000 160.00000 0.00000
v 1.00000 160.00000 1.00000
v 1.00000 161.00000 0.00000
v 1.00000 161.00000 1.00000
v 0.00000 162.00000 0.00000
v 0.00000 162.00000 1.00000
v 1.00000 162.00000 0.00000
v 1.00000 162.00000 1.00000
v 0.00000 163.00000 0.00000
v 0.00000 163.00000 1.00000
v 1.00000 163.00000 0.00000
v 1.00000 163.00000 1.00000
v 0.00000 164.00000 0.00000
v 0.00000 164.00000 1.00000
v 1.00000 164.00000 0.00000
v 1.00000 164.00000 1.00000
v 0.00000 165.00000 0.00000
v 0.00000 165.00000 1.00000
v 1.00000 165.00000 0.00000
v 1.00000 165.00000 1.00000
v 0.00000 166.00000 0.00000
v 0.00000 166.00000 1.00000
v 1.00000 166.00000 0.00000
v 1.00000 166.00000 1.00000
v 0.00000 167.00000 0.00000
v 0.00000 167.00000 1.00000
v 1.00000 167.00000 0.00000
v 1.00000 167.00000 1.00000
v 0.00000 168.00000 0.00000
v 0.00000 168.00000 1.00000
v 1.00000 168.00000 1.00000
v 1.00000 168.00000 0.00000
v 2.00000 160.00000 0.00000
v 2.00000 160.00000 1.00000
v 2.00000 161.00000 0.00000
v 2.00000 161.00000 1.00000
v 2.00000 162.00000 0.00000
v 2.00000 162.00000 1.00000
v 2.00000 163.00000 0.00000
v 2.00000 163.00000 1.00000
v 2.00000 164.00000 0.00000
v 2.00000 164.00000 1.00000
v 2.00000 165.00000 0.00000
v 2.00000 165.00000 1.00000
v 2.00000 166.00000 0.00000
v 2.00000 166.00000 1.00000
v 2.00000 167.00000 0.00000
v 2.00000 167.00000 1.00000
v 2.00000 168.00000 1.00000
v 2.00000 168.00000 0.00000
v 3.00000 160.00000 0.00000
v 3.00000 160.00000 1.00000
v 3.00000 161.00000 0.00000
v 3.00000 161.00000 1.00000
v 3.00000 162.00000 0.00000
v 3.00000 162.00000 1.00000
v 3.00000 163.00000 0.00000
v 3.00000 163.00000 1.00000
v 3.00000 164.00000 0.00000
v 3.00000 164.00000 1.00000
v 3.00000 165.00000 0.00000
v 3.00000 165.00000 1.00000
v 3.00000 166.00000 0.00000
v 3.00000 166.00000 1.00000
v 3.00000 167.00000 0.00000
v 3.00000 167.00000 1.00000
v 3.00000 168.00000 1.00000
v 3.00000 168.00000 0.00000
v 4.00000 160.00000 0.00000
v 4.00000 160.00000 1.00000
v 4.00000 161.00000 0.00000
v 4.00000 161.00000 1.00000
v 4.00000 162.00000 0.00000
v 4.00000 162.00000 1.00000
v 4.00000 163.00000 0.00000
v 4.00000 163.00000 1.00000
v 4.00000 164.00000 0.00000
v 4.00000 164.00000 1.00000
v 4.00000 165.00000 0.00000
v 4.00000 165.00000 1.00000
v 4.00000 166.00000 0.00000
v 4.00000 166.00000 1.00000
v 4.00000 167.00000 0.00000
v 4.00000 167.00000 1.00000
v 4.00000 168.00000 1.00000
v 4.00000 168.00000 0.00000
v 5.00000 160.00000 0.00000
v 5.00000 160.00000 1.00000
v 5.00000 161.00000 0.00000
v 5.00000 161.00000 1.00000
v 5.00000 162.00000 0.00000
v 5.00000 162.00000 1.00000
v 5.00000 163.00000 0.00000
v 5.00000 163.00000 1.00000
v 5.00000 164.00000 0.00000
v 5.00000 164.00000 1.00000
v 5.00000 165.00000 0.00000
v 5.00000 165.00000 1.00000
v 5.00000 166.00000 0.00000
v 5.00000 166.00000 1.00000
v 5.00000 167.00000 0.00000
v 5.00000 167.00000 1.00000
v 5.00000 168.00000 1.00000
v 5.00000 168.00000 0.00000
v 6.00000 160.00000 0.00000
v 6.00000 160.00000 1.00000
v 6.00000 161.00000 0.00000
v 6.00000 161.00000 1.00000
v 6.00000 162.00000 0.00000
v 6.00000 162.00000 1.00000
v 6.00000 163.00000 0.00000
v 6.00000 163.00000 1.00000
v 6.00000 164.00000 0.00000
v 6.00000 164.00000 1.00000
v 6.00000 165.00000 0.00000
v 6.00000 165.00000 1.00000
v 6.00000 166.00000 0.00000
v 6.00000 166.00000 1.00000
v 6.00000 167.00000 0.00000
v 6.00000 167.00000 1.00000
v 6.00000 168.00000 1.00000
v 6.00000 168.00000 0.00000
v 7.00000 160.00000 0.00000
v 7.00000 160.00000 1.00000
v 7.00000 161.00000 0.00000
v 7.00000 161.00000 1.00000
v 7.00000 162.00000 0.00000
v 7.00000 162.00000 1.00000
v 7.00000 163.00000 0.00000
v 7.00000 163.00000 1.00000
v 7.00000 164.00000 0.00000
v 7.00000 164.00000 1.00000
v 7.00000 165.00000 0.00000
v 7.00000 165.00000 1.00000
v 7.00000 166.00000 0.00000
v 7.00000 166.00000 1.00000
v 7.00000 167.00000 0.00000
v 7.00000 167.00000 1.00000
v 7.00000 168.00000 1.00000
v 7.00000 168.00000 0.00000
v 8.00000 161.00000 1.00000
v 8.00000 160.00000 1.00000
v 8.00000 160.00000 0.00000
v 8.00000 161.00000 0.00000
v 8.00000 162.00000 1.00000
v 8.00000 162.00000 0.00000
v 8.00000 163.00000 1.00000
v 8.00000 163.00000 0.00000
v 8.00000 164.00000 1.00000
v 8.00000 164.00000 0.00000
v 8.00000 165.00000 1.00000
v 8.00000 165.00000 0.00000
v 8.00000 166.00000 1.00000
v 8.00000 166.00000 0.00000
v 8.00000 167.00000 1.00000
v 8.00000 167.00000 0.00000
v 8.00000 168.00000 1.00000
v 8.00000 168.00000 0.00000

vt 0.23828 0.34375
vt 0.23828 0.33594
vt 0.24219 0.33594
vt 0.24219 0.34375
vt 0.20313 0.32031
vt 0.20313 0.31250
vt 0.20703 0.31250
vt 0.20703 0.32031
vt 0.25000 0.34375
vt 0.25000 0.33594
vt 0.25391 0.33594
vt 0.25391 0.34375
vt 0.26172 0.34375
vt 0.26172 0.33594
vt 0.26563 0.33594
vt 0.26563 0.34375

g 101_Piece8_20_0
usemtl 101_Material
f 1/1/3 2/2/3 3/3/3 4/4/3
f 3/1/6 2/2/6 5/3/6 6/4/6
f 7/1/2 5/2/2 2/3/2 1/4/2
f 4/1/1 3/2/1 6/3/1 8/4/1
f 9/5/3 1/6/3 4/7/3 10/8/3
f 11/5/2 7/6/2 1/7/2 9/8/2
f 10/5/1 4/6/1 8/7/1 12/8/1
f 13/9/3 9/10/3 10/11/3 14/12/3
f 15/9/2 11/10/2 9/11/2 13/12/2
f 14/9/1 10/10/1 12/11/1 16/12/1
f 17/1/3 13/2/3 14/3/3 18/4/3
f 19/1/2 15/2/2 13/3/2 17/4/2
f 18/1/1 14/2/1 16/3/1 20/4/1
f 21/5/3 17/6/3 18/7/3 22/8/3
f 23/5/2 19/6/2 17/7/2 21/8/2
f 22/5/1 18/6/1 20/7/1 24/8/1
f 25/5/3 21/6/3 22/7/3 26/8/3
f 27/5/2 23/6/2 21/7/2 25/8/2
f 26/5/1 22/6/1 24/7/1 28/8/1
f 29/13/3 25/14/3 26/15/3 30/16/3
f 31/13/2 27/14/2 25/15/2 29/16/2
f 30/13/1 26/14/1 28/15/1 32/16/1
f 33/5/3 29/6/3 30/7/3 34/8/3
f 33/5/5 34/6/5 35/7/5 36/8/5
f 36/5/2 31/6/2 29/7/2 33/8/2
f 34/5/1 30/6/1 32/7/1 35/8/1
f 6/5/6 5/6/6 37/7/6 38/8/6
f 39/5/2 37/6/2 5/7/2 7/8/2
f 8/5/1 6/6/1 38/7/1 40/8/1
f 41/5/2 39/6/2 7/7/2 11/8/2
f 12/5/1 8/6/1 40/7/1 42/8/1
f 43/9/2 41/10/2 11/11/2 15/12/2
f 16/9/1 12/10/1 42/11/1 44/12/1
f 45/1/2 43/2/2 15/3/2 19/4/2
f 20/1/1 16/2/1 44/3/1 46/4/1
f 47/9/2 45/10/2 19/11/2 23/12/2
f 24/9/1 20/10/1 46/11/1 48/12/1
f 49/9/2 47/10/2 23/11/2 27/12/2
f 28/9/1 24/10/1 48/11/1 50/12/1
f 51/13/2 49/14/2 27/15/2 31/16/2
f 32/13/1 28/14/1 50/15/1 52/16/1
f 36/5/5 35/6/5 53/7/5 54/8/5
f 54/5/2 51/6/2 31/7/2 36/8/2
f 35/5/1 32/6/1 52/7/1 53/8/1
f 38/13/6 37/14/6 55/15/6 56/16/6
f 57/13/2 55/14/2 37/15/2 39/16/2
f 40/13/1 38/14/1 56/15/1 58/16/1
f 59/5/2 57/6/2 39/7/2 41/8/2
f 42/5/1 40/6/1 58/7/1 60/8/1
f 61/9/2 59/10/2 41/11/2 43/12/2
f 44/9/1 42/10/1 60/11/1 62/12/1
f 63/9/2 61/10/2 43/11/2 45/12/2
f 46/9/1 44/10/1 62/11/1 64/12/1
f 65/1/2 63/2/2 45/3/2 47/4/2
f 48/1/1 46/2/1 64/3/1 66/4/1
f 67/9/2 65/10/2 47/11/2 49/12/2
f 50/9/1 48/10/1 66/11/1 68/12/1
f 69/13/2 67/14/2 49/15/2 51/16/2
f 52/13/1 50/14/1 68/15/1 70/16/1
f 54/9/5 53/10/5 71/11/5 72/12/5
f 72/9/2 69/10/2 51/11/2 54/12/2
f 53/9/1 52/10/1 70/11/1 71/12/1
f 56/13/6 55/14/6 73/15/6 74/16/6
f 75/13/2 73/14/2 55/15/2 57/16/2
f 58/13/1 56/14/1 74/15/1 76/16/1
f 77/9/2 75/10/2 57/11/2 59/12/2
f 60/9/1 58/10/1 76/11/1 78/12/1
f 79/5/2 77/6/2 59/7/2 61/8/2
f 62/5/1 60/6/1 78/7/1 80/8/1
f 81/9/2 79/10/2 61/11/2 63/12/2
f 64/9/1 62/10/1 80/11/1 82/12/1
f 83/1/2 81/2/2 63/3/2 65/4/2
f 66/1/1 64/2/1 82/3/1 84/4/1
f 85/13/2 83/14/2 65/15/2 67/16/2
f 68/13/1 66/14/1 84/15/1 86/16/1
f 87/9/2 85/10/2 67/11/2 69/12/2
f 70/9/1 68/10/1 86/11/1 88/12/1
f 72/9/5 71/10/5 89/11/5 90/12/5
f 90/9/2 87/10/2 69/11/2 72/12/2
f 71/9/1 70/10/1 88/11/1 89/12/1
f 74/13/6 73/14/6 91/15/6 92/16/6
f 93/13/2 91/14/2 73/15/2 75/16/2
f 76/13/1 74/14/1 92/15/1 94/16/1
f 95/9/2 93/10/2 75/11/2 77/12/2
f 78/9/1 76/10/1 94/11/1 96/12/1
f 97/5/2 95/6/2 77/7/2 79/8/2
f 80/5/1 78/6/1 96/7/1 98/8/1
f 99/9/2 97/10/2 79/11/2 81/12/2
f 82/9/1 80/10/1 98/11/1 100/12/1
f 101/9/2 99/10/2 81/11/2 83/12/2
f 84/9/1 82/10/1 100/11/1 102/12/1
f 103/9/2 101/10/2 83/11/2 85/12/2
f 86/9/1 84/10/1 102/11/1 104/12/1
f 105/5/2 103/6/2 85/7/2 87/8/2
f 88/5/1 86/6/1 104/7/1 106/8/1
f 90/9/5 89/10/5 107/11/5 108/12/5
f 108/9/2 105/10/2 87/11/2 90/12/2
f 89/9/1 88/10/1 106/11/1 107/12/1
f 92/13/6 91/14/6 109/15/6 110/16/6
f 111/13/2 109/14/2 91/15/2 93/16/2
f 94/13/1 92/14/1 110/15/1 112/16/1
f 113/13/2 111/14/2 93/15/2 95/16/2
f 96/13/1 94/14/1 112/15/1 114/16/1
f 115/9/2 113/10/2 95/11/2 97/12/2
f 98/9/1 96/10/1 114/11/1 116/12/1
f 117/9/2 115/10/2 97/11/2 99/12/2
f 100/9/1 98/10/1 116/11/1 118/12/1
f 119/9/2 117/10/2 99/11/2 101/12/2
f 102/9/1 100/10/1 118/11/1 120/12/1
f 121/5/2 119/6/2 101/7/2 103/8/2
f 104/5/1 102/6/1 120/7/1 122/8/1
f 123/5/2 121/6/2 103/7/2 105/8/2
f 106/5/1 104/6/1 122/7/1 124/8/1
f 108/9/5 107/10/5 125/11/5 126/12/5
f 126/9/2 123/10/2 105/11/2 108/12/2
f 107/9/1 106/10/1 124/11/1 125/12/1
f 110/1/6 109/2/6 127/3/6 128/4/6
f 129/1/2 127/2/2 109/3/2 111/4/2
f 112/1/1 110/2/1 128/3/1 130/4/1
f 131/13/2 129/14/2 111/15/2 113/16/2
f 114/13/1 112/14/1 130/15/1 132/16/1
f 133/9/2 131/10/2 113/11/2 115/12/2
f 116/9/1 114/10/1 132/11/1 134/12/1
f 135/9/2 133/10/2 115/11/2 117/12/2
f 118/9/1 116/10/1 134/11/1 136/12/1
f 137/9/2 135/10/2 117/11/2 119/12/2
f 120/9/1 118/10/1 136/11/1 138/12/1
f 139/13/2 137/14/2 119/15/2 121/16/2
f 122/13/1 120/14/1 138/15/1 140/16/1
f 141/5/2 139/6/2 121/7/2 123/8/2
f 124/5/1 122/6/1 140/7/1 142/8/1
f 126/1/5 125/2/5 143/3/5 144/4/5
f 144/1/2 141/2/2 123/3/2 126/4/2
f 125/1/1 124/2/1 142/3/1 143/4/1
f 145/9/4 146/10/4 147/11/4 148/12/4
f 128/9/6 127/10/6 147/11/6 146/12/6
f 148/9/2 147/10/2 127/11/2 129/12/2
f 130/9/1 128/10/1 146/11/1 145/12/1
f 149/5/4 145/6/4 148/7/4 150/8/4
f 150/5/2 148/6/2 129/7/2 131/8/2
f 132/5/1 130/6/1 145/7/1 149/8/1
f 151/9/4 149/10/4 150/11/4 152/12/4
f 152/9/2 150/10/2 131/11/2 133/12/2
f 134/9/1 132/10/1 149/11/1 151/12/1
f 153/1/4 151/2/4 152/3/4 154/4/4
f 154/1/2 152/2/2 133/3/2 135/4/2
f 136/1/1 134/2/1 151/3/1 153/4/1
f 155/5/4 153/6/4 154/7/4 156/8/4
f 156/5/2 154/6/2 135/7/2 137/8/2
f 138/5/1 136/6/1 153/7/1 155/8/1
f 157/13/4 155/14/4 156/15/4 158/16/4
f 158/13/2 156/14/2 137/15/2 139/16/2
f 140/13/1 138/14/1 155/15/1 157/16/1
f 159/13/4 157/14/4 158/15/4 160/16/4
f 160/13/2 158/14/2 139/15/2 141/16/2
f 142/13/1 140/14/1 157/15/1 159/16/1
f 161/1/4 159/2/4 160/3/4 162/4/4
f 144/1/5 143/2/5 161/3/5 162/4/5
f 162/1/2 160/2/2 141/3/2 144/4/2
f 143/1/1 142/2/1 159/3/1 161/4/1
