# This file was created with Minddesk Qubicle 3.0
# Get Qubicle at www.getqubicle.com

mtllib 101_Piece1_0_0.mtl

vn 0.0 0.0 1.0
vn 0.0 0.0 -1.0
vn -1.0 0.0 0.0
vn 1.0 0.0 0.0
vn 0.0 1.0 0.0
vn 0.0 -1.0 0.0

v -56.00000 1.00000 0.00000
v -56.00000 0.00000 0.00000
v -56.00000 0.00000 1.00000
v -56.00000 1.00000 1.00000
v -55.00000 0.00000 0.00000
v -55.00000 0.00000 1.00000
v -55.00000 1.00000 0.00000
v -55.00000 1.00000 1.00000
v -56.00000 2.00000 0.00000
v -56.00000 2.00000 1.00000
v -55.00000 2.00000 0.00000
v -55.00000 2.00000 1.00000
v -56.00000 3.00000 0.00000
v -56.00000 3.00000 1.00000
v -55.00000 3.00000 0.00000
v -55.00000 3.00000 1.00000
v -56.00000 4.00000 0.00000
v -56.00000 4.00000 1.00000
v -55.00000 4.00000 0.00000
v -55.00000 4.00000 1.00000
v -56.00000 5.00000 0.00000
v -56.00000 5.00000 1.00000
v -55.00000 5.00000 0.00000
v -55.00000 5.00000 1.00000
v -56.00000 6.00000 0.00000
v -56.00000 6.00000 1.00000
v -55.00000 6.00000 0.00000
v -55.00000 6.00000 1.00000
v -56.00000 7.00000 0.00000
v -56.00000 7.00000 1.00000
v -55.00000 7.00000 0.00000
v -55.00000 7.00000 1.00000
v -56.00000 8.00000 0.00000
v -56.00000 8.00000 1.00000
v -55.00000 8.00000 1.00000
v -55.00000 8.00000 0.00000
v -54.00000 0.00000 0.00000
v -54.00000 0.00000 1.00000
v -54.00000 1.00000 0.00000
v -54.00000 1.00000 1.00000
v -54.00000 2.00000 0.00000
v -54.00000 2.00000 1.00000
v -54.00000 3.00000 0.00000
v -54.00000 3.00000 1.00000
v -54.00000 4.00000 0.00000
v -54.00000 4.00000 1.00000
v -54.00000 5.00000 0.00000
v -54.00000 5.00000 1.00000
v -54.00000 6.00000 0.00000
v -54.00000 6.00000 1.00000
v -54.00000 7.00000 0.00000
v -54.00000 7.00000 1.00000
v -54.00000 8.00000 1.00000
v -54.00000 8.00000 0.00000
v -53.00000 0.00000 0.00000
v -53.00000 0.00000 1.00000
v -53.00000 1.00000 0.00000
v -53.00000 1.00000 1.00000
v -53.00000 2.00000 0.00000
v -53.00000 2.00000 1.00000
v -53.00000 3.00000 0.00000
v -53.00000 3.00000 1.00000
v -53.00000 4.00000 0.00000
v -53.00000 4.00000 1.00000
v -53.00000 5.00000 0.00000
v -53.00000 5.00000 1.00000
v -53.00000 6.00000 0.00000
v -53.00000 6.00000 1.00000
v -53.00000 7.00000 0.00000
v -53.00000 7.00000 1.00000
v -53.00000 8.00000 1.00000
v -53.00000 8.00000 0.00000
v -52.00000 0.00000 0.00000
v -52.00000 0.00000 1.00000
v -52.00000 1.00000 0.00000
v -52.00000 1.00000 1.00000
v -52.00000 2.00000 0.00000
v -52.00000 2.00000 1.00000
v -52.00000 3.00000 0.00000
v -52.00000 3.00000 1.00000
v -52.00000 4.00000 0.00000
v -52.00000 4.00000 1.00000
v -52.00000 5.00000 0.00000
v -52.00000 5.00000 1.00000
v -52.00000 6.00000 0.00000
v -52.00000 6.00000 1.00000
v -52.00000 7.00000 0.00000
v -52.00000 7.00000 1.00000
v -52.00000 8.00000 1.00000
v -52.00000 8.00000 0.00000
v -51.00000 0.00000 0.00000
v -51.00000 0.00000 1.00000
v -51.00000 1.00000 0.00000
v -51.00000 1.00000 1.00000
v -51.00000 2.00000 0.00000
v -51.00000 2.00000 1.00000
v -51.00000 3.00000 0.00000
v -51.00000 3.00000 1.00000
v -51.00000 4.00000 0.00000
v -51.00000 4.00000 1.00000
v -51.00000 5.00000 0.00000
v -51.00000 5.00000 1.00000
v -51.00000 6.00000 0.00000
v -51.00000 6.00000 1.00000
v -51.00000 7.00000 0.00000
v -51.00000 7.00000 1.00000
v -51.00000 8.00000 1.00000
v -51.00000 8.00000 0.00000
v -50.00000 0.00000 0.00000
v -50.00000 0.00000 1.00000
v -50.00000 1.00000 0.00000
v -50.00000 1.00000 1.00000
v -50.00000 2.00000 0.00000
v -50.00000 2.00000 1.00000
v -50.00000 3.00000 0.00000
v -50.00000 3.00000 1.00000
v -50.00000 4.00000 0.00000
v -50.00000 4.00000 1.00000
v -50.00000 5.00000 0.00000
v -50.00000 5.00000 1.00000
v -50.00000 6.00000 0.00000
v -50.00000 6.00000 1.00000
v -50.00000 7.00000 0.00000
v -50.00000 7.00000 1.00000
v -50.00000 8.00000 1.00000
v -50.00000 8.00000 0.00000
v -49.00000 0.00000 0.00000
v -49.00000 0.00000 1.00000
v -49.00000 1.00000 0.00000
v -49.00000 1.00000 1.00000
v -49.00000 2.00000 0.00000
v -49.00000 2.00000 1.00000
v -49.00000 3.00000 0.00000
v -49.00000 3.00000 1.00000
v -49.00000 4.00000 0.00000
v -49.00000 4.00000 1.00000
v -49.00000 5.00000 0.00000
v -49.00000 5.00000 1.00000
v -49.00000 6.00000 0.00000
v -49.00000 6.00000 1.00000
v -49.00000 7.00000 0.00000
v -49.00000 7.00000 1.00000
v -49.00000 8.00000 1.00000
v -49.00000 8.00000 0.00000
v -48.00000 1.00000 1.00000
v -48.00000 0.00000 1.00000
v -48.00000 0.00000 0.00000
v -48.00000 1.00000 0.00000
v -48.00000 2.00000 1.00000
v -48.00000 2.00000 0.00000
v -48.00000 3.00000 1.00000
v -48.00000 3.00000 0.00000
v -48.00000 4.00000 1.00000
v -48.00000 4.00000 0.00000
v -48.00000 5.00000 1.00000
v -48.00000 5.00000 0.00000
v -48.00000 6.00000 1.00000
v -48.00000 6.00000 0.00000
v -48.00000 7.00000 1.00000
v -48.00000 7.00000 0.00000
v -48.00000 8.00000 1.00000
v -48.00000 8.00000 0.00000

vt 0.06250 0.01563
vt 0.06250 0.00781
vt 0.06641 0.00781
vt 0.06641 0.01563
vt 0.05078 0.01563
vt 0.05078 0.00781
vt 0.05469 0.00781
vt 0.05469 0.01563
vt 0.03906 0.01563
vt 0.03906 0.00781
vt 0.04297 0.00781
vt 0.04297 0.01563
vt 0.02734 0.01563
vt 0.02734 0.00781
vt 0.03125 0.00781
vt 0.03125 0.01563
vt 0.01563 0.01563
vt 0.01563 0.00781
vt 0.01953 0.00781
vt 0.01953 0.01563
vt 0.00391 0.01563
vt 0.00391 0.00781
vt 0.00781 0.00781
vt 0.00781 0.01563

g 101_Piece1_0_0
usemtl 101_Material
f 1/1/3 2/2/3 3/3/3 4/4/3
f 3/1/6 2/2/6 5/3/6 6/4/6
f 7/1/2 5/2/2 2/3/2 1/4/2
f 4/1/1 3/2/1 6/3/1 8/4/1
f 9/1/3 1/2/3 4/3/3 10/4/3
f 11/1/2 7/2/2 1/3/2 9/4/2
f 10/1/1 4/2/1 8/3/1 12/4/1
f 13/1/3 9/2/3 10/3/3 14/4/3
f 15/1/2 11/2/2 9/3/2 13/4/2
f 14/1/1 10/2/1 12/3/1 16/4/1
f 17/1/3 13/2/3 14/3/3 18/4/3
f 19/1/2 15/2/2 13/3/2 17/4/2
f 18/1/1 14/2/1 16/3/1 20/4/1
f 21/1/3 17/2/3 18/3/3 22/4/3
f 23/1/2 19/2/2 17/3/2 21/4/2
f 22/1/1 18/2/1 20/3/1 24/4/1
f 25/1/3 21/2/3 22/3/3 26/4/3
f 27/1/2 23/2/2 21/3/2 25/4/2
f 26/1/1 22/2/1 24/3/1 28/4/1
f 29/1/3 25/2/3 26/3/3 30/4/3
f 31/1/2 27/2/2 25/3/2 29/4/2
f 30/1/1 26/2/1 28/3/1 32/4/1
f 33/1/3 29/2/3 30/3/3 34/4/3
f 33/1/5 34/2/5 35/3/5 36/4/5
f 36/1/2 31/2/2 29/3/2 33/4/2
f 34/1/1 30/2/1 32/3/1 35/4/1
f 6/5/6 5/6/6 37/7/6 38/8/6
f 39/5/2 37/6/2 5/7/2 7/8/2
f 8/5/1 6/6/1 38/7/1 40/8/1
f 41/5/2 39/6/2 7/7/2 11/8/2
f 12/5/1 8/6/1 40/7/1 42/8/1
f 43/1/2 41/2/2 11/3/2 15/4/2
f 16/1/1 12/2/1 42/3/1 44/4/1
f 45/5/2 43/6/2 15/7/2 19/8/2
f 20/5/1 16/6/1 44/7/1 46/8/1
f 47/9/2 45/10/2 19/11/2 23/12/2
f 24/9/1 20/10/1 46/11/1 48/12/1
f 49/5/2 47/6/2 23/7/2 27/8/2
f 28/5/1 24/6/1 48/7/1 50/8/1
f 51/1/2 49/2/2 27/3/2 31/4/2
f 32/1/1 28/2/1 50/3/1 52/4/1
f 36/1/5 35/2/5 53/3/5 54/4/5
f 54/1/2 51/2/2 31/3/2 36/4/2
f 35/1/1 32/2/1 52/3/1 53/4/1
f 38/5/6 37/6/6 55/7/6 56/8/6
f 57/5/2 55/6/2 37/7/2 39/8/2
f 40/5/1 38/6/1 56/7/1 58/8/1
f 59/9/2 57/10/2 39/11/2 41/12/2
f 42/9/1 40/10/1 58/11/1 60/12/1
f 61/5/2 59/6/2 41/7/2 43/8/2
f 44/5/1 42/6/1 60/7/1 62/8/1
f 63/5/2 61/6/2 43/7/2 45/8/2
f 46/5/1 44/6/1 62/7/1 64/8/1
f 65/5/2 63/6/2 45/7/2 47/8/2
f 48/5/1 46/6/1 64/7/1 66/8/1
f 67/9/2 65/10/2 47/11/2 49/12/2
f 50/9/1 48/10/1 66/11/1 68/12/1
f 69/5/2 67/6/2 49/7/2 51/8/2
f 52/5/1 50/6/1 68/7/1 70/8/1
f 54/9/5 53/10/5 71/11/5 72/12/5
f 72/9/2 69/10/2 51/11/2 54/12/2
f 53/9/1 52/10/1 70/11/1 71/12/1
f 56/9/6 55/10/6 73/11/6 74/12/6
f 75/9/2 73/10/2 55/11/2 57/12/2
f 58/9/1 56/10/1 74/11/1 76/12/1
f 77/13/2 75/14/2 57/15/2 59/16/2
f 60/13/1 58/14/1 76/15/1 78/16/1
f 79/5/2 77/6/2 59/7/2 61/8/2
f 62/5/1 60/6/1 78/7/1 80/8/1
f 81/9/2 79/10/2 61/11/2 63/12/2
f 64/9/1 62/10/1 80/11/1 82/12/1
f 83/17/2 81/18/2 63/19/2 65/20/2
f 66/17/1 64/18/1 82/19/1 84/20/1
f 85/17/2 83/18/2 65/19/2 67/20/2
f 68/17/1 66/18/1 84/19/1 86/20/1
f 87/9/2 85/10/2 67/11/2 69/12/2
f 70/9/1 68/10/1 86/11/1 88/12/1
f 72/5/5 71/6/5 89/7/5 90/8/5
f 90/5/2 87/6/2 69/7/2 72/8/2
f 71/5/1 70/6/1 88/7/1 89/8/1
f 74/13/6 73/14/6 91/15/6 92/16/6
f 93/13/2 91/14/2 73/15/2 75/16/2
f 76/13/1 74/14/1 92/15/1 94/16/1
f 95/9/2 93/10/2 75/11/2 77/12/2
f 78/9/1 76/10/1 94/11/1 96/12/1
f 97/13/2 95/14/2 77/15/2 79/16/2
f 80/13/1 78/14/1 96/15/1 98/16/1
f 99/21/2 97/22/2 79/23/2 81/24/2
f 82/21/1 80/22/1 98/23/1 100/24/1
f 101/17/2 99/18/2 81/19/2 83/20/2
f 84/17/1 82/18/1 100/19/1 102/20/1
f 103/21/2 101/22/2 83/23/2 85/24/2
f 86/21/1 84/22/1 102/23/1 104/24/1
f 105/17/2 103/18/2 85/19/2 87/20/2
f 88/17/1 86/18/1 104/19/1 106/20/1
f 90/13/5 89/14/5 107/15/5 108/16/5
f 108/13/2 105/14/2 87/15/2 90/16/2
f 89/13/1 88/14/1 106/15/1 107/16/1
f 92/17/6 91/18/6 109/19/6 110/20/6
f 111/17/2 109/18/2 91/19/2 93/20/2
f 94/17/1 92/18/1 110/19/1 112/20/1
f 113/21/2 111/22/2 93/23/2 95/24/2
f 96/21/1 94/22/1 112/23/1 114/24/1
f 115/21/2 113/22/2 95/23/2 97/24/2
f 98/21/1 96/22/1 114/23/1 116/24/1
f 117/21/2 115/22/2 97/23/2 99/24/2
f 100/21/1 98/22/1 116/23/1 118/24/1
f 119/21/2 117/22/2 99/23/2 101/24/2
f 102/21/1 100/22/1 118/23/1 120/24/1
f 121/21/2 119/22/2 101/23/2 103/24/2
f 104/21/1 102/22/1 120/23/1 122/24/1
f 123/17/2 121/18/2 103/19/2 105/20/2
f 106/17/1 104/18/1 122/19/1 124/20/1
f 108/21/5 107/22/5 125/23/5 126/24/5
f 126/21/2 123/22/2 105/23/2 108/24/2
f 107/21/1 106/22/1 124/23/1 125/24/1
f 110/21/6 109/22/6 127/23/6 128/24/6
f 129/21/2 127/22/2 109/23/2 111/24/2
f 112/21/1 110/22/1 128/23/1 130/24/1
f 131/21/2 129/22/2 111/23/2 113/24/2
f 114/21/1 112/22/1 130/23/1 132/24/1
f 133/21/2 131/22/2 113/23/2 115/24/2
f 116/21/1 114/22/1 132/23/1 134/24/1
f 135/21/2 133/22/2 115/23/2 117/24/2
f 118/21/1 116/22/1 134/23/1 136/24/1
f 137/21/2 135/22/2 117/23/2 119/24/2
f 120/21/1 118/22/1 136/23/1 138/24/1
f 139/21/2 137/22/2 119/23/2 121/24/2
f 122/21/1 120/22/1 138/23/1 140/24/1
f 141/21/2 139/22/2 121/23/2 123/24/2
f 124/21/1 122/22/1 140/23/1 142/24/1
f 126/21/5 125/22/5 143/23/5 144/24/5
f 144/21/2 141/22/2 123/23/2 126/24/2
f 125/21/1 124/22/1 142/23/1 143/24/1
f 145/21/4 146/22/4 147/23/4 148/24/4
f 128/21/6 127/22/6 147/23/6 146/24/6
f 148/21/2 147/22/2 127/23/2 129/24/2
f 130/21/1 128/22/1 146/23/1 145/24/1
f 149/21/4 145/22/4 148/23/4 150/24/4
f 150/21/2 148/22/2 129/23/2 131/24/2
f 132/21/1 130/22/1 145/23/1 149/24/1
f 151/21/4 149/22/4 150/23/4 152/24/4
f 152/21/2 150/22/2 131/23/2 133/24/2
f 134/21/1 132/22/1 149/23/1 151/24/1
f 153/21/4 151/22/4 152/23/4 154/24/4
f 154/21/2 152/22/2 133/23/2 135/24/2
f 136/21/1 134/22/1 151/23/1 153/24/1
f 155/21/4 153/22/4 154/23/4 156/24/4
f 156/21/2 154/22/2 135/23/2 137/24/2
f 138/21/1 136/22/1 153/23/1 155/24/1
f 157/21/4 155/22/4 156/23/4 158/24/4
f 158/21/2 156/22/2 137/23/2 139/24/2
f 140/21/1 138/22/1 155/23/1 157/24/1
f 159/21/4 157/22/4 158/23/4 160/24/4
f 160/21/2 158/22/2 139/23/2 141/24/2
f 142/21/1 140/22/1 157/23/1 159/24/1
f 161/21/4 159/22/4 160/23/4 162/24/4
f 144/21/5 143/22/5 161/23/5 162/24/5
f 162/21/2 160/22/2 141/23/2 144/24/2
f 143/21/1 142/22/1 159/23/1 161/24/1
