# This file was created with Minddesk Qubicle 3.0
# Get Qubicle at www.getqubicle.com

mtllib 101_Piece7_21_0.mtl

vn 0.0 0.0 1.0
vn 0.0 0.0 -1.0
vn -1.0 0.0 0.0
vn 1.0 0.0 0.0
vn 0.0 1.0 0.0
vn 0.0 -1.0 0.0

v -8.00000 169.00000 0.00000
v -8.00000 168.00000 0.00000
v -8.00000 168.00000 1.00000
v -8.00000 169.00000 1.00000
v -7.00000 168.00000 0.00000
v -7.00000 168.00000 1.00000
v -7.00000 169.00000 0.00000
v -7.00000 169.00000 1.00000
v -8.00000 170.00000 0.00000
v -8.00000 170.00000 1.00000
v -7.00000 170.00000 0.00000
v -7.00000 170.00000 1.00000
v -8.00000 171.00000 0.00000
v -8.00000 171.00000 1.00000
v -7.00000 171.00000 0.00000
v -7.00000 171.00000 1.00000
v -8.00000 172.00000 0.00000
v -8.00000 172.00000 1.00000
v -7.00000 172.00000 0.00000
v -7.00000 172.00000 1.00000
v -8.00000 173.00000 0.00000
v -8.00000 173.00000 1.00000
v -7.00000 173.00000 0.00000
v -7.00000 173.00000 1.00000
v -8.00000 174.00000 0.00000
v -8.00000 174.00000 1.00000
v -7.00000 174.00000 0.00000
v -7.00000 174.00000 1.00000
v -8.00000 175.00000 0.00000
v -8.00000 175.00000 1.00000
v -7.00000 175.00000 0.00000
v -7.00000 175.00000 1.00000
v -8.00000 176.00000 0.00000
v -8.00000 176.00000 1.00000
v -7.00000 176.00000 1.00000
v -7.00000 176.00000 0.00000
v -6.00000 168.00000 0.00000
v -6.00000 168.00000 1.00000
v -6.00000 169.00000 0.00000
v -6.00000 169.00000 1.00000
v -6.00000 170.00000 0.00000
v -6.00000 170.00000 1.00000
v -6.00000 171.00000 0.00000
v -6.00000 171.00000 1.00000
v -6.00000 172.00000 0.00000
v -6.00000 172.00000 1.00000
v -6.00000 173.00000 0.00000
v -6.00000 173.00000 1.00000
v -6.00000 174.00000 0.00000
v -6.00000 174.00000 1.00000
v -6.00000 175.00000 0.00000
v -6.00000 175.00000 1.00000
v -6.00000 176.00000 1.00000
v -6.00000 176.00000 0.00000
v -5.00000 168.00000 0.00000
v -5.00000 168.00000 1.00000
v -5.00000 169.00000 0.00000
v -5.00000 169.00000 1.00000
v -5.00000 170.00000 0.00000
v -5.00000 170.00000 1.00000
v -5.00000 171.00000 0.00000
v -5.00000 171.00000 1.00000
v -5.00000 172.00000 0.00000
v -5.00000 172.00000 1.00000
v -5.00000 173.00000 0.00000
v -5.00000 173.00000 1.00000
v -5.00000 174.00000 0.00000
v -5.00000 174.00000 1.00000
v -5.00000 175.00000 0.00000
v -5.00000 175.00000 1.00000
v -5.00000 176.00000 1.00000
v -5.00000 176.00000 0.00000
v -4.00000 168.00000 0.00000
v -4.00000 168.00000 1.00000
v -4.00000 169.00000 0.00000
v -4.00000 169.00000 1.00000
v -4.00000 170.00000 0.00000
v -4.00000 170.00000 1.00000
v -4.00000 171.00000 0.00000
v -4.00000 171.00000 1.00000
v -4.00000 172.00000 0.00000
v -4.00000 172.00000 1.00000
v -4.00000 173.00000 0.00000
v -4.00000 173.00000 1.00000
v -4.00000 174.00000 0.00000
v -4.00000 174.00000 1.00000
v -4.00000 175.00000 0.00000
v -4.00000 175.00000 1.00000
v -4.00000 176.00000 1.00000
v -4.00000 176.00000 0.00000
v -3.00000 168.00000 0.00000
v -3.00000 168.00000 1.00000
v -3.00000 169.00000 0.00000
v -3.00000 169.00000 1.00000
v -3.00000 170.00000 0.00000
v -3.00000 170.00000 1.00000
v -3.00000 171.00000 0.00000
v -3.00000 171.00000 1.00000
v -3.00000 172.00000 0.00000
v -3.00000 172.00000 1.00000
v -3.00000 173.00000 0.00000
v -3.00000 173.00000 1.00000
v -3.00000 174.00000 0.00000
v -3.00000 174.00000 1.00000
v -3.00000 175.00000 0.00000
v -3.00000 175.00000 1.00000
v -3.00000 176.00000 1.00000
v -3.00000 176.00000 0.00000
v -2.00000 168.00000 0.00000
v -2.00000 168.00000 1.00000
v -2.00000 169.00000 0.00000
v -2.00000 169.00000 1.00000
v -2.00000 170.00000 0.00000
v -2.00000 170.00000 1.00000
v -2.00000 171.00000 0.00000
v -2.00000 171.00000 1.00000
v -2.00000 172.00000 0.00000
v -2.00000 172.00000 1.00000
v -2.00000 173.00000 0.00000
v -2.00000 173.00000 1.00000
v -2.00000 174.00000 0.00000
v -2.00000 174.00000 1.00000
v -2.00000 175.00000 0.00000
v -2.00000 175.00000 1.00000
v -2.00000 176.00000 1.00000
v -2.00000 176.00000 0.00000
v -1.00000 168.00000 0.00000
v -1.00000 168.00000 1.00000
v -1.00000 169.00000 0.00000
v -1.00000 169.00000 1.00000
v -1.00000 170.00000 0.00000
v -1.00000 170.00000 1.00000
v -1.00000 171.00000 0.00000
v -1.00000 171.00000 1.00000
v -1.00000 172.00000 0.00000
v -1.00000 172.00000 1.00000
v -1.00000 173.00000 0.00000
v -1.00000 173.00000 1.00000
v -1.00000 174.00000 0.00000
v -1.00000 174.00000 1.00000
v -1.00000 175.00000 0.00000
v -1.00000 175.00000 1.00000
v -1.00000 176.00000 1.00000
v -1.00000 176.00000 0.00000
v 0.00000 169.00000 1.00000
v 0.00000 168.00000 1.00000
v 0.00000 168.00000 0.00000
v 0.00000 169.00000 0.00000
v 0.00000 170.00000 1.00000
v 0.00000 170.00000 0.00000
v 0.00000 171.00000 1.00000
v 0.00000 171.00000 0.00000
v 0.00000 172.00000 1.00000
v 0.00000 172.00000 0.00000
v 0.00000 173.00000 1.00000
v 0.00000 173.00000 0.00000
v 0.00000 174.00000 1.00000
v 0.00000 174.00000 0.00000
v 0.00000 175.00000 1.00000
v 0.00000 175.00000 0.00000
v 0.00000 176.00000 1.00000
v 0.00000 176.00000 0.00000

vt 0.23828 0.32031
vt 0.23828 0.31250
vt 0.24219 0.31250
vt 0.24219 0.32031
vt 0.39063 0.20313
vt 0.39063 0.19531
vt 0.39453 0.19531
vt 0.39453 0.20313
vt 0.08594 0.25000
vt 0.08594 0.24219
vt 0.08984 0.24219
vt 0.08984 0.25000
vt 0.25000 0.32031
vt 0.25000 0.31250
vt 0.25391 0.31250
vt 0.25391 0.32031
vt 0.26172 0.32031
vt 0.26172 0.31250
vt 0.26563 0.31250
vt 0.26563 0.32031

g 101_Piece7_21_0
usemtl 101_Material
f 1/1/3 2/2/3 3/3/3 4/4/3
f 3/1/6 2/2/6 5/3/6 6/4/6
f 7/1/2 5/2/2 2/3/2 1/4/2
f 4/1/1 3/2/1 6/3/1 8/4/1
f 9/1/3 1/2/3 4/3/3 10/4/3
f 11/1/2 7/2/2 1/3/2 9/4/2
f 10/1/1 4/2/1 8/3/1 12/4/1
f 13/1/3 9/2/3 10/3/3 14/4/3
f 15/1/2 11/2/2 9/3/2 13/4/2
f 14/1/1 10/2/1 12/3/1 16/4/1
f 17/5/3 13/6/3 14/7/3 18/8/3
f 19/5/2 15/6/2 13/7/2 17/8/2
f 18/5/1 14/6/1 16/7/1 20/8/1
f 21/5/3 17/6/3 18/7/3 22/8/3
f 23/5/2 19/6/2 17/7/2 21/8/2
f 22/5/1 18/6/1 20/7/1 24/8/1
f 25/9/3 21/10/3 22/11/3 26/12/3
f 27/9/2 23/10/2 21/11/2 25/12/2
f 26/9/1 22/10/1 24/11/1 28/12/1
f 29/5/3 25/6/3 26/7/3 30/8/3
f 31/5/2 27/6/2 25/7/2 29/8/2
f 30/5/1 26/6/1 28/7/1 32/8/1
f 33/5/3 29/6/3 30/7/3 34/8/3
f 33/5/5 34/6/5 35/7/5 36/8/5
f 36/5/2 31/6/2 29/7/2 33/8/2
f 34/5/1 30/6/1 32/7/1 35/8/1
f 6/1/6 5/2/6 37/3/6 38/4/6
f 39/1/2 37/2/2 5/3/2 7/4/2
f 8/1/1 6/2/1 38/3/1 40/4/1
f 41/13/2 39/14/2 7/15/2 11/16/2
f 12/13/1 8/14/1 40/15/1 42/16/1
f 43/9/2 41/10/2 11/11/2 15/12/2
f 16/9/1 12/10/1 42/11/1 44/12/1
f 45/5/2 43/6/2 15/7/2 19/8/2
f 20/5/1 16/6/1 44/7/1 46/8/1
f 47/5/2 45/6/2 19/7/2 23/8/2
f 24/5/1 20/6/1 46/7/1 48/8/1
f 49/9/2 47/10/2 23/11/2 27/12/2
f 28/9/1 24/10/1 48/11/1 50/12/1
f 51/5/2 49/6/2 27/7/2 31/8/2
f 32/5/1 28/6/1 50/7/1 52/8/1
f 36/5/5 35/6/5 53/7/5 54/8/5
f 54/5/2 51/6/2 31/7/2 36/8/2
f 35/5/1 32/6/1 52/7/1 53/8/1
f 38/17/6 37/18/6 55/19/6 56/20/6
f 57/17/2 55/18/2 37/19/2 39/20/2
f 40/17/1 38/18/1 56/19/1 58/20/1
f 59/5/2 57/6/2 39/7/2 41/8/2
f 42/5/1 40/6/1 58/7/1 60/8/1
f 61/5/2 59/6/2 41/7/2 43/8/2
f 44/5/1 42/6/1 60/7/1 62/8/1
f 63/17/2 61/18/2 43/19/2 45/20/2
f 46/17/1 44/18/1 62/19/1 64/20/1
f 65/5/2 63/6/2 45/7/2 47/8/2
f 48/5/1 46/6/1 64/7/1 66/8/1
f 67/5/2 65/6/2 47/7/2 49/8/2
f 50/5/1 48/6/1 66/7/1 68/8/1
f 69/17/2 67/18/2 49/19/2 51/20/2
f 52/17/1 50/18/1 68/19/1 70/20/1
f 54/5/5 53/6/5 71/7/5 72/8/5
f 72/5/2 69/6/2 51/7/2 54/8/2
f 53/5/1 52/6/1 70/7/1 71/8/1
f 56/5/6 55/6/6 73/7/6 74/8/6
f 75/5/2 73/6/2 55/7/2 57/8/2
f 58/5/1 56/6/1 74/7/1 76/8/1
f 77/17/2 75/18/2 57/19/2 59/20/2
f 60/17/1 58/18/1 76/19/1 78/20/1
f 79/5/2 77/6/2 59/7/2 61/8/2
f 62/5/1 60/6/1 78/7/1 80/8/1
f 81/17/2 79/18/2 61/19/2 63/20/2
f 64/17/1 62/18/1 80/19/1 82/20/1
f 83/5/2 81/6/2 63/7/2 65/8/2
f 66/5/1 64/6/1 82/7/1 84/8/1
f 85/5/2 83/6/2 65/7/2 67/8/2
f 68/5/1 66/6/1 84/7/1 86/8/1
f 87/17/2 85/18/2 67/19/2 69/20/2
f 70/17/1 68/18/1 86/19/1 88/20/1
f 72/5/5 71/6/5 89/7/5 90/8/5
f 90/5/2 87/6/2 69/7/2 72/8/2
f 71/5/1 70/6/1 88/7/1 89/8/1
f 74/5/6 73/6/6 91/7/6 92/8/6
f 93/5/2 91/6/2 73/7/2 75/8/2
f 76/5/1 74/6/1 92/7/1 94/8/1
f 95/17/2 93/18/2 75/19/2 77/20/2
f 78/17/1 76/18/1 94/19/1 96/20/1
f 97/5/2 95/6/2 77/7/2 79/8/2
f 80/5/1 78/6/1 96/7/1 98/8/1
f 99/17/2 97/18/2 79/19/2 81/20/2
f 82/17/1 80/18/1 98/19/1 100/20/1
f 101/13/2 99/14/2 81/15/2 83/16/2
f 84/13/1 82/14/1 100/15/1 102/16/1
f 103/13/2 101/14/2 83/15/2 85/16/2
f 86/13/1 84/14/1 102/15/1 104/16/1
f 105/5/2 103/6/2 85/7/2 87/8/2
f 88/5/1 86/6/1 104/7/1 106/8/1
f 90/5/5 89/6/5 107/7/5 108/8/5
f 108/5/2 105/6/2 87/7/2 90/8/2
f 89/5/1 88/6/1 106/7/1 107/8/1
f 92/5/6 91/6/6 109/7/6 110/8/6
f 111/5/2 109/6/2 91/7/2 93/8/2
f 94/5/1 92/6/1 110/7/1 112/8/1
f 113/9/2 111/10/2 93/11/2 95/12/2
f 96/9/1 94/10/1 112/11/1 114/12/1
f 115/5/2 113/6/2 95/7/2 97/8/2
f 98/5/1 96/6/1 114/7/1 116/8/1
f 117/13/2 115/14/2 97/15/2 99/16/2
f 100/13/1 98/14/1 116/15/1 118/16/1
f 119/13/2 117/14/2 99/15/2 101/16/2
f 102/13/1 100/14/1 118/15/1 120/16/1
f 121/13/2 119/14/2 101/15/2 103/16/2
f 104/13/1 102/14/1 120/15/1 122/16/1
f 123/5/2 121/6/2 103/7/2 105/8/2
f 106/5/1 104/6/1 122/7/1 124/8/1
f 108/5/5 107/6/5 125/7/5 126/8/5
f 126/5/2 123/6/2 105/7/2 108/8/2
f 107/5/1 106/6/1 124/7/1 125/8/1
f 110/9/6 109/10/6 127/11/6 128/12/6
f 129/9/2 127/10/2 109/11/2 111/12/2
f 112/9/1 110/10/1 128/11/1 130/12/1
f 131/5/2 129/6/2 111/7/2 113/8/2
f 114/5/1 112/6/1 130/7/1 132/8/1
f 133/5/2 131/6/2 113/7/2 115/8/2
f 116/5/1 114/6/1 132/7/1 134/8/1
f 135/13/2 133/14/2 115/15/2 117/16/2
f 118/13/1 116/14/1 134/15/1 136/16/1
f 137/13/2 135/14/2 117/15/2 119/16/2
f 120/13/1 118/14/1 136/15/1 138/16/1
f 139/5/2 137/6/2 119/7/2 121/8/2
f 122/5/1 120/6/1 138/7/1 140/8/1
f 141/17/2 139/18/2 121/19/2 123/20/2
f 124/17/1 122/18/1 140/19/1 142/20/1
f 126/5/5 125/6/5 143/7/5 144/8/5
f 144/5/2 141/6/2 123/7/2 126/8/2
f 125/5/1 124/6/1 142/7/1 143/8/1
f 145/17/4 146/18/4 147/19/4 148/20/4
f 128/17/6 127/18/6 147/19/6 146/20/6
f 148/17/2 147/18/2 127/19/2 129/20/2
f 130/17/1 128/18/1 146/19/1 145/20/1
f 149/5/4 145/6/4 148/7/4 150/8/4
f 150/5/2 148/6/2 129/7/2 131/8/2
f 132/5/1 130/6/1 145/7/1 149/8/1
f 151/17/4 149/18/4 150/19/4 152/20/4
f 152/17/2 150/18/2 131/19/2 133/20/2
f 134/17/1 132/18/1 149/19/1 151/20/1
f 153/1/4 151/2/4 152/3/4 154/4/4
f 154/1/2 152/2/2 133/3/2 135/4/2
f 136/1/1 134/2/1 151/3/1 153/4/1
f 155/1/4 153/2/4 154/3/4 156/4/4
f 156/1/2 154/2/2 135/3/2 137/4/2
f 138/1/1 136/2/1 153/3/1 155/4/1
f 157/1/4 155/2/4 156/3/4 158/4/4
f 158/1/2 156/2/2 137/3/2 139/4/2
f 140/1/1 138/2/1 155/3/1 157/4/1
f 159/17/4 157/18/4 158/19/4 160/20/4
f 160/17/2 158/18/2 139/19/2 141/20/2
f 142/17/1 140/18/1 157/19/1 159/20/1
f 161/5/4 159/6/4 160/7/4 162/8/4
f 144/5/5 143/6/5 161/7/5 162/8/5
f 162/5/2 160/6/2 141/7/2 144/8/2
f 143/5/1 142/6/1 159/7/1 161/8/1
