# This file was created with Minddesk Qubicle 3.0
# Get Qubicle at www.getqubicle.com

mtllib 101_Piece5_0_0.mtl

vn 0.0 0.0 1.0
vn 0.0 0.0 -1.0
vn -1.0 0.0 0.0
vn 1.0 0.0 0.0
vn 0.0 1.0 0.0
vn 0.0 -1.0 0.0

v -24.00000 1.00000 0.00000
v -24.00000 0.00000 0.00000
v -24.00000 0.00000 1.00000
v -24.00000 1.00000 1.00000
v -23.00000 0.00000 0.00000
v -23.00000 0.00000 1.00000
v -23.00000 1.00000 0.00000
v -23.00000 1.00000 1.00000
v -24.00000 2.00000 0.00000
v -24.00000 2.00000 1.00000
v -23.00000 2.00000 0.00000
v -23.00000 2.00000 1.00000
v -24.00000 3.00000 0.00000
v -24.00000 3.00000 1.00000
v -23.00000 3.00000 0.00000
v -23.00000 3.00000 1.00000
v -24.00000 4.00000 0.00000
v -24.00000 4.00000 1.00000
v -23.00000 4.00000 0.00000
v -23.00000 4.00000 1.00000
v -24.00000 5.00000 0.00000
v -24.00000 5.00000 1.00000
v -23.00000 5.00000 0.00000
v -23.00000 5.00000 1.00000
v -24.00000 6.00000 0.00000
v -24.00000 6.00000 1.00000
v -23.00000 6.00000 0.00000
v -23.00000 6.00000 1.00000
v -24.00000 7.00000 0.00000
v -24.00000 7.00000 1.00000
v -23.00000 7.00000 0.00000
v -23.00000 7.00000 1.00000
v -24.00000 8.00000 0.00000
v -24.00000 8.00000 1.00000
v -23.00000 8.00000 1.00000
v -23.00000 8.00000 0.00000
v -22.00000 0.00000 0.00000
v -22.00000 0.00000 1.00000
v -22.00000 1.00000 0.00000
v -22.00000 1.00000 1.00000
v -22.00000 2.00000 0.00000
v -22.00000 2.00000 1.00000
v -22.00000 3.00000 0.00000
v -22.00000 3.00000 1.00000
v -22.00000 4.00000 0.00000
v -22.00000 4.00000 1.00000
v -22.00000 5.00000 0.00000
v -22.00000 5.00000 1.00000
v -22.00000 6.00000 0.00000
v -22.00000 6.00000 1.00000
v -22.00000 7.00000 0.00000
v -22.00000 7.00000 1.00000
v -22.00000 8.00000 1.00000
v -22.00000 8.00000 0.00000
v -21.00000 0.00000 0.00000
v -21.00000 0.00000 1.00000
v -21.00000 1.00000 0.00000
v -21.00000 1.00000 1.00000
v -21.00000 2.00000 0.00000
v -21.00000 2.00000 1.00000
v -21.00000 3.00000 0.00000
v -21.00000 3.00000 1.00000
v -21.00000 4.00000 0.00000
v -21.00000 4.00000 1.00000
v -21.00000 5.00000 0.00000
v -21.00000 5.00000 1.00000
v -21.00000 6.00000 0.00000
v -21.00000 6.00000 1.00000
v -21.00000 7.00000 0.00000
v -21.00000 7.00000 1.00000
v -21.00000 8.00000 1.00000
v -21.00000 8.00000 0.00000
v -20.00000 0.00000 0.00000
v -20.00000 0.00000 1.00000
v -20.00000 1.00000 0.00000
v -20.00000 1.00000 1.00000
v -20.00000 2.00000 0.00000
v -20.00000 2.00000 1.00000
v -20.00000 3.00000 0.00000
v -20.00000 3.00000 1.00000
v -20.00000 4.00000 0.00000
v -20.00000 4.00000 1.00000
v -20.00000 5.00000 0.00000
v -20.00000 5.00000 1.00000
v -20.00000 6.00000 0.00000
v -20.00000 6.00000 1.00000
v -20.00000 7.00000 0.00000
v -20.00000 7.00000 1.00000
v -20.00000 8.00000 1.00000
v -20.00000 8.00000 0.00000
v -19.00000 0.00000 0.00000
v -19.00000 0.00000 1.00000
v -19.00000 1.00000 0.00000
v -19.00000 1.00000 1.00000
v -19.00000 2.00000 0.00000
v -19.00000 2.00000 1.00000
v -19.00000 3.00000 0.00000
v -19.00000 3.00000 1.00000
v -19.00000 4.00000 0.00000
v -19.00000 4.00000 1.00000
v -19.00000 5.00000 0.00000
v -19.00000 5.00000 1.00000
v -19.00000 6.00000 0.00000
v -19.00000 6.00000 1.00000
v -19.00000 7.00000 0.00000
v -19.00000 7.00000 1.00000
v -19.00000 8.00000 1.00000
v -19.00000 8.00000 0.00000
v -18.00000 0.00000 0.00000
v -18.00000 0.00000 1.00000
v -18.00000 1.00000 0.00000
v -18.00000 1.00000 1.00000
v -18.00000 2.00000 0.00000
v -18.00000 2.00000 1.00000
v -18.00000 3.00000 0.00000
v -18.00000 3.00000 1.00000
v -18.00000 4.00000 0.00000
v -18.00000 4.00000 1.00000
v -18.00000 5.00000 0.00000
v -18.00000 5.00000 1.00000
v -18.00000 6.00000 0.00000
v -18.00000 6.00000 1.00000
v -18.00000 7.00000 0.00000
v -18.00000 7.00000 1.00000
v -18.00000 8.00000 1.00000
v -18.00000 8.00000 0.00000
v -17.00000 0.00000 0.00000
v -17.00000 0.00000 1.00000
v -17.00000 1.00000 0.00000
v -17.00000 1.00000 1.00000
v -17.00000 2.00000 0.00000
v -17.00000 2.00000 1.00000
v -17.00000 3.00000 0.00000
v -17.00000 3.00000 1.00000
v -17.00000 4.00000 0.00000
v -17.00000 4.00000 1.00000
v -17.00000 5.00000 0.00000
v -17.00000 5.00000 1.00000
v -17.00000 6.00000 0.00000
v -17.00000 6.00000 1.00000
v -17.00000 7.00000 0.00000
v -17.00000 7.00000 1.00000
v -17.00000 8.00000 1.00000
v -17.00000 8.00000 0.00000
v -16.00000 1.00000 1.00000
v -16.00000 0.00000 1.00000
v -16.00000 0.00000 0.00000
v -16.00000 1.00000 0.00000
v -16.00000 2.00000 1.00000
v -16.00000 2.00000 0.00000
v -16.00000 3.00000 1.00000
v -16.00000 3.00000 0.00000
v -16.00000 4.00000 1.00000
v -16.00000 4.00000 0.00000
v -16.00000 5.00000 1.00000
v -16.00000 5.00000 0.00000
v -16.00000 6.00000 1.00000
v -16.00000 6.00000 0.00000
v -16.00000 7.00000 1.00000
v -16.00000 7.00000 0.00000
v -16.00000 8.00000 1.00000
v -16.00000 8.00000 0.00000

vt 0.00391 0.01563
vt 0.00391 0.00781
vt 0.00781 0.00781
vt 0.00781 0.01563
vt 0.05078 0.01563
vt 0.05078 0.00781
vt 0.05469 0.00781
vt 0.05469 0.01563
vt 0.03906 0.01563
vt 0.03906 0.00781
vt 0.04297 0.00781
vt 0.04297 0.01563
vt 0.06250 0.01563
vt 0.06250 0.00781
vt 0.06641 0.00781
vt 0.06641 0.01563
vt 0.02734 0.01563
vt 0.02734 0.00781
vt 0.03125 0.00781
vt 0.03125 0.01563

g 101_Piece5_0_0
usemtl 101_Material
f 1/1/3 2/2/3 3/3/3 4/4/3
f 3/1/6 2/2/6 5/3/6 6/4/6
f 7/1/2 5/2/2 2/3/2 1/4/2
f 4/1/1 3/2/1 6/3/1 8/4/1
f 9/1/3 1/2/3 4/3/3 10/4/3
f 11/1/2 7/2/2 1/3/2 9/4/2
f 10/1/1 4/2/1 8/3/1 12/4/1
f 13/1/3 9/2/3 10/3/3 14/4/3
f 15/1/2 11/2/2 9/3/2 13/4/2
f 14/1/1 10/2/1 12/3/1 16/4/1
f 17/5/3 13/6/3 14/7/3 18/8/3
f 19/5/2 15/6/2 13/7/2 17/8/2
f 18/5/1 14/6/1 16/7/1 20/8/1
f 21/9/3 17/10/3 18/11/3 22/12/3
f 23/9/2 19/10/2 17/11/2 21/12/2
f 22/9/1 18/10/1 20/11/1 24/12/1
f 25/5/3 21/6/3 22/7/3 26/8/3
f 27/5/2 23/6/2 21/7/2 25/8/2
f 26/5/1 22/6/1 24/7/1 28/8/1
f 29/5/3 25/6/3 26/7/3 30/8/3
f 31/5/2 27/6/2 25/7/2 29/8/2
f 30/5/1 26/6/1 28/7/1 32/8/1
f 33/13/3 29/14/3 30/15/3 34/16/3
f 33/13/5 34/14/5 35/15/5 36/16/5
f 36/13/2 31/14/2 29/15/2 33/16/2
f 34/13/1 30/14/1 32/15/1 35/16/1
f 6/1/6 5/2/6 37/3/6 38/4/6
f 39/1/2 37/2/2 5/3/2 7/4/2
f 8/1/1 6/2/1 38/3/1 40/4/1
f 41/1/2 39/2/2 7/3/2 11/4/2
f 12/1/1 8/2/1 40/3/1 42/4/1
f 43/1/2 41/2/2 11/3/2 15/4/2
f 16/1/1 12/2/1 42/3/1 44/4/1
f 45/9/2 43/10/2 15/11/2 19/12/2
f 20/9/1 16/10/1 44/11/1 46/12/1
f 47/17/2 45/18/2 19/19/2 23/20/2
f 24/17/1 20/18/1 46/19/1 48/20/1
f 49/9/2 47/10/2 23/11/2 27/12/2
f 28/9/1 24/10/1 48/11/1 50/12/1
f 51/13/2 49/14/2 27/15/2 31/16/2
f 32/13/1 28/14/1 50/15/1 52/16/1
f 36/13/5 35/14/5 53/15/5 54/16/5
f 54/13/2 51/14/2 31/15/2 36/16/2
f 35/13/1 32/14/1 52/15/1 53/16/1
f 38/1/6 37/2/6 55/3/6 56/4/6
f 57/1/2 55/2/2 37/3/2 39/4/2
f 40/1/1 38/2/1 56/3/1 58/4/1
f 59/1/2 57/2/2 39/3/2 41/4/2
f 42/1/1 40/2/1 58/3/1 60/4/1
f 61/1/2 59/2/2 41/3/2 43/4/2
f 44/1/1 42/2/1 60/3/1 62/4/1
f 63/1/2 61/2/2 43/3/2 45/4/2
f 46/1/1 44/2/1 62/3/1 64/4/1
f 65/9/2 63/10/2 45/11/2 47/12/2
f 48/9/1 46/10/1 64/11/1 66/12/1
f 67/5/2 65/6/2 47/7/2 49/8/2
f 50/5/1 48/6/1 66/7/1 68/8/1
f 69/9/2 67/10/2 49/11/2 51/12/2
f 52/9/1 50/10/1 68/11/1 70/12/1
f 54/5/5 53/6/5 71/7/5 72/8/5
f 72/5/2 69/6/2 51/7/2 54/8/2
f 53/5/1 52/6/1 70/7/1 71/8/1
f 56/1/6 55/2/6 73/3/6 74/4/6
f 75/1/2 73/2/2 55/3/2 57/4/2
f 58/1/1 56/2/1 74/3/1 76/4/1
f 77/1/2 75/2/2 57/3/2 59/4/2
f 60/1/1 58/2/1 76/3/1 78/4/1
f 79/1/2 77/2/2 59/3/2 61/4/2
f 62/1/1 60/2/1 78/3/1 80/4/1
f 81/9/2 79/10/2 61/11/2 63/12/2
f 64/9/1 62/10/1 80/11/1 82/12/1
f 83/17/2 81/18/2 63/19/2 65/20/2
f 66/17/1 64/18/1 82/19/1 84/20/1
f 85/9/2 83/10/2 65/11/2 67/12/2
f 68/9/1 66/10/1 84/11/1 86/12/1
f 87/17/2 85/18/2 67/19/2 69/20/2
f 70/17/1 68/18/1 86/19/1 88/20/1
f 72/9/5 71/10/5 89/11/5 90/12/5
f 90/9/2 87/10/2 69/11/2 72/12/2
f 71/9/1 70/10/1 88/11/1 89/12/1
f 74/1/6 73/2/6 91/3/6 92/4/6
f 93/1/2 91/2/2 73/3/2 75/4/2
f 76/1/1 74/2/1 92/3/1 94/4/1
f 95/1/2 93/2/2 75/3/2 77/4/2
f 78/1/1 76/2/1 94/3/1 96/4/1
f 97/1/2 95/2/2 77/3/2 79/4/2
f 80/1/1 78/2/1 96/3/1 98/4/1
f 99/1/2 97/2/2 79/3/2 81/4/2
f 82/1/1 80/2/1 98/3/1 100/4/1
f 101/17/2 99/18/2 81/19/2 83/20/2
f 84/17/1 82/18/1 100/19/1 102/20/1
f 103/1/2 101/2/2 83/3/2 85/4/2
f 86/1/1 84/2/1 102/3/1 104/4/1
f 105/17/2 103/18/2 85/19/2 87/20/2
f 88/17/1 86/18/1 104/19/1 106/20/1
f 90/9/5 89/10/5 107/11/5 108/12/5
f 108/9/2 105/10/2 87/11/2 90/12/2
f 89/9/1 88/10/1 106/11/1 107/12/1
f 92/1/6 91/2/6 109/3/6 110/4/6
f 111/1/2 109/2/2 91/3/2 93/4/2
f 94/1/1 92/2/1 110/3/1 112/4/1
f 113/1/2 111/2/2 93/3/2 95/4/2
f 96/1/1 94/2/1 112/3/1 114/4/1
f 115/1/2 113/2/2 95/3/2 97/4/2
f 98/1/1 96/2/1 114/3/1 116/4/1
f 117/1/2 115/2/2 97/3/2 99/4/2
f 100/1/1 98/2/1 116/3/1 118/4/1
f 119/1/2 117/2/2 99/3/2 101/4/2
f 102/1/1 100/2/1 118/3/1 120/4/1
f 121/1/2 119/2/2 101/3/2 103/4/2
f 104/1/1 102/2/1 120/3/1 122/4/1
f 123/1/2 121/2/2 103/3/2 105/4/2
f 106/1/1 104/2/1 122/3/1 124/4/1
f 108/1/5 107/2/5 125/3/5 126/4/5
f 126/1/2 123/2/2 105/3/2 108/4/2
f 107/1/1 106/2/1 124/3/1 125/4/1
f 110/1/6 109/2/6 127/3/6 128/4/6
f 129/1/2 127/2/2 109/3/2 111/4/2
f 112/1/1 110/2/1 128/3/1 130/4/1
f 131/1/2 129/2/2 111/3/2 113/4/2
f 114/1/1 112/2/1 130/3/1 132/4/1
f 133/1/2 131/2/2 113/3/2 115/4/2
f 116/1/1 114/2/1 132/3/1 134/4/1
f 135/1/2 133/2/2 115/3/2 117/4/2
f 118/1/1 116/2/1 134/3/1 136/4/1
f 137/1/2 135/2/2 117/3/2 119/4/2
f 120/1/1 118/2/1 136/3/1 138/4/1
f 139/1/2 137/2/2 119/3/2 121/4/2
f 122/1/1 120/2/1 138/3/1 140/4/1
f 141/1/2 139/2/2 121/3/2 123/4/2
f 124/1/1 122/2/1 140/3/1 142/4/1
f 126/1/5 125/2/5 143/3/5 144/4/5
f 144/1/2 141/2/2 123/3/2 126/4/2
f 125/1/1 124/2/1 142/3/1 143/4/1
f 145/1/4 146/2/4 147/3/4 148/4/4
f 128/1/6 127/2/6 147/3/6 146/4/6
f 148/1/2 147/2/2 127/3/2 129/4/2
f 130/1/1 128/2/1 146/3/1 145/4/1
f 149/1/4 145/2/4 148/3/4 150/4/4
f 150/1/2 148/2/2 129/3/2 131/4/2
f 132/1/1 130/2/1 145/3/1 149/4/1
f 151/1/4 149/2/4 150/3/4 152/4/4
f 152/1/2 150/2/2 131/3/2 133/4/2
f 134/1/1 132/2/1 149/3/1 151/4/1
f 153/1/4 151/2/4 152/3/4 154/4/4
f 154/1/2 152/2/2 133/3/2 135/4/2
f 136/1/1 134/2/1 151/3/1 153/4/1
f 155/1/4 153/2/4 154/3/4 156/4/4
f 156/1/2 154/2/2 135/3/2 137/4/2
f 138/1/1 136/2/1 153/3/1 155/4/1
f 157/1/4 155/2/4 156/3/4 158/4/4
f 158/1/2 156/2/2 137/3/2 139/4/2
f 140/1/1 138/2/1 155/3/1 157/4/1
f 159/1/4 157/2/4 158/3/4 160/4/4
f 160/1/2 158/2/2 139/3/2 141/4/2
f 142/1/1 140/2/1 157/3/1 159/4/1
f 161/1/4 159/2/4 160/3/4 162/4/4
f 144/1/5 143/2/5 161/3/5 162/4/5
f 162/1/2 160/2/2 141/3/2 144/4/2
f 143/1/1 142/2/1 159/3/1 161/4/1
