# This file was created with Minddesk Qubicle 3.0
# Get Qubicle at www.getqubicle.com

mtllib 101_Piece12_14_0.mtl

vn 0.0 0.0 1.0
vn 0.0 0.0 -1.0
vn -1.0 0.0 0.0
vn 1.0 0.0 0.0
vn 0.0 1.0 0.0
vn 0.0 -1.0 0.0

v 32.00000 113.00000 0.00000
v 32.00000 112.00000 0.00000
v 32.00000 112.00000 1.00000
v 32.00000 113.00000 1.00000
v 33.00000 112.00000 0.00000
v 33.00000 112.00000 1.00000
v 33.00000 113.00000 0.00000
v 33.00000 113.00000 1.00000
v 32.00000 114.00000 0.00000
v 32.00000 114.00000 1.00000
v 33.00000 114.00000 0.00000
v 33.00000 114.00000 1.00000
v 32.00000 115.00000 0.00000
v 32.00000 115.00000 1.00000
v 33.00000 115.00000 0.00000
v 33.00000 115.00000 1.00000
v 32.00000 116.00000 0.00000
v 32.00000 116.00000 1.00000
v 33.00000 116.00000 0.00000
v 33.00000 116.00000 1.00000
v 32.00000 117.00000 0.00000
v 32.00000 117.00000 1.00000
v 33.00000 117.00000 0.00000
v 33.00000 117.00000 1.00000
v 32.00000 118.00000 0.00000
v 32.00000 118.00000 1.00000
v 33.00000 118.00000 0.00000
v 33.00000 118.00000 1.00000
v 32.00000 119.00000 0.00000
v 32.00000 119.00000 1.00000
v 33.00000 119.00000 0.00000
v 33.00000 119.00000 1.00000
v 32.00000 120.00000 0.00000
v 32.00000 120.00000 1.00000
v 33.00000 120.00000 1.00000
v 33.00000 120.00000 0.00000
v 34.00000 112.00000 0.00000
v 34.00000 112.00000 1.00000
v 34.00000 113.00000 0.00000
v 34.00000 113.00000 1.00000
v 34.00000 114.00000 0.00000
v 34.00000 114.00000 1.00000
v 34.00000 115.00000 0.00000
v 34.00000 115.00000 1.00000
v 34.00000 116.00000 0.00000
v 34.00000 116.00000 1.00000
v 34.00000 117.00000 0.00000
v 34.00000 117.00000 1.00000
v 34.00000 118.00000 0.00000
v 34.00000 118.00000 1.00000
v 34.00000 119.00000 0.00000
v 34.00000 119.00000 1.00000
v 34.00000 120.00000 1.00000
v 34.00000 120.00000 0.00000
v 35.00000 112.00000 0.00000
v 35.00000 112.00000 1.00000
v 35.00000 113.00000 0.00000
v 35.00000 113.00000 1.00000
v 35.00000 114.00000 0.00000
v 35.00000 114.00000 1.00000
v 35.00000 115.00000 0.00000
v 35.00000 115.00000 1.00000
v 35.00000 116.00000 0.00000
v 35.00000 116.00000 1.00000
v 35.00000 117.00000 0.00000
v 35.00000 117.00000 1.00000
v 35.00000 118.00000 0.00000
v 35.00000 118.00000 1.00000
v 35.00000 119.00000 0.00000
v 35.00000 119.00000 1.00000
v 35.00000 120.00000 1.00000
v 35.00000 120.00000 0.00000
v 36.00000 112.00000 0.00000
v 36.00000 112.00000 1.00000
v 36.00000 113.00000 0.00000
v 36.00000 113.00000 1.00000
v 36.00000 114.00000 0.00000
v 36.00000 114.00000 1.00000
v 36.00000 115.00000 0.00000
v 36.00000 115.00000 1.00000
v 36.00000 116.00000 0.00000
v 36.00000 116.00000 1.00000
v 36.00000 117.00000 0.00000
v 36.00000 117.00000 1.00000
v 36.00000 118.00000 0.00000
v 36.00000 118.00000 1.00000
v 36.00000 119.00000 0.00000
v 36.00000 119.00000 1.00000
v 36.00000 120.00000 1.00000
v 36.00000 120.00000 0.00000
v 37.00000 112.00000 0.00000
v 37.00000 112.00000 1.00000
v 37.00000 113.00000 0.00000
v 37.00000 113.00000 1.00000
v 37.00000 114.00000 0.00000
v 37.00000 114.00000 1.00000
v 37.00000 115.00000 0.00000
v 37.00000 115.00000 1.00000
v 37.00000 116.00000 0.00000
v 37.00000 116.00000 1.00000
v 37.00000 117.00000 0.00000
v 37.00000 117.00000 1.00000
v 37.00000 118.00000 0.00000
v 37.00000 118.00000 1.00000
v 37.00000 119.00000 0.00000
v 37.00000 119.00000 1.00000
v 37.00000 120.00000 1.00000
v 37.00000 120.00000 0.00000
v 38.00000 112.00000 0.00000
v 38.00000 112.00000 1.00000
v 38.00000 113.00000 0.00000
v 38.00000 113.00000 1.00000
v 38.00000 114.00000 0.00000
v 38.00000 114.00000 1.00000
v 38.00000 115.00000 0.00000
v 38.00000 115.00000 1.00000
v 38.00000 116.00000 0.00000
v 38.00000 116.00000 1.00000
v 38.00000 117.00000 0.00000
v 38.00000 117.00000 1.00000
v 38.00000 118.00000 0.00000
v 38.00000 118.00000 1.00000
v 38.00000 119.00000 0.00000
v 38.00000 119.00000 1.00000
v 38.00000 120.00000 1.00000
v 38.00000 120.00000 0.00000
v 39.00000 112.00000 0.00000
v 39.00000 112.00000 1.00000
v 39.00000 113.00000 0.00000
v 39.00000 113.00000 1.00000
v 39.00000 114.00000 0.00000
v 39.00000 114.00000 1.00000
v 39.00000 115.00000 0.00000
v 39.00000 115.00000 1.00000
v 39.00000 116.00000 0.00000
v 39.00000 116.00000 1.00000
v 39.00000 117.00000 0.00000
v 39.00000 117.00000 1.00000
v 39.00000 118.00000 0.00000
v 39.00000 118.00000 1.00000
v 39.00000 119.00000 0.00000
v 39.00000 119.00000 1.00000
v 39.00000 120.00000 1.00000
v 39.00000 120.00000 0.00000
v 40.00000 113.00000 1.00000
v 40.00000 112.00000 1.00000
v 40.00000 112.00000 0.00000
v 40.00000 113.00000 0.00000
v 40.00000 114.00000 1.00000
v 40.00000 114.00000 0.00000
v 40.00000 115.00000 1.00000
v 40.00000 115.00000 0.00000
v 40.00000 116.00000 1.00000
v 40.00000 116.00000 0.00000
v 40.00000 117.00000 1.00000
v 40.00000 117.00000 0.00000
v 40.00000 118.00000 1.00000
v 40.00000 118.00000 0.00000
v 40.00000 119.00000 1.00000
v 40.00000 119.00000 0.00000
v 40.00000 120.00000 1.00000
v 40.00000 120.00000 0.00000

vt 0.15625 0.29688
vt 0.15625 0.28906
vt 0.16016 0.28906
vt 0.16016 0.29688
vt 0.48438 0.41406
vt 0.48438 0.40625
vt 0.48828 0.40625
vt 0.48828 0.41406
vt 0.49609 0.41406
vt 0.49609 0.40625
vt 0.50000 0.40625
vt 0.50000 0.41406
vt 0.13281 0.29688
vt 0.13281 0.28906
vt 0.13672 0.28906
vt 0.13672 0.29688
vt 0.00391 0.43750
vt 0.00391 0.42969
vt 0.00781 0.42969
vt 0.00781 0.43750

g 101_Piece12_14_0
usemtl 101_Material
f 1/1/3 2/2/3 3/3/3 4/4/3
f 3/1/6 2/2/6 5/3/6 6/4/6
f 7/1/2 5/2/2 2/3/2 1/4/2
f 4/1/1 3/2/1 6/3/1 8/4/1
f 9/5/3 1/6/3 4/7/3 10/8/3
f 11/5/2 7/6/2 1/7/2 9/8/2
f 10/5/1 4/6/1 8/7/1 12/8/1
f 13/9/3 9/10/3 10/11/3 14/12/3
f 15/9/2 11/10/2 9/11/2 13/12/2
f 14/9/1 10/10/1 12/11/1 16/12/1
f 17/5/3 13/6/3 14/7/3 18/8/3
f 19/5/2 15/6/2 13/7/2 17/8/2
f 18/5/1 14/6/1 16/7/1 20/8/1
f 21/1/3 17/2/3 18/3/3 22/4/3
f 23/1/2 19/2/2 17/3/2 21/4/2
f 22/1/1 18/2/1 20/3/1 24/4/1
f 25/1/3 21/2/3 22/3/3 26/4/3
f 27/1/2 23/2/2 21/3/2 25/4/2
f 26/1/1 22/2/1 24/3/1 28/4/1
f 29/1/3 25/2/3 26/3/3 30/4/3
f 31/1/2 27/2/2 25/3/2 29/4/2
f 30/1/1 26/2/1 28/3/1 32/4/1
f 33/1/3 29/2/3 30/3/3 34/4/3
f 33/1/5 34/2/5 35/3/5 36/4/5
f 36/1/2 31/2/2 29/3/2 33/4/2
f 34/1/1 30/2/1 32/3/1 35/4/1
f 6/13/6 5/14/6 37/15/6 38/16/6
f 39/13/2 37/14/2 5/15/2 7/16/2
f 8/13/1 6/14/1 38/15/1 40/16/1
f 41/1/2 39/2/2 7/3/2 11/4/2
f 12/1/1 8/2/1 40/3/1 42/4/1
f 43/5/2 41/6/2 11/7/2 15/8/2
f 16/5/1 12/6/1 42/7/1 44/8/1
f 45/9/2 43/10/2 15/11/2 19/12/2
f 20/9/1 16/10/1 44/11/1 46/12/1
f 47/5/2 45/6/2 19/7/2 23/8/2
f 24/5/1 20/6/1 46/7/1 48/8/1
f 49/5/2 47/6/2 23/7/2 27/8/2
f 28/5/1 24/6/1 48/7/1 50/8/1
f 51/1/2 49/2/2 27/3/2 31/4/2
f 32/1/1 28/2/1 50/3/1 52/4/1
f 36/13/5 35/14/5 53/15/5 54/16/5
f 54/13/2 51/14/2 31/15/2 36/16/2
f 35/13/1 32/14/1 52/15/1 53/16/1
f 38/13/6 37/14/6 55/15/6 56/16/6
f 57/13/2 55/14/2 37/15/2 39/16/2
f 40/13/1 38/14/1 56/15/1 58/16/1
f 59/1/2 57/2/2 39/3/2 41/4/2
f 42/1/1 40/2/1 58/3/1 60/4/1
f 61/5/2 59/6/2 41/7/2 43/8/2
f 44/5/1 42/6/1 60/7/1 62/8/1
f 63/17/2 61/18/2 43/19/2 45/20/2
f 46/17/1 44/18/1 62/19/1 64/20/1
f 65/9/2 63/10/2 45/11/2 47/12/2
f 48/9/1 46/10/1 64/11/1 66/12/1
f 67/9/2 65/10/2 47/11/2 49/12/2
f 50/9/1 48/10/1 66/11/1 68/12/1
f 69/5/2 67/6/2 49/7/2 51/8/2
f 52/5/1 50/6/1 68/7/1 70/8/1
f 54/13/5 53/14/5 71/15/5 72/16/5
f 72/13/2 69/14/2 51/15/2 54/16/2
f 53/13/1 52/14/1 70/15/1 71/16/1
f 56/1/6 55/2/6 73/3/6 74/4/6
f 75/1/2 73/2/2 55/3/2 57/4/2
f 58/1/1 56/2/1 74/3/1 76/4/1
f 77/5/2 75/6/2 57/7/2 59/8/2
f 60/5/1 58/6/1 76/7/1 78/8/1
f 79/5/2 77/6/2 59/7/2 61/8/2
f 62/5/1 60/6/1 78/7/1 80/8/1
f 81/17/2 79/18/2 61/19/2 63/20/2
f 64/17/1 62/18/1 80/19/1 82/20/1
f 83/17/2 81/18/2 63/19/2 65/20/2
f 66/17/1 64/18/1 82/19/1 84/20/1
f 85/9/2 83/10/2 65/11/2 67/12/2
f 68/9/1 66/10/1 84/11/1 86/12/1
f 87/5/2 85/6/2 67/7/2 69/8/2
f 70/5/1 68/6/1 86/7/1 88/8/1
f 72/1/5 71/2/5 89/3/5 90/4/5
f 90/1/2 87/2/2 69/3/2 72/4/2
f 71/1/1 70/2/1 88/3/1 89/4/1
f 74/1/6 73/2/6 91/3/6 92/4/6
f 93/1/2 91/2/2 73/3/2 75/4/2
f 76/1/1 74/2/1 92/3/1 94/4/1
f 95/5/2 93/6/2 75/7/2 77/8/2
f 78/5/1 76/6/1 94/7/1 96/8/1
f 97/9/2 95/10/2 77/11/2 79/12/2
f 80/9/1 78/10/1 96/11/1 98/12/1
f 99/17/2 97/18/2 79/19/2 81/20/2
f 82/17/1 80/18/1 98/19/1 100/20/1
f 101/17/2 99/18/2 81/19/2 83/20/2
f 84/17/1 82/18/1 100/19/1 102/20/1
f 103/5/2 101/6/2 83/7/2 85/8/2
f 86/5/1 84/6/1 102/7/1 104/8/1
f 105/5/2 103/6/2 85/7/2 87/8/2
f 88/5/1 86/6/1 104/7/1 106/8/1
f 90/1/5 89/2/5 107/3/5 108/4/5
f 108/1/2 105/2/2 87/3/2 90/4/2
f 89/1/1 88/2/1 106/3/1 107/4/1
f 92/13/6 91/14/6 109/15/6 110/16/6
f 111/13/2 109/14/2 91/15/2 93/16/2
f 94/13/1 92/14/1 110/15/1 112/16/1
f 113/5/2 111/6/2 93/7/2 95/8/2
f 96/5/1 94/6/1 112/7/1 114/8/1
f 115/9/2 113/10/2 95/11/2 97/12/2
f 98/9/1 96/10/1 114/11/1 116/12/1
f 117/9/2 115/10/2 97/11/2 99/12/2
f 100/9/1 98/10/1 116/11/1 118/12/1
f 119/17/2 117/18/2 99/19/2 101/20/2
f 102/17/1 100/18/1 118/19/1 120/20/1
f 121/5/2 119/6/2 101/7/2 103/8/2
f 104/5/1 102/6/1 120/7/1 122/8/1
f 123/1/2 121/2/2 103/3/2 105/4/2
f 106/1/1 104/2/1 122/3/1 124/4/1
f 108/13/5 107/14/5 125/15/5 126/16/5
f 126/13/2 123/14/2 105/15/2 108/16/2
f 107/13/1 106/14/1 124/15/1 125/16/1
f 110/13/6 109/14/6 127/15/6 128/16/6
f 129/13/2 127/14/2 109/15/2 111/16/2
f 112/13/1 110/14/1 128/15/1 130/16/1
f 131/1/2 129/2/2 111/3/2 113/4/2
f 114/1/1 112/2/1 130/3/1 132/4/1
f 133/5/2 131/6/2 113/7/2 115/8/2
f 116/5/1 114/6/1 132/7/1 134/8/1
f 135/5/2 133/6/2 115/7/2 117/8/2
f 118/5/1 116/6/1 134/7/1 136/8/1
f 137/9/2 135/10/2 117/11/2 119/12/2
f 120/9/1 118/10/1 136/11/1 138/12/1
f 139/5/2 137/6/2 119/7/2 121/8/2
f 122/5/1 120/6/1 138/7/1 140/8/1
f 141/1/2 139/2/2 121/3/2 123/4/2
f 124/1/1 122/2/1 140/3/1 142/4/1
f 126/13/5 125/14/5 143/15/5 144/16/5
f 144/13/2 141/14/2 123/15/2 126/16/2
f 125/13/1 124/14/1 142/15/1 143/16/1
f 145/1/4 146/2/4 147/3/4 148/4/4
f 128/1/6 127/2/6 147/3/6 146/4/6
f 148/1/2 147/2/2 127/3/2 129/4/2
f 130/1/1 128/2/1 146/3/1 145/4/1
f 149/1/4 145/2/4 148/3/4 150/4/4
f 150/1/2 148/2/2 129/3/2 131/4/2
f 132/1/1 130/2/1 145/3/1 149/4/1
f 151/1/4 149/2/4 150/3/4 152/4/4
f 152/1/2 150/2/2 131/3/2 133/4/2
f 134/1/1 132/2/1 149/3/1 151/4/1
f 153/1/4 151/2/4 152/3/4 154/4/4
f 154/1/2 152/2/2 133/3/2 135/4/2
f 136/1/1 134/2/1 151/3/1 153/4/1
f 155/5/4 153/6/4 154/7/4 156/8/4
f 156/5/2 154/6/2 135/7/2 137/8/2
f 138/5/1 136/6/1 153/7/1 155/8/1
f 157/9/4 155/10/4 156/11/4 158/12/4
f 158/9/2 156/10/2 137/11/2 139/12/2
f 140/9/1 138/10/1 155/11/1 157/12/1
f 159/5/4 157/6/4 158/7/4 160/8/4
f 160/5/2 158/6/2 139/7/2 141/8/2
f 142/5/1 140/6/1 157/7/1 159/8/1
f 161/1/4 159/2/4 160/3/4 162/4/4
f 144/1/5 143/2/5 161/3/5 162/4/5
f 162/1/2 160/2/2 141/3/2 144/4/2
f 143/1/1 142/2/1 159/3/1 161/4/1
