# This file was created with Minddesk Qubicle 3.0
# Get Qubicle at www.getqubicle.com

mtllib 101_Piece13_16_0.mtl

vn 0.0 0.0 1.0
vn 0.0 0.0 -1.0
vn -1.0 0.0 0.0
vn 1.0 0.0 0.0
vn 0.0 1.0 0.0
vn 0.0 -1.0 0.0

v 40.00000 129.00000 0.00000
v 40.00000 128.00000 0.00000
v 40.00000 128.00000 1.00000
v 40.00000 129.00000 1.00000
v 41.00000 128.00000 0.00000
v 41.00000 128.00000 1.00000
v 41.00000 129.00000 0.00000
v 41.00000 129.00000 1.00000
v 40.00000 130.00000 0.00000
v 40.00000 130.00000 1.00000
v 41.00000 130.00000 0.00000
v 41.00000 130.00000 1.00000
v 40.00000 131.00000 0.00000
v 40.00000 131.00000 1.00000
v 41.00000 131.00000 0.00000
v 41.00000 131.00000 1.00000
v 40.00000 132.00000 0.00000
v 40.00000 132.00000 1.00000
v 41.00000 132.00000 0.00000
v 41.00000 132.00000 1.00000
v 40.00000 133.00000 0.00000
v 40.00000 133.00000 1.00000
v 41.00000 133.00000 0.00000
v 41.00000 133.00000 1.00000
v 40.00000 134.00000 0.00000
v 40.00000 134.00000 1.00000
v 41.00000 134.00000 0.00000
v 41.00000 134.00000 1.00000
v 40.00000 135.00000 0.00000
v 40.00000 135.00000 1.00000
v 41.00000 135.00000 0.00000
v 41.00000 135.00000 1.00000
v 40.00000 136.00000 0.00000
v 40.00000 136.00000 1.00000
v 41.00000 136.00000 1.00000
v 41.00000 136.00000 0.00000
v 42.00000 128.00000 0.00000
v 42.00000 128.00000 1.00000
v 42.00000 129.00000 0.00000
v 42.00000 129.00000 1.00000
v 42.00000 130.00000 0.00000
v 42.00000 130.00000 1.00000
v 42.00000 131.00000 0.00000
v 42.00000 131.00000 1.00000
v 42.00000 132.00000 0.00000
v 42.00000 132.00000 1.00000
v 42.00000 133.00000 0.00000
v 42.00000 133.00000 1.00000
v 42.00000 134.00000 0.00000
v 42.00000 134.00000 1.00000
v 42.00000 135.00000 0.00000
v 42.00000 135.00000 1.00000
v 42.00000 136.00000 1.00000
v 42.00000 136.00000 0.00000
v 43.00000 128.00000 0.00000
v 43.00000 128.00000 1.00000
v 43.00000 129.00000 0.00000
v 43.00000 129.00000 1.00000
v 43.00000 130.00000 0.00000
v 43.00000 130.00000 1.00000
v 43.00000 131.00000 0.00000
v 43.00000 131.00000 1.00000
v 43.00000 132.00000 0.00000
v 43.00000 132.00000 1.00000
v 43.00000 133.00000 0.00000
v 43.00000 133.00000 1.00000
v 43.00000 134.00000 0.00000
v 43.00000 134.00000 1.00000
v 43.00000 135.00000 0.00000
v 43.00000 135.00000 1.00000
v 43.00000 136.00000 1.00000
v 43.00000 136.00000 0.00000
v 44.00000 128.00000 0.00000
v 44.00000 128.00000 1.00000
v 44.00000 129.00000 0.00000
v 44.00000 129.00000 1.00000
v 44.00000 130.00000 0.00000
v 44.00000 130.00000 1.00000
v 44.00000 131.00000 0.00000
v 44.00000 131.00000 1.00000
v 44.00000 132.00000 0.00000
v 44.00000 132.00000 1.00000
v 44.00000 133.00000 0.00000
v 44.00000 133.00000 1.00000
v 44.00000 134.00000 0.00000
v 44.00000 134.00000 1.00000
v 44.00000 135.00000 0.00000
v 44.00000 135.00000 1.00000
v 44.00000 136.00000 1.00000
v 44.00000 136.00000 0.00000
v 45.00000 128.00000 0.00000
v 45.00000 128.00000 1.00000
v 45.00000 129.00000 0.00000
v 45.00000 129.00000 1.00000
v 45.00000 130.00000 0.00000
v 45.00000 130.00000 1.00000
v 45.00000 131.00000 0.00000
v 45.00000 131.00000 1.00000
v 45.00000 132.00000 0.00000
v 45.00000 132.00000 1.00000
v 45.00000 133.00000 0.00000
v 45.00000 133.00000 1.00000
v 45.00000 134.00000 0.00000
v 45.00000 134.00000 1.00000
v 45.00000 135.00000 0.00000
v 45.00000 135.00000 1.00000
v 45.00000 136.00000 1.00000
v 45.00000 136.00000 0.00000
v 46.00000 128.00000 0.00000
v 46.00000 128.00000 1.00000
v 46.00000 129.00000 0.00000
v 46.00000 129.00000 1.00000
v 46.00000 130.00000 0.00000
v 46.00000 130.00000 1.00000
v 46.00000 131.00000 0.00000
v 46.00000 131.00000 1.00000
v 46.00000 132.00000 0.00000
v 46.00000 132.00000 1.00000
v 46.00000 133.00000 0.00000
v 46.00000 133.00000 1.00000
v 46.00000 134.00000 0.00000
v 46.00000 134.00000 1.00000
v 46.00000 135.00000 0.00000
v 46.00000 135.00000 1.00000
v 46.00000 136.00000 1.00000
v 46.00000 136.00000 0.00000
v 47.00000 128.00000 0.00000
v 47.00000 128.00000 1.00000
v 47.00000 129.00000 0.00000
v 47.00000 129.00000 1.00000
v 47.00000 130.00000 0.00000
v 47.00000 130.00000 1.00000
v 47.00000 131.00000 0.00000
v 47.00000 131.00000 1.00000
v 47.00000 132.00000 0.00000
v 47.00000 132.00000 1.00000
v 47.00000 133.00000 0.00000
v 47.00000 133.00000 1.00000
v 47.00000 134.00000 0.00000
v 47.00000 134.00000 1.00000
v 47.00000 135.00000 0.00000
v 47.00000 135.00000 1.00000
v 47.00000 136.00000 1.00000
v 47.00000 136.00000 0.00000
v 48.00000 129.00000 1.00000
v 48.00000 128.00000 1.00000
v 48.00000 128.00000 0.00000
v 48.00000 129.00000 0.00000
v 48.00000 130.00000 1.00000
v 48.00000 130.00000 0.00000
v 48.00000 131.00000 1.00000
v 48.00000 131.00000 0.00000
v 48.00000 132.00000 1.00000
v 48.00000 132.00000 0.00000
v 48.00000 133.00000 1.00000
v 48.00000 133.00000 0.00000
v 48.00000 134.00000 1.00000
v 48.00000 134.00000 0.00000
v 48.00000 135.00000 1.00000
v 48.00000 135.00000 0.00000
v 48.00000 136.00000 1.00000
v 48.00000 136.00000 0.00000

vt 0.22656 0.46094
vt 0.22656 0.45313
vt 0.23047 0.45313
vt 0.23047 0.46094
vt 0.23828 0.46094
vt 0.23828 0.45313
vt 0.24219 0.45313
vt 0.24219 0.46094
vt 0.47266 0.06250
vt 0.47266 0.05469
vt 0.47656 0.05469
vt 0.47656 0.06250
vt 0.25000 0.46094
vt 0.25000 0.45313
vt 0.25391 0.45313
vt 0.25391 0.46094
vt 0.26172 0.46094
vt 0.26172 0.45313
vt 0.26563 0.45313
vt 0.26563 0.46094

g 101_Piece13_16_0
usemtl 101_Material
f 1/1/3 2/2/3 3/3/3 4/4/3
f 3/1/6 2/2/6 5/3/6 6/4/6
f 7/1/2 5/2/2 2/3/2 1/4/2
f 4/1/1 3/2/1 6/3/1 8/4/1
f 9/1/3 1/2/3 4/3/3 10/4/3
f 11/1/2 7/2/2 1/3/2 9/4/2
f 10/1/1 4/2/1 8/3/1 12/4/1
f 13/5/3 9/6/3 10/7/3 14/8/3
f 15/5/2 11/6/2 9/7/2 13/8/2
f 14/5/1 10/6/1 12/7/1 16/8/1
f 17/5/3 13/6/3 14/7/3 18/8/3
f 19/5/2 15/6/2 13/7/2 17/8/2
f 18/5/1 14/6/1 16/7/1 20/8/1
f 21/5/3 17/6/3 18/7/3 22/8/3
f 23/5/2 19/6/2 17/7/2 21/8/2
f 22/5/1 18/6/1 20/7/1 24/8/1
f 25/5/3 21/6/3 22/7/3 26/8/3
f 27/5/2 23/6/2 21/7/2 25/8/2
f 26/5/1 22/6/1 24/7/1 28/8/1
f 29/1/3 25/2/3 26/3/3 30/4/3
f 31/1/2 27/2/2 25/3/2 29/4/2
f 30/1/1 26/2/1 28/3/1 32/4/1
f 33/1/3 29/2/3 30/3/3 34/4/3
f 33/1/5 34/2/5 35/3/5 36/4/5
f 36/1/2 31/2/2 29/3/2 33/4/2
f 34/1/1 30/2/1 32/3/1 35/4/1
f 6/1/6 5/2/6 37/3/6 38/4/6
f 39/1/2 37/2/2 5/3/2 7/4/2
f 8/1/1 6/2/1 38/3/1 40/4/1
f 41/9/2 39/10/2 7/11/2 11/12/2
f 12/9/1 8/10/1 40/11/1 42/12/1
f 43/9/2 41/10/2 11/11/2 15/12/2
f 16/9/1 12/10/1 42/11/1 44/12/1
f 45/9/2 43/10/2 15/11/2 19/12/2
f 20/9/1 16/10/1 44/11/1 46/12/1
f 47/9/2 45/10/2 19/11/2 23/12/2
f 24/9/1 20/10/1 46/11/1 48/12/1
f 49/9/2 47/10/2 23/11/2 27/12/2
f 28/9/1 24/10/1 48/11/1 50/12/1
f 51/13/2 49/14/2 27/15/2 31/16/2
f 32/13/1 28/14/1 50/15/1 52/16/1
f 36/1/5 35/2/5 53/3/5 54/4/5
f 54/1/2 51/2/2 31/3/2 36/4/2
f 35/1/1 32/2/1 52/3/1 53/4/1
f 38/1/6 37/2/6 55/3/6 56/4/6
f 57/1/2 55/2/2 37/3/2 39/4/2
f 40/1/1 38/2/1 56/3/1 58/4/1
f 59/9/2 57/10/2 39/11/2 41/12/2
f 42/9/1 40/10/1 58/11/1 60/12/1
f 61/17/2 59/18/2 41/19/2 43/20/2
f 44/17/1 42/18/1 60/19/1 62/20/1
f 63/9/2 61/10/2 43/11/2 45/12/2
f 46/9/1 44/10/1 62/11/1 64/12/1
f 65/17/2 63/18/2 45/19/2 47/20/2
f 48/17/1 46/18/1 64/19/1 66/20/1
f 67/9/2 65/10/2 47/11/2 49/12/2
f 50/9/1 48/10/1 66/11/1 68/12/1
f 69/13/2 67/14/2 49/15/2 51/16/2
f 52/13/1 50/14/1 68/15/1 70/16/1
f 54/5/5 53/6/5 71/7/5 72/8/5
f 72/5/2 69/6/2 51/7/2 54/8/2
f 53/5/1 52/6/1 70/7/1 71/8/1
f 56/5/6 55/6/6 73/7/6 74/8/6
f 75/5/2 73/6/2 55/7/2 57/8/2
f 58/5/1 56/6/1 74/7/1 76/8/1
f 77/9/2 75/10/2 57/11/2 59/12/2
f 60/9/1 58/10/1 76/11/1 78/12/1
f 79/9/2 77/10/2 59/11/2 61/12/2
f 62/9/1 60/10/1 78/11/1 80/12/1
f 81/9/2 79/10/2 61/11/2 63/12/2
f 64/9/1 62/10/1 80/11/1 82/12/1
f 83/17/2 81/18/2 63/19/2 65/20/2
f 66/17/1 64/18/1 82/19/1 84/20/1
f 85/9/2 83/10/2 65/11/2 67/12/2
f 68/9/1 66/10/1 84/11/1 86/12/1
f 87/13/2 85/14/2 67/15/2 69/16/2
f 70/13/1 68/14/1 86/15/1 88/16/1
f 72/5/5 71/6/5 89/7/5 90/8/5
f 90/5/2 87/6/2 69/7/2 72/8/2
f 71/5/1 70/6/1 88/7/1 89/8/1
f 74/5/6 73/6/6 91/7/6 92/8/6
f 93/5/2 91/6/2 73/7/2 75/8/2
f 76/5/1 74/6/1 92/7/1 94/8/1
f 95/9/2 93/10/2 75/11/2 77/12/2
f 78/9/1 76/10/1 94/11/1 96/12/1
f 97/17/2 95/18/2 77/19/2 79/20/2
f 80/17/1 78/18/1 96/19/1 98/20/1
f 99/9/2 97/10/2 79/11/2 81/12/2
f 82/9/1 80/10/1 98/11/1 100/12/1
f 101/17/2 99/18/2 81/19/2 83/20/2
f 84/17/1 82/18/1 100/19/1 102/20/1
f 103/9/2 101/10/2 83/11/2 85/12/2
f 86/9/1 84/10/1 102/11/1 104/12/1
f 105/13/2 103/14/2 85/15/2 87/16/2
f 88/13/1 86/14/1 104/15/1 106/16/1
f 90/5/5 89/6/5 107/7/5 108/8/5
f 108/5/2 105/6/2 87/7/2 90/8/2
f 89/5/1 88/6/1 106/7/1 107/8/1
f 92/1/6 91/2/6 109/3/6 110/4/6
f 111/1/2 109/2/2 91/3/2 93/4/2
f 94/1/1 92/2/1 110/3/1 112/4/1
f 113/9/2 111/10/2 93/11/2 95/12/2
f 96/9/1 94/10/1 112/11/1 114/12/1
f 115/17/2 113/18/2 95/19/2 97/20/2
f 98/17/1 96/18/1 114/19/1 116/20/1
f 117/9/2 115/10/2 97/11/2 99/12/2
f 100/9/1 98/10/1 116/11/1 118/12/1
f 119/17/2 117/18/2 99/19/2 101/20/2
f 102/17/1 100/18/1 118/19/1 120/20/1
f 121/9/2 119/10/2 101/11/2 103/12/2
f 104/9/1 102/10/1 120/11/1 122/12/1
f 123/13/2 121/14/2 103/15/2 105/16/2
f 106/13/1 104/14/1 122/15/1 124/16/1
f 108/5/5 107/6/5 125/7/5 126/8/5
f 126/5/2 123/6/2 105/7/2 108/8/2
f 107/5/1 106/6/1 124/7/1 125/8/1
f 110/1/6 109/2/6 127/3/6 128/4/6
f 129/1/2 127/2/2 109/3/2 111/4/2
f 112/1/1 110/2/1 128/3/1 130/4/1
f 131/9/2 129/10/2 111/11/2 113/12/2
f 114/9/1 112/10/1 130/11/1 132/12/1
f 133/9/2 131/10/2 113/11/2 115/12/2
f 116/9/1 114/10/1 132/11/1 134/12/1
f 135/9/2 133/10/2 115/11/2 117/12/2
f 118/9/1 116/10/1 134/11/1 136/12/1
f 137/9/2 135/10/2 117/11/2 119/12/2
f 120/9/1 118/10/1 136/11/1 138/12/1
f 139/9/2 137/10/2 119/11/2 121/12/2
f 122/9/1 120/10/1 138/11/1 140/12/1
f 141/13/2 139/14/2 121/15/2 123/16/2
f 124/13/1 122/14/1 140/15/1 142/16/1
f 126/1/5 125/2/5 143/3/5 144/4/5
f 144/1/2 141/2/2 123/3/2 126/4/2
f 125/1/1 124/2/1 142/3/1 143/4/1
f 145/1/4 146/2/4 147/3/4 148/4/4
f 128/1/6 127/2/6 147/3/6 146/4/6
f 148/1/2 147/2/2 127/3/2 129/4/2
f 130/1/1 128/2/1 146/3/1 145/4/1
f 149/1/4 145/2/4 148/3/4 150/4/4
f 150/1/2 148/2/2 129/3/2 131/4/2
f 132/1/1 130/2/1 145/3/1 149/4/1
f 151/5/4 149/6/4 150/7/4 152/8/4
f 152/5/2 150/6/2 131/7/2 133/8/2
f 134/5/1 132/6/1 149/7/1 151/8/1
f 153/5/4 151/6/4 152/7/4 154/8/4
f 154/5/2 152/6/2 133/7/2 135/8/2
f 136/5/1 134/6/1 151/7/1 153/8/1
f 155/5/4 153/6/4 154/7/4 156/8/4
f 156/5/2 154/6/2 135/7/2 137/8/2
f 138/5/1 136/6/1 153/7/1 155/8/1
f 157/5/4 155/6/4 156/7/4 158/8/4
f 158/5/2 156/6/2 137/7/2 139/8/2
f 140/5/1 138/6/1 155/7/1 157/8/1
f 159/1/4 157/2/4 158/3/4 160/4/4
f 160/1/2 158/2/2 139/3/2 141/4/2
f 142/1/1 140/2/1 157/3/1 159/4/1
f 161/1/4 159/2/4 160/3/4 162/4/4
f 144/1/5 143/2/5 161/3/5 162/4/5
f 162/1/2 160/2/2 141/3/2 144/4/2
f 143/1/1 142/2/1 159/3/1 161/4/1
